<?xml version="1.0" encoding="utf-8"?>
<!-- Generator: Adobe Illustrator 22.0.1, SVG Export Plug-In . SVG Version: 6.00 Build 0)  -->
<svg version="1.1" id="Capa_2_1_" xmlns="http://www.w3.org/2000/svg" xmlns:xlink="http://www.w3.org/1999/xlink" x="0px" y="0px"
	 viewBox="0 0 40 58.8" style="enable-background:new 0 0 40 58.8;" xml:space="preserve">
<style type="text/css">
	.st0{fill:#FFCD00;}
	.st1{fill:#D4A003;}
	.st2{fill:#FFFFFF;}
	.st3{fill:#86898B;}
</style>
<title>totalPlay2</title>
<path class="st0" d="M19.3,0C8.3,0.3-0.4,9.5,0,20.5C0,22.8,0.5,25,1.3,27.1v0c0.5,1.2,1,2.3,1.7,3.4l18.6,28.2l16.9-31.1
	c0.2-0.4,0.3-0.7,0.4-1.1l0.2-0.6l0,0C42.4,15.4,36.6,4.2,26,0.9C23.8,0.2,21.6-0.1,19.3,0z"/>
<path class="st1" d="M28.4,8.3l-17,21.4L30,43.2l8.5-15.7c0.2-0.4,0.3-0.7,0.4-1.1l0.2-0.6l0,0c0.9-3.1,1.1-6.3,0.6-9.4L28.4,8.3z"
	/>
<path class="st2" d="M34,18.9c0.3,7.7-5.8,14.2-13.5,14.5S6.3,27.6,6,19.8C5.8,12.2,11.8,5.7,19.5,5.4C27.2,5.1,33.7,11.1,34,18.9
	C34,18.9,34,18.9,34,18.9"/>
<g id="Capa_3">
	<g>
		<rect x="10.8" y="17.7" class="st3" width="1.4" height="6.9"/>
		<rect x="27.5" y="17.7" class="st3" width="1.4" height="6.9"/>
		<polygon class="st0" points="19.8,12.2 30.3,16.4 9.5,16.4 		"/>
		<g>
			<path d="M13.2,19.5h1.5c0.3,0,0.5,0,0.6,0.1s0.3,0.1,0.4,0.1c0.1,0.1,0.2,0.2,0.3,0.3c0.1,0.1,0.1,0.3,0.1,0.4S16.1,20.8,16,21
				c-0.1,0.1-0.2,0.3-0.4,0.3c0.3,0.1,0.4,0.2,0.5,0.3c0.1,0.2,0.2,0.3,0.2,0.6c0,0.2-0.1,0.3-0.1,0.5S16,23,15.9,23.1
				c-0.1,0.1-0.3,0.1-0.5,0.2c-0.1,0-0.4,0-0.9,0h-1.3V19.5z M13.9,20.1V21h0.5c0.3,0,0.5,0,0.6,0c0.1,0,0.3-0.1,0.3-0.1
				c0.1-0.1,0.1-0.2,0.1-0.3c0-0.1-0.1-0.2-0.1-0.3c-0.1-0.1-0.1-0.1-0.3-0.1c-0.1,0-0.3,0-0.6,0L13.9,20.1L13.9,20.1z M13.9,21.6v1
				h0.7c0.3,0,0.4,0,0.5,0c0.1,0,0.2-0.1,0.3-0.1s0.1-0.2,0.1-0.3c0-0.1,0-0.2-0.1-0.3c-0.1-0.1-0.1-0.1-0.3-0.2s-0.3-0.1-0.7-0.1
				C14.5,21.6,13.9,21.6,13.9,21.6z"/>
			<path d="M16.8,21.4c0-0.4,0.1-0.7,0.2-0.9c0.1-0.2,0.2-0.4,0.3-0.5c0.1-0.1,0.3-0.3,0.5-0.3c0.3-0.1,0.5-0.1,0.8-0.1
				c0.6,0,1,0.2,1.3,0.5s0.5,0.8,0.5,1.4c0,0.6-0.2,1.1-0.5,1.4s-0.8,0.5-1.3,0.5s-1-0.2-1.3-0.5C16.9,22.4,16.8,22,16.8,21.4z
				 M17.5,21.4c0,0.4,0.1,0.8,0.3,0.9c0.2,0.2,0.4,0.3,0.8,0.3c0.3,0,0.6-0.1,0.8-0.3c0.2-0.2,0.3-0.6,0.3-0.9
				c0-0.4-0.1-0.8-0.3-0.9c-0.2-0.2-0.4-0.3-0.8-0.3s-0.6,0.1-0.8,0.3C17.6,20.6,17.5,20.9,17.5,21.4z"/>
			<path d="M20.9,23.2v-3.7h2.5v0.6h-1.8V21h1.6v0.6h-1.6v1.6H20.9z"/>
			<path d="M24,23.2v-3.7h2.5v0.6h-1.8V21h1.6v0.6h-1.6v1.6H24z"/>
		</g>
	</g>
</g>
</svg>
