<?xml version="1.0" encoding="utf-8"?>
<!-- Generator: Adobe Illustrator 22.0.1, SVG Export Plug-In . SVG Version: 6.00 Build 0)  -->
<svg version="1.1" id="Capa_2_1_" xmlns="http://www.w3.org/2000/svg" xmlns:xlink="http://www.w3.org/1999/xlink" x="0px" y="0px"
	 viewBox="0 0 40 58.8" style="enable-background:new 0 0 40 58.8;" xml:space="preserve">
<style type="text/css">
	.st0{fill:#FFCD00;}
	.st1{fill:#D4A003;}
	.st2{fill:#FFFFFF;}
	.st3{fill:#E71618;}
</style>
<title>totalPlay2</title>
<path class="st0" d="M19.3,0C8.3,0.3-0.4,9.5,0,20.5C0,22.8,0.5,25,1.3,27.1v0c0.5,1.2,1,2.3,1.7,3.4l18.6,28.2l16.9-31.1
	c0.2-0.4,0.3-0.7,0.4-1.1l0.2-0.6l0,0C42.4,15.4,36.6,4.2,26,0.9C23.8,0.2,21.6-0.1,19.3,0z"/>
<path class="st1" d="M28.1,8L10.8,29.9l19,13.7l8.7-16c0.2-0.4,0.3-0.7,0.4-1.1l0.2-0.6l0,0c0.9-3.1,1.1-6.4,0.6-9.6L28.1,8z"/>
<path class="st2" d="M34,18.9c0.3,7.7-5.8,14.2-13.5,14.5S6.3,27.6,6,19.8C5.8,12.2,11.8,5.7,19.5,5.4C27.2,5.1,33.7,11.1,34,18.9
	C34,18.9,34,18.9,34,18.9"/>
<g id="Capa_3">
	<g>
		<path class="st3" d="M20.1,18.4c0,0,0.5,1.5,1.5,2c0.9,0.4,2.1,0.5,3.1-0.6c0.9-1,0.7-2.1,0.7-2.1l2.6-0.5c0,0,0.3,1.8-0.1,3.5
			c0,0-1.3,1.6-3.4,1.6c-2.2,0-4.1-0.9-4.6-3.8L20.1,18.4z"/>
		<path class="st3" d="M19.5,18.6c0,0,1-1.1,0.9-2.3c0-0.9-0.5-2-2.1-2.3c-1.4-0.3-2.2,0.5-2.2,0.5l-1.7-2c0,0,1.4-1.2,3.1-1.7
			c0,0,2.1,0.3,3.2,2.1c1.1,1.9,1.3,3.9-0.9,5.9L19.5,18.6z"/>
		<path class="st3" d="M20.1,19c0,0-1.5-0.3-2.5,0.3c-0.9,0.5-1.5,1.5-1,3c0.4,1.4,1.5,1.6,1.5,1.6l-0.9,2.5c0,0-1.8-0.6-3-1.9
			c0,0-0.8-2,0.3-3.8c1.1-1.9,2.8-3.1,5.6-2.1V19z"/>
		<path class="st3" d="M25.9,13.7c0.3,0.5,0.8,1.7-0.4,3.3c-0.8,1-2.1,1.1-2.1,1.1s2.8-2.8-0.3-4.6l1.5-0.9
			C24.7,12.5,25.5,13,25.9,13.7z"/>
		<path class="st3" d="M12.5,16c0.3-0.5,1.1-1.5,3-1.2c1.4,0.2,2.1,1.3,2.1,1.3s-3.9-1-3.9,2.5l-1.5-0.9
			C12.2,17.6,12.2,16.6,12.5,16z"/>
		<polygon class="st3" points="13.6,18.5 12.2,17.6 11.7,18 10.9,19 12.4,19.8 		"/>
		<path class="st3" d="M21.2,26.3c-0.6,0-1.9-0.2-2.6-2c-0.4-1.2,0.1-2.3,0.1-2.3s1,3.9,4.1,2.1L22.7,26
			C22.8,25.9,21.9,26.4,21.2,26.3z"/>
		<polygon class="st3" points="22.9,24.1 22.8,25.9 23.3,26 24.6,26.3 24.6,24.5 		"/>
	</g>
</g>
</svg>
