<svg id="Capa_2" data-name="Capa 2" xmlns="http://www.w3.org/2000/svg" viewBox="0 0 40 58.75"><defs><style>.cls-1{fill:#ffcd00;}.cls-2{fill:#d4a003;fill-rule:evenodd;}.cls-3{fill:#fff;}.cls-4{fill:#ffbd41;}.cls-5{fill:#634795;}.cls-6{fill:#e34885;}.cls-7{fill:#4dc2e3;}.cls-8{fill:#dcdb3e;}.cls-9{fill:#e61f2e;}</style></defs><title>totalPlay2</title><path class="cls-1" d="M19.29,0a19.93,19.93,0,0,0-18,27.07l0,.05A19.67,19.67,0,0,0,3,30.51l18.6,28.24L38.5,27.63c.16-.36.29-.73.42-1.1l.21-.57h0A20,20,0,0,0,19.29,0Z" transform="translate(0 0)"/><path class="cls-2" d="M28.13,8,10.67,29.93l19.1,13.8,8.73-16.1c.16-.36.29-.73.42-1.1l.21-.57h0a20.76,20.76,0,0,0,.58-9.67Z" transform="translate(0 0)"/><path class="cls-3" d="M34,18.93A14,14,0,1,1,19.45,5.4,14,14,0,0,1,34,18.93" transform="translate(0 0)"/><path class="cls-4" d="M18.83,14.05a.31.31,0,0,0,0-.59l-3.63-2.1c-.28-.16-.51,0-.51.3v4.2c0,.32.23.45.51.29Z" transform="translate(0 0)"/><path class="cls-5" d="M18.83,19.42a.31.31,0,0,0,0-.58l-3.63-2.1c-.28-.16-.51,0-.51.29v4.2c0,.32.23.45.51.29Z" transform="translate(0 0)"/><path class="cls-6" d="M18.83,24.8c.28-.17.28-.43,0-.59l-3.63-2.1c-.28-.16-.51,0-.51.29v4.2c0,.32.23.46.51.3Z" transform="translate(0 0)"/><path class="cls-7" d="M19.34,18.54c0,.33.23.46.51.3l3.63-2.1c.28-.17.28-.43,0-.59l-3.63-2.1c-.28-.16-.51,0-.51.29Z" transform="translate(0 0)"/><path class="cls-8" d="M19.34,23.92c0,.32.23.45.51.29l3.63-2.1a.31.31,0,0,0,0-.59l-3.63-2.1c-.28-.16-.51,0-.51.3Z" transform="translate(0 0)"/><path class="cls-9" d="M24,21.23c0,.32.23.45.51.29l3.64-2.1a.31.31,0,0,0,0-.58l-3.64-2.1c-.28-.16-.51,0-.51.29Z" transform="translate(0 0)"/></svg>