<?xml version="1.0" encoding="utf-8"?>
<!-- Generator: Adobe Illustrator 22.0.1, SVG Export Plug-In . SVG Version: 6.00 Build 0)  -->
<svg version="1.1" id="Capa_2_1_" xmlns="http://www.w3.org/2000/svg" xmlns:xlink="http://www.w3.org/1999/xlink" x="0px" y="0px"
	 viewBox="0 0 40 58.8" style="enable-background:new 0 0 40 58.8;" xml:space="preserve">
<style type="text/css">
	.st0{fill:#FFCD00;}
	.st1{fill:#D4A003;}
	.st2{fill:#FFFFFF;}
	.st3{fill:#FFB711;}
	.st4{fill:#003097;}
	.st5{fill:#3F1C8E;}
	.st6{fill:#EF172F;}
	.st7{fill:#00933B;}
	.st8{fill:#5B4394;}
	.st9{fill:#009C4A;}
	.st10{fill:#006EB8;}
	.st11{fill:#FFB246;}
</style>
<title>totalPlay2</title>
<path class="st0" d="M19.3,0C8.3,0.3-0.4,9.5,0,20.5C0,22.8,0.5,25,1.3,27.1v0c0.5,1.2,1,2.3,1.7,3.4l18.6,28.2l16.9-31.1
	c0.2-0.4,0.3-0.7,0.4-1.1l0.2-0.6l0,0C42.4,15.4,36.6,4.2,26,0.9C23.8,0.2,21.6-0.1,19.3,0z"/>
<path class="st1" d="M28.4,8.3l-17,21.4L30,43.2l8.5-15.7c0.2-0.4,0.3-0.7,0.4-1.1l0.2-0.6l0,0c0.9-3.1,1.1-6.3,0.6-9.4L28.4,8.3z"
	/>
<path class="st2" d="M34,18.9c0.3,7.7-5.8,14.2-13.5,14.5S6.3,27.6,6,19.8C5.8,12.2,11.8,5.7,19.5,5.4C27.2,5.1,33.7,11.1,34,18.9
	C34,18.9,34,18.9,34,18.9"/>
<g id="Capa_4">
	<g>
		<path class="st3" d="M25.8,16.3l4.9,7.9c0,0,0.4,0.5-0.6,1c0,0-4.8,2.4-6.5-2.9c0,0-1.3-4.1,0.3-5.8
			C23.8,16.4,24.9,15.1,25.8,16.3z"/>
		<path class="st4" d="M15.1,25.1c-1.5-0.4-1-2.8-1-2.8c1.3-7,6.7-9,9.4-9.7l-0.1,0.1c0,0,0-0.1,0.1-0.1h0.1c0.1,0,0.1,0.1,0.1,0.1
			s0,0.1-0.1,0.1c0,0,0,0-0.1,0l0,0c-6.8,2.7-6.6,10.4-6.6,10.4s0,1.9-1.4,1.9C15.4,25.2,15.3,25.1,15.1,25.1z"/>
		<path class="st5" d="M18.9,26.3c-1.6-0.1-1.5-2.4-1.5-2.4c0-8.3,5.1-10.5,7.4-11.1c0,0,0,0,0,0.1v-0.1H25l0.1,0.1V13
			c0,0,0,0-0.1,0c-6.5,3.1-4.8,11-4.8,11S20.8,26.3,18.9,26.3C19.1,26.3,18.9,26.3,18.9,26.3z"/>
		<path class="st6" d="M21.1,24.9c-1.9-8.3,2.6-10.8,4.4-11.5c0,0,0,0,0,0.1c0,0,0,0,0-0.1c0,0,0,0,0.1,0c0,0,0,0,0.1,0l0.1,0.1l0,0
			c0,0-0.1,0-0.1,0.1c-5.2,4-1.9,10.3-1.9,10.3s1,1.9-0.4,2.4c-0.2,0.1-0.4,0.1-0.6,0.1C21.4,26.4,21.1,24.9,21.1,24.9z"/>
		<path class="st7" d="M9.6,13.7L9.6,13.7c-0.1,0-0.1,0-0.1,0.1c0,0,0,0,0,0.1l0,0l0,0c0.9,0.6,3.8,2.9,4.9,5.8c0,0,0.5-2.2,3.1-4.6
			c0,0,0.4-0.6-0.4-1.1C17,14.1,15.9,13.5,9.6,13.7L9.6,13.7z"/>
		<path class="st6" d="M25.5,13.3L25.5,13.3c-0.1,0-0.1,0-0.1,0c-1.3,0.5-4,2-4.7,6c0.6,0.1,1.3,0.2,1.9,0.4c-0.1-2,0.5-4.3,2.9-6.2
			c0,0,0.1,0,0.1-0.1l0,0C25.6,13.3,25.6,13.3,25.5,13.3z"/>
		<path class="st8" d="M25.1,12.8H25c-1.7,0.4-5.1,1.8-6.6,6c0.6,0.2,1.3,0.3,1.9,0.5c0.4-2.2,1.7-4.8,4.8-6.3c0,0,0,0,0.1,0
			c0,0,0,0,0-0.1S25.1,12.8,25.1,12.8z"/>
		<path class="st9" d="M17,14.1c0,0-1.3-0.6-7.4-0.4l0,0H9.5c0,0,0,0,0,0.1c0,0,0,0,0,0.1l0,0l0,0c0.5,0.3,1.8,1.3,3,2.6
			c1,0.5,1.9,0.9,2.9,1.3c0.4-0.7,1.2-1.7,2.1-2.6C17.6,15.1,18,14.5,17,14.1z"/>
		<path class="st10" d="M23.6,12.6h-0.1c-2.1,0.4-5.6,1.7-7.8,5.2c0.7,0.2,1.4,0.5,2.1,0.7c0.9-2.1,2.6-4.5,5.6-5.7c0,0,0,0,0.1,0
			l0.1-0.1C23.7,12.6,23.6,12.6,23.6,12.6z"/>
		<path class="st11" d="M25.8,16.3c-0.9-1.2-1.9,0-1.9,0c-0.7,0.9-0.9,2.2-0.7,3.4c1.7,0.3,3.4,0.4,5.1,0.5L25.8,16.3z"/>
	</g>
</g>
</svg>
