<?xml version="1.0" encoding="utf-8"?>
<!-- Generator: Adobe Illustrator 22.0.1, SVG Export Plug-In . SVG Version: 6.00 Build 0)  -->
<svg version="1.1" id="Capa_3" xmlns="http://www.w3.org/2000/svg" xmlns:xlink="http://www.w3.org/1999/xlink" x="0px" y="0px"
	 viewBox="0 0 20 20" style="enable-background:new 0 0 20 20;" xml:space="preserve">
<style type="text/css">
	.st0{fill:none;stroke:#464646;stroke-width:0.5;stroke-linecap:round;stroke-linejoin:round;}
</style>
<g id="Capa_2_3_">
	<g id="Capa_1-2_1_">
		<rect x="4.3" y="5.1" class="st0" width="8" height="11.4"/>
		<rect x="12.3" y="7.9" class="st0" width="3.4" height="8.6"/>
		<rect x="6.4" y="3.5" class="st0" width="3.9" height="1.5"/>
		<line class="st0" x1="6.1" y1="6.5" x2="10.5" y2="6.5"/>
		<line class="st0" x1="6.1" y1="7.9" x2="10.5" y2="7.9"/>
		<line class="st0" x1="6.1" y1="9.3" x2="10.5" y2="9.3"/>
		<line class="st0" x1="6.1" y1="10.8" x2="10.5" y2="10.8"/>
		<line class="st0" x1="6.1" y1="12.2" x2="10.5" y2="12.2"/>
		<line class="st0" x1="6.1" y1="13.6" x2="10.5" y2="13.6"/>
		<line class="st0" x1="6.1" y1="15" x2="10.5" y2="15"/>
		<line class="st0" x1="12.3" y1="9.3" x2="14" y2="9.3"/>
		<line class="st0" x1="12.3" y1="10.8" x2="14" y2="10.8"/>
		<line class="st0" x1="12.3" y1="12.2" x2="14" y2="12.2"/>
		<line class="st0" x1="12.3" y1="13.6" x2="14" y2="13.6"/>
		<line class="st0" x1="12.3" y1="15" x2="14" y2="15"/>
		<rect x="7.6" y="15" class="st0" width="1.4" height="1.4"/>
		<line class="st0" x1="2.9" y1="16.5" x2="17.1" y2="16.5"/>
	</g>
</g>
</svg>
