<?xml version="1.0" encoding="utf-8"?>
<!-- Generator: Adobe Illustrator 22.0.1, SVG Export Plug-In . SVG Version: 6.00 Build 0)  -->
<svg version="1.1" id="Capa_2" xmlns="http://www.w3.org/2000/svg" xmlns:xlink="http://www.w3.org/1999/xlink" x="0px" y="0px"
	 viewBox="0 0 24 24" style="enable-background:new 0 0 24 24;" xml:space="preserve">
<style type="text/css">
	.st0{fill:#333333;stroke:#333333;stroke-width:0.5;stroke-miterlimit:10;}
</style>
<path class="st0" d="M16.3,9.7H7V7.1h9.3V9.7z M16.3,12.8h-4.4v-2.5h4.4V12.8z M16.3,16.2h-4.4v-2.9h4.4V16.2z M11.4,12.8H7v-2.5
	h4.4V12.8z M11.4,16.2H7v-2.9h4.4V16.2z M16.2,6.6H7.1c-0.4,0-0.6,0.3-0.6,0.6v8.8c0,0.4,0.3,0.6,0.6,0.6h9.1c0.4,0,0.6-0.3,0.6-0.6
	V7.3C16.8,6.9,16.5,6.6,16.2,6.6"/>
<path class="st0" d="M12,23.3c-3.6,0-7-1.7-9.1-4.6c-0.1-0.2-0.1-0.4,0.1-0.5c0.2-0.1,0.4-0.1,0.5,0.1c2,2.7,5.2,4.3,8.6,4.3
	c5.8,0,10.6-4.8,10.6-10.6c0-0.2,0.2-0.4,0.4-0.4c0.2,0,0.4,0.2,0.4,0.4C23.3,18.2,18.2,23.3,12,23.3"/>
<path class="st0" d="M1,12.3c-0.2,0-0.4-0.2-0.4-0.4C0.7,5.7,5.7,0.7,12,0.7c3.8,0,7.3,1.9,9.4,5c0.1,0.2,0.1,0.4-0.1,0.5
	c-0.2,0.1-0.4,0.1-0.5-0.1c-2-2.9-5.3-4.7-8.8-4.7C6.1,1.4,1.4,6.1,1.4,12C1.4,12.2,1.2,12.3,1,12.3"/>
<path class="st0" d="M21.3,7.3c0,0-0.1,0-0.1,0C21,7.2,20.9,6.9,21,6.8l1.3-3.3c0.1-0.2,0.3-0.3,0.5-0.2C23,3.4,23.1,3.6,23,3.8
	L21.7,7C21.6,7.2,21.5,7.3,21.3,7.3"/>
<path class="st0" d="M21.2,7.3c0,0-0.1,0-0.1,0L17.8,6c-0.2-0.1-0.3-0.3-0.2-0.5c0.1-0.2,0.3-0.3,0.5-0.2l3.3,1.3
	c0.2,0.1,0.3,0.3,0.2,0.5C21.5,7.2,21.4,7.3,21.2,7.3"/>
<path class="st0" d="M1.9,21.7C1.9,21.7,1.9,21.7,1.9,21.7c-0.3-0.1-0.4-0.2-0.4-0.4l0.8-3.4c0-0.2,0.2-0.3,0.4-0.3
	c0.2,0,0.3,0.2,0.3,0.4l-0.8,3.4C2.3,21.6,2.1,21.7,1.9,21.7"/>
<path class="st0" d="M6.2,18.9C6.2,18.9,6.2,18.9,6.2,18.9l-3.5-0.8c-0.2,0-0.3-0.2-0.3-0.4c0-0.2,0.2-0.3,0.4-0.3l3.4,0.8
	c0.2,0,0.3,0.2,0.3,0.4C6.5,18.8,6.4,18.9,6.2,18.9"/>
</svg>
