<?xml version="1.0" encoding="utf-8"?>
<!-- Generator: Adobe Illustrator 22.0.1, SVG Export Plug-In . SVG Version: 6.00 Build 0)  -->
<svg version="1.1" id="Capa_3" xmlns="http://www.w3.org/2000/svg" xmlns:xlink="http://www.w3.org/1999/xlink" x="0px" y="0px"
	 viewBox="0 0 20 20" style="enable-background:new 0 0 20 20;" xml:space="preserve">
<style type="text/css">
	.st0{fill:none;stroke:#464646;stroke-width:0.75;stroke-linecap:round;stroke-linejoin:round;}
</style>
<g id="Capa_2_2_">
	<g id="Capa_1-2">
		<path class="st0" d="M13.5,10c0,1.9-1.6,3.5-3.5,3.5S6.5,11.9,6.5,10S8.1,6.5,10,6.5l0,0C12,6.5,13.5,8,13.5,10z"/>
		<path class="st0" d="M11,9.1c-0.3-0.9-1.9-0.8-1.9,0.1c0,0.5,0.5,0.6,0.9,0.7c1.5,0.2,1.1,1.7,0,1.6c-0.5,0-1-0.3-1.1-0.7"/>
		<line class="st0" x1="10" y1="7.7" x2="10" y2="8.5"/>
		<line class="st0" x1="10" y1="11.6" x2="10" y2="12.4"/>
		<path class="st0" d="M16.3,9.3c0-0.1-0.1-0.2-0.2-0.2l-1.2-0.3c-0.1,0-0.2-0.1-0.2-0.2l-0.4-0.8c-0.1-0.1-0.1-0.2,0-0.3l0.6-1.1
			c0.1-0.1,0-0.2,0-0.3L14,5.1C13.9,5,13.8,5,13.7,5l-1.1,0.6c-0.1,0.1-0.2,0.1-0.3,0l-0.8-0.3c-0.1,0-0.2-0.1-0.2-0.2l-0.3-1.2
			c0-0.1-0.1-0.2-0.2-0.2H9.4c-0.1,0-0.2,0.1-0.2,0.2L8.8,5.1c0,0.1-0.1,0.2-0.2,0.2L7.7,5.7c-0.1,0-0.2,0-0.3,0L6.3,5
			C6.2,5,6.1,5,6,5.1L5.1,6C5,6.1,5,6.2,5.1,6.3l0.6,1.1c0.1,0.1,0.1,0.2,0,0.3L5.3,8.6c0,0.1-0.1,0.2-0.2,0.2L3.9,9.1
			c-0.1,0-0.2,0.1-0.2,0.2v1.3c0,0.1,0.1,0.2,0.2,0.2l1.2,0.3c0.1,0,0.2,0.1,0.2,0.2l0.3,0.8c0.1,0.1,0.1,0.2,0,0.3L5,13.7
			c-0.1,0.1,0,0.2,0,0.3L6,14.9C6.1,15,6.2,15,6.3,15l1.1-0.6c0.1-0.1,0.2-0.1,0.3,0l0.8,0.4c0.1,0,0.2,0.1,0.2,0.2l0.3,1.2
			c0,0.1,0.1,0.2,0.2,0.2h1.3c0.1,0,0.2-0.1,0.2-0.2l0.3-1.2c0-0.1,0.1-0.2,0.2-0.2l0.8-0.4c0.1-0.1,0.2-0.1,0.3,0l1.1,0.6
			c0.1,0.1,0.2,0,0.3,0l0.9-0.9c0.1-0.1,0.1-0.2,0-0.3l-0.6-1.1c-0.1-0.1-0.1-0.2,0-0.3l0.3-0.8c0-0.1,0.1-0.2,0.2-0.2l1.2-0.3
			c0.1,0,0.2-0.1,0.2-0.2V9.3z"/>
	</g>
</g>
</svg>
