<?xml version="1.0" encoding="utf-8"?>
<!-- Generator: Adobe Illustrator 22.0.1, SVG Export Plug-In . SVG Version: 6.00 Build 0)  -->
<svg version="1.1" id="Capa_3" xmlns="http://www.w3.org/2000/svg" xmlns:xlink="http://www.w3.org/1999/xlink" x="0px" y="0px"
	 viewBox="0 0 20 20" style="enable-background:new 0 0 20 20;" xml:space="preserve">
<style type="text/css">
	.st0{fill:none;stroke:#464646;stroke-width:0.5;stroke-linecap:round;stroke-linejoin:round;}
</style>
<g id="b_1_">
	<g id="c_1_">
		<g>
			<path class="st0" d="M4.2,3.5h11.6c1.3,0,2.3,1,2.3,2.3v8.3c0,1.3-1,2.3-2.3,2.3H4.2c-1.3,0-2.3-1-2.3-2.3V5.8
				C1.9,4.6,2.9,3.5,4.2,3.5z"/>
			<line class="st0" x1="1.9" y1="6.1" x2="18.1" y2="6.1"/>
			<line class="st0" x1="4.4" y1="4.8" x2="4.4" y2="4.8"/>
			<line class="st0" x1="6.5" y1="4.8" x2="6.5" y2="4.8"/>
			<path class="st0" d="M7.8,8.4h4.4c0.6,0,1.1,0.5,1.1,1.1v3.2c0,0.6-0.5,1.1-1.1,1.1H7.8c-0.6,0-1.1-0.5-1.1-1.1V9.5
				C6.7,8.9,7.2,8.4,7.8,8.4z"/>
			<polyline class="st0" points="7,13.4 9.3,11.2 10.5,12.4 13.3,9.5 			"/>
			<line class="st0" x1="10.5" y1="10" x2="10.5" y2="10"/>
		</g>
	</g>
</g>
</svg>
