<?xml version="1.0" encoding="utf-8"?>
<!-- Generator: Adobe Illustrator 22.0.1, SVG Export Plug-In . SVG Version: 6.00 Build 0)  -->
<svg version="1.1" id="Capa_3" xmlns="http://www.w3.org/2000/svg" xmlns:xlink="http://www.w3.org/1999/xlink" x="0px" y="0px"
	 viewBox="0 0 20 20" style="enable-background:new 0 0 20 20;" xml:space="preserve">
<style type="text/css">
	.st0{fill:none;stroke:#464646;stroke-width:0.5;stroke-linecap:round;stroke-linejoin:round;}
</style>
<g id="Capa_2_3_">
	<g id="Capa_1-2_1_">
		<path class="st0" d="M6.2,13.1c0,0.5-0.4,0.9-0.9,0.9s-0.9-0.4-0.9-0.9c0-0.5,0.4-0.9,0.9-0.9S6.2,12.6,6.2,13.1L6.2,13.1"/>
		<path class="st0" d="M7.1,16.5v-1c0-0.4-0.3-0.7-0.7-0.7l0,0H4.3c-0.4,0-0.7,0.3-0.7,0.7c0,0,0,0,0,0v1"/>
		<path class="st0" d="M15.5,13.1c0,0.5-0.4,0.9-0.9,0.9s-0.9-0.4-0.9-0.9s0.4-0.9,0.9-0.9S15.5,12.6,15.5,13.1L15.5,13.1"/>
		<path class="st0" d="M16.4,16.5v-1c0-0.4-0.3-0.7-0.7-0.7c0,0,0,0,0,0h-2.1c-0.4,0-0.7,0.3-0.7,0.7c0,0,0,0,0,0v1"/>
		<path class="st0" d="M6.2,4.5c0,0.5-0.4,0.9-0.9,0.9c-0.5,0-0.9-0.4-0.9-0.9s0.4-0.9,0.9-0.9c0,0,0,0,0,0C5.8,3.6,6.2,4,6.2,4.5"
			/>
		<path class="st0" d="M7.1,7.8v-1c0-0.4-0.3-0.7-0.7-0.7l0,0H4.3c-0.4,0-0.7,0.3-0.7,0.7c0,0,0,0,0,0v1"/>
		<path class="st0" d="M15.5,4.5c0,0.5-0.4,0.9-0.9,0.9c-0.5,0-0.9-0.4-0.9-0.9s0.4-0.9,0.9-0.9S15.5,4,15.5,4.5
			C15.5,4.5,15.5,4.5,15.5,4.5"/>
		<path class="st0" d="M16.4,7.8v-1c0-0.4-0.3-0.7-0.7-0.7l0,0h-2.1c-0.4,0-0.7,0.3-0.7,0.7c0,0,0,0,0,0v1"/>
		<line class="st0" x1="5.8" y1="8.2" x2="7" y2="9.2"/>
		<line class="st0" x1="11.4" y1="13.1" x2="12.6" y2="14.1"/>
		<line class="st0" x1="14.2" y1="8.2" x2="13" y2="9.3"/>
		<line class="st0" x1="8.6" y1="13.1" x2="7.4" y2="14.1"/>
		<path class="st0" d="M12.4,10.2c0,1.3-1,2.4-2.4,2.4c-1.3,0-2.4-1-2.4-2.4c0-1.3,1-2.4,2.4-2.4c0,0,0,0,0,0
			C11.3,7.8,12.4,8.9,12.4,10.2z"/>
		<path class="st0" d="M10.9,10.2c0,1.3-0.4,2.4-0.9,2.4s-0.9-1.1-0.9-2.4S9.5,7.8,10,7.8S10.9,8.9,10.9,10.2z"/>
		<line class="st0" x1="7.8" y1="11" x2="12.3" y2="11"/>
		<line class="st0" x1="7.8" y1="9.4" x2="12.3" y2="9.4"/>
	</g>
</g>
</svg>
