<?xml version="1.0" encoding="utf-8"?>
<!-- Generator: Adobe Illustrator 22.0.1, SVG Export Plug-In . SVG Version: 6.00 Build 0)  -->
<svg version="1.1" xmlns="http://www.w3.org/2000/svg" xmlns:xlink="http://www.w3.org/1999/xlink" x="0px" y="0px"
	 viewBox="0 0 43.5 49.8" style="enable-background:new 0 0 43.5 49.8;" xml:space="preserve">
<style type="text/css">
	.st0{display:none;}
</style>
<g id="Capa_1" class="st0">
	
		<image style="display:inline;overflow:visible;" width="100" height="100" xlink:href="administracion.png"  transform="matrix(0.5 0 0 0.5 -4.1667 0)">
	</image>
</g>
<g id="Capa_2">
	<path id="Trazado_1915" d="M13.2,13.2c-0.3-0.2-0.8-0.2-1,0.2l-1.4,1.9l-0.5-0.7c-0.2-0.3-0.7-0.4-1-0.2c-0.3,0.2-0.4,0.7-0.2,1
		c0,0,0,0,0,0l0.8,1.2c0.2,0.3,0.5,0.4,0.8,0.4h0c0.3,0,0.6-0.2,0.8-0.4l1.8-2.4C13.6,13.9,13.5,13.4,13.2,13.2z"/>
	<path id="Trazado_1916" d="M13.2,25.1c-0.3-0.2-0.8-0.2-1,0.2l-1.4,1.9l-0.5-0.7c-0.2-0.3-0.7-0.4-1-0.2c-0.3,0.2-0.4,0.7-0.2,1
		l0.8,1.2c0.2,0.3,0.5,0.4,0.8,0.4h0c0.3,0,0.6-0.2,0.8-0.4l1.8-2.4C13.6,25.8,13.5,25.3,13.2,25.1z"/>
	<path id="Trazado_1917" d="M13.2,36.5c-0.3-0.2-0.8-0.2-1,0.2l-1.4,1.9l-0.5-0.7c-0.2-0.3-0.7-0.4-1-0.2c-0.3,0.2-0.4,0.7-0.2,1
		l0.8,1.2c0.2,0.3,0.5,0.4,0.8,0.4h0c0.3,0,0.6-0.2,0.8-0.4l1.8-2.4C13.6,37.1,13.5,36.7,13.2,36.5z"/>
	<path id="Trazado_1918" d="M18.7,14.3h8.9c0.4,0,0.7-0.3,0.7-0.7s-0.3-0.7-0.7-0.7h-8.9c-0.4,0-0.7,0.3-0.7,0.7
		S18.3,14.3,18.7,14.3z"/>
	<path id="Trazado_1919" d="M18.7,17.3h4.5c0.4,0,0.7-0.3,0.7-0.7s-0.3-0.7-0.7-0.7l0,0h-4.5c-0.4,0-0.7,0.3-0.7,0.7
		S18.3,17.3,18.7,17.3z"/>
	<path id="Trazado_1920" d="M18.7,25.9h6c0.4,0,0.7-0.3,0.7-0.7c0-0.4-0.3-0.7-0.7-0.7h-6c-0.4,0-0.7,0.3-0.7,0.7
		C18,25.6,18.3,25.9,18.7,25.9z"/>
	<path id="Trazado_1921" d="M23.2,28.9c0.4,0,0.7-0.3,0.7-0.7c0-0.4-0.3-0.7-0.7-0.7l0,0h-4.5c-0.4,0-0.7,0.3-0.7,0.7
		c0,0.4,0.3,0.7,0.7,0.7H23.2z"/>
	<path id="Trazado_1922" d="M14,10.4H8.4c-1,0-1.8,0.8-1.8,1.8v5.6c0,1,0.8,1.8,1.8,1.8H14c1,0,1.8-0.8,1.8-1.8v-5.6
		C15.8,11.3,15,10.4,14,10.4z M14.4,17.9c0,0.2-0.2,0.4-0.4,0.4H8.4c-0.2,0-0.4-0.2-0.4-0.4v-5.6c0-0.2,0.2-0.4,0.4-0.4H14
		c0.2,0,0.4,0.2,0.4,0.4V17.9z"/>
	<path id="Trazado_1923" d="M14,22.1H8.4c-1,0-1.8,0.8-1.8,1.8v5.6c0,1,0.8,1.8,1.8,1.8H14c1,0,1.8-0.8,1.8-1.8v-5.6
		C15.8,22.9,15,22.1,14,22.1z M14.4,29.5c0,0.2-0.2,0.4-0.4,0.4H8.4c-0.2,0-0.4-0.2-0.4-0.4v-5.6c0-0.2,0.2-0.4,0.4-0.4H14
		c0.2,0,0.4,0.2,0.4,0.4V29.5z"/>
	<path id="Trazado_1924" d="M14,33.7H8.4c-1,0-1.8,0.8-1.8,1.8v5.6c0,1,0.8,1.8,1.8,1.8H14c1,0,1.8-0.8,1.8-1.8v-5.6
		C15.8,34.5,15,33.7,14,33.7z M14.4,41.1c0,0.2-0.2,0.4-0.4,0.4H8.4c-0.2,0-0.4-0.2-0.4-0.4v-5.6c0-0.2,0.2-0.4,0.4-0.4H14
		c0.2,0,0.4,0.2,0.4,0.4V41.1z"/>
	<path id="Trazado_1925" d="M41.9,12.6l-1.1-0.7c-1.2-0.8-2.9-0.4-3.6,0.8c0,0,0,0,0,0l-1.1,1.7l-1.5,2.3L33,19.3V8.4
		C33,7.7,32.4,7,31.6,7h-5.2V5.6h6.9c0.6,0,1,0.5,1,1v6.3c0,0.4,0.3,0.7,0.7,0.7c0.4,0,0.7-0.3,0.7-0.7V6.6c0-1.4-1.1-2.5-2.5-2.5
		h-7.1c-0.3-0.7-1-1.2-1.8-1.2h-1.9V2.2c0-1.1-0.9-2-2-2h-5c-1.1,0-2,0.9-2,2v0.7h-1.9c-0.8,0-1.5,0.5-1.8,1.2H2.8
		c-1.4,0-2.5,1.1-2.5,2.5v40.5c0,1.4,1.1,2.5,2.5,2.5h30.6c1.4,0,2.5-1.1,2.5-2.5V30.9c0-0.4-0.3-0.7-0.7-0.7
		c-0.4,0-0.7,0.3-0.7,0.7c0,0,0,0,0,0v16.2c0,0.6-0.5,1-1,1H2.8c-0.6,0-1-0.5-1-1V6.6c0-0.6,0.5-1,1-1h6.9V7H4.6
		c-0.7,0-1.4,0.6-1.4,1.4v37c0,0.7,0.6,1.4,1.4,1.4h27c0.7,0,1.4-0.6,1.4-1.4V31.7l7.3-11.5l0,0l1.5-2.3l1.1-1.7
		C43.5,15,43.2,13.4,41.9,12.6L41.9,12.6z M39.1,12.9c0.3-0.1,0.6,0,0.9,0.2l1.1,0.7c0.6,0.4,0.7,1.1,0.4,1.6l-0.7,1.1l-3.2-2
		l0.7-1.1C38.5,13.2,38.8,13,39.1,12.9L39.1,12.9z M25.4,41c-0.1,0.2-0.3,0.4-0.5,0.6c-0.2-0.3-0.5-0.6-0.8-0.8l13.5-21.3l1,0.6
		L25.4,41z M20.4,45.3C20.4,45.3,20.4,45.3,20.4,45.3L20.4,45.3l1-4.3c1,0.2,1.8,0.7,2.4,1.5C20,45.6,20.5,45.2,20.4,45.3L20.4,45.3
		z M36.9,15.7l3.2,2l-0.7,1.1l-3.2-2L36.9,15.7z M11.2,4.9C11.2,4.9,11.2,4.9,11.2,4.9C11.2,4.9,11.2,4.9,11.2,4.9
		c0-0.3,0.2-0.5,0.5-0.5h2.1c0.7,0,1.2-0.6,1.2-1.2V2.2c0-0.3,0.2-0.5,0.5-0.5l0,0h5c0.3,0,0.5,0.2,0.5,0.5c0,0,0,0,0,0v0.9
		c0,0.7,0.6,1.2,1.2,1.2h2.1c0.3,0,0.5,0.2,0.5,0.5c0,0,0,0,0,0c0,0,0,0,0,0V7H11.2V4.9z M4.6,8.5h26.9v13.1l-7.6,12
		c-0.2,0.3-0.1,0.8,0.2,1c0.3,0.2,0.8,0.1,1-0.2c0,0,0,0,0-0.1L35.5,18l1,0.6L22.9,40c-0.3-0.2-0.7-0.3-1.1-0.3
		c0.1-0.2,0.2-0.5,0.4-0.7l1.1-1.8c0.2-0.3,0.1-0.8-0.2-1c-0.3-0.2-0.8-0.1-1,0.2c0,0,0,0,0,0.1L21,38.2c-0.4,0.6-0.6,1.2-0.8,1.9
		l0,0L19,44.9c0,0.1,0,0.2,0,0.4H4.6L4.6,8.5z M31.5,45.3h-8.8l2.5-2c0.5-0.4,1-1,1.4-1.5l4.9-7.7L31.5,45.3z"/>
</g>
</svg>
