<?xml version="1.0" encoding="utf-8"?>
<!-- Generator: Adobe Illustrator 22.0.1, SVG Export Plug-In . SVG Version: 6.00 Build 0)  -->
<svg version="1.1" id="Capa_1" xmlns="http://www.w3.org/2000/svg" xmlns:xlink="http://www.w3.org/1999/xlink" x="0px" y="0px"
	 viewBox="0 0 20 20" style="enable-background:new 0 0 20 20;" xml:space="preserve">
<style type="text/css">
	.st0{enable-background:new    ;}
	.st1{clip-path:url(#SVGID_2_);fill:#464646;}
	.st2{clip-path:url(#SVGID_2_);fill:none;stroke:#464646;stroke-width:0.2;}
</style>
<g class="st0">
	<g>
		<defs>
			<rect id="SVGID_1_" y="0.7" width="20" height="18.6"/>
		</defs>
		<clipPath id="SVGID_2_">
			<use xlink:href="#SVGID_1_"  style="overflow:visible;"/>
		</clipPath>
		<path class="st1" d="M10,9.4c-0.4,0-0.8,0.3-0.8,0.8c0,0.4,0.3,0.8,0.8,0.8c0.4,0,0.8-0.3,0.8-0.8C10.7,9.7,10.4,9.4,10,9.4
			 M10,11.7c-0.8,0-1.5-0.7-1.5-1.5c0-0.8,0.7-1.5,1.5-1.5c0.8,0,1.5,0.7,1.5,1.5C11.5,11,10.8,11.7,10,11.7"/>
		<path class="st1" d="M9.9,9.4C9.7,9.4,9.6,9.2,9.6,9V7c0-0.2,0.2-0.4,0.4-0.4s0.4,0.2,0.4,0.4v2C10.3,9.2,10.2,9.4,9.9,9.4"/>
		<path class="st1" d="M6.6,18.5h6.2v-3.4H9.7c-0.1,0-0.2,0-0.2-0.1l-1.1-0.8H6.6V18.5z M13.2,19.3h-7c-0.2,0-0.4-0.2-0.4-0.4v-5.1
			c0-0.2,0.2-0.4,0.4-0.4h2.3c0.1,0,0.2,0,0.2,0.1l1.1,0.8h3.4c0.2,0,0.4,0.2,0.4,0.4v4.2C13.6,19.1,13.4,19.3,13.2,19.3"/>
		<path class="st2" d="M6.6,18.5h6.2v-3.4H9.7c-0.1,0-0.2,0-0.2-0.1l-1.1-0.8H6.6V18.5z M13.2,19.3h-7c-0.2,0-0.4-0.2-0.4-0.4v-5.1
			c0-0.2,0.2-0.4,0.4-0.4h2.3c0.1,0,0.2,0,0.2,0.1l1.1,0.8h3.4c0.2,0,0.4,0.2,0.4,0.4v4.2C13.6,19.1,13.4,19.3,13.2,19.3"/>
		<path class="st1" d="M6.6,5.8h6.2V2.4H9.7c-0.1,0-0.2,0-0.2-0.1L8.3,1.5H6.6V5.8z M13.2,6.6h-7C6,6.6,5.8,6.4,5.8,6.2V1.1
			c0-0.2,0.2-0.4,0.4-0.4h2.3c0.1,0,0.2,0,0.2,0.1l1.1,0.8h3.4c0.2,0,0.4,0.2,0.4,0.4v4.2C13.6,6.4,13.4,6.6,13.2,6.6"/>
		<path class="st2" d="M6.6,5.8h6.2V2.4H9.7c-0.1,0-0.2,0-0.2-0.1L8.3,1.5H6.6V5.8z M13.2,6.6h-7C6,6.6,5.8,6.4,5.8,6.2V1.1
			c0-0.2,0.2-0.4,0.4-0.4h2.3c0.1,0,0.2,0,0.2,0.1l1.1,0.8h3.4c0.2,0,0.4,0.2,0.4,0.4v4.2C13.6,6.4,13.4,6.6,13.2,6.6"/>
		<path class="st1" d="M13.8,10.5h-2.7c-0.2,0-0.4-0.2-0.4-0.4c0-0.2,0.2-0.4,0.4-0.4h2.7c0.2,0,0.4,0.2,0.4,0.4
			C14.2,10.4,14,10.5,13.8,10.5"/>
		<path class="st1" d="M15,12h4.2V9.8H17c-0.1,0-0.2,0-0.2-0.1L16,9.2H15V12z M19.5,12.8h-4.9c-0.2,0-0.4-0.2-0.4-0.4V8.8
			c0-0.2,0.2-0.4,0.4-0.4h1.6c0.1,0,0.2,0,0.2,0.1L17.2,9h2.3c0.2,0,0.4,0.2,0.4,0.4v3C19.9,12.6,19.7,12.8,19.5,12.8"/>
		<path class="st2" d="M15,12h4.2V9.8H17c-0.1,0-0.2,0-0.2-0.1L16,9.2H15V12z M19.5,12.8h-4.9c-0.2,0-0.4-0.2-0.4-0.4V8.8
			c0-0.2,0.2-0.4,0.4-0.4h1.6c0.1,0,0.2,0,0.2,0.1L17.2,9h2.3c0.2,0,0.4,0.2,0.4,0.4v3C19.9,12.6,19.7,12.8,19.5,12.8"/>
		<path class="st1" d="M0.8,12h4.2V9.8H2.9c-0.1,0-0.2,0-0.2-0.1L1.9,9.2H0.8V12z M5.3,12.8H0.4c-0.2,0-0.4-0.2-0.4-0.4V8.8
			c0-0.2,0.2-0.4,0.4-0.4H2c0.1,0,0.2,0,0.2,0.1L3,9h2.3c0.2,0,0.4,0.2,0.4,0.4v3C5.7,12.6,5.5,12.8,5.3,12.8"/>
		<path class="st2" d="M0.8,12h4.2V9.8H2.9c-0.1,0-0.2,0-0.2-0.1L1.9,9.2H0.8V12z M5.3,12.8H0.4c-0.2,0-0.4-0.2-0.4-0.4V8.8
			c0-0.2,0.2-0.4,0.4-0.4H2c0.1,0,0.2,0,0.2,0.1L3,9h2.3c0.2,0,0.4,0.2,0.4,0.4v3C5.7,12.6,5.5,12.8,5.3,12.8"/>
		<path class="st1" d="M9.9,13.8c-0.2,0-0.4-0.2-0.4-0.4v-2c0-0.2,0.2-0.4,0.4-0.4s0.4,0.2,0.4,0.4v2C10.3,13.6,10.2,13.8,9.9,13.8"
			/>
		<path class="st1" d="M8.7,10.5H6.2c-0.2,0-0.4-0.2-0.4-0.4c0-0.2,0.2-0.4,0.4-0.4h2.5C8.9,9.8,9,9.9,9,10.1
			C9,10.4,8.9,10.5,8.7,10.5"/>
	</g>
</g>
</svg>
