<?xml version="1.0" encoding="utf-8"?>
<!-- Generator: Adobe Illustrator 22.0.1, SVG Export Plug-In . SVG Version: 6.00 Build 0)  -->
<svg version="1.1" id="Capa_3" xmlns="http://www.w3.org/2000/svg" xmlns:xlink="http://www.w3.org/1999/xlink" x="0px" y="0px"
	 viewBox="0 0 20 20" style="enable-background:new 0 0 20 20;" xml:space="preserve">
<style type="text/css">
	.st0{fill:none;stroke:#464646;stroke-width:0.5;stroke-linecap:round;stroke-linejoin:round;}
</style>
<g id="Capa_2_3_">
	<g id="Capa_1-2_1_">
		<path class="st0" d="M10.9,4.2c0,0.5-0.4,0.9-0.9,0.9S9.1,4.7,9.1,4.2S9.5,3.3,10,3.3c0,0,0,0,0,0C10.5,3.3,10.9,3.7,10.9,4.2z"/>
		<path class="st0" d="M11.8,7.6V6.7c0-0.4-0.3-0.7-0.7-0.7l0,0H8.9C8.5,6,8.2,6.3,8.2,6.7c0,0,0,0,0,0v0.9"/>
		<circle class="st0" cx="10" cy="13.3" r="0.9"/>
		<path class="st0" d="M11.8,16.7v-0.9c0-0.4-0.3-0.7-0.7-0.7c0,0,0,0,0,0H8.9c-0.4,0-0.7,0.3-0.7,0.7c0,0,0,0,0,0v0.9"/>
		<path class="st0" d="M6,13.3c0,0.5-0.4,0.9-0.9,0.9s-0.9-0.4-0.9-0.9c0-0.5,0.4-0.9,0.9-0.9c0,0,0,0,0,0C5.6,12.4,6,12.8,6,13.3z"
			/>
		<path class="st0" d="M6.9,16.7v-0.9c0-0.4-0.3-0.7-0.7-0.7h0H4c-0.4,0-0.7,0.3-0.7,0.7l0,0v0.9"/>
		<circle class="st0" cx="14.9" cy="13.3" r="0.9"/>
		<path class="st0" d="M16.7,16.7v-0.9c0-0.4-0.3-0.7-0.7-0.7c0,0,0,0,0,0h-2.2c-0.4,0-0.7,0.3-0.7,0.7c0,0,0,0,0,0v0.9"/>
		<line class="st0" x1="10" y1="7.6" x2="10" y2="11.4"/>
		<polyline class="st0" points="5.1,11.5 5.1,9.6 14.9,9.6 14.9,11.5 		"/>
	</g>
</g>
</svg>
