<?xml version="1.0" encoding="utf-8"?>
<!-- Generator: Adobe Illustrator 25.2.1, SVG Export Plug-In . SVG Version: 6.00 Build 0)  -->
<svg version="1.1" id="Capa_1" xmlns="http://www.w3.org/2000/svg" xmlns:xlink="http://www.w3.org/1999/xlink" x="0px" y="0px"
	 viewBox="0 0 100 100" style="enable-background:new 0 0 100 100;" xml:space="preserve">
<style type="text/css">
	.st0{fill:#FF4B39;}
	.st1{fill:#FFFFFF;}
</style>
<g id="Grupo_3361" transform="translate(0 19.066)">
	<g id="Grupo_3360" transform="translate(0 0)">
		<path id="Trazado_1821" class="st0" d="M98.5,62.8L57.4-8c-1.9-3.2-4.6-5.1-7.5-5.1s-5.7,1.9-7.5,5.1L1.6,62.8
			c-1.9,3.2-2.1,6.6-0.6,9c1.4,2.5,4.4,3.9,8.2,3.9H91c3.7,0,6.6-1.4,8.2-3.9C100.5,69.3,100.2,66,98.5,62.8z M94.6,69.3
			c-0.6,0.9-1.9,1.4-3.8,1.4H9.1c-1.9,0-3.3-0.6-3.8-1.4c-0.6-0.9-0.3-2.3,0.6-4L46.7-5.5c0.9-1.6,2.2-2.6,3.2-2.6s2.2,0.9,3.2,2.6
			L94,65.3C95,67,95.1,68.3,94.6,69.3L94.6,69.3z"/>
	</g>
	<polygon class="st0" points="48.3,-10.8 2.8,65.3 3.6,70.7 6.8,73.2 95.8,72 97.9,66.7 54.4,-8.1 51.8,-10.8 	"/>
</g>
<g id="Grupo_3363" transform="translate(55.152 46.125)">
	<g id="Grupo_3362" transform="translate(0 0)">
		<path id="Trazado_1822" class="st1" d="M-5-16.2c-1.4,0-2.5,1-2.5,2.3v0.1v32.9c0,1.5,1.1,2.6,2.5,2.6s2.5-1.1,2.5-2.5v-32.9
			C-2.5-15.1-3.6-16.2-5-16.2L-5-16.2z"/>
	</g>
</g>
<g id="Grupo_3365" transform="translate(52.954 96.533)">
	<g id="Grupo_3364">
		<circle id="Elipse_85" class="st1" cx="-2.8" cy="-18.9" r="4.4"/>
	</g>
</g>
</svg>
