<?xml version="1.0" encoding="utf-8"?>
<!-- Generator: Adobe Illustrator 22.0.1, SVG Export Plug-In . SVG Version: 6.00 Build 0)  -->
<svg version="1.1" id="Capa_1" xmlns="http://www.w3.org/2000/svg" xmlns:xlink="http://www.w3.org/1999/xlink" x="0px" y="0px"
	 viewBox="0 0 40 40" style="enable-background:new 0 0 40 40;" xml:space="preserve">
<style type="text/css">
	.st0{fill:#FA6262;}
	.st1{fill:#FFFFFF;}
</style>
<g>
	<path class="st0" d="M20,0c1.3,0,2.6,0.1,3.9,0.4s2.5,0.6,3.8,1.1C28.9,2,30,2.6,31.1,3.4s2.1,1.6,3,2.5c0.9,0.9,1.8,1.9,2.5,3
		s1.3,2.2,1.8,3.5c0.5,1.2,0.9,2.5,1.1,3.8S40,18.7,40,20s-0.1,2.6-0.4,3.9s-0.6,2.5-1.1,3.8c-0.5,1.2-1.1,2.4-1.8,3.5
		s-1.6,2.1-2.5,3c-0.9,0.9-1.9,1.8-3,2.5S29,38,27.7,38.5c-1.2,0.5-2.5,0.9-3.8,1.1S21.3,40,20,40s-2.6-0.1-3.9-0.4
		s-2.5-0.6-3.8-1.1c-1.2-0.5-2.4-1.1-3.5-1.8s-2.1-1.6-3-2.5s-1.8-1.9-2.5-3C2.6,30,2,28.9,1.5,27.7c-0.5-1.2-0.9-2.5-1.1-3.8
		S0,21.3,0,20s0.1-2.6,0.4-3.9s0.6-2.5,1.1-3.8C2,11.1,2.6,10,3.4,8.9c0.7-1.1,1.6-2.1,2.5-3s1.9-1.8,3-2.5s2.2-1.3,3.5-1.8
		c1.2-0.5,2.5-0.9,3.8-1.1S18.7,0,20,0z"/>
	<path class="st1" d="M17.1,29.3c0-0.7,0.3-1.4,0.8-1.9s1.2-0.8,2-0.8c0.7,0,1.4,0.3,1.9,0.8c0.6,0.5,0.8,1.1,0.8,1.9
		s-0.3,1.4-0.8,1.9s-1.2,0.8-2,0.8c-0.4,0-0.7-0.1-1.1-0.2s-0.6-0.3-0.9-0.6c-0.3-0.2-0.5-0.5-0.6-0.8C17.2,30,17.1,29.7,17.1,29.3z
		 M22,24h-4.2V7.1H22V24z"/>
</g>
</svg>
