<?xml version="1.0" encoding="utf-8"?>
<!-- Generator: Adobe Illustrator 22.0.1, SVG Export Plug-In . SVG Version: 6.00 Build 0)  -->
<svg version="1.1" id="Capa_3" xmlns="http://www.w3.org/2000/svg" xmlns:xlink="http://www.w3.org/1999/xlink" x="0px" y="0px"
	 viewBox="0 0 20 20" style="enable-background:new 0 0 20 20;" xml:space="preserve">
<style type="text/css">
	.st0{fill:none;stroke:#464646;stroke-width:0.5;stroke-linecap:round;stroke-linejoin:round;}
</style>
<g id="Capa_2_3_">
	<g id="Capa_1-2_1_">
		<path class="st0" d="M12.9,11.7v4.4c0,0.2-0.1,0.3-0.3,0.3H3.5c-0.2,0-0.3-0.1-0.3-0.3V3.9c0-0.2,0.1-0.3,0.3-0.3l0,0h9.1
			c0.2,0,0.3,0.1,0.3,0.3v1.9"/>
		<line class="st0" x1="5" y1="6.4" x2="11.1" y2="6.4"/>
		<line class="st0" x1="5" y1="8.8" x2="9.9" y2="8.8"/>
		<line class="st0" x1="5" y1="13.6" x2="7" y2="13.6"/>
		<line class="st0" x1="5" y1="11.2" x2="7.8" y2="11.2"/>
		<line class="st0" x1="14.4" y1="5.9" x2="15.8" y2="7.2"/>
		<polygon class="st0" points="15.4,4.8 9.1,11.2 9.1,11.2 8,13.6 10.4,12.6 16.8,6.2 		"/>
	</g>
</g>
</svg>
