<?xml version="1.0" encoding="utf-8"?>
<!-- Generator: Adobe Illustrator 22.0.1, SVG Export Plug-In . SVG Version: 6.00 Build 0)  -->
<svg version="1.1" id="Capa_3" xmlns="http://www.w3.org/2000/svg" xmlns:xlink="http://www.w3.org/1999/xlink" x="0px" y="0px"
	 viewBox="0 0 20 20" style="enable-background:new 0 0 20 20;" xml:space="preserve">
<style type="text/css">
	.st0{fill:none;stroke:#464646;stroke-width:0.5;stroke-linecap:round;stroke-linejoin:round;}
</style>
<g id="Capa_2_3_">
	<g id="Capa_1-2_1_">
		<path class="st0" d="M8.2,13.2c-1,0-1.7-0.8-1.7-1.7c0-0.2,0.1-0.5,0.1-0.7c-1.3-0.7-1.8-2.4-1-3.6C6,6.4,6.7,5.9,7.6,5.8
			C7.8,4.4,9,3.4,10.4,3.6c1.3,0.2,2.2,1.3,2.2,2.5c0,0.4-0.1,0.8-0.3,1.2c1.6,0.3,2.7,1.8,2.4,3.4c-0.2,1.4-1.5,2.5-2.9,2.5H8.2z"
			/>
		<path class="st0" d="M8.2,13.2c-1,0-1.7-0.8-1.7-1.7c0-0.2,0.1-0.5,0.1-0.7c-1.3-0.7-1.8-2.4-1-3.6C6,6.4,6.7,5.9,7.6,5.8
			C7.8,4.4,9,3.4,10.4,3.6c1.3,0.2,2.2,1.3,2.2,2.5c0,0.4-0.1,0.8-0.3,1.2c1.6,0.3,2.7,1.8,2.4,3.4c-0.2,1.4-1.5,2.5-2.9,2.5H8.2z"
			/>
		<line class="st0" x1="9.8" y1="6.1" x2="9.8" y2="16.1"/>
		<line class="st0" x1="9.8" y1="6.1" x2="9.8" y2="14.5"/>
		<line class="st0" x1="9.8" y1="9.4" x2="7.1" y2="8.2"/>
		<line class="st0" x1="9.8" y1="11.1" x2="12.2" y2="10"/>
		<line class="st0" x1="5.3" y1="16.4" x2="14.5" y2="16.4"/>
		<line class="st0" x1="9.8" y1="13.1" x2="9.8" y2="15.8"/>
	</g>
</g>
</svg>
