<?xml version="1.0" encoding="utf-8"?>
<!-- Generator: Adobe Illustrator 22.0.1, SVG Export Plug-In . SVG Version: 6.00 Build 0)  -->
<svg version="1.1" id="Capa_3" xmlns="http://www.w3.org/2000/svg" xmlns:xlink="http://www.w3.org/1999/xlink" x="0px" y="0px"
	 viewBox="0 0 20 20" style="enable-background:new 0 0 20 20;" xml:space="preserve">
<style type="text/css">
	.st0{fill:#464646;}
</style>
<g id="Capa_2_3_">
	<g id="Capa_1-2_1_">
		<path class="st0" d="M16.7,10l-2.8-2.2c-0.1-0.1-0.2-0.1-0.3-0.1C13.2,7.7,13,8,13,8.3v0.9c-0.6,0-1.1,0.1-1.6,0.3V7.2h0.9
			c0.2,0,0.4-0.1,0.5-0.3c0.1-0.2,0.1-0.4-0.1-0.5l-2.2-2.8c-0.1-0.1-0.3-0.2-0.5-0.2c-0.2,0-0.4,0.1-0.5,0.2L7.3,6.4
			C7.2,6.5,7.2,6.7,7.3,6.9c0.1,0.2,0.3,0.3,0.5,0.3h0.8v2.2C8.1,9.3,7.6,9.1,7,9.1V8.3C7,8,6.8,7.7,6.5,7.7c-0.1,0-0.2,0-0.3,0.1
			L3.3,10c-0.3,0.2-0.3,0.6-0.1,0.9c0,0,0,0.1,0.1,0.1l2.8,2.2c0.1,0.1,0.2,0.1,0.3,0.1C6.8,13.3,7,13,7,12.7v-0.8
			c1.1,0.1,1.6,0.7,1.6,1.9v2.8h2.7v-2.8c0-1.2,0.5-1.9,1.6-1.9v0.8c0,0.3,0.2,0.6,0.5,0.6c0.1,0,0.2,0,0.3-0.1l2.9-2.2
			C16.9,10.8,17,10.4,16.7,10C16.7,10.1,16.7,10,16.7,10z M8.1,6.5L10,4.1l1.9,2.4h-1.3v3.3c-0.2,0.1-0.4,0.3-0.6,0.5
			c-0.2-0.2-0.4-0.3-0.7-0.5V6.5H8.1z M6.9,11.1H6.3v1.2l-2.4-1.9l2.4-1.9v1.3h0.6c1,0,1.9,0.3,2.7,1l0,0c-0.3,0.4-0.5,0.8-0.6,1.3
			C8.4,11.4,7.6,11.1,6.9,11.1z M13.7,12.4v-1.2h-0.6c-1.6,0-2.5,1-2.5,2.6l0,0v2.2H9.4v-2.1c-0.1-1.1,0.3-2.2,1.1-3
			c0.7-0.6,1.7-1,2.7-1h0.6V8.6l2.4,1.9L13.7,12.4z"/>
	</g>
</g>
</svg>
