<?xml version="1.0" encoding="utf-8"?>
<!-- Generator: Adobe Illustrator 22.0.1, SVG Export Plug-In . SVG Version: 6.00 Build 0)  -->
<svg version="1.1" id="Capa_3" xmlns="http://www.w3.org/2000/svg" xmlns:xlink="http://www.w3.org/1999/xlink" x="0px" y="0px"
	 viewBox="0 0 20 20" style="enable-background:new 0 0 20 20;" xml:space="preserve">
<style type="text/css">
	.st0{fill:none;stroke:#464646;stroke-width:0.5;stroke-linecap:round;stroke-linejoin:round;}
</style>
<g id="Capa_2_1_">
	<g id="Capa_1-2_1_">
		<path class="st0" d="M8.2,7.2H3.6C3,7.3,2.5,7.8,2.5,8.4l0.2,3c0.1,0.5,0.6,0.9,1.1,0.9c0,0,0,0,0,0l0,0c0,0.2,0.3,4.5,0.3,4.5
			h1.9l0.6-8.4h1.6"/>
		<line class="st0" x1="3.9" y1="12.3" x2="3.6" y2="8.8"/>
		<path class="st0" d="M11.8,7.2h4.7c0.6,0,1.1,0.5,1.1,1.1l-0.2,3c-0.1,0.5-0.6,0.9-1.1,0.9c0,0,0,0,0,0l0,0c0,0.2-0.3,4.5-0.3,4.5
			h-1.9l-0.6-8.4h-1.6"/>
		<line class="st0" x1="16.1" y1="12.3" x2="16.4" y2="8.8"/>
		<path class="st0" d="M10,5.3c0.6,0,1-0.5,1-1c0-0.6-0.5-1-1-1c-0.6,0-1,0.5-1,1c0,0,0,0,0,0C9,4.9,9.5,5.3,10,5.3z"/>
		<path class="st0" d="M10,5.3c0.6,0,1-0.5,1-1c0-0.6-0.5-1-1-1c-0.6,0-1,0.5-1,1c0,0,0,0,0,0C9,4.9,9.5,5.3,10,5.3z"/>
		<path class="st0" d="M15.3,6.2L15.3,6.2H4.7l0,0"/>
		<path class="st0" d="M5.2,6.4c0.6,0,1-0.4,1-1c0-0.6-0.4-1-1-1c-0.6,0-1,0.4-1,1c0,0,0,0,0,0C4.2,6,4.6,6.4,5.2,6.4z"/>
		<path class="st0" d="M5.2,6.4c0.6,0,1-0.4,1-1c0-0.6-0.4-1-1-1c-0.6,0-1,0.4-1,1c0,0,0,0,0,0C4.2,6,4.6,6.4,5.2,6.4z"/>
		<path class="st0" d="M14.9,6.4c-0.6,0-1-0.4-1-1c0-0.6,0.4-1,1-1c0.6,0,1,0.4,1,1c0,0,0,0,0,0C15.9,6,15.4,6.4,14.9,6.4z"/>
		<path class="st0" d="M14.9,6.4c-0.6,0-1-0.4-1-1c0-0.6,0.4-1,1-1c0.6,0,1,0.4,1,1c0,0,0,0,0,0C15.9,6,15.4,6.4,14.9,6.4z"/>
		<line class="st0" x1="11.5" y1="7.9" x2="11.4" y2="9.2"/>
		<line class="st0" x1="8.5" y1="7.9" x2="8.6" y2="9.2"/>
		<polyline class="st0" points="5.6,7.2 8.4,7.3 9.1,15.6 9.1,15.6 11,15.6 11.6,7.3 14.4,7.2 		"/>
	</g>
</g>
</svg>
