<?xml version="1.0" encoding="utf-8"?>
<!-- Generator: Adobe Illustrator 22.0.1, SVG Export Plug-In . SVG Version: 6.00 Build 0)  -->
<svg version="1.1" id="Capa_3" xmlns="http://www.w3.org/2000/svg" xmlns:xlink="http://www.w3.org/1999/xlink" x="0px" y="0px"
	 viewBox="0 0 20 20" style="enable-background:new 0 0 20 20;" xml:space="preserve">
<style type="text/css">
	.st0{fill:none;stroke:#464646;stroke-width:0.5;stroke-linecap:round;stroke-linejoin:round;}
	.st1{fill:#464646;}
</style>
<g id="Capa_2_2_">
	<g id="Capa_1-2">
		<line class="st0" x1="8.9" y1="9.2" x2="8.5" y2="10.2"/>
		<path class="st0" d="M8.5,10.2l-2.7,0.4C5.3,10.7,5,11,4.9,11.5l-0.7,4.3"/>
		<line class="st0" x1="11.1" y1="9.2" x2="11.5" y2="10.2"/>
		<path class="st0" d="M11.5,10.2l2.7,0.4c0.4,0.1,0.8,0.4,0.8,0.9l0.7,4.3"/>
		<path class="st0" d="M7.2,11.6h5.5c0.7,0,1.3,0.6,1.3,1.3v3.5l0,0H5.9l0,0v-3.5C5.9,12.2,6.5,11.6,7.2,11.6z"/>
		<line class="st0" x1="3.8" y1="16.4" x2="16.2" y2="16.4"/>
		<line class="st0" x1="3.8" y1="16.4" x2="16.2" y2="16.4"/>
		<path class="st0" d="M8.7,7.3C8.5,7.7,8.1,7.8,7.8,7.7C7.5,7.5,7.4,7.3,7.4,7.1c0-0.3-0.1-0.5-0.1-0.8l0,0c0-1.5,1.2-2.7,2.7-2.8
			c1.5,0,2.7,1.3,2.7,2.8l0,0c0,0.3,0,0.5-0.1,0.8c0,0.4-0.3,0.6-0.7,0.6"/>
		<path class="st0" d="M8.5,7.6C8.3,7.7,8.2,7.7,8.1,7.7c-0.4,0-0.7-0.3-0.7-0.6c0-0.3-0.1-0.5-0.1-0.8l0,0c0-1.5,1.2-2.8,2.7-2.8
			c0,0,0,0,0,0c1.5,0,2.7,1.3,2.7,2.8c0,0.3,0,0.5-0.1,0.8c0,0.4-0.4,0.7-0.8,0.6c-0.1,0-0.3-0.1-0.4-0.2"/>
		<path class="st0" d="M7.4,7.1c0,0.4,0.3,0.6,0.7,0.7c0,0,0.1,0,0.1,0c0.3,1.2,1,2,1.8,2s1.6-0.8,1.8-2c0,0,0.1,0,0.1,0
			c0.4,0,0.6-0.3,0.6-0.7c0-0.3-0.3-0.6-0.6-0.6"/>
		<path class="st0" d="M12,6.5c-0.2,0.1-0.5,0.1-0.8,0.1c-1,0-1.9-0.5-2.3-1.4"/>
		<path class="st1" d="M8.5,14.3c0.2,0.1,0.4,0,0.5-0.1l0.6-0.6v1.7c0,0.2,0.2,0.3,0.3,0.3c0.2,0,0.3-0.2,0.3-0.3v-1.7l0.7,0.6
			c0.1,0.2,0.3,0.2,0.5,0.1c0.1-0.1,0.2-0.2,0.2-0.3c0-0.1,0-0.1-0.1-0.2l-1.3-1.2c-0.1-0.1-0.2-0.2-0.3-0.2c-0.1,0-0.2,0.1-0.3,0.2
			l-1.3,1.2C8.3,13.9,8.3,14.1,8.5,14.3C8.5,14.3,8.5,14.3,8.5,14.3z"/>
	</g>
</g>
</svg>
