<?xml version="1.0" encoding="utf-8"?>
<!-- Generator: Adobe Illustrator 22.0.1, SVG Export Plug-In . SVG Version: 6.00 Build 0)  -->
<svg version="1.1" id="Capa_3" xmlns="http://www.w3.org/2000/svg" xmlns:xlink="http://www.w3.org/1999/xlink" x="0px" y="0px"
	 viewBox="0 0 20 20" style="enable-background:new 0 0 20 20;" xml:space="preserve">
<style type="text/css">
	.st0{fill:none;stroke:#464646;stroke-width:0.5;stroke-linecap:round;stroke-linejoin:round;}
</style>
<g id="Capa_2_3_">
	<g id="Capa_1-2_1_">
		<polyline class="st0" points="11.1,13.2 9.6,15.2 8.9,14.6 		"/>
		<line class="st0" x1="8.9" y1="9.3" x2="8.4" y2="10.3"/>
		<path class="st0" d="M8.4,10.3l-2.7,0.4c-0.4,0.1-0.8,0.4-0.8,0.9l-0.7,4.3"/>
		<line class="st0" x1="11.1" y1="9.3" x2="11.5" y2="10.3"/>
		<path class="st0" d="M11.5,10.3l2.7,0.4c0.4,0.1,0.8,0.4,0.8,0.9l0.7,4.3"/>
		<path class="st0" d="M7.2,11.7h5.5c0.7,0,1.3,0.6,1.3,1.3v3.5l0,0H5.9l0,0V13C5.9,12.3,6.5,11.7,7.2,11.7z"/>
		<line class="st0" x1="3.7" y1="16.5" x2="16.2" y2="16.5"/>
		<line class="st0" x1="3.7" y1="16.5" x2="16.2" y2="16.5"/>
		<path class="st0" d="M8.7,7.4C8.5,7.7,8.1,7.9,7.7,7.7C7.5,7.6,7.4,7.4,7.3,7.1c0-0.3-0.1-0.5-0.1-0.8l0,0c0-1.5,1.2-2.7,2.7-2.8
			c1.5,0,2.7,1.3,2.7,2.8l0,0c0,0.3,0,0.5-0.1,0.8c0,0.4-0.3,0.6-0.7,0.6"/>
		<path class="st0" d="M8.4,7.7C8.3,7.7,8.2,7.8,8,7.8c-0.4,0-0.7-0.3-0.7-0.6c0-0.3-0.1-0.5-0.1-0.8l0,0c0-1.5,1.2-2.8,2.7-2.8
			c0,0,0,0,0,0c1.5,0,2.7,1.3,2.7,2.8c0,0.3,0,0.5-0.1,0.8c0,0.4-0.4,0.7-0.8,0.6c-0.2,0-0.3-0.1-0.4-0.2"/>
		<path class="st0" d="M7.3,7.1c0,0.4,0.3,0.6,0.7,0.7c0,0,0.1,0,0.1,0c0.3,1.2,1,2,1.8,2s1.6-0.8,1.8-2c0,0,0.1,0,0.1,0
			c0.4,0,0.6-0.3,0.6-0.7c0-0.3-0.3-0.6-0.6-0.6"/>
		<path class="st0" d="M12,6.5c-0.2,0.1-0.5,0.1-0.8,0.1c-1,0-1.9-0.5-2.4-1.4"/>
	</g>
</g>
</svg>
