<?xml version="1.0" encoding="utf-8"?>
<!-- Generator: Adobe Illustrator 22.0.1, SVG Export Plug-In . SVG Version: 6.00 Build 0)  -->
<svg version="1.1" id="Capa_3" xmlns="http://www.w3.org/2000/svg" xmlns:xlink="http://www.w3.org/1999/xlink" x="0px" y="0px"
	 viewBox="0 0 20 20" style="enable-background:new 0 0 20 20;" xml:space="preserve">
<style type="text/css">
	.st0{fill:none;stroke:#464646;stroke-width:0.5;stroke-linecap:round;stroke-linejoin:round;}
</style>
<g id="Capa_2_3_">
	<g id="Capa_1-2_1_">
		<path class="st0" d="M6.4,5.7c0.6,0,1.1-0.5,1.1-1.1S7,3.5,6.5,3.5S5.4,4,5.4,4.6c0,0,0,0,0,0C5.4,5.2,5.9,5.7,6.4,5.7z"/>
		<line class="st0" x1="5.1" y1="11.8" x2="4.8" y2="8.1"/>
		<path class="st0" d="M9.2,7.7c0-0.3-0.1-0.6-0.3-0.8C8.7,6.6,8.4,6.5,8.1,6.5H4.8c-0.6,0-1.1,0.6-1.1,1.2l0.2,3.2
			c0.1,0.6,0.6,1,1.2,0.9c0,0,0,0,0,0l0,0l0.3,4.5c0,0.1,0.1,0.2,0.2,0.2h1.6c0.1,0,0.2-0.1,0.2-0.2l0.3-4.5l0,0
			c0.6,0.1,1.1-0.3,1.2-0.8c0,0,0,0,0,0c0,0,0.1-1.2,0.1-1.3"/>
		<path class="st0" d="M13.6,5.7c0.6,0,1.1-0.5,1.1-1c0-0.6-0.5-1.1-1-1.1c-0.6,0-1.1,0.5-1.1,1c0,0,0,0,0,0
			C12.5,5.2,13,5.6,13.6,5.7z"/>
		<path class="st0" d="M11,10.5l0,0.3c0.1,0.6,0.6,1,1.2,0.9c0,0,0,0,0,0l0,0l0.3,4.5c0,0.1,0.1,0.2,0.2,0.2h1.6
			c0.1,0,0.2-0.1,0.2-0.2l0.3-4.5l0,0c0.6,0.1,1.1-0.3,1.2-0.8c0,0,0,0,0-0.1l0.2-3.2c0-0.6-0.5-1.2-1.1-1.2h-3.3
			c-0.6,0-1.1,0.5-1.1,1.2l0.1,0.9"/>
		<line class="st0" x1="14.9" y1="11.8" x2="15.2" y2="8.1"/>
		<polyline class="st0" points="7.6,10.1 6.1,9 7.6,7.7 7.6,8.6 10.8,8.6 		"/>
		<polyline class="st0" points="12.4,8.1 13.9,9.2 12.4,10.5 12.4,9.6 9.1,9.6 		"/>
	</g>
</g>
</svg>
