<?xml version="1.0" encoding="utf-8"?>
<!-- Generator: Adobe Illustrator 22.0.1, SVG Export Plug-In . SVG Version: 6.00 Build 0)  -->
<svg version="1.1" id="Capa_3" xmlns="http://www.w3.org/2000/svg" xmlns:xlink="http://www.w3.org/1999/xlink" x="0px" y="0px"
	 viewBox="0 0 20 20" style="enable-background:new 0 0 20 20;" xml:space="preserve">
<style type="text/css">
	.st0{fill:none;stroke:#464646;stroke-width:0.75;stroke-linecap:round;stroke-linejoin:round;}
</style>
<g id="Capa_2_3_">
	<g id="Capa_1-2_1_">
		<path class="st0" d="M12.8,12.3c0,0,0,0.5,0,3.7c0,0,0,0-0.3,0.3H3.3c-0.2,0-0.3-0.1-0.3-0.3c0,0,0,0,0,0V4c0-0.2,0.1-0.3,0.3-0.3
			c0,0,0,0,0,0h9.2c0.2,0,0.3,0.1,0.3,0.3v2.9"/>
		<polygon class="st0" points="15.6,5.3 8.9,12 8.9,12 7.9,14.5 10.4,13.4 17.1,6.7 		"/>
		<line class="st0" x1="14.6" y1="6.4" x2="16" y2="7.8"/>
		<polyline class="st0" points="4.7,7.6 4.7,5.4 6.9,5.4 		"/>
		<polyline class="st0" points="5.9,6.6 6.6,7.8 8.2,5.6 		"/>
		<polyline class="st0" points="4.7,11.3 4.7,9.2 6.9,9.2 		"/>
		<polyline class="st0" points="5.9,10.4 6.6,11.6 8.2,9.4 		"/>
		<polyline class="st0" points="4.7,15.1 4.7,12.9 6.9,12.9 		"/>
	</g>
</g>
</svg>
