<?xml version="1.0" encoding="utf-8"?>
<!-- Generator: Adobe Illustrator 22.0.1, SVG Export Plug-In . SVG Version: 6.00 Build 0)  -->
<svg version="1.1" id="Capa_3" xmlns="http://www.w3.org/2000/svg" xmlns:xlink="http://www.w3.org/1999/xlink" x="0px" y="0px"
	 viewBox="0 0 20 20" style="enable-background:new 0 0 20 20;" xml:space="preserve">
<style type="text/css">
	.st0{fill:none;stroke:#464646;stroke-width:0.5;stroke-linecap:round;stroke-linejoin:round;}
</style>
<g id="Capa_2_3_">
	<g id="Capa_1-2_1_">
		<path class="st0" d="M4,11.6h3.6c0.9,0,1.5,0.5,1.5,1c0,0.6-0.6,1-1.5,1H4.6c-1.2,0-2,0.6-2,1.4s0.8,1.4,2,1.4h9.7"/>
		<path class="st0" d="M18.9,8.2c0-2.5-2-4.6-4.5-4.6c-2.5,0-4.6,2-4.6,4.5c0,0.8,0.2,1.6,0.6,2.4l0,0l3.2,5.6
			c0.2,0.4,0.8,0.6,1.2,0.3c0.1-0.1,0.2-0.2,0.3-0.3l3.2-5.5l0,0C18.7,9.8,18.9,9,18.9,8.2z"/>
		<path class="st0" d="M16.5,8.2c0,1.2-1,2.2-2.2,2.2s-2.2-1-2.2-2.2s1-2.2,2.2-2.2l0,0C15.5,5.9,16.5,6.9,16.5,8.2z"/>
		<path class="st0" d="M6.8,6.4c0-1.6-1.2-2.9-2.8-2.9c-1.6,0-2.9,1.2-2.9,2.8c0,0.5,0.1,1.1,0.4,1.5l0,0l2,3.5
			c0.2,0.3,0.5,0.3,0.7,0.2c0.1,0,0.1-0.1,0.2-0.2l2-3.5l0,0C6.8,7.4,6.9,6.9,6.8,6.4z"/>
		<path class="st0" d="M5.4,6.4c0,0.8-0.6,1.4-1.4,1.4c-0.8,0-1.4-0.6-1.4-1.4S3.2,5.1,4,5.1c0,0,0,0,0,0C4.8,5.1,5.4,5.7,5.4,6.4z"
			/>
	</g>
</g>
</svg>
