<?xml version="1.0" encoding="utf-8"?>
<!-- Generator: Adobe Illustrator 22.0.1, SVG Export Plug-In . SVG Version: 6.00 Build 0)  -->
<svg version="1.1" id="Capa_1" xmlns="http://www.w3.org/2000/svg" xmlns:xlink="http://www.w3.org/1999/xlink" x="0px" y="0px"
	 viewBox="0 0 200 200" style="enable-background:new 0 0 200 200;" xml:space="preserve">
<style type="text/css">
	.st0{fill:#D9D9D9;}
	.st1{fill:#323232;}
</style>
<g id="camera" transform="translate(-1 -1)">
	<ellipse id="Elipse_44" class="st0" cx="75.5" cy="100.9" rx="19.1" ry="20.2"/>
	<path id="Trazado_1991" class="st0" d="M84.9,136.5c27.1,0,28,22.6,45.2,22.6c15.6,0,13.7-54.8,41.9-54.8c12.6,0,22.2,10.5,29,22.3
		V75.2c0-5.3-4.3-9.7-9.7-9.7c0,0,0,0,0,0H49.4c-5.3,0-9.7,4.3-9.7,9.7l0,0v116.1c0,1.2,0.2,2.4,0.7,3.6
		C43.6,184.3,59.5,136.5,84.9,136.5z M75.2,75.2c14.3,0,25.8,11.6,25.8,25.8s-11.6,25.8-25.8,25.8S49.4,115.3,49.4,101c0,0,0,0,0,0
		C49.4,86.7,60.9,75.2,75.2,75.2z"/>
	<path id="Trazado_1992" class="st0" d="M172,110.7c-23,0-19.2,54.8-41.9,54.8c-21.1,0-21.1-22.6-45.2-22.6
		c-19.1,0-34.5,40.2-38.8,55.7c-0.2,0.5-0.4,1-0.8,1.4c1.3,0.6,2.7,1,4.2,1h141.9c5.3,0,9.7-4.3,9.7-9.7c0,0,0,0,0,0v-50.4
		C194.7,126.4,184.7,110.7,172,110.7z"/>
	<g id="Grupo_2597" transform="translate(1 1)">
		<path id="Trazado_1993" class="st1" d="M151.6,25.8h-30.4c-1.5,0-2.8-1-3.1-2.4l-4-16c-1.1-4.3-5-7.3-9.4-7.3h-48
			c-4.4,0-8.3,3-9.4,7.3l-4,16c-0.4,1.4-1.7,2.4-3.1,2.4h-4.6V9.7c0-1.8-1.4-3.2-3.2-3.2l0,0H12.9c-1.8,0-3.2,1.4-3.2,3.2v16.1
			c-5.3,0-9.7,4.3-9.7,9.7c0,0,0,0,0,0v96.8c0,5.3,4.3,9.7,9.7,9.7c0,0,0,0,0,0h141.9c5.3,0,9.7-4.3,9.7-9.7V35.5
			C161.3,30.1,157,25.8,151.6,25.8z M16.1,12.9H29v12.9H16.1V12.9z M154.8,132.3c0,1.8-1.4,3.2-3.2,3.2l0,0H9.7
			c-1.8,0-3.2-1.4-3.2-3.2V35.5c0-1.8,1.4-3.2,3.2-3.2h0h30.4c4.4,0,8.3-3,9.4-7.3l4-16c0.4-1.4,1.7-2.4,3.1-2.4h48
			c1.5,0,2.8,1,3.1,2.4l4,16c1.1,4.3,4.9,7.3,9.4,7.3h30.4c1.8,0,3.2,1.4,3.2,3.2L154.8,132.3z"/>
		<path id="Trazado_1994" class="st1" d="M54.8,38.7c-23.2,0-41.9,18.8-41.9,41.9s18.8,41.9,41.9,41.9s41.9-18.8,41.9-41.9l0,0
			C96.8,57.5,78,38.7,54.8,38.7z M54.8,116.1c-19.6,0-35.5-15.9-35.5-35.5c0-19.6,15.9-35.5,35.5-35.5c19.6,0,35.5,15.9,35.5,35.5
			S74.4,116.1,54.8,116.1C54.8,116.1,54.8,116.1,54.8,116.1z"/>
		<path id="Trazado_1995" class="st1" d="M54.8,51.6c-1.8,0-3.2,1.4-3.2,3.2c0,1.8,1.4,3.2,3.2,3.2c12.5,0,22.6,10.1,22.6,22.6
			c0,1.8,1.4,3.2,3.2,3.2c1.8,0,3.2-1.4,3.2-3.2c0,0,0,0,0,0C83.9,64.6,70.9,51.6,54.8,51.6z"/>
		<path id="Trazado_1996" class="st1" d="M145.2,45.2h-38.7c-1.8,0-3.2,1.4-3.2,3.2c0,1.8,1.4,3.2,3.2,3.2h38.7
			c1.8,0,3.2-1.4,3.2-3.2C148.4,46.6,146.9,45.2,145.2,45.2C145.2,45.2,145.2,45.2,145.2,45.2z"/>
		<path id="Trazado_1997" class="st1" d="M145.2,61.3h-38.7c-1.8,0-3.2,1.4-3.2,3.2c0,1.8,1.4,3.2,3.2,3.2h38.7
			c1.8,0,3.2-1.4,3.2-3.2C148.4,62.7,146.9,61.3,145.2,61.3C145.2,61.3,145.2,61.3,145.2,61.3z"/>
	</g>
</g>
</svg>
