<?xml version="1.0" encoding="utf-8"?>
<!-- Generator: Adobe Illustrator 22.0.1, SVG Export Plug-In . SVG Version: 6.00 Build 0)  -->
<svg version="1.1" id="Capa_1" xmlns="http://www.w3.org/2000/svg" xmlns:xlink="http://www.w3.org/1999/xlink" x="0px" y="0px"
	 viewBox="0 0 23.9 20" style="enable-background:new 0 0 23.9 20;" xml:space="preserve">
<style type="text/css">
	.st0{fill:none;stroke:#BFBFBF;stroke-width:0.75;stroke-miterlimit:10;}
</style>
<g>
	<rect x="0.9" y="1" class="st0" width="22.1" height="18"/>
	<polyline class="st0" points="0.9,15.3 4.2,11.7 9.7,16.2 17.6,7.7 23,13.3 	"/>
	<path class="st0" d="M8.3,4.9C8.7,4.9,9,5,9.3,5.1C9.5,5.2,9.8,5.4,10,5.6s0.4,0.5,0.5,0.8c0.1,0.3,0.2,0.6,0.2,0.9
		c0,0.3-0.1,0.6-0.2,0.9C10.4,8.5,10.2,8.8,10,9C9.8,9.2,9.5,9.4,9.3,9.5C9,9.6,8.7,9.7,8.3,9.7S7.7,9.6,7.4,9.5
		C7.1,9.4,6.9,9.2,6.7,9C6.4,8.8,6.3,8.5,6.1,8.2C6,7.9,6,7.6,6,7.3C6,7,6,6.7,6.1,6.4c0.1-0.3,0.3-0.5,0.5-0.8s0.5-0.4,0.8-0.5
		C7.7,5,8,4.9,8.3,4.9z"/>
</g>
</svg>
