<?xml version="1.0" encoding="utf-8"?>
<!-- Generator: Adobe Illustrator 22.0.1, SVG Export Plug-In . SVG Version: 6.00 Build 0)  -->
<svg version="1.1" id="Capa_3" xmlns="http://www.w3.org/2000/svg" xmlns:xlink="http://www.w3.org/1999/xlink" x="0px" y="0px"
	 viewBox="0 0 20 20" style="enable-background:new 0 0 20 20;" xml:space="preserve">
<style type="text/css">
	.st0{fill:none;stroke:#464646;stroke-width:0.5;stroke-linecap:round;stroke-linejoin:round;}
	.st1{fill:#464646;}
</style>
<g id="Capa_2_2_">
	<g id="Capa_1-2_2_">
		<polyline class="st0" points="13.1,16.5 5,16.5 5,5.1 13.1,5.1 13.1,7.3 		"/>
		<rect x="7.1" y="3.5" class="st0" width="3.9" height="1.5"/>
		<line class="st0" x1="6.9" y1="6.5" x2="11.2" y2="6.5"/>
		<line class="st0" x1="6.9" y1="7.9" x2="11.2" y2="7.9"/>
		<line class="st0" x1="6.9" y1="9.3" x2="8.9" y2="9.3"/>
		<line class="st0" x1="6.9" y1="10.8" x2="8.9" y2="10.8"/>
		<line class="st0" x1="6.9" y1="12.2" x2="8" y2="12.2"/>
		<line class="st0" x1="6.9" y1="13.6" x2="8" y2="13.6"/>
		<line class="st0" x1="6.9" y1="15.1" x2="9.9" y2="15.1"/>
		<rect x="8.4" y="15.1" class="st0" width="1.4" height="1.4"/>
		<line class="st0" x1="3.7" y1="16.5" x2="14.6" y2="16.5"/>
		<polyline class="st0" points="14,11.1 13.1,12 11.8,10.7 		"/>
		<path class="st1" d="M13.6,12c0,0.3-0.2,0.5-0.5,0.5s-0.5-0.2-0.5-0.5c0-0.3,0.2-0.5,0.5-0.5l0,0C13.4,11.5,13.6,11.7,13.6,12z"/>
		<line class="st0" x1="11.2" y1="12" x2="11.2" y2="12"/>
		<line class="st0" x1="13.1" y1="10" x2="13.1" y2="10"/>
		<line class="st0" x1="15" y1="12" x2="15" y2="12"/>
		<line class="st0" x1="13.1" y1="13.9" x2="13.1" y2="13.9"/>
		<path class="st0" d="M16.3,12c0,1.8-1.4,3.2-3.2,3.2S9.8,13.8,9.8,12s1.4-3.2,3.2-3.2S16.3,10.2,16.3,12z"/>
	</g>
</g>
</svg>
