<?xml version="1.0" encoding="utf-8"?>
<!-- Generator: Adobe Illustrator 22.0.1, SVG Export Plug-In . SVG Version: 6.00 Build 0)  -->
<svg version="1.1" id="Capa_3" xmlns="http://www.w3.org/2000/svg" xmlns:xlink="http://www.w3.org/1999/xlink" x="0px" y="0px"
	 viewBox="0 0 20 20" style="enable-background:new 0 0 20 20;" xml:space="preserve">
<style type="text/css">
	.st0{fill:none;stroke:#464646;stroke-width:0.5;stroke-linecap:round;stroke-linejoin:round;}
	.st1{fill:#464646;}
</style>
<g id="Capa_2_3_">
	<g id="Capa_1-2_1_">
		<polyline class="st0" points="12.6,7.5 10,10 6.8,6.8 		"/>
		<path class="st1" d="M11,10c0,0.5-0.4,1-1,1c-0.5,0-1-0.4-1-1s0.4-1,1-1l0,0C10.6,9,11,9.5,11,10z"/>
		<line class="st0" x1="5.4" y1="10" x2="5.4" y2="10"/>
		<line class="st0" x1="10" y1="5.4" x2="10" y2="5.4"/>
		<line class="st0" x1="14.6" y1="10" x2="14.6" y2="10"/>
		<line class="st0" x1="10" y1="14.6" x2="10" y2="14.6"/>
		<path class="st0" d="M16.4,10c0,3.5-2.9,6.4-6.4,6.4S3.6,13.5,3.6,10S6.5,3.6,10,3.6S16.4,6.5,16.4,10z"/>
	</g>
</g>
</svg>
