<svg xmlns="http://www.w3.org/2000/svg" width="80.063" height="80.063" viewBox="0 0 80.063 80.063">
  <path id="check-mark_4_" data-name="check-mark (4)" d="M57.727,27.329a3.127,3.127,0,0,1,0,4.423L36.746,52.733a3.128,3.128,0,0,1-4.423,0l-9.988-9.988a3.127,3.127,0,0,1,4.422-4.422L34.534,46.1,53.3,27.329A3.128,3.128,0,0,1,57.727,27.329Zm22.336,12.7A40.031,40.031,0,1,1,40.031,0,40.009,40.009,0,0,1,80.063,40.031Zm-6.255,0A33.776,33.776,0,1,0,40.031,73.808,33.758,33.758,0,0,0,73.808,40.031Zm0,0" fill="#3fa890"/>
</svg>
