<?xml version="1.0" encoding="utf-8"?>
<!-- Generator: Adobe Illustrator 22.0.1, SVG Export Plug-In . SVG Version: 6.00 Build 0)  -->
<svg version="1.1" id="Capa_3" xmlns="http://www.w3.org/2000/svg" xmlns:xlink="http://www.w3.org/1999/xlink" x="0px" y="0px"
	 viewBox="0 0 20 20" style="enable-background:new 0 0 20 20;" xml:space="preserve">
<style type="text/css">
	.st0{fill:none;stroke:#464646;stroke-width:0.5;stroke-linecap:round;stroke-linejoin:round;}
</style>
<g id="Capa_2_3_">
	<g id="Capa_1-2_1_">
		<path class="st0" d="M7.9,4.5c0,0.5-0.4,1-1,1c-0.5,0-1-0.4-1-1c0-0.5,0.4-1,1-1c0,0,0,0,0,0C7.5,3.5,7.9,4,7.9,4.5
			C7.9,4.5,7.9,4.5,7.9,4.5z"/>
		<path class="st0" d="M14,4.5c0,0.5-0.4,1-1,1c-0.5,0-1-0.4-1-1s0.4-1,1-1l0,0C13.6,3.5,14,4,14,4.5C14,4.5,14,4.5,14,4.5z"/>
		<path class="st0" d="M8.9,7.5V7c0-0.4-0.3-0.7-0.8-0.8H5.7C5.3,6.3,5,6.6,5,7.1c0,0,0,0,0,0v1.7"/>
		<path class="st0" d="M15,8.8V7.1c0-0.4-0.3-0.8-0.8-0.8c0,0,0,0,0,0h-2.4c-0.4,0-0.8,0.3-0.8,0.8c0,0,0,0,0,0v0.5"/>
		<path class="st0" d="M16.6,12.5c0-2.2-3-4-6.6-4s-6.6,1.8-6.6,4c0,1,0.6,1.9,1.6,2.6v-1c0-0.4,0.3-0.8,0.8-0.8c0,0,0,0,0,0h2.4
			c0.4,0,0.8,0.3,0.8,0.8v2.3c0.4,0,0.7,0.1,1.1,0.1c0.4,0,0.7,0,1-0.1v-2.4c0-0.4,0.3-0.8,0.8-0.8c0,0,0,0,0,0h2.4
			c0.4,0,0.8,0.3,0.8,0.8c0,0,0,0,0,0v1C16,14.4,16.6,13.5,16.6,12.5z M6.9,12.5c-0.5,0-1-0.4-1-1c0-0.5,0.4-1,1-1c0.5,0,1,0.4,1,1
			C7.9,12.1,7.5,12.5,6.9,12.5C6.9,12.5,6.9,12.5,6.9,12.5z M13,12.5c-0.5,0-1-0.4-1-1c0-0.5,0.4-1,1-1c0.5,0,1,0.4,1,1
			C14,12.1,13.6,12.5,13,12.5C13,12.5,13,12.5,13,12.5z"/>
	</g>
</g>
</svg>
