<?xml version="1.0" encoding="utf-8"?>
<!-- Generator: Adobe Illustrator 22.0.1, SVG Export Plug-In . SVG Version: 6.00 Build 0)  -->
<svg version="1.1" id="Capa_1" xmlns="http://www.w3.org/2000/svg" xmlns:xlink="http://www.w3.org/1999/xlink" x="0px" y="0px"
	 viewBox="0 0 40 40" style="enable-background:new 0 0 40 40;" xml:space="preserve">
<style type="text/css">
	.st0{fill:none;stroke:#464646;stroke-width:1.5;stroke-linecap:round;}
	.st1{fill:none;stroke:#464646;stroke-width:1.5;}
	.st2{fill:none;stroke:#464646;stroke-width:1.2;}
</style>
<g>
	<line class="st0" x1="0.9" y1="33.1" x2="39.1" y2="33.1"/>
	<path class="st1" d="M6.3,6.9h27.3c1.1,0,2.1,0.9,2.1,2.1v23.9H4.3V9C4.3,7.8,5.2,6.9,6.3,6.9z"/>
	<path class="st2" d="M16.8,32.6v-10c0-0.1,0-0.2,0.1-0.3c0.1-0.1,0.2-0.1,0.3-0.1h5.5c0.1,0,0.2,0,0.3,0.1c0.1,0.1,0.1,0.2,0.1,0.3
		v10c0,0.1,0,0.2-0.1,0.3c-0.1,0.1-0.2,0.1-0.3,0.1h-5.5c-0.1,0-0.2,0-0.3-0.1C16.9,32.9,16.8,32.8,16.8,32.6z"/>
	<path class="st2" d="M7.7,26.3v-3.6c0-0.1,0-0.2,0.1-0.3c0.1-0.1,0.2-0.1,0.3-0.1h4.6c0.1,0,0.2,0,0.3,0.1c0.1,0.1,0.1,0.2,0.1,0.3
		v3.6c0,0.1,0,0.2-0.1,0.3c-0.1,0.1-0.2,0.1-0.3,0.1H8.2c-0.1,0-0.2,0-0.3-0.1C7.7,26.5,7.7,26.4,7.7,26.3z"/>
	<path class="st2" d="M26.8,26.3v-3.6c0-0.1,0-0.2,0.1-0.3c0.1-0.1,0.2-0.1,0.3-0.1h4.6c0.1,0,0.2,0,0.3,0.1
		c0.1,0.1,0.1,0.2,0.1,0.3v3.6c0,0.1,0,0.2-0.1,0.3c-0.1,0.1-0.2,0.1-0.3,0.1h-4.6c-0.1,0-0.2,0-0.3-0.1
		C26.9,26.5,26.8,26.4,26.8,26.3z"/>
	<path class="st2" d="M7.7,16.2v-3.6c0-0.1,0-0.2,0.1-0.3c0.1-0.1,0.2-0.1,0.3-0.1h4.6c0.1,0,0.2,0,0.3,0.1c0.1,0.1,0.1,0.2,0.1,0.3
		v3.6c0,0.1,0,0.2-0.1,0.3c-0.1,0.1-0.2,0.1-0.3,0.1H8.2c-0.1,0-0.2,0-0.3-0.1C7.7,16.5,7.7,16.4,7.7,16.2z"/>
	<path class="st2" d="M26.8,16.2v-3.6c0-0.1,0-0.2,0.1-0.3c0.1-0.1,0.2-0.1,0.3-0.1h4.6c0.1,0,0.2,0,0.3,0.1
		c0.1,0.1,0.1,0.2,0.1,0.3v3.6c0,0.1,0,0.2-0.1,0.3c-0.1,0.1-0.2,0.1-0.3,0.1h-4.6c-0.1,0-0.2,0-0.3-0.1
		C26.9,16.5,26.8,16.4,26.8,16.2z"/>
	<path class="st2" d="M16.8,16.2v-3.6c0-0.1,0-0.2,0.1-0.3c0.1-0.1,0.2-0.1,0.3-0.1h5.5c0.1,0,0.2,0,0.3,0.1
		c0.1,0.1,0.1,0.2,0.1,0.3v3.6c0,0.1,0,0.2-0.1,0.3c-0.1,0.1-0.2,0.1-0.3,0.1h-5.5c-0.1,0-0.2,0-0.3-0.1
		C16.9,16.5,16.8,16.4,16.8,16.2z"/>
</g>
</svg>
