<?xml version="1.0" encoding="utf-8"?>
<!-- Generator: Adobe Illustrator 22.0.1, SVG Export Plug-In . SVG Version: 6.00 Build 0)  -->
<svg version="1.1" id="Capa_5" xmlns="http://www.w3.org/2000/svg" xmlns:xlink="http://www.w3.org/1999/xlink" x="0px" y="0px"
	 viewBox="0 0 40 40" style="enable-background:new 0 0 40 40;" xml:space="preserve">
<style type="text/css">
	.st0{fill:#464646;}
	.st1{fill:none;stroke:#464646;stroke-width:0.6;}
</style>
<g>
	<path class="st0" d="M20,9.1c-3.5,0-6.4,2.9-6.4,6.4c0,3.5,2.9,6.4,6.4,6.4c3.5,0,6.4-2.9,6.4-6.4C26.3,12,23.5,9.1,20,9.1
		 M20,23.1c-4.2,0-7.6-3.4-7.6-7.6s3.4-7.6,7.6-7.6c4.2,0,7.6,3.4,7.6,7.6S24.2,23.1,20,23.1 M20,1.9c-7.4,0-13.5,6.1-13.6,13.6
		C6.3,23.7,17.6,35.5,20,37.9c2.4-2.3,13.5-13.6,13.5-22.5C33.5,7.9,27.4,1.9,20,1.9 M20,39.4c-0.2,0-0.3-0.1-0.4-0.2
		C18.9,38.6,5,25.2,5.2,15.4C5.2,7.2,11.9,0.6,20,0.6c8.2,0,14.8,6.6,14.8,14.8c0,10.4-13.8,23.3-14.4,23.8
		C20.3,39.3,20.1,39.4,20,39.4"/>
	<path class="st1" d="M20,9.1c-3.5,0-6.4,2.9-6.4,6.4c0,3.5,2.9,6.4,6.4,6.4c3.5,0,6.4-2.9,6.4-6.4C26.3,12,23.5,9.1,20,9.1
		 M20,23.1c-4.2,0-7.6-3.4-7.6-7.6s3.4-7.6,7.6-7.6c4.2,0,7.6,3.4,7.6,7.6S24.2,23.1,20,23.1 M20,1.9c-7.4,0-13.5,6.1-13.6,13.6
		C6.3,23.7,17.6,35.5,20,37.9c2.4-2.3,13.5-13.6,13.5-22.5C33.5,7.9,27.4,1.9,20,1.9 M20,39.4c-0.2,0-0.3-0.1-0.4-0.2
		C18.9,38.6,5,25.2,5.2,15.4C5.2,7.2,11.9,0.6,20,0.6c8.2,0,14.8,6.6,14.8,14.8c0,10.4-13.8,23.3-14.4,23.8
		C20.3,39.3,20.1,39.4,20,39.4"/>
</g>
</svg>
