<svg xmlns="http://www.w3.org/2000/svg" width="21.54" height="21.606" viewBox="0 0 21.54 21.606">
  <g id="Grupo_3267" data-name="Grupo 3267" transform="translate(0.504 0.5)">
    <path id="Trazado_1615" data-name="Trazado 1615" d="M48.124,1.309a4.529,4.529,0,0,0-6.371,0l-10.9,10.974a1.068,1.068,0,0,0-.294.515l-1.62,6.407a1.252,1.252,0,0,0,.294,1.068,1.142,1.142,0,0,0,.81.332H30.3l6.408-1.657a1.145,1.145,0,0,0,.515-.258L48.161,7.68A4.53,4.53,0,0,0,48.124,1.309ZM35.9,16.849l-4.346,1.1,1.068-4.345,8.8-8.838L44.7,8.011ZM46.577,6.133l-.332.332L43,3.224l.332-.332a2.246,2.246,0,0,1,3.176-.065l.065.065a2.172,2.172,0,0,1,.663,1.62A2.282,2.282,0,0,1,46.577,6.133Z" transform="translate(-28.915 0)" fill="#464646" stroke="#ffcd00" stroke-width="1"/>
    <path id="Trazado_4262" data-name="Trazado 4262" d="M0,0H20.082" transform="translate(0.429 20.456)" fill="none" stroke="#464646" stroke-width="1.3"/>
  </g>
</svg>
