<?xml version="1.0" encoding="utf-8"?>
<!-- Generator: Adobe Illustrator 22.0.1, SVG Export Plug-In . SVG Version: 6.00 Build 0)  -->
<svg version="1.1" id="Capa_1" xmlns="http://www.w3.org/2000/svg" xmlns:xlink="http://www.w3.org/1999/xlink" x="0px" y="0px"
	 viewBox="0 0 100 100" style="enable-background:new 0 0 100 100;" xml:space="preserve">
<style type="text/css">
	.st0{fill:#F2C728;}
</style>
<g id="edit" transform="translate(0)">
	<g id="Grupo_2567" transform="translate(0)">
		<path id="Trazado_1979" class="st0" d="M93.4,6.4c-7.7-7.7-20.3-7.7-28,0c0,0,0,0,0,0L10.1,61.8c-0.5,0.5-0.8,1.1-1,1.7L0.4,94.7
			c-0.6,2.1,0.6,4.2,2.7,4.8c0.7,0.2,1.4,0.2,2.1,0l31.2-8.9c2.1-0.6,3.2-2.7,2.7-4.8c-0.2-0.6-0.5-1.2-1-1.7L18.4,64.4l45.9-45.9
			l17.1,17.1l-35.1,35c-1.5,1.5-1.5,4,0,5.5c1.5,1.5,4,1.5,5.5,0l41.8-41.6C101.2,26.7,101.2,14.1,93.4,6.4
			C93.5,6.4,93.4,6.4,93.4,6.4L93.4,6.4z M28,84.9L9.7,90.1l5.1-18.4L28,84.9z M88,28.9l-1.2,1.1L69.8,13l1.1-1.1
			c4.7-4.7,12.4-4.7,17.1,0S92.7,24.2,88,28.9L88,28.9L88,28.9z"/>
	</g>
</g>
</svg>
