<svg xmlns="http://www.w3.org/2000/svg" width="88.711" height="76.285" viewBox="0 0 88.711 76.285">
  <g id="danger_1_" data-name="danger (1)" transform="translate(0 -35.857)">
    <g id="Grupo_3107" data-name="Grupo 3107" transform="translate(0 35.857)">
      <g id="Grupo_3106" data-name="Grupo 3106" transform="translate(0 0)">
        <path id="Trazado_2642" data-name="Trazado 2642" d="M87.567,100.057,51.18,39.711a7.97,7.97,0,0,0-13.65,0L1.142,100.057a7.97,7.97,0,0,0,6.825,12.085H80.742a7.969,7.969,0,0,0,6.825-12.085Zm-4.914,5.194a2.2,2.2,0,0,1-1.91,1.115H7.967a2.194,2.194,0,0,1-1.879-3.327L42.476,42.694a2.194,2.194,0,0,1,3.758,0L82.621,103.04A2.2,2.2,0,0,1,82.653,105.251Z" transform="translate(0 -35.857)" fill="#ff3100"/>
      </g>
    </g>
    <g id="Grupo_3109" data-name="Grupo 3109" transform="translate(40.47 59.62)">
      <g id="Grupo_3108" data-name="Grupo 3108" transform="translate(0 0)">
        <path id="Trazado_2643" data-name="Trazado 2643" d="M237.49,173.005c-2.2,0-3.912,1.179-3.912,3.269,0,6.376.75,15.539.75,21.916,0,1.661,1.447,2.358,3.162,2.358,1.286,0,3.108-.7,3.108-2.358,0-6.376.75-15.539.75-21.916C241.348,174.184,239.579,173.005,237.49,173.005Z" transform="translate(-233.578 -173.005)" fill="#ff3100"/>
      </g>
    </g>
    <g id="Grupo_3111" data-name="Grupo 3111" transform="translate(40.309 90.859)">
      <g id="Grupo_3110" data-name="Grupo 3110" transform="translate(0 0)">
        <path id="Trazado_2644" data-name="Trazado 2644" d="M236.777,353.306a4.126,4.126,0,1,0,0,8.252,4.126,4.126,0,0,0,0-8.252Z" transform="translate(-232.651 -353.306)" fill="#ff3100"/>
      </g>
    </g>
  </g>
</svg>
