<svg xmlns="http://www.w3.org/2000/svg" width="15.758" height="20.639" viewBox="0 0 15.758 20.639">
  <g id="Grupo_3303" data-name="Grupo 3303" transform="translate(15436.15 15524.15)">
    <g id="Grupo_3268" data-name="Grupo 3268" transform="translate(-15436 -15524)">
      <path id="Trazado_731" data-name="Trazado 731" d="M651.725,640.591h-4.068v-.814a1.627,1.627,0,0,0-1.627-1.627h-4.068a1.627,1.627,0,0,0-1.627,1.627v.814h-4.068v.814h.837l.815,15.458a1.627,1.627,0,0,0,1.627,1.627H648.5a1.627,1.627,0,0,0,1.627-1.627l.8-15.458h.8Zm-10.577-.814a.815.815,0,0,1,.814-.814h4.068a.814.814,0,0,1,.814.814v.814h-5.7Zm8.162,17.043v.042a.815.815,0,0,1-.814.814h-8.949a.815.815,0,0,1-.814-.814v-.042l-.812-15.416h12.189Z" transform="translate(-636.267 -638.15)" fill="#464646" stroke="#464646" stroke-width="0.3"/>
      <rect id="Rectángulo_141" data-name="Rectángulo 141" width="0.814" height="13.017" transform="translate(7.321 4.882)" fill="#464646" stroke="#464646" stroke-width="0.3"/>
      <rect id="Rectángulo_142" data-name="Rectángulo 142" width="0.814" height="13.019" transform="translate(4.068 4.933) rotate(-3.667)" fill="#464646" stroke="#464646" stroke-width="0.3"/>
      <rect id="Rectángulo_143" data-name="Rectángulo 143" width="13.043" height="0.814" transform="translate(9.765 17.874) rotate(-86.417)" fill="#464646" stroke="#464646" stroke-width="0.3"/>
    </g>
  </g>
</svg>
