<svg xmlns="http://www.w3.org/2000/svg" xmlns:xlink="http://www.w3.org/1999/xlink" width="24" height="23.999" viewBox="0 0 24 23.999">
  <defs>
    <clipPath id="clip-path">
      <rect id="Rectángulo_1173" data-name="Rectángulo 1173" width="24" height="23.999" fill="#333" stroke="#333" stroke-width="0.5"/>
    </clipPath>
  </defs>
  <g id="Grupo_3511" data-name="Grupo 3511" clip-path="url(#clip-path)">
    <path id="Trazado_8997" data-name="Trazado 8997" d="M13.5,24h0l-3.155-.017a.4.4,0,0,1-.385-.3l-.687-2.494a9.618,9.618,0,0,1-1.938-.817L5.07,21.63a.4.4,0,0,1-.48-.069L2.372,19.317a.4.4,0,0,1-.063-.48l1.278-2.25a9.576,9.576,0,0,1-.8-1.959L.29,13.91A.4.4,0,0,1,0,13.521l.018-3.154a.4.4,0,0,1,.294-.385l2.5-.689A9.454,9.454,0,0,1,3.637,7.34L2.377,5.062a.4.4,0,0,1,.069-.479L4.69,2.365A.4.4,0,0,1,5.17,2.3L7.434,3.587A9.543,9.543,0,0,1,9.38,2.795L10.1.291A.4.4,0,0,1,10.487,0h0l3.155.018a.4.4,0,0,1,.385.3l.692,2.507a9.478,9.478,0,0,1,1.943.819L18.939,2.38a.4.4,0,0,1,.48.069l2.218,2.243a.4.4,0,0,1,.063.481L20.418,7.431a9.606,9.606,0,0,1,.8,1.956l2.494.718a.4.4,0,0,1,.29.388l-.018,3.155a.4.4,0,0,1-.294.384l-2.5.688a9.528,9.528,0,0,1-.827,1.959l1.252,2.262a.4.4,0,0,1-.069.48L19.3,21.641a.4.4,0,0,1-.481.063l-2.249-1.278a9.554,9.554,0,0,1-1.969.8l-.715,2.482A.4.4,0,0,1,13.5,24m-2.847-.819,2.545.014.694-2.408a.4.4,0,0,1,.287-.278,8.671,8.671,0,0,0,2.192-.89.4.4,0,0,1,.4,0l2.182,1.239,1.81-1.791L19.55,16.87a.4.4,0,0,1,.006-.4,8.756,8.756,0,0,0,.921-2.182.4.4,0,0,1,.281-.283l2.42-.666.015-2.546-2.419-.7a.4.4,0,0,1-.278-.286,8.82,8.82,0,0,0-.888-2.181.4.4,0,0,1,0-.4l1.244-2.19L19.061,3.231,16.854,4.452a.4.4,0,0,1-.4-.005,8.754,8.754,0,0,0-2.168-.913.4.4,0,0,1-.282-.281L13.335.82,10.789.806l-.7,2.428a.4.4,0,0,1-.285.278A8.8,8.8,0,0,0,7.632,4.4a.4.4,0,0,1-.4,0l-2.2-1.246L3.228,4.94,4.45,7.149a.4.4,0,0,1-.005.4,8.7,8.7,0,0,0-.917,2.176.4.4,0,0,1-.281.283L.82,10.676.8,13.221l2.423.7a.4.4,0,0,1,.278.287A8.691,8.691,0,0,0,4.4,16.387a.4.4,0,0,1,0,.4l-1.24,2.183,1.791,1.81,2.2-1.217a.4.4,0,0,1,.4.005,8.73,8.73,0,0,0,2.161.912.4.4,0,0,1,.282.281Zm1.36-7.471q-.175,0-.354-.016a3.7,3.7,0,1,1,2.7-.836,3.666,3.666,0,0,1-2.351.853M9.108,11.738a2.907,2.907,0,0,0,2.63,3.155,2.9,2.9,0,0,0,.525-5.784,2.928,2.928,0,0,0-3.155,2.63Z" transform="translate(0 0)" fill="#333" stroke="#333" stroke-width="0.5"/>
  </g>
</svg>
