<svg xmlns="http://www.w3.org/2000/svg" xmlns:xlink="http://www.w3.org/1999/xlink" width="20.183" height="20.182" viewBox="0 0 20.183 20.182">
  <defs>
    <clipPath id="clip-path">
      <rect id="Rectángulo_1168" data-name="Rectángulo 1168" width="20.183" height="20.182" fill="#ffcd00" stroke="#ffcd00" stroke-width="0.5"/>
    </clipPath>
  </defs>
  <g id="Grupo_3430" data-name="Grupo 3430" clip-path="url(#clip-path)">
    <path id="Trazado_8994" data-name="Trazado 8994" d="M11.356,20.182h0L8.7,20.168a.337.337,0,0,1-.324-.248l-.578-2.1a8.088,8.088,0,0,1-1.63-.687L4.264,18.19a.338.338,0,0,1-.4-.058L1.994,16.245a.337.337,0,0,1-.053-.4l1.075-1.892A8.053,8.053,0,0,1,2.345,12.3l-2.1-.6A.338.338,0,0,1,0,11.37L.015,8.718a.336.336,0,0,1,.247-.324l2.1-.58a7.951,7.951,0,0,1,.692-1.642L2,4.257a.338.338,0,0,1,.058-.4L3.944,1.989a.335.335,0,0,1,.4-.054l1.9,1.081A8.025,8.025,0,0,1,7.888,2.35L8.494.245A.337.337,0,0,1,8.819,0h0l2.653.015A.336.336,0,0,1,11.8.264l.582,2.108a7.971,7.971,0,0,1,1.634.689L15.927,2a.339.339,0,0,1,.4.058L18.2,3.946a.337.337,0,0,1,.053.4l-1.078,1.9a8.079,8.079,0,0,1,.671,1.645l2.1.6a.337.337,0,0,1,.244.327l-.015,2.653a.336.336,0,0,1-.247.323l-2.1.579a8.013,8.013,0,0,1-.7,1.648l1.053,1.9a.337.337,0,0,1-.058.4L16.234,18.2a.339.339,0,0,1-.4.053l-1.892-1.075a8.035,8.035,0,0,1-1.656.673l-.6,2.087a.337.337,0,0,1-.325.244m-2.394-.689,2.14.012.583-2.025a.337.337,0,0,1,.241-.234A7.292,7.292,0,0,0,13.77,16.5a.34.34,0,0,1,.336,0l1.835,1.042,1.522-1.506-1.022-1.845a.34.34,0,0,1,.005-.336,7.364,7.364,0,0,0,.774-1.835.338.338,0,0,1,.237-.238l2.035-.56.013-2.141-2.034-.586a.337.337,0,0,1-.234-.24,7.417,7.417,0,0,0-.747-1.834.336.336,0,0,1,0-.335L17.535,4.24,16.03,2.717,14.173,3.744a.336.336,0,0,1-.335,0,7.362,7.362,0,0,0-1.823-.768.337.337,0,0,1-.237-.237L11.214.69,9.073.678,8.485,2.72a.334.334,0,0,1-.239.234A7.4,7.4,0,0,0,6.418,3.7a.336.336,0,0,1-.335,0L4.237,2.649l-1.522,1.5L3.742,6.012a.338.338,0,0,1,0,.336,7.314,7.314,0,0,0-.772,1.83.338.338,0,0,1-.237.238L.69,8.978l-.013,2.14,2.038.586a.34.34,0,0,1,.234.241A7.309,7.309,0,0,0,3.7,13.78a.335.335,0,0,1,0,.336L2.655,15.952l1.506,1.522,1.85-1.024a.34.34,0,0,1,.336,0,7.341,7.341,0,0,0,1.817.767.337.337,0,0,1,.237.237Zm1.144-6.282q-.147,0-.3-.014a3.114,3.114,0,1,1,2.275-.7,3.083,3.083,0,0,1-1.977.717M7.659,9.871a2.444,2.444,0,0,0,2.212,2.653,2.442,2.442,0,0,0,.441-4.864A2.463,2.463,0,0,0,7.659,9.872Z" transform="translate(0 0)" fill="#ffcd00" stroke="#ffcd00" stroke-width="0.5"/>
  </g>
</svg>
