<?xml version="1.0" encoding="utf-8"?>
<!-- Generator: Adobe Illustrator 22.0.1, SVG Export Plug-In . SVG Version: 6.00 Build 0)  -->
<svg version="1.1" id="Capa_3" xmlns="http://www.w3.org/2000/svg" xmlns:xlink="http://www.w3.org/1999/xlink" x="0px" y="0px"
	 viewBox="0 0 20 20" style="enable-background:new 0 0 20 20;" xml:space="preserve">
<style type="text/css">
	.st0{fill:none;stroke:#464646;stroke-width:0.5;stroke-linecap:round;stroke-linejoin:round;}
</style>
<g id="Capa_2_2_">
	<g id="Capa_1-2_2_">
		<path class="st0" d="M8.1,12.5l6.4-6.3c0.1-0.1,0.2-0.1,0.3,0c0.1,0.1,0.1,0.2,0,0.2l-4,6.7"/>
		<line class="st0" x1="9.8" y1="16.5" x2="12.8" y2="13.5"/>
		<path class="st0" d="M16.4,3.4L3.5,11.5l4.5,1l1.3,4c0,0.1,0.1,0.1,0.2,0.1c0,0,0.1-0.1,0.1-0.1l1.1-3.4l5.8,1.2L16.4,3.4"/>
		<path class="st0" d="M16.4,3.4L3.5,11.5l4.5,1l1.3,4c0,0.1,0.1,0.1,0.2,0.1c0,0,0.1-0.1,0.1-0.1l1.1-3.4l5.8,1.2L16.4,3.4"/>
	</g>
</g>
</svg>
