<?xml version="1.0" encoding="utf-8"?>
<!-- Generator: Adobe Illustrator 22.0.1, SVG Export Plug-In . SVG Version: 6.00 Build 0)  -->
<svg version="1.1" id="Capa_4" xmlns="http://www.w3.org/2000/svg" xmlns:xlink="http://www.w3.org/1999/xlink" x="0px" y="0px"
	 viewBox="0 0 43.5 49.8" style="enable-background:new 0 0 43.5 49.8;" xml:space="preserve">
<g>
	<path id="Trazado_1972" d="M43,2.1c-0.3-0.2-0.6-0.2-0.9,0L26,11.7c-0.4,0.2-0.6,0.8-0.3,1.2c0.2,0.4,0.8,0.6,1.2,0.3c0,0,0,0,0,0
		l11.6-6.9L16.9,28.7L6.2,25.4l14-8.3c0.4-0.3,0.5-0.8,0.3-1.2c-0.2-0.4-0.8-0.5-1.2-0.3L3.5,24.9c-0.4,0.2-0.6,0.8-0.3,1.2
		c0.1,0.2,0.3,0.3,0.5,0.4l12.8,3.9l5.7,10.3c0,0,0,0,0,0c0.2,0.4,0.8,0.6,1.2,0.3c0.1,0,0.1-0.1,0.2-0.1l6.5-6.4l12.2,3.7
		c0.5,0.1,1-0.1,1.1-0.6c0-0.1,0-0.2,0-0.3V2.9C43.5,2.6,43.3,2.3,43,2.1z M22.3,31c-0.1,0.1-0.2,0.3-0.2,0.5v5.4l-3.9-7l17.1-17.7
		L22.3,31z M23.9,38.2v-5.5l4.3,1.3L23.9,38.2z M41.7,36.3L24.4,31L41.7,6L41.7,36.3z"/>
	<g id="Grupo_2558" transform="translate(0 0)">
		<g id="Grupo_2557">
			<path id="Trazado_1974" d="M34.7,38.8c-0.3-0.3-0.9-0.3-1.2,0c0,0,0,0,0,0l-2,2c-0.3,0.3-0.3,0.9,0,1.2c0.3,0.3,0.9,0.3,1.2,0
				l0,0l2-2C35,39.7,35,39.2,34.7,38.8C34.7,38.8,34.7,38.8,34.7,38.8z"/>
		</g>
	</g>
	<g id="Grupo_2566" transform="translate(0 0)">
		<g id="Grupo_2565">
			<path id="Trazado_1978" d="M23.7,13.7c-0.3-0.3-0.9-0.3-1.2,0c-0.3,0.3-0.3,0.9,0,1.2c0.3,0.3,0.9,0.3,1.2,0
				c0.2-0.2,0.3-0.4,0.3-0.6C23.9,14.1,23.8,13.9,23.7,13.7z"/>
		</g>
	</g>
	<g id="Grupo_2563">
		<path id="Trazado_1977" d="M17.4,40.2c-0.3-0.3-0.9-0.3-1.2,0c0,0,0,0,0,0l-4.4,4.4c-0.3,0.3-0.3,0.9,0,1.2s0.9,0.3,1.2,0l0,0
			l4.4-4.4C17.8,41.1,17.8,40.5,17.4,40.2C17.4,40.2,17.4,40.2,17.4,40.2z"/>
	</g>
	<g id="Grupo_2566_1_" transform="translate(0 0)">
		<g id="Grupo_2565_1_">
			<path id="Trazado_1978_1_" d="M11.3,46.3c-0.3-0.3-0.9-0.3-1.2,0c-0.3,0.3-0.3,0.9,0,1.2c0.3,0.3,0.9,0.3,1.2,0
				c0.2-0.2,0.3-0.4,0.3-0.6C11.5,46.7,11.4,46.5,11.3,46.3z"/>
		</g>
	</g>
	<g id="Grupo_2562" transform="translate(0 0)">
		<g id="Grupo_2561">
			<path id="Trazado_1976" d="M11.3,29.9c-0.3-0.3-0.9-0.3-1.2,0c0,0,0,0,0,0l-4.4,4.4c-0.3,0.3-0.3,0.9,0,1.2
				c0.3,0.3,0.9,0.3,1.2,0l0,0l4.4-4.4C11.6,30.8,11.6,30.2,11.3,29.9C11.3,29.9,11.3,29.9,11.3,29.9z"/>
		</g>
	</g>
	<g id="Grupo_2558_1_" transform="translate(0 0)">
		<g id="Grupo_2557_1_">
			<path id="Trazado_1974_1_" d="M4.7,36.3c-0.3-0.3-0.9-0.3-1.2,0c0,0,0,0,0,0l-2,2c-0.3,0.3-0.3,0.9,0,1.2c0.3,0.3,0.9,0.3,1.2,0
				l0,0l2-2C5,37.2,5,36.7,4.7,36.3C4.7,36.3,4.7,36.3,4.7,36.3z"/>
		</g>
	</g>
</g>
</svg>
