<svg xmlns="http://www.w3.org/2000/svg" width="15" height="17.128" viewBox="0 0 15 17.128">
  <g id="Grupo_3181" data-name="Grupo 3181" transform="translate(-42.5 -41.435)">
    <path id="Trazado_4389" data-name="Trazado 4389" d="M56.556,44.765,54.17,42.379a3.726,3.726,0,0,0-2.282-.944H43.839A1.316,1.316,0,0,0,42.5,42.757V57.225a1.34,1.34,0,0,0,1.339,1.338H56.161A1.34,1.34,0,0,0,57.5,57.225V47.047a3.726,3.726,0,0,0-.944-2.282Zm-.755.755a1.826,1.826,0,0,1,.154.188H53.209V42.963a1.63,1.63,0,0,1,.189.154Zm.635,11.722a.282.282,0,0,1-.275.274H43.839a.282.282,0,0,1-.275-.274V42.757a.282.282,0,0,1,.275-.275h8.032a1.718,1.718,0,0,1,.274.034v4.257H56.4a1.718,1.718,0,0,1,.034.274Z" fill="#333"/>
    <path id="Trazado_4390" data-name="Trazado 4390" d="M52.729,48.386h-1.6L50,50.051l-1.133-1.665h-1.6l1.922,2.866-2.18,3.192H50.12V53.363H49.4l.6-.892,1.322,1.974h1.665l-2.18-3.192Z" fill="#333"/>
  </g>
</svg>
