<svg xmlns="http://www.w3.org/2000/svg" width="27.909" height="23.999" viewBox="0 0 27.909 23.999">
  <g id="danger_1_" data-name="danger (1)" transform="translate(50 -35.857)">
    <g id="Grupo_3107" data-name="Grupo 3107" transform="translate(-50 35.857)">
      <g id="Grupo_3106" data-name="Grupo 3106" transform="translate(0 0)">
        <path id="Trazado_2642" data-name="Trazado 2642" d="M27.549,56.055,16.1,37.07a2.507,2.507,0,0,0-4.294,0L.359,56.055a2.507,2.507,0,0,0,2.147,3.8H25.4a2.507,2.507,0,0,0,2.147-3.8Z" transform="translate(0 -35.857)" fill="#f2c728"/>
      </g>
    </g>
    <g id="Grupo_3109" data-name="Grupo 3109" transform="translate(-37.262 42.627)">
      <g id="Grupo_3108" data-name="Grupo 3108" transform="translate(0 0)">
        <path id="Trazado_2643" data-name="Trazado 2643" d="M234.978,173.005c-.786,0-1.4.422-1.4,1.17,0,2.281.268,5.56.268,7.841,0,.594.518.844,1.131.844.46,0,1.112-.249,1.112-.844,0-2.281.268-5.56.268-7.841A1.232,1.232,0,0,0,234.978,173.005Z" transform="translate(-233.578 -173.005)" fill="#fff" stroke="#fff" stroke-width="0.3"/>
      </g>
    </g>
    <g id="Grupo_3111" data-name="Grupo 3111" transform="translate(-37.319 53.803)">
      <g id="Grupo_3110" data-name="Grupo 3110" transform="translate(0.001 0.001)">
        <path id="Trazado_2644" data-name="Trazado 2644" d="M234.127,353.306a1.476,1.476,0,0,0,0,2.953,1.476,1.476,0,0,0,0-2.953Z" transform="translate(-232.651 -353.306)" fill="#fff" stroke="#fff" stroke-width="0.3"/>
      </g>
    </g>
  </g>
</svg>
