<?xml version="1.0" encoding="utf-8"?>
<!-- Generator: Adobe Illustrator 22.0.1, SVG Export Plug-In . SVG Version: 6.00 Build 0)  -->
<svg version="1.1" id="Capa_1" xmlns="http://www.w3.org/2000/svg" xmlns:xlink="http://www.w3.org/1999/xlink" x="0px" y="0px"
	 viewBox="0 0 29.1 17.9" style="enable-background:new 0 0 29.1 17.9;" xml:space="preserve">
<style type="text/css">
	.st0{fill:#585858;}
	.st1{fill:#575757;}
	.st2{fill:none;stroke:#585858;}
</style>
<g id="Capa_1_1_">
	<path class="st0" d="M14.2,5.7c-1.6,0-3,1.3-3,3c0,1.6,1.3,3,3,3c1.6,0,3-1.3,3-3S15.9,5.7,14.2,5.7"/>
	<path class="st1" d="M2.5,9.3"/>
	<g>
		<path class="st2" d="M3.5,9c2.2,3.8,6.4,6.2,10.8,6.2c4.5,0,8.6-2.4,10.8-6.2C23,5.1,18.8,2.8,14.4,2.8C9.9,2.8,5.8,5.1,3.5,9
			 M14.4,16c-4.8,0-9.3-2.6-11.6-6.8c-0.1-0.1-0.1-0.3,0-0.4C5.1,4.6,9.6,2,14.4,2S23.7,4.6,26,8.8c0.1,0.1,0.1,0.3,0,0.4
			C23.6,13.4,19.2,16,14.4,16"/>
		<polyline class="st1" points="3.9,9.7 3.9,8.8 3,8.8 3.2,10.1 3.9,9.7 		"/>
	</g>
</g>
</svg>
