<?xml version="1.0" encoding="utf-8"?>
<!-- Generator: Adobe Illustrator 22.0.1, SVG Export Plug-In . SVG Version: 6.00 Build 0)  -->
<svg version="1.1" id="Capa_2" xmlns="http://www.w3.org/2000/svg" xmlns:xlink="http://www.w3.org/1999/xlink" x="0px" y="0px"
	 viewBox="0 0 20 20" style="enable-background:new 0 0 20 20;" xml:space="preserve">
<style type="text/css">
	.st0{fill:#FFB711;}
	.st1{fill:#003097;}
	.st2{fill:#3F1C8E;}
	.st3{fill:#EF172F;}
	.st4{fill:#00933B;}
	.st5{fill:#5B4394;}
	.st6{fill:#009C4A;}
	.st7{fill:#006EB8;}
	.st8{fill:#FFB246;}
</style>
<g>
	<path class="st0" d="M15.3,7l4.6,7.4c0,0,0.4,0.5-0.6,0.9c0,0-4.5,2.3-6.1-2.7c0,0-1.2-3.9,0.3-5.5C13.5,7.1,14.5,5.9,15.3,7z"/>
	<path class="st1" d="M5.3,15.3c-1.4-0.4-0.9-2.6-0.9-2.6c1.2-6.6,6.3-8.5,8.8-9.1c0,0-0.1,0.1-0.1,0.1c0,0,0-0.1,0.1-0.1
		c0,0,0.1,0,0.1,0c0.1,0,0.1,0.1,0.1,0.1c0,0,0,0.1-0.1,0.1c0,0,0,0-0.1,0c0,0,0,0,0,0C6.8,6.3,7,13.6,7,13.6S7,15.4,5.7,15.4
		C5.6,15.4,5.5,15.3,5.3,15.3z"/>
	<path class="st2" d="M8.9,16.4c-1.5-0.1-1.4-2.3-1.4-2.3c0-7.8,4.8-9.9,7-10.4c0,0,0,0,0,0.1c0,0,0-0.1,0-0.1c0,0,0.1,0,0.1,0
		c0,0,0.1,0.1,0.1,0.1c0,0,0,0.1,0,0.1c0,0,0,0-0.1,0c-6.1,2.9-4.5,10.3-4.5,10.3S10.6,16.4,8.9,16.4C9,16.4,8.9,16.4,8.9,16.4z"/>
	<path class="st3" d="M10.9,15.1C9.1,7.3,13.3,4.9,15,4.3c0,0,0,0,0,0.1c0,0,0,0,0-0.1c0,0,0,0,0.1,0c0,0,0,0,0.1,0
		c0,0,0.1,0.1,0.1,0.1c0,0,0,0,0,0c0,0-0.1,0-0.1,0.1c-4.9,3.8-1.8,9.7-1.8,9.7s0.9,1.8-0.4,2.3c-0.2,0.1-0.4,0.1-0.6,0.1
		C11.2,16.5,10.9,15.1,10.9,15.1z"/>
	<path class="st4" d="M0.1,4.6C0.1,4.6,0.1,4.6,0.1,4.6C0,4.6,0,4.6,0,4.7c0,0,0,0,0,0.1c0,0,0,0,0,0l0,0c0.8,0.6,3.6,2.7,4.6,5.5
		c0,0,0.5-2.1,2.9-4.3c0,0,0.4-0.6-0.4-1C7.1,5,6,4.4,0.1,4.6L0.1,4.6z"/>
	<path class="st3" d="M15.1,4.2C15.1,4.2,15.1,4.2,15.1,4.2c-0.1,0-0.1,0-0.1,0c-1.2,0.5-3.8,1.9-4.4,5.6c0.6,0.1,1.2,0.2,1.8,0.4
		c-0.1-1.9,0.5-4,2.7-5.8c0,0,0.1,0,0.1-0.1c0,0,0,0,0,0C15.2,4.2,15.2,4.2,15.1,4.2z"/>
	<path class="st5" d="M14.7,3.7c0,0-0.1,0-0.1,0c-1.6,0.4-4.8,1.7-6.2,5.6c0.6,0.2,1.2,0.3,1.8,0.5c0.4-2.1,1.6-4.5,4.5-5.9
		c0,0,0,0,0.1,0c0,0,0,0,0-0.1C14.8,3.7,14.7,3.7,14.7,3.7z"/>
	<path class="st6" d="M7.1,5c0,0-1.2-0.6-7-0.4l0,0c0,0-0.1,0-0.1,0c0,0,0,0,0,0.1c0,0,0,0,0,0.1c0,0,0,0,0,0l0,0
		C0.5,5.1,1.7,6,2.8,7.2C3.7,7.7,4.6,8,5.5,8.4c0.4-0.7,1.1-1.6,2-2.4C7.6,5.9,8,5.3,7.1,5z"/>
	<path class="st7" d="M13.3,3.6c0,0-0.1,0-0.1,0C11.2,4,7.9,5.2,5.9,8.5c0.7,0.2,1.3,0.5,2,0.7c0.8-2,2.4-4.2,5.3-5.4c0,0,0,0,0.1,0
		c0,0,0.1-0.1,0.1-0.1C13.4,3.6,13.3,3.6,13.3,3.6z"/>
	<path class="st8" d="M15.3,7c-0.8-1.1-1.8,0-1.8,0c-0.7,0.8-0.8,2.1-0.7,3.2c1.6,0.3,3.2,0.4,4.8,0.5L15.3,7z"/>
</g>
</svg>
