<?xml version="1.0" encoding="utf-8"?>
<!-- Generator: Adobe Illustrator 22.0.1, SVG Export Plug-In . SVG Version: 6.00 Build 0)  -->
<svg version="1.1" id="Capa_1" xmlns="http://www.w3.org/2000/svg" xmlns:xlink="http://www.w3.org/1999/xlink" x="0px" y="0px"
	 viewBox="0 0 20 20" style="enable-background:new 0 0 20 20;" xml:space="preserve">
<style type="text/css">
	.st0{fill:#E71618;}
</style>
<g>
	<path class="st0" d="M10.7,9.7c0,0,0.6,1.7,1.8,2.3c1,0.5,2.4,0.6,3.6-0.7c1.1-1.2,0.8-2.5,0.8-2.5l3-0.6c0,0,0.4,2.1-0.1,4.1
		c0,0-1.5,1.9-4,1.9c-2.6,0-4.8-1-5.4-4.4L10.7,9.7z"/>
	<path class="st0" d="M10.1,10c0,0,1.2-1.3,1.1-2.7C11.2,6.2,10.6,5,8.8,4.6C7.2,4.2,6.2,5.2,6.2,5.2l-2-2.3c0,0,1.6-1.4,3.6-2
		c0,0,2.4,0.3,3.7,2.5c1.3,2.2,1.5,4.6-1.1,6.9L10.1,10z"/>
	<path class="st0" d="M10.7,10.5c0,0-1.8-0.4-2.9,0.4c-1,0.6-1.7,1.7-1.2,3.5c0.5,1.6,1.8,1.9,1.8,1.9l-1,2.9c0,0-2.1-0.7-3.5-2.2
		c0,0-0.9-2.3,0.3-4.4c1.3-2.2,3.3-3.6,6.5-2.5L10.7,10.5z"/>
	<path class="st0" d="M17.5,4.3c0.3,0.6,0.9,2-0.5,3.8c-0.9,1.2-2.4,1.3-2.4,1.3s3.3-3.3-0.3-5.4l1.8-1C16.1,2.9,17.1,3.5,17.5,4.3z
		"/>
	<path class="st0" d="M1.9,6.9c0.4-0.6,1.3-1.7,3.5-1.4C7,5.7,7.8,7,7.8,7S3.3,5.8,3.2,9.9L1.5,8.8C1.5,8.8,1.5,7.6,1.9,6.9z"/>
	<polygon class="st0" points="3.2,9.9 1.5,8.8 1,9.3 0,10.4 1.8,11.4 	"/>
	<path class="st0" d="M12,19c-0.7,0-2.2-0.2-3-2.3C8.5,15.3,9.1,14,9.1,14s1.2,4.5,4.8,2.5l-0.1,2.1C13.9,18.5,12.9,19.1,12,19z"/>
	<polygon class="st0" points="14,16.4 13.9,18.5 14.5,18.6 16,19 16,16.9 	"/>
</g>
</svg>
