<?xml version="1.0" encoding="utf-8"?>
<!-- Generator: Adobe Illustrator 22.0.1, SVG Export Plug-In . SVG Version: 6.00 Build 0)  -->
<svg version="1.1" id="Capa_3" xmlns="http://www.w3.org/2000/svg" xmlns:xlink="http://www.w3.org/1999/xlink" x="0px" y="0px"
	 viewBox="0 0 20 20" style="enable-background:new 0 0 20 20;" xml:space="preserve">
<style type="text/css">
	.st0{fill:#FFBD41;}
	.st1{fill:#634795;}
	.st2{fill:#E34885;}
	.st3{fill:#4DC2E3;}
	.st4{fill:#DCDB3E;}
	.st5{fill:#E61F2E;}
</style>
<g>
	<path class="st0" d="M6.6,3.5c0.4-0.2,0.4-0.5,0-0.7L1.9,0.1c-0.4-0.2-0.6,0-0.6,0.4v5.4c0,0.4,0.3,0.6,0.6,0.4L6.6,3.5z"/>
	<path class="st1" d="M6.6,10.4c0.4-0.2,0.4-0.5,0-0.7L1.9,6.9c-0.4-0.2-0.6,0-0.6,0.4v5.4c0,0.4,0.3,0.6,0.6,0.4L6.6,10.4z"/>
	<path class="st2" d="M6.6,17.2c0.4-0.2,0.4-0.5,0-0.7l-4.6-2.7c-0.4-0.2-0.6,0-0.6,0.4v5.4c0,0.4,0.3,0.6,0.6,0.4L6.6,17.2z"/>
	<path class="st3" d="M7.2,9.2c0,0.4,0.3,0.6,0.6,0.4l4.6-2.7c0.4-0.2,0.4-0.5,0-0.7L7.9,3.5c-0.4-0.2-0.6,0-0.6,0.4V9.2z"/>
	<path class="st4" d="M7.2,16.1c0,0.4,0.3,0.6,0.6,0.4l4.6-2.7c0.4-0.2,0.4-0.5,0-0.7l-4.6-2.7c-0.4-0.2-0.6,0-0.6,0.4V16.1z"/>
	<path class="st5" d="M13.2,12.7c0,0.4,0.3,0.6,0.6,0.4l4.6-2.7c0.4-0.2,0.4-0.5,0-0.7l-4.6-2.7c-0.4-0.2-0.6,0-0.6,0.4V12.7z"/>
</g>
</svg>
