<?xml version="1.0" encoding="utf-8"?>
<!-- Generator: Adobe Illustrator 22.0.1, SVG Export Plug-In . SVG Version: 6.00 Build 0)  -->
<svg version="1.1" id="Capa_2" xmlns="http://www.w3.org/2000/svg" xmlns:xlink="http://www.w3.org/1999/xlink" x="0px" y="0px"
	 viewBox="0 0 20 20" style="enable-background:new 0 0 20 20;" xml:space="preserve">
<style type="text/css">
	.st0{fill:#FFC900;}
	.st1{fill:#48494B;}
	.st2{fill:#AAACAF;}
	.st3{fill:#86898B;}
	.st4{fill:#67696B;}
	.st5{fill:#373739;}
</style>
<g>
	<path class="st0" d="M19.1,12c0,2.7-1.2,5.1-3.2,6.7c-0.2,0.1-0.2,0.4,0,0.4c0.2,0.1,0.4-0.1,0.5-0.2c2.1-1.9,3.5-4.6,3.5-7.7
		C20,5.6,15.4,0.9,9.7,0.9c-4.9,0-8.3,3.2-9.6,6.2c-0.6,1.4,0.5,3,2,3c0.3-0.7,1.6-7,8.3-6.8C15.2,3.4,19.1,7.1,19.1,12"/>
	<path class="st1" d="M4.8,8.8c0-0.7,0.5-1.2,1.2-1.2c0.7,0,1.2,0.5,1.2,1.2C7.2,9.4,6.6,10,6,10C5.3,10,4.8,9.4,4.8,8.8"/>
	<path class="st2" d="M3.3,14c1.8,1.4,4.1,2.2,6.5,2.2c2.5,0,4.8-0.8,6.7-2.2c0,0,0.4-0.3,0.1-0.6c-0.2-0.2-0.6,0-0.8,0.1
		c-1.7,1.2-3.7,1.9-6,2c-2.4,0.1-4.7-0.6-6.5-1.9c0,0-0.2-0.2-0.2,0.1C3,13.8,3.3,14,3.3,14"/>
	<path class="st3" d="M14.1,12.8c-1.3,0.7-2.6,1.2-4.2,1.4c-2.4,0.3-4.8-0.2-6.7-1.3c0,0-0.2-0.1-0.2,0.1c0,0.1,0.3,0.3,0.3,0.3
		c1.9,1.2,4.3,1.8,6.7,1.6c1.8-0.1,3.4-0.7,4.8-1.6c0,0,0.2-0.1,0.5-0.3c0.2-0.1,0.2-0.4,0-0.6c-0.2-0.2-0.4,0-0.6,0
		C14.7,12.4,14.5,12.6,14.1,12.8"/>
	<path class="st4" d="M12.9,11.8c-0.9,0.5-1.8,0.8-2.8,1c-2.4,0.5-4.7,0.2-6.8-0.7c0,0-0.2-0.1-0.2,0.1c0,0.1,0.3,0.3,0.3,0.3
		c2,1,4.4,1.4,6.8,1c1.2-0.2,2.4-0.6,3.4-1.2c0,0,0.3-0.2,0.5-0.3c0.2-0.1,0.3-0.4,0-0.6c-0.2-0.2-0.5,0-0.6,0.1
		C13.4,11.5,13.1,11.7,12.9,11.8"/>
	<path class="st1" d="M11.6,10.8c-0.5,0.3-1,0.5-1.6,0.6c-2.3,0.7-4.6,0.6-6.7-0.1c0,0-0.2-0.1-0.2,0.1c0,0.1,0.3,0.3,0.3,0.3
		c2.1,0.8,4.4,1,6.8,0.4c0.8-0.2,1.5-0.5,2.1-0.8c0,0,0.2-0.1,0.4-0.2c0.1-0.1,0.3-0.3,0-0.5c-0.2-0.1-0.5-0.1-0.6,0
		C12.1,10.6,11.8,10.7,11.6,10.8"/>
	<path class="st5" d="M9.8,10.1c-2.2,0.9-4.4,1-6.6,0.5c0,0-0.2-0.1-0.2,0.1C3,10.9,3.4,11,3.4,11c2.2,0.7,4.3,0.6,6.6-0.2
		c0.3-0.1,0.7-0.3,1-0.4c0,0,0.3-0.2,0.4-0.2c0.1,0,0.4-0.3,0-0.5c-0.2-0.2-0.6,0-0.7,0.1C10.4,9.8,10,10,9.8,10.1"/>
</g>
</svg>
