<?xml version="1.0" encoding="utf-8"?>
<!-- Generator: Adobe Illustrator 22.0.1, SVG Export Plug-In . SVG Version: 6.00 Build 0)  -->
<svg version="1.1" id="Capa_1" xmlns="http://www.w3.org/2000/svg" xmlns:xlink="http://www.w3.org/1999/xlink" x="0px" y="0px"
	 viewBox="0 0 29.1 17.9" style="enable-background:new 0 0 29.1 17.9;" xml:space="preserve">
<style type="text/css">
	.st0{fill:#595959;stroke:#585858;}
	.st1{fill:#595959;}
</style>
<g>
	<path class="st0" d="M8.9,15.4c-0.1,0-0.1,0-0.2,0c-2.8-1.3-5.1-3.3-6.6-6C2,9.2,2,9,2.1,8.9c2.6-4.5,7.5-7.3,12.7-7.3
		C17,1.6,19,2,20.9,2.9c0.2,0.1,0.3,0.3,0.2,0.6c-0.1,0.2-0.4,0.3-0.6,0.2c-1.8-0.8-3.7-1.3-5.8-1.3C9.9,2.4,5.4,5,3,9.1
		c1.4,2.4,3.5,4.3,6.1,5.4c0.2,0.1,0.3,0.3,0.2,0.6C9.2,15.3,9.1,15.4,8.9,15.4"/>
	<path class="st0" d="M14.2,16c-1.4,0-1.9,0.1-3.2-0.3c-0.2-0.1-0.3-0.3-0.3-0.5c0.1-0.2,0.3-0.3,0.5-0.3c0.3,0.1,0.5,0.1,1,0.2
		c0.4,0.1,0.9,0.1,2,0.1c4.8,0,9.3-2.5,11.7-6.6c-1.1-1.8-1.9-2.7-3.8-3.8c-0.2-0.1-0.3-0.4-0.1-0.6C22.1,4,22.4,3.9,22.6,4
		c2,1.2,3,2.3,4.2,4.3c0.1,0.1,0.1,0.3,0,0.4C24.2,13.2,19.4,16,14.2,16"/>
	<path class="st0" d="M6.4,17.3c-0.1,0-0.2,0-0.2-0.1c-0.1-0.1-0.1-0.3,0-0.5L22.1,1.1c0.1-0.1,0.4-0.1,0.5,0s0.1,0.3,0,0.5
		L6.7,17.2C6.6,17.3,6.5,17.3,6.4,17.3"/>
	<path class="st1" d="M12.2,11.7c-0.1,0-0.2,0-0.3-0.1c-0.7-0.7-1.1-1.6-1.1-2.7c0-2.1,1.7-3.8,3.8-3.8c1,0,2,0.4,2.7,1.1
		c0.1,0.1,0.1,0.4,0,0.5s-0.4,0.1-0.5,0C16.2,6.3,15.4,6,14.6,6c-1.7,0-3.1,1.3-3.1,3c0,0.8,0.3,1.6,0.9,2.1c0.2,0.1,0.2,0.4,0,0.5
		C12.4,11.7,12.3,11.7,12.2,11.7"/>
	<path class="st1" d="M14.6,12.7c-0.3,0-0.5,0-0.8-0.1c-0.2,0-0.3-0.2-0.3-0.4s0.2-0.3,0.4-0.3s0.4,0.1,0.6,0.1c1.7,0,3.1-1.3,3.1-3
		c0-0.2,0-0.4-0.1-0.6c0-0.2,0.1-0.4,0.3-0.4c0.2,0,0.4,0.1,0.4,0.3c0.1,0.3,0.1,0.5,0.1,0.8C18.4,11,16.7,12.7,14.6,12.7"/>
</g>
</svg>
