<?xml version="1.0" encoding="utf-8"?>
<!-- Generator: Adobe Illustrator 22.0.1, SVG Export Plug-In . SVG Version: 6.00 Build 0)  -->
<svg version="1.1" id="Capa_2" xmlns="http://www.w3.org/2000/svg" xmlns:xlink="http://www.w3.org/1999/xlink" x="0px" y="0px"
	 viewBox="0 0 33.3 20" style="enable-background:new 0 0 33.3 20;" xml:space="preserve">
<style type="text/css">
	.st0{fill:#86898B;}
	.st1{fill:#FFCD00;}
</style>
<g>
	<rect x="2.2" y="8.9" class="st0" width="2.2" height="11.1"/>
	<rect x="28.9" y="8.9" class="st0" width="2.2" height="11.1"/>
	<polygon class="st1" points="16.6,0 33.3,6.7 0,6.7 	"/>
	<g>
		<path d="M11.7,17.3v-5.8H16v1h-3.1v1.3h2.9v1h-2.9v1.6h3.2v1H11.7z"/>
		<path d="M17.1,11.5h1.2v3.1c0,0.5,0,0.8,0,1c0.1,0.2,0.2,0.4,0.4,0.6c0.2,0.1,0.4,0.2,0.8,0.2c0.3,0,0.6-0.1,0.8-0.2
			s0.3-0.3,0.3-0.5c0-0.2,0.1-0.5,0.1-1v-3.2h1.2v3c0,0.7,0,1.2-0.1,1.5s-0.2,0.5-0.3,0.7c-0.2,0.2-0.4,0.4-0.7,0.5
			c-0.3,0.1-0.7,0.2-1.1,0.2c-0.6,0-1-0.1-1.3-0.2c-0.3-0.1-0.5-0.3-0.7-0.5c-0.2-0.2-0.3-0.4-0.3-0.6c-0.1-0.3-0.1-0.8-0.1-1.5
			V11.5z"/>
	</g>
</g>
</svg>
