<?xml version="1.0" encoding="utf-8"?>
<!-- Generator: Adobe Illustrator 25.2.1, SVG Export Plug-In . SVG Version: 6.00 Build 0)  -->
<svg version="1.1" id="Capa_1" xmlns="http://www.w3.org/2000/svg" xmlns:xlink="http://www.w3.org/1999/xlink" x="0px" y="0px"
	 viewBox="0 0 30 30" style="enable-background:new 0 0 30 30;" xml:space="preserve">
<style type="text/css">
	.st0{fill:#3399FF;}
	.st1{fill:#FFFFFF;}
</style>
<g id="Grupo_3201" transform="translate(-338 -505)">
	<ellipse id="Elipse_355" class="st0" cx="353" cy="520.1" rx="15" ry="14.1"/>
	<path id="Elipse_355_-_Contorno" class="st0" d="M353,507.6c-7.4,0-13.3,5.6-13.3,12.5s6,12.5,13.3,12.5s13.3-5.6,13.3-12.5
		C366.3,513.2,360.4,507.6,353,507.6 M353,506c8.3,0,15,6.3,15,14.1s-6.7,14.1-15,14.1s-15-6.3-15-14.1S344.7,506,353,506z"/>
	<g id="Grupo_3197" transform="translate(34.643 -132.157)">
		<path id="Trazado_171" class="st1" d="M319.7,645.5c0,0.6-0.5,1.1-1.2,1.1c-0.6,0-1.2-0.5-1.2-1.1s0.5-1.1,1.2-1.1l0,0
			C319.2,644.4,319.7,644.9,319.7,645.5z"/>
		<path id="Trazado_172" class="st1" d="M318.6,659.9c-0.5,0-0.9-0.4-0.9-0.8v-8.6h-1.2c-0.5,0-0.9-0.4-0.8-0.9
			c0-0.4,0.4-0.8,0.8-0.8h2.1c0.5,0,0.9,0.4,0.9,0.8v9.4C319.4,659.5,319.1,659.9,318.6,659.9L318.6,659.9z"/>
		<path id="Trazado_174" class="st1" d="M321.2,659.9h-5.3c-0.5,0-0.9-0.3-0.9-0.8s0.4-0.8,0.8-0.9h0.1h5.3c0.5,0,0.9,0.4,0.8,0.9
			C322,659.6,321.7,659.9,321.2,659.9z"/>
	</g>
</g>
</svg>
