<?xml version="1.0" encoding="utf-8"?>
<!-- Generator: Adobe Illustrator 22.0.1, SVG Export Plug-In . SVG Version: 6.00 Build 0)  -->
<svg version="1.1" id="Capa_1" xmlns="http://www.w3.org/2000/svg" xmlns:xlink="http://www.w3.org/1999/xlink" x="0px" y="0px"
	 viewBox="0 0 40 40" style="enable-background:new 0 0 40 40;" xml:space="preserve">
<style type="text/css">
	.st0{fill:#FFCD00;}
	.st1{fill:none;stroke:#464646;stroke-width:1.1;stroke-linecap:round;stroke-linejoin:round;}
</style>
<g>
	<g>
		<path class="st0" d="M0,34.6V5.4c0-0.4,0-0.7,0.1-1.1c0.1-0.3,0.2-0.7,0.3-1C0.5,3,0.7,2.7,0.9,2.4c0.2-0.3,0.4-0.6,0.7-0.8
			c0.3-0.3,0.5-0.5,0.8-0.7C2.7,0.7,3,0.5,3.3,0.4c0.3-0.1,0.7-0.2,1-0.3C4.7,0,5.1,0,5.4,0h29.2c0.4,0,0.7,0,1.1,0.1
			c0.3,0.1,0.7,0.2,1,0.3c0.3,0.1,0.6,0.3,0.9,0.5c0.3,0.2,0.6,0.4,0.8,0.7c0.3,0.3,0.5,0.5,0.7,0.8c0.2,0.3,0.4,0.6,0.5,0.9
			c0.1,0.3,0.2,0.7,0.3,1C40,4.7,40,5.1,40,5.4v29.2c0,0.4,0,0.7-0.1,1.1c-0.1,0.3-0.2,0.7-0.3,1c-0.1,0.3-0.3,0.6-0.5,0.9
			c-0.2,0.3-0.4,0.6-0.7,0.8c-0.3,0.3-0.5,0.5-0.8,0.7c-0.3,0.2-0.6,0.4-0.9,0.5c-0.3,0.1-0.7,0.2-1,0.3C35.3,40,34.9,40,34.6,40
			H5.4c-0.4,0-0.7,0-1.1-0.1c-0.3-0.1-0.7-0.2-1-0.3s-0.6-0.3-0.9-0.5c-0.3-0.2-0.6-0.4-0.8-0.7c-0.3-0.3-0.5-0.5-0.7-0.8
			c-0.2-0.3-0.4-0.6-0.5-0.9c-0.1-0.3-0.2-0.7-0.3-1C0,35.3,0,34.9,0,34.6z"/>
		<path class="st1" d="M21.8,18.1h8c0.7,0,1.3,0.6,1.3,1.3v2.5H8.9v-2.5c0-0.7,0.6-1.3,1.3-1.3h8"/>
		<path class="st1" d="M21.8,18.1v-6.2c0-0.9-0.8-1.6-1.8-1.6c-1,0-1.8,0.7-1.8,1.6v6.2"/>
		<path class="st1" d="M30.7,21.9c0.7,3,0.4,5.5-0.5,7.8H6.5c1.6-2.4,2.5-5,2.7-7.8"/>
	</g>
	<path class="st1" d="M12,25c-0.3,1.8-0.8,3.4-1.7,4.7"/>
	<path class="st1" d="M15.2,25c-0.3,1.8-0.8,3.4-1.7,4.7"/>
	<path class="st1" d="M18.5,25c-0.3,1.8-0.8,3.4-1.7,4.7"/>
	<path class="st1" d="M21.7,25c-0.3,1.8-0.8,3.4-1.7,4.7"/>
	<path class="st1" d="M25,25c-0.3,1.8-0.8,3.4-1.7,4.7"/>
	<path class="st1" d="M28.2,25c-0.3,1.8-0.8,3.4-1.7,4.7"/>
</g>
</svg>
