<?xml version="1.0" encoding="utf-8"?>
<!-- Generator: Adobe Illustrator 22.0.1, SVG Export Plug-In . SVG Version: 6.00 Build 0)  -->
<svg version="1.1" id="Capa_1" xmlns="http://www.w3.org/2000/svg" xmlns:xlink="http://www.w3.org/1999/xlink" x="0px" y="0px"
	 viewBox="0 0 36 25" style="enable-background:new 0 0 36 25;" xml:space="preserve">
<style type="text/css">
	.st0{fill:#5B5C5E;}
	.st1{fill:#2D2A26;}
	.st2{fill:#FFD520;}
	.st3{fill:#B9BABD;}
	.st4{fill:#989A9D;}
	.st5{fill:#7A7C7E;}
	.st6{fill:#5A5B5D;}
	.st7{fill:#48484A;}
</style>
<g id="Capa_3_1_">
	<g id="Layer_1_2_">
		<path class="st0" d="M15.6,22.9c0.5-0.1,0.9,0.2,1,0.7c0,0.1,0,0.2,0,0.4c-0.1,0.6-0.6,1-1.2,1h-0.7l0.3-2
			C14.9,22.9,15.6,22.9,15.6,22.9z M15.6,23.2h-0.4L15,24.6h0.3c0.4,0,0.8-0.3,0.9-0.7v0C16.3,23.5,16.1,23.2,15.6,23.2z"/>
		<path class="st0" d="M18.9,22.9l0,0.3h-1.1l-0.1,0.5h1v0.3h-1l-0.1,0.6h1.1l0,0.3h-1.4l0.3-2L18.9,22.9L18.9,22.9z"/>
		<path class="st0" d="M20.4,22.9c0.2,0,0.4,0.1,0.6,0.2l0,0.3c-0.2-0.1-0.4-0.2-0.5-0.1c-0.2,0-0.4,0.1-0.5,0.2
			c-0.1,0.4,1.1,0.3,1,1c-0.1,0.4-0.5,0.5-0.8,0.5c-0.2,0-0.5-0.1-0.7-0.2l0-0.3c0.2,0.1,0.4,0.2,0.6,0.2c0.3,0,0.5,0,0.5-0.2
			c0.1-0.4-1.1-0.3-1-1C19.7,23.1,20,22.9,20.4,22.9z"/>
		<path class="st0" d="M22.6,22.9c0.5-0.1,0.9,0.2,0.9,0.7c0,0.1,0,0.2,0,0.3c-0.1,0.6-0.6,1-1.2,1h-0.7l0.3-2H22.6z M22.6,23.2
			h-0.4L22,24.6h0.4c0.4,0,0.8-0.3,0.9-0.7v0C23.3,23.5,23.1,23.2,22.6,23.2L22.6,23.2L22.6,23.2z"/>
		<path class="st0" d="M25.9,22.9l0,0.3h-1l-0.1,0.5h1l0,0.3h-1l-0.1,0.6h1.1l0,0.3h-1.4l0.3-2L25.9,22.9L25.9,22.9z"/>
		<path class="st0" d="M28.5,23l-0.3,1.6h0.4l0,0.3h-1.1l0-0.3h0.4l0.2-1.3l-0.4,0.1l0-0.3l0.5-0.2L28.5,23L28.5,23z"/>
		<path class="st0" d="M30.2,23c0.5,0,0.8,0.4,0.7,1c0,0.5-0.5,1-1,1c-0.2,0-0.3,0-0.5-0.1l0-0.3c0.1,0.1,0.3,0.1,0.5,0.1
			c0.4,0,0.7-0.2,0.7-0.6c-0.2,0.1-0.4,0.1-0.6,0.1c-0.3,0-0.6-0.2-0.6-0.4c0,0,0-0.1,0-0.1C29.4,23.2,29.8,22.9,30.2,23z
			 M29.7,23.6c0,0.3,0.2,0.3,0.4,0.3c0.2,0,0.4-0.1,0.5-0.2c0-0.4-0.1-0.5-0.4-0.5C29.9,23.2,29.7,23.4,29.7,23.6L29.7,23.6z"/>
		<path class="st0" d="M32.6,23c0.6,0,0.8,0.4,0.7,1c0,0.5-0.5,1-1,1c-0.6,0-0.8-0.4-0.7-1C31.6,23.4,32.1,23,32.6,23z M32.6,23.2
			c-0.4,0-0.6,0.2-0.7,0.7c-0.1,0.4,0,0.7,0.4,0.7c0.4,0,0.6-0.2,0.7-0.7C33.1,23.5,33,23.2,32.6,23.2L32.6,23.2z"/>
		<path class="st0" d="M35,23.7c0.3,0,0.5,0.2,0.6,0.5c0,0,0,0.1,0,0.1c-0.1,0.4-0.4,0.6-0.8,0.6c-0.6,0-0.8-0.4-0.7-1
			c0-0.5,0.5-1,1-1c0.2,0,0.3,0,0.5,0.1l0,0.3c-0.1-0.1-0.3-0.1-0.5-0.1c-0.4,0-0.6,0.3-0.7,0.6C34.6,23.7,34.8,23.7,35,23.7z
			 M35.2,24.3c0-0.3-0.2-0.3-0.4-0.3c-0.2,0-0.4,0.1-0.5,0.2c0,0.4,0.1,0.5,0.4,0.5C35,24.7,35.2,24.6,35.2,24.3L35.2,24.3z"/>
		<path class="st0" d="M2.2,12.2c0.3,0,0.6,0.1,0.9,0.2L3,12.9c-0.2-0.1-0.5-0.2-0.8-0.2c-0.7,0-1.3,0.4-1.4,1.1
			c-0.1,0.5,0.2,1,0.6,1.1c0.1,0,0.2,0,0.4,0c0.2,0,0.4,0,0.5-0.1l0.2-1.2H3l-0.2,1.5c-0.3,0.1-0.7,0.2-1,0.2
			C1,15.5,0.3,15,0.3,14.2c0-0.2,0-0.4,0-0.5C0.4,12.9,1.3,12.2,2.2,12.2z"/>
		<path class="st0" d="M3.6,15.4l0.5-3.1h1.2c0.6,0,1.2,0.2,1,1c-0.1,0.4-0.4,0.8-0.9,0.9l0.8,1.2H5.7l-0.8-1.1H4.2L4,15.4L3.6,15.4
			L3.6,15.4z M4.4,13.8h0.8c0.4,0.1,0.7-0.2,0.8-0.5c0.1-0.4-0.2-0.5-0.6-0.5H4.6L4.4,13.8z"/>
		<path class="st0" d="M9.9,12.3l-0.3,1.9c-0.1,0.7-0.7,1.3-1.5,1.2c-0.7,0-1.3-0.3-1.2-1.2l0.3-1.9h0.5l-0.3,1.9
			C7.3,14.8,7.6,15,8.1,15c0.5,0.1,0.9-0.3,1-0.7c0,0,0,0,0,0l0.3-1.9L9.9,12.3L9.9,12.3z"/>
		<path class="st0" d="M11.9,12.3c0.6,0,1.3,0.2,1.1,1c-0.1,0.8-0.7,1-1.5,1h-0.6l-0.2,1h-0.5l0.5-3.1L11.9,12.3z M11.9,12.8h-0.7
			L11,13.9h0.6c0.5,0,0.8-0.1,0.9-0.6C12.6,12.8,12.2,12.8,11.9,12.8L11.9,12.8L11.9,12.8z"/>
		<path class="st0" d="M14.6,15.4c-0.8,0-1.4-0.5-1.4-1.3c0-0.1,0-0.2,0-0.3c0.2-0.9,0.9-1.6,1.9-1.5c0.8,0,1.4,0.5,1.4,1.3
			c0,0.1,0,0.2,0,0.4C16.4,14.8,15.6,15.5,14.6,15.4z M14.6,15c0.7,0,1.3-0.4,1.3-1.1c0.1-0.4-0.2-1-0.6-1.1c-0.1,0-0.2,0-0.3,0
			c-0.7,0-1.3,0.4-1.3,1.1c-0.1,0.4,0.2,1,0.6,1.1C14.5,15,14.6,15,14.6,15L14.6,15z"/>
		<path class="st1" d="M2.6,16.5c0.6,0,1.2,0.1,1.7,0.4l-0.2,1.2c-0.4-0.3-0.9-0.4-1.5-0.4c-0.5,0-0.8,0.1-0.8,0.4
			c0,0.7,2.6,0.5,2.3,2.3C4,21.5,3.1,21.8,2,21.8c-0.7,0-1.3-0.1-1.9-0.5l0.2-1.2c0.5,0.4,1.1,0.5,1.7,0.5c0.5,0,0.9-0.1,0.9-0.4
			C3,19.5,0.3,19.7,0.6,18C0.7,17.1,1.7,16.5,2.6,16.5z"/>
		<path class="st1" d="M8,21.7l-0.2-0.8H5.7l-0.4,0.8H3.8l2.8-5h1.5l1.2,5.1H8z M6.2,19.8h1.3l-0.3-1.4c0-0.2,0-0.4,0-0.5
			c-0.1,0.2-0.1,0.4-0.2,0.5L6.2,19.8z"/>
		<path class="st1" d="M11.2,16.7l-0.6,3.8h2.4l-0.2,1.2H9l0.8-5L11.2,16.7z"/>
		<path class="st1" d="M15.3,16.7l-0.8,5h-1.4l0.8-5H15.3z"/>
		<path class="st1" d="M15.1,21.7l0.8-5H17l1.7,2.9c0-0.3,0-0.5,0.1-0.8l0.3-2.1h1.4l-0.8,5h-1.2l-1.7-2.8c0,0.3,0,0.5-0.1,0.8
			l-0.4,2.1L15.1,21.7z"/>
		<path class="st1" d="M23.6,21.7l-0.2-0.8h-2.1l-0.4,0.8h-1.4l2.8-5h1.5l1.2,5H23.6z M21.8,19.8h1.3l-0.3-1.4c0-0.2,0-0.4,0-0.5
			c-0.1,0.2-0.1,0.4-0.2,0.5L21.8,19.8z"/>
		<path class="st1" d="M27.6,16.5c0.6,0,1.2,0.1,1.7,0.4l-0.2,1.2c-0.4-0.3-0.9-0.4-1.5-0.4c-0.5,0-0.8,0.1-0.8,0.4
			c0,0.7,2.6,0.5,2.3,2.3c-0.2,1.1-1.1,1.5-2.2,1.5c-0.7,0-1.3-0.1-1.9-0.5l0.2-1.2c0.5,0.4,1.1,0.5,1.7,0.5c0.5,0,0.9-0.1,0.9-0.4
			c0.1-0.8-2.6-0.6-2.3-2.4C25.7,17.1,26.7,16.5,27.6,16.5z"/>
		<path class="st2" d="M35,11.6c0,2.7-1.2,5.3-3.4,7c-0.2,0.1-0.2,0.4,0,0.4s0.4-0.1,0.5-0.2c2.4-2,3.7-4.9,3.8-8
			C35.9,4.9,31,0,24.9,0c-4.4,0-8.4,2.5-10.1,6.5c-0.4,1.2,0.2,2.5,1.4,2.9c0.2,0.1,0.5,0.1,0.7,0.1c0.3-0.7,1.7-7.3,8.9-7.1
			C30.9,2.5,35,6.5,35,11.6"/>
		<path class="st0" d="M19.7,8.2C19.7,7.6,20.2,7,21,7c0.7,0,1.3,0.5,1.3,1.3c0,0.7-0.5,1.3-1.3,1.3l0,0C20.3,9.5,19.7,8.9,19.7,8.2
			"/>
		<path class="st3" d="M18,13.7c2,1.5,4.4,2.3,6.9,2.3c2.6,0,5.1-0.8,7.1-2.4c0,0,0.5-0.3,0.1-0.6c-0.4-0.3-0.6,0-0.8,0.1
			c-1.9,1.3-4.1,2-6.4,2.1c-2.5,0.1-4.9-0.6-7-2c0,0-0.2-0.2-0.3,0C17.7,13.6,18,13.7,18,13.7"/>
		<path class="st4" d="M29.7,12.4c-1.4,0.8-2.9,1.3-4.4,1.5c-2.5,0.3-5-0.2-7.2-1.4c0,0-0.2-0.1-0.3,0.1c0,0.2,0.3,0.3,0.3,0.3
			c2.1,1.3,4.7,1.9,7.2,1.7c1.8-0.1,3.5-0.7,5.1-1.6c0.2-0.1,0.4-0.2,0.5-0.4c0.2-0.1,0.2-0.4,0.1-0.5c0,0,0,0-0.1-0.1
			c-0.2-0.2-0.4,0-0.6,0C30.2,12,30.1,12.2,29.7,12.4"/>
		<path class="st5" d="M28.3,11.4c-1,0.5-2,0.9-3,1.1c-2.4,0.5-5,0.2-7.3-0.8c0,0-0.2-0.1-0.2,0.1c0,0.2,0.3,0.3,0.3,0.3
			c2.2,1.1,4.8,1.5,7.3,1.1c1.3-0.2,2.5-0.6,3.7-1.3c0,0,0.3-0.1,0.5-0.3c0.2-0.1,0.2-0.3,0.2-0.4c0-0.1-0.1-0.1-0.2-0.1
			c-0.2-0.2-0.5,0-0.6,0.1C28.8,11.2,28.5,11.3,28.3,11.4"/>
		<path class="st6" d="M26.9,10.4c-0.5,0.3-1.1,0.5-1.7,0.7c-2.4,0.7-4.9,0.7-7.2-0.1c0,0-0.2-0.1-0.2,0.1s0.3,0.3,0.3,0.3
			c2.3,0.9,4.8,1,7.2,0.4c0.8-0.2,1.6-0.5,2.3-0.8l0.5-0.3c0.2-0.1,0.2-0.3,0.1-0.4c0,0-0.1-0.1-0.1-0.1c-0.2-0.1-0.4-0.1-0.6,0
			C27.4,10.1,27.1,10.3,26.9,10.4"/>
		<path class="st7" d="M25,9.6c-2.2,0.9-4.7,1.1-7,0.5c0,0-0.2-0.1-0.2,0.1c0,0.2,0.4,0.3,0.4,0.3c2.3,0.7,4.8,0.6,7-0.2
			c0.4-0.1,0.7-0.3,1-0.4l0.4-0.2c0.2-0.1,0.2-0.3,0.2-0.4c0-0.1-0.1-0.1-0.1-0.1c-0.3-0.2-0.6,0-0.8,0.1C25.6,9.3,25.2,9.5,25,9.6"
			/>
	</g>
</g>
</svg>
