<?xml version="1.0" encoding="iso-8859-1"?>
<!-- Generator: Adobe Illustrator 22.1.0, SVG Export Plug-In . SVG Version: 6.00 Build 0)  -->
<svg version="1.1" xmlns="http://www.w3.org/2000/svg" xmlns:xlink="http://www.w3.org/1999/xlink" x="0px" y="0px"
	 viewBox="0 0 100 100" style="enable-background:new 0 0 100 100;" xml:space="preserve">
<g id="icoBuscar">
	<g>
		<path style="fill:#575757;" d="M44.167,12.083C28.071,12.083,15,25.155,15,41.25s13.071,29.167,29.167,29.167
			S73.333,57.345,73.333,41.25S60.262,12.083,44.167,12.083z M74.218,68.885l20.74,20.74c2.278,2.278,2.278,5.972,0,8.25
			c-2.278,2.278-5.972,2.278-8.25,0L65.128,76.294c-6.129,3.676-13.3,5.79-20.961,5.79c-22.539,0-40.833-18.295-40.833-40.833
			S21.628,0.417,44.167,0.417S85,18.711,85,41.25C85,51.905,80.911,61.612,74.218,68.885z"/>
	</g>
</g>
<g id="Capa_1">
</g>
</svg>
