<?xml version="1.0" encoding="utf-8"?>
<!-- Generator: Adobe Illustrator 22.0.1, SVG Export Plug-In . SVG Version: 6.00 Build 0)  -->
<svg version="1.1" id="Capa_1" xmlns="http://www.w3.org/2000/svg" xmlns:xlink="http://www.w3.org/1999/xlink" x="0px" y="0px"
	 viewBox="0 0 45.7 30.4" style="enable-background:new 0 0 45.7 30.4;" xml:space="preserve">
<style type="text/css">
	.st0{fill:#FFCD00;}
</style>
<g id="touch" transform="translate(45.695) rotate(90)">
	<g id="Grupo_2578" transform="translate(11.715 38.407)">
		<g id="Grupo_2577">
			<path id="Trazado_1981" class="st0" d="M0.9,7.3C0.4,7.3,0,6.9,0,6.4V0.9C0,0.4,0.4,0,0.9,0c0.5,0,0.8,0.4,0.9,0.9v5.5
				C1.8,6.9,1.4,7.3,0.9,7.3z"/>
		</g>
	</g>
	<g id="Grupo_2580" transform="translate(17.925 32.195)">
		<g id="Grupo_2579">
			<path id="Trazado_1982" class="st0" d="M6.4,1.8H0.9C0.4,1.8,0,1.4,0,0.9S0.4,0,0.9,0h5.5c0.5,0,0.9,0.4,0.9,0.9S6.9,1.8,6.4,1.8
				z"/>
		</g>
	</g>
	<g id="Grupo_2582" transform="translate(0 32.197)">
		<g id="Grupo_2581">
			<path id="Trazado_1983" class="st0" d="M6.4,1.8H0.9C0.4,1.8,0,1.4,0,0.9S0.4,0,0.9,0h5.5c0.5,0,0.9,0.4,0.9,0.9S6.9,1.8,6.4,1.8
				z"/>
		</g>
	</g>
	<g id="Grupo_2584" transform="translate(4.07 37.243)">
		<g id="Grupo_2583">
			<path id="Trazado_1984" class="st0" d="M4.1,1.5L1.5,4.1c-0.3,0.4-0.9,0.4-1.3,0s-0.4-0.9,0-1.3c0,0,0,0,0,0l2.6-2.6
				c0.3-0.4,0.9-0.4,1.3,0S4.5,1.1,4.1,1.5C4.1,1.5,4.1,1.5,4.1,1.5z"/>
		</g>
	</g>
	<g id="Grupo_2586" transform="translate(16.761 37.241)">
		<g id="Grupo_2585">
			<path id="Trazado_1985" class="st0" d="M4.1,4.1c-0.3,0.3-0.9,0.3-1.3,0L0.3,1.5c-0.3-0.4-0.3-0.9,0-1.3c0.3-0.3,0.9-0.3,1.2,0
				l2.6,2.6C4.5,3.2,4.5,3.8,4.1,4.1z"/>
		</g>
	</g>
	<g id="Grupo_2588" transform="translate(9.306 9.706)">
		<g id="Grupo_2587">
			<path id="Trazado_1986" class="st0" d="M17.8,15.7c-0.6,0-1.2-0.2-1.7-0.4C15.6,17,13.8,18,12,17.4c-0.6-0.2-1.1-0.5-1.5-0.9
				c-1,1.1-2.6,1.4-3.9,0.7v6.2c0,1.8-1.5,3.3-3.3,3.3S0,25.2,0,23.4v-4.7c0-0.5,0.4-0.9,0.9-0.9s0.9,0.4,0.9,0.9l0,0v4.7
				c0,0.8,0.7,1.5,1.5,1.5s1.5-0.7,1.5-1.5l0,0V8.4c0-0.5,0.4-0.9,0.9-0.9s0.9,0.4,0.9,0.9l0,0v5.8c0,0.8,0.7,1.5,1.5,1.5
				s1.5-0.7,1.5-1.5l0,0V8.4c0-0.5,0.4-0.9,0.9-0.9c0.5,0,0.8,0.4,0.9,0.9v5.8c0,0.8,0.7,1.5,1.5,1.5s1.5-0.7,1.5-1.5l0,0V8.4
				c0-0.5,0.4-0.9,0.9-0.9c0.5,0,0.8,0.4,0.9,0.9v3.9c0,0.8,0.7,1.5,1.5,1.5s1.5-0.7,1.5-1.5V3c0-0.7-0.1-1.3-0.2-2
				c-0.1-0.5,0.2-0.9,0.7-1c0,0,0,0,0,0c0.1,0,0.1,0,0.2,0c0.4,0,0.8,0.3,0.9,0.7C21,1.5,21.1,2.3,21.1,3v9.3
				C21.1,14.2,19.6,15.7,17.8,15.7z"/>
		</g>
	</g>
	<g id="Grupo_2590" transform="translate(1.712)">
		<g id="Grupo_2589">
			<path id="Trazado_1987" class="st0" d="M24.6,4.7c-0.3,0.4-0.9,0.4-1.3,0c0,0,0,0,0,0C19,0.6,12,0.8,7.9,5.3C7.2,6.1,6.5,7,6.1,8
				l-4.1,8.5c-0.4,0.8-0.1,1.8,0.8,2.2c0.8,0.4,1.7,0.1,2.1-0.6l2.9-4.8C8,12.9,8.5,12.7,8.9,13c0.3,0.2,0.4,0.5,0.4,0.8v8.7
				c0,0.5-0.4,0.9-0.9,0.9S7.6,23,7.6,22.5v-5.6L6.3,19c-1,1.6-3.1,2.1-4.7,1.1c-1.5-0.9-2-2.8-1.3-4.4l4.1-8.5
				c3.1-6.3,10.7-9,17-5.9c1.2,0.6,2.2,1.3,3.1,2.2C25,3.8,25,4.3,24.6,4.7C24.7,4.7,24.7,4.7,24.6,4.7z"/>
		</g>
	</g>
	<g id="Grupo_2592" transform="translate(27.147 6.188)">
		<g id="Grupo_2591">
			<path id="Trazado_1988" class="st0" d="M1.5,1.5c-0.3,0.3-0.9,0.3-1.3,0c0,0,0,0,0,0c-0.3-0.3-0.3-0.9,0-1.3c0,0,0,0,0,0
				c0.3-0.3,0.9-0.3,1.3,0c0.2,0.2,0.3,0.4,0.3,0.6C1.8,1.1,1.7,1.4,1.5,1.5z"/>
		</g>
	</g>
	<g id="Grupo_2594" transform="translate(9.306 24.454)">
		<g id="Grupo_2593">
			<path id="Trazado_1989" class="st0" d="M1.5,1.5c-0.3,0.3-0.9,0.3-1.3,0c0,0,0,0,0,0c-0.3-0.3-0.3-0.9,0-1.3c0,0,0,0,0,0
				c0.3-0.3,0.9-0.3,1.3,0c0,0,0,0,0,0C1.9,0.6,1.9,1.2,1.5,1.5C1.5,1.5,1.5,1.5,1.5,1.5z"/>
		</g>
	</g>
</g>
</svg>
