<?xml version="1.0" encoding="utf-8"?>
<!-- Generator: Adobe Illustrator 22.0.1, SVG Export Plug-In . SVG Version: 6.00 Build 0)  -->
<svg version="1.1" id="Capa_1" xmlns="http://www.w3.org/2000/svg" xmlns:xlink="http://www.w3.org/1999/xlink" x="0px" y="0px"
	 viewBox="0 0 45.7 30.4" style="enable-background:new 0 0 45.7 30.4;" xml:space="preserve">
<style type="text/css">
	.st0{fill:#FFCD00;}
</style>
<g id="touch" transform="translate(45.695 -85.867) rotate(90)">
	<g id="Grupo_2578" transform="translate(97.582)">
		<g id="Grupo_2577">
			<path id="Trazado_1981" class="st0" d="M0.9,0C0.4,0,0,0.4,0,0.9c0,0,0,0,0,0v5.5c0,0.5,0.4,0.9,0.9,0.9c0.5,0,0.8-0.4,0.9-0.9
				V0.9C1.8,0.4,1.4,0,0.9,0z"/>
		</g>
	</g>
	<g id="Grupo_2580" transform="translate(103.792 11.715)">
		<g id="Grupo_2579">
			<path id="Trazado_1982" class="st0" d="M6.4,0H0.9C0.4,0,0,0.4,0,0.9s0.4,0.9,0.9,0.9h5.5c0.5,0,0.9-0.4,0.9-0.9S6.9,0,6.4,0z"/>
		</g>
	</g>
	<g id="Grupo_2582" transform="translate(85.867 11.713)">
		<g id="Grupo_2581">
			<path id="Trazado_1983" class="st0" d="M6.4,0H0.9C0.4,0,0,0.4,0,0.9s0.4,0.9,0.9,0.9h5.5c0.5,0,0.9-0.4,0.9-0.9S6.9,0,6.4,0z"/>
		</g>
	</g>
	<g id="Grupo_2584" transform="translate(89.937 4.069)">
		<g id="Grupo_2583">
			<path id="Trazado_1984" class="st0" d="M4.1,2.9L1.5,0.3c-0.3-0.4-0.9-0.4-1.3,0s-0.4,0.9,0,1.3c0,0,0,0,0,0l2.6,2.6
				c0.4,0.3,0.9,0.3,1.3,0C4.4,3.7,4.4,3.2,4.1,2.9z"/>
		</g>
	</g>
	<g id="Grupo_2586" transform="translate(102.628 4.07)">
		<g id="Grupo_2585">
			<path id="Trazado_1985" class="st0" d="M4.1,0.3c-0.3-0.3-0.9-0.3-1.3,0L0.3,2.9c-0.3,0.4-0.3,0.9,0,1.3c0.3,0.3,0.9,0.3,1.2,0
				l2.6-2.6C4.5,1.2,4.5,0.6,4.1,0.3z"/>
		</g>
	</g>
	<g id="Grupo_2588" transform="translate(95.173 9.304)">
		<g id="Grupo_2587">
			<path id="Trazado_1986" class="st0" d="M17.8,11c-0.6,0-1.2,0.2-1.7,0.4c-0.5-1.7-2.4-2.7-4.1-2.2c-0.6,0.2-1.1,0.5-1.5,0.9
				c-1-1.1-2.6-1.4-3.9-0.7V3.3C6.6,1.5,5.1,0,3.3,0S0,1.5,0,3.3l0,0V8c0,0.5,0.4,0.9,0.9,0.9S1.8,8.5,1.8,8V3.3
				c0-0.8,0.7-1.5,1.5-1.5c0.8,0,1.5,0.7,1.5,1.5v14.9c0,0.5,0.4,0.9,0.9,0.9s0.9-0.4,0.9-0.9v-5.8c0-0.8,0.7-1.5,1.5-1.5
				c0.8,0,1.5,0.7,1.5,1.5v5.8c0,0.5,0.4,0.9,0.9,0.9c0.5,0,0.8-0.4,0.9-0.9v-5.8c0-0.8,0.7-1.5,1.5-1.5c0.8,0,1.5,0.7,1.5,1.5v5.8
				c0,0.5,0.4,0.9,0.9,0.9c0.5,0,0.8-0.4,0.9-0.9v-3.9c0-0.8,0.7-1.5,1.5-1.5s1.5,0.7,1.5,1.5c0,0,0,0,0,0v9.3c0,0.7-0.1,1.3-0.2,2
				c-0.1,0.5,0.2,0.9,0.7,1c0,0,0,0,0,0c0.1,0,0.1,0,0.2,0c0.4,0,0.8-0.3,0.9-0.7c0.1-0.8,0.2-1.5,0.2-2.3v-9.3
				C21.1,12.5,19.6,11,17.8,11z"/>
		</g>
	</g>
	<g id="Grupo_2590" transform="translate(87.579 22.312)">
		<g id="Grupo_2589">
			<path id="Trazado_1987" class="st0" d="M24.7,18.7c-0.3-0.4-0.9-0.4-1.3,0c0,0,0,0,0,0C19,22.8,12,22.5,7.9,18.1
				c-0.7-0.8-1.4-1.7-1.9-2.7L1.9,6.9C1.6,6.1,1.9,5.1,2.7,4.7c0.8-0.4,1.7-0.1,2.1,0.6l2.9,4.8C8,10.5,8.5,10.7,9,10.4
				c0.3-0.2,0.4-0.5,0.4-0.8V0.9C9.4,0.4,9,0,8.5,0S7.6,0.4,7.6,0.9v5.6L6.3,4.4c-1-1.6-3.1-2.1-4.7-1.1c-1.5,0.9-2,2.8-1.3,4.4
				l4.1,8.5c3.1,6.3,10.7,9,17,5.9c1.2-0.6,2.2-1.3,3.1-2.2C25,19.6,25,19.1,24.7,18.7z"/>
		</g>
	</g>
	<g id="Grupo_2592" transform="translate(113.014 37.723)">
		<g id="Grupo_2591">
			<path id="Trazado_1988" class="st0" d="M1.5,0.3c-0.3-0.3-0.9-0.3-1.3,0s-0.3,0.9,0,1.3s0.9,0.3,1.3,0c0.2-0.2,0.3-0.4,0.3-0.6
				C1.8,0.7,1.7,0.4,1.5,0.3z"/>
		</g>
	</g>
	<g id="Grupo_2594" transform="translate(95.173 19.456)">
		<g id="Grupo_2593">
			<path id="Trazado_1989" class="st0" d="M1.5,0.3c-0.3-0.3-0.9-0.3-1.3,0s-0.3,0.9,0,1.3s0.9,0.3,1.3,0c0.2-0.2,0.3-0.4,0.3-0.6
				C1.8,0.7,1.7,0.4,1.5,0.3z"/>
		</g>
	</g>
</g>
</svg>
