<?xml version="1.0" encoding="utf-8"?>
<!-- Generator: Adobe Illustrator 22.0.1, SVG Export Plug-In . SVG Version: 6.00 Build 0)  -->
<svg version="1.1" id="Capa_3" xmlns="http://www.w3.org/2000/svg" xmlns:xlink="http://www.w3.org/1999/xlink" x="0px" y="0px"
	 viewBox="0 0 20 20" style="enable-background:new 0 0 20 20;" xml:space="preserve">
<style type="text/css">
	.st0{fill:none;stroke:#464646;stroke-width:0.5;stroke-linecap:round;stroke-linejoin:round;}
</style>
<g id="Capa_2_3_">
	<g id="Capa_1-2_1_">
		<polyline class="st0" points="5.8,8.5 8.4,10 5.8,11.6 5.8,10.5 		"/>
		<line class="st0" x1="3.3" y1="10.5" x2="5.8" y2="10.5"/>
		<line class="st0" x1="5.8" y1="9.4" x2="5.8" y2="8.5"/>
		<polyline class="st0" points="10,6 12.5,7.5 10,9.1 10,8 		"/>
		<line class="st0" x1="7.5" y1="8" x2="10" y2="8"/>
		<line class="st0" x1="10" y1="6.9" x2="10" y2="6"/>
		<polyline class="st0" points="10,11 12.5,12.5 10,14.1 10,13 		"/>
		<line class="st0" x1="7.5" y1="13" x2="10" y2="13"/>
		<line class="st0" x1="10" y1="11.9" x2="10" y2="11"/>
		<polyline class="st0" points="14.2,13.6 16.7,15.2 14.2,16.7 14.2,15.6 		"/>
		<line class="st0" x1="11.6" y1="15.6" x2="14.2" y2="15.6"/>
		<line class="st0" x1="14.2" y1="14.5" x2="14.2" y2="13.6"/>
		<polyline class="st0" points="14.2,8.5 16.7,10 14.2,11.6 14.2,10.5 		"/>
		<line class="st0" x1="11.6" y1="10.5" x2="14.2" y2="10.5"/>
		<line class="st0" x1="14.2" y1="9.4" x2="14.2" y2="8.5"/>
		<polyline class="st0" points="14.2,3.4 16.7,4.9 14.2,6.4 14.2,5.3 		"/>
		<line class="st0" x1="11.6" y1="5.3" x2="14.2" y2="5.3"/>
		<line class="st0" x1="14.2" y1="4.3" x2="14.2" y2="3.4"/>
	</g>
</g>
</svg>
