<?xml version="1.0" encoding="utf-8"?>
<!-- Generator: Adobe Illustrator 22.0.1, SVG Export Plug-In . SVG Version: 6.00 Build 0)  -->
<svg version="1.1" id="Capa_3" xmlns="http://www.w3.org/2000/svg" xmlns:xlink="http://www.w3.org/1999/xlink" x="0px" y="0px"
	 viewBox="0 0 20 20" style="enable-background:new 0 0 20 20;" xml:space="preserve">
<style type="text/css">
	.st0{enable-background:new    ;}
	.st1{clip-path:url(#SVGID_2_);fill:#464646;}
	.st2{clip-path:url(#SVGID_2_);fill:none;stroke:#464646;stroke-width:0.5;}
</style>
<g class="st0">
	<g>
		<defs>
			<rect id="SVGID_1_" x="3.1" y="3.3" width="13.9" height="13.4"/>
		</defs>
		<clipPath id="SVGID_2_">
			<use xlink:href="#SVGID_1_"  style="overflow:visible;"/>
		</clipPath>
		<path class="st1" d="M5.7,13.7c-0.2,0.2-0.2,0.5,0,0.8c0.2,0.2,0.5,0.2,0.8,0c0.2-0.2,0.2-0.5,0-0.8C6.2,13.5,5.9,13.5,5.7,13.7"
			/>
		<path class="st1" d="M15.3,15.5c-0.7,0.7-1.9,0.8-2.6,0.1c-0.1-0.1-0.2-0.2-0.2-0.3c0,0,0,0,0-0.1c0,0-0.1-0.1-0.1-0.1l-2-2.8
			l1.8-1.8l2.9,2c0,0,0,0,0,0c0.1,0.1,0.2,0.1,0.3,0.2C16.2,13.6,16.1,14.8,15.3,15.5 M7,15.2c-0.6,0.6-1.4,0.6-2,0l0,0
			c-0.3-0.3-0.4-0.6-0.4-1s0.1-0.7,0.4-1l5.4-5.4c0.1-0.1,0.1-0.2,0.1-0.2c-0.2-1,0.1-2.1,0.8-2.8c0.6-0.6,1.3-0.9,2.1-0.9
			c0.4,0,0.7,0.1,1.1,0.2l-1.8,1.8c0,0-0.1,0.1-0.1,0.2c0,0.1,0,0.1,0.1,0.2L14,7.5c0.1,0.1,0.3,0.1,0.4,0l1.8-1.8
			c0.4,1.1,0.2,2.4-0.7,3.2c-0.7,0.7-1.8,1-2.8,0.8c-0.1,0-0.2,0-0.2,0.1L7,15.2z M5.9,7C5.8,7,5.8,7,5.7,7L4.8,6.8L3.7,5.7l1.8-1.8
			L6.5,5l0.2,1c0,0.1,0,0.1,0.1,0.1L9,8.4L8.1,9.3L5.9,7z M15.5,12.3l-2.9-2l0.1-0.1c1.2,0.2,2.3-0.1,3.2-1c1.1-1.1,1.3-2.8,0.6-4.1
			c0-0.1-0.1-0.1-0.2-0.1c-0.1,0-0.2,0-0.2,0.1L14.1,7l-1-1L15,4.1c0.1-0.1,0.1-0.1,0.1-0.2c0-0.1-0.1-0.1-0.1-0.2
			c-1.4-0.7-3-0.5-4.1,0.6c-0.8,0.8-1.2,2-1,3.2L9.4,8L7.2,5.8L7,4.8C7,4.8,7,4.7,7,4.7L5.7,3.4c-0.1-0.1-0.3-0.1-0.4,0L3.1,5.6
			C3,5.7,3,5.8,3.1,5.9l1.3,1.3c0,0,0.1,0.1,0.1,0.1l0.9,0.1l2.2,2.2l-3.2,3.2C4.2,13.2,4,13.7,4,14.2s0.2,1,0.6,1.4l0,0
			C5,15.9,5.5,16.1,6,16.1c0.5,0,1-0.2,1.4-0.6l2.7-2.7l2,2.8c0,0,0,0,0,0c0,0,0.1,0.1,0.1,0.1c0.1,0.1,0.1,0.2,0.2,0.3
			c0.9,0.9,2.3,0.8,3.3-0.1c0.9-0.9,1-2.4,0.1-3.3C15.7,12.5,15.6,12.4,15.5,12.3"/>
		<path class="st2" d="M15.3,15.5c-0.7,0.7-1.9,0.8-2.6,0.1c-0.1-0.1-0.2-0.2-0.2-0.3c0,0,0,0,0-0.1c0,0-0.1-0.1-0.1-0.1l-2-2.8
			l1.8-1.8l2.9,2c0,0,0,0,0,0c0.1,0.1,0.2,0.1,0.3,0.2C16.2,13.6,16.1,14.8,15.3,15.5 M7,15.2c-0.6,0.6-1.4,0.6-2,0l0,0
			c-0.3-0.3-0.4-0.6-0.4-1s0.1-0.7,0.4-1l5.4-5.4c0.1-0.1,0.1-0.2,0.1-0.2c-0.2-1,0.1-2.1,0.8-2.8c0.6-0.6,1.3-0.9,2.1-0.9
			c0.4,0,0.7,0.1,1.1,0.2l-1.8,1.8c0,0-0.1,0.1-0.1,0.2c0,0.1,0,0.1,0.1,0.2L14,7.5c0.1,0.1,0.3,0.1,0.4,0l1.8-1.8
			c0.4,1.1,0.2,2.4-0.7,3.2c-0.7,0.7-1.8,1-2.8,0.8c-0.1,0-0.2,0-0.2,0.1L7,15.2z M5.9,7C5.8,7,5.8,7,5.7,7L4.8,6.8L3.7,5.7l1.8-1.8
			L6.5,5l0.2,1c0,0.1,0,0.1,0.1,0.1L9,8.4L8.1,9.3L5.9,7z M15.5,12.3l-2.9-2l0.1-0.1c1.2,0.2,2.3-0.1,3.2-1c1.1-1.1,1.3-2.8,0.6-4.1
			c0-0.1-0.1-0.1-0.2-0.1c-0.1,0-0.2,0-0.2,0.1L14.1,7l-1-1L15,4.1c0.1-0.1,0.1-0.1,0.1-0.2c0-0.1-0.1-0.1-0.1-0.2
			c-1.4-0.7-3-0.5-4.1,0.6c-0.8,0.8-1.2,2-1,3.2L9.4,8L7.2,5.8L7,4.8C7,4.8,7,4.7,7,4.7L5.7,3.4c-0.1-0.1-0.3-0.1-0.4,0L3.1,5.6
			C3,5.7,3,5.8,3.1,5.9l1.3,1.3c0,0,0.1,0.1,0.1,0.1l0.9,0.1l2.2,2.2l-3.2,3.2C4.2,13.2,4,13.7,4,14.2s0.2,1,0.6,1.4l0,0
			C5,15.9,5.5,16.1,6,16.1c0.5,0,1-0.2,1.4-0.6l2.7-2.7l2,2.8c0,0,0,0,0,0c0,0,0.1,0.1,0.1,0.1c0.1,0.1,0.1,0.2,0.2,0.3
			c0.9,0.9,2.3,0.8,3.3-0.1c0.9-0.9,1-2.4,0.1-3.3C15.7,12.5,15.6,12.4,15.5,12.3"/>
	</g>
</g>
</svg>
