<?xml version="1.0" encoding="utf-8"?>
<!-- Generator: Adobe Illustrator 22.0.1, SVG Export Plug-In . SVG Version: 6.00 Build 0)  -->
<svg version="1.1" id="Capa_3" xmlns="http://www.w3.org/2000/svg" xmlns:xlink="http://www.w3.org/1999/xlink" x="0px" y="0px"
	 viewBox="0 0 20 20" style="enable-background:new 0 0 20 20;" xml:space="preserve">
<style type="text/css">
	.st0{fill:none;stroke:#464646;stroke-width:0.5;stroke-linecap:round;stroke-linejoin:round;}
</style>
<g id="Capa_2_3_">
	<g id="Capa_1-2_1_">
		<path class="st0" d="M16.4,9.4c0,0.2,0,0.4,0,0.6c0,3.6-2.9,6.5-6.4,6.5S3.5,13.6,3.5,10S6.4,3.6,10,3.6c1.9,0,3.7,0.8,4.9,2.3"/>
		<path class="st0" d="M11.8,14.1c-0.4,1.4-1.1,2.3-1.8,2.3c-1.3,0-2.4-2.9-2.4-6.4"/>
		<path class="st0" d="M8.1,5.8C8.6,4.4,9.2,3.5,10,3.5c1.3,0,2.4,2.9,2.4,6.4"/>
		<line class="st0" x1="14.4" y1="12.1" x2="16" y2="12.1"/>
		<line class="st0" x1="3.9" y1="12.1" x2="10.3" y2="12.1"/>
		<line class="st0" x1="9.8" y1="7.8" x2="12.9" y2="7.8"/>
		<line class="st0" x1="3.9" y1="7.8" x2="5.6" y2="7.8"/>
		<path class="st0" d="M8.7,7.9c0,0.6-0.5,1-1,1s-1-0.5-1-1c0-0.6,0.5-1,1-1C8.3,6.9,8.7,7.3,8.7,7.9C8.7,7.9,8.7,7.9,8.7,7.9z"/>
		<path class="st0" d="M8.7,7.9c0,0.6-0.5,1-1,1s-1-0.5-1-1c0-0.6,0.5-1,1-1C8.3,6.9,8.7,7.3,8.7,7.9C8.7,7.9,8.7,7.9,8.7,7.9z"/>
		<path class="st0" d="M13.4,12.1c0,0.6-0.4,1-1,1c-0.6,0-1-0.4-1-1c0-0.6,0.4-1,1-1c0,0,0,0,0,0C12.9,11.1,13.4,11.6,13.4,12.1z"/>
		<path class="st0" d="M13.4,12.1c0,0.6-0.4,1-1,1c-0.6,0-1-0.4-1-1c0-0.6,0.4-1,1-1c0,0,0,0,0,0C12.9,11.1,13.4,11.6,13.4,12.1z"/>
		<circle class="st0" cx="15" cy="7.8" r="1"/>
		<circle class="st0" cx="15" cy="7.8" r="1"/>
	</g>
</g>
</svg>
