<?xml version="1.0" encoding="utf-8"?>
<!-- Generator: Adobe Illustrator 22.0.1, SVG Export Plug-In . SVG Version: 6.00 Build 0)  -->
<svg version="1.1" id="Capa_3" xmlns="http://www.w3.org/2000/svg" xmlns:xlink="http://www.w3.org/1999/xlink" x="0px" y="0px"
	 viewBox="0 0 20 20" style="enable-background:new 0 0 20 20;" xml:space="preserve">
<style type="text/css">
	.st0{fill:none;stroke:#464646;stroke-width:0.5;stroke-linecap:round;stroke-linejoin:round;}
</style>
<g id="Capa_2_3_">
	<g id="Capa_1-2_1_">
		<path class="st0" d="M14.6,11.7l0.1-0.3c0-0.1,0.1-0.2,0.3-0.2l1.2-0.3c0.1,0,0.2-0.1,0.2-0.2V9.3c0-0.1-0.1-0.2-0.2-0.2L15,8.7
			c-0.1,0-0.2-0.1-0.3-0.2l-0.4-0.9c-0.1-0.1-0.1-0.2,0-0.3L15,6.2c0.1-0.1,0-0.2,0-0.3L14,5c-0.1-0.1-0.2-0.1-0.3,0l-1.1,0.6
			c-0.1,0.1-0.2,0.1-0.3,0l-0.9-0.4c-0.1,0-0.2-0.1-0.2-0.3l-0.3-1.2c0-0.1-0.1-0.2-0.2-0.2H9.3c-0.1,0-0.2,0.1-0.2,0.2L8.8,5
			c0,0.1-0.1,0.2-0.2,0.3L7.7,5.6c-0.1,0.1-0.2,0.1-0.3,0L6.3,5C6.2,4.9,6.1,4.9,6,5L5,5.9C5,6,5,6.1,5,6.2l0.6,1.1
			c0.1,0.1,0.1,0.2,0,0.3L5.3,8.5c0,0.1-0.1,0.2-0.3,0.2L3.8,9.1c-0.1,0-0.2,0.1-0.2,0.2v1.3c0,0.1,0.1,0.2,0.2,0.2L5,11.2
			c0.1,0,0.2,0.1,0.3,0.2l0.4,0.9c0.1,0.1,0.1,0.2,0,0.3L5,13.7C5,13.8,5,13.9,5,14L6,14.9C6.1,15,6.2,15,6.3,15l1.1-0.6
			c0.1-0.1,0.2-0.1,0.3,0l0.9,0.4c0.1,0,0.2,0.1,0.2,0.3l0.3,1.2c0,0.1,0.1,0.2,0.2,0.2h1.3c0.1,0,0.2-0.1,0.2-0.2l0.3-1.2
			c0-0.1,0.1-0.2,0.2-0.3l0.3-0.1"/>
		<path class="st0" d="M9.3,7.3l1.5,1.5c0.1,0.1,0.1,0.2,0.1,0.3l0,0c-0.2,0.9-0.9,1.5-1.7,1.7l0,0c-0.1,0-0.2,0-0.3-0.1L7.3,9.3
			c-0.1-0.1-0.2-0.1-0.3,0c0,0,0,0.1,0,0.1C6.7,11,7.7,12.6,9.4,13c0.6,0.1,1.2,0.1,1.7-0.1l3.2,3.2c0.5,0.5,1.2,0.5,1.7,0
			c0.5-0.5,0.5-1.2,0-1.7c0,0,0,0,0,0l-3.2-3.2c0.6-1.6-0.2-3.4-1.7-4C10.5,6.9,9.9,6.9,9.4,7C9.3,7,9.2,7.1,9.3,7.3
			C9.3,7.3,9.3,7.3,9.3,7.3z"/>
	</g>
</g>
</svg>
