<?xml version="1.0" encoding="utf-8"?>
<!-- Generator: Adobe Illustrator 22.0.1, SVG Export Plug-In . SVG Version: 6.00 Build 0)  -->
<svg version="1.1" id="Capa_3" xmlns="http://www.w3.org/2000/svg" xmlns:xlink="http://www.w3.org/1999/xlink" x="0px" y="0px"
	 viewBox="0 0 20 20" style="enable-background:new 0 0 20 20;" xml:space="preserve">
<style type="text/css">
	.st0{fill:none;stroke:#464646;stroke-width:0.5;stroke-linecap:round;stroke-linejoin:round;}
</style>
<g id="b_1_">
	<g id="c_1_">
		<g>
			<g>
				<g>
					<g>
						<path class="st0" d="M6.9,5.4c0.5,0,0.9-0.4,0.9-0.9S7.4,3.5,6.9,3.5S6,4,6,4.5S6.4,5.4,6.9,5.4z"/>
						<line class="st0" x1="5.7" y1="10.8" x2="5.5" y2="7.6"/>
					</g>
					<path class="st0" d="M9.3,7.6l0-0.3c0-0.1,0-0.4-0.3-0.7C8.9,6.3,8.6,6.2,8.3,6.2H5.4c-0.5,0-1,0.5-1,1L4.7,10
						c0,0.6,0.6,0.8,1,0.8l0,0L6,14.7c0,0.1,0.1,0.2,0.2,0.2h1.4c0.1,0,0.2-0.1,0.2-0.2c0,0,0.2-2.3,0.2-2.4"/>
				</g>
				<g>
					<path class="st0" d="M13.1,5.4c0.5,0,0.9-0.4,0.9-0.9s-0.4-0.9-0.9-0.9c-0.5,0-0.9,0.4-0.9,0.9S12.6,5.4,13.1,5.4z"/>
					<path class="st0" d="M12.1,12.1c0,0.1,0.2,2.3,0.2,2.5c0,0,0,0.1,0.1,0.1c0,0,0.1,0,0.1,0h1.4c0.1,0,0.2-0.1,0.2-0.2l0.3-3.9
						l0,0c0.4,0,1-0.2,1-0.8l0.2-2.8c0-0.6-0.4-1-1-1h-2.9c-0.5,0-1,0.5-1,1l0,0.3"/>
					<line class="st0" x1="14.3" y1="10.8" x2="14.5" y2="7.6"/>
				</g>
			</g>
			<g>
				<g>
					<path class="st0" d="M10.9,16.3l0.3-3.9l0,0c0.4,0,1-0.2,1-0.8l0.2-2.8c0-0.6-0.4-1-1-1H8.6c-0.5,0-1,0.5-1,1l0.2,2.8
						c0,0.6,0.6,0.8,1,0.8l0,0l0.3,3.9c0,0.1,0.1,0.2,0.2,0.2h1.4C10.8,16.4,10.9,16.3,10.9,16.3L10.9,16.3z"/>
					<path class="st0" d="M10,7c0.5,0,0.9-0.4,0.9-0.9S10.5,5.1,10,5.1c-0.5,0-0.9,0.4-0.9,0.9S9.5,7,10,7z"/>
				</g>
				<g>
					<path class="st0" d="M10,7c0.5,0,0.9-0.4,0.9-0.9S10.5,5.1,10,5.1c-0.5,0-0.9,0.4-0.9,0.9S9.5,7,10,7z"/>
					<path class="st0" d="M10.9,16.3l0.3-3.9l0,0c0.4,0,1-0.2,1-0.8l0.2-2.8c0-0.6-0.4-1-1-1H8.6c-0.5,0-1,0.5-1,1l0.2,2.8
						c0,0.6,0.6,0.8,1,0.8l0,0l0.3,3.9c0,0.1,0.1,0.2,0.2,0.2h1.4C10.8,16.4,10.9,16.3,10.9,16.3L10.9,16.3z"/>
					<line class="st0" x1="11.2" y1="12.3" x2="11.4" y2="9.2"/>
					<line class="st0" x1="8.8" y1="12.3" x2="8.6" y2="9.2"/>
				</g>
			</g>
		</g>
	</g>
</g>
</svg>
