<?xml version="1.0" encoding="utf-8"?>
<!-- Generator: Adobe Illustrator 22.0.1, SVG Export Plug-In . SVG Version: 6.00 Build 0)  -->
<svg version="1.1" id="Capa_4" xmlns="http://www.w3.org/2000/svg" xmlns:xlink="http://www.w3.org/1999/xlink" x="0px" y="0px"
	 viewBox="0 0 40 40" style="enable-background:new 0 0 40 40;" xml:space="preserve">
<style type="text/css">
	.st0{fill:#464646;}
	.st1{fill:none;stroke:#464646;stroke-width:0.6;}
</style>
<path class="st0" d="M15.3,19.6c-0.2,2.6,1.7,4.9,4.3,5.1c1.3,0.1,2.5-0.3,3.4-1.1c1-0.8,1.6-1.9,1.7-3.2c0.1-1.2-0.3-2.5-1.1-3.4
	c-0.8-1-1.9-1.6-3.2-1.7C17.8,15.2,15.5,17.1,15.3,19.6L15.3,19.6z M20,26.1c-0.2,0-0.4,0-0.6,0c-3.3-0.3-5.7-3.2-5.4-6.5v0
	c0.3-3.2,3.2-5.7,6.5-5.4c1.6,0.1,3,0.9,4.1,2.1c1,1.2,1.5,2.8,1.4,4.4c-0.1,1.6-0.9,3-2.1,4.1C22.7,25.6,21.4,26.1,20,26.1
	 M17.8,38.1l4.1,0l1.1-3.9c0.1-0.2,0.2-0.4,0.5-0.4c1.2-0.3,2.4-0.8,3.5-1.4c0.2-0.1,0.4-0.1,0.6,0l3.5,2l2.9-2.9l-2-3.5
	c-0.1-0.2-0.1-0.4,0-0.6c0.7-1.1,1.2-2.3,1.5-3.5c0.1-0.2,0.2-0.4,0.5-0.5l3.9-1.1l0-4.1L34.2,17c-0.2-0.1-0.4-0.2-0.4-0.5
	c-0.3-1.2-0.8-2.4-1.4-3.5c-0.1-0.2-0.1-0.4,0-0.6l2-3.5l-2.9-2.9l-3.6,2c-0.2,0.1-0.4,0.1-0.6,0c-1.1-0.6-2.3-1.1-3.5-1.5
	c-0.2-0.1-0.4-0.2-0.5-0.5L22.1,2L18,2l-1.1,3.9c-0.1,0.2-0.2,0.4-0.5,0.4c-1.2,0.3-2.4,0.8-3.5,1.4c-0.2,0.1-0.4,0.1-0.6,0l-3.5-2
	L5.8,8.7l2,3.6c0.1,0.2,0.1,0.4,0,0.6c-0.7,1.1-1.2,2.3-1.5,3.5c-0.1,0.2-0.2,0.4-0.5,0.5l-3.9,1.1l0,4.1l3.9,1.1
	c0.2,0.1,0.4,0.2,0.4,0.5c0.3,1.2,0.8,2.4,1.4,3.5c0.1,0.2,0.1,0.4,0,0.6l-2,3.5l2.9,2.9l3.6-2c0.2-0.1,0.4-0.1,0.6,0
	c1.1,0.6,2.3,1.1,3.5,1.5c0.2,0.1,0.4,0.2,0.5,0.5L17.8,38.1z M22.4,39.5L22.4,39.5l-5.1,0c-0.3,0-0.5-0.2-0.6-0.5l-1.1-4
	c-1.1-0.3-2.1-0.8-3.1-1.3l-3.7,2c-0.3,0.1-0.6,0.1-0.8-0.1l-3.6-3.6c-0.2-0.2-0.2-0.5-0.1-0.8l2.1-3.6c-0.5-1-1-2.1-1.3-3.2l-4-1.2
	c-0.3-0.1-0.5-0.3-0.5-0.6l0-5.1c0-0.3,0.2-0.5,0.5-0.6l4-1.1c0.3-1.1,0.8-2.2,1.3-3.2l-2-3.7C4.3,8.6,4.3,8.3,4.5,8.1l3.6-3.6
	c0.2-0.2,0.5-0.2,0.8-0.1l3.7,2.1c1-0.5,2.1-1,3.1-1.3l1.2-4c0.1-0.3,0.3-0.5,0.6-0.5h0l5.1,0c0.3,0,0.5,0.2,0.6,0.5l1.1,4.1
	c1.1,0.3,2.1,0.8,3.1,1.3l3.7-2c0.3-0.1,0.6-0.1,0.8,0.1l3.6,3.6c0.2,0.2,0.2,0.5,0.1,0.8l-2.1,3.6c0.5,1,1,2.1,1.3,3.2l4,1.2
	c0.3,0.1,0.5,0.3,0.5,0.6l0,5.1c0,0.3-0.2,0.5-0.5,0.6l-4,1.1c-0.3,1.1-0.8,2.2-1.3,3.2l2,3.7c0.1,0.3,0.1,0.6-0.1,0.8l-3.6,3.6
	c-0.2,0.2-0.5,0.2-0.8,0.1l-3.6-2.1c-1,0.5-2.1,1-3.2,1.3L23,39C23,39.3,22.7,39.5,22.4,39.5"/>
<path class="st1" d="M15.3,19.6c-0.2,2.6,1.7,4.9,4.3,5.1c1.3,0.1,2.5-0.3,3.4-1.1c1-0.8,1.6-1.9,1.7-3.2c0.1-1.2-0.3-2.5-1.1-3.4
	c-0.8-1-1.9-1.6-3.2-1.7C17.9,15.1,15.6,17.1,15.3,19.6L15.3,19.6z M20,26c-0.2,0-0.4,0-0.6,0c-3.3-0.3-5.7-3.2-5.4-6.5v0
	c0.3-3.2,3.2-5.7,6.5-5.4c1.6,0.1,3,0.9,4.1,2.1c1,1.2,1.5,2.8,1.4,4.4c-0.1,1.6-0.9,3-2.1,4.1C22.8,25.5,21.4,26,20,26 M17.8,38.1
	l4.1,0l1.1-3.9c0.1-0.2,0.2-0.4,0.5-0.4c1.2-0.3,2.4-0.8,3.5-1.4c0.2-0.1,0.4-0.1,0.6,0l3.5,2l2.9-2.9l-2-3.5
	c-0.1-0.2-0.1-0.4,0-0.6c0.7-1.1,1.2-2.3,1.5-3.5c0.1-0.2,0.2-0.4,0.5-0.5l3.9-1.1l0-4.1L34.2,17c-0.2-0.1-0.4-0.2-0.4-0.5
	c-0.3-1.2-0.8-2.4-1.4-3.5c-0.1-0.2-0.1-0.4,0-0.6l2-3.5l-2.9-2.9l-3.6,2c-0.2,0.1-0.4,0.1-0.6,0c-1.1-0.6-2.3-1.1-3.5-1.5
	c-0.2-0.1-0.4-0.2-0.5-0.5L22.2,2l-4.1,0l-1.1,3.9c-0.1,0.2-0.2,0.4-0.5,0.4c-1.2,0.3-2.4,0.8-3.5,1.4c-0.2,0.1-0.4,0.1-0.6,0
	l-3.5-2L5.8,8.6l2,3.6c0.1,0.2,0.1,0.4,0,0.6c-0.7,1.1-1.2,2.3-1.5,3.5c-0.1,0.2-0.2,0.4-0.5,0.5l-3.9,1.1l0,4.1l3.9,1.1
	c0.2,0.1,0.4,0.2,0.4,0.5c0.3,1.2,0.8,2.4,1.4,3.5c0.1,0.2,0.1,0.4,0,0.6l-2,3.5l2.9,2.9l3.6-2c0.2-0.1,0.4-0.1,0.6,0
	c1.1,0.6,2.3,1.1,3.5,1.5c0.2,0.1,0.4,0.2,0.5,0.5L17.8,38.1z M22.4,39.4L22.4,39.4l-5.1,0c-0.3,0-0.5-0.2-0.6-0.5l-1.1-4
	c-1.1-0.3-2.1-0.8-3.1-1.3l-3.7,2c-0.3,0.1-0.6,0.1-0.8-0.1l-3.6-3.6c-0.2-0.2-0.2-0.5-0.1-0.8l2.1-3.6c-0.5-1-1-2.1-1.3-3.2l-4-1.2
	c-0.3-0.1-0.5-0.3-0.5-0.6l0-5.1c0-0.3,0.2-0.5,0.5-0.6l4-1.1c0.3-1.1,0.8-2.2,1.3-3.2l-2-3.7C4.3,8.6,4.4,8.2,4.6,8l3.6-3.6
	C8.4,4.2,8.7,4.2,9,4.4l3.7,2.1c1-0.5,2.1-1,3.1-1.3l1.2-4c0.1-0.3,0.3-0.5,0.6-0.5h0l5.1,0c0.3,0,0.5,0.2,0.6,0.5l1.1,4.1
	c1.1,0.3,2.1,0.8,3.1,1.3l3.7-2c0.3-0.1,0.6-0.1,0.8,0.1l3.6,3.6c0.2,0.2,0.2,0.5,0.1,0.8l-2.1,3.6c0.5,1,1,2.1,1.3,3.2l4,1.2
	c0.3,0.1,0.5,0.3,0.5,0.6l0,5.1c0,0.3-0.2,0.5-0.5,0.6l-4,1.1c-0.3,1.1-0.8,2.2-1.3,3.2l2,3.7c0.1,0.3,0.1,0.6-0.1,0.8l-3.6,3.6
	c-0.2,0.2-0.5,0.2-0.8,0.1l-3.6-2.1c-1,0.5-2.1,1-3.2,1.3l-1.2,4C23,39.2,22.7,39.4,22.4,39.4"/>
</svg>
