<?xml version="1.0" encoding="utf-8"?>
<!-- Generator: Adobe Illustrator 22.0.1, SVG Export Plug-In . SVG Version: 6.00 Build 0)  -->
<svg version="1.1" id="Capa_2" xmlns="http://www.w3.org/2000/svg" xmlns:xlink="http://www.w3.org/1999/xlink" x="0px" y="0px"
	 viewBox="0 0 43.5 49.8" style="enable-background:new 0 0 43.5 49.8;" xml:space="preserve">
<style type="text/css">
	.st0{opacity:0.729;}
</style>
<g id="eleccion" transform="translate(-16.032)" class="st0">
	<path id="Trazado_1951" d="M34.1,29c0.4,0,0.7-0.3,0.7-0.7v-0.7c0-0.4-0.3-0.7-0.7-0.7c-0.4,0-0.7,0.3-0.7,0.7v0.7
		C33.4,28.7,33.7,29,34.1,29C34.1,29,34.1,29,34.1,29z"/>
	<path id="Trazado_1952" d="M41.2,29c0.4,0,0.7-0.3,0.7-0.7v-0.7c0-0.4-0.3-0.7-0.7-0.7c-0.4,0-0.7,0.3-0.7,0.7v0.7
		C40.6,28.7,40.9,29,41.2,29C41.2,29,41.2,29,41.2,29z"/>
	<path id="Trazado_1953" d="M31.9,9.7c0-4.3-3.5-7.8-7.8-7.8c-4.3,0-7.8,3.5-7.8,7.8s3.5,7.8,7.8,7.8C28.4,17.5,31.9,14,31.9,9.7z
		 M24,16.2c-3.6,0-6.5-2.9-6.5-6.5s2.9-6.5,6.5-6.5c3.6,0,6.5,2.9,6.5,6.5C30.5,13.3,27.6,16.2,24,16.2z"/>
	<path id="Trazado_1954" d="M51.3,1.9c-4.3,0-7.8,3.5-7.8,7.8s3.5,7.8,7.8,7.8c4.3,0,7.8-3.5,7.8-7.8c0,0,0,0,0,0
		C59.1,5.4,55.6,1.9,51.3,1.9z M51.3,16.2c-3.6,0-6.5-2.9-6.5-6.5s2.9-6.5,6.5-6.5c3.6,0,6.5,2.9,6.5,6.5c0,0,0,0,0,0
		C57.8,13.3,54.9,16.2,51.3,16.2z"/>
	<path id="Trazado_1955" d="M26.6,7.1c-0.3-0.3-0.7-0.3-0.9,0L24,8.8l-1.7-1.7c-0.3-0.3-0.7-0.2-0.9,0c-0.2,0.3-0.2,0.7,0,0.9
		l1.7,1.7l-1.7,1.7c-0.3,0.3-0.3,0.7,0,0.9c0.3,0.3,0.7,0.3,0.9,0c0,0,0,0,0,0l1.7-1.7l1.7,1.7c0.3,0.3,0.7,0.2,0.9,0
		c0.2-0.3,0.2-0.7,0-0.9L25,9.7L26.6,8C26.9,7.8,26.9,7.3,26.6,7.1z"/>
	<path id="Trazado_1956" d="M53.7,7.4l-3.5,3.5l-1.3-1.3c-0.3-0.3-0.7-0.3-0.9,0c-0.3,0.3-0.3,0.7,0,0.9c0,0,0,0,0,0l1.8,1.8
		c0.3,0.3,0.7,0.3,0.9,0c0,0,0,0,0,0l3.9-3.9c0.3-0.3,0.3-0.7,0-0.9C54.4,7.2,53.9,7.2,53.7,7.4z"/>
	<path id="Trazado_1957" d="M36.8,32.7C36.8,32.7,36.9,32.7,36.8,32.7l1.7-0.2c0.4,0,0.6-0.4,0.6-0.7c0-0.4-0.4-0.6-0.7-0.6
		l-1.7,0.2c-0.4,0-0.6,0.4-0.6,0.7C36.2,32.4,36.5,32.7,36.8,32.7z"/>
	<path id="Trazado_1958" d="M48.8,41.4l-5.2-1.7c-0.6-0.2-1-0.8-1-1.4v-2.4c1.5-1.2,2.5-2.9,2.8-4.7c0.6-0.1,1-0.5,1.3-1
		c0.6-1,0.2-2.3-0.8-2.9c-0.1-0.1-0.2-0.1-0.3-0.1v-6.6c0-1.6-1.3-2.8-2.8-2.8h-7.2c-1.4,0-2.7,0.9-3.3,2.2
		c-1.4,0.2-2.4,1.4-2.4,2.8v4.5c-1.1,0.4-1.7,1.6-1.3,2.7c0,0,0,0,0,0.1c0.2,0.6,0.8,1.1,1.5,1.3c0.3,1.8,1.3,3.5,2.7,4.7v2.5
		c0,0.6-0.4,1.2-1,1.4l-5.2,1.7c-1.4,0.5-2.4,1.8-2.4,3.4V47c0,0.4,0.3,0.7,0.7,0.7c0.4,0,0.7-0.3,0.7-0.7v-2.2
		c0-0.9,0.6-1.8,1.5-2.1l1.5-0.5c3.1,4.3,8.8,5.9,13.8,3.8c0.3-0.1,0.5-0.5,0.4-0.9c-0.1-0.3-0.5-0.5-0.9-0.4c0,0,0,0,0,0
		c-4.2,1.8-9.1,0.5-11.9-3.1l1.6-0.5c3.1,3.5,8.6,3.8,12.1,0.7c0.2-0.2,0.5-0.4,0.7-0.7l1.6,0.5c-0.5,0.7-1.1,1.3-1.8,1.8
		c-0.3,0.2-0.4,0.6-0.1,0.9c0.2,0.3,0.6,0.4,0.9,0.1c0,0,0,0,0,0c0.9-0.7,1.7-1.5,2.3-2.4l1.5,0.5c0.9,0.3,1.5,1.1,1.5,2.1V47
		c0,0.4,0.3,0.7,0.7,0.7c0.4,0,0.7-0.3,0.7-0.7c0,0,0,0,0,0v-2.2C51.2,43.2,50.3,41.9,48.8,41.4z M31.2,30.4c0-0.3-0.3-0.6-0.7-0.6
		h0c-0.4,0-0.8-0.3-0.8-0.8c0-0.4,0.3-0.8,0.8-0.8c0.4,0,0.7-0.3,0.7-0.7v-5c0-0.6,0.3-1.1,0.8-1.3c0.1,0.4,0.4,0.6,0.8,0.6
		c0.3-0.1,0.6-0.3,0.6-0.7c0-1.2,1-2.2,2.2-2.2h7.2c0.8,0,1.5,0.7,1.5,1.5v2.2h-9.4c-1.2,0-2.1,0.9-2.1,2.1c0,0.4,0.3,0.7,0.7,0.7
		c0.4,0,0.7-0.3,0.7-0.7c0-0.4,0.3-0.8,0.8-0.8h9.4v3.6c0,0.4,0.3,0.7,0.7,0.7c0.3,0,0.5,0.1,0.7,0.4c0.1,0.2,0.1,0.6,0,0.8
		c-0.1,0.2-0.4,0.4-0.7,0.3h0c-0.3,0-0.6,0.3-0.7,0.6c-0.4,3.5-3.4,6.1-6.9,5.8C34.1,36.1,31.6,33.6,31.2,30.4z M32.6,40.7
		c0.9-0.5,1.4-1.4,1.4-2.4v-1.6c1,0.5,2,0.8,3.1,0.9c0.2,0,0.3,0,0.5,0c1.3,0,2.5-0.3,3.6-0.9v1.5c0,1,0.5,1.9,1.4,2.4
		C39.9,43.4,35.4,43.4,32.6,40.7L32.6,40.7z"/>
</g>
</svg>
