<?xml version="1.0" encoding="utf-8"?>
<!-- Generator: Adobe Illustrator 22.0.1, SVG Export Plug-In . SVG Version: 6.00 Build 0)  -->
<svg version="1.1" id="Capa_2" xmlns="http://www.w3.org/2000/svg" xmlns:xlink="http://www.w3.org/1999/xlink" x="0px" y="0px"
	 viewBox="0 0 20 20" style="enable-background:new 0 0 20 20;" xml:space="preserve">
<style type="text/css">
	.st0{clip-path:url(#SVGID_2_);}
	.st1{enable-background:new    ;}
	.st2{clip-path:url(#SVGID_5_);}
	.st3{clip-path:url(#SVGID_6_);fill:#464646;}
	.st4{clip-path:url(#SVGID_6_);fill:none;stroke:#464646;stroke-width:0.5;}
</style>
<g>
	<g>
		<defs>
			<rect id="SVGID_1_" x="1.3" y="2.9" width="17.5" height="14.3"/>
		</defs>
		<clipPath id="SVGID_2_">
			<use xlink:href="#SVGID_1_"  style="overflow:visible;"/>
		</clipPath>
		<g class="st0">
			<g class="st1">
				<g>
					<defs>
						<rect id="SVGID_3_" x="1.3" y="2.9" width="17.6" height="14.4"/>
					</defs>
					<defs>
						<rect id="SVGID_4_" x="1.3" y="2.9" width="17.6" height="14.4"/>
					</defs>
					<clipPath id="SVGID_5_">
						<use xlink:href="#SVGID_3_"  style="overflow:visible;"/>
					</clipPath>
					<clipPath id="SVGID_6_" class="st2">
						<use xlink:href="#SVGID_4_"  style="overflow:visible;"/>
					</clipPath>
					<path class="st3" d="M16.5,16.4h-3.1v-13h3.1V16.4z M11.4,16.4H8.2v-8h3.1L11.4,16.4L11.4,16.4z M5.9,16.4H2.8v-4.2h3.1
						L5.9,16.4L5.9,16.4z M18.5,16.4h-1.3V3.1c0-0.2-0.2-0.4-0.4-0.4H13c-0.2,0-0.4,0.2-0.4,0.4v13.3h-0.9V8.2
						c0-0.2-0.2-0.4-0.4-0.4H8C7.8,7.9,7.6,8,7.6,8.2v8.2H6.6v-4.6c0-0.2-0.2-0.4-0.4-0.4H2.5c-0.2,0-0.4,0.2-0.4,0.4v4.6H1.6
						c-0.2,0-0.4,0.2-0.4,0.4c0,0.2,0.2,0.4,0.4,0.4h16.9c0.2,0,0.4-0.2,0.4-0.4C18.8,16.6,18.6,16.4,18.5,16.4"/>
					<path class="st4" d="M16.5,16.4h-3.1v-13h3.1V16.4z M11.4,16.4H8.2v-8h3.1L11.4,16.4L11.4,16.4z M5.9,16.4H2.8v-4.2h3.1
						L5.9,16.4L5.9,16.4z M18.5,16.4h-1.3V3.1c0-0.2-0.2-0.4-0.4-0.4H13c-0.2,0-0.4,0.2-0.4,0.4v13.3h-0.9V8.2
						c0-0.2-0.2-0.4-0.4-0.4H8C7.8,7.9,7.6,8,7.6,8.2v8.2H6.6v-4.6c0-0.2-0.2-0.4-0.4-0.4H2.5c-0.2,0-0.4,0.2-0.4,0.4v4.6H1.6
						c-0.2,0-0.4,0.2-0.4,0.4c0,0.2,0.2,0.4,0.4,0.4h16.9c0.2,0,0.4-0.2,0.4-0.4C18.8,16.6,18.6,16.4,18.5,16.4"/>
				</g>
			</g>
		</g>
	</g>
</g>
</svg>
