<?xml version="1.0" encoding="utf-8"?>
<!-- Generator: Adobe Illustrator 22.0.1, SVG Export Plug-In . SVG Version: 6.00 Build 0)  -->
<svg version="1.1" id="Capa_2" xmlns="http://www.w3.org/2000/svg" xmlns:xlink="http://www.w3.org/1999/xlink" x="0px" y="0px"
	 viewBox="0 0 40 40" style="enable-background:new 0 0 40 40;" xml:space="preserve">
<style type="text/css">
	.st0{fill:#53D769;}
	.st1{fill:#FFFFFF;}
</style>
<g>
	<path class="st0" d="M20,0c1.3,0,2.6,0.1,3.9,0.4s2.5,0.6,3.8,1.1C28.9,2,30,2.6,31.1,3.4s2.1,1.6,3,2.5c0.9,0.9,1.8,1.9,2.5,3
		c0.7,1.1,1.3,2.2,1.8,3.5c0.5,1.2,0.9,2.5,1.1,3.8S40,18.7,40,20c0,1.3-0.1,2.6-0.4,3.9s-0.6,2.5-1.1,3.8c-0.5,1.2-1.1,2.4-1.8,3.5
		c-0.7,1.1-1.6,2.1-2.5,3c-0.9,0.9-1.9,1.8-3,2.5c-1.1,0.7-2.2,1.3-3.5,1.8c-1.2,0.5-2.5,0.9-3.8,1.1S21.3,40,20,40
		c-1.3,0-2.6-0.1-3.9-0.4s-2.5-0.6-3.8-1.1c-1.2-0.5-2.4-1.1-3.5-1.8c-1.1-0.7-2.1-1.6-3-2.5c-0.9-0.9-1.8-1.9-2.5-3
		C2.6,30,2,28.9,1.5,27.7c-0.5-1.2-0.9-2.5-1.1-3.8S0,21.3,0,20c0-1.3,0.1-2.6,0.4-3.9s0.6-2.5,1.1-3.8C2,11.1,2.6,10,3.4,8.9
		c0.7-1.1,1.6-2.1,2.5-3c0.9-0.9,1.9-1.8,3-2.5s2.2-1.3,3.5-1.8c1.2-0.5,2.5-0.9,3.8-1.1S18.7,0,20,0z"/>
	<path class="st1" d="M11,21.1l6,6c0.2,0.2,0.2,0.5,0,0.6l-2.2,2.2c-0.2,0.2-0.5,0.2-0.6,0l-6-6c-0.2-0.2-0.2-0.5,0-0.6l2.2-2.2
		C10.5,20.9,10.8,20.9,11,21.1z"/>
	<path class="st1" d="M12.3,26.8l15.2-15.2c0.3-0.3,0.9-0.3,1.2,0l1.6,1.6c0.3,0.3,0.3,0.9,0,1.2L15.1,29.6c-0.3,0.3-0.9,0.3-1.2,0
		l-1.6-1.6C12,27.7,12,27.2,12.3,26.8z"/>
</g>
<path class="st0" d="M1641,387c1.1,0,2.1,0.1,3.1,0.3s2,0.5,3,0.9c1,0.4,1.9,0.9,2.8,1.5s1.7,1.2,2.4,2c0.7,0.7,1.4,1.6,2,2.4
	c0.6,0.9,1.1,1.8,1.5,2.8c0.4,1,0.7,2,0.9,3s0.3,2.1,0.3,3.1c0,1.1-0.1,2.1-0.3,3.1s-0.5,2-0.9,3c-0.4,1-0.9,1.9-1.5,2.8
	c-0.6,0.9-1.2,1.7-2,2.4c-0.7,0.7-1.6,1.4-2.4,2c-0.9,0.6-1.8,1.1-2.8,1.5c-1,0.4-2,0.7-3,0.9s-2.1,0.3-3.1,0.3
	c-1.1,0-2.1-0.1-3.1-0.3s-2-0.5-3-0.9c-1-0.4-1.9-0.9-2.8-1.5c-0.9-0.6-1.7-1.2-2.4-2c-0.7-0.7-1.4-1.6-2-2.4
	c-0.6-0.9-1.1-1.8-1.5-2.8c-0.4-1-0.7-2-0.9-3s-0.3-2.1-0.3-3.1c0-1.1,0.1-2.1,0.3-3.1s0.5-2,0.9-3c0.4-1,0.9-1.9,1.5-2.8
	c0.6-0.9,1.2-1.7,2-2.4c0.7-0.7,1.6-1.4,2.4-2s1.8-1.1,2.8-1.5c1-0.4,2-0.7,3-0.9S1639.9,387,1641,387z"/>
<rect x="1633.5" y="403.6" transform="matrix(0.7071 -0.7071 0.7071 0.7071 190.8138 1275.4945)" class="st1" width="3.2" height="7.6"/>
<rect x="1632.8" y="401.9" transform="matrix(0.7071 -0.7071 0.7071 0.7071 195.6152 1279.3026)" class="st1" width="18.6" height="3.2"/>
</svg>
