<?xml version="1.0" encoding="utf-8"?>
<!-- Generator: Adobe Illustrator 22.0.1, SVG Export Plug-In . SVG Version: 6.00 Build 0)  -->
<svg version="1.1" id="Capa_3" xmlns="http://www.w3.org/2000/svg" xmlns:xlink="http://www.w3.org/1999/xlink" x="0px" y="0px"
	 viewBox="0 0 20 20" style="enable-background:new 0 0 20 20;" xml:space="preserve">
<style type="text/css">
	.st0{fill:none;stroke:#464646;stroke-width:0.5;stroke-linecap:round;stroke-linejoin:round;}
</style>
<g id="Capa_2_3_">
	<g id="Capa_1-2_1_">
		<polyline class="st0" points="6.5,3.6 18.3,3.6 18.3,9.8 7.4,9.8 		"/>
		<path class="st0" d="M4.7,5.7c-0.6,0-1.1-0.5-1.1-1.1c0-0.6,0.5-1.1,1.1-1.1c0.6,0,1.1,0.5,1.1,1.1c0,0,0,0,0,0
			C5.8,5.2,5.3,5.7,4.7,5.7z"/>
		<path class="st0" d="M3.5,16.2l-0.3-4.4H3.1C2.7,11.7,2,11.4,1.9,11L1.7,7.8V7.7c0-0.7,0.5-1.2,1.2-1.2h7.9c0,0.6-0.5,1.1-1.1,1.1
			H6.6"/>
		<line class="st0" x1="6.6" y1="7.7" x2="5.9" y2="16.2"/>
		<path class="st0" d="M4.7,5.7c-0.6,0-1.1-0.5-1.1-1.1c0-0.6,0.5-1.1,1.1-1.1c0.6,0,1.1,0.5,1.1,1.1c0,0,0,0,0,0
			C5.8,5.2,5.3,5.7,4.7,5.7z"/>
		<path class="st0" d="M6.6,7.7l-0.7,8.5c0,0.1-0.1,0.3-0.3,0.3H3.8c-0.2,0-0.3-0.1-0.3-0.3l-0.3-4.4l0,0c-0.6,0-1.2-0.3-1.3-0.8
			L1.7,7.8V7.7c0-0.7,0.5-1.2,1.2-1.2h7.9c0,0.6-0.5,1.1-1.1,1.1L6.6,7.7"/>
		<line class="st0" x1="3.2" y1="11.8" x2="2.9" y2="8.2"/>
		<path class="st0" d="M10.2,13.2c-0.6,0-1-0.5-1-1.1c0-0.6,0.5-1,1.1-1c0.5,0,1,0.5,1,1C11.3,12.8,10.8,13.2,10.2,13.2z"/>
		<path class="st0" d="M12.9,16.5v-1.4c0-0.6-0.5-1.1-1.1-1.1H8.7c-0.6,0-1.1,0.5-1.1,1.1c0,0,0,0,0,0v1.4"/>
		<path class="st0" d="M15.6,13.2c-0.6,0-1-0.5-1-1.1c0-0.6,0.5-1,1.1-1c0.5,0,1,0.5,1,1C16.7,12.8,16.2,13.2,15.6,13.2z"/>
		<path class="st0" d="M18.3,16.5v-1.4c0-0.6-0.5-1.1-1.1-1.1c0,0,0,0,0,0h-3.1c-0.6,0-1.1,0.5-1.1,1.1v1.4"/>
	</g>
</g>
</svg>
