<?xml version="1.0" encoding="utf-8"?>
<!-- Generator: Adobe Illustrator 22.0.1, SVG Export Plug-In . SVG Version: 6.00 Build 0)  -->
<svg version="1.1" id="Capa_3" xmlns="http://www.w3.org/2000/svg" xmlns:xlink="http://www.w3.org/1999/xlink" x="0px" y="0px"
	 viewBox="0 0 20 20" style="enable-background:new 0 0 20 20;" xml:space="preserve">
<style type="text/css">
	.st0{clip-path:url(#SVGID_2_);enable-background:new    ;}
	.st1{clip-path:url(#SVGID_4_);fill:#464646;}
	.st2{clip-path:url(#SVGID_4_);fill:none;stroke:#464646;stroke-width:0.5;}
</style>
<g>
	<defs>
		<rect id="SVGID_1_" x="4" y="2.4" width="12" height="15.2"/>
	</defs>
	<clipPath id="SVGID_2_">
		<use xlink:href="#SVGID_1_"  style="overflow:visible;"/>
	</clipPath>
	<g class="st0">
		<g>
			<defs>
				<rect id="SVGID_3_" x="4" y="2.4" width="12.1" height="15.2"/>
			</defs>
			<clipPath id="SVGID_4_">
				<use xlink:href="#SVGID_3_"  style="overflow:visible;"/>
			</clipPath>
			<path class="st1" d="M15.5,16.7c0,0.2-0.1,0.3-0.3,0.3H4.8c-0.2,0-0.3-0.1-0.3-0.3V3.3C4.5,3.1,4.7,3,4.8,3h7.3v2.5
				c0,0.5,0.4,0.8,0.8,0.8h2.5V16.7z M12.7,3.2l2.7,2.5H13c-0.2,0-0.3-0.1-0.3-0.3V3.2z M15.8,5.4l-3-2.8c-0.1-0.1-0.2-0.1-0.4-0.1
				H4.8C4.4,2.4,4,2.8,4,3.3v13.5c0,0.5,0.4,0.8,0.8,0.8h10.3c0.5,0,0.8-0.4,0.8-0.8v-11C16,5.6,16,5.5,15.8,5.4"/>
			<path class="st2" d="M15.5,16.7c0,0.2-0.1,0.3-0.3,0.3H4.8c-0.2,0-0.3-0.1-0.3-0.3V3.3C4.5,3.1,4.7,3,4.8,3h7.3v2.5
				c0,0.5,0.4,0.8,0.8,0.8h2.5V16.7z M12.7,3.2l2.7,2.5H13c-0.2,0-0.3-0.1-0.3-0.3V3.2z M15.8,5.4l-3-2.8c-0.1-0.1-0.2-0.1-0.4-0.1
				H4.8C4.4,2.4,4,2.8,4,3.3v13.5c0,0.5,0.4,0.8,0.8,0.8h10.3c0.5,0,0.8-0.4,0.8-0.8v-11C16,5.6,16,5.5,15.8,5.4"/>
			<path class="st1" d="M5.9,8.9C5.9,9,6,9.2,6.2,9.2h7.6c0.1,0,0.3-0.1,0.3-0.3S14,8.5,13.8,8.5H6.2C6,8.5,5.9,8.7,5.9,8.9"/>
			<path class="st1" d="M13.8,10.5H6.1c-0.1,0-0.3,0.1-0.3,0.3c0,0.2,0.1,0.3,0.3,0.3h7.6c0.1,0,0.3-0.1,0.3-0.3
				C14,10.6,13.9,10.5,13.8,10.5"/>
			<path class="st1" d="M9.3,12.5H6.1c-0.1,0-0.3,0.1-0.3,0.3c0,0.2,0.1,0.3,0.3,0.3h3.2c0.1,0,0.3-0.1,0.3-0.3
				C9.6,12.7,9.5,12.5,9.3,12.5"/>
		</g>
	</g>
</g>
</svg>
