<?xml version="1.0" encoding="utf-8"?>
<!-- Generator: Adobe Illustrator 22.0.1, SVG Export Plug-In . SVG Version: 6.00 Build 0)  -->
<svg version="1.1" id="Capa_1" xmlns="http://www.w3.org/2000/svg" xmlns:xlink="http://www.w3.org/1999/xlink" x="0px" y="0px"
	 viewBox="0 0 40 40" style="enable-background:new 0 0 40 40;" xml:space="preserve">
<style type="text/css">
	.st0{fill:#F7F9FA;}
	.st1{fill:#686868;}
</style>
<g>
	<path class="st0" d="M20.1,38.8c-10.2,0-18.5-8.3-18.5-18.5c0-10.2,8.3-18.5,18.5-18.5s18.5,8.3,18.5,18.5
		C38.6,30.5,30.3,38.8,20.1,38.8z"/>
	<path class="st0" d="M20.1,2.3c9.9,0,18,8.1,18,18s-8.1,18-18,18s-18-8.1-18-18S10.1,2.3,20.1,2.3 M20.1,1.3c-10.5,0-19,8.5-19,19
		s8.5,19,19,19s19-8.5,19-19S30.6,1.3,20.1,1.3L20.1,1.3z"/>
</g>
<g>
	<path class="st1" d="M20,28.8c-0.9,0-1.5-0.7-1.5-1.6c0-0.9,0.6-1.6,1.5-1.6s1.6,0.7,1.6,1.6C21.6,28.1,21,28.8,20,28.8z M20,11.7
		c0.7,0,1.4,0.2,1.5,0.9c0,0.3,0,0.6-0.1,1c-0.2,1.9-0.7,6.5-0.9,9.5h-1c-0.2-3-0.7-7.4-0.9-9.5c0-0.3-0.1-0.8-0.1-1
		C18.6,11.9,19.3,11.7,20,11.7z"/>
</g>
</svg>
