<?xml version="1.0" encoding="utf-8"?>
<!-- Generator: Adobe Illustrator 22.0.1, SVG Export Plug-In . SVG Version: 6.00 Build 0)  -->
<svg version="1.1" id="Capa_3" xmlns="http://www.w3.org/2000/svg" xmlns:xlink="http://www.w3.org/1999/xlink" x="0px" y="0px"
	 viewBox="0 0 20 20" style="enable-background:new 0 0 20 20;" xml:space="preserve">
<style type="text/css">
	.st0{fill:none;stroke:#464646;stroke-width:0.5;stroke-linecap:round;stroke-linejoin:round;}
</style>
<g id="Capa_2_3_">
	<g id="Capa_1-2_1_">
		<polyline class="st0" points="4.8,11.8 4.8,10.4 7.3,10.4 7.3,11.8 		"/>
		<polyline class="st0" points="8.8,11.8 8.8,10.4 11.2,10.4 11.2,11.8 		"/>
		<polyline class="st0" points="11.2,4.7 11.2,6.2 8.8,6.2 8.8,4.7 		"/>
		<polyline class="st0" points="12.7,11.8 12.7,10.4 15.2,10.4 15.2,11.8 		"/>
		<polyline class="st0" points="6.1,9.7 6.1,8.3 13.9,8.3 13.9,9.7 		"/>
		<line class="st0" x1="10" y1="6.8" x2="10" y2="9.7"/>
		<line class="st0" x1="10" y1="6.8" x2="10" y2="9.7"/>
		<polyline class="st0" points="9,16.4 9,14.1 11,14.1 11,16.4 		"/>
		<line class="st0" x1="12.6" y1="14.1" x2="7.4" y2="14.1"/>
		<line class="st0" x1="12.6" y1="16.4" x2="7.4" y2="16.4"/>
		<path class="st0" d="M3.7,3.5h12.7c0.5,0,1,0.4,1,1v8.6c0,0.5-0.4,1-1,1H3.7c-0.5,0-1-0.4-1-1V4.5C2.7,4,3.1,3.5,3.7,3.5z"/>
		<line class="st0" x1="16.5" y1="12.7" x2="3.5" y2="12.7"/>
		<line class="st0" x1="4.9" y1="4.8" x2="4.5" y2="4.8"/>
		<line class="st0" x1="6.9" y1="4.8" x2="6.4" y2="4.8"/>
	</g>
</g>
</svg>
