<svg id="Grupo_3193" data-name="Grupo 3193" xmlns="http://www.w3.org/2000/svg" xmlns:xlink="http://www.w3.org/1999/xlink" width="409.289" height="383.5" viewBox="0 0 409.289 383.5">
  <defs>
    <clipPath id="clip-path">
      <rect id="Rectángulo_462" data-name="Rectángulo 462" width="409.289" height="383.5" fill="none"/>
    </clipPath>
    <clipPath id="clip-path-3">
      <rect id="Rectángulo_458" data-name="Rectángulo 458" width="105.878" height="50.038" fill="none"/>
    </clipPath>
    <clipPath id="clip-path-4">
      <rect id="Rectángulo_459" data-name="Rectángulo 459" width="262.037" height="83.396" fill="none"/>
    </clipPath>
    <clipPath id="clip-path-5">
      <rect id="Rectángulo_460" data-name="Rectángulo 460" width="210.529" height="50.036" fill="none"/>
    </clipPath>
  </defs>
  <g id="Grupo_3192" data-name="Grupo 3192" clip-path="url(#clip-path)">
    <g id="Grupo_3191" data-name="Grupo 3191">
      <g id="Grupo_3190" data-name="Grupo 3190" clip-path="url(#clip-path)">
        <path id="Trazado_2820" data-name="Trazado 2820" d="M90.867,44.986a17.267,17.267,0,1,1,17.267,17.267A17.268,17.268,0,0,1,90.867,44.986" transform="translate(234.373 71.495)" fill="#ffcd00"/>
        <g id="Grupo_3183" data-name="Grupo 3183" transform="translate(0 194.708)" opacity="0.5">
          <g id="Grupo_3182" data-name="Grupo 3182">
            <g id="Grupo_3181" data-name="Grupo 3181" clip-path="url(#clip-path-3)">
              <path id="Trazado_2821" data-name="Trazado 2821" d="M12.51,63.718H8.34a8.34,8.34,0,1,0,0,16.68h4.17a8.34,8.34,0,0,0,0-16.68" transform="translate(0 -30.361)" fill="#d4d8e4"/>
              <path id="Trazado_2822" data-name="Trazado 2822" d="M89.289,87.757h-15.8a8.34,8.34,0,1,1,0-16.68H83.25a8.34,8.34,0,1,0,0-16.68H11.543a8.34,8.34,0,1,0,0,16.68H36.4a8.34,8.34,0,1,1,0,16.68H28.423a8.34,8.34,0,0,0,.011,16.68H89.278a8.34,8.34,0,0,0,.011-16.68" transform="translate(8.261 -54.4)" fill="#d4d8e4"/>
            </g>
          </g>
        </g>
        <path id="Trazado_2823" data-name="Trazado 2823" d="M120.839,71.98A42.952,42.952,0,1,1,77.888,29.028,42.949,42.949,0,0,1,120.839,71.98" transform="translate(90.11 74.872)" fill="#ffcd00"/>
        <g id="Grupo_3186" data-name="Grupo 3186" transform="translate(147.251 300.103)" opacity="0.5">
          <g id="Grupo_3185" data-name="Grupo 3185">
            <g id="Grupo_3184" data-name="Grupo 3184" clip-path="url(#clip-path-4)">
              <path id="Trazado_2824" data-name="Trazado 2824" d="M63.74,100.524h4.17a8.34,8.34,0,0,0,0-16.68H63.74a8.34,8.34,0,0,0,0,16.68" transform="translate(-4.359 -83.845)" fill="#d4d8e4"/>
              <path id="Trazado_2825" data-name="Trazado 2825" d="M121.034,102.484h-4.17a8.34,8.34,0,1,0,0,16.679h4.17a8.34,8.34,0,1,0,0-16.679" transform="translate(132.664 -35.767)" fill="#d4d8e4"/>
              <path id="Trazado_2826" data-name="Trazado 2826" d="M288.583,117.2H242.056a8.34,8.34,0,1,1,0-16.68h8.537a8.34,8.34,0,0,0-.014-16.68h-121.7a8.34,8.34,0,0,0-.011,16.68H139.72a8.34,8.34,0,0,1,0,16.68H49.482a8.34,8.34,0,0,0-.014,16.68H94.424a8.34,8.34,0,0,1,0,16.68H75.6a8.34,8.34,0,1,0,0,16.679H266.484a8.34,8.34,0,1,0,0-16.679H255.739a8.34,8.34,0,0,1,0-16.68h32.854a8.34,8.34,0,0,0-.011-16.68" transform="translate(-41.142 -83.845)" fill="#d4d8e4"/>
            </g>
          </g>
        </g>
        <g id="Grupo_3189" data-name="Grupo 3189" transform="translate(12.117)" opacity="0.5">
          <g id="Grupo_3188" data-name="Grupo 3188">
            <g id="Grupo_3187" data-name="Grupo 3187" clip-path="url(#clip-path-5)">
              <path id="Trazado_2827" data-name="Trazado 2827" d="M68.889,0h-4.17a8.34,8.34,0,0,0,0,16.68h4.17a8.34,8.34,0,0,0,0-16.68" transform="translate(133.301)" fill="#d4d8e4"/>
              <path id="Trazado_2828" data-name="Trazado 2828" d="M15.895,9.319h-4.17a8.34,8.34,0,1,0,0,16.68h4.17a8.34,8.34,0,0,0,0-16.68" transform="translate(-3.386 24.036)" fill="#d4d8e4"/>
              <path id="Trazado_2829" data-name="Trazado 2829" d="M177.143,33.359h-33.7a8.34,8.34,0,0,1,0-16.68h13.344a8.34,8.34,0,0,0,0-16.68H52.866a8.34,8.34,0,0,0,0,16.68h17.7a8.34,8.34,0,0,1,0,16.68H19.636a8.34,8.34,0,0,0,.011,16.68H177.132a8.34,8.34,0,0,0,.011-16.68" transform="translate(17.047)" fill="#d4d8e4"/>
            </g>
          </g>
        </g>
        <path id="Trazado_2830" data-name="Trazado 2830" d="M78.1,22.752H24.427a1.342,1.342,0,0,1,0-2.684H78.1a1.342,1.342,0,1,1,0,2.684" transform="translate(59.543 51.761)"/>
        <path id="Trazado_2831" data-name="Trazado 2831" d="M43.708,22.752H41.922a1.342,1.342,0,1,1,0-2.684h1.786a1.342,1.342,0,1,1,0,2.684" transform="translate(104.668 51.761)"/>
        <path id="Trazado_2832" data-name="Trazado 2832" d="M92.679,25.917H12.764a1.342,1.342,0,0,1,0-2.684H92.679a1.342,1.342,0,1,1,0,2.684" transform="translate(29.461 59.925)"/>
        <path id="Trazado_2833" data-name="Trazado 2833" d="M28.717,51.993a8.8,8.8,0,1,1,8.8-8.8,8.809,8.809,0,0,1-8.8,8.8m0-14.911a6.113,6.113,0,1,0,6.113,6.113,6.122,6.122,0,0,0-6.113-6.113" transform="translate(51.377 88.72)"/>
        <path id="Trazado_2834" data-name="Trazado 2834" d="M158.226,49.411H94.407a1.342,1.342,0,1,1,0-2.684h63.819a1.342,1.342,0,1,1,0,2.684" transform="translate(240.042 120.523)"/>
        <path id="Trazado_2835" data-name="Trazado 2835" d="M121.114,52.743H100.239a1.342,1.342,0,0,1,0-2.684h20.874a1.342,1.342,0,1,1,0,2.684" transform="translate(255.084 129.117)"/>
        <path id="Trazado_2836" data-name="Trazado 2836" d="M10.192,79.091H8.152a1.342,1.342,0,1,1,0-2.684h2.04a1.342,1.342,0,0,1,0,2.684" transform="translate(17.565 197.076)"/>
        <path id="Trazado_2837" data-name="Trazado 2837" d="M37.078,82.423H13.852a1.342,1.342,0,1,1,0-2.684H37.078a1.342,1.342,0,1,1,0,2.684" transform="translate(32.267 205.67)"/>
        <path id="Trazado_2838" data-name="Trazado 2838" d="M25.242,82.423H23.023a1.342,1.342,0,1,1,0-2.684h2.219a1.342,1.342,0,1,1,0,2.684" transform="translate(55.922 205.67)"/>
        <path id="Trazado_2839" data-name="Trazado 2839" d="M73.6,79.091H11.255a1.342,1.342,0,1,1,0-2.684H73.6a1.342,1.342,0,1,1,0,2.684" transform="translate(25.569 197.076)"/>
        <path id="Trazado_2840" data-name="Trazado 2840" d="M34.841,58.241H19.929a1.342,1.342,0,0,1,0-2.684H34.841a1.342,1.342,0,0,1,0,2.684" transform="translate(47.941 143.298)"/>
        <path id="Trazado_2841" data-name="Trazado 2841" d="M22.012,71.07a1.343,1.343,0,0,1-1.342-1.342V54.816a1.342,1.342,0,1,1,2.684,0V69.728a1.343,1.343,0,0,1-1.342,1.342" transform="translate(53.314 137.925)"/>
        <path id="Trazado_2842" data-name="Trazado 2842" d="M53.644,87.592H42.705a1.342,1.342,0,0,1,0-2.684H53.644a1.342,1.342,0,0,1,0,2.684" transform="translate(106.687 219.003)"/>
        <path id="Trazado_2843" data-name="Trazado 2843" d="M44.233,97a1.343,1.343,0,0,1-1.342-1.342V84.722a1.342,1.342,0,1,1,2.684,0V95.661A1.343,1.343,0,0,1,44.233,97" transform="translate(110.629 215.062)"/>
        <path id="Trazado_2844" data-name="Trazado 2844" d="M79.176,18.937H64.264a1.342,1.342,0,1,1,0-2.684H79.176a1.342,1.342,0,1,1,0,2.684" transform="translate(162.294 41.921)"/>
        <path id="Trazado_2845" data-name="Trazado 2845" d="M66.348,31.766a1.343,1.343,0,0,1-1.342-1.342V15.512a1.342,1.342,0,1,1,2.684,0V30.424a1.343,1.343,0,0,1-1.342,1.342" transform="translate(167.67 36.549)"/>
        <path id="Trazado_2846" data-name="Trazado 2846" d="M97.849,10.684h-2.04a1.342,1.342,0,0,1,0-2.684h2.04a1.342,1.342,0,1,1,0,2.684" transform="translate(243.658 20.634)"/>
        <path id="Trazado_2847" data-name="Trazado 2847" d="M106.954,14.017H83.724a1.342,1.342,0,0,1,0-2.684h23.23a1.342,1.342,0,1,1,0,2.684" transform="translate(212.487 29.231)"/>
        <path id="Trazado_2848" data-name="Trazado 2848" d="M82.37,14.017H80.551a1.342,1.342,0,1,1,0-2.684H82.37a1.342,1.342,0,1,1,0,2.684" transform="translate(204.303 29.231)"/>
        <path id="Trazado_2849" data-name="Trazado 2849" d="M134.064,10.684H77.393a1.342,1.342,0,0,1,0-2.684h56.671a1.342,1.342,0,0,1,0,2.684" transform="translate(196.158 20.634)"/>
        <path id="Trazado_2850" data-name="Trazado 2850" d="M107.131,31.572a6.711,6.711,0,1,1,6.711-6.711,6.718,6.718,0,0,1-6.711,6.711m0-10.738a4.027,4.027,0,1,0,4.027,4.027,4.033,4.033,0,0,0-4.027-4.027" transform="translate(259.013 46.814)"/>
        <path id="Trazado_2851" data-name="Trazado 2851" d="M99.215,83.871a8.8,8.8,0,1,1,8.8-8.8,8.809,8.809,0,0,1-8.8,8.8m0-14.911a6.113,6.113,0,1,0,6.113,6.113,6.119,6.119,0,0,0-6.113-6.113" transform="translate(233.212 170.943)"/>
        <path id="Trazado_2852" data-name="Trazado 2852" d="M110.37,52.743h-1.786a1.342,1.342,0,1,1,0-2.684h1.786a1.342,1.342,0,0,1,0,2.684" transform="translate(276.609 129.117)"/>
        <path id="Trazado_2853" data-name="Trazado 2853" d="M50,95.78A10.564,10.564,0,1,1,39.429,85.214,10.565,10.565,0,0,1,50,95.78" transform="translate(74.457 219.792)" fill="#ffcd00"/>
        <path id="Trazado_2854" data-name="Trazado 2854" d="M94.439,53.518a5.061,5.061,0,1,1-5.061,5.061,5.061,5.061,0,0,1,5.061-5.061" transform="translate(230.532 138.039)" fill="#ffcd00"/>
        <path id="Trazado_2855" data-name="Trazado 2855" d="M104.316,65.361a1.787,1.787,0,0,0,1.263-3.053l-2.531-2.534a1.783,1.783,0,0,0-1.263-.523H54.926a1.793,1.793,0,0,0-1.79,1.79,1.8,1.8,0,0,0,.523,1.267l2.531,2.531a1.8,1.8,0,0,0,1.267.523Zm0,15.062a1.787,1.787,0,0,0,1.263-3.053l-2.513-2.513-.018-.021a1.783,1.783,0,0,0-1.263-.523H54.926a1.793,1.793,0,0,0-1.79,1.79,1.8,1.8,0,0,0,.523,1.267L56.189,79.9a1.8,1.8,0,0,0,1.267.523Zm0,15.065a1.789,1.789,0,0,0,1.263-3.057L103.049,89.9a1.783,1.783,0,0,0-1.263-.523H54.926a1.789,1.789,0,0,0-1.267,3.053l2.531,2.531a1.786,1.786,0,0,0,1.267.526Zm0,15.062a1.789,1.789,0,0,0,1.263-3.057l-2.531-2.531a1.768,1.768,0,0,0-1.263-.523H54.926a1.789,1.789,0,0,0-1.267,3.053l2.531,2.531a1.785,1.785,0,0,0,1.267.526ZM189.6,65.361a1.789,1.789,0,0,0,1.267-3.053l-2.534-2.534a1.783,1.783,0,0,0-1.263-.523H140.21a1.8,1.8,0,0,0-1.79,1.79,1.785,1.785,0,0,0,.526,1.267l2.527,2.531a1.8,1.8,0,0,0,1.267.523ZM154.484,95.488a1.792,1.792,0,0,0,1.267-3.057L153.22,89.9a1.8,1.8,0,0,0-1.264-.523H140.21a1.789,1.789,0,0,0-1.267,3.053l2.531,2.531a1.785,1.785,0,0,0,1.267.526ZM189.6,80.422a1.789,1.789,0,0,0,1.263-3.057l-2.531-2.531a1.783,1.783,0,0,0-1.263-.523H140.21a1.8,1.8,0,0,0-1.79,1.79,1.8,1.8,0,0,0,.523,1.267l2.527,2.523,0,.007a1.8,1.8,0,0,0,1.267.523Zm-70.265,71.915-1.052-1.052a15.741,15.741,0,0,0-11.167-4.635H40.1V43.226h69.535a12.147,12.147,0,0,1,7.28,2.409,12.166,12.166,0,0,1,2.412,7.28Zm22.857.422a1.789,1.789,0,0,0,1.267-3.053l-2.534-2.534a1.783,1.783,0,0,0-1.264-.523h-4.528a15.719,15.719,0,0,0-9.689,3.329V55.446a12.234,12.234,0,0,1,12.223-12.22h67V86.851a1.783,1.783,0,0,0,.523,1.263l2.531,2.531a1.789,1.789,0,0,0,3.057-1.263V41.437a1.785,1.785,0,0,0-.523-1.267l-2.534-2.531a1.771,1.771,0,0,0-1.263-.526H135.131a15.732,15.732,0,0,0-9.983,3.565,15.908,15.908,0,0,0-3.676,4.306c-.211-.243-.433-.476-.662-.705l-2.531-2.531a15.756,15.756,0,0,0-11.167-4.635H35.784a1.8,1.8,0,0,0-1.79,1.79V148.44a1.786,1.786,0,0,0,.526,1.267l2.531,2.531a1.783,1.783,0,0,0,1.263.523h71.325a12.169,12.169,0,0,1,7.284,2.412,12.171,12.171,0,0,1,2.409,7.28,1.783,1.783,0,0,0,.523,1.264l.021.021,2.509,2.509a1.8,1.8,0,0,0,1.088.515,1.5,1.5,0,0,0,.179.011,1.79,1.79,0,0,0,1.79-1.79,12.237,12.237,0,0,1,12.223-12.223Zm44.208-9.342-5.4.072v-4.377c0-3.229,2.491-4.832,5.752-6.593,4.03-2.173,6.883-4.009,6.883-7.91a8.881,8.881,0,0,0-2.6-6.289l-2.534-2.531a8.58,8.58,0,0,0-6.085-2.538,9.788,9.788,0,0,0-6.357,2.309,14.6,14.6,0,0,0-2.706,2.989l-3.816-2.187c3.916-5.491,9.328-8.49,15.409-8.49a16.434,16.434,0,0,1,10.344,3.658,16.757,16.757,0,0,1,3.719,10.548c0,4.879-2.541,7.785-5.376,10.1-.755.616-1.528,1.192-2.284,1.75-.691.512-1.346,1-1.936,1.482a11.216,11.216,0,0,0-2.04,2.069c-.4.555-.838,1.518-.974,5.934m2.634,6.11a3.451,3.451,0,0,0,3.472-3.375,29.387,29.387,0,0,1,.319-4.07,16.335,16.335,0,0,1,3.189-2.745c3.841-2.849,9.106-6.754,9.106-14.729a20.327,20.327,0,0,0-5.967-14.41l-2.531-2.531a20.037,20.037,0,0,0-14.206-5.906,21.141,21.141,0,0,0-13.6,4.893,26.952,26.952,0,0,0-5.909,6.894,2.66,2.66,0,0,0,.394,3.261l2.523,2.523.007.007a2.749,2.749,0,0,0,.551.422l8.5,4.864a2.639,2.639,0,0,0,3.547-.9c1.847-2.935,3.98-4.36,6.521-4.36a4.967,4.967,0,0,1,2.072.451,5.313,5.313,0,0,1,.5,2.262,2.925,2.925,0,0,1-1.357,2.5,24.417,24.417,0,0,1-3.647,2.262,24.757,24.757,0,0,0-3.973,2.52,9.047,9.047,0,0,0-3.662,7.223v6.94a3.457,3.457,0,0,0,1.017,2.455l.029.025,2.5,2.506a3.466,3.466,0,0,0,2.455,1.02Zm15.505,5.816a34.477,34.477,0,0,1-10.62,5.92,8.965,8.965,0,0,0-2.634-6.292l-2.531-2.531a8.965,8.965,0,0,0-14.668,9.668,34.514,34.514,0,0,1-14.779-7.871,34.7,34.7,0,0,1,49-49.015,34.729,34.729,0,0,1-3.773,50.121m-15.395,13.709a38.265,38.265,0,0,0,22.993-65.129l-2.531-2.531a38.279,38.279,0,0,0-54.126,54.144l2.531,2.531a38.088,38.088,0,0,0,22.668,10.938l.039.007a1.79,1.79,0,0,0,1.428-3.05l-1.736-1.736a5.391,5.391,0,0,1,6.865-7.778,5.395,5.395,0,0,1-1.45,6.507,4.238,4.238,0,0,1-.4.3c-.047.032-.093.064-.136.1a1.791,1.791,0,0,0-.548,2,1.814,1.814,0,0,0,.415.651l2.534,2.531a1.779,1.779,0,0,0,1.264.526,1.806,1.806,0,0,0,.193-.011" transform="translate(87.681 95.725)" fill="#fff"/>
        <path id="Trazado_2856" data-name="Trazado 2856" d="M121.121,164.236a1.788,1.788,0,0,1-1.79-1.79,12.237,12.237,0,0,0-12.223-12.223H35.784a1.79,1.79,0,0,1-1.79-1.79V38.9a1.79,1.79,0,0,1,1.79-1.79h71.325a15.817,15.817,0,0,1,15.8,15.8V162.447a1.79,1.79,0,0,1-1.79,1.79M37.573,146.644h69.535a15.767,15.767,0,0,1,12.223,5.8V52.913a12.237,12.237,0,0,0-12.223-12.22H37.573Z" transform="translate(87.681 95.728)"/>
        <path id="Trazado_2857" data-name="Trazado 2857" d="M59.626,164.239a1.79,1.79,0,0,1-1.79-1.79V52.916a15.82,15.82,0,0,1,15.8-15.8h71.325a1.79,1.79,0,0,1,1.79,1.79V86.847a1.79,1.79,0,1,1-3.579,0V40.692H73.639A12.237,12.237,0,0,0,61.415,52.916v99.529a15.789,15.789,0,0,1,12.223-5.8h4.524a1.79,1.79,0,1,1,0,3.579H73.639a12.237,12.237,0,0,0-12.223,12.223,1.79,1.79,0,0,1-1.79,1.79" transform="translate(149.176 95.725)"/>
        <path id="Trazado_2858" data-name="Trazado 2858" d="M87.989,46.877H41.133a1.79,1.79,0,0,1,0-3.579H87.989a1.79,1.79,0,0,1,0,3.579" transform="translate(101.477 111.678)"/>
        <path id="Trazado_2859" data-name="Trazado 2859" d="M87.989,51.085H41.133a1.79,1.79,0,0,1,0-3.579H87.989a1.79,1.79,0,0,1,0,3.579" transform="translate(101.477 122.532)"/>
        <path id="Trazado_2860" data-name="Trazado 2860" d="M87.989,55.293H41.133a1.79,1.79,0,0,1,0-3.579H87.989a1.79,1.79,0,0,1,0,3.579" transform="translate(101.477 133.386)"/>
        <path id="Trazado_2861" data-name="Trazado 2861" d="M111.819,46.877H64.959a1.79,1.79,0,1,1,0-3.579h46.86a1.79,1.79,0,1,1,0,3.579" transform="translate(162.931 111.678)"/>
        <path id="Trazado_2862" data-name="Trazado 2862" d="M111.819,51.085H64.959a1.79,1.79,0,1,1,0-3.579h46.86a1.79,1.79,0,1,1,0,3.579" transform="translate(162.931 122.532)"/>
        <path id="Trazado_2863" data-name="Trazado 2863" d="M76.706,55.293H64.959a1.79,1.79,0,1,1,0-3.579H76.706a1.79,1.79,0,1,1,0,3.579" transform="translate(162.931 133.386)"/>
        <path id="Trazado_2864" data-name="Trazado 2864" d="M87.989,59.5H41.133a1.79,1.79,0,0,1,0-3.579H87.989a1.79,1.79,0,0,1,0,3.579" transform="translate(101.477 144.242)"/>
        <path id="Trazado_2865" data-name="Trazado 2865" d="M93.889,100.41h-8.15a3.479,3.479,0,0,1-3.475-3.476v-6.94c0-5.616,4.782-8.2,7.638-9.739,4.245-2.291,5-3.243,5-4.764a5.182,5.182,0,0,0-5.1-5.247c-2.538,0-4.667,1.428-6.518,4.363a2.643,2.643,0,0,1-3.554.9l-8.494-4.864a2.661,2.661,0,0,1-.949-3.68c4.649-7.6,11.579-11.79,19.514-11.79a20.27,20.27,0,0,1,20.176,20.316c0,7.975-5.265,11.88-9.109,14.729a16.456,16.456,0,0,0-3.189,2.749,27.1,27.1,0,0,0-.315,4.066,3.458,3.458,0,0,1-3.472,3.375M89.8,66.665a8.765,8.765,0,0,1,8.683,8.827c0,3.894-2.849,5.738-6.876,7.914-3.268,1.761-5.763,3.361-5.763,6.589v6.94l7.942-.1c.136-4.406.569-5.369.966-5.927a17.735,17.735,0,0,1,3.984-3.558c3.586-2.663,7.66-5.68,7.66-11.855A16.684,16.684,0,0,0,89.8,58.754c-6.357,0-11.987,3.282-15.942,9.267l6.883,3.941c2.445-3.515,5.487-5.3,9.059-5.3m4.091,30.166h0Z" transform="translate(180.296 142.313)"/>
        <path id="Trazado_2866" data-name="Trazado 2866" d="M106.955,128.3a1.791,1.791,0,0,1-1-3.275,5.394,5.394,0,1,0-6.06-.032,1.79,1.79,0,0,1,.666,2.1,1.75,1.75,0,0,1-1.883,1.153,38.265,38.265,0,1,1,8.465.043,1.689,1.689,0,0,1-.19.011m-4.005-16.722a8.975,8.975,0,0,1,8.3,12.384,34.712,34.712,0,1,0-16.626-.079,8.968,8.968,0,0,1,8.329-12.306" transform="translate(167.143 133.956)"/>
      </g>
    </g>
  </g>
</svg>
