<svg xmlns="http://www.w3.org/2000/svg" xmlns:xlink="http://www.w3.org/1999/xlink" width="415.853" height="350.142" viewBox="0 0 415.853 350.142">
  <defs>
    <clipPath id="clip-path">
      <rect id="Rectángulo_468" data-name="Rectángulo 468" width="415.853" height="350.142" fill="none"/>
    </clipPath>
    <clipPath id="clip-path-2">
      <rect id="Rectángulo_467" data-name="Rectángulo 467" width="415.853" height="350.141" fill="none"/>
    </clipPath>
    <clipPath id="clip-path-3">
      <rect id="Rectángulo_463" data-name="Rectángulo 463" width="105.878" height="50.038" fill="none"/>
    </clipPath>
    <clipPath id="clip-path-4">
      <rect id="Rectángulo_464" data-name="Rectángulo 464" width="255.781" height="50.037" fill="none"/>
    </clipPath>
    <clipPath id="clip-path-5">
      <rect id="Rectángulo_465" data-name="Rectángulo 465" width="210.529" height="50.038" fill="none"/>
    </clipPath>
    <clipPath id="clip-path-6">
      <rect id="Rectángulo_466" data-name="Rectángulo 466" width="141.67" height="50.038" fill="none"/>
    </clipPath>
  </defs>
  <g id="Grupo_3209" data-name="Grupo 3209" transform="translate(0 0)">
    <g id="Grupo_3208" data-name="Grupo 3208" transform="translate(0 0)" clip-path="url(#clip-path)">
      <g id="Grupo_3207" data-name="Grupo 3207" transform="translate(0 0.001)">
        <g id="Grupo_3206" data-name="Grupo 3206" clip-path="url(#clip-path-2)">
          <g id="Grupo_3196" data-name="Grupo 3196" transform="translate(0 194.708)" opacity="0.4">
            <g id="Grupo_3195" data-name="Grupo 3195">
              <g id="Grupo_3194" data-name="Grupo 3194" clip-path="url(#clip-path-3)">
                <path id="Trazado_2867" data-name="Trazado 2867" d="M12.51,63.719H8.34a8.34,8.34,0,1,0,0,16.68h4.17a8.34,8.34,0,1,0,0-16.68" transform="translate(0 -30.36)" fill="#d4d8e4"/>
                <path id="Trazado_2868" data-name="Trazado 2868" d="M91.868,87.758h-15.8a8.34,8.34,0,0,1,0-16.68H82.25a8.34,8.34,0,0,0,0-16.68H10.543a8.34,8.34,0,0,0,0,16.68H35.4a8.34,8.34,0,0,1,0,16.68H31a8.34,8.34,0,0,0,.011,16.68H91.857a8.34,8.34,0,0,0,.011-16.68" transform="translate(5.682 -54.399)" fill="#d4d8e4"/>
              </g>
            </g>
          </g>
          <g id="Grupo_3199" data-name="Grupo 3199" transform="translate(147.251 300.103)" opacity="0.4">
            <g id="Grupo_3198" data-name="Grupo 3198">
              <g id="Grupo_3197" data-name="Grupo 3197" clip-path="url(#clip-path-4)">
                <path id="Trazado_2869" data-name="Trazado 2869" d="M63.74,100.524h4.17a8.34,8.34,0,1,0,0-16.679H63.74a8.34,8.34,0,0,0,0,16.679" transform="translate(-4.359 -83.844)" fill="#d4d8e4"/>
                <path id="Trazado_2870" data-name="Trazado 2870" d="M288.583,117.2H242.056a8.34,8.34,0,1,1,0-16.68h8.537a8.34,8.34,0,0,0-.014-16.679h-121.7a8.34,8.34,0,0,0-.011,16.679h28.749a8.34,8.34,0,0,1,0,16.68H49.482a8.34,8.34,0,0,0-.014,16.68H288.594a8.34,8.34,0,0,0-.011-16.68" transform="translate(-41.142 -83.844)" fill="#d4d8e4"/>
              </g>
            </g>
          </g>
          <g id="Grupo_3202" data-name="Grupo 3202" transform="translate(12.117 -0.001)" opacity="0.4">
            <g id="Grupo_3201" data-name="Grupo 3201">
              <g id="Grupo_3200" data-name="Grupo 3200" clip-path="url(#clip-path-5)">
                <path id="Trazado_2871" data-name="Trazado 2871" d="M68.889,0h-4.17a8.34,8.34,0,0,0,0,16.68h4.17a8.34,8.34,0,0,0,0-16.68" transform="translate(133.301)" fill="#d4d8e4"/>
                <path id="Trazado_2872" data-name="Trazado 2872" d="M15.895,9.32h-4.17a8.34,8.34,0,1,0,0,16.68h4.17a8.34,8.34,0,0,0,0-16.68" transform="translate(-3.386 24.039)" fill="#d4d8e4"/>
                <path id="Trazado_2873" data-name="Trazado 2873" d="M177.143,33.359h-33.7a8.34,8.34,0,0,1,0-16.68h13.344a8.34,8.34,0,0,0,0-16.68H52.866a8.34,8.34,0,0,0,0,16.68h17.7a8.34,8.34,0,0,1,0,16.68H19.636a8.34,8.34,0,0,0,.011,16.68H177.132a8.34,8.34,0,0,0,.011-16.68" transform="translate(17.047)" fill="#d4d8e4"/>
              </g>
            </g>
          </g>
          <path id="Trazado_2874" data-name="Trazado 2874" d="M78.425,23.522H24.75a1.79,1.79,0,0,1,0-3.579H78.425a1.79,1.79,0,1,1,0,3.579" transform="translate(59.221 51.437)"/>
          <path id="Trazado_2875" data-name="Trazado 2875" d="M44.031,23.522H42.245a1.79,1.79,0,1,1,0-3.579h1.786a1.79,1.79,0,1,1,0,3.579" transform="translate(104.345 51.437)"/>
          <path id="Trazado_2876" data-name="Trazado 2876" d="M75.236,26.688H18.587a1.79,1.79,0,0,1,0-3.579H75.236a1.79,1.79,0,0,1,0,3.579" transform="translate(43.324 59.603)"/>
          <path id="Trazado_2877" data-name="Trazado 2877" d="M28.04,50.764a9.245,9.245,0,1,1,9.242-9.245,9.257,9.257,0,0,1-9.242,9.245m0-14.911A5.666,5.666,0,1,0,33.7,41.518a5.672,5.672,0,0,0-5.662-5.666" transform="translate(48.478 83.24)"/>
          <path id="Trazado_2878" data-name="Trazado 2878" d="M158.546,50.181H94.731a1.79,1.79,0,0,1,0-3.579h63.815a1.79,1.79,0,0,1,0,3.579" transform="translate(239.722 120.199)"/>
          <path id="Trazado_2879" data-name="Trazado 2879" d="M121.436,53.514H100.562a1.79,1.79,0,1,1,0-3.579h20.874a1.79,1.79,0,1,1,0,3.579" transform="translate(254.762 128.796)"/>
          <path id="Trazado_2880" data-name="Trazado 2880" d="M10.512,79.862H8.476a1.79,1.79,0,1,1,0-3.579h2.037a1.79,1.79,0,1,1,0,3.579" transform="translate(17.245 196.755)"/>
          <path id="Trazado_2881" data-name="Trazado 2881" d="M37.4,83.194H14.175a1.79,1.79,0,1,1,0-3.579H37.4a1.79,1.79,0,1,1,0,3.579" transform="translate(31.945 205.349)"/>
          <path id="Trazado_2882" data-name="Trazado 2882" d="M25.56,83.194H23.348a1.79,1.79,0,1,1,0-3.579H25.56a1.79,1.79,0,1,1,0,3.579" transform="translate(55.604 205.349)"/>
          <path id="Trazado_2883" data-name="Trazado 2883" d="M73.921,79.862H11.577a1.79,1.79,0,1,1,0-3.579H73.921a1.79,1.79,0,1,1,0,3.579" transform="translate(25.244 196.755)"/>
          <path id="Trazado_2884" data-name="Trazado 2884" d="M40.163,51.012H25.252a1.79,1.79,0,1,1,0-3.579H40.163a1.79,1.79,0,1,1,0,3.579" transform="translate(60.515 122.342)"/>
          <path id="Trazado_2885" data-name="Trazado 2885" d="M27.335,63.84a1.79,1.79,0,0,1-1.79-1.79V47.139a1.79,1.79,0,1,1,3.579,0V62.05a1.79,1.79,0,0,1-1.79,1.79" transform="translate(65.888 116.967)"/>
          <path id="Trazado_2886" data-name="Trazado 2886" d="M53.966,88.363H43.028a1.79,1.79,0,0,1,0-3.579H53.966a1.79,1.79,0,1,1,0,3.579" transform="translate(106.365 218.681)"/>
          <path id="Trazado_2887" data-name="Trazado 2887" d="M44.556,97.774a1.79,1.79,0,0,1-1.79-1.79V85.046a1.79,1.79,0,1,1,3.579,0V95.984a1.79,1.79,0,0,1-1.79,1.79" transform="translate(110.306 214.74)"/>
          <path id="Trazado_2888" data-name="Trazado 2888" d="M79.5,19.708H64.588a1.79,1.79,0,1,1,0-3.579H79.5a1.79,1.79,0,1,1,0,3.579" transform="translate(161.975 41.6)"/>
          <path id="Trazado_2889" data-name="Trazado 2889" d="M66.671,32.536a1.79,1.79,0,0,1-1.79-1.79V15.835a1.79,1.79,0,0,1,3.579,0V30.746a1.79,1.79,0,0,1-1.79,1.79" transform="translate(167.347 36.225)"/>
          <path id="Trazado_2890" data-name="Trazado 2890" d="M98.169,11.455H96.133a1.79,1.79,0,1,1,0-3.579h2.037a1.79,1.79,0,1,1,0,3.579" transform="translate(243.338 20.313)"/>
          <path id="Trazado_2891" data-name="Trazado 2891" d="M107.274,14.787H84.048a1.79,1.79,0,1,1,0-3.579h23.226a1.79,1.79,0,1,1,0,3.579" transform="translate(212.168 28.907)"/>
          <path id="Trazado_2892" data-name="Trazado 2892" d="M82.695,14.787H80.873a1.79,1.79,0,0,1,0-3.579h1.822a1.79,1.79,0,1,1,0,3.579" transform="translate(203.978 28.907)"/>
          <path id="Trazado_2893" data-name="Trazado 2893" d="M134.384,11.455H77.717a1.79,1.79,0,1,1,0-3.579h56.667a1.79,1.79,0,0,1,0,3.579" transform="translate(195.838 20.313)"/>
          <path id="Trazado_2894" data-name="Trazado 2894" d="M102.454,31.343a7.159,7.159,0,1,1,7.159-7.159,7.166,7.166,0,0,1-7.159,7.159m0-10.738a3.579,3.579,0,1,0,3.579,3.579,3.583,3.583,0,0,0-3.579-3.579" transform="translate(245.794 43.914)"/>
          <path id="Trazado_2895" data-name="Trazado 2895" d="M100.537,85.641a9.245,9.245,0,1,1,9.245-9.245,9.257,9.257,0,0,1-9.245,9.245m0-14.911A5.666,5.666,0,1,0,106.2,76.4a5.672,5.672,0,0,0-5.666-5.666" transform="translate(235.469 173.198)"/>
          <path id="Trazado_2896" data-name="Trazado 2896" d="M110.693,53.514h-1.786a1.79,1.79,0,1,1,0-3.579h1.786a1.79,1.79,0,0,1,0,3.579" transform="translate(276.286 128.796)"/>
          <path id="Trazado_2897" data-name="Trazado 2897" d="M56.154,97.36A14.144,14.144,0,1,1,42.009,83.215,14.146,14.146,0,0,1,56.154,97.36" transform="translate(71.877 214.635)" fill="#ffcd00"/>
          <path id="Trazado_2898" data-name="Trazado 2898" d="M108.249,48.889A31.36,31.36,0,1,1,76.891,80.247a31.359,31.359,0,0,1,31.358-31.358" transform="translate(198.325 126.098)" fill="#ffcd00"/>
          <g id="Grupo_3205" data-name="Grupo 3205" transform="translate(274.183 86.202)" opacity="0.4">
            <g id="Grupo_3204" data-name="Grupo 3204">
              <g id="Grupo_3203" data-name="Grupo 3203" clip-path="url(#clip-path-6)">
                <path id="Trazado_2899" data-name="Trazado 2899" d="M118.7,40.764h4.17a8.34,8.34,0,1,0,0-16.68H118.7a8.34,8.34,0,0,0,0,16.68" transform="translate(10.463 -24.083)" fill="#d4d8e4"/>
                <path id="Trazado_2900" data-name="Trazado 2900" d="M84.931,40.764h40.858a8.34,8.34,0,1,1,0,16.68h-9.764a8.34,8.34,0,0,0,0,16.68H198.47a8.34,8.34,0,0,0,0-16.68H173.612a8.34,8.34,0,0,1,0-16.68h7.978a8.34,8.34,0,0,0-.011-16.68H84.942a8.34,8.34,0,0,0-.011,16.68" transform="translate(-76.604 -24.083)" fill="#d4d8e4"/>
              </g>
            </g>
          </g>
          <path id="Trazado_2901" data-name="Trazado 2901" d="M17.531,26.688H15.745a1.79,1.79,0,1,1,0-3.579h1.786a1.79,1.79,0,0,1,0,3.579" transform="translate(35.994 59.603)"/>
          <path id="Trazado_2902" data-name="Trazado 2902" d="M113.521,84.872a30.8,30.8,0,0,1-39.966-.848,30.8,30.8,0,0,1,43.492-43.488,30.806,30.806,0,0,1-3.526,44.337M96.566,97.93a34.385,34.385,0,0,0,24.314-58.7L118.346,36.7A34.382,34.382,0,1,0,69.725,85.327l2.488,2.491.043.039A34.273,34.273,0,0,0,96.566,97.93m53.385,37.536H99.794a1.772,1.772,0,0,0-1.135.4,1.8,1.8,0,0,0-.591.895L91.712,159.15H68.565v-12.9a1.783,1.783,0,0,0-.523-1.263l-2.531-2.531a1.79,1.79,0,0,0-3.057,1.263v13.53a5.474,5.474,0,0,0,1.607,3.876l2.531,2.531a5.467,5.467,0,0,0,3.876,1.607H89.976l-6.332,22.292H55.515a17.969,17.969,0,0,1-11.436-4.091,17.984,17.984,0,0,1-4.091-11.436V144.578a32.864,32.864,0,0,1,32.829-32.829h47.5a32.813,32.813,0,0,1,21.927,8.44,32.6,32.6,0,0,1,7.71,15.276m23.061,74.428H84.271l4.972-17.5.007-.032.011-.032,14.417-50.754h88.745ZM176.9,216a1.787,1.787,0,0,0,1.722-1.3l21.15-74.431a1.815,1.815,0,0,0-.294-1.568,2.033,2.033,0,0,0-.165-.186l-2.531-2.531a1.79,1.79,0,0,0-1.267-.523H155.57a36.281,36.281,0,0,0-9.5-16.569l-2.531-2.531a36.425,36.425,0,0,0-25.753-10.727h-47.5a36.448,36.448,0,0,0-36.409,36.409v27.446a21.567,21.567,0,0,0,6.343,15.291l.419.419,2.112,2.112a21.57,21.57,0,0,0,15.294,6.346H81.909l-4.614,16.232H41.044a1.787,1.787,0,0,0-1.79,1.79,1.8,1.8,0,0,0,.523,1.267l2.531,2.531a1.8,1.8,0,0,0,1.267.523H176.9Z" transform="translate(87.381 68.685)" fill="#fff"/>
          <path id="Trazado_2903" data-name="Trazado 2903" d="M75.462,95.393a34.381,34.381,0,1,1,34.379-34.379A34.42,34.42,0,0,1,75.462,95.393m0-65.183a30.8,30.8,0,1,0,30.8,30.8,30.838,30.838,0,0,0-30.8-30.8" transform="translate(105.955 68.688)"/>
          <path id="Trazado_2904" data-name="Trazado 2904" d="M143.392,135.044H47.678a1.791,1.791,0,0,1-1.725-2.28L67.1,58.336a1.787,1.787,0,0,1,1.722-1.3h95.718a1.792,1.792,0,0,1,1.432.709,1.816,1.816,0,0,1,.294,1.568l-21.146,74.431a1.794,1.794,0,0,1-1.725,1.3m-93.344-3.579h91.991l20.13-70.849h-92Z" transform="translate(118.355 147.114)"/>
          <path id="Trazado_2905" data-name="Trazado 2905" d="M72.3,79.645H47.342a5.487,5.487,0,0,1-5.48-5.48V60.632a1.79,1.79,0,0,1,3.579,0V74.165a1.9,1.9,0,0,0,1.9,1.9H72.3a1.79,1.79,0,0,1,0,3.579" transform="translate(107.974 151.769)"/>
          <path id="Trazado_2906" data-name="Trazado 2906" d="M74.777,81.41H37.17a1.79,1.79,0,1,1,0-3.579H74.777a1.79,1.79,0,1,1,0,3.579" transform="translate(91.255 200.748)"/>
          <path id="Trazado_2907" data-name="Trazado 2907" d="M69.964,85.827a1.632,1.632,0,0,1-1.153-2.785L120.894,30.96a1.63,1.63,0,1,1,2.305,2.305L71.116,85.348a1.624,1.624,0,0,1-1.153.48" transform="translate(176.252 78.622)" fill="#fff"/>
          <path id="Trazado_2908" data-name="Trazado 2908" d="M127.539,95.011A36.745,36.745,0,0,1,79.49,93.662a36.746,36.746,0,0,1,51.918-51.914,36.749,36.749,0,0,1-3.869,53.263M106.6,108.867a40.007,40.007,0,0,0,28.291-68.3l-2.309-2.309A40.007,40.007,0,1,0,76.008,94.84l2.305,2.309A39.881,39.881,0,0,0,106.6,108.867" transform="translate(165.82 68.461)" fill="#fff"/>
          <path id="Trazado_2909" data-name="Trazado 2909" d="M104.295,106.557A40.008,40.008,0,1,1,144.3,66.551a40.051,40.051,0,0,1-40.009,40.006m0-76.751A36.743,36.743,0,1,0,141.04,66.551a36.788,36.788,0,0,0-36.745-36.745" transform="translate(165.82 68.458)" fill="#f0004b"/>
          <path id="Trazado_2910" data-name="Trazado 2910" d="M69.366,85.334a1.632,1.632,0,0,1-1.153-2.785L120.3,30.467a1.63,1.63,0,1,1,2.305,2.305L70.518,84.855a1.624,1.624,0,0,1-1.153.48" transform="translate(174.71 77.35)" fill="#f0004b"/>
          <path id="Trazado_2911" data-name="Trazado 2911" d="M85,134.2H55.515a21.659,21.659,0,0,1-21.637-21.633V85.113A36.449,36.449,0,0,1,70.287,48.7h47.5a36.533,36.533,0,0,1,36.058,31.365,1.789,1.789,0,0,1-3.544.494,32.939,32.939,0,0,0-32.514-28.28h-47.5A32.864,32.864,0,0,0,37.457,85.113v27.45a18.074,18.074,0,0,0,18.058,18.054H85a1.79,1.79,0,0,1,0,3.579" transform="translate(87.381 125.621)"/>
        </g>
      </g>
    </g>
  </g>
</svg>
