<svg id="Grupo_3164" data-name="Grupo 3164" xmlns="http://www.w3.org/2000/svg" xmlns:xlink="http://www.w3.org/1999/xlink" width="415.853" height="383.5" viewBox="0 0 415.853 383.5">
  <defs>
    <clipPath id="clip-path">
      <rect id="Rectángulo_451" data-name="Rectángulo 451" width="415.853" height="383.5" fill="none"/>
    </clipPath>
    <clipPath id="clip-path-3">
      <rect id="Rectángulo_446" data-name="Rectángulo 446" width="105.878" height="50.038" fill="none"/>
    </clipPath>
    <clipPath id="clip-path-4">
      <rect id="Rectángulo_447" data-name="Rectángulo 447" width="262.037" height="83.396" fill="none"/>
    </clipPath>
    <clipPath id="clip-path-5">
      <rect id="Rectángulo_448" data-name="Rectángulo 448" width="210.529" height="50.036" fill="none"/>
    </clipPath>
    <clipPath id="clip-path-6">
      <rect id="Rectángulo_449" data-name="Rectángulo 449" width="141.67" height="50.038" fill="none"/>
    </clipPath>
  </defs>
  <g id="Grupo_3163" data-name="Grupo 3163" clip-path="url(#clip-path)">
    <g id="Grupo_3162" data-name="Grupo 3162">
      <g id="Grupo_3161" data-name="Grupo 3161" clip-path="url(#clip-path)">
        <g id="Grupo_3151" data-name="Grupo 3151" transform="translate(0 194.708)" opacity="0.5">
          <g id="Grupo_3150" data-name="Grupo 3150">
            <g id="Grupo_3149" data-name="Grupo 3149" clip-path="url(#clip-path-3)">
              <path id="Trazado_2685" data-name="Trazado 2685" d="M12.51,63.718H8.34a8.34,8.34,0,1,0,0,16.68h4.17a8.34,8.34,0,0,0,0-16.68" transform="translate(0 -30.361)" fill="#d4d8e4"/>
              <path id="Trazado_2686" data-name="Trazado 2686" d="M89.289,87.757h-15.8a8.34,8.34,0,1,1,0-16.68H83.25a8.34,8.34,0,1,0,0-16.68H11.543a8.34,8.34,0,1,0,0,16.68H36.4a8.34,8.34,0,1,1,0,16.68H28.423a8.34,8.34,0,0,0,.011,16.68H89.278a8.34,8.34,0,0,0,.011-16.68" transform="translate(8.261 -54.4)" fill="#d4d8e4"/>
            </g>
          </g>
        </g>
        <path id="Trazado_2687" data-name="Trazado 2687" d="M130.426,75.064A49.453,49.453,0,1,1,80.974,25.612a49.451,49.451,0,0,1,49.452,49.452" transform="translate(81.297 66.061)" fill="#ffcd00"/>
        <g id="Grupo_3154" data-name="Grupo 3154" transform="translate(147.251 300.103)" opacity="0.5">
          <g id="Grupo_3153" data-name="Grupo 3153">
            <g id="Grupo_3152" data-name="Grupo 3152" clip-path="url(#clip-path-4)">
              <path id="Trazado_2688" data-name="Trazado 2688" d="M63.74,100.524h4.17a8.34,8.34,0,0,0,0-16.68H63.74a8.34,8.34,0,0,0,0,16.68" transform="translate(-4.359 -83.845)" fill="#d4d8e4"/>
              <path id="Trazado_2689" data-name="Trazado 2689" d="M121.034,102.484h-4.17a8.34,8.34,0,1,0,0,16.679h4.17a8.34,8.34,0,1,0,0-16.679" transform="translate(132.664 -35.767)" fill="#d4d8e4"/>
              <path id="Trazado_2690" data-name="Trazado 2690" d="M288.583,117.2H242.056a8.34,8.34,0,1,1,0-16.68h8.537a8.34,8.34,0,0,0-.014-16.68h-121.7a8.34,8.34,0,0,0-.011,16.68H139.72a8.34,8.34,0,0,1,0,16.68H49.482a8.34,8.34,0,0,0-.014,16.68H94.424a8.34,8.34,0,0,1,0,16.68H75.6a8.34,8.34,0,1,0,0,16.679H266.484a8.34,8.34,0,1,0,0-16.679H255.739a8.34,8.34,0,0,1,0-16.68h32.854a8.34,8.34,0,0,0-.011-16.68" transform="translate(-41.142 -83.845)" fill="#d4d8e4"/>
            </g>
          </g>
        </g>
        <g id="Grupo_3157" data-name="Grupo 3157" transform="translate(12.117)" opacity="0.5">
          <g id="Grupo_3156" data-name="Grupo 3156">
            <g id="Grupo_3155" data-name="Grupo 3155" clip-path="url(#clip-path-5)">
              <path id="Trazado_2691" data-name="Trazado 2691" d="M68.889,0h-4.17a8.34,8.34,0,0,0,0,16.68h4.17a8.34,8.34,0,0,0,0-16.68" transform="translate(133.301)" fill="#d4d8e4"/>
              <path id="Trazado_2692" data-name="Trazado 2692" d="M15.895,9.319h-4.17a8.34,8.34,0,1,0,0,16.68h4.17a8.34,8.34,0,0,0,0-16.68" transform="translate(-3.386 24.036)" fill="#d4d8e4"/>
              <path id="Trazado_2693" data-name="Trazado 2693" d="M177.143,33.359h-33.7a8.34,8.34,0,0,1,0-16.68h13.344a8.34,8.34,0,0,0,0-16.68H52.866a8.34,8.34,0,0,0,0,16.68h17.7a8.34,8.34,0,0,1,0,16.68H19.636a8.34,8.34,0,0,0,.011,16.68H177.132a8.34,8.34,0,0,0,.011-16.68" transform="translate(17.047)" fill="#d4d8e4"/>
            </g>
          </g>
        </g>
        <path id="Trazado_2694" data-name="Trazado 2694" d="M78.1,22.752H24.427a1.342,1.342,0,0,1,0-2.684H78.1a1.342,1.342,0,1,1,0,2.684" transform="translate(59.543 51.761)"/>
        <path id="Trazado_2695" data-name="Trazado 2695" d="M43.711,22.752h-1.79a1.342,1.342,0,1,1,0-2.684h1.79a1.342,1.342,0,0,1,0,2.684" transform="translate(104.665 51.761)"/>
        <path id="Trazado_2696" data-name="Trazado 2696" d="M92.678,25.917H12.763a1.342,1.342,0,0,1,0-2.684H92.678a1.342,1.342,0,1,1,0,2.684" transform="translate(29.458 59.925)"/>
        <path id="Trazado_2697" data-name="Trazado 2697" d="M28.717,51.993a8.8,8.8,0,1,1,8.8-8.8,8.809,8.809,0,0,1-8.8,8.8m0-14.911a6.113,6.113,0,1,0,6.113,6.113,6.122,6.122,0,0,0-6.113-6.113" transform="translate(51.377 88.72)"/>
        <path id="Trazado_2698" data-name="Trazado 2698" d="M158.223,49.411H94.408a1.342,1.342,0,0,1,0-2.684h63.815a1.342,1.342,0,0,1,0,2.684" transform="translate(240.045 120.523)"/>
        <path id="Trazado_2699" data-name="Trazado 2699" d="M121.114,52.743H100.239a1.342,1.342,0,0,1,0-2.684h20.874a1.342,1.342,0,1,1,0,2.684" transform="translate(255.084 129.117)"/>
        <path id="Trazado_2700" data-name="Trazado 2700" d="M10.192,79.091H8.152a1.342,1.342,0,1,1,0-2.684h2.04a1.342,1.342,0,0,1,0,2.684" transform="translate(17.565 197.076)"/>
        <path id="Trazado_2701" data-name="Trazado 2701" d="M37.081,82.424H13.851a1.342,1.342,0,0,1,0-2.684h23.23a1.342,1.342,0,1,1,0,2.684" transform="translate(32.264 205.673)"/>
        <path id="Trazado_2702" data-name="Trazado 2702" d="M25.24,82.424H23.024a1.342,1.342,0,0,1,0-2.684H25.24a1.342,1.342,0,1,1,0,2.684" transform="translate(55.924 205.673)"/>
        <path id="Trazado_2703" data-name="Trazado 2703" d="M73.6,79.091H11.255a1.342,1.342,0,1,1,0-2.684H73.6a1.342,1.342,0,1,1,0,2.684" transform="translate(25.569 197.076)"/>
        <path id="Trazado_2704" data-name="Trazado 2704" d="M34.841,58.241H19.929a1.342,1.342,0,0,1,0-2.684H34.841a1.342,1.342,0,0,1,0,2.684" transform="translate(47.941 143.298)"/>
        <path id="Trazado_2705" data-name="Trazado 2705" d="M22.012,71.07a1.343,1.343,0,0,1-1.342-1.342V54.816a1.342,1.342,0,1,1,2.684,0V69.728a1.343,1.343,0,0,1-1.342,1.342" transform="translate(53.314 137.925)"/>
        <path id="Trazado_2706" data-name="Trazado 2706" d="M53.646,87.592H42.7a1.342,1.342,0,1,1,0-2.684H53.646a1.342,1.342,0,1,1,0,2.684" transform="translate(106.685 219.003)"/>
        <path id="Trazado_2707" data-name="Trazado 2707" d="M44.233,97a1.343,1.343,0,0,1-1.342-1.342V84.722a1.342,1.342,0,1,1,2.684,0V95.661A1.343,1.343,0,0,1,44.233,97" transform="translate(110.629 215.062)"/>
        <path id="Trazado_2708" data-name="Trazado 2708" d="M79.176,18.937H64.264a1.342,1.342,0,1,1,0-2.684H79.176a1.342,1.342,0,1,1,0,2.684" transform="translate(162.294 41.921)"/>
        <path id="Trazado_2709" data-name="Trazado 2709" d="M66.348,31.766a1.343,1.343,0,0,1-1.342-1.342V15.512a1.342,1.342,0,1,1,2.684,0V30.424a1.343,1.343,0,0,1-1.342,1.342" transform="translate(167.67 36.549)"/>
        <path id="Trazado_2710" data-name="Trazado 2710" d="M97.849,10.684h-2.04a1.342,1.342,0,0,1,0-2.684h2.04a1.342,1.342,0,1,1,0,2.684" transform="translate(243.658 20.634)"/>
        <path id="Trazado_2711" data-name="Trazado 2711" d="M106.954,14.017H83.724a1.342,1.342,0,0,1,0-2.684h23.23a1.342,1.342,0,1,1,0,2.684" transform="translate(212.487 29.231)"/>
        <path id="Trazado_2712" data-name="Trazado 2712" d="M82.37,14.017H80.551a1.342,1.342,0,1,1,0-2.684H82.37a1.342,1.342,0,1,1,0,2.684" transform="translate(204.303 29.231)"/>
        <path id="Trazado_2713" data-name="Trazado 2713" d="M134.064,10.684H77.393a1.342,1.342,0,0,1,0-2.684h56.671a1.342,1.342,0,0,1,0,2.684" transform="translate(196.158 20.634)"/>
        <path id="Trazado_2714" data-name="Trazado 2714" d="M105.13,30.572a6.711,6.711,0,1,1,6.711-6.711,6.718,6.718,0,0,1-6.711,6.711m0-10.738a4.027,4.027,0,1,0,4.027,4.027,4.033,4.033,0,0,0-4.027-4.027" transform="translate(253.852 44.235)"/>
        <path id="Trazado_2715" data-name="Trazado 2715" d="M100.215,84.871a8.8,8.8,0,1,1,8.8-8.8,8.809,8.809,0,0,1-8.8,8.8m0-14.911a6.113,6.113,0,1,0,6.113,6.113,6.122,6.122,0,0,0-6.113-6.113" transform="translate(235.791 173.522)"/>
        <path id="Trazado_2716" data-name="Trazado 2716" d="M110.373,52.743h-1.79a1.342,1.342,0,0,1,0-2.684h1.79a1.342,1.342,0,0,1,0,2.684" transform="translate(276.606 129.117)"/>
        <path id="Trazado_2717" data-name="Trazado 2717" d="M56.154,97.359A14.144,14.144,0,1,1,42.009,83.214,14.146,14.146,0,0,1,56.154,97.359" transform="translate(71.877 214.633)" fill="#ffcd00"/>
        <path id="Trazado_2718" data-name="Trazado 2718" d="M99.177,55.518a10.8,10.8,0,1,1-10.8,10.8,10.8,10.8,0,0,1,10.8-10.8" transform="translate(227.953 143.197)" fill="#ffcd00"/>
        <g id="Grupo_3160" data-name="Grupo 3160" transform="translate(274.183 86.202)" opacity="0.5">
          <g id="Grupo_3159" data-name="Grupo 3159">
            <g id="Grupo_3158" data-name="Grupo 3158" clip-path="url(#clip-path-6)">
              <path id="Trazado_2719" data-name="Trazado 2719" d="M118.7,40.76h4.17a8.338,8.338,0,1,0,0-16.676H118.7a8.338,8.338,0,1,0,0,16.676" transform="translate(10.463 -24.082)" fill="#d4d8e4"/>
              <path id="Trazado_2720" data-name="Trazado 2720" d="M84.931,40.763h51.6a8.34,8.34,0,1,1,0,16.68h-9.764a8.34,8.34,0,0,0,0,16.68H198.47a8.34,8.34,0,0,0,0-16.68H173.612a8.34,8.34,0,0,1,0-16.68h7.978a8.34,8.34,0,0,0-.011-16.68H84.942a8.34,8.34,0,0,0-.011,16.68" transform="translate(-76.604 -24.084)" fill="#d4d8e4"/>
            </g>
          </g>
        </g>
        <path id="Trazado_2721" data-name="Trazado 2721" d="M96.877,71.2a15.534,15.534,0,0,1-19.464.147A15.53,15.53,0,0,1,99.229,49.534,15.533,15.533,0,0,1,96.877,71.2m-7.291,9.61A19.109,19.109,0,0,0,103.1,48.2l-2.531-2.531a19.106,19.106,0,1,0-27.02,27.02l.032.036,2.5,2.5a19.041,19.041,0,0,0,13.508,5.594m3.275,59.119H47.54l-9.5-33.434H83.362l6.776,23.845Zm79.45-42.858a15.534,15.534,0,0,1-19.464.147A15.53,15.53,0,0,1,174.662,75.4a15.533,15.533,0,0,1-2.352,21.669m-54.57,48.968a1.792,1.792,0,0,0,1.267-3.057l-2.531-2.531a1.8,1.8,0,0,0-1.267-.523H98.395l-1.636-5.759h13.294a12.349,12.349,0,0,0,12.334-12.334V107.257A20.122,20.122,0,0,0,116.47,92.99l-2.484-2.484-.047-.047a20.122,20.122,0,0,0-14.267-5.917H74.439a20.08,20.08,0,0,0-12.764,4.549c-.351.283-.691.583-1.024.891a1.8,1.8,0,0,0-.082,2.531l.039.039,2.531,2.534a1.793,1.793,0,0,0,2.491.043,16.533,16.533,0,0,1,11.339-4.478H102.2a16.517,16.517,0,0,1,10.4,3.669,16.516,16.516,0,0,1,3.672,10.405v14.582a8.765,8.765,0,0,1-8.755,8.755h-12.5l-2.552-8.98h10.985a3.754,3.754,0,0,0,3.748-3.751v-7.187a1.785,1.785,0,0,0-.523-1.267l-2.531-2.531a1.79,1.79,0,0,0-3.057,1.267l-.172,7.359H90.735l-2.488-8.755a1.743,1.743,0,0,0-.455-.773l-2.531-2.531A1.777,1.777,0,0,0,84,100.388H33.141a1.792,1.792,0,0,0-1.131.4,1.864,1.864,0,0,0-.3.308,1.793,1.793,0,0,0-.293,1.568l11.235,39.544a1.812,1.812,0,0,0,.455.773l2.531,2.534a1.8,1.8,0,0,0,1.267.523l-1.89-1.89,1.89,1.89h70.834Zm47.279-39.358a19.109,19.109,0,0,0,13.512-32.618L176,71.536a19.109,19.109,0,0,0-27.024,27.024l2.52,2.52.011.011a19.049,19.049,0,0,0,13.512,5.594m45.053,4.438a1.8,1.8,0,0,0,1.3-.988l.014-.029,9.159-19.081a1.785,1.785,0,0,0-.347-2.04l-2.531-2.531a1.79,1.79,0,0,0-2.878.49l-4.839,10.083a85.086,85.086,0,0,0-16.73-34.057,80.574,80.574,0,0,0-6.049-6.772l-2.531-2.531a78.055,78.055,0,0,0-72.552-21,1.794,1.794,0,0,0-1.357,2.137,1.764,1.764,0,0,0,.476.866l2.531,2.531a1.818,1.818,0,0,0,1.657.494,74.466,74.466,0,0,1,67.971,18.788q2.357,2.47,4.521,5.183c9.686,12.166,15.7,26.061,17.209,39.6l-10.72-10.409a1.785,1.785,0,0,0-2.377-.1,1.876,1.876,0,0,0-.154.14,1.788,1.788,0,0,0-.208,2.23,1.534,1.534,0,0,0,.229.279l.018.021,2.513,2.509.018.021,14.074,13.662-2.509-2.509c.211.211,2.259,2.262,2.513,2.513l.018.018a1.775,1.775,0,0,0,1.067.5,1.467,1.467,0,0,0,.179.007h.064a1.912,1.912,0,0,0,.251-.025M160.377,185.15a1.789,1.789,0,0,0,.612-2.931l-2.531-2.531a1.787,1.787,0,0,0-1.918-.4A74.611,74.611,0,0,1,81.225,167.1l14.242,1.26a1.792,1.792,0,0,0,1.425-3.05l-2.5-2.5-.032-.032a1.771,1.771,0,0,0-1.085-.515h-.021L73.68,160.535a1.8,1.8,0,0,0-1.292.4l-.1.086c-.043.043-.086.086-.122.129a1.785,1.785,0,0,0-.387,1.589l0,.018,4.929,20.6a1.775,1.775,0,0,0,.472.848l2.531,2.531a1.8,1.8,0,0,0,1.267.526,1.855,1.855,0,0,0,.415-.05,1.8,1.8,0,0,0,1.328-2.158l-3.493-14.6a78.234,78.234,0,0,0,81.143,14.7M203.816,165.8H159.934l1.983-6.987.021-.072.021-.075,7.474-26.3h43.882Zm3.884,6.11a1.787,1.787,0,0,0,1.722-1.3l11.235-39.544a1.793,1.793,0,0,0-.293-1.568,1.659,1.659,0,0,0-.165-.186l-2.531-2.534a1.788,1.788,0,0,0-1.263-.523H165.55a1.792,1.792,0,0,0-1.135.4,1.766,1.766,0,0,0-.587.895l-3.2,11.268-9.643-.122v-4.692a1.8,1.8,0,0,0-.523-1.267l-2.531-2.531a1.8,1.8,0,0,0-1.267-.523,1.793,1.793,0,0,0-1.79,1.79v7.191a3.742,3.742,0,0,0,1.1,2.652l1.056,1.056,1.3,1.3.179.179a3.739,3.739,0,0,0,2.649,1.1h7.731l-2.552,8.98h-14.31a8.726,8.726,0,0,1-4.793-1.432,8.7,8.7,0,0,1-1.432-4.793V133.128a16.623,16.623,0,0,1,16.6-16.6h25.234A16.54,16.54,0,0,1,188.976,121a1.79,1.79,0,0,0,2.491-2.57l-2.534-2.534-.043-.039a20.1,20.1,0,0,0-13.784-5.441H149.872a20.2,20.2,0,0,0-20.184,20.18V145.18A12.305,12.305,0,0,0,133.3,153.9l2.523,2.523.011.007a12.293,12.293,0,0,0,8.716,3.619H154.6l-1.636,5.759H134.335a1.792,1.792,0,0,0-1.267,3.057l2.531,2.531a1.8,1.8,0,0,0,1.267.523H207.7Z" transform="translate(80.863 79.335)" fill="#fff"/>
        <path id="Trazado_2722" data-name="Trazado 2722" d="M81.757,78.8a19.106,19.106,0,1,1,19.106-19.106A19.13,19.13,0,0,1,81.757,78.8m0-34.633A15.527,15.527,0,1,0,97.284,59.694,15.544,15.544,0,0,0,81.757,44.167" transform="translate(161.595 104.688)"/>
        <path id="Trazado_2723" data-name="Trazado 2723" d="M117.848,100.562H66.994a1.791,1.791,0,0,1-1.722-2.28L76.507,58.738a1.79,1.79,0,0,1,1.722-1.3h50.855a1.8,1.8,0,0,1,1.432.709,1.781,1.781,0,0,1,.293,1.568L119.574,99.263a1.794,1.794,0,0,1-1.725,1.3M69.367,96.983H116.5l10.215-35.965H79.582Z" transform="translate(168.18 148.152)"/>
        <path id="Trazado_2724" data-name="Trazado 2724" d="M80.079,71.13H66.818a3.755,3.755,0,0,1-3.751-3.751V60.188a1.79,1.79,0,0,1,3.579,0v7.191l13.433.172a1.79,1.79,0,1,1,0,3.579" transform="translate(162.668 150.626)"/>
        <path id="Trazado_2725" data-name="Trazado 2725" d="M86.822,100.112H71.159A12.349,12.349,0,0,1,58.825,87.778V73.2a20.2,20.2,0,0,1,20.18-20.184h25.238a20.11,20.11,0,0,1,13.784,5.441,1.79,1.79,0,0,1-2.445,2.616,16.533,16.533,0,0,0-11.339-4.478H79.005A16.622,16.622,0,0,0,62.4,73.2V87.778a8.764,8.764,0,0,0,8.755,8.755H86.822a1.79,1.79,0,0,1,0,3.579" transform="translate(151.727 136.734)"/>
        <path id="Trazado_2726" data-name="Trazado 2726" d="M81.392,72.066H61.413a1.79,1.79,0,0,1,0-3.579h19.98a1.79,1.79,0,1,1,0,3.579" transform="translate(153.785 176.648)"/>
        <path id="Trazado_2727" data-name="Trazado 2727" d="M60.682,71.573A19.106,19.106,0,1,1,79.789,52.466,19.13,19.13,0,0,1,60.682,71.573m0-34.633A15.527,15.527,0,1,0,76.209,52.466,15.544,15.544,0,0,0,60.682,36.939" transform="translate(107.237 86.045)"/>
        <path id="Trazado_2728" data-name="Trazado 2728" d="M95.231,93.334H44.376a1.787,1.787,0,0,1-1.722-1.3L31.419,52.491a1.791,1.791,0,0,1,1.722-2.28H84a1.794,1.794,0,0,1,1.722,1.3L96.952,91.058a1.787,1.787,0,0,1-1.722,2.276m-49.5-3.579H92.861L82.642,53.79H35.51Z" transform="translate(80.863 129.509)"/>
        <path id="Trazado_2729" data-name="Trazado 2729" d="M61.637,63.9H48.372a1.79,1.79,0,0,1,0-3.579H61.637l.172-7.359a1.79,1.79,0,0,1,3.579,0v7.187A3.755,3.755,0,0,1,61.637,63.9" transform="translate(120.149 131.985)"/>
        <path id="Trazado_2730" data-name="Trazado 2730" d="M86.815,92.884H71.152a1.79,1.79,0,1,1,0-3.579H86.815A8.764,8.764,0,0,0,95.57,80.55V65.968a16.623,16.623,0,0,0-16.6-16.6H53.732a16.55,16.55,0,0,0-11.339,4.478,1.79,1.79,0,0,1-2.448-2.613,20.112,20.112,0,0,1,13.787-5.444H78.966A20.206,20.206,0,0,1,99.15,65.968V80.55A12.349,12.349,0,0,1,86.815,92.884" transform="translate(101.57 118.09)"/>
        <path id="Trazado_2731" data-name="Trazado 2731" d="M70.467,64.838H50.488a1.79,1.79,0,0,1,0-3.579h19.98a1.79,1.79,0,1,1,0,3.579" transform="translate(125.606 158.005)"/>
        <path id="Trazado_2732" data-name="Trazado 2732" d="M49.354,91.209a1.79,1.79,0,0,1-1.74-1.374L42.682,69.218a1.793,1.793,0,0,1,1.9-2.2L64.15,68.752a1.789,1.789,0,1,1-.315,3.565L46.744,70.8,51.1,89a1.79,1.79,0,0,1-1.324,2.155,1.675,1.675,0,0,1-.419.05" transform="translate(109.964 172.847)"/>
        <path id="Trazado_2733" data-name="Trazado 2733" d="M150.054,108.619a1.786,1.786,0,0,1-1.786-1.725c-.526-14.965-6.758-30.667-17.549-44.222A74.54,74.54,0,0,0,55.7,36.167a1.789,1.789,0,1,1-.777-3.493,78.118,78.118,0,0,1,78.6,27.768c11.268,14.149,17.775,30.6,18.326,46.323a1.791,1.791,0,0,1-1.725,1.854h-.064" transform="translate(138.036 79.333)"/>
        <path id="Trazado_2734" data-name="Trazado 2734" d="M99.963,94.567A78.195,78.195,0,0,1,43.124,70.035a1.79,1.79,0,0,1,2.6-2.463,74.659,74.659,0,0,0,81.719,18.2,1.79,1.79,0,0,1,1.306,3.332,78.879,78.879,0,0,1-28.785,5.462" transform="translate(109.962 172.849)"/>
        <path id="Trazado_2735" data-name="Trazado 2735" d="M91.934,68.861a1.791,1.791,0,0,1-1.246-.5l-14.1-13.687a1.79,1.79,0,0,1,2.491-2.57L91.4,64.054l8.1-16.866a1.788,1.788,0,1,1,3.225,1.546l-9.174,19.11a1.793,1.793,0,0,1-1.3.988,1.563,1.563,0,0,1-.315.029" transform="translate(196.156 119.091)"/>
      </g>
    </g>
  </g>
</svg>
