<svg xmlns="http://www.w3.org/2000/svg" width="415.854" height="383.504" viewBox="0 0 415.854 383.504">
  <g id="Grupo_3220" data-name="Grupo 3220" transform="translate(-805.497 -35.269)">
    <g id="Grupo_3212" data-name="Grupo 3212" transform="translate(805.497 229.979)" opacity="0.5">
      <path id="Trazado_2912" data-name="Trazado 2912" d="M818.007,98.988h-4.17a8.34,8.34,0,1,0,0,16.68h4.17a8.34,8.34,0,1,0,0-16.68Z" transform="translate(-805.497 -65.629)" fill="#d4d8e4"/>
      <path id="Trazado_2913" data-name="Trazado 2913" d="M894.786,123.027h-15.8a8.34,8.34,0,1,1,0-16.68h9.765a8.34,8.34,0,0,0,0-16.68H817.036a8.34,8.34,0,0,0,0,16.68h24.858a8.34,8.34,0,1,1,0,16.68h-7.978a8.34,8.34,0,0,0,.011,16.68h60.845a8.34,8.34,0,0,0,.014-16.68Z" transform="translate(-797.235 -89.668)" fill="#d4d8e4"/>
    </g>
    <circle id="Elipse_2" data-name="Elipse 2" cx="49.453" cy="49.453" r="49.453" transform="translate(903.058 149.859) rotate(-22.701)" fill="#ffcd00"/>
    <g id="Grupo_3213" data-name="Grupo 3213" transform="translate(952.75 335.376)" opacity="0.5">
      <path id="Trazado_2914" data-name="Trazado 2914" d="M869.237,135.794h4.17a8.34,8.34,0,0,0,0-16.68h-4.17a8.34,8.34,0,1,0,0,16.68Z" transform="translate(-809.856 -119.114)" fill="#d4d8e4"/>
      <path id="Trazado_2915" data-name="Trazado 2915" d="M926.531,137.754h-4.17a8.34,8.34,0,1,0,0,16.68h4.17a8.34,8.34,0,1,0,0-16.68Z" transform="translate(-672.833 -71.036)" fill="#d4d8e4"/>
      <path id="Trazado_2916" data-name="Trazado 2916" d="M1094.078,152.473H1047.55a8.34,8.34,0,0,1,0-16.68h8.537a8.34,8.34,0,0,0-.014-16.68h-121.7a8.34,8.34,0,0,0-.011,16.68h10.852a8.34,8.34,0,1,1,0,16.68H854.977a8.34,8.34,0,0,0-.014,16.68h44.956a8.34,8.34,0,1,1,0,16.68H881.091a8.34,8.34,0,1,0,0,16.68h190.888a8.34,8.34,0,1,0,0-16.68h-10.745a8.34,8.34,0,0,1,0-16.68h32.854a8.34,8.34,0,0,0-.01-16.68Z" transform="translate(-846.637 -119.114)" fill="#d4d8e4"/>
    </g>
    <g id="Grupo_3214" data-name="Grupo 3214" transform="translate(817.613 35.269)" opacity="0.5">
      <path id="Trazado_2917" data-name="Trazado 2917" d="M874.386,35.269h-4.17a8.34,8.34,0,1,0,0,16.68h4.17a8.34,8.34,0,1,0,0-16.68Z" transform="translate(-672.195 -35.269)" fill="#d4d8e4"/>
      <path id="Trazado_2918" data-name="Trazado 2918" d="M821.392,44.589h-4.17a8.34,8.34,0,0,0,0,16.68h4.17a8.34,8.34,0,0,0,0-16.68Z" transform="translate(-808.882 -11.23)" fill="#d4d8e4"/>
      <path id="Trazado_2919" data-name="Trazado 2919" d="M982.64,68.628h-33.7a8.34,8.34,0,1,1,0-16.68h13.343a8.34,8.34,0,1,0,0-16.68H858.363a8.34,8.34,0,0,0,0,16.68h17.7a8.34,8.34,0,1,1,0,16.68h-50.93a8.34,8.34,0,0,0,.011,16.68H982.63a8.34,8.34,0,0,0,.011-16.68Z" transform="translate(-788.449 -35.269)" fill="#d4d8e4"/>
    </g>
    <path id="Trazado_2920" data-name="Trazado 2920" d="M883.6,58.021H829.924a1.342,1.342,0,0,1,0-2.684H883.6a1.342,1.342,0,1,1,0,2.684Z" transform="translate(59.543 51.761)"/>
    <path id="Trazado_2921" data-name="Trazado 2921" d="M849.2,58.021h-1.786a1.342,1.342,0,1,1,0-2.684H849.2a1.342,1.342,0,1,1,0,2.684Z" transform="translate(104.666 51.761)"/>
    <path id="Trazado_2922" data-name="Trazado 2922" d="M898.175,61.187H818.26a1.342,1.342,0,1,1,0-2.684h79.915a1.342,1.342,0,1,1,0,2.684Z" transform="translate(29.458 59.928)"/>
    <path id="Trazado_2923" data-name="Trazado 2923" d="M834.214,87.263a8.8,8.8,0,1,1,8.8-8.8A8.81,8.81,0,0,1,834.214,87.263Zm0-14.911a6.113,6.113,0,1,0,6.113,6.113A6.122,6.122,0,0,0,834.214,72.351Z" transform="translate(51.377 88.723)"/>
    <path id="Trazado_2924" data-name="Trazado 2924" d="M963.723,84.681H899.9a1.342,1.342,0,1,1,0-2.684h63.819a1.342,1.342,0,1,1,0,2.684Z" transform="translate(240.043 120.526)"/>
    <path id="Trazado_2925" data-name="Trazado 2925" d="M926.612,88.013H905.737a1.342,1.342,0,0,1,0-2.684h20.874a1.342,1.342,0,1,1,0,2.684Z" transform="translate(255.088 129.12)"/>
    <path id="Trazado_2926" data-name="Trazado 2926" d="M815.686,114.361h-2.037a1.342,1.342,0,0,1,0-2.684h2.037a1.342,1.342,0,1,1,0,2.684Z" transform="translate(17.565 197.079)"/>
    <path id="Trazado_2927" data-name="Trazado 2927" d="M842.574,117.695H819.348a1.342,1.342,0,0,1,0-2.684h23.226a1.342,1.342,0,0,1,0,2.684Z" transform="translate(32.264 205.676)"/>
    <path id="Trazado_2928" data-name="Trazado 2928" d="M830.737,117.695h-2.215a1.342,1.342,0,0,1,0-2.684h2.215a1.342,1.342,0,1,1,0,2.684Z" transform="translate(55.924 205.676)"/>
    <path id="Trazado_2929" data-name="Trazado 2929" d="M879.092,114.361H816.751a1.342,1.342,0,0,1,0-2.684h62.341a1.342,1.342,0,0,1,0,2.684Z" transform="translate(25.566 197.079)"/>
    <path id="Trazado_2930" data-name="Trazado 2930" d="M840.334,93.512H825.426a1.342,1.342,0,0,1,0-2.684h14.908a1.342,1.342,0,0,1,0,2.684Z" transform="translate(47.941 143.301)"/>
    <path id="Trazado_2931" data-name="Trazado 2931" d="M827.509,106.34A1.343,1.343,0,0,1,826.167,105V90.086a1.342,1.342,0,1,1,2.684,0V105A1.343,1.343,0,0,1,827.509,106.34Z" transform="translate(53.314 137.928)"/>
    <path id="Trazado_2932" data-name="Trazado 2932" d="M859.143,122.863H848.2a1.342,1.342,0,1,1,0-2.684h10.942a1.342,1.342,0,1,1,0,2.684Z" transform="translate(106.685 219.006)"/>
    <path id="Trazado_2933" data-name="Trazado 2933" d="M849.73,132.273a1.343,1.343,0,0,1-1.342-1.342V119.992a1.342,1.342,0,1,1,2.684,0v10.938A1.343,1.343,0,0,1,849.73,132.273Z" transform="translate(110.629 215.065)"/>
    <path id="Trazado_2934" data-name="Trazado 2934" d="M884.67,54.207H869.762a1.342,1.342,0,1,1,0-2.684H884.67a1.342,1.342,0,1,1,0,2.684Z" transform="translate(162.297 41.924)"/>
    <path id="Trazado_2935" data-name="Trazado 2935" d="M871.845,67.032A1.34,1.34,0,0,1,870.5,65.69V50.782a1.342,1.342,0,1,1,2.684,0V65.69A1.34,1.34,0,0,1,871.845,67.032Z" transform="translate(167.667 36.551)"/>
    <path id="Trazado_2936" data-name="Trazado 2936" d="M903.347,45.954h-2.04a1.342,1.342,0,1,1,0-2.684h2.04a1.342,1.342,0,0,1,0,2.684Z" transform="translate(243.659 20.637)"/>
    <path id="Trazado_2937" data-name="Trazado 2937" d="M912.447,49.287H889.221a1.342,1.342,0,1,1,0-2.684h23.226a1.342,1.342,0,0,1,0,2.684Z" transform="translate(212.488 29.234)"/>
    <path id="Trazado_2938" data-name="Trazado 2938" d="M887.869,49.287h-1.822a1.342,1.342,0,0,1,0-2.684h1.822a1.342,1.342,0,1,1,0,2.684Z" transform="translate(204.301 29.234)"/>
    <path id="Trazado_2939" data-name="Trazado 2939" d="M939.561,45.954H882.89a1.342,1.342,0,0,1,0-2.684h56.671a1.342,1.342,0,1,1,0,2.684Z" transform="translate(196.158 20.637)"/>
    <path id="Trazado_2940" data-name="Trazado 2940" d="M910.627,65.842a6.711,6.711,0,1,1,6.711-6.711A6.718,6.718,0,0,1,910.627,65.842Zm0-10.738a4.027,4.027,0,1,0,4.027,4.027A4.033,4.033,0,0,0,910.627,55.1Z" transform="translate(253.852 44.238)"/>
    <path id="Trazado_2941" data-name="Trazado 2941" d="M905.712,120.14a8.8,8.8,0,1,1,8.794-8.8A8.809,8.809,0,0,1,905.712,120.14Zm0-14.911a6.113,6.113,0,1,0,6.11,6.113A6.124,6.124,0,0,0,905.712,105.228Z" transform="translate(235.792 173.523)"/>
    <path id="Trazado_2942" data-name="Trazado 2942" d="M915.866,88.013H914.08a1.342,1.342,0,1,1,0-2.684h1.786a1.342,1.342,0,1,1,0,2.684Z" transform="translate(276.607 129.12)"/>
    <circle id="Elipse_3" data-name="Elipse 3" cx="14.144" cy="14.144" r="14.144" transform="translate(905.241 333.122)" fill="#ffcd00"/>
    <path id="Trazado_2943" data-name="Trazado 2943" d="M904.674,90.788a10.8,10.8,0,1,1-10.8,10.8A10.8,10.8,0,0,1,904.674,90.788Z" transform="translate(227.953 143.2)" fill="#ffcd00"/>
    <g id="Grupo_3215" data-name="Grupo 3215" transform="translate(1079.679 121.473)" opacity="0.5">
      <path id="Trazado_2944" data-name="Trazado 2944" d="M924.195,76.033h4.17a8.34,8.34,0,1,0,0-16.68h-4.17a8.34,8.34,0,0,0,0,16.68Z" transform="translate(-795.032 -59.353)" fill="#d4d8e4"/>
      <path id="Trazado_2945" data-name="Trazado 2945" d="M890.428,76.033h51.6a8.34,8.34,0,1,1,0,16.68h-9.765a8.34,8.34,0,0,0,0,16.68h71.708a8.34,8.34,0,1,0,0-16.68H979.109a8.34,8.34,0,1,1,0-16.68h7.978a8.34,8.34,0,0,0-.011-16.68H890.439a8.34,8.34,0,0,0-.011,16.68Z" transform="translate(-882.099 -59.353)" fill="#d4d8e4"/>
    </g>
    <path id="Trazado_2946" data-name="Trazado 2946" d="M842.177,129.9a1.788,1.788,0,0,0,1.263-3.053l-.637-.637-1.893-1.893-.637-.637a1.787,1.787,0,0,0-2.4-.122,1.42,1.42,0,0,0-.133.122,1.784,1.784,0,0,0,0,2.531l.637.637,1.893,1.893.637.637A1.783,1.783,0,0,0,842.177,129.9Zm8.472,0a1.79,1.79,0,0,0,1.271-.523l.634-.641a1.787,1.787,0,0,0,0-2.527l-2.534-2.534a1.794,1.794,0,0,0-2.394-.122c-.05.039-.093.082-.14.125l-.634.637a1.791,1.791,0,0,0,0,2.531l.036.039c.311.311,2.4,2.4,2.495,2.491A1.768,1.768,0,0,0,850.649,129.9Zm-9.113,9.113a1.783,1.783,0,0,0,1.263-.523l.641-.637a1.794,1.794,0,0,0,0-2.531l-.007,0-2.523-2.527-.007,0a1.786,1.786,0,0,0-2.395-.118c-.043.036-.089.075-.132.118l-.637.637a1.789,1.789,0,0,0,0,2.534l2.527,2.527,0,0A1.789,1.789,0,0,0,841.536,139.012Zm9.75,0a1.791,1.791,0,0,0,1.267-3.057l-.637-.634-1.9-1.9-.634-.634a1.787,1.787,0,0,0-2.4-.122,1.053,1.053,0,0,0-.133.122,1.785,1.785,0,0,0,0,2.531l.083.079.551.555,1.89,1.89.007.007.634.634A1.785,1.785,0,0,0,851.286,139.012ZM933.163,72.2a1.79,1.79,0,0,0,1.267-3.057l-.641-.637L931.9,66.613l-.637-.637a1.8,1.8,0,0,0-2.4-.122c-.047.039-.093.082-.136.125a1.791,1.791,0,0,0,0,2.531l.473.472h0l.165.168.061.057,1.832,1.833.641.637A1.768,1.768,0,0,0,933.163,72.2Zm8.472,0a1.779,1.779,0,0,0,1.271-.526l.634-.637a1.787,1.787,0,0,0,0-2.527l-2.534-2.534a1.794,1.794,0,0,0-2.395-.122c-.05.039-.093.082-.14.125l-.634.637a1.794,1.794,0,0,0,0,2.531l.075.075,2.459,2.455A1.769,1.769,0,0,0,941.635,72.2Zm-9.113,9.113a1.8,1.8,0,0,0,1.267-.523l.641-.637a1.794,1.794,0,0,0,0-2.531l0,0-2.53-2.531h0a1.8,1.8,0,0,0-2.4-.122c-.047.039-.089.079-.133.118l-.637.641a1.788,1.788,0,0,0-.226,2.259,1.6,1.6,0,0,0,.226.276l2.527,2.527,0,0A1.789,1.789,0,0,0,932.522,81.313Zm9.75,0a1.79,1.79,0,0,0,1.267-3.053l-.634-.637,0,0-1.89-1.893-.637-.637h0a1.8,1.8,0,0,0-2.4-.122c-.043.039-.089.079-.129.118a1.788,1.788,0,0,0,0,2.531l.637.644,1.89,1.89.637.637,0,0A1.8,1.8,0,0,0,942.272,81.313Zm-81.834,76.221,2.52,2.52Zm2.527,2.527,0,0Zm6.364,5.623a1.788,1.788,0,0,0,1.267-3.053l-2.534-2.534-2.563-2.563L862.969,155a1.787,1.787,0,0,0-2.4-.122,1.413,1.413,0,0,0-.133.122,1.785,1.785,0,0,0,0,2.531l2.52,2.52.007.007,0,0,2.563,2.566,2.534,2.531A1.783,1.783,0,0,0,869.33,165.685Zm8.05-5.616a1.788,1.788,0,0,0,1.789-1.79V146.51a1.8,1.8,0,0,0-.523-1.267l-2.531-2.531a1.8,1.8,0,0,0-1.267-.523,1.793,1.793,0,0,0-1.79,1.79v11.769a1.786,1.786,0,0,0,.526,1.267l2.527,2.531A1.8,1.8,0,0,0,877.379,160.069Zm-13.662,13.666a1.79,1.79,0,0,0,1.264-3.057l0,0,0,0,0,0-2.527-2.527a1.782,1.782,0,0,0-1.263-.523H849.414a1.79,1.79,0,0,0-1.264,3.057l2.531,2.531a1.784,1.784,0,0,0,1.267.523Zm21.712-8.05a1.8,1.8,0,0,0,1.267-.523l5.094-5.1a1.784,1.784,0,0,0,0-2.531L889.259,155a1.782,1.782,0,0,0-2.394-.122,1.384,1.384,0,0,0-.136.122l-5.1,5.093a1.8,1.8,0,0,0,0,2.534l2.534,2.531A1.783,1.783,0,0,0,885.429,165.685Zm81.351-65.9a1.791,1.791,0,0,0,1.264-3.057L965.513,94.2l-2.566-2.563L960.416,89.1a1.786,1.786,0,0,0-2.395-.118,1.384,1.384,0,0,0-.136.118,1.8,1.8,0,0,0,0,2.534l2.531,2.531,2.57,2.57,2.527,2.523A1.787,1.787,0,0,0,966.78,99.786Zm8.05-5.616a1.79,1.79,0,0,0,1.789-1.79V80.612a1.786,1.786,0,0,0-.526-1.267l-2.53-2.531a1.789,1.789,0,0,0-3.053,1.267V89.85a1.782,1.782,0,0,0,.522,1.267l2.531,2.531A1.784,1.784,0,0,0,974.83,94.17Zm-110.6,92.711a1.786,1.786,0,0,0,1.267-.526l5.1-5.093a1.791,1.791,0,0,0,0-2.531l-2.534-2.534a1.786,1.786,0,0,0-2.394-.118,1.386,1.386,0,0,0-.136.118l-5.094,5.1a1.785,1.785,0,0,0,0,2.531l2.531,2.531A1.772,1.772,0,0,0,864.232,186.881Zm96.931-79.045a1.792,1.792,0,0,0,1.267-3.057l-2.53-2.531a1.8,1.8,0,0,0-1.267-.523H946.861a1.789,1.789,0,0,0-1.264,3.057l2.531,2.531a1.783,1.783,0,0,0,1.263.523Zm21.716-8.05a1.772,1.772,0,0,0,1.263-.526l5.1-5.093a1.791,1.791,0,0,0,0-2.531L986.709,89.1a1.79,1.79,0,0,0-2.4-.118,1.318,1.318,0,0,0-.132.118l-5.1,5.1a1.791,1.791,0,0,0,0,2.531l2.531,2.531A1.787,1.787,0,0,0,982.879,99.786Zm-21.2,21.2a1.773,1.773,0,0,0,1.264-.526l5.1-5.1a1.791,1.791,0,0,0,0-2.531l-2.531-2.531a1.79,1.79,0,0,0-2.395-.122c-.047.039-.093.079-.136.122l-5.1,5.1a1.791,1.791,0,0,0,0,2.531l2.531,2.531A1.786,1.786,0,0,0,961.683,120.983Zm-58.869,52.752a1.792,1.792,0,0,0,1.267-3.057l-2.527-2.527,0,0a1.785,1.785,0,0,0-1.267-.523H888.514a1.789,1.789,0,0,0-1.263,3.057l2.53,2.531a1.783,1.783,0,0,0,1.264.523Zm-12.288,13.147a1.791,1.791,0,0,0,1.263-3.057l-2.531-2.531-2.563-2.563-2.534-2.534a1.786,1.786,0,0,0-2.394-.118c-.047.036-.09.075-.136.118a1.8,1.8,0,0,0,0,2.534l2.524,2.52.011.011,2.563,2.563,2.53,2.531A1.787,1.787,0,0,0,890.526,186.881Zm-13.147,12.288a1.79,1.79,0,0,0,1.789-1.79V185.611a1.8,1.8,0,0,0-.523-1.267l-2.531-2.531a1.8,1.8,0,0,0-1.267-.523,1.793,1.793,0,0,0-1.79,1.79v11.769a1.8,1.8,0,0,0,.523,1.267l2.531,2.531A1.8,1.8,0,0,0,877.379,199.169Zm122.884-91.333a1.792,1.792,0,0,0,1.267-3.057L999,102.249a1.8,1.8,0,0,0-1.267-.523H985.965a1.789,1.789,0,0,0-1.263,3.057l2.527,2.531a1.8,1.8,0,0,0,1.267.523Zm-12.288,13.147a1.791,1.791,0,0,0,1.264-3.057l-2.531-2.531-2.566-2.566-2.531-2.531a1.79,1.79,0,0,0-2.395-.122c-.047.039-.093.079-.136.122a1.791,1.791,0,0,0,0,2.531l2.531,2.531,2.57,2.574,2.527,2.523A1.787,1.787,0,0,0,987.976,120.983Zm-42.9,36.47a1.79,1.79,0,0,0,1.761-1.489,86.683,86.683,0,0,1,9.983-26.072,1.792,1.792,0,0,0-.276-2.173l-2.531-2.531a1.984,1.984,0,0,0-.362-.279,1.8,1.8,0,0,0-2.044.165,1.761,1.761,0,0,0-.408.476,88.64,88.64,0,0,0-10.423,27.285,1.784,1.784,0,0,0,.5,1.564l.011.011,2.52,2.52a1.774,1.774,0,0,0,.963.5A1.749,1.749,0,0,0,945.078,157.452Zm29.751-24.182a1.79,1.79,0,0,0,1.789-1.79V119.712a1.786,1.786,0,0,0-.526-1.267l-2.513-2.513-.018-.018a1.787,1.787,0,0,0-3.053,1.267V128.95a1.768,1.768,0,0,0,.522,1.263l2.531,2.534A1.784,1.784,0,0,0,974.83,133.271Zm38.223-5.591a1.788,1.788,0,0,0,1.267-3.053l0,0,0,0,0,0-.637-.637-1.894-1.893-.641-.637a1.785,1.785,0,0,0-2.391-.118,1.57,1.57,0,0,0-.139.125,1.79,1.79,0,0,0,0,2.527l0,0,.637.637,1.89,1.89,0,0,.641.637A1.771,1.771,0,0,0,1013.053,127.68Zm8.476,0a1.78,1.78,0,0,0,1.263-.523l.637-.637a1.791,1.791,0,0,0,0-2.531l-2.531-2.531a1.791,1.791,0,0,0-2.4-.122c-.047.039-.089.079-.132.122l-.637.637a1.791,1.791,0,0,0,0,2.531l2.531,2.531A1.782,1.782,0,0,0,1021.529,127.68Zm-41.584,35.51-2.523-2.523Zm32.471-26.4a1.775,1.775,0,0,0,1.26-.523l.641-.634a1.791,1.791,0,0,0,.007-2.531l-.007-.007-2.523-2.527-.007,0a1.786,1.786,0,0,0-2.395-.118c-.043.036-.089.075-.129.115l-.641.637a1.793,1.793,0,0,0-.229,2.262,1.941,1.941,0,0,0,.226.272l2.527,2.527,0,0A1.78,1.78,0,0,0,1012.416,136.793Zm-31.2,26.923a1.791,1.791,0,0,0,1.263-3.057l-2.53-2.531-3.154-3.153-2.531-2.531a1.79,1.79,0,0,0-2.394-.122c-.047.039-.093.079-.136.122a1.79,1.79,0,0,0,0,2.531l2.53,2.531,3.154,3.153,0,0,0,0,2.523,2.523A1.786,1.786,0,0,0,981.211,163.716Zm8.977-6.264a1.788,1.788,0,0,0,1.79-1.79V142.537a1.786,1.786,0,0,0-.526-1.267l-2.531-2.531a1.787,1.787,0,0,0-3.053,1.267v13.125a1.782,1.782,0,0,0,.522,1.267l2.531,2.531A1.785,1.785,0,0,0,990.188,157.452Zm-15.241,15.241a1.79,1.79,0,0,0,1.264-3.057l-2.531-2.531a1.782,1.782,0,0,0-1.263-.523H959.292a1.787,1.787,0,0,0-1.79,1.79,1.8,1.8,0,0,0,.523,1.267l.007,0,2.524,2.527a1.8,1.8,0,0,0,1.267.523Zm47.215-35.9a1.791,1.791,0,0,0,1.267-3.057l-.637-.634-1.893-1.9-.637-.637a1.8,1.8,0,0,0-2.4-.122c-.046.039-.089.079-.132.122a1.791,1.791,0,0,0,0,2.531l.637.637,1.893,1.9.637.634A1.772,1.772,0,0,0,1022.162,136.793Zm-99.888,83.351a1.79,1.79,0,0,0,1.718-1.281c.429-1.464,10.344-36.176-4.789-70.484a1.8,1.8,0,0,0-.376-.548L916.3,145.3a1.787,1.787,0,0,0-1.987-.369,1.689,1.689,0,0,0-.408.251,1.79,1.79,0,0,0-.5,2.108c14.593,33.08,4.732,67.685,4.628,68.032a1.791,1.791,0,0,0,.455,1.768l2.531,2.531a1.775,1.775,0,0,0,1.263.523Zm76.891-56.428a1.786,1.786,0,0,0,1.267-.526l5.684-5.684a1.791,1.791,0,0,0,0-2.531l-2.53-2.531a1.8,1.8,0,0,0-2.4-.122c-.047.039-.089.079-.133.122l-5.684,5.684a1.791,1.791,0,0,0,0,2.531l2.531,2.531A1.785,1.785,0,0,0,999.165,163.716Zm-89.189,74.31a1.788,1.788,0,0,0,1.79-1.747A78.476,78.476,0,0,0,898.4,193.815a1.825,1.825,0,0,0-.211-.254l-2.53-2.531a1.8,1.8,0,0,0-2.277-.208c-.043.029-.082.061-.122.093a1.792,1.792,0,0,0-.34,2.4c13.064,19.02,12.746,40.138,12.739,40.349a1.792,1.792,0,0,0,.526,1.306l2.531,2.531a1.8,1.8,0,0,0,1.224.526Zm65.551-50.672a1.783,1.783,0,0,0,1.264-.523l5.684-5.684a1.784,1.784,0,0,0,0-2.531l-2.53-2.531a1.783,1.783,0,0,0-2.395-.122,1.4,1.4,0,0,0-.136.122l-5.684,5.684a1.791,1.791,0,0,0,0,2.531l2.53,2.531A1.8,1.8,0,0,0,975.527,187.354Zm-43.5,40.31a1.792,1.792,0,0,0,1.671-1.153c.151-.4,14.776-40-4.664-84.9a1.817,1.817,0,0,0-.376-.551l-2.531-2.531a1.79,1.79,0,0,0-2.91,1.976c18.841,43.521,4.75,81.823,4.6,82.206a1.789,1.789,0,0,0,.408,1.9l2.53,2.531a1.834,1.834,0,0,0,.63.4A1.729,1.729,0,0,0,932.032,227.664Zm86.522-54.971a1.792,1.792,0,0,0,1.267-3.057l-2.531-2.531a1.785,1.785,0,0,0-1.267-.523h-13.129a1.789,1.789,0,0,0-1.263,3.057l2.53,2.531a1.783,1.783,0,0,0,1.264.523Zm-13.705,14.661a1.788,1.788,0,0,0,1.267-3.053l-2.53-2.531,2.53,2.531-2.53-2.531-3.154-3.153-.007-.007-2.524-2.523a1.787,1.787,0,0,0-2.4-.122,1.417,1.417,0,0,0-.133.122,1.791,1.791,0,0,0,0,2.531l2.531,2.531,3.153,3.153,0,0,0,0,2.523,2.523-2.523-2.523,2.523,2.523A1.789,1.789,0,0,0,1004.849,187.354Zm-14.661,13.705a1.79,1.79,0,0,0,1.79-1.79V186.144a1.786,1.786,0,0,0-.526-1.267l-2.531-2.531a1.787,1.787,0,0,0-3.053,1.267v13.125a1.768,1.768,0,0,0,.522,1.263l0,.007,2.527,2.527A1.785,1.785,0,0,0,990.188,201.059Zm-40.6,43.335a1.791,1.791,0,0,0,1.79-1.757c0-.222.573-22.263,18.981-46.291a1.789,1.789,0,0,0-.154-2.352l-2.531-2.531a1.259,1.259,0,0,0-.179-.157,1.768,1.768,0,0,0-2.506.333c-19.121,24.955-19.7,47.462-19.722,48.407a1.785,1.785,0,0,0,.523,1.3l2.531,2.531a1.782,1.782,0,0,0,1.239.523Z" transform="translate(81.813 77.857)" fill="#fff"/>
    <g id="Grupo_3217" data-name="Grupo 3217" transform="translate(919.032 143.311)">
      <g id="Grupo_3216" data-name="Grupo 3216">
        <path id="Trazado_2947" data-name="Trazado 2947" d="M864.953,160.451a1.763,1.763,0,0,1-.5-.072,1.791,1.791,0,0,1-1.214-2.223c.1-.344,9.965-34.948-4.628-68.028a1.788,1.788,0,1,1,3.271-1.442c15.141,34.308,5.219,69.02,4.789,70.48A1.789,1.789,0,0,1,864.953,160.451Z" transform="translate(-782.432 -8.292)"/>
        <path id="Trazado_2948" data-name="Trazado 2948" d="M867.628,172.853a1.821,1.821,0,0,1-.637-.118,1.79,1.79,0,0,1-1.038-2.305c.147-.383,14.246-38.685-4.6-82.206a1.79,1.79,0,0,1,3.286-1.421c19.446,44.9,4.818,84.5,4.668,84.9A1.8,1.8,0,0,1,867.628,172.853Z" transform="translate(-775.349 -13.174)"/>
        <path id="Trazado_2949" data-name="Trazado 2949" d="M867.539,145.377l-.043,0a1.79,1.79,0,0,1-1.747-1.829c.007-.211.326-21.329-12.746-40.349a1.792,1.792,0,0,1,2.953-2.029,78.5,78.5,0,0,1,13.372,42.465A1.793,1.793,0,0,1,867.539,145.377Z" transform="translate(-797.308 24.664)"/>
        <path id="Trazado_2950" data-name="Trazado 2950" d="M853.683,97.578H841.914a1.79,1.79,0,0,1,0-3.579h11.769a1.79,1.79,0,0,1,0,3.579Z" transform="translate(-829.718 8.171)"/>
        <path id="Trazado_2951" data-name="Trazado 2951" d="M864.606,97.578H852.838a1.79,1.79,0,1,1,0-3.579h11.769a1.79,1.79,0,1,1,0,3.579Z" transform="translate(-801.542 8.171)"/>
        <path id="Trazado_2952" data-name="Trazado 2952" d="M849.02,113.165a1.79,1.79,0,0,1-1.79-1.79V99.607a1.79,1.79,0,0,1,3.579,0v11.769A1.788,1.788,0,0,1,849.02,113.165Z" transform="translate(-811.39 18.019)"/>
        <path id="Trazado_2953" data-name="Trazado 2953" d="M849.02,102.241a1.788,1.788,0,0,1-1.79-1.79V88.683a1.79,1.79,0,0,1,3.579,0v11.769A1.786,1.786,0,0,1,849.02,102.241Z" transform="translate(-811.39 -10.157)"/>
        <path id="Trazado_2954" data-name="Trazado 2954" d="M850.442,99a1.8,1.8,0,0,1-1.264-.523l-5.1-5.1a1.789,1.789,0,1,1,2.531-2.531l5.1,5.1A1.79,1.79,0,0,1,850.442,99Z" transform="translate(-820.862 -1.303)"/>
        <path id="Trazado_2955" data-name="Trazado 2955" d="M856.364,104.924a1.772,1.772,0,0,1-1.263-.526L850,99.3a1.789,1.789,0,1,1,2.531-2.531l5.1,5.093a1.791,1.791,0,0,1-1.267,3.057Z" transform="translate(-805.587 13.972)"/>
        <path id="Trazado_2956" data-name="Trazado 2956" d="M845.348,104.924a1.791,1.791,0,0,1-1.267-3.057l5.1-5.093a1.789,1.789,0,0,1,2.531,2.531l-5.1,5.093A1.779,1.779,0,0,1,845.348,104.924Z" transform="translate(-820.862 13.972)"/>
        <path id="Trazado_2957" data-name="Trazado 2957" d="M851.267,99A1.79,1.79,0,0,1,850,95.946l5.1-5.1a1.789,1.789,0,0,1,2.531,2.531l-5.1,5.1A1.8,1.8,0,0,1,851.267,99Z" transform="translate(-805.587 -1.303)"/>
        <path id="Trazado_2958" data-name="Trazado 2958" d="M869.193,151.437h-.029a1.788,1.788,0,0,1-1.761-1.818c.018-.945.605-23.452,19.722-48.407a1.788,1.788,0,1,1,2.838,2.176c-18.355,23.963-18.977,46.073-18.981,46.291A1.791,1.791,0,0,1,869.193,151.437Z" transform="translate(-759.357 24.971)"/>
        <path id="Trazado_2959" data-name="Trazado 2959" d="M897.92,97.287H884.795a1.79,1.79,0,0,1,0-3.579H897.92a1.79,1.79,0,0,1,0,3.579Z" transform="translate(-719.115 7.421)"/>
        <path id="Trazado_2960" data-name="Trazado 2960" d="M885.737,97.287H872.612a1.79,1.79,0,1,1,0-3.579h13.125a1.79,1.79,0,0,1,0,3.579Z" transform="translate(-750.539 7.421)"/>
        <path id="Trazado_2961" data-name="Trazado 2961" d="M880.537,114.671a1.79,1.79,0,0,1-1.79-1.79V99.756a1.79,1.79,0,0,1,3.579,0v13.125A1.79,1.79,0,0,1,880.537,114.671Z" transform="translate(-730.098 18.403)"/>
        <path id="Trazado_2962" data-name="Trazado 2962" d="M880.537,102.488a1.788,1.788,0,0,1-1.79-1.79V87.573a1.79,1.79,0,0,1,3.579,0V100.7A1.788,1.788,0,0,1,880.537,102.488Z" transform="translate(-730.098 -13.02)"/>
        <path id="Trazado_2963" data-name="Trazado 2963" d="M883.045,98.876a1.791,1.791,0,0,1-1.267-3.057l5.684-5.684a1.789,1.789,0,0,1,2.531,2.531l-5.684,5.684A1.772,1.772,0,0,1,883.045,98.876Z" transform="translate(-723.63 -3.145)"/>
        <path id="Trazado_2964" data-name="Trazado 2964" d="M876.438,105.479a1.788,1.788,0,0,1-1.264-3.053l5.684-5.684a1.789,1.789,0,0,1,2.53,2.531l-5.684,5.684A1.8,1.8,0,0,1,876.438,105.479Z" transform="translate(-740.663 13.89)"/>
        <path id="Trazado_2965" data-name="Trazado 2965" d="M888.729,105.479a1.8,1.8,0,0,1-1.267-.523l-5.684-5.684a1.789,1.789,0,0,1,2.53-2.531l5.684,5.684a1.788,1.788,0,0,1-1.263,3.053Z" transform="translate(-723.63 13.89)"/>
        <path id="Trazado_2966" data-name="Trazado 2966" d="M882.122,98.876a1.771,1.771,0,0,1-1.263-.526l-5.684-5.684a1.789,1.789,0,0,1,2.531-2.531l5.684,5.684a1.791,1.791,0,0,1-1.267,3.057Z" transform="translate(-740.663 -3.145)"/>
        <path id="Trazado_2967" data-name="Trazado 2967" d="M867.938,112.255a1.718,1.718,0,0,1-.3-.025,1.793,1.793,0,0,1-1.468-2.062,88.822,88.822,0,0,1,10.427-27.285,1.79,1.79,0,1,1,3.089,1.811,86.7,86.7,0,0,0-9.983,26.072A1.79,1.79,0,0,1,867.938,112.255Z" transform="translate(-762.609 -22.787)"/>
        <path id="Trazado_2968" data-name="Trazado 2968" d="M880.908,79.167H869.14a1.79,1.79,0,0,1,0-3.579h11.769a1.79,1.79,0,1,1,0,3.579Z" transform="translate(-759.494 -39.316)"/>
        <path id="Trazado_2969" data-name="Trazado 2969" d="M891.835,79.167H880.063a1.79,1.79,0,1,1,0-3.579h11.772a1.79,1.79,0,1,1,0,3.579Z" transform="translate(-731.32 -39.316)"/>
        <path id="Trazado_2970" data-name="Trazado 2970" d="M876.245,94.754a1.788,1.788,0,0,1-1.79-1.79V81.2a1.79,1.79,0,1,1,3.579,0V92.964A1.788,1.788,0,0,1,876.245,94.754Z" transform="translate(-741.168 -29.468)"/>
        <path id="Trazado_2971" data-name="Trazado 2971" d="M876.245,83.83a1.79,1.79,0,0,1-1.79-1.79V70.272a1.79,1.79,0,1,1,3.579,0V82.04A1.79,1.79,0,0,1,876.245,83.83Z" transform="translate(-741.168 -57.645)"/>
        <path id="Trazado_2972" data-name="Trazado 2972" d="M877.669,80.591a1.772,1.772,0,0,1-1.263-.526l-5.1-5.093a1.789,1.789,0,1,1,2.53-2.531l5.1,5.093a1.791,1.791,0,0,1-1.267,3.057Z" transform="translate(-750.642 -48.79)"/>
        <path id="Trazado_2973" data-name="Trazado 2973" d="M883.592,86.514a1.8,1.8,0,0,1-1.267-.523l-5.094-5.1a1.789,1.789,0,1,1,2.531-2.531l5.093,5.1a1.788,1.788,0,0,1-1.263,3.053Z" transform="translate(-735.365 -33.516)"/>
        <path id="Trazado_2974" data-name="Trazado 2974" d="M872.571,86.514a1.788,1.788,0,0,1-1.263-3.053l5.1-5.1a1.789,1.789,0,1,1,2.53,2.531l-5.1,5.1A1.8,1.8,0,0,1,872.571,86.514Z" transform="translate(-750.642 -33.516)"/>
        <path id="Trazado_2975" data-name="Trazado 2975" d="M878.495,80.591a1.791,1.791,0,0,1-1.264-3.057l5.094-5.093a1.789,1.789,0,0,1,2.53,2.531l-5.093,5.093A1.786,1.786,0,0,1,878.495,80.591Z" transform="translate(-735.365 -48.79)"/>
        <path id="Trazado_2976" data-name="Trazado 2976" d="M866.974,69.67a1.79,1.79,0,0,1-1.271-3.053l.637-.637a1.791,1.791,0,0,1,2.538,2.527l-.637.637A1.787,1.787,0,0,1,866.974,69.67Z" transform="translate(-765.084 -65.454)"/>
        <path id="Trazado_2977" data-name="Trazado 2977" d="M864.428,72.218a1.79,1.79,0,0,1-1.271-3.053l.637-.641a1.792,1.792,0,0,1,2.538,2.531l-.637.637A1.781,1.781,0,0,1,864.428,72.218Z" transform="translate(-771.651 -58.89)"/>
        <path id="Trazado_2978" data-name="Trazado 2978" d="M867.607,72.218a1.787,1.787,0,0,1-1.267-.526l-.637-.637a1.792,1.792,0,0,1,2.538-2.531l.637.641a1.79,1.79,0,0,1-1.271,3.053Z" transform="translate(-765.084 -58.89)"/>
        <path id="Trazado_2979" data-name="Trazado 2979" d="M865.061,69.67a1.792,1.792,0,0,1-1.267-.526l-.637-.637a1.791,1.791,0,0,1,2.538-2.527l.637.637a1.79,1.79,0,0,1-1.271,3.053Z" transform="translate(-771.651 -65.454)"/>
        <path id="Trazado_2980" data-name="Trazado 2980" d="M841.552,85.788a1.788,1.788,0,0,1-1.267-3.053l.637-.637a1.789,1.789,0,0,1,2.531,2.531l-.637.637A1.768,1.768,0,0,1,841.552,85.788Z" transform="translate(-830.653 -23.875)"/>
        <path id="Trazado_2981" data-name="Trazado 2981" d="M839.007,88.336a1.791,1.791,0,0,1-1.267-3.057l.637-.634a1.789,1.789,0,0,1,2.531,2.531l-.637.634A1.772,1.772,0,0,1,839.007,88.336Z" transform="translate(-837.217 -17.31)"/>
        <path id="Trazado_2982" data-name="Trazado 2982" d="M842.186,88.336a1.784,1.784,0,0,1-1.264-.526l-.637-.634a1.789,1.789,0,0,1,2.53-2.531l.637.634a1.791,1.791,0,0,1-1.267,3.057Z" transform="translate(-830.653 -17.31)"/>
        <path id="Trazado_2983" data-name="Trazado 2983" d="M839.644,85.788a1.782,1.782,0,0,1-1.267-.523l-.637-.637a1.789,1.789,0,0,1,2.531-2.531l.637.637a1.788,1.788,0,0,1-1.264,3.053Z" transform="translate(-837.217 -23.875)"/>
        <path id="Trazado_2984" data-name="Trazado 2984" d="M889.292,85.17a1.788,1.788,0,0,1-1.263-3.057l.641-.637a1.789,1.789,0,0,1,2.524,2.538l-.641.637A1.772,1.772,0,0,1,889.292,85.17Z" transform="translate(-707.516 -25.475)"/>
        <path id="Trazado_2985" data-name="Trazado 2985" d="M886.747,87.717a1.791,1.791,0,0,1-1.263-3.057l.634-.637a1.791,1.791,0,0,1,2.53,2.534l-.633.634A1.786,1.786,0,0,1,886.747,87.717Z" transform="translate(-714.08 -18.909)"/>
        <path id="Trazado_2986" data-name="Trazado 2986" d="M889.933,87.717a1.789,1.789,0,0,1-1.263-.523l-.641-.637a1.788,1.788,0,1,1,2.524-2.534l.641.634a1.792,1.792,0,0,1-1.26,3.06Z" transform="translate(-707.516 -18.909)"/>
        <path id="Trazado_2987" data-name="Trazado 2987" d="M887.384,85.169a1.8,1.8,0,0,1-1.267-.523l-.634-.637a1.789,1.789,0,0,1,2.53-2.531l.633.637a1.788,1.788,0,0,1-1.263,3.053Z" transform="translate(-714.08 -25.474)"/>
      </g>
    </g>
    <path id="Trazado_2988" data-name="Trazado 2988" d="M866.448,73.46,849.665,84.309a77.944,77.944,0,0,1,.018-19.06A81.917,81.917,0,0,1,866.448,73.46ZM868.5,94a3.426,3.426,0,1,1-.383-2.917A3.434,3.434,0,0,1,868.5,94Zm3.293,5.068a6.519,6.519,0,0,0-2.169-11.848l-1.679-.361-1.342-.286A6.518,6.518,0,0,0,863.86,99.32l.007,0,3.01.644h0A6.5,6.5,0,0,0,871.789,99.07Zm6.593,10.222a3.439,3.439,0,0,1-1.4,1.829,3.434,3.434,0,1,1,1.4-1.829Zm3.293,5.072a6.52,6.52,0,0,0-2.169-11.851l-2.96-.637-.054-.011h-.007a6.52,6.52,0,0,0-2.738,12.749l3.021.648A6.493,6.493,0,0,0,881.674,114.364Zm6.593,10.219a3.444,3.444,0,0,1-2.4,2.269,3.391,3.391,0,0,1-.73-.813,3.43,3.43,0,0,1,1.02-4.743,3.508,3.508,0,0,1,.995-.44,3.306,3.306,0,0,1,.727.812A3.414,3.414,0,0,1,888.267,124.583Zm3.293,5.072a6.521,6.521,0,0,0-2.169-11.851l-3.021-.648a6.52,6.52,0,1,0-2.734,12.749l3.017.648A6.494,6.494,0,0,0,891.56,129.655Zm29.246-4.617-9.457,6.113a31.951,31.951,0,0,0-4.019-2.62,1.537,1.537,0,0,0-.419-.161l-3.021-.648a1.544,1.544,0,0,0-1.074,2.86,26.329,26.329,0,0,1,8.776,7.638l-22.106,14.292a27.109,27.109,0,0,1-2.352-9.192,1.544,1.544,0,0,0-1.213-1.382l-3.021-.648a1.469,1.469,0,0,0-.455-.029,1.55,1.55,0,0,0-1.342,1.067,1.52,1.52,0,0,0-.068.6,31.6,31.6,0,0,0,1.349,6.947l-8.7,5.627c-2.684-5.77-2.846-11.994-2.119-17.3a1.519,1.519,0,0,0,.59.268l3.021.648a1.54,1.54,0,0,0,1.164-.211,1.524,1.524,0,0,0,.3-.251,1.548,1.548,0,0,0-.09-2.183,83.122,83.122,0,0,1-26.018-46.449l20.628-13.336a82.623,82.623,0,0,1,27.586,35.553q1.16,2.829,2.184,5.874a1.543,1.543,0,0,0,1.142,1.02l3.021.648a1.54,1.54,0,0,0,1.786-2q-.532-1.589-1.1-3.125C911.146,116.433,916.87,119.547,920.807,125.038Zm6.017,2.387a1.543,1.543,0,0,0,.469-2.115c-5.555-8.869-14.94-12.638-22.349-14.228l-.644-.14c-17.181-40.758-55.1-49.348-55.493-49.434l-3.021-.651a1.546,1.546,0,0,0-1.793,1.038,1.47,1.47,0,0,0-.043.15c-.082.4-7.814,38.5,22.306,70.9-1.7,7.459-2.316,17.9,3.658,26.863a1.533,1.533,0,0,0,.959.651l3.021.648a1.557,1.557,0,0,0,1.164-.211l9.431-6.1q.569,1.036,1.224,2.022a1.542,1.542,0,0,0,.959.651l3.021.648a1.554,1.554,0,0,0,1.164-.211l26.755-17.3a1.542,1.542,0,0,0,.472-2.115,27.032,27.032,0,0,0-2.738-3.647Z" transform="translate(96.732 65.913)" fill="#fff"/>
    <g id="Grupo_3219" data-name="Grupo 3219" transform="translate(939.488 126.493)">
      <g id="Grupo_3218" data-name="Grupo 3218">
        <path id="Trazado_2989" data-name="Trazado 2989" d="M855.46,110.382a1.788,1.788,0,0,1-1.489-.8c-6.246-9.36-5.351-20.323-3.5-27.872a1.789,1.789,0,1,1,3.476.852c-1.579,6.443-2.42,15.581,2.076,23.534l11.361-7.345a1.79,1.79,0,0,1,1.944,3.007l-12.9,8.336A1.78,1.78,0,0,1,855.46,110.382Z" transform="translate(-827.018 -10.224)"/>
        <path id="Trazado_2990" data-name="Trazado 2990" d="M870.162,100.269a1.79,1.79,0,0,1-.97-3.293l11.361-7.341c-5.408-7.366-14.092-10.351-20.613-11.554a1.8,1.8,0,0,1-1.439-2.087,1.778,1.778,0,0,1,2.087-1.435c7.645,1.41,18.015,5.093,23.989,14.636a1.792,1.792,0,0,1-.548,2.452l-12.893,8.336A1.793,1.793,0,0,1,870.162,100.269Z" transform="translate(-802.849 -25.241)"/>
        <path id="Trazado_2991" data-name="Trazado 2991" d="M872.655,138.93a1.794,1.794,0,0,1-1.214-.473C835.194,105,843.8,62.594,843.885,62.168a1.8,1.8,0,0,1,2.126-1.371c.426.089,42.633,9.653,58.253,56.442a1.79,1.79,0,0,1-3.4,1.131c-13.118-39.3-45.711-51.2-53.779-53.586-1.142,8.34-3.669,42.941,26.78,71.042a1.788,1.788,0,0,1-1.213,3.1Z" transform="translate(-842.932 -60.755)"/>
        <path id="Trazado_2992" data-name="Trazado 2992" d="M845.118,82.427a1.789,1.789,0,0,1-.97-3.293L867.3,64.173a1.79,1.79,0,1,1,1.943,3.007L846.091,82.141A1.763,1.763,0,0,1,845.118,82.427Z" transform="translate(-841.906 -52.681)"/>
        <path id="Trazado_2993" data-name="Trazado 2993" d="M854.1,81.438a6.763,6.763,0,0,1-3.683-12.445A6.766,6.766,0,1,1,854.1,81.438Zm-.018-9.95a3.154,3.154,0,0,0-1.721.512,3.185,3.185,0,1,0,3.458,5.351,3.186,3.186,0,0,0,.945-4.406h0a3.172,3.172,0,0,0-2.008-1.385A3.3,3.3,0,0,0,854.078,71.488Z" transform="translate(-831.61 -42.307)"/>
        <path id="Trazado_2994" data-name="Trazado 2994" d="M856.861,85.714a6.985,6.985,0,0,1-1.435-.15,6.7,6.7,0,0,1-4.259-2.942,6.765,6.765,0,0,1,11.361-7.348h0a6.767,6.767,0,0,1-5.666,10.441Zm-.021-9.954a3.187,3.187,0,1,0,2.681,1.457h0a3.171,3.171,0,0,0-2.008-1.385A3.3,3.3,0,0,0,856.84,75.76Z" transform="translate(-824.486 -31.289)"/>
        <path id="Trazado_2995" data-name="Trazado 2995" d="M859.62,89.987a6.768,6.768,0,1,1,5.67-10.444v0a6.77,6.77,0,0,1-5.67,10.441Zm-.018-9.954a3.184,3.184,0,1,0,2.681,1.453A3.174,3.174,0,0,0,859.6,80.033Z" transform="translate(-817.363 -20.267)"/>
        <path id="Trazado_2996" data-name="Trazado 2996" d="M859.764,109.744a1.793,1.793,0,0,1-1.489-.795,29.22,29.22,0,0,1-4.71-14.006,1.783,1.783,0,0,1,1.636-1.933,1.827,1.827,0,0,1,1.929,1.636,26.19,26.19,0,0,0,3.2,10.813l23.68-15.309a26.184,26.184,0,0,0-8.544-7.359A1.79,1.79,0,1,1,877.2,79.66a29.282,29.282,0,0,1,10.838,10.047,1.791,1.791,0,0,1-.544,2.455l-26.759,17.3A1.78,1.78,0,0,1,859.764,109.744Z" transform="translate(-815.524 -12.575)"/>
      </g>
    </g>
  </g>
</svg>
