<?xml version="1.0" standalone="no"?>
<!DOCTYPE svg PUBLIC "-//W3C//DTD SVG 1.1//EN" "http://www.w3.org/Graphics/SVG/1.1/DTD/svg11.dtd" >
<svg xmlns="http://www.w3.org/2000/svg" xmlns:xlink="http://www.w3.org/1999/xlink" version="1.1">
<metadata>
Created by FontForge 20170731 at Thu Oct 19 14:11:14 2017
 By Aleksey,,,
Copyright (c) 2017 by Jan-Christian Bruun. All rights reserved.
</metadata>
<defs>
<font id="ArkibalDisplay-MediumItalic" horiz-adv-x="671" >
  <font-face 
    font-family="Arkibal Display Rg"
    font-weight="500"
    font-style="italic"
    font-stretch="normal"
    units-per-em="1000"
    panose-1="2 0 6 4 0 0 0 2 0 4"
    ascent="750"
    descent="-250"
    x-height="494"
    cap-height="699"
    bbox="-88 -297.6 1336.79 1009.25"
    underline-thickness="50"
    underline-position="-200"
    unicode-range="U+0020-FB02"
  />
<missing-glyph horiz-adv-x="249" 
 />
    <glyph glyph-name=".notdef" horiz-adv-x="249" 
 />
    <glyph glyph-name=".null" horiz-adv-x="0" 
 />
    <glyph glyph-name="nonmarkingreturn" horiz-adv-x="333" 
 />
    <glyph glyph-name="space" unicode=" " horiz-adv-x="313" 
 />
    <glyph glyph-name="exclam" unicode="!" horiz-adv-x="256" 
d="M136 180h-79l84 524h95zM120 52q1 -20 -15.5 -37.5t-40.5 -18.5q-20 0 -32 15.5t-7 35.5q4 19 20.5 31.5t35.5 12.5q17 0 28 -11t11 -28z" />
    <glyph glyph-name="quotedbl" unicode="&#x22;" horiz-adv-x="315" 
d="M100 458h-53l43 240h51zM221 458h-52l42 240h51z" />
    <glyph glyph-name="numbersign" unicode="#" horiz-adv-x="727" 
d="M677 437h-136l-63 -174h117l-16 -75h-129l-71 -197h-80l72 197h-171l-71 -197h-80l71 197h-127l16 75h139l63 174h-120l16 75h131l73 200h80l-73 -200h171l72 200h80l-73 -200h125zM398 263l63 174h-170l-64 -174h171z" />
    <glyph glyph-name="dollar" unicode="$" horiz-adv-x="673" 
d="M386 395q38 -8 67 -16t65.5 -23t59 -33.5t37.5 -47.5t13 -64q-6 -86 -70 -139.5t-151 -70.5q-45 -10 -92 -12l-10 -61h-80l10 60q-70 2 -142 29.5t-108 72.5l63 55q63 -69 166 -76q11 -2 35 -4l46 269q-67 15 -104 29q-108 40 -111 126q1 41 16 79q70 137 266 149l11 59
h80l-11 -58q156 -14 234 -89l-65 -56q-77 59 -181 67zM252 427q28 -9 57 -15l39 227q-110 -7 -162 -68q-25 -38 -20.5 -67t26.5 -47.5t60 -29.5zM335 67q35 3 69 12t67.5 25.5t53 46t17.5 68.5q-2 26 -26.5 45.5t-43 25.5t-51.5 15q-16 5 -48 13l-44 -252q2 1 6 1z" />
    <glyph glyph-name="percent" unicode="%" horiz-adv-x="951" 
d="M270 349q-71 -1 -114.5 37.5t-49.5 104.5q-4 49 18 94q42 75 117.5 113.5t150.5 12.5q82 -26 102 -114q9 -60 -11 -107q-37 -68 -87.5 -102t-125.5 -39zM282 427q58 1 95 39t39 93q-7 84 -104 84q-56 -2 -92.5 -42.5t-33.5 -95.5q2 -38 29 -58.5t67 -19.5zM273 -18h-80
l577 738h80zM705 -18q-71 -1 -114.5 37.5t-49.5 104.5q-4 49 18 94q42 75 117.5 113.5t150.5 12.5q82 -26 102 -114q9 -60 -11 -107q-37 -68 -87.5 -102t-125.5 -39zM717 60q58 1 95 39t39 93q-7 84 -104 84q-56 -2 -92.5 -42.5t-33.5 -95.5q2 -38 29 -58.5t67 -19.5z" />
    <glyph glyph-name="ampersand" unicode="&#x26;" horiz-adv-x="746" 
d="M600 105q26 -35 81 -105h-106q-9 10 -23.5 28.5t-21.5 26.5q-71 -53 -169 -64q-43 -8 -95.5 -0.5t-98.5 23.5t-77.5 55t-32.5 93q0 121 95 191q35 26 120 58l1 4q-19 38 -30 78q-13 57 13 116q38 84 149 104q61 11 119 5q7 -1 73 -11l-15 -75q-90 20 -164 6
q-85 -13 -97 -85q-7 -44 42 -113q163 -231 196 -274q10 0 28.5 39t25.5 63q3 11 9 35h78q2 -37 -33 -107q-27 -54 -67 -91zM480 107q2 1 4.5 3t3.5 3q-6 10 -88.5 125t-88.5 122q-2 0 -5.5 -1t-4.5 -1q-70 -25 -106 -56q-37 -32 -50 -78q-17 -60 20.5 -103t101.5 -53
q54 -8 104 1q60 9 109 38z" />
    <glyph glyph-name="quotesingle" unicode="'" horiz-adv-x="172" 
d="M141 698l-41 -240h-53l43 240h51z" />
    <glyph glyph-name="parenleft" unicode="(" horiz-adv-x="378" 
d="M316 772h83q-1 0 -3 -2q-76 -87 -136 -194q-57 -99 -87 -200q-30 -108 -26 -218q9 -167 88 -321q2 -2 3 -4h-85q-1 1 -2.5 3.5t-2.5 4.5q-30 57 -54 136q-34 120 -28 231q3 84 30 177q24 78 62 151q60 121 150 227q6 7 8 9z" />
    <glyph glyph-name="parenright" unicode=")" horiz-adv-x="354" 
d="M232 582q15 -67 17 -147q1 -29 -3 -85q-15 -151 -102 -309q-55 -102 -136 -195q-8 -10 -11 -13h-85q2 2 2 3q81 90 141 195q61 104 89 206q29 103 25 205q-6 167 -82 322q-2 6 -4 8h83l7 -14q39 -80 59 -176z" />
    <glyph glyph-name="asterisk" unicode="*" horiz-adv-x="449" 
d="M408 544l-155 -31l87 -114l-81 -51q-5 14 -23 63.5t-28 74.5l-89 -126q-1 -3 -4.5 -7.5t-5.5 -6.5l-62 51l126 115q-24 6 -71.5 15.5t-71.5 15.5l40 80l127 -63l7 150h85l-47 -154l154 69z" />
    <glyph glyph-name="plus" unicode="+" horiz-adv-x="566" 
d="M537 371l-16 -81h-197l-36 -198h-81l35 198h-199l16 81h197l35 199h82l-35 -199h199z" />
    <glyph glyph-name="comma" unicode="," horiz-adv-x="201" 
d="M36 -90h-45l82 203h86z" />
    <glyph glyph-name="hyphen" unicode="-" horiz-adv-x="383" 
d="M319 267h-274l16 75h275z" />
    <glyph glyph-name="period" unicode="." horiz-adv-x="198" 
d="M117 49q1 -20 -15.5 -37.5t-40.5 -18.5q-20 0 -32 15.5t-7 35.5q4 19 20.5 31.5t35.5 12.5q17 0 28 -11t11 -28z" />
    <glyph glyph-name="slash" unicode="/" horiz-adv-x="345" 
d="M20 -110h-80l388 863h80z" />
    <glyph glyph-name="zero" unicode="0" horiz-adv-x="701" 
d="M201 -7q-51 15 -87.5 52t-51 82.5t-21 97t2.5 96.5q20 146 99 252.5t207 133.5q67 14 132 -1q197 -63 175 -313q-17 -150 -81 -248q-47 -68 -100 -106q-60 -41 -141 -54q-70 -11 -134 8zM577 427q2 68 -27 125.5t-88 76.5q-42 12 -92 6q-132 -19 -198 -153
q-37 -75 -47 -155q-7 -38 -3 -80.5t14.5 -78.5t38 -64.5t67.5 -38.5t80 -6q63 7 113.5 44t80.5 94q59 106 61 230z" />
    <glyph glyph-name="one" unicode="1" horiz-adv-x="535" 
d="M313 76h175l-12 -76h-436l13 76h176l97 541l-183 -41l12 77l219 45h47z" />
    <glyph glyph-name="two" unicode="2" horiz-adv-x="590" 
d="M234 111q-9 -5 -27 -13t-27 -13q-6 -4 -12 -6v-3h362l-11 -76h-482l11 86q2 1 6 3.5t6 3.5q114 56 170 87q73 41 127 81q50 37 85 79q53 62 67 137q8 40 -1 72q-10 37 -45 60q-27 16 -64 21q-76 8 -154 -28q-37 -19 -68 -42l-45 53q78 61 164 82q67 17 130 10
q44 -7 75 -21q79 -38 93 -127q7 -48 -10 -108q-20 -75 -78 -141q-38 -45 -100 -91q-71 -54 -172 -106z" />
    <glyph glyph-name="three" unicode="3" horiz-adv-x="589" 
d="M548 621l-252 -195v-4q48 -6 51 -7q36 -6 74 -23q29 -14 49 -36q30 -30 38 -76q7 -43 -7 -97q-6 -27 -16 -49q-30 -65 -94 -102q-42 -24 -93 -34q-79 -17 -169 -12q-54 4 -82 9q-40 8 -63 18q-8 4 -13 6q21 37 49 74l6 -3q30 -14 81 -23q45 -7 102 -5q68 5 116 26
q28 13 51 31q59 53 51 131q-3 35 -31 60q-18 16 -42 25q-26 11 -66 18q-44 7 -76 8l-8 71l236 189l1 3h-354l12 75h461z" />
    <glyph glyph-name="four" unicode="4" horiz-adv-x="627" 
d="M502 235h81l-13 -77h-82q-5 -27 -14 -80t-14 -78h-81l28 158h-389l19 68l377 473h93l-378 -457l-1 -7h292l23 127h81z" />
    <glyph glyph-name="five" unicode="5" horiz-adv-x="611" 
d="M574 623h-364q-5 -30 -11 -64.5t-13.5 -77t-11.5 -65.5l6 -3q42 13 91 19q84 10 147 -4q32 -7 56 -20q69 -35 79 -110q4 -29 -1 -64q-9 -60 -38 -107q-46 -80 -138 -117q-50 -19 -99 -23q-108 -12 -216 24q-28 10 -57 25l37 76q68 -37 144 -48q49 -7 103 -1q32 3 62 13
q88 30 113 120q11 33 9 66q-2 20 -6 30q-10 29 -40 45q-21 13 -51 18q-40 7 -89 5q-84 -5 -184 -37l-24 6q11 61 32.5 184.5t32.5 185.5h444z" />
    <glyph glyph-name="six" unicode="6" horiz-adv-x="658" 
d="M398 447q78 -5 138.5 -47t66.5 -119q7 -99 -59 -180t-166 -106q-55 -15 -111.5 -10t-102.5 22.5t-77.5 61.5t-36.5 108q-4 48 5 127q13 94 40 168q44 125 139 188.5t228 53.5q99 -6 180 -64l-62 -63q-36 32 -91 45q-75 18 -153 -2q-121 -31 -169 -181q-16 -49 -23 -97
q-3 -10 -2 -13h3l2 2t1 2q40 56 107.5 83t142.5 21zM444 103q79 58 76 153q-3 58 -50 86.5t-111 28.5q-75 2 -137 -34t-80 -108q-9 -36 -2 -64q11 -62 75.5 -87t131.5 -13q55 8 97 38z" />
    <glyph glyph-name="seven" unicode="7" horiz-adv-x="529" 
d="M82 698h465l-15 -77l-359 -621h-78l353 614l2 9h-383z" />
    <glyph glyph-name="eight" unicode="8" horiz-adv-x="672" 
d="M506 363l-1 -2q45 -19 75 -53t31 -78q3 -92 -60.5 -155.5t-153.5 -79.5q-72 -13 -145 -9q-119 6 -182 61.5t-31 165.5q13 53 55 93t94 53l2 4q-48 23 -61.5 50.5t-10.5 79.5q1 25 14 63q25 65 80 103t127 49q51 8 112 5q169 -14 185 -125q9 -63 -16 -119
q-35 -74 -114 -106zM304 62q55 -1 101 11.5t81.5 47t42.5 87.5q2 48 -65 80q-26 12 -54 18q-116 26 -145 31q-84 -24 -116 -66q-40 -51 -34 -110q2 -31 22.5 -52t52.5 -30.5t59.5 -13t54.5 -3.5zM200 496q0 -36 19.5 -52.5t63.5 -28.5t139 -31l7 3q43 17 71 39q51 41 55 101
q4 50 -29 76.5t-82 32.5q-45 5 -102 -3q-60 -9 -99 -44.5t-43 -92.5z" />
    <glyph glyph-name="nine" unicode="9" horiz-adv-x="637" 
d="M344 715q298 0 247 -332q-9 -61 -22 -110t-35 -97.5t-52 -83t-74.5 -61t-101.5 -38.5q-60 -12 -123 -7q-67 5 -117 28q-25 12 -62 38l58 66q43 -35 96 -48q81 -20 161 3q80 24 130.5 109t57.5 180h-3l-2 -2q-50 -72 -141 -97q-57 -14 -120 -8q-76 6 -132.5 47.5
t-62.5 113.5q-6 66 27 134q35 74 108.5 118.5t162.5 46.5zM508 480q5 30 1 54q-7 42 -41 68.5t-82 34.5q-41 6 -83 0q-75 -10 -126.5 -63.5t-47.5 -130.5q2 -55 50.5 -84.5t110.5 -29.5q79 0 138 37.5t80 113.5z" />
    <glyph glyph-name="colon" unicode=":" horiz-adv-x="203" 
d="M109 49q1 -20 -15.5 -37.5t-40.5 -18.5q-20 0 -32 15.5t-7 35.5q4 19 20.5 31.5t35.5 12.5q17 0 28 -11t11 -28zM178 450q1 -20 -15.5 -37.5t-40.5 -18.5q-20 0 -32 15.5t-7 35.5q4 19 20.5 31.5t35.5 12.5q17 0 28 -11t11 -28z" />
    <glyph glyph-name="semicolon" unicode=";" horiz-adv-x="199" 
d="M143 113l-123 -203h-45l82 203h86zM198 450q1 -20 -15.5 -37.5t-40.5 -18.5q-20 0 -32 15.5t-7 35.5q4 19 20.5 31.5t35.5 12.5q17 0 28 -11t11 -28z" />
    <glyph glyph-name="less" unicode="&#x3c;" horiz-adv-x="600" 
d="M573 548l-14 -80l-420 -138l373 -134l-14 -81l-458 176l14 82z" />
    <glyph glyph-name="equal" unicode="=" horiz-adv-x="522" 
d="M475 368h-401l17 76h400zM444 181h-401l17 75h401z" />
    <glyph glyph-name="greater" unicode="&#x3e;" horiz-adv-x="572" 
d="M-2 107l14 81l421 138l-374 134l14 80l458 -175l-14 -82z" />
    <glyph glyph-name="question" unicode="?" horiz-adv-x="502" 
d="M480 584q8 -65 -20 -131q-30 -72 -105 -109q-45 -22 -103 -30q-3 -1 -8 -1.5t-8 -0.5q-5 -26 -13.5 -75t-10.5 -59l-80 1q1 10 17.5 103t19.5 103l14 -1h24.5t24.5 1q52 5 92 27q22 14 40 31q29 32 33 70q4 31 0 51q-9 41 -44 60q-22 12 -53 15q-71 8 -152 -16
q-39 -13 -77 -34l11 78q42 23 84 34q69 20 152 15q44 -3 76 -18q75 -31 86 -114zM199 49q0 17 -11 28t-28 11q-19 0 -35.5 -12.5t-20.5 -31.5q-5 -20 7 -35.5t32 -15.5q24 1 40.5 18.5t15.5 37.5z" />
    <glyph glyph-name="at" unicode="@" horiz-adv-x="997" 
d="M952 553q30 -72 24 -151q-9 -104 -56 -193q-27 -56 -71 -98q-30 -30 -69 -48q-41 -18 -85 -14q-22 3 -46.5 18.5t-32.5 40.5h-1h-6q-43 -37 -91 -51q-70 -18 -130 -1q-88 24 -105 115q-11 52 6 117q19 73 66 125q57 60 132 73q51 9 99 -4q40 -12 75 -51h4l20 43h53
q-3 -18 -51 -293q-2 -7 -2 -22q2 -32 34 -35q16 -1 34 5q15 6 35 22q25 20 45 51q28 43 44 101q19 69 17 120q-4 148 -138 211q-48 22 -109 27q-47 5 -100 -1q-106 -11 -196 -66q-165 -103 -215 -293q-18 -69 -15 -140q6 -108 68 -182q48 -60 130 -87q54 -19 114 -22
q121 -4 237 30q3 1 13 4.5t16 5.5l-12 -79q-3 -1 -9 -3.5t-9 -3.5q-32 -10 -94 -22q-75 -12 -150 -9q-110 5 -195 48q-150 79 -183 246q-14 69 -4 151q23 167 125 289q125 154 323 200q84 19 175 11q81 -8 142 -38q100 -49 144 -147zM614 217q17 39 19 86q-2 22 -4 32
q-12 56 -67 73q-35 11 -78 1q-62 -13 -94 -70q-21 -34 -27 -81q-5 -35 0 -61q9 -49 55 -64q47 -17 93 -4q71 19 103 88z" />
    <glyph glyph-name="A" unicode="A" horiz-adv-x="705" 
d="M463 699l177 -699h-86l-40 165h-374q-16 -27 -48.5 -82t-49.5 -83h-87l423 699h85zM182 236l316 -1l-91 374h-4z" />
    <glyph glyph-name="B" unicode="B" horiz-adv-x="758" 
d="M721 465q-30 -73 -142 -110l-1 -2q49 -11 79.5 -34t38.5 -73q8 -58 -17 -117q-19 -42 -54 -69.5t-84.5 -39.5t-91.5 -16t-100 -4h-315q24 135 69.5 393t54.5 306h320q117 -5 165 -22q88 -30 94 -110q4 -50 -16 -102zM225 622q-6 -38 -20.5 -118.5t-20.5 -117.5h227
q219 0 240 112q14 70 -32 97t-134 27h-260zM610 169q11 25 11 45.5t-7.5 34.5t-23 25.5t-34 18t-42 11t-45 6.5t-45.5 3h-254q-7 -39 -21 -118t-21 -118h241q201 0 241 92z" />
    <glyph glyph-name="C" unicode="C" horiz-adv-x="783" 
d="M625 156q27 -23 59 -48q-143 -132 -339 -121q-87 3 -150 33q-67 33 -108 89t-48 125q-14 194 103.5 328t304.5 152q89 9 186.5 -22.5t140.5 -101.5q-68 -44 -74 -47q-40 50 -100.5 74t-127.5 22q-98 -2 -179 -47q-138 -80 -169 -234q-21 -112 35 -193t166 -98
q155 -24 300 89z" />
    <glyph glyph-name="D" unicode="D" horiz-adv-x="776" 
d="M744 528q10 -48 7 -100q-6 -85 -30 -166q-13 -39 -28 -73q-28 -56 -73 -95t-103.5 -58.5t-117.5 -27.5t-131 -8h-236l125 699h243q62 0 93 -3q45 -6 80.5 -16t72 -28t62 -49.5t36.5 -74.5zM670 419q3 39 -4 73q-23 131 -240 131h-203q-12 -69 -45.5 -257t-51.5 -290h159
q53 0 95 4.5t92 17.5t89 42.5t61 74.5q14 32 23 62q21 75 25 142z" />
    <glyph glyph-name="E" unicode="E" horiz-adv-x="698" 
d="M688 623h-470l-41 -235h423l-14 -77h-422l-41 -235h472l-14 -76h-551l122 699h550z" />
    <glyph glyph-name="F" unicode="F" horiz-adv-x="663" 
d="M688 623h-470l-41 -235h423l-14 -77h-422l-55 -311h-79l122 699h550z" />
    <glyph glyph-name="G" unicode="G" horiz-adv-x="821" 
d="M411 321l15 72h346l-70 -393h-53l-5 99h-3q-57 -75 -167 -102q-64 -16 -135 -11q-74 5 -129 29q-68 30 -110.5 87t-53.5 129q-19 192 91.5 322t296.5 158q61 7 114 1q153 -18 234 -125q-50 -30 -74 -45q-92 107 -246 95q-129 -11 -220 -89.5t-113 -199.5q-5 -36 -4 -62
q6 -94 66 -154t151 -68q91 -10 167.5 18.5t121.5 97.5q25 43 38 100q2 7 4.5 20.5t3.5 20.5h-266z" />
    <glyph glyph-name="H" unicode="H" horiz-adv-x="755" 
d="M664 699h79l-122 -699h-79l54 312h-436l-54 -312h-80l122 699h80l-55 -311h437z" />
    <glyph glyph-name="I" unicode="I" horiz-adv-x="238" 
d="M111 0h-80l122 699h80z" />
    <glyph glyph-name="J" unicode="J" horiz-adv-x="588" 
d="M262 699h326q-6 -40 -35.5 -200t-39.5 -220q-15 -75 -39 -130q-67 -179 -331 -162q-97 11 -163 60l64 67q75 -52 152 -52q84 0 135.5 29.5t80.5 106.5q16 46 26 103q24 134 57 322h-246z" />
    <glyph glyph-name="K" unicode="K" horiz-adv-x="728" 
d="M765 700q-68 -59 -193.5 -166t-184.5 -158l264 -376h-112l-215 323l-191 -161l-28 -162h-80l122 699h80l-75 -429h3l498 430h112z" />
    <glyph glyph-name="L" unicode="L" horiz-adv-x="581" 
d="M153 77h403l-15 -77h-480l122 699h79z" />
    <glyph glyph-name="M" unicode="M" horiz-adv-x="826" 
d="M724 699h80l-126 -699h-78l96 550h-5l-306 -352l-186 352h-4l-99 -550h-79q19 106 59.5 342t61.5 357h79l185 -372h7z" />
    <glyph glyph-name="N" unicode="N" horiz-adv-x="774" 
d="M686 699h78l-122 -699h-69l-363 558h-4l-99 -558h-80l124 699h71l357 -572l5 1z" />
    <glyph glyph-name="O" unicode="O" horiz-adv-x="872" 
d="M375 -15q-160 5 -253.5 99.5t-71.5 243.5q28 183 160 288.5t323 95.5q120 -9 199.5 -70t96.5 -170q10 -103 -23 -194t-95.5 -154.5t-150 -100.5t-185.5 -38zM489 637q-135 0 -233 -78t-123 -209q-16 -94 22.5 -163.5t111.5 -100.5t163 -23q152 20 245.5 128.5t72.5 255.5
q-14 93 -85 141.5t-174 48.5z" />
    <glyph glyph-name="P" unicode="P" horiz-adv-x="678" 
d="M679 540v-1q5 -81 -32 -154q-38 -76 -111 -106.5t-184 -30.5h-207l-45 -248h-81q109 614 124 699h296q105 0 167 -36.5t73 -122.5zM594 471q30 152 -156 152h-228l-51 -300h203q97 0 156 31t76 117z" />
    <glyph glyph-name="Q" unicode="Q" horiz-adv-x="873" 
d="M828 472q12 -120 -33.5 -222.5t-131.5 -168t-196 -87.5l33 -139h-85l-30 130h-11q-160 5 -253.5 99.5t-71.5 243.5q28 183 162.5 290t320.5 94q113 -5 196 -68.5t100 -171.5zM429 63q152 20 245.5 128.5t72.5 255.5q-14 92 -86.5 141t-172.5 49q-139 0 -235 -77
t-121 -210q-16 -94 22.5 -163.5t111.5 -100.5t163 -23z" />
    <glyph glyph-name="R" unicode="R" horiz-adv-x="700" 
d="M678 539q4 -81 -32 -154q-48 -97 -163 -124l74 -261h-95l-71 249q-13 -1 -40 -1h-202l-45 -248h-81q109 614 124 699h291q220 0 240 -160zM593 471q15 76 -25 114t-131 38l-223 -1l-51 -299h198q97 0 156 31t76 117z" />
    <glyph glyph-name="S" unicode="S" horiz-adv-x="719" 
d="M699 626l-65 -55q-91 68 -215 68q-149 0 -209 -70q-25 -38 -20.5 -67t26.5 -47.5t60 -29.5q45 -14 106 -26q36 -7 58 -12.5t59.5 -16.5t61 -24.5t47.5 -32.5t34.5 -45.5t8.5 -58.5q-6 -86 -70 -139t-150 -70q-72 -16 -160 -13q-72 0 -148 27.5t-113 74.5l62 54
q65 -68 166 -76q56 -8 121 -2q36 3 69 12t67.5 25.5t53.5 46t17 68.5q-2 26 -26.5 45.5t-43 25.5t-51.5 15q-25 8 -113 26q-84 19 -117 32q-107 39 -110 126q2 41 16 79q80 158 341 149q157 -12 237 -89z" />
    <glyph glyph-name="T" unicode="T" horiz-adv-x="617" 
d="M58 699l588 -1l-12 -75h-254l-111 -623h-81l110 623h-250z" />
    <glyph glyph-name="U" unicode="U" horiz-adv-x="756" 
d="M676 699h81l-56 -299q-15 -87 -20 -109q-25 -94 -73 -159q-52 -75 -137 -113.5t-181 -30.5q-38 2 -72 12q-114 36 -147 151q-24 78 1 211l59 337h81l-65 -369q-7 -55 -2 -107.5t39 -96.5t92 -57q74 -16 145 8.5t119 86.5q49 65 74 193z" />
    <glyph glyph-name="V" unicode="V" horiz-adv-x="674" 
d="M616 699h83l-404 -699h-92l-160 699h86l130 -622h4z" />
    <glyph glyph-name="W" unicode="W" horiz-adv-x="1034" 
d="M1007 699h87q-57 -116 -172 -350t-171 -349h-99l-85 581h-4l-292 -581h-96q-15 115 -47 350t-48 349h83l72 -622h3l314 620h66l95 -620h4z" />
    <glyph glyph-name="X" unicode="X" horiz-adv-x="670" 
d="M377 362l-1 -5l222 -357h-104l-177 300h-5l-270 -300l-101 1l331 354l2 9l-197 335h102l153 -281h6l267 281h100z" />
    <glyph glyph-name="Y" unicode="Y" horiz-adv-x="628" 
d="M569 699h91l-339 -433q-12 -71 -47 -266h-80l47 266l-191 433h90l153 -355h5z" />
    <glyph glyph-name="Z" unicode="Z" horiz-adv-x="647" 
d="M651 621l-518 -537l-2 -7h437l-15 -77h-543l20 79l514 539l1 5h-428l9 76h546z" />
    <glyph glyph-name="bracketleft" unicode="[" horiz-adv-x="344" 
d="M365 698h-127l-141 -798h123l-11 -75h-204l167 947h204z" />
    <glyph glyph-name="backslash" unicode="\" horiz-adv-x="325" 
d="M235 -110h-79l-86 864h83z" />
    <glyph glyph-name="bracketright" unicode="]" horiz-adv-x="329" 
d="M121 772h203l-168 -946h-201l13 74h123l141 798h-122z" />
    <glyph glyph-name="asciicircum" unicode="^" horiz-adv-x="484" 
d="M358 699l101 -371v-15h-75l-83 302h-2l-188 -301h-73v10l233 375h87z" />
    <glyph glyph-name="underscore" unicode="_" horiz-adv-x="415" 
d="M395 0l-17 -75h-357l16 75h358z" />
    <glyph glyph-name="grave" unicode="`" horiz-adv-x="258" 
d="M228 564h-89l-109 167h110z" />
    <glyph glyph-name="a" unicode="a" 
d="M522 268q11 65 -21.5 110t-97.5 53q-66 8 -129.5 -13.5t-103.5 -67.5l-73 34q42 63 119.5 94.5t162.5 31.5q115 0 177 -69.5t44 -179.5q-7 -56 -23.5 -139.5t-22.5 -121.5h-71v74h-3q-87 -92 -252 -92q-78 0 -128 33.5t-51 97.5q-1 51 21 86.5t58 52t81.5 25.5t91.5 6.5
t89 -3.5q69 -4 132 -12zM508 202q-109 12 -173 14q-24 2 -57 0t-63.5 -6.5t-53.5 -21.5t-28 -44q-2 -32 18 -52t45 -27t56 -8q58 0 108.5 12t93.5 46t54 87z" />
    <glyph glyph-name="b" unicode="b" horiz-adv-x="669" 
d="M496 492q90 -39 117.5 -134.5t-19.5 -187.5q-67 -138 -220 -176q-49 -13 -105 -8q-47 5 -85 31.5t-55 68.5h-5l-30 -86h-65l119 675l85 23l-50 -281h3q40 46 97.5 71.5t120.5 22.5q50 -2 92 -19zM361 66q96 19 142.5 92.5t37.5 148.5q-11 84 -87 115q-31 13 -69 13
q-62 0 -109 -22q-62 -30 -94.5 -87.5t-31.5 -117.5q2 -55 37.5 -95t91.5 -49q36 -6 82 2z" />
    <glyph glyph-name="c" unicode="c" horiz-adv-x="589" 
d="M563 418l-67 -44q-35 47 -95 58q-96 14 -169.5 -29t-98.5 -128q-12 -41 -9 -81q7 -58 48 -93.5t99 -38.5q102 -4 182 61l52 -42q-22 -31 -72.5 -56.5t-93.5 -33.5q-48 -9 -94 -5q-79 10 -131 55t-67 116q-15 77 20 158q32 74 94.5 124.5t141.5 65.5q51 11 100 5
q108 -17 160 -92z" />
    <glyph glyph-name="d" unicode="d" horiz-adv-x="669" 
d="M582 676l83 22q-119 -680 -122 -698h-64l-1 86h-5q-66 -93 -184 -100q-62 -3 -110 13q-81 28 -118 97q-27 48 -25 111q4 127 103 219q72 64 167 81q51 8 98 1q91 -17 129 -92h2zM509 285q0 54 -29 93.5t-82 51.5q-50 11 -99 0q-112 -23 -160 -124q-31 -63 -19 -126
q12 -73 79 -103q31 -13 67 -15q75 -5 134 33q106 67 109 190z" />
    <glyph glyph-name="e" unicode="e" horiz-adv-x="651" 
d="M476 143q40 -22 61 -33q-28 -48 -81.5 -79.5t-112.5 -41.5q-78 -13 -138 6q-99 29 -136.5 109.5t-10.5 174.5q22 73 76 130.5t127 83.5q70 25 143 18q77 -8 130 -54q57 -50 68 -127q9 -63 -10 -111l-464 -1q-3 -31 8 -59q17 -46 55.5 -70.5t87.5 -26.5q138 0 197 81z
M525 284q-4 70 -47 110t-110 43q-80 0 -143 -40t-82 -112q10 -1 156 -1.5t226 0.5z" />
    <glyph glyph-name="f" unicode="f" horiz-adv-x="369" 
d="M330 632q-41 -5 -64 -26.5t-33 -65.5q-6 -27 -8 -45h126l-12 -76h-128l-74 -419h-82l75 419h-92l12 76h94l3 14q9 53 23 84q5 14 16 32q37 64 112 79q57 12 122 -5l-18 -73q-34 9 -72 6z" />
    <glyph glyph-name="g" unicode="g" horiz-adv-x="669" 
d="M560 495h71l-84 -466q-16 -100 -74.5 -167.5t-154.5 -88.5q-62 -14 -125 -9q-150 9 -211 70l40 67q53 -47 148 -58q44 -5 99 -2q33 1 66 12q63 21 95 76q11 18 22 46q14 39 25 106h-5q-35 -35 -39 -38q-58 -46 -131 -55q-78 -10 -141 17q-108 44 -126 159q-11 65 16 137
q38 102 130 160.5t201 48.5q99 -8 146 -94h3q5 13 14.5 39.5t14.5 39.5zM470 155q49 73 39 154q-6 60 -53.5 93t-111.5 33q-40 1 -83 -13q-73 -25 -114.5 -91.5t-32.5 -142.5q9 -70 71 -106q19 -10 43 -16q59 -12 116 3q83 22 126 86z" />
    <glyph glyph-name="h" unicode="h" horiz-adv-x="691" 
d="M483 507q73 -11 112.5 -66.5t34.5 -131.5q-1 -18 -10 -76l-42 -233h-81q49 273 50 284q7 56 -18.5 98.5t-83.5 49.5q-54 8 -105 -4q-72 -17 -121 -71.5t-60 -121.5l-41 -235h-79l115 677l83 22l-51 -302h4q31 42 81.5 71t107.5 37q54 9 104 2z" />
    <glyph glyph-name="i" unicode="i" horiz-adv-x="240" 
d="M112 0h-79l85 495h79zM236 665q1 -20 -15.5 -37.5t-40.5 -18.5q-20 0 -32 15.5t-7 35.5q4 19 20.5 31.5t35.5 12.5q17 0 28 -11t11 -28z" />
    <glyph glyph-name="j" unicode="j" horiz-adv-x="221" 
d="M61 -203l-83 -22l127 720h80zM220 665q1 -20 -15.5 -37.5t-40.5 -18.5q-20 0 -32 15.5t-7 35.5q4 19 20.5 31.5t35.5 12.5q17 0 28 -11t11 -28z" />
    <glyph glyph-name="k" unicode="k" horiz-adv-x="603" 
d="M620 495l-226 -186l151 -309h-94l-124 255l-182 -147l-18 -108h-79l115 676l83 23l-83 -487h4l347 283h106z" />
    <glyph glyph-name="l" unicode="l" horiz-adv-x="220" 
d="M220 699l-122 -699h-80l118 675z" />
    <glyph glyph-name="m" unicode="m" horiz-adv-x="1056" 
d="M843 509q76 -7 120 -60t37 -132q-3 -35 -53 -317h-80l48 277q17 136 -101 155q-133 13 -197 -81q-29 -44 -40 -97l-46 -254h-81q6 38 22 124t25 142q4 39 1 74t-29 61.5t-71 29.5q-85 10 -148 -35.5t-86 -129.5q-10 -38 -25.5 -135.5t-22.5 -130.5h-81q52 290 87 493h66
l2 -78h4l1 1q42 56 112.5 79t146.5 10q86 -16 119 -101h3h1q41 59 112.5 85.5t153.5 19.5z" />
    <glyph glyph-name="n" unicode="n" horiz-adv-x="681" 
d="M471 508q72 -9 113.5 -57.5t41.5 -129.5q-1 -18 -10 -81l-44 -240h-81q7 43 23.5 128.5t23.5 130.5q11 60 -11 110.5t-82 59.5q-80 13 -151 -15.5t-110 -98.5q-25 -45 -34 -99l-40 -216h-80q13 78 45 253.5t43 240.5h64l4 -80h4q101 116 281 94z" />
    <glyph glyph-name="o" unicode="o" horiz-adv-x="634" 
d="M269 -16q-92 0 -154 49t-77 132q-13 81 24 158q72 146 233 183q63 13 121 1q69 -13 115.5 -61t58.5 -117q10 -59 -10 -121q-26 -81 -90 -138.5t-149 -76.5q-37 -9 -72 -9zM345 437q-72 -2 -128.5 -39t-83.5 -100q-25 -62 -15 -118q10 -50 46 -80t87 -38q39 -4 78 3
q69 15 116.5 60.5t62.5 112.5q8 42 3 76q-14 80 -90 110q-35 13 -76 13z" />
    <glyph glyph-name="p" unicode="p" horiz-adv-x="672" 
d="M490 493q70 -28 106.5 -92.5t25.5 -142.5q-13 -97 -83.5 -172t-173.5 -96q-45 -9 -88 -5q-104 6 -149 91h-4l-45 -260l-84 -23q20 115 122 702h65v-87h5q66 90 178 101q64 6 125 -16zM340 61q89 8 148 75.5t55 159.5q-4 64 -50 100t-114 38q-119 0 -186 -96
q-54 -79 -39 -163q7 -43 37 -72t75 -39q36 -6 74 -3z" />
    <glyph glyph-name="q" unicode="q" horiz-adv-x="668" 
d="M575 494h65q-15 -87 -119 -678l-84 -22q2 14 5.5 34t16 89.5t27.5 159.5h-4q-67 -77 -167 -91q-79 -11 -146 19q-100 43 -120 152q-13 75 18 148q37 91 119.5 148t182.5 57q125 0 172 -102h4zM508 213q17 52 9 96q-9 58 -54 91t-107 34q-102 0 -169 -74.5t-59 -166.5
q2 -42 28.5 -76t68.5 -47q59 -19 122 -4q118 28 161 147z" />
    <glyph glyph-name="r" unicode="r" horiz-adv-x="423" 
d="M416 501l-16 -85q-39 13 -77 14q-84 2 -134 -62q-26 -32 -45 -86q-8 -26 -18 -80l-36 -202h-79l85 495h61q-3 -81 -3 -97h2q34 55 90 83.5t116 28.5q36 -2 54 -9z" />
    <glyph glyph-name="s" unicode="s" horiz-adv-x="526" 
d="M-1 59l58 62q46 -52 128 -60q45 -3 88 3q100 17 106 74q3 19 -6.5 33t-28.5 23t-33 13t-33 8l-87 18q-49 11 -86 40t-38 73q2 49 27.5 84t66.5 52.5t86 24t94 3.5q51 -3 94 -22q29 -13 54 -35q-48 -61 -54 -67q-52 41 -113 47q-49 6 -97.5 -4t-68.5 -43
q-7 -12 -4.5 -22.5t4.5 -17.5t12 -14t17.5 -11t21 -8.5t23.5 -7t24 -5.5q71 -13 113 -28q95 -32 95 -103q-2 -74 -53 -119t-125 -58q-65 -12 -127 -5q-116 12 -158 72z" />
    <glyph glyph-name="t" unicode="t" horiz-adv-x="358" 
d="M234 419l-75 -419h-80l76 419h-101l13 76h101l26 143l81 16l-27 -159h120l-13 -76h-121z" />
    <glyph glyph-name="u" unicode="u" horiz-adv-x="683" 
d="M555 494h81l-84 -495h-66l-1 81h-4q-74 -74 -161 -91q-47 -8 -87 -4q-43 3 -78 16q-66 27 -91.5 87.5t-13.5 138.5q3 20 21.5 133t22.5 134h80l-41 -254q-9 -81 21 -126t110 -53q94 -4 162.5 46.5t89.5 143.5q8 36 39 243z" />
    <glyph glyph-name="v" unicode="v" horiz-adv-x="529" 
d="M475 494h87q-49 -82 -150 -247.5t-151 -246.5h-94l-125 495h89l94 -419h2z" />
    <glyph glyph-name="w" unicode="w" horiz-adv-x="800" 
d="M752 495h88q-39 -72 -85 -156t-101.5 -184t-85.5 -155h-99l-48 370h-2l-176 -370h-105l-95 495h90l66 -417h3l196 417h86l50 -417h3z" />
    <glyph glyph-name="x" unicode="x" horiz-adv-x="547" 
d="M324 253l-1 -5l175 -248h-103l-130 198h-5l-205 -198h-103l267 248l1 4l-161 243h106l113 -187h4l191 187h95z" />
    <glyph glyph-name="y" unicode="y" horiz-adv-x="544" 
d="M478 495h93q-83 -143 -232 -389t-195 -323h-84q87 145 117 205q-2 8 -132 507h94l91 -418h5z" />
    <glyph glyph-name="z" unicode="z" horiz-adv-x="584" 
d="M556 419l-411 -338v-4h361l-14 -77h-474l23 83q127 104 407 331v5h-346l13 76h459z" />
    <glyph glyph-name="braceleft" unicode="{" horiz-adv-x="362" 
d="M372 777q6 0 11 -1l-14 -75q-22 -2 -32 -3q-58 -9 -82 -62q-11 -25 -18 -61q-2 -8 -24 -134q-7 -34 -17 -58q-28 -64 -98 -86v-4q28 -8 46.5 -31.5t20.5 -50.5q3 -27 -4 -62q-4 -21 -11.5 -62.5t-10.5 -62.5q-5 -30 -4 -52q1 -9 5 -29q8 -23 30 -33q16 -8 34 -10
q4 0 11.5 -0.5t11.5 -0.5l-11 -76q-46 0 -79 9q-4 1 -11.5 4t-10.5 5q-48 23 -60 77q-7 35 -1 72q5 35 17 103q9 52 9 55q4 21 -1 50q-11 50 -62 58q-5 0 -9 1l12 75q2 0 7 1t8 1q44 7 71 45q19 25 27 64q3 14 7.5 41t6.5 41q20 99 21 101q11 33 21 52q37 69 109 88
q32 9 74 11z" />
    <glyph glyph-name="bar" unicode="|" horiz-adv-x="261" 
d="M68 -124h-80l151 853h80z" />
    <glyph glyph-name="braceright" unicode="}" horiz-adv-x="375" 
d="M277 332q1 0 3.5 -0.5t4.5 -0.5l-13 -75q-3 0 -9 -0.5t-9 -1.5q-41 -7 -68 -45q-18 -25 -26 -59q-2 -9 -4 -19.5t-4.5 -23.5t-3.5 -20q-3 -16 -9 -49t-9 -49q-4 -21 -14 -46q-37 -90 -134 -114q-27 -7 -68 -7l10 75q29 2 42 6q46 9 69 52q12 25 21 65l21 117q6 36 12 53
q8 22 10 26q25 52 81 72q8 2 12 4v4q-4 2 -10 4q-47 19 -55 72q-3 28 2 60q4 23 12 68.5t12 68.5q5 33 4 57q0 14 -4 25q-7 28 -35 40q-16 6 -40 8q-4 1 -12 1l10 76q52 0 86 -11q10 -4 30 -14q37 -24 45 -72q6 -36 2 -69l-18 -108q-11 -67 -11 -75q-2 -25 3 -42
q10 -44 56 -52q5 0 8 -1z" />
    <glyph glyph-name="asciitilde" unicode="~" horiz-adv-x="467" 
d="M366 340q24 10 54 30l-10 -73q-38 -28 -77 -38q-33 -8 -71 1l-45 15q-32 12 -49 14q-27 3 -55 -5q-22 -7 -59 -29l13 73q51 35 99 38q31 1 61 -9q14 -4 40 -14q31 -11 52 -11q23 0 47 8z" />
    <glyph glyph-name="exclamdown" unicode="&#xa1;" horiz-adv-x="209" 
d="M49 248h79l-70 -454h-95zM165 399q1 -21 -16 -39.5t-43 -19.5q-22 0 -34.5 16t-7.5 38q5 20 22.5 33.5t37.5 13.5q18 0 29.5 -11.5t11.5 -30.5z" />
    <glyph glyph-name="cent" unicode="&#xa2;" horiz-adv-x="579" 
d="M442 115q3 2 11 8q17 -14 53 -42q-1 -1 -2.5 -3t-2.5 -3q-70 -65 -163 -85q-5 -1 -16 -2.5t-16 -2.5l-18 -104h-80l18 106q-72 11 -122 58q-48 45 -62 113q-16 81 20 160q31 73 95 124.5t144 67.5q2 0 7.5 1t8.5 2l18 103h80l-18 -100q2 -1 5 -1q97 -13 154 -82
q1 -1 2.5 -3t3 -4.5t2.5 -3.5q-26 -23 -68 -45q-1 2 -5 6q-33 42 -90 53q-3 0 -8.5 1t-8.5 2l-65 -376q37 5 70 19q29 12 53 33zM200 79q23 -11 40 -13l64 371q-21 -4 -46 -14q-98 -40 -129 -146q-13 -44 -9 -82q8 -80 80 -116z" />
    <glyph glyph-name="sterling" unicode="&#xa3;" horiz-adv-x="571" 
d="M408 646q-92 -3 -143.5 -50t-51.5 -139q2 -43 6 -57h242l-9 -77h-218q1 -4 1 -10q10 -64 -19 -125q-30 -60 -92 -108l2 -3h377l-16 -77h-481l13 77q2 1 6.5 4t6.5 4q52 32 84 73q34 45 40 98q3 22 3 45q0 13 -5 22h-90l12 77h63q1 2 1 14q-5 45 -3 74q12 120 100.5 179.5
t220.5 53.5q65 -3 129 -26l-10 -82q-93 36 -169 33z" />
    <glyph glyph-name="currency" unicode="&#xa4;" horiz-adv-x="472" 
d="M363 343q-3 -6 -10.5 -19.5t-8.5 -15.5q7 -9 21.5 -26.5t21.5 -26.5l-63 -54l-48 56q-4 -1 -10 -3q-66 -24 -125 2q-2 0 -3 1q-1 -1 -3 -1l-66 -55l-44 53l63 55q-25 75 25 147q-7 9 -21.5 26.5t-21.5 26.5l63 55q5 -6 20.5 -25.5t24.5 -29.5q46 19 96 14q30 -3 49 -14
l65 55l45 -54q-11 -10 -31.5 -27t-30.5 -26q1 -7 3.5 -20t3.5 -18q2 -19 -3 -39q-6 -24 -12 -37zM296 394q3 42 -37 52q-14 2 -22 2q-35 -1 -57 -25t-20 -60q1 -32 34 -41q2 0 22 -3q34 0 56.5 20.5t23.5 54.5z" />
    <glyph glyph-name="yen" unicode="&#xa5;" 
d="M713 699l-308 -395h208l-11 -68h-232q-1 -9 -4 -26.5t-5 -26.5h230l-10 -68h-232q-5 -22 -21 -115h-79l19 115h-233l11 68h234q1 9 4 26.5t5 26.5h-232l10 68h211l-174 395h89l153 -355h6l271 355h90z" />
    <glyph glyph-name="brokenbar" unicode="&#xa6;" horiz-adv-x="261" 
d="M171 351h-80l67 378h80zM73 250h80l-66 -374h-80z" />
    <glyph glyph-name="section" unicode="&#xa7;" horiz-adv-x="610" 
d="M466 477q99 -30 106 -98q8 -74 -54 -128q-23 -20 -67 -38l-1 -2q53 -40 43 -101q-10 -58 -51 -96.5t-102 -50.5q-94 -19 -197 -1q-68 12 -114 62l56 66q58 -61 172 -61q129 0 152 68q5 17 -1 31t-17 22.5t-30 16t-32 11t-32 7.5q-12 3 -37.5 8t-38.5 8q-33 6 -64 20
q-24 12 -35 20q-36 28 -36 72q-1 24 5 50q10 45 49 76q10 8 30.5 17.5t27.5 14.5l1 4q-45 25 -47 78q0 49 22 84t60 53.5t82 25.5t95 5q66 -3 114 -26q30 -13 49 -31l-58 -64q-43 34 -102 42q-24 1 -62 2.5t-75 -14t-41 -44.5q-3 -22 14 -39t44 -25q14 -4 43 -10.5t39 -9.5
q75 -20 90 -25zM488 334q6 28 -13.5 46t-50.5 26q-47 15 -104 20q-47 5 -89.5 -8.5t-58.5 -52.5q-12 -30 9 -53.5t54 -33.5q54 -17 122 -20q25 1 44 4t38 10.5t31.5 23t17.5 38.5z" />
    <glyph glyph-name="dieresis" unicode="&#xa8;" horiz-adv-x="372" 
d="M138 675q1 -20 -15.5 -37.5t-40.5 -18.5q-20 0 -32 15.5t-7 35.5q4 19 20.5 31.5t35.5 12.5q17 0 28 -11t11 -28zM325 675q1 -20 -15.5 -37.5t-40.5 -18.5q-20 0 -32 15.5t-7 35.5q4 19 20.5 31.5t35.5 12.5q17 0 28 -11t11 -28z" />
    <glyph glyph-name="copyright" unicode="&#xa9;" horiz-adv-x="857" 
d="M362 -17q-127 0 -215.5 69t-107.5 185q-14 82 16 168q33 100 115 179q100 93 226 121q107 25 206 -7q125 -42 180 -157q36 -78 27 -164q-22 -170 -148.5 -282t-298.5 -112zM368 51q35 0 73 8q101 22 179.5 90.5t107.5 163.5q24 77 7 146q-31 119 -147 168q-85 35 -185 13
q-125 -27 -214 -126q-50 -58 -72 -128q-22 -67 -9 -132q21 -94 92.5 -147.5t167.5 -55.5zM401 205q71 -1 128 46q28 -22 41 -34q-50 -50 -130 -65q-84 -13 -156 29t-72 128q-2 101 74 173.5t181 74.5q99 0 151 -70l-59 -30q-26 33 -72 41q-49 8 -96 -9q-80 -29 -105 -115
q-10 -33 -7 -71q6 -46 39.5 -71t82.5 -27z" />
    <glyph glyph-name="ordfeminine" unicode="&#xaa;" horiz-adv-x="474" 
d="M387 343h-67l-7 38h-2q-70 -63 -175 -49q-54 12 -79.5 45.5t-10.5 82.5q12 31 33 50.5t52 27.5t55 10t62 2q51 0 86 -5q7 35 -8.5 60t-50.5 29q-86 7 -131 -50l-69 33q43 63 137 85q57 11 107 0q47 -10 73.5 -40.5t29.5 -68t-3 -79.5zM324 486q-37 4 -99 4q-92 0 -97 -45
q-3 -24 18.5 -35.5t46.5 -10t42 1.5q38 6 62 28t27 57z" />
    <glyph glyph-name="guillemotleft" unicode="&#xab;" horiz-adv-x="582" 
d="M305 489l-190 -205l115 -206h-80l-115 205l191 206h79zM509 489l-190 -205l115 -206h-80l-115 205l191 206h79z" />
    <glyph glyph-name="logicalnot" unicode="&#xac;" horiz-adv-x="541" 
d="M66 434h436l-46 -270h-83l35 195h-359z" />
    <glyph glyph-name="registered" unicode="&#xae;" horiz-adv-x="857" 
d="M40 282q1 105 58 197q111 178 314 221q106 22 201 -11q126 -45 179 -163q30 -71 24 -148q-10 -124 -94 -225q-97 -120 -249 -163q-66 -18 -136 -13q-109 8 -188 71q-88 73 -104 184q-2 9 -3 27t-2 23zM748 395q-2 41 -10 66q-34 114 -147 160q-81 32 -174 13
q-107 -20 -190 -96q-71 -65 -100 -150q-24 -72 -13 -138q22 -124 137 -178q69 -34 154 -26q73 6 140 41q116 61 169 169q33 64 34 139zM629 463q6 -55 -24 -102q-20 -31 -56 -50q-5 -2 -15 -7q23 -75 45 -151h-74q-5 18 -17.5 64.5t-20.5 72.5h-136q-5 -25 -13 -71.5
t-12 -65.5h-67q46 260 69 389h191q37 0 65 -8q16 -4 32 -15q30 -21 33 -56zM544 378q22 29 17 66q-2 19 -17 28q-7 6 -17 9q-15 5 -37 5l-124 1l-26 -141l116 1q12 0 34 2q35 5 54 29z" />
    <glyph glyph-name="degree" unicode="&#xb0;" horiz-adv-x="393" 
d="M172 427q-56 0 -91 33.5t-33 85.5q3 62 44.5 106.5t100.5 54.5q38 6 73 -4q51 -17 70 -62.5t4 -98.5q-48 -115 -168 -115zM285 576q0 69 -69 72q-42 1 -71.5 -23t-34.5 -63q-2 -23 9 -43.5t36 -27.5q61 -16 105 29q23 23 25 56z" />
    <glyph glyph-name="plusminus" unicode="&#xb1;" horiz-adv-x="594" 
d="M568 505l-16 -81h-197l-36 -198h-81l35 198h-199l16 81h198l34 199h82l-35 -199h199zM493 77l17 76h-480l-17 -76h480z" />
    <glyph glyph-name="twosuperior" unicode="&#xb2;" horiz-adv-x="292" 
d="M212 506q-36 -29 -60 -43q-1 -1 -6.5 -3t-8.5 -4l1 -2h120l-9 -63h-228l17 74l19 9.5t20 9.5q41 21 68 41q23 16 40 35q19 23 25 49q0 2 0.5 6t0.5 6q1 15 -8 25t-25 11q-17 1 -35 -5q-17 -5 -38 -19q-2 -1 -17 -11l-29 49q67 53 136 49q15 -2 30 -6q62 -17 59 -86
q-1 -40 -28 -76q-16 -23 -44 -46z" />
    <glyph glyph-name="threesuperior" unicode="&#xb3;" horiz-adv-x="290" 
d="M273 639l-71 -64v-3q25 -6 42 -25t18 -42q2 -52 -31 -87t-88 -43q-47 -7 -96 2q-28 5 -49 17l36 60q39 -24 94 -19q18 2 29.5 5t22 13.5t10.5 28.5t-14.5 29t-28.5 13t-34 3l-2 48q11 11 33.5 30.5t30.5 27.5l1 4h-112l10 61h210z" />
    <glyph glyph-name="acute" unicode="&#xb4;" horiz-adv-x="247" 
d="M105 565h-89l147 167h110z" />
    <glyph glyph-name="mu" unicode="&#xb5;" horiz-adv-x="673" 
d="M565 495h80q-33 -177 -43 -237q-8 -48 -19 -83q-17 -50 -41 -85q-55 -80 -151 -100q-86 -19 -163 6q-69 20 -117 100h-3q-1 -4 -50 -276l-84 -22l125 697h81q-9 -48 -17 -92.5t-11.5 -64.5t-6.5 -35q-1 -10 -5 -29.5t-5 -29.5q-6 -51 14 -96q29 -61 99 -81q19 -6 47 -8
q56 -2 95 11q65 19 98 79q20 34 30 90q13 80 47 256z" />
    <glyph glyph-name="paragraph" unicode="&#xb6;" horiz-adv-x="493" 
d="M465 693l-9 -57h-68l-115 -647h-58l115 647h-85l-115 -647h-60l74 414q-5 1 -10 1q-38 3 -63.5 24.5t-34.5 57.5q-12 49 8 97q19 46 59.5 78t88.5 32h273z" />
    <glyph glyph-name="periodcentered" unicode="&#xb7;" horiz-adv-x="246" 
d="M181 319q1 -23 -18 -43t-46 -21q-24 0 -37.5 17.5t-8.5 40.5q6 22 25 37t40 15q20 0 32.5 -13t12.5 -33z" />
    <glyph glyph-name="cedilla" unicode="&#xb8;" horiz-adv-x="307" 
d="M155 -13q74 0 113 -28.5t39 -82.5q0 -133 -165 -133q-36 0 -63.5 6.5t-37.5 12.5l-10 6v77q43 -26 111 -26q85 0 85 49q0 26 -22 38t-76 12h-52l2 116h76v-47z" />
    <glyph glyph-name="onesuperior" unicode="&#xb9;" horiz-adv-x="285" 
d="M191 439h65l-9 -64h-207l11 64h69q6 34 17 98t15 89l-68 -12l10 63l113 21h28z" />
    <glyph glyph-name="ordmasculine" unicode="&#xba;" horiz-adv-x="484" 
d="M65 463q-11 91 48.5 160.5t150.5 85.5q60 10 110 -11q91 -39 97 -140q3 -87 -58.5 -151.5t-148.5 -76.5q-74 -9 -130.5 27t-68.5 106zM151 498q3 -52 40.5 -79.5t84.5 -13.5q50 11 80 53t28 94q-3 66 -67 83q-63 16 -114.5 -28.5t-51.5 -108.5z" />
    <glyph glyph-name="guillemotright" unicode="&#xbb;" horiz-adv-x="548" 
d="M239 78l190 205l-115 206h80l115 -205l-191 -206h-79zM35 78l190 205l-115 206h80l115 -205l-191 -206h-79z" />
    <glyph glyph-name="onequarter" unicode="&#xbc;" horiz-adv-x="760" 
d="M624 145h39l-13 -72h-39l-12 -73h-81l12 73h-173q1 10 4 29t5 29l172 226h83l-163 -208l1 -4h84l10 48h80zM121 -9h-79l577 729h79zM213 421h71l-10 -71h-228l11 71h77q20 119 36 206l-76 -14l11 69l125 24h31q-1 -12 -22.5 -133t-25.5 -152z" />
    <glyph glyph-name="onehalf" unicode="&#xbd;" horiz-adv-x="776" 
d="M487 257l-32 51q15 20 50 35.5t66 20.5q38 5 70 -5q55 -19 63 -74q3 -22 -4 -49q-8 -33 -31 -64q-21 -26 -54 -51q-32 -25 -72 -47l2 -3h133q-2 -12 -7 -37.5t-6 -33.5h-33h-221l17 80q11 5 22 11q47 23 85 48q35 23 55 44q28 29 33 62q2 8 2 13q-2 30 -30 36
q-44 11 -108 -37zM128 -7h-80l577 729h80zM209 416h72l-10 -70h-228l11 70h76q6 34 36 206l-75 -13l11 69l125 23h30z" />
    <glyph glyph-name="threequarters" unicode="&#xbe;" horiz-adv-x="772" 
d="M674 145h39l-13 -72h-39l-12 -73h-81l12 73h-173q2 10 5 29t4 29l172 226h83l-163 -208l1 -4h84l10 48h80zM743 720l-577 -729h-79l577 729h79zM343 632l-79 -71v-4q27 -6 46 -27.5t20 -46.5q3 -58 -34 -97.5t-98 -47.5q-53 -9 -107 2q-29 5 -55 19l40 67q44 -27 105 -21
q68 6 69 52q0 16 -8 26.5t-23 15t-27 6.5t-28 2l-2 54q12 12 37 33.5t34 30.5l2 5h-125l11 68h234z" />
    <glyph glyph-name="questiondown" unicode="&#xbf;" horiz-adv-x="481" 
d="M1 -148q-8 65 20 131q30 72 105 109q45 22 103 30q3 1 8 1.5t8 0.5q5 26 13.5 75t10.5 59l80 -1q-1 -10 -17.5 -103t-19.5 -103l-14 1h-24.5t-24.5 -1q-52 -5 -92 -27q-23 -14 -40 -31q-29 -32 -33 -70q-4 -31 0 -51q9 -41 44 -60q22 -12 53 -15q71 -8 152 16
q39 13 77 34l-11 -78q-42 -23 -84 -34q-69 -20 -152 -15q-44 3 -76 18q-75 31 -86 114zM383 398q1 -20 -15.5 -37.5t-40.5 -18.5q-20 0 -32 15.5t-7 35.5q4 19 20.5 31.5t35.5 12.5q17 0 28 -11t11 -28z" />
    <glyph glyph-name="Agrave" unicode="&#xc0;" horiz-adv-x="705" 
d="M447 699l177 -699h-86l-40 165h-374q-17 -27 -49.5 -82t-48.5 -83h-87l423 699h85zM166 236l316 -1l-91 374h-4zM480 768h-89l-109 167h110z" />
    <glyph glyph-name="Aacute" unicode="&#xc1;" horiz-adv-x="705" 
d="M461 699l177 -699h-86l-40 165h-374q-16 -27 -49 -82t-49 -83h-87l423 699h85zM180 236l316 -1l-91 374h-4zM502 769h-89l147 167h110z" />
    <glyph glyph-name="Acircumflex" unicode="&#xc2;" horiz-adv-x="705" 
d="M450 699l177 -699h-86l-40 165h-374q-17 -27 -49.5 -82t-48.5 -83h-87l423 699h85zM169 236l316 -1l-91 374h-4zM502 945l112 -159v-9h-90l-75 113h-3l-113 -113h-93v11l176 157h86z" />
    <glyph glyph-name="Atilde" unicode="&#xc3;" horiz-adv-x="705" 
d="M429 699l177 -699h-86l-40 165h-374q-17 -27 -49 -82t-49 -83h-87l423 699h85zM148 236l316 -1l-91 374h-4zM564 876q24 10 54 30l-10 -73q-38 -28 -77 -38q-33 -8 -71 1q-7 2 -14.5 4.5l-16.5 5.5t-14 5q-32 12 -49 14q-27 3 -55 -5q-22 -7 -59 -29l13 73q51 35 99 38
q31 1 61 -9q14 -4 40 -14q31 -11 52 -11q23 0 47 8z" />
    <glyph glyph-name="Adieresis" unicode="&#xc4;" horiz-adv-x="705" 
d="M447 699l177 -699h-86l-40 165h-374q-17 -27 -49.5 -82t-48.5 -83h-87l423 699h85zM166 236l316 -1l-91 374h-4zM393 879q1 -20 -15.5 -37.5t-40.5 -18.5q-20 0 -32 15.5t-7 35.5q4 19 20.5 31.5t35.5 12.5q17 0 28 -11t11 -28zM580 879q1 -20 -15.5 -37.5t-40.5 -18.5
q-20 0 -32 15.5t-7 35.5q4 19 20.5 31.5t35.5 12.5q17 0 28 -11t11 -28z" />
    <glyph glyph-name="Aring" unicode="&#xc5;" horiz-adv-x="704" 
d="M493 658l166 -658h-86l-40 164h-375q-17 -28 -49 -82t-49 -82h-87l399 658q-2 2 -4 3q-28 18 -39 49t-1 66q9 32 32 57q38 41 92 50q39 6 71 -9q27 -12 42.5 -38t13.5 -59q-3 -53 -48 -93q-5 -3 -14.5 -10t-13.5 -10q-6 -4 -10 -6zM377 771q-11 -40 21 -64q17 -13 41 -13
q9 0 14 1q40 10 61 39q8 12 11 22q9 27 -5 50t-41 27q-45 7 -79 -25q-17 -15 -23 -37zM200 235h317l-91 374h-4z" />
    <glyph glyph-name="AE" unicode="&#xc6;" horiz-adv-x="943" 
d="M570 312l61 -237h234l-18 -75h-282l-42 165h-375l-99 -165h-89q46 75 198.5 325t227.5 374l486 -1l-11 -75h-369l58 -234h279l-4 -77h-255zM188 235h318l-91 374h-3q-178 -296 -224 -374z" />
    <glyph glyph-name="Ccedilla" unicode="&#xc7;" horiz-adv-x="782" 
d="M290 592q-138 -80 -169 -234q-21 -112 35 -193t166 -98q155 -24 300 89q27 -23 59 -48q-118 -109 -277 -120l-7 -38q8 -2 11 -2q26 0 50 -6q20 -4 36 -15q36 -22 37 -63q2 -54 -32 -100q-21 -29 -61 -46q-27 -11 -62 -14q-55 -4 -88 2q-24 6 -36 10q-11 3 -19 11l13 76
q2 -1 8 -3q52 -25 113 -20q12 0 32 4q15 4 24 9q27 17 24 51q-1 15 -16 23q-11 6 -33 10q-17 2 -75 2q-14 0 -18 2q9 55 21 107q-74 5 -134 32q-67 33 -108 89t-48 125q-14 194 103.5 328t304.5 152q89 9 186.5 -22.5t140.5 -101.5q-68 -44 -74 -47q-40 50 -100.5 74
t-127.5 22q-98 -2 -179 -47z" />
    <glyph glyph-name="Egrave" unicode="&#xc8;" horiz-adv-x="686" 
d="M688 623h-470l-41 -235h423l-14 -77h-422l-41 -235h472l-14 -76h-551l122 699h550zM484 768h-89l-109 167h110z" />
    <glyph glyph-name="Eacute" unicode="&#xc9;" horiz-adv-x="677" 
d="M688 623h-470l-41 -235h423l-14 -77h-422l-41 -235h472l-14 -76h-551l122 699h550zM469 769h-89l147 167h110z" />
    <glyph glyph-name="Ecircumflex" unicode="&#xca;" horiz-adv-x="684" 
d="M688 623h-470l-41 -235h423l-14 -77h-422l-41 -235h472l-14 -76h-551l122 699h550zM509 945l112 -159v-9h-90l-75 113h-3l-113 -113h-93v11l176 157h86z" />
    <glyph glyph-name="Edieresis" unicode="&#xcb;" horiz-adv-x="694" 
d="M688 623h-470l-41 -235h423l-14 -77h-422l-41 -235h472l-14 -76h-551l122 699h550zM418 879q1 -20 -15.5 -37.5t-40.5 -18.5q-20 0 -32 15.5t-7 35.5q4 19 20.5 31.5t35.5 12.5q17 0 28 -11t11 -28zM605 879q1 -20 -15.5 -37.5t-40.5 -18.5q-20 0 -32 15.5t-7 35.5
q4 19 20.5 31.5t35.5 12.5q17 0 28 -11t11 -28z" />
    <glyph glyph-name="Igrave" unicode="&#xcc;" horiz-adv-x="242" 
d="M110 0h-80l122 699h80zM253 768h-89l-109 167h110z" />
    <glyph glyph-name="Iacute" unicode="&#xcd;" horiz-adv-x="247" 
d="M112 0h-80l122 699h80zM250 769h-89l147 167h110z" />
    <glyph glyph-name="Icircumflex" unicode="&#xce;" horiz-adv-x="241" 
d="M111 0l122 699h-80l-122 -699h80zM276 945l112 -159v-9h-90l-75 113h-3l-113 -113h-93v11l176 157h86z" />
    <glyph glyph-name="Idieresis" unicode="&#xcf;" horiz-adv-x="245" 
d="M112 0h-80l122 699h80zM177 879q1 -20 -15.5 -37.5t-40.5 -18.5q-20 0 -32 15.5t-7 35.5q4 19 20.5 31.5t35.5 12.5q17 0 28 -11t11 -28zM364 879q1 -20 -15.5 -37.5t-40.5 -18.5q-20 0 -32 15.5t-7 35.5q4 19 20.5 31.5t35.5 12.5q17 0 28 -11t11 -28z" />
    <glyph glyph-name="Eth" unicode="&#xd0;" horiz-adv-x="854" 
d="M810 528q12 -48 7 -100q-4 -79 -30 -166q-9 -31 -28 -73q-55 -115 -177 -157q-45 -16 -108 -24q-61 -8 -139 -8h-236l55 312h-144l16 76h142l55 311h243q46 0 83.5 -2.5t83 -13t78.5 -28t60.5 -50t38.5 -77.5zM737 419q3 39 -4 73q-26 130 -240 130h-204
q-13 -78 -41 -234h253l-16 -76h-251q-15 -92 -41 -235h159q72 0 120 6q47 6 86 19q90 31 130 113q15 29 24 62q19 68 25 142z" />
    <glyph glyph-name="Ntilde" unicode="&#xd1;" horiz-adv-x="774" 
d="M686 699h78l-122 -699h-69l-363 558h-4l-99 -558h-80l124 699h71l357 -572l5 1zM600 876q24 10 54 30l-10 -73q-38 -28 -77 -38q-33 -8 -71 1q-7 2 -14.5 4.5l-16.5 5.5t-14 5q-32 12 -49 14q-27 3 -55 -5q-22 -7 -59 -29l13 73q51 35 99 38q31 1 61 -9q14 -4 40 -14
q31 -11 52 -11q23 0 47 8z" />
    <glyph glyph-name="Ograve" unicode="&#xd2;" horiz-adv-x="872" 
d="M375 -15q-160 5 -253.5 99.5t-71.5 243.5q28 183 160 288.5t323 95.5q120 -9 199.5 -70t96.5 -170q10 -103 -23 -194t-95.5 -154.5t-150 -100.5t-185.5 -38zM489 637q-135 0 -233 -78t-123 -209q-16 -94 22.5 -163.5t111.5 -100.5t163 -23q152 20 245.5 128.5t72.5 255.5
q-14 93 -85 141.5t-174 48.5zM559 768h-89l-109 167h110z" />
    <glyph glyph-name="Oacute" unicode="&#xd3;" horiz-adv-x="872" 
d="M375 -15q-160 5 -253.5 99.5t-71.5 243.5q28 183 160 288.5t323 95.5q120 -9 199.5 -70t96.5 -170q10 -103 -23 -194t-95.5 -154.5t-150 -100.5t-185.5 -38zM489 637q-135 0 -233 -78t-123 -209q-16 -94 22.5 -163.5t111.5 -100.5t163 -23q152 20 245.5 128.5t72.5 255.5
q-14 93 -85 141.5t-174 48.5zM543 769h-89l147 167h110z" />
    <glyph glyph-name="Ocircumflex" unicode="&#xd4;" horiz-adv-x="872" 
d="M375 -15q98 1 185.5 38t150 100.5t95.5 154.5t23 194q-17 109 -96.5 170t-199.5 70q-191 10 -323 -95.5t-160 -288.5q-22 -149 71.5 -243.5t253.5 -99.5zM489 637q103 0 174 -48.5t85 -141.5q21 -147 -72.5 -255.5t-245.5 -128.5q-90 -8 -163 23t-111.5 100.5
t-22.5 163.5q25 131 123 209t233 78zM592 945l112 -159v-9h-90l-75 113h-3l-113 -113h-93v11l176 157h86z" />
    <glyph glyph-name="Otilde" unicode="&#xd5;" horiz-adv-x="872" 
d="M375 -15q98 1 185.5 38t150 100.5t95.5 154.5t23 194q-17 109 -96.5 170t-199.5 70q-191 10 -323 -95.5t-160 -288.5q-22 -149 71.5 -243.5t253.5 -99.5zM489 637q103 0 174 -48.5t85 -141.5q21 -147 -72.5 -255.5t-245.5 -128.5q-90 -8 -163 23t-111.5 100.5
t-22.5 163.5q25 131 123 209t233 78zM653 876q24 10 54 30l-10 -73q-38 -28 -77 -38q-34 -8 -71 1q-7 2 -14.5 4.5l-16.5 5.5t-14 5q-32 12 -49 14q-27 3 -55 -5q-22 -7 -59 -29l13 73q51 35 99 38q31 1 61 -9q14 -4 40 -14q31 -11 52 -11q23 0 47 8z" />
    <glyph glyph-name="Odieresis" unicode="&#xd6;" horiz-adv-x="872" 
d="M375 -15q-160 5 -253.5 99.5t-71.5 243.5q28 183 160 288.5t323 95.5q120 -9 199.5 -70t96.5 -170q10 -103 -23 -194t-95.5 -154.5t-150 -100.5t-185.5 -38zM489 637q-135 0 -233 -78t-123 -209q-16 -94 22.5 -163.5t111.5 -100.5t163 -23q152 20 245.5 128.5t72.5 255.5
q-14 93 -85 141.5t-174 48.5zM509 879q1 -20 -15.5 -37.5t-40.5 -18.5q-20 0 -32 15.5t-7 35.5q4 19 20.5 31.5t35.5 12.5q17 0 28 -11t11 -28zM696 879q1 -20 -15.5 -37.5t-40.5 -18.5q-20 0 -32 15.5t-7 35.5q4 19 20.5 31.5t35.5 12.5q17 0 28 -11t11 -28z" />
    <glyph glyph-name="multiply" unicode="&#xd7;" horiz-adv-x="555" 
d="M502 502l-203 -179l139 -178h-80l-106 137l-155 -137h-80l203 178l-139 179h79l107 -137l156 137h79z" />
    <glyph glyph-name="Oslash" unicode="&#xd8;" horiz-adv-x="872" 
d="M813 708l45 -53l-69 -60q32 -48 43 -117.5t1 -132.5q-17 -107 -77 -184q-69 -91 -178.5 -136.5t-228.5 -37.5q-120 5 -195 68l-74 -61q-6 5 -22.5 25t-21.5 28l68 59q-2 5 -7 11q-31 50 -40 110q-14 94 3 158q40 154 164 244t303 86q131 -4 213 -69zM257 553
q-60 -54 -93.5 -132.5t-26.5 -156.5q8 -60 34 -96h7q188 160 490 416v7q-61 41 -138 46q-162 13 -273 -84zM437 64q93 9 171.5 62t120 140t26.5 186q-8 54 -32 83h-5q-88 -75 -252.5 -215t-238.5 -203v-7v-1q58 -29 103.5 -40t106.5 -5z" />
    <glyph glyph-name="Ugrave" unicode="&#xd9;" horiz-adv-x="784" 
d="M680 699h81l-56 -299q-15 -87 -20 -109q-25 -94 -73 -159q-52 -75 -137 -113.5t-181 -30.5q-38 2 -72 12q-114 36 -147 151q-24 78 1 211l59 337h81l-65 -369q-7 -55 -2 -107.5t39 -96.5t92 -57q74 -16 145 8.5t119 86.5q49 65 74 193zM511 768h-89l-109 167h110z" />
    <glyph glyph-name="Uacute" unicode="&#xda;" horiz-adv-x="784" 
d="M684 699h81l-56 -299q-15 -87 -20 -109q-25 -94 -73 -159q-52 -75 -137 -113.5t-181 -30.5q-38 2 -72 12q-114 36 -147 151q-24 78 1 211l59 337h81l-65 -369q-7 -55 -2 -107.5t39 -96.5t92 -57q74 -16 145 8.5t119 86.5q49 65 74 193zM503 769h-89l147 167h110z" />
    <glyph glyph-name="Ucircumflex" unicode="&#xdb;" horiz-adv-x="784" 
d="M677 699h81l-56 -299q-14 -87 -20 -109q-25 -94 -73 -159q-52 -75 -137 -113.5t-181 -30.5q-37 2 -72 12q-114 36 -147 151q-24 78 1 211l59 337h81l-65 -369q-7 -55 -2 -107.5t39 -96.5t92 -57q74 -16 145 8.5t119 86.5q49 65 74 193zM544 945l112 -159v-9h-90l-75 113
h-3l-113 -113h-93v11l176 157h86z" />
    <glyph glyph-name="Udieresis" unicode="&#xdc;" horiz-adv-x="784" 
d="M671 699h81l-56 -299q-14 -87 -20 -109q-25 -94 -73 -159q-52 -75 -137 -113.5t-181 -30.5q-37 2 -72 12q-114 36 -147 151q-24 78 1 211l59 337h81l-65 -369q-7 -55 -2 -107.5t39 -96.5t92 -57q74 -16 145 8.5t119 86.5q49 65 74 193zM408 879q1 -20 -15.5 -37.5
t-40.5 -18.5q-20 0 -32 15.5t-7 35.5q4 19 20.5 31.5t35.5 12.5q17 0 28 -11t11 -28zM595 879q1 -20 -15.5 -37.5t-40.5 -18.5q-20 0 -32 15.5t-7 35.5q4 19 20.5 31.5t35.5 12.5q17 0 28 -11t11 -28z" />
    <glyph glyph-name="Yacute" unicode="&#xdd;" horiz-adv-x="628" 
d="M569 699h91l-339 -433q-12 -71 -47 -266h-80l47 266l-191 433h90l153 -355h5zM425 769h-89l147 167h110z" />
    <glyph glyph-name="Thorn" unicode="&#xde;" horiz-adv-x="685" 
d="M400 575q58 0 105.5 -12t84.5 -38.5t52 -74t1 -111.5q-52 -218 -324 -218h-193l-21 -121h-80l122 699h80l-22 -124h195zM538 277q32 55 29 116q-4 53 -47.5 79t-104.5 26h-223l-53 -301h57.5h68.5h58q23 0 67 2q103 7 148 78z" />
    <glyph glyph-name="germandbls" unicode="&#xdf;" horiz-adv-x="629" 
d="M457 374q55 -18 91 -61t30 -101q-11 -89 -72.5 -149t-161.5 -76q-54 -9 -108 -3q-13 1 -61 6l22 80q11 -1 34.5 -4.5t34.5 -5.5q85 -10 156 29.5t75 118.5q3 48 -37.5 77t-95.5 40q-26 4 -102 4l10 76q11 1 40.5 1t40.5 1q53 3 92 37.5t44 88.5q4 35 -17 63t-57 38
q-52 14 -103 2q-68 -18 -100 -83q-10 -22 -17 -54q-9 -52 -27 -158q-4 -23 -10 -54.5t-20 -111.5t-31 -175h-79l66 380q9 57 23 129q12 69 60.5 123t122.5 76q84 22 159 -2q49 -16 81.5 -55.5t31.5 -93.5q-3 -45 -21 -87q-25 -55 -94 -93v-3z" />
    <glyph glyph-name="agrave" unicode="&#xe0;" 
d="M522 268q11 65 -21.5 110t-97.5 53q-66 8 -129.5 -13.5t-103.5 -67.5l-73 34q42 63 119.5 94.5t162.5 31.5q115 0 177 -69.5t44 -179.5q-7 -56 -23.5 -139.5t-22.5 -121.5h-71v74h-3q-87 -92 -252 -92q-78 0 -128 33.5t-51 97.5q-1 51 21 86.5t58 52t81.5 25.5t91.5 6.5
t89 -3.5q69 -4 132 -12zM508 202q-109 12 -173 14q-24 2 -57 0t-63.5 -6.5t-53.5 -21.5t-28 -44q-2 -32 18 -52t45 -27t56 -8q58 0 108.5 12t93.5 46t54 87zM413 564h-89l-109 167h110z" />
    <glyph glyph-name="aacute" unicode="&#xe1;" 
d="M522 268q11 65 -21.5 110t-97.5 53q-66 8 -129.5 -13.5t-103.5 -67.5l-73 34q42 63 119.5 94.5t162.5 31.5q115 0 177 -69.5t44 -179.5q-7 -56 -23.5 -139.5t-22.5 -121.5h-71v74h-3q-87 -92 -252 -92q-78 0 -128 33.5t-51 97.5q-1 51 21 86.5t58 52t81.5 25.5t91.5 6.5
t89 -3.5q69 -4 132 -12zM508 202q-109 12 -173 14q-24 2 -57 0t-63.5 -6.5t-53.5 -21.5t-28 -44q-2 -32 18 -52t45 -27t56 -8q58 0 108.5 12t93.5 46t54 87zM426 565h-89l147 167h110z" />
    <glyph glyph-name="acircumflex" unicode="&#xe2;" 
d="M522 268q-63 8 -132 12q-43 1 -89 3.5t-91.5 -6.5t-81.5 -25.5t-58 -52t-21 -86.5q1 -64 51 -97.5t128 -33.5q165 0 252 92h3v-74h71q6 38 22.5 121.5t23.5 139.5q18 110 -44 179.5t-177 69.5q-85 0 -162.5 -31.5t-119.5 -94.5l73 -34q40 46 103.5 67.5t129.5 13.5
q65 -8 97.5 -53t21.5 -110zM508 202q-11 -53 -54 -87t-93.5 -46t-108.5 -12q-31 1 -56 8t-45 27t-18 52q5 27 28 44t53.5 21.5t63.5 6.5t57 0q64 -2 173 -14zM472 741l112 -159v-9h-90l-75 113h-3l-113 -113h-93v11l176 157h86z" />
    <glyph glyph-name="atilde" unicode="&#xe3;" 
d="M522 268q-63 8 -132 12q-43 1 -89 3.5t-91.5 -6.5t-81.5 -25.5t-58 -52t-21 -86.5q1 -64 51 -97.5t128 -33.5q165 0 252 92h3v-74h71q6 38 22.5 121.5t23.5 139.5q18 110 -44 179.5t-177 69.5q-85 0 -162.5 -31.5t-119.5 -94.5l73 -34q40 46 103.5 67.5t129.5 13.5
q65 -8 97.5 -53t21.5 -110zM508 202q-11 -53 -54 -87t-93.5 -46t-108.5 -12q-31 1 -56 8t-45 27t-18 52q5 27 28 44t53.5 21.5t63.5 6.5t57 0q64 -2 173 -14zM521 672q24 10 54 30l-10 -73q-38 -28 -77 -38q-34 -8 -71 1q-7 2 -14.5 4.5l-16.5 5.5t-14 5q-32 12 -49 14
q-27 3 -55 -5q-22 -7 -59 -29l13 73q51 35 99 38q31 1 61 -9q14 -4 40 -14q31 -11 52 -11q23 0 47 8z" />
    <glyph glyph-name="adieresis" unicode="&#xe4;" horiz-adv-x="655" 
d="M514 268q11 65 -21.5 110t-97.5 53q-66 8 -129.5 -13.5t-103.5 -67.5l-73 34q42 63 119.5 94.5t162.5 31.5q115 0 177 -69.5t44 -179.5q-7 -56 -23.5 -139.5t-22.5 -121.5h-71v74h-3q-87 -92 -252 -92q-78 0 -128 33.5t-51 97.5q-1 51 21 86.5t58 52t81.5 25.5t91.5 6.5
t89 -3.5q69 -4 132 -12zM500 202q-109 12 -173 14q-24 2 -57 0t-63.5 -6.5t-53.5 -21.5t-28 -44q-2 -32 18 -52t45 -27t56 -8q58 0 108.5 12t93.5 46t54 87zM372 675q1 -20 -15.5 -37.5t-40.5 -18.5q-20 0 -32 15.5t-7 35.5q4 19 20.5 31.5t35.5 12.5q17 0 28 -11t11 -28z
M559 675q1 -20 -15.5 -37.5t-40.5 -18.5q-20 0 -32 15.5t-7 35.5q4 19 20.5 31.5t35.5 12.5q17 0 28 -11t11 -28z" />
    <glyph glyph-name="aring" unicode="&#xe5;" 
d="M434 809q30 1 56 -13q49 -29 50 -84q3 -60 -47 -103t-109 -41q-48 1 -76.5 34.5t-22.5 78.5q7 55 50.5 90.5t98.5 37.5zM489 698q1 29 -19.5 45t-50.5 16q-27 -2 -50 -19t-30 -42q-8 -34 11.5 -58.5t55.5 -20.5q34 5 58.5 27t24.5 52zM522 268q11 65 -21.5 110t-97.5 53
q-66 8 -129.5 -13.5t-103.5 -67.5l-73 34q42 63 119.5 94.5t162.5 31.5q115 0 177 -69.5t44 -179.5q-7 -56 -23.5 -139.5t-22.5 -121.5h-71v74h-3q-87 -92 -252 -92q-78 0 -128 33.5t-51 97.5q-1 51 21 86.5t58 52t81.5 25.5t91.5 6.5t89 -3.5q69 -4 132 -12zM508 202
q-109 12 -173 14q-24 2 -57 0t-63.5 -6.5t-53.5 -21.5t-28 -44q-2 -32 18 -52t45 -27t56 -8q58 0 108.5 12t93.5 46t54 87z" />
    <glyph glyph-name="ae" unicode="&#xe6;" horiz-adv-x="1026" 
d="M971 221h-433q-2 -34 8 -59q16 -46 51.5 -70.5t81.5 -26.5q130 0 184 81l62 -36q-26 -47 -77.5 -77t-108.5 -41q-73 -13 -129 6q-93 29 -129 114h-3q-89 -125 -260 -125q-85 0 -137 34.5t-52 96.5q0 51 20.5 86.5t54 52t76 25.5t85.5 6.5t83 -3.5q64 -4 123 -12
q11 65 -19.5 110t-91.5 53t-120.5 -13.5t-97.5 -67.5l-68 34q39 63 111 94.5t152 31.5q70 0 120 -30.5t73 -84.5h4q54 66 128 96q66 25 134 18q72 -8 121 -54q53 -49 64 -127q7 -65 -10 -112zM219 62q54 0 101 12t87 46t51 87q-104 12 -162 14q-23 2 -53.5 0t-58.5 -6.5
t-49.5 -21.5t-26.5 -44q-2 -32 16.5 -52t42 -27t52.5 -8zM762 440q-77 0 -134.5 -42t-75.5 -111h357q3 69 -38.5 111t-108.5 42z" />
    <glyph glyph-name="ccedilla" unicode="&#xe7;" horiz-adv-x="594" 
d="M391 81q33 15 63 41q39 -30 53 -42q-70 -70 -166 -89q-7 -2 -23 -4l-7 -34q8 -2 11 -2q26 0 50 -6q20 -5 36 -15q36 -22 37 -63q2 -54 -32 -100q-21 -29 -61 -46q-27 -11 -62 -14q-55 -4 -88 2q-24 6 -36 10q-11 3 -19 11l13 76q2 0 4.5 -1t3.5 -2q52 -25 113 -20
q12 0 32 4q13 3 24 9q27 17 24 51q-1 15 -16 23q-11 6 -33 10q-17 2 -75 2q-13 0 -18 2q4 25 20 103q-78 10 -129 58q-48 44 -62 112q-15 76 20 158q31 73 94.5 123.5t141.5 66.5q51 11 101 5q102 -13 159 -92l-67 -45q-32 44 -94 59q-75 14 -141 -14q-97 -40 -128 -144
q-12 -40 -8 -81q8 -79 79 -115q29 -14 67 -17q64 -3 119 20z" />
    <glyph glyph-name="egrave" unicode="&#xe8;" horiz-adv-x="651" 
d="M476 143q40 -22 61 -33q-28 -48 -81.5 -79.5t-112.5 -41.5q-78 -13 -138 6q-99 29 -136.5 109.5t-10.5 174.5q22 73 76 130.5t127 83.5q70 25 143 18q77 -8 130 -54q57 -50 68 -127q9 -63 -10 -111l-464 -1q-3 -31 8 -59q17 -46 55.5 -70.5t87.5 -26.5q138 0 197 81z
M525 284q-4 70 -47 110t-110 43q-80 0 -143 -40t-82 -112q10 -1 156 -1.5t226 0.5zM434 564h-89l-109 167h110z" />
    <glyph glyph-name="eacute" unicode="&#xe9;" horiz-adv-x="651" 
d="M476 143q40 -22 61 -33q-28 -48 -81.5 -79.5t-112.5 -41.5q-78 -13 -138 6q-99 29 -136.5 109.5t-10.5 174.5q22 73 76 130.5t127 83.5q70 25 143 18q77 -8 130 -54q57 -50 68 -127q9 -63 -10 -111l-464 -1q-3 -31 8 -59q17 -46 55.5 -70.5t87.5 -26.5q138 0 197 81z
M525 284q-4 70 -47 110t-110 43q-80 0 -143 -40t-82 -112q10 -1 156 -1.5t226 0.5zM419 565h-89l147 167h110z" />
    <glyph glyph-name="ecircumflex" unicode="&#xea;" horiz-adv-x="651" 
d="M476 143q-59 -81 -197 -81q-49 2 -87.5 26.5t-55.5 70.5q-11 28 -8 59l464 1q19 48 10 111q-11 77 -68 127q-53 46 -130 54q-73 7 -143 -18q-73 -26 -127 -83.5t-76 -130.5q-27 -94 10.5 -174.5t136.5 -109.5q60 -19 138 -6q59 10 112.5 41.5t81.5 79.5q-21 11 -61 33z
M525 284q-80 -1 -226 -0.5t-156 1.5q19 72 82 112t143 40q67 -3 110 -43t47 -110zM460 741l112 -159v-9h-90l-75 113h-3l-113 -113h-93v11l176 157h86z" />
    <glyph glyph-name="edieresis" unicode="&#xeb;" horiz-adv-x="651" 
d="M476 143q40 -22 61 -33q-28 -48 -81.5 -79.5t-112.5 -41.5q-78 -13 -138 6q-99 29 -136.5 109.5t-10.5 174.5q22 73 76 130.5t127 83.5q70 25 143 18q77 -8 130 -54q57 -50 68 -127q9 -63 -10 -111l-464 -1q-3 -31 8 -59q17 -46 55.5 -70.5t87.5 -26.5q138 0 197 81z
M525 284q-4 70 -47 110t-110 43q-80 0 -143 -40t-82 -112q10 -1 156 -1.5t226 0.5zM341 675q1 -20 -15.5 -37.5t-40.5 -18.5q-20 0 -32 15.5t-7 35.5q4 19 20.5 31.5t35.5 12.5q17 0 28 -11t11 -28zM528 675q1 -20 -15.5 -37.5t-40.5 -18.5q-20 0 -32 15.5t-7 35.5
q4 19 20.5 31.5t35.5 12.5q17 0 28 -11t11 -28z" />
    <glyph glyph-name="igrave" unicode="&#xec;" horiz-adv-x="243" 
d="M197 495l-85 -495h-79l85 495h79zM212 564h-89l-109 167h110z" />
    <glyph glyph-name="iacute" unicode="&#xed;" horiz-adv-x="247" 
d="M197 495l-85 -495h-79l85 495h79zM210 565h-89l147 167h110z" />
    <glyph glyph-name="icircumflex" unicode="&#xee;" horiz-adv-x="248" 
d="M112 0l85 495h-79l-85 -495h79zM240 741l112 -159v-9h-90l-75 113h-3l-113 -113h-93v11l176 157h86z" />
    <glyph glyph-name="idieresis" unicode="&#xef;" horiz-adv-x="239" 
d="M197 495l-85 -495h-79l85 495h79zM144 675q1 -20 -15.5 -37.5t-40.5 -18.5q-20 0 -32 15.5t-7 35.5q4 19 20.5 31.5t35.5 12.5q17 0 28 -11t11 -28zM331 675q1 -20 -15.5 -37.5t-40.5 -18.5q-20 0 -32 15.5t-7 35.5q4 19 20.5 31.5t35.5 12.5q17 0 28 -11t11 -28z" />
    <glyph glyph-name="eth" unicode="&#xf0;" horiz-adv-x="645" 
d="M551 654q41 -41 54 -104q12 -54 9 -108q-6 -107 -38 -214q-18 -56 -42 -97q-33 -58 -77 -92q-52 -39 -119 -53q-59 -12 -116 -8q-88 2 -151 58.5t-58 147.5q2 39 13 72q31 92 121 143t193 45q60 -2 110 -29t65 -81h5q22 132 5 193q-9 37 -36 66q-1 1 -3.5 2.5t-3.5 3.5
q-8 -6 -10 -8q-19 -17 -54 -50l-78 1q30 28 78 72l12 12q-2 0 -5.5 2t-5.5 2q-29 8 -67 8q-80 0 -142 -29q-8 -3 -49 -25q-1 0 -2 1q-7 11 -19 32t-16 27q2 1 3.5 3t3.5 3q73 45 154 58q51 8 112 5q61 -5 102 -24q2 2 5 4t4 3q7 6 24 21t24 22h77q-11 -10 -37 -34.5
t-37 -34.5q-2 -2 -6 -5.5t-6 -5.5l3 -3zM402 95q80 57 78 153q0 50 -37.5 81t-92.5 37q-69 7 -123 -11q-117 -39 -133 -155q-10 -82 60 -122q10 -6 27 -12q31 -11 76 -13q30 2 46 4q60 10 99 38z" />
    <glyph glyph-name="ntilde" unicode="&#xf1;" horiz-adv-x="690" 
d="M471 508q72 -9 113.5 -57.5t41.5 -129.5q-1 -18 -10 -81l-44 -240h-81q7 43 23.5 128.5t23.5 130.5q11 60 -11 110.5t-82 59.5q-80 13 -151 -15.5t-110 -98.5q-25 -45 -34 -99l-40 -216h-80q13 78 45 253.5t43 240.5h64l4 -80h4q101 116 281 94zM528 672q24 10 54 30
l-10 -73q-38 -28 -77 -38q-33 -8 -71 1q-7 2 -14.5 4.5l-16.5 5.5t-14 5q-32 12 -49 14q-27 3 -55 -5q-22 -7 -59 -29l13 73q51 35 99 38q31 1 61 -9q14 -4 40 -14q31 -11 52 -11q23 0 47 8z" />
    <glyph glyph-name="ograve" unicode="&#xf2;" horiz-adv-x="645" 
d="M269 -16q-92 0 -154 49t-77 132q-13 81 24 158q72 146 233 183q63 13 121 1q69 -13 115.5 -61t58.5 -117q10 -59 -10 -121q-26 -81 -90 -138.5t-149 -76.5q-37 -9 -72 -9zM345 437q-72 -2 -128.5 -39t-83.5 -100q-25 -62 -15 -118q10 -50 46 -80t87 -38q39 -4 78 3
q69 15 116.5 60.5t62.5 112.5q8 42 3 76q-14 80 -90 110q-35 13 -76 13zM397 564h-89l-109 167h110z" />
    <glyph glyph-name="oacute" unicode="&#xf3;" horiz-adv-x="650" 
d="M269 -16q-92 0 -154 49t-77 132q-13 81 24 158q72 146 233 183q63 13 121 1q69 -13 115.5 -61t58.5 -117q10 -59 -10 -121q-26 -81 -90 -138.5t-149 -76.5q-37 -9 -72 -9zM345 437q-72 -2 -128.5 -39t-83.5 -100q-25 -62 -15 -118q10 -50 46 -80t87 -38q39 -4 78 3
q69 15 116.5 60.5t62.5 112.5q8 42 3 76q-14 80 -90 110q-35 13 -76 13zM403 565h-89l147 167h110z" />
    <glyph glyph-name="ocircumflex" unicode="&#xf4;" horiz-adv-x="650" 
d="M269 -16q35 0 72 9q85 19 149 76.5t90 138.5q20 62 10 121q-12 69 -58.5 117t-115.5 61q-58 12 -121 -1q-161 -37 -233 -183q-37 -77 -24 -158q15 -83 77 -132t154 -49zM345 437q41 0 76 -13q76 -30 90 -110q5 -34 -3 -76q-15 -67 -62.5 -112.5t-116.5 -60.5
q-39 -7 -78 -3q-51 8 -87 38t-46 80q-10 56 15 118q27 63 83.5 100t128.5 39zM447 741l112 -159v-9h-90l-75 113h-3l-113 -113h-93v11l176 157h86z" />
    <glyph glyph-name="otilde" unicode="&#xf5;" horiz-adv-x="659" 
d="M269 -16q35 0 72 9q85 19 149 76.5t90 138.5q20 62 10 121q-12 69 -58.5 117t-115.5 61q-58 12 -121 -1q-161 -37 -233 -183q-37 -77 -24 -158q15 -83 77 -132t154 -49zM345 437q41 0 76 -13q76 -30 90 -110q5 -34 -3 -76q-15 -67 -62.5 -112.5t-116.5 -60.5
q-39 -7 -78 -3q-51 8 -87 38t-46 80q-10 56 15 118q27 63 83.5 100t128.5 39zM517 672q24 10 54 30l-10 -73q-38 -28 -77 -38q-34 -8 -71 1q-7 2 -14.5 4.5l-16.5 5.5t-14 5q-32 12 -49 14q-27 3 -55 -5q-22 -7 -59 -29l13 73q51 35 99 38q31 1 61 -9q14 -4 40 -14
q31 -11 52 -11q23 0 47 8z" />
    <glyph glyph-name="odieresis" unicode="&#xf6;" horiz-adv-x="650" 
d="M269 -16q-92 0 -154 49t-77 132q-13 81 24 158q72 146 233 183q63 13 121 1q69 -13 115.5 -61t58.5 -117q10 -59 -10 -121q-26 -81 -90 -138.5t-149 -76.5q-37 -9 -72 -9zM345 437q-72 -2 -128.5 -39t-83.5 -100q-25 -62 -15 -118q10 -50 46 -80t87 -38q39 -4 78 3
q69 15 116.5 60.5t62.5 112.5q8 42 3 76q-14 80 -90 110q-35 13 -76 13zM337 675q1 -20 -15.5 -37.5t-40.5 -18.5q-20 0 -32 15.5t-7 35.5q4 19 20.5 31.5t35.5 12.5q17 0 28 -11t11 -28zM524 675q1 -20 -15.5 -37.5t-40.5 -18.5q-20 0 -32 15.5t-7 35.5q4 19 20.5 31.5
t35.5 12.5q17 0 28 -11t11 -28z" />
    <glyph glyph-name="divide" unicode="&#xf7;" horiz-adv-x="620" 
d="M546 311h-490l17 76h490zM399 556q1 -23 -17.5 -43t-46.5 -21q-23 0 -36.5 17.5t-8.5 40.5q5 22 23.5 36.5t40.5 14.5q20 0 32.5 -12.5t12.5 -32.5zM326 160q1 -23 -17.5 -43t-46.5 -21q-23 0 -36.5 17.5t-8.5 40.5q5 22 23.5 36.5t40.5 14.5q20 0 32.5 -12.5t12.5 -32.5
z" />
    <glyph glyph-name="oslash" unicode="&#xf8;" horiz-adv-x="650" 
d="M565 412q39 -53 34 -138q-3 -57 -32 -111q-83 -151 -238 -174q-126 -19 -210 46q-9 -7 -25.5 -22t-25.5 -22q-6 5 -21 23.5t-20 26.5q8 8 25 21.5t24 20.5q-17 17 -26.5 57.5t-7.5 72.5q2 63 27 112q72 140 230 178q75 18 149 -4q46 -15 73 -39q10 8 28 23.5t24 20.5
q15 -9 42 -49q-8 -7 -25 -21t-25 -22zM176 357q-38 -46 -47.5 -110.5t10.5 -110.5h7l312 264v6q-25 22 -75.5 27.5t-87.5 -4.5q-74 -17 -119 -72zM503 201q36 92 -1 156h-8q-193 -163 -311 -264v-5q25 -25 83.5 -28.5t90.5 9.5q106 30 146 132z" />
    <glyph glyph-name="ugrave" unicode="&#xf9;" horiz-adv-x="694" 
d="M568 494h81l-84 -495h-66l-1 81h-4q-74 -74 -161 -91q-47 -8 -87 -4q-43 3 -78 16q-66 27 -91.5 87.5t-13.5 138.5q3 20 22 133t22 134h80l-41 -254q-9 -81 21 -126t110 -53q94 -4 162.5 46.5t89.5 143.5q8 36 39 243zM453 564h-89l-109 167h110z" />
    <glyph glyph-name="uacute" unicode="&#xfa;" horiz-adv-x="678" 
d="M555 494h81l-84 -495h-66l-1 81h-4q-74 -74 -161 -91q-47 -8 -87 -4q-43 3 -78 16q-66 27 -91.5 87.5t-13.5 138.5q3 20 21.5 133t22.5 134h80l-41 -254q-9 -81 21 -126t110 -53q94 -4 162.5 46.5t89.5 143.5q8 36 39 243zM412 565h-89l147 167h110z" />
    <glyph glyph-name="ucircumflex" unicode="&#xfb;" horiz-adv-x="693" 
d="M568 494h81l-84 -495h-66l-1 81h-4q-74 -74 -161 -91q-47 -8 -87 -4q-43 3 -78 16q-66 27 -91.5 87.5t-13.5 138.5q3 20 22 133t22 134h80l-41 -254q-9 -81 21 -126t110 -53q94 -4 162.5 46.5t89.5 143.5q8 36 39 243zM470 741l112 -159v-9h-90l-75 113h-3l-113 -113h-93
v11l176 157h86z" />
    <glyph glyph-name="udieresis" unicode="&#xfc;" horiz-adv-x="688" 
d="M555 494h81l-84 -495h-66l-1 81h-4q-74 -74 -161 -91q-47 -8 -87 -4q-43 3 -78 16q-66 27 -91.5 87.5t-13.5 138.5q3 20 21.5 133t22.5 134h80l-41 -254q-9 -81 21 -126t110 -53q94 -4 162.5 46.5t89.5 143.5q8 36 39 243zM348 675q1 -20 -15.5 -37.5t-40.5 -18.5
q-20 0 -32 15.5t-7 35.5q4 19 20.5 31.5t35.5 12.5q17 0 28 -11t11 -28zM535 675q1 -20 -15.5 -37.5t-40.5 -18.5q-20 0 -32 15.5t-7 35.5q4 19 20.5 31.5t35.5 12.5q17 0 28 -11t11 -28z" />
    <glyph glyph-name="yacute" unicode="&#xfd;" horiz-adv-x="546" 
d="M478 495h93q-83 -143 -232 -389t-195 -323h-84q87 145 117 205q-2 8 -132 507h94l91 -418h5zM362 565h-89l147 167h110z" />
    <glyph glyph-name="thorn" unicode="&#xfe;" horiz-adv-x="633" 
d="M608 336q12 -66 -17 -141q-31 -78 -97.5 -132.5t-148.5 -69.5q-75 -14 -140 4q-45 13 -104 63h-3l-51 -282h-80q70 397 167 951h82q-49 -272 -49 -281h3q65 48 139 64q83 17 149 -5q124 -42 150 -171zM511 199q27 65 16 122q-11 64 -65 97q-23 12 -46 18q-56 14 -112 0
q-110 -26 -155 -129q-23 -51 -19 -104q5 -89 84 -125q39 -16 84 -15q27 -1 57 6q114 28 156 130z" />
    <glyph glyph-name="ydieresis" unicode="&#xff;" horiz-adv-x="546" 
d="M478 495h93q-83 -143 -232 -389t-195 -323h-84q87 145 117 205q-2 8 -132 507h94l91 -418h5zM284 675q1 -20 -15.5 -37.5t-40.5 -18.5q-20 0 -32 15.5t-7 35.5q4 19 20.5 31.5t35.5 12.5q17 0 28 -11t11 -28zM471 675q1 -20 -15.5 -37.5t-40.5 -18.5q-20 0 -32 15.5
t-7 35.5q4 19 20.5 31.5t35.5 12.5q17 0 28 -11t11 -28z" />
    <glyph glyph-name="Abreve" unicode="&#x102;" horiz-adv-x="705" 
d="M457 699l177 -699h-86l-40 165h-374q-17 -27 -49.5 -82t-48.5 -83h-87l423 699h85zM176 236l316 -1l-91 374h-4zM584 928h81q0 -10 -1 -11q-28 -116 -140 -163q-86 -36 -178 -8q-21 7 -37 18q-49 30 -60 91q-6 31 0 73h81q0 -12 -1 -13q0 -23 2 -34q9 -40 45 -58
q15 -7 36 -10q48 -6 88 9q64 25 82 92q1 1 1.5 7t0.5 7z" />
    <glyph glyph-name="abreve" unicode="&#x103;" 
d="M522 268q-63 8 -132 12q-43 1 -89 3.5t-91.5 -6.5t-81.5 -25.5t-58 -52t-21 -86.5q1 -64 51 -97.5t128 -33.5q165 0 252 92h3v-74h71q6 38 22.5 121.5t23.5 139.5q18 110 -44 179.5t-177 69.5q-85 0 -162.5 -31.5t-119.5 -94.5l73 -34q40 46 103.5 67.5t129.5 13.5
q65 -8 97.5 -53t21.5 -110zM508 202q-11 -53 -54 -87t-93.5 -46t-108.5 -12q-31 1 -56 8t-45 27t-18 52q5 27 28 44t53.5 21.5t63.5 6.5t57 0q64 -2 173 -14zM566 746h81q0 -10 -1 -11q-28 -116 -140 -163q-86 -36 -178 -8q-21 7 -37 18q-49 30 -60 91q-6 31 0 73h81
q0 -12 -1 -13q0 -23 2 -34q9 -40 45 -58q15 -7 36 -10q48 -6 88 9q64 25 82 92q1 1 1.5 7t0.5 7z" />
    <glyph glyph-name="Aogonek" unicode="&#x104;" horiz-adv-x="705" 
d="M567 -184q25 -3 52 5q5 2 15 4l-11 -76q-13 -7 -40 -9q-44 -3 -74 5q-7 1 -16 5q-50 21 -56 73q-12 90 51 150q34 33 85 55l-34 137h-375q-17 -27 -49 -82t-49 -83h-88l425 700h85l177 -700h-49q-18 -9 -40 -26q-25 -19 -40 -44q-20 -33 -17 -64q1 -21 14 -35t34 -15z
M206 236l317 -1l-91 375h-4z" />
    <glyph glyph-name="aogonek" unicode="&#x105;" horiz-adv-x="654" 
d="M508 0q-60 -44 -60 -102q0 -35 19.5 -54t49.5 -19q15 0 29.5 3t21.5 6l7 3v-79q-23 -9 -59 -9q-148 0 -148 146q0 29 12 54t31 42t34 27t30 17v39h-3q-87 -92 -252 -92q-78 0 -128 33.5t-51 97.5q-1 51 21 86.5t58 52t81.5 25.5t91.5 6.5t89 -3.5q69 -4 132 -12
q11 65 -21.5 110t-97.5 53q-66 8 -129.5 -13.5t-103.5 -67.5l-73 34q42 63 119.5 94.5t162.5 31.5q115 0 177 -69.5t44 -179.5q-7 -56 -23.5 -139.5t-22.5 -121.5h-38zM244 57q58 0 108.5 12t93.5 46t54 87q-109 12 -173 14q-24 2 -57 0t-63.5 -6.5t-53.5 -21.5t-28 -44
q-2 -32 18 -52t45 -27t56 -8z" />
    <glyph glyph-name="Cacute" unicode="&#x106;" horiz-adv-x="783" 
d="M625 156q27 -23 59 -48q-143 -132 -339 -121q-87 3 -150 33q-67 33 -108 89t-48 125q-14 194 103.5 328t304.5 152q89 9 186.5 -22.5t140.5 -101.5q-68 -44 -74 -47q-40 50 -100.5 74t-127.5 22q-98 -2 -179 -47q-138 -80 -169 -234q-21 -112 35 -193t166 -98
q155 -24 300 89zM539 769h-89l147 167h110z" />
    <glyph glyph-name="cacute" unicode="&#x107;" horiz-adv-x="589" 
d="M563 418l-67 -44q-35 47 -95 58q-96 14 -169.5 -29t-98.5 -128q-12 -41 -9 -81q7 -58 48 -93.5t99 -38.5q102 -4 182 61l52 -42q-22 -31 -72.5 -56.5t-93.5 -33.5q-48 -9 -94 -5q-79 10 -131 55t-67 116q-15 77 20 158q32 74 94.5 124.5t141.5 65.5q51 11 100 5
q108 -17 160 -92zM411 565h-89l147 167h110z" />
    <glyph glyph-name="Ccaron" unicode="&#x10c;" horiz-adv-x="783" 
d="M625 156q-145 -113 -300 -89q-110 17 -166 98t-35 193q31 154 169 234q81 45 179 47q67 2 127.5 -22t100.5 -74q6 3 74 47q-43 70 -140.5 101.5t-186.5 22.5q-187 -18 -304.5 -152t-103.5 -328q7 -69 48 -125t108 -89q63 -30 150 -33q196 -11 339 121q-32 25 -59 48z
M443 773l-112 159v9h90l75 -113h3l113 113h93v-11l-176 -157h-86z" />
    <glyph glyph-name="ccaron" unicode="&#x10d;" horiz-adv-x="589" 
d="M496 374l67 44q-52 75 -160 92q-49 6 -100 -5q-79 -15 -141.5 -65.5t-94.5 -124.5q-35 -81 -20 -158q15 -71 67 -116t131 -55q46 -4 94 5q43 8 93.5 33.5t72.5 56.5l-52 42q-80 -65 -182 -61q-58 3 -99 38.5t-48 93.5q-3 40 9 81q25 85 98.5 128t169.5 29q60 -11 95 -58z
M315 569l-112 159v9h90l75 -113h3l113 113h93v-11l-176 -157h-86z" />
    <glyph glyph-name="Dcaron" unicode="&#x10e;" horiz-adv-x="776" 
d="M744 528q10 -48 7 -100q-6 -85 -30 -166q-13 -39 -28 -73q-28 -56 -73 -95t-103.5 -58.5t-117.5 -27.5t-131 -8h-236l125 699h243q62 0 93 -3q45 -6 80.5 -16t72 -28t62 -49.5t36.5 -74.5zM670 419q3 39 -4 73q-23 131 -240 131h-203q-12 -69 -45.5 -257t-51.5 -290h159
q53 0 95 4.5t92 17.5t89 42.5t61 74.5q14 32 23 62q21 75 25 142zM389 773l-112 159v9h90l75 -113h3l113 113h93v-11l-176 -157h-86z" />
    <glyph glyph-name="dcaron" unicode="&#x10f;" horiz-adv-x="756" 
d="M582 676l83 22q-119 -680 -122 -698h-64l-1 86h-5q-66 -93 -184 -100q-62 -3 -110 13q-81 28 -118 97q-27 48 -25 111q4 127 103 219q72 64 167 81q51 8 98 1q91 -17 129 -92h2zM509 285q0 54 -29 93.5t-82 51.5q-50 11 -99 0q-112 -23 -160 -124q-31 -63 -19 -126
q12 -73 79 -103q31 -13 67 -15q75 -5 134 33q106 67 109 190zM853 700l-124 -202h-44l81 202h87z" />
    <glyph glyph-name="Dcroat" unicode="&#x110;" horiz-adv-x="776" 
d="M674 846l-17 -75h-409l16 75h410zM744 528q10 -48 7 -100q-6 -85 -30 -166q-13 -39 -28 -73q-28 -56 -73 -95t-103.5 -58.5t-117.5 -27.5t-131 -8h-236l125 699h243q62 0 93 -3q45 -6 80.5 -16t72 -28t62 -49.5t36.5 -74.5zM670 419q3 39 -4 73q-23 131 -240 131h-203
q-12 -69 -45.5 -257t-51.5 -290h159q53 0 95 4.5t92 17.5t89 42.5t61 74.5q14 32 23 62q21 75 25 142z" />
    <glyph glyph-name="dcroat" unicode="&#x111;" horiz-adv-x="694" 
d="M741 628l-17 -76h-73q-11 -61 -30.5 -174.5t-35.5 -205.5t-30 -172h-65l-1 86h-4q-5 -5 -15.5 -16t-19 -19.5t-18.5 -16.5q-58 -45 -132 -48q-57 -5 -110 13q-79 26 -117 96q-28 51 -26 111q6 129 104 219q70 66 166 81q52 10 98 1q40 -6 75 -29q39 -27 54 -62h3l24 136
h-70l16 76h68l8 43l84 27q-2 -12 -6.5 -35.5t-6.5 -34.5h77zM521 285q0 11 -1 17q-3 50 -35 86q-29 31 -76 42q-49 10 -99 0q-111 -22 -160 -124q-29 -62 -19 -126q12 -73 79 -103q28 -13 67 -16q74 -5 135 34q105 66 109 190z" />
    <glyph glyph-name="Eogonek" unicode="&#x118;" horiz-adv-x="678" 
d="M679 623h-469l-41 -235h422l-14 -76h-421l-41 -235h471l-14 -76h-60q-11 -7 -19 -14q-25 -20 -41 -45q-18 -31 -17 -64q2 -21 15 -35t34 -15q28 -2 51 5q5 2 15 4l-11 -76q-16 -7 -39 -9q-45 -4 -74 5q-3 1 -8.5 3t-8.5 3q-48 20 -56 73q-11 90 52 149q5 6 17 16l-400 -1
l122 699h549z" />
    <glyph glyph-name="eogonek" unicode="&#x119;" horiz-adv-x="651" 
d="M589 218l-464 -1q-3 -31 8 -59q17 -46 55.5 -70.5t87.5 -26.5q138 0 197 81q40 -22 61 -33q-27 -45 -77 -76t-106 -43q-6 -4 -14 -10q-25 -20 -41 -45q-18 -31 -17 -64q2 -21 15 -35t34 -15q28 -2 51 5q5 2 15 4l-11 -76q-16 -7 -39 -9q-45 -4 -74 5q-3 1 -8.5 3t-8.5 3
q-48 20 -56 73q-11 90 52 149l6 6q-33 4 -53 10q-99 29 -136.5 109.5t-10.5 174.5q22 73 76 130.5t127 83.5q70 25 143 18q77 -8 130 -54q57 -50 68 -127q9 -63 -10 -111zM365 436q-80 0 -143 -40t-82 -112q10 -1 156 -1.5t226 0.5q-4 70 -47 110t-110 43z" />
    <glyph glyph-name="Ecaron" unicode="&#x11a;" horiz-adv-x="698" 
d="M688 623h-470l-41 -235h423l-14 -77h-422l-41 -235h472l-14 -76h-551l122 699h550zM397 773l-112 159v9h90l75 -113h3l113 113h93v-11l-176 -157h-86z" />
    <glyph glyph-name="ecaron" unicode="&#x11b;" horiz-adv-x="651" 
d="M476 143q-59 -81 -197 -81q-49 2 -87.5 26.5t-55.5 70.5q-11 28 -8 59l464 1q19 48 10 111q-11 77 -68 127q-53 46 -130 54q-73 7 -143 -18q-73 -26 -127 -83.5t-76 -130.5q-27 -94 10.5 -174.5t136.5 -109.5q60 -19 138 -6q59 10 112.5 41.5t81.5 79.5q-21 11 -61 33z
M525 284q-80 -1 -226 -0.5t-156 1.5q19 72 82 112t143 40q67 -3 110 -43t47 -110zM343 569l-112 159v9h90l75 -113h3l113 113h93v-11l-176 -157h-86z" />
    <glyph glyph-name="Gbreve" unicode="&#x11e;" horiz-adv-x="821" 
d="M411 321l15 72h346l-70 -393h-53l-5 99h-3q-57 -75 -167 -102q-64 -16 -135 -11q-74 5 -129 29q-68 30 -110.5 87t-53.5 129q-19 192 91.5 322t296.5 158q61 7 114 1q153 -18 234 -125q-50 -30 -74 -45q-92 107 -246 95q-129 -11 -220 -89.5t-113 -199.5q-5 -36 -4 -62
q6 -94 66 -154t151 -68q91 -10 167.5 18.5t121.5 97.5q25 43 38 100q2 7 4.5 20.5t3.5 20.5h-266zM667 945h81q0 -10 -1 -11q-28 -116 -140 -163q-86 -36 -178 -8q-21 7 -37 18q-49 30 -60 91q-6 31 0 73h81q0 -12 -1 -13q0 -23 2 -34q9 -40 45 -58q15 -7 36 -10q48 -6 88 9
q64 25 82 92q1 1 1.5 7t0.5 7z" />
    <glyph glyph-name="gbreve" unicode="&#x11f;" horiz-adv-x="670" 
d="M560 495h71l-84 -466q-16 -100 -74.5 -167.5t-154.5 -88.5q-62 -14 -125 -9q-150 9 -211 70l40 67q53 -47 148 -58q44 -5 99 -2q33 1 66 12q63 21 95 76q11 18 22 46q14 39 25 106h-5q-35 -35 -39 -38q-58 -46 -131 -55q-78 -10 -141 17q-108 44 -126 159q-11 65 16 137
q38 102 130 160.5t201 48.5q99 -8 146 -94h3q5 13 14.5 39.5t14.5 39.5zM470 155q49 73 39 154q-6 60 -53.5 93t-111.5 33q-40 1 -83 -13q-73 -25 -114.5 -91.5t-32.5 -142.5q9 -70 71 -106q19 -10 43 -16q59 -12 116 3q83 22 126 86zM553 751h81q0 -10 -1 -11
q-28 -116 -140 -163q-86 -36 -178 -8q-21 7 -37 18q-49 30 -60 91q-6 31 0 73h81q0 -12 -1 -13q0 -23 2 -34q9 -40 45 -58q15 -7 36 -10q48 -6 88 9q64 25 82 92q1 1 1.5 7t0.5 7z" />
    <glyph glyph-name="Idotaccent" unicode="&#x130;" horiz-adv-x="245" 
d="M112 0h-80l122 699h80zM277 879q1 -20 -15.5 -37.5t-40.5 -18.5q-20 0 -32 15.5t-7 35.5q4 19 20.5 31.5t35.5 12.5q17 0 28 -11t11 -28z" />
    <glyph glyph-name="dotlessi" unicode="&#x131;" horiz-adv-x="320" 
d="M40 595h268l-75 -439h-74l59 359h-191z" />
    <glyph glyph-name="Lacute" unicode="&#x139;" horiz-adv-x="621" 
d="M159 77h403l-15 -77h-480l122 699h79zM285 769h-89l147 167h110z" />
    <glyph glyph-name="lacute" unicode="&#x13a;" horiz-adv-x="259" 
d="M227 699l-122 -699h-80l118 675zM242 762h-89l147 167h110z" />
    <glyph glyph-name="Lcaron" unicode="&#x13d;" horiz-adv-x="581" 
d="M153 77h403l-15 -77h-480l122 699h79zM563 701l-124 -202h-44l81 202h87z" />
    <glyph glyph-name="lcaron" unicode="&#x13e;" horiz-adv-x="322" 
d="M220 699l-122 -699h-80l118 675zM404 700l-124 -202h-44l81 202h87z" />
    <glyph glyph-name="Lslash" unicode="&#x141;" horiz-adv-x="644" 
d="M226 281l-35 -204h402l-15 -77h-480l43 246l-107 -43l16 75l104 42l66 379h79l-60 -345l357 143l-17 -75z" />
    <glyph glyph-name="lslash" unicode="&#x142;" horiz-adv-x="425" 
d="M415 463l-17 -75l-164 -67l-58 -321h-79l51 286l-122 -49l9 73l126 51l61 339h79l-54 -305z" />
    <glyph glyph-name="Nacute" unicode="&#x143;" horiz-adv-x="774" 
d="M686 699h78l-122 -699h-69l-363 558h-4l-99 -558h-80l124 699h71l357 -572l5 1zM517 769h-89l147 167h110z" />
    <glyph glyph-name="nacute" unicode="&#x144;" horiz-adv-x="691" 
d="M471 508q72 -9 113.5 -57.5t41.5 -129.5q-1 -18 -10 -81l-44 -240h-81q7 43 23.5 128.5t23.5 130.5q11 60 -11 110.5t-82 59.5q-80 13 -151 -15.5t-110 -98.5q-25 -45 -34 -99l-40 -216h-80q13 78 45 253.5t43 240.5h64l4 -80h4q101 116 281 94zM452 565h-89l147 167h110
z" />
    <glyph glyph-name="Ncaron" unicode="&#x147;" horiz-adv-x="774" 
d="M686 699h78l-122 -699h-69l-363 558h-4l-99 -558h-80l124 699h71l357 -572l5 1zM437 773l-112 159v9h90l75 -113h3l113 113h93v-11l-176 -157h-86z" />
    <glyph glyph-name="ncaron" unicode="&#x148;" horiz-adv-x="691" 
d="M471 508q72 -9 113.5 -57.5t41.5 -129.5q-1 -18 -10 -81l-44 -240h-81q7 43 23.5 128.5t23.5 130.5q11 60 -11 110.5t-82 59.5q-80 13 -151 -15.5t-110 -98.5q-25 -45 -34 -99l-40 -216h-80q13 78 45 253.5t43 240.5h64l4 -80h4q101 116 281 94zM344 569l-112 159v9h90
l75 -113h3l113 113h93v-11l-176 -157h-86z" />
    <glyph glyph-name="Ohungarumlaut" unicode="&#x150;" horiz-adv-x="872" 
d="M375 -15q-160 5 -253.5 99.5t-71.5 243.5q28 183 160 288.5t323 95.5q120 -9 199.5 -70t96.5 -170q10 -103 -23 -194t-95.5 -154.5t-150 -100.5t-185.5 -38zM489 637q-135 0 -233 -78t-123 -209q-16 -94 22.5 -163.5t111.5 -100.5t163 -23q152 20 245.5 128.5t72.5 255.5
q-14 93 -85 141.5t-174 48.5zM510 953v1h114l-140 -166h-87zM676 953v1h114l-140 -166h-87z" />
    <glyph glyph-name="ohungarumlaut" unicode="&#x151;" horiz-adv-x="650" 
d="M269 -16q-92 0 -154 49t-77 132q-13 81 24 158q72 146 233 183q63 13 121 1q69 -13 115.5 -61t58.5 -117q10 -59 -10 -121q-26 -81 -90 -138.5t-149 -76.5q-37 -9 -72 -9zM345 437q-72 -2 -128.5 -39t-83.5 -100q-25 -62 -15 -118q10 -50 46 -80t87 -38q39 -4 78 3
q69 15 116.5 60.5t62.5 112.5q8 42 3 76q-14 80 -90 110q-35 13 -76 13zM357 749v1h114l-140 -166h-87zM523 749v1h114l-140 -166h-87z" />
    <glyph glyph-name="OE" unicode="&#x152;" horiz-adv-x="999" 
d="M978 622h-354l-41 -235h307l-14 -76h-306l-41 -234h356l-14 -77h-516q-84 2 -152 18q-40 11 -64 24q-79 39 -97 127q-10 41 -6 103q6 74 27 148q15 53 35 91q57 109 178 153q47 17 118 28q52 7 136 7h462zM449 76l94 546h-4h-42q-74 0 -122 -7q-53 -9 -89 -24
q-76 -31 -115 -103q-14 -30 -19 -45q-16 -40 -27 -110q-8 -43 -8 -82q0 -29 5 -49q12 -65 70 -93q19 -9 37 -14q47 -14 118 -18q33 -1 98 -1h4z" />
    <glyph glyph-name="oe" unicode="&#x153;" horiz-adv-x="1086" 
d="M1065 314q1 -38 -9 -86q0 -2 -2 -8h-468q-2 -16 2 -42q18 -87 106 -110q60 -16 129 2.5t113 69.5l62 -34q-83 -97 -206 -118q-71 -12 -137 8q-52 17 -78 40t-52 70h-5q-73 -89 -184 -114q-86 -19 -156 4q-122 39 -148 166q-13 69 14 140q28 76 90.5 130.5t140.5 73.5
q54 12 104 8q125 -8 188 -121h5q2 2 4 4.5t3 3.5q77 84 179 106q83 19 156 -4q75 -25 116 -87q30 -46 33 -102zM464 149q51 68 45 153q-3 57 -43 94q-29 28 -74 39q-49 10 -102 -1q-66 -12 -112 -58q-73 -71 -68 -176q4 -87 84 -123q39 -17 84 -16q26 -1 60 7q80 19 126 81z
M985 287q1 7 -1 27q-9 60 -54 93q-23 17 -51 25q-75 19 -151 -8q-89 -35 -125 -123q-5 -9 -3 -14h385z" />
    <glyph glyph-name="Racute" unicode="&#x154;" horiz-adv-x="713" 
d="M668 539q4 -81 -32 -154q-48 -97 -163 -124l74 -261h-95l-71 249q-13 -1 -40 -1h-202l-45 -248h-81q109 614 124 699h291q220 0 240 -160zM583 471q15 76 -25 114t-131 38l-223 -1l-51 -299h198q97 0 156 31t76 117zM456 769h-89l147 167h110z" />
    <glyph glyph-name="racute" unicode="&#x155;" horiz-adv-x="415" 
d="M398 501l-16 -85q-39 13 -77 14q-84 2 -134 -62q-26 -32 -45 -86q-8 -26 -18 -80l-36 -202h-79l85 495h61q-3 -81 -3 -97h2q34 55 90 83.5t116 28.5q36 -2 54 -9zM292 565h-89l147 167h110z" />
    <glyph glyph-name="Rcaron" unicode="&#x158;" horiz-adv-x="721" 
d="M678 539q4 -81 -32 -154q-48 -97 -163 -124l74 -261h-95l-71 249q-13 -1 -40 -1h-202l-45 -248h-81q109 614 124 699h291q220 0 240 -160zM593 471q15 76 -25 114t-131 38l-223 -1l-51 -299h198q97 0 156 31t76 117zM388 773l-112 159v9h90l75 -113h3l113 113h93v-11
l-176 -157h-86z" />
    <glyph glyph-name="rcaron" unicode="&#x159;" horiz-adv-x="434" 
d="M396 416l16 85q-18 7 -54 9q-60 0 -116 -28.5t-90 -83.5h-2q0 16 3 97h-61l-85 -495h79l36 202q10 54 18 80q19 54 45 86q50 64 134 62q38 -1 77 -14zM212 569l-112 159v9h90l75 -113h3l113 113h93v-11l-176 -157h-86z" />
    <glyph glyph-name="Sacute" unicode="&#x15a;" horiz-adv-x="719" 
d="M699 626l-65 -55q-91 68 -215 68q-149 0 -209 -70q-25 -38 -20.5 -67t26.5 -47.5t60 -29.5q45 -14 106 -26q36 -7 58 -12.5t59.5 -16.5t61 -24.5t47.5 -32.5t34.5 -45.5t8.5 -58.5q-6 -86 -70 -139t-150 -70q-72 -16 -160 -13q-72 0 -148 27.5t-113 74.5l62 54
q65 -68 166 -76q56 -8 121 -2q36 3 69 12t67.5 25.5t53.5 46t17 68.5q-2 26 -26.5 45.5t-43 25.5t-51.5 15q-25 8 -113 26q-84 19 -117 32q-107 39 -110 126q2 41 16 79q80 158 341 149q157 -12 237 -89zM493 769h-89l147 167h110z" />
    <glyph glyph-name="sacute" unicode="&#x15b;" horiz-adv-x="526" 
d="M-1 59l58 62q46 -52 128 -60q45 -3 88 3q100 17 106 74q3 19 -6.5 33t-28.5 23t-33 13t-33 8l-87 18q-49 11 -86 40t-38 73q2 49 27.5 84t66.5 52.5t86 24t94 3.5q51 -3 94 -22q29 -13 54 -35q-48 -61 -54 -67q-52 41 -113 47q-49 6 -97.5 -4t-68.5 -43
q-7 -12 -4.5 -22.5t4.5 -17.5t12 -14t17.5 -11t21 -8.5t23.5 -7t24 -5.5q71 -13 113 -28q95 -32 95 -103q-2 -74 -53 -119t-125 -58q-65 -12 -127 -5q-116 12 -158 72zM361 565h-89l147 167h110z" />
    <glyph glyph-name="Scaron" unicode="&#x160;" horiz-adv-x="719" 
d="M634 571l65 55q-80 77 -237 89q-261 9 -341 -149q-14 -38 -16 -79q3 -87 110 -126q33 -13 117 -32q88 -18 113 -26q19 -5 28.5 -8t30 -11t31 -16t20.5 -21.5t11 -29.5q2 -39 -17 -68.5t-53.5 -46t-67.5 -25.5t-69 -12q-65 -6 -121 2q-101 8 -166 76l-62 -54
q37 -47 113 -74.5t148 -27.5q88 -3 160 13q86 17 150 70t70 139q2 32 -8.5 58.5t-34.5 45.5t-47.5 32.5t-61 24.5t-59.5 16.5t-58 12.5q-61 12 -106 26q-38 11 -60 29.5t-26.5 47.5t20.5 67q60 70 209 70q124 0 215 -68zM403 773l-112 159v9h90l75 -113h3l113 113h93v-11
l-176 -157h-86z" />
    <glyph glyph-name="scaron" unicode="&#x161;" horiz-adv-x="526" 
d="M57 121l-58 -62q42 -60 158 -72q62 -7 127 5q74 13 125 58t53 119q0 71 -95 103q-42 15 -113 28q-14 3 -24 5.5t-23.5 7t-21 8.5t-17.5 11t-12 14t-4.5 17.5t4.5 22.5q20 33 68.5 43t97.5 4q61 -6 113 -47q6 6 54 67q-25 22 -54 35q-43 19 -94 22q-49 3 -94 -3.5t-86 -24
t-66.5 -52.5t-27.5 -84q1 -44 38 -73t86 -40l87 -18q19 -4 33 -8t33 -13t28.5 -23t6.5 -33q-6 -57 -106 -74q-43 -6 -88 -3q-82 8 -128 60zM272 569l-112 159v9h90l75 -113h3l113 113h93v-11l-176 -157h-86z" />
    <glyph glyph-name="Tcaron" unicode="&#x164;" horiz-adv-x="626" 
d="M58 699l588 -1l-12 -75h-254l-111 -623h-81l110 623h-250zM333 773l-112 159v9h90l75 -113h3l113 113h93v-11l-176 -157h-86z" />
    <glyph glyph-name="tcaron" unicode="&#x165;" horiz-adv-x="389" 
d="M234 419l-75 -419h-80l76 419h-101l13 76h101l26 143l81 16l-27 -159h120l-13 -76h-121zM455 751l-124 -202h-44l81 202h87z" />
    <glyph glyph-name="Uring" unicode="&#x16e;" horiz-adv-x="784" 
d="M676 699h81l-56 -299q-15 -87 -20 -109q-25 -94 -73 -159q-52 -75 -137 -113.5t-181 -30.5q-38 2 -72 12q-114 36 -147 151q-24 78 1 211l59 337h81l-65 -369q-7 -55 -2 -107.5t39 -96.5t92 -57q74 -16 145 8.5t119 86.5q49 65 74 193zM432 727q-56 0 -91 33.5t-33 85.5
q3 62 44.5 106.5t100.5 54.5q38 6 73 -4q51 -17 70 -62.5t4 -98.5q-48 -115 -168 -115zM545 876q0 69 -69 72q-42 1 -71.5 -23t-34.5 -63q-2 -23 9 -43.5t36 -27.5q61 -16 105 29q23 23 25 56z" />
    <glyph glyph-name="uring" unicode="&#x16f;" horiz-adv-x="691" 
d="M555 494h81l-84 -495h-66l-1 81h-4q-74 -74 -161 -91q-47 -8 -87 -4q-43 3 -78 16q-66 27 -91.5 87.5t-13.5 138.5q3 20 21.5 133t22.5 134h80l-41 -254q-9 -81 21 -126t110 -53q94 -4 162.5 46.5t89.5 143.5q8 36 39 243zM373 553q-56 0 -91 33.5t-33 85.5
q3 62 44.5 106.5t100.5 54.5q38 6 73 -4q51 -17 70 -62.5t4 -98.5q-48 -115 -168 -115zM486 702q0 69 -69 72q-42 1 -71.5 -23t-34.5 -63q-2 -23 9 -43.5t36 -27.5q61 -16 105 29q23 23 25 56z" />
    <glyph glyph-name="Uhungarumlaut" unicode="&#x170;" horiz-adv-x="784" 
d="M670 699h81l-56 -299q-15 -87 -20 -109q-25 -94 -73 -159q-52 -75 -137 -113.5t-181 -30.5q-38 2 -72 12q-114 36 -147 151q-24 78 1 211l59 337h81l-65 -369q-7 -55 -2 -107.5t39 -96.5t92 -57q74 -16 145 8.5t119 86.5q49 65 74 193zM453 953v1h114l-140 -166h-87z
M619 953v1h114l-140 -166h-87z" />
    <glyph glyph-name="uhungarumlaut" unicode="&#x171;" horiz-adv-x="684" 
d="M555 494h81l-84 -495h-66l-1 81h-4q-74 -74 -161 -91q-47 -8 -87 -4q-43 3 -78 16q-66 27 -91.5 87.5t-13.5 138.5q3 20 21.5 133t22.5 134h80l-41 -254q-9 -81 21 -126t110 -53q94 -4 162.5 46.5t89.5 143.5q8 36 39 243zM374 749v1h114l-140 -166h-87zM540 749v1h114
l-140 -166h-87z" />
    <glyph glyph-name="Ydieresis" unicode="&#x178;" horiz-adv-x="628" 
d="M569 699h91l-339 -433q-12 -71 -47 -266h-80l47 266l-191 433h90l153 -355h5zM329 879q1 -20 -15.5 -37.5t-40.5 -18.5q-20 0 -32 15.5t-7 35.5q4 19 20.5 31.5t35.5 12.5q17 0 28 -11t11 -28zM516 879q1 -20 -15.5 -37.5t-40.5 -18.5q-20 0 -32 15.5t-7 35.5
q4 19 20.5 31.5t35.5 12.5q17 0 28 -11t11 -28z" />
    <glyph glyph-name="Zacute" unicode="&#x179;" horiz-adv-x="647" 
d="M651 621l-518 -537l-2 -7h437l-15 -77h-543l20 79l514 539l1 5h-428l9 76h546zM456 769h-89l147 167h110z" />
    <glyph glyph-name="zacute" unicode="&#x17a;" horiz-adv-x="573" 
d="M546 419l-411 -338v-4h361l-14 -77h-474l23 83q127 104 407 331v5h-346l13 76h459zM397 565h-89l147 167h110z" />
    <glyph glyph-name="Zdotaccent" unicode="&#x17b;" horiz-adv-x="647" 
d="M631 621l-518 -537l-2 -7h437l-15 -77h-543l20 79l514 539l1 5h-428l9 76h546zM452 879q1 -20 -15.5 -37.5t-40.5 -18.5q-20 0 -32 15.5t-7 35.5q4 19 20.5 31.5t35.5 12.5q17 0 28 -11t11 -28z" />
    <glyph glyph-name="zdotaccent" unicode="&#x17c;" horiz-adv-x="573" 
d="M542 419l-411 -338v-4h361l-14 -77h-474l23 83q127 104 407 331v5h-346l13 76h459zM422 675q1 -20 -15.5 -37.5t-40.5 -18.5q-20 0 -32 15.5t-7 35.5q4 19 20.5 31.5t35.5 12.5q17 0 28 -11t11 -28z" />
    <glyph glyph-name="Zcaron" unicode="&#x17d;" horiz-adv-x="647" 
d="M626 621l-518 -537l-2 -7h437l-15 -77h-543l20 79l514 539l1 5h-428l9 76h546zM344 773l-112 159v9h90l75 -113h3l113 113h93v-11l-176 -157h-86z" />
    <glyph glyph-name="zcaron" unicode="&#x17e;" horiz-adv-x="587" 
d="M556 419l-411 -338v-4h361l-14 -77h-474l23 83q127 104 407 331v5h-346l13 76h459zM310 569l-112 159v9h90l75 -113h3l113 113h93v-11l-176 -157h-86z" />
    <glyph glyph-name="florin" unicode="&#x192;" horiz-adv-x="404" 
d="M411 704l-16 -75q-34 10 -70 5q-32 -6 -48 -32q-7 -10 -15 -34q-8 -31 -10 -51h125l-12 -75h-127l-48 -270q-4 -25 -19.5 -106.5t-21.5 -125.5q-23 -154 -144 -164q-43 -5 -79 2l12 76q40 -6 62 -2q33 6 51 36q13 24 18 51l12 66q5 25 13.5 74t12.5 73q16 96 25 144
l25 146h-75l13 75h75q4 22 6 32q7 33 21 67q40 79 109 92q53 10 105 -4z" />
    <glyph glyph-name="Scommaaccent" unicode="&#x218;" horiz-adv-x="719" 
d="M332 -68l-123 -203h-45l82 203h86zM699 626l-65 -55q-91 68 -215 68q-149 0 -209 -70q-25 -38 -20.5 -67t26.5 -47.5t60 -29.5q45 -14 106 -26q36 -7 58 -12.5t59.5 -16.5t61 -24.5t47.5 -32.5t34.5 -45.5t8.5 -58.5q-6 -86 -70 -139t-150 -70q-72 -16 -160 -13
q-72 0 -148 27.5t-113 74.5l62 54q65 -68 166 -76q56 -8 121 -2q36 3 69 12t67.5 25.5t53.5 46t17 68.5q-2 26 -26.5 45.5t-43 25.5t-51.5 15q-25 8 -113 26q-84 19 -117 32q-107 39 -110 126q2 41 16 79q80 158 341 149q157 -12 237 -89z" />
    <glyph glyph-name="scommaaccent" unicode="&#x219;" horiz-adv-x="526" 
d="M247 -68l-123 -203h-45l82 203h86zM-1 59l58 62q46 -52 128 -60q45 -3 88 3q100 17 106 74q3 19 -6.5 33t-28.5 23t-33 13t-33 8l-87 18q-49 11 -86 40t-38 73q2 49 27.5 84t66.5 52.5t86 24t94 3.5q51 -3 94 -22q29 -13 54 -35q-48 -61 -54 -67q-52 41 -113 47
q-49 6 -97.5 -4t-68.5 -43q-7 -12 -4.5 -22.5t4.5 -17.5t12 -14t17.5 -11t21 -8.5t23.5 -7t24 -5.5q71 -13 113 -28q95 -32 95 -103q-2 -74 -53 -119t-125 -58q-65 -12 -127 -5q-116 12 -158 72z" />
    <glyph glyph-name="circumflex" unicode="&#x2c6;" horiz-adv-x="448" 
d="M292 741l112 -159v-9h-90l-75 113h-3l-113 -113h-93v11l176 157h86z" />
    <glyph glyph-name="caron" unicode="&#x2c7;" horiz-adv-x="469" 
d="M158 569l-112 159v9h90l75 -113h3l113 113h93v-11l-176 -157h-86z" />
    <glyph glyph-name="breve" unicode="&#x2d8;" horiz-adv-x="467" 
d="M365 724h81q0 -10 -1 -11q-28 -116 -140 -163q-86 -36 -178 -8q-21 7 -37 18q-49 30 -60 91q-6 31 0 73h81q0 -12 -1 -13q0 -23 2 -34q9 -40 45 -58q15 -7 36 -10q48 -6 88 9q64 25 82 92q1 1 1.5 7t0.5 7z" />
    <glyph glyph-name="dotaccent" unicode="&#x2d9;" horiz-adv-x="189" 
d="M138 675q1 -20 -15.5 -37.5t-40.5 -18.5q-20 0 -32 15.5t-7 35.5q4 19 20.5 31.5t35.5 12.5q17 0 28 -11t11 -28z" />
    <glyph glyph-name="ring" unicode="&#x2da;" horiz-adv-x="363" 
d="M159 427q-56 0 -91 33.5t-33 85.5q3 62 44.5 106.5t100.5 54.5q38 6 73 -4q51 -17 70 -62.5t4 -98.5q-48 -115 -168 -115zM272 576q0 69 -69 72q-42 1 -71.5 -23t-34.5 -63q-2 -23 9 -43.5t36 -27.5q61 -16 105 29q23 23 25 56z" />
    <glyph glyph-name="ogonek" unicode="&#x2db;" horiz-adv-x="240" 
d="M238 17q-5 -2 -13.5 -5t-30.5 -15.5t-39 -26.5t-30.5 -38t-13.5 -51q0 -35 19.5 -54t49.5 -19q15 0 29.5 3t21.5 6l7 3v-79q-23 -9 -59 -9q-148 0 -148 146q0 45 29.5 81.5t59.5 50.5l29 14z" />
    <glyph glyph-name="tilde" unicode="&#x2dc;" horiz-adv-x="447" 
d="M356 672q24 10 54 30l-10 -73q-38 -28 -77 -38q-33 -8 -71 1l-45 15q-32 12 -49 14q-27 3 -55 -5q-22 -7 -59 -29l13 73q51 35 99 38q31 1 61 -9q14 -4 40 -14q31 -11 52 -11q23 0 47 8z" />
    <glyph glyph-name="hungarumlaut" unicode="&#x2dd;" horiz-adv-x="425" 
d="M112 749v1h114l-140 -166h-87zM278 749v1h114l-140 -166h-87z" />
    <glyph glyph-name="endash" unicode="&#x2013;" horiz-adv-x="521" 
d="M471 342l-17 -75h-409l16 75h410z" />
    <glyph glyph-name="emdash" unicode="&#x2014;" horiz-adv-x="756" 
d="M696 342l-17 -75h-634l16 75h635z" />
    <glyph glyph-name="quoteleft" unicode="&#x2018;" horiz-adv-x="178" 
d="M16 497l124 203h44l-81 -203h-87z" />
    <glyph glyph-name="quoteright" unicode="&#x2019;" horiz-adv-x="197" 
d="M184 700l-124 -202h-44l81 202h87z" />
    <glyph glyph-name="quotesinglbase" unicode="&#x201a;" horiz-adv-x="211" 
d="M159 113l-123 -203h-45l82 203h86z" />
    <glyph glyph-name="quotedblleft" unicode="&#x201c;" horiz-adv-x="362" 
d="M164 497l124 202h44l-81 -202h-87zM16 497l124 203h44l-81 -203h-87z" />
    <glyph glyph-name="quotedblright" unicode="&#x201d;" horiz-adv-x="318" 
d="M184 700l-124 -202h-44l81 202h87zM332 700l-124 -203h-44l81 203h87z" />
    <glyph glyph-name="quotedblbase" unicode="&#x201e;" horiz-adv-x="364" 
d="M36 -89h-44l81 202h87zM184 -89h-44l81 203h87z" />
    <glyph glyph-name="dagger" unicode="&#x2020;" horiz-adv-x="431" 
d="M392 483l-13 -77h-128l-101 -562h-79l100 562h-127l13 77h128l31 178h80l-32 -178h128z" />
    <glyph glyph-name="daggerdbl" unicode="&#x2021;" horiz-adv-x="435" 
d="M410 407h-128l-54 -303h128l-14 -77h-128l-32 -182h-80l32 182h-126l13 77h127l54 303h-127l14 77h127l32 178h79l-32 -178h128z" />
    <glyph glyph-name="bullet" unicode="&#x2022;" horiz-adv-x="303" 
d="M210 315q1 -25 -19.5 -47t-51.5 -23q-24 0 -38.5 19t-9.5 43t26 40.5t45 16.5q21 0 34.5 -14t13.5 -35z" />
    <glyph glyph-name="ellipsis" unicode="&#x2026;" horiz-adv-x="594" 
d="M117 49q1 -20 -15.5 -37.5t-40.5 -18.5q-20 0 -32 15.5t-7 35.5q4 19 20.5 31.5t35.5 12.5q17 0 28 -11t11 -28zM290 49q1 -20 -15.5 -37.5t-40.5 -18.5q-20 0 -32 15.5t-7 35.5q4 19 20.5 31.5t35.5 12.5q17 0 28 -11t11 -28zM466 49q1 -20 -15.5 -37.5t-40.5 -18.5
q-20 0 -32 15.5t-7 35.5q4 19 20.5 31.5t35.5 12.5q17 0 28 -11t11 -28z" />
    <glyph glyph-name="perthousand" unicode="&#x2030;" horiz-adv-x="1405" 
d="M217 349q-71 -1 -114.5 37.5t-49.5 104.5q-4 49 18 94q42 76 113.5 112t154.5 14q82 -26 102 -114q9 -60 -11 -107q-37 -68 -87.5 -102t-125.5 -39zM229 427q58 1 95 39t39 93q-7 84 -104 84q-56 -2 -92.5 -42.5t-33.5 -95.5q2 -38 29 -58.5t67 -19.5zM797 720l-577 -738
h-80l577 738h80zM652 -18q-71 -1 -114.5 37.5t-49.5 104.5q-4 49 18 94q42 75 114 111.5t154 14.5q82 -26 102 -114q9 -60 -11 -107q-37 -68 -87.5 -102t-125.5 -39zM664 60q58 1 95 39t39 93q-7 84 -104 84q-56 -2 -92.5 -42.5t-33.5 -95.5q2 -38 29 -58.5t67 -19.5z
M1110 -18q-71 -1 -114.5 37.5t-49.5 104.5q-4 49 18 94q42 75 114 111.5t154 14.5q82 -26 102 -114q9 -60 -11 -107q-37 -68 -87.5 -102t-125.5 -39zM1122 60q58 1 95 39t39 93q-7 84 -104 84q-56 -2 -92.5 -42.5t-33.5 -95.5q2 -38 29 -58.5t67 -19.5z" />
    <glyph glyph-name="guilsinglleft" unicode="&#x2039;" horiz-adv-x="365" 
d="M305 489l-190 -205l115 -206h-80l-115 205l191 206h79z" />
    <glyph glyph-name="guilsinglright" unicode="&#x203a;" horiz-adv-x="336" 
d="M35 78l190 205l-115 206h80l115 -205l-191 -206h-79z" />
    <glyph glyph-name="fraction" unicode="&#x2044;" horiz-adv-x="317" 
d="M408 753l-388 -863h-80l388 863h80z" />
    <glyph glyph-name="Euro" unicode="&#x20ac;" horiz-adv-x="723" 
d="M364 605q-81 -41 -130 -114q-7 -9 -8 -16h147h186l-12 -75h-132h-224q-7 -16 -12.5 -44.5t-3.5 -44.5h360l-12 -77h-340q-1 -3 2 -16q26 -78 98 -119q44 -25 103 -33q92 -12 179 18l31 -69q-62 -22 -122 -26q-36 -5 -72 -3q-86 5 -146 32q-134 60 -159 203q-1 2 -2 6.5
t-1 6.5h-76l14 77h60q1 6 2.5 20t2.5 22t4.5 26t4.5 21h-59q1 12 12 75h76q2 4 6 10q91 173 287 222q70 18 151 15q80 -5 138 -30q10 -4 15 -7l-54 -68q-58 26 -124 29q-103 3 -190 -41z" />
    <glyph glyph-name="trademark" unicode="&#x2122;" horiz-adv-x="939" 
d="M58 700h361l-11 -62h-141l-64 -372h-75l60 372h-139zM806 701h79l-75 -436h-75l53 305h-7l-124 -160h-62l-68 160h-5l-53 -302q0 -2 -1 -3h-73q50 290 76 436h81l87 -210h3z" />
    <glyph glyph-name="minus" unicode="&#x2212;" horiz-adv-x="504" 
d="M474 342l-17 -75h-412l16 75h413z" />
    <glyph glyph-name="fi" unicode="&#xfb01;" horiz-adv-x="572" 
d="M229 495h265l-87 -495h-79l73 419h-186l-74 -419h-83l76 419h-93l12 76h94l3 14q31 172 151 195q41 9 89 2l-12 -75q-19 3 -44 1q-40 -4 -63 -26t-34 -65q-6 -30 -8 -46zM532 665q0 17 -11 28t-28 11q-19 0 -35.5 -12.5t-20.5 -31.5q-5 -20 7 -35.5t32 -15.5
q24 1 40.5 18.5t15.5 37.5z" />
    <glyph glyph-name="fl" unicode="&#xfb02;" horiz-adv-x="586" 
d="M545 694v-2q-15 -86 -60.5 -346t-60.5 -346h-81q23 134 46.5 266.5t62.5 362.5q-69 6 -107 4q-74 -7 -90 -68q-10 -40 -16 -72l136 1l-14 -73h-135q-9 -43 -73 -421h-81q6 36 35 207.5t37 213.5h-94q0 25 12 73h95q3 6 5 22q10 75 47.5 128t102.5 60q84 9 233 -10z" />
    <glyph glyph-name="CR" horiz-adv-x="249" 
 />
    <glyph glyph-name="OO" horiz-adv-x="588" 
d="M280 713q102 0 165 -65.5t63 -151.5q0 -89 -62.5 -153.5t-165.5 -64.5q-102 0 -164.5 65t-62.5 153q0 85 63 151t164 66zM280 353q69 0 108.5 40t39.5 103q0 64 -39 102.5t-109 38.5q-69 0 -108 -39t-39 -102q0 -61 39.5 -102t107.5 -41z" />
    </font>
</defs>
</svg>
