<?xml version="1.0" standalone="no"?>
<!DOCTYPE svg PUBLIC "-//W3C//DTD SVG 1.1//EN" "http://www.w3.org/Graphics/SVG/1.1/DTD/svg11.dtd" >
<svg xmlns="http://www.w3.org/2000/svg" xmlns:xlink="http://www.w3.org/1999/xlink" version="1.1">
<metadata>
Created by FontForge 20170731 at Thu Oct 19 14:11:15 2017
 By Aleksey,,,
Copyright (c) 2017 by Jan-Christian Bruun. All rights reserved.
</metadata>
<defs>
<font id="ArkibalDisplay-Heavy" horiz-adv-x="670" >
  <font-face 
    font-family="Arkibal Display"
    font-weight="900"
    font-stretch="normal"
    units-per-em="1000"
    panose-1="2 0 5 4 0 0 0 2 0 4"
    ascent="750"
    descent="-250"
    x-height="495"
    cap-height="699"
    bbox="-126 -305 1261 1092"
    underline-thickness="50"
    underline-position="-200"
    unicode-range="U+0020-FB02"
  />
<missing-glyph horiz-adv-x="249" 
 />
    <glyph glyph-name=".notdef" horiz-adv-x="249" 
 />
    <glyph glyph-name=".null" horiz-adv-x="0" 
 />
    <glyph glyph-name="nonmarkingreturn" horiz-adv-x="333" 
 />
    <glyph glyph-name="space" unicode=" " horiz-adv-x="313" 
 />
    <glyph glyph-name="exclam" unicode="!" horiz-adv-x="319" 
d="M240 279h-148l-23 437h192zM168 -6q-39 0 -66 27.5t-27 65.5t27 65.5t66 27.5q38 0 65.5 -27.5t27.5 -65.5t-27.5 -65.5t-65.5 -27.5z" />
    <glyph glyph-name="quotedbl" unicode="&#x22;" horiz-adv-x="393" 
d="M49 442v257h111v-257h-111zM219 699h111v-257h-111v257z" />
    <glyph glyph-name="numbersign" unicode="#" horiz-adv-x="842" 
d="M811 391h-151l-18 -82h133v-139h-163l-38 -177h-175l40 177h-97l-39 -177h-172l40 177h-120v139h151l18 82h-134v139h165l40 177h166l-38 -177h100l40 177h169l-38 -177h121v-139zM470 309l18 82h-99l-17 -82h98z" />
    <glyph glyph-name="dollar" unicode="$" horiz-adv-x="673" 
d="M646 212q0 -97 -71.5 -157t-202.5 -69v-96h-71v95q-85 3 -158.5 28.5t-114.5 74.5l108 111q62 -53 165 -62v148q-134 15 -192 63.5t-58 156.5q0 88 66.5 142.5t183.5 64.5v96h71v-95q150 -6 250 -90l-114 -113q-55 42 -136 50v-127q143 -18 208.5 -71.5t65.5 -149.5z
M229 504q0 -24 14 -38t58 -22v114q-72 -13 -72 -54zM372 139q49 7 73.5 25t24.5 44q0 53 -98 68v-137z" />
    <glyph glyph-name="percent" unicode="%" horiz-adv-x="916" 
d="M391 546q0 -71 -52.5 -121t-125.5 -50t-125.5 50t-52.5 121q0 70 52 120t126 50t126 -50t52 -120zM147 546q0 -26 19 -45t47 -19t47 19t19 45t-19 44.5t-47 18.5t-47 -18.5t-19 -44.5zM696 324q74 0 126 -50t52 -120q0 -71 -52.5 -121t-125.5 -50q-74 0 -126 50t-52 121
t52 120.5t126 49.5zM696 90q27 0 46.5 19t19.5 45t-19.5 44.5t-46.5 18.5q-28 0 -47.5 -18.5t-19.5 -44.5t19.5 -45t47.5 -19zM615 719l91 -57l-419 -689l-87 53z" />
    <glyph glyph-name="ampersand" unicode="&#x26;" horiz-adv-x="768" 
d="M625 140l125 -140h-197l-34 38q-82 -50 -181 -50q-145 0 -221.5 61t-76.5 166q0 124 154 191v3q-47 58 -47 114q0 90 62 140t186 50q29 0 58.5 -5.5t43.5 -9.5t17 -6l-1 -160q-55 28 -112 28q-83 0 -83 -42q0 -28 39 -72l166 -191q6 32 6 79h149q0 -130 -53 -194z
M327 139q51 0 87 17l-136 155q-62 -28 -62 -94q0 -78 111 -78z" />
    <glyph glyph-name="quotesingle" unicode="'" horiz-adv-x="201" 
d="M49 442v257h111v-257h-111z" />
    <glyph glyph-name="parenleft" unicode="(" horiz-adv-x="430" 
d="M248 -185q-7 9 -18 24.5t-40 66.5t-51.5 104t-40.5 132t-18 155t17 154.5t41.5 136t49 104.5t41.5 71l17 24h160q-7 -9 -18 -25.5t-40 -69t-51.5 -106.5t-40.5 -132.5t-18 -152.5t18 -151.5t43 -135t50.5 -104t43.5 -70.5l18 -25h-163z" />
    <glyph glyph-name="parenright" unicode=")" horiz-adv-x="384" 
d="M184 -185h-163q7 9 18.5 25.5t41.5 69t53 106.5t41.5 132.5t18.5 152.5t-17.5 151.5t-42 135t-49 104t-41.5 70.5l-18 25h160q7 -9 18 -25.5t39.5 -68.5t50.5 -106.5t40 -134t18 -155.5t-17.5 -153.5t-42 -134t-49 -102t-41.5 -69.5z" />
    <glyph glyph-name="asterisk" unicode="*" horiz-adv-x="488" 
d="M460 509l-142 -31l95 -111l-97 -72l-75 127l-76 -127l-97 72l96 111l-143 31l38 116l135 -59l-14 146h121l-12 -146l135 59z" />
    <glyph glyph-name="plus" unicode="+" horiz-adv-x="554" 
d="M518 412v-138h-171v-171h-139v171h-171v138h171v171h139v-171h171z" />
    <glyph glyph-name="comma" unicode="," horiz-adv-x="243" 
d="M222 172l-89 -253h-129l45 253h173z" />
    <glyph glyph-name="hyphen" unicode="-" horiz-adv-x="390" 
d="M342 360v-139h-263v139h263z" />
    <glyph glyph-name="period" unicode="." horiz-adv-x="290" 
d="M148 -6q-39 0 -66 27.5t-27 65.5t27 65.5t66 27.5q38 0 65.5 -27.5t27.5 -65.5t-27.5 -65.5t-65.5 -27.5z" />
    <glyph glyph-name="slash" unicode="/" horiz-adv-x="425" 
d="M11 -154l249 930l143 -35l-252 -935z" />
    <glyph glyph-name="zero" unicode="0" horiz-adv-x="729" 
d="M683 350q0 -175 -83.5 -272t-234.5 -97q-152 0 -233.5 95t-81.5 268q0 171 84 270t234 99q151 0 233 -97t82 -266zM365 562q-69 0 -104 -56t-35 -157q0 -102 36 -159t106 -57q76 0 108 53.5t32 158.5q0 217 -143 217z" />
    <glyph glyph-name="one" unicode="1" horiz-adv-x="530" 
d="M351 151h130v-151h-436v151h130v380l-130 -27v151l200 44h106v-548z" />
    <glyph glyph-name="two" unicode="2" horiz-adv-x="590" 
d="M297 151h256v-151h-492v149q200 151 258.5 208.5t58.5 116.5q0 36 -27 59t-76 23t-87 -17t-89 -59l-72 150q114 80 248 80q137 0 207.5 -59.5t70.5 -163.5q0 -90 -49.5 -156t-206.5 -175v-5z" />
    <glyph glyph-name="three" unicode="3" horiz-adv-x="606" 
d="M361 407q185 -34 185 -197q0 -118 -72.5 -172.5t-237.5 -54.5q-134 0 -203 36l30 154q28 -16 77.5 -25.5t95.5 -9.5q74 0 103 17t29 57q0 28 -14 44.5t-61.5 28t-133.5 11.5l-16 105l149 143v4h-254v151h477v-152l-154 -137v-3z" />
    <glyph glyph-name="four" unicode="4" horiz-adv-x="627" 
d="M593 280v-150h-61v-130h-175v129h-317v152l257 418h202l-251 -412v-7h109v98h175v-98h61z" />
    <glyph glyph-name="five" unicode="5" horiz-adv-x="611" 
d="M338 434q107 0 169.5 -52.5t62.5 -157.5q0 -107 -74.5 -174.5t-204.5 -67.5q-69 0 -130 15t-87 31l-27 15l33 148q10 -6 27 -15t63.5 -24t85.5 -15q136 0 136 82q0 76 -135 76q-55 0 -150 -23l-28 12v415h454v-151h-278v-122l3 -1q47 9 80 9z" />
    <glyph glyph-name="six" unicode="6" horiz-adv-x="658" 
d="M330 -17q-153 0 -221.5 83.5t-68.5 271.5q0 194 77 284.5t242 90.5q130 0 209 -67l-80 -132q-36 26 -62 37t-67 11q-64 0 -104.5 -43t-40.5 -133v-5h4q33 77 141 77q110 0 174.5 -59.5t64.5 -176.5q0 -111 -67 -175t-201 -64zM319 311q-45 0 -74 -22t-29 -60
q0 -43 25.5 -68.5t77.5 -25.5q110 0 110 94q0 82 -110 82z" />
    <glyph glyph-name="seven" unicode="7" horiz-adv-x="555" 
d="M12 699h499l-1 -152l-193 -547h-180l194 543v5h-319v151z" />
    <glyph glyph-name="eight" unicode="8" horiz-adv-x="693" 
d="M539 378q44 -14 74 -59t30 -108q0 -228 -296 -228q-158 0 -227.5 55.5t-69.5 166.5q0 40 25.5 76.5t75.5 51.5v4q-28 15 -43.5 29.5t-29 50t-13.5 88.5q0 102 75 155.5t205 53.5q131 0 202.5 -54t71.5 -147q0 -92 -80 -131v-4zM340 427q17 -3 49 -7q55 32 55 80
q0 62 -99 62q-104 0 -104 -58q0 -30 19.5 -49t79.5 -28zM350 282q-40 4 -57 7q-67 -21 -67 -76q0 -77 121 -77q120 0 120 71q0 64 -117 75z" />
    <glyph glyph-name="nine" unicode="9" horiz-adv-x="658" 
d="M318 712q153 0 221.5 -83t68.5 -271q0 -194 -76.5 -285t-241.5 -91q-131 0 -232 53l66 138q68 -39 166 -39q64 0 104.5 43t40.5 133v5h-4q-35 -77 -141 -77q-111 0 -175.5 59t-64.5 177q0 110 67.5 174t200.5 64zM329 385q45 0 74 22t29 60q0 42 -25.5 68t-77.5 26
q-110 0 -110 -94q0 -82 110 -82z" />
    <glyph glyph-name="colon" unicode=":" horiz-adv-x="273" 
d="M128 -6q-39 0 -66 27.5t-27 65.5t27 65.5t66 27.5q38 0 65.5 -27.5t27.5 -65.5t-27.5 -65.5t-65.5 -27.5zM128 313q-39 0 -66 27.5t-27 65.5t27 65.5t66 27.5q38 0 65.5 -27.5t27.5 -65.5t-27.5 -65.5t-65.5 -27.5z" />
    <glyph glyph-name="semicolon" unicode=";" horiz-adv-x="307" 
d="M148 -81l89 253h-173l-45 -253h129zM153 313q-39 0 -66 27.5t-27 65.5t27 65.5t66 27.5q38 0 65.5 -27.5t27.5 -65.5t-27.5 -65.5t-65.5 -27.5z" />
    <glyph glyph-name="less" unicode="&#x3c;" horiz-adv-x="588" 
d="M546 279v-167l-501 160v143l501 160v-167l-279 -63v-3z" />
    <glyph glyph-name="equal" unicode="=" horiz-adv-x="540" 
d="M67 478h405v-138h-405v138zM67 131v138h405v-138h-405z" />
    <glyph glyph-name="greater" unicode="&#x3e;" horiz-adv-x="558" 
d="M34 279l279 63v3l-279 63v167l501 -160v-143l-501 -160v167z" />
    <glyph glyph-name="question" unicode="?" horiz-adv-x="519" 
d="M245 724q129 0 194 -58t65 -155q0 -56 -19 -98t-46 -63t-53.5 -33.5t-45.5 -14.5l-19 -3v-64h-176v160q53 3 82 6q102 10 102 94q0 78 -117 78q-47 0 -89 -13.5t-61 -26.5l-19 -13v158q8 5 23 12.5t67.5 20.5t111.5 13zM229 -6q-39 0 -66 27.5t-27 65.5t27 65.5t66 27.5
q38 0 65.5 -27.5t27.5 -65.5t-27.5 -65.5t-65.5 -27.5z" />
    <glyph glyph-name="at" unicode="@" horiz-adv-x="997" 
d="M647 459h97v-273q0 -37 31 -37q41 0 62 38t21 131q0 117 -83.5 196.5t-212.5 79.5q-165 0 -260.5 -84.5t-95.5 -234.5q0 -148 97 -233t257 -85q54 0 106 7.5t77 15.5l25 8v-136q-77 -29 -205 -29q-239 0 -376 123t-137 329q0 199 147 327t367 128q201 0 323 -120.5
t122 -288.5q0 -272 -236 -272q-52 0 -88 23t-42 41h-4q-41 -65 -128 -65q-101 0 -156.5 55.5t-55.5 150.5q0 97 58.5 156.5t154.5 59.5q67 0 107 -52h4zM531 161q100 0 100 95q0 46 -26.5 73t-73.5 27q-103 0 -103 -100q0 -95 103 -95z" />
    <glyph glyph-name="A" unicode="A" horiz-adv-x="761" 
d="M555 0l-45 125h-260l-44 -125h-196l273 699h195l273 -699h-196zM302 267h157l-78 212h-2z" />
    <glyph glyph-name="B" unicode="B" horiz-adv-x="770" 
d="M635 355q38 -13 61.5 -55t23.5 -94q0 -95 -67.5 -150.5t-176.5 -55.5h-396v699h380q108 0 176 -57t68 -153q0 -104 -69 -133v-1zM256 547v-132h191q38 0 59 18t21 48q0 29 -21 47.5t-59 18.5h-191zM463 150q40 0 60 18.5t20 48.5t-20 48t-60 18h-207v-133h207z" />
    <glyph glyph-name="C" unicode="C" horiz-adv-x="775" 
d="M597 211l138 -97q-111 -131 -302 -131q-165 0 -274.5 102.5t-109.5 261.5q0 161 110.5 264t273.5 103q90 0 168.5 -34.5t133.5 -97.5l-139 -100q-62 75 -164 75q-96 0 -151.5 -58.5t-55.5 -150.5t56 -150.5t152 -58.5q105 0 164 72z" />
    <glyph glyph-name="D" unicode="D" horiz-adv-x="822" 
d="M360 699q205 0 308.5 -84t103.5 -265q0 -350 -412 -350h-280v699h280zM360 152q120 0 178 46t58 152q0 112 -56.5 155t-179.5 43h-105v-395z" />
    <glyph glyph-name="E" unicode="E" horiz-adv-x="678" 
d="M614 548h-371v-124h327v-138h-327v-135h371v-151h-547v699h547v-151z" />
    <glyph glyph-name="F" unicode="F" horiz-adv-x="632" 
d="M607 547h-372v-123h327v-138h-327v-286h-176v699h548v-152z" />
    <glyph glyph-name="G" unicode="G" horiz-adv-x="821" 
d="M413 418h346v-418h-113l-34 58h-3q-25 -35 -75.5 -54t-116.5 -19q-166 0 -266 100t-100 265q0 155 106.5 260t276.5 105q176 0 283 -132l-132 -94q-53 75 -151 75q-101 0 -154.5 -59.5t-53.5 -154.5t53.5 -154.5t154.5 -59.5q137 0 148 144h-169v138z" />
    <glyph glyph-name="H" unicode="H" horiz-adv-x="807" 
d="M551 699h176v-699h-176v275h-295v-275h-176v699h176v-274h295v274z" />
    <glyph glyph-name="I" unicode="I" horiz-adv-x="335" 
d="M80 699h175v-699h-175v699z" />
    <glyph glyph-name="J" unicode="J" horiz-adv-x="626" 
d="M179 699h367v-389q0 -155 -78.5 -240.5t-225.5 -85.5q-151 0 -232 81l112 112q46 -41 120 -41q67 0 97.5 40.5t30.5 134.5v237h-191v151z" />
    <glyph glyph-name="K" unicode="K" horiz-adv-x="728" 
d="M724 0h-212l-184 260l-71 -84v-176h-177v699h177v-293l235 293h211l-266 -311z" />
    <glyph glyph-name="L" unicode="L" horiz-adv-x="641" 
d="M68 0v699h175v-548h346v-151h-521z" />
    <glyph glyph-name="M" unicode="M" horiz-adv-x="877" 
d="M608 699h189v-699h-178v423h-3l-175 -305h-6l-173 305h-3v-423h-179v699h189l168 -292h3z" />
    <glyph glyph-name="N" unicode="N" horiz-adv-x="805" 
d="M549 699h176v-699h-176l-289 409h-4v-409h-176v699h176l290 -421h3v421z" />
    <glyph glyph-name="O" unicode="O" horiz-adv-x="867" 
d="M431 714q168 0 276 -104t108 -263q0 -155 -107 -259t-276 -104q-167 0 -275.5 104.5t-108.5 258.5q0 159 109 263t274 104zM432 140q96 0 151.5 57.5t55.5 150.5q0 90 -56.5 150t-151.5 60q-96 0 -151.5 -59t-55.5 -151q0 -93 56 -150.5t152 -57.5z" />
    <glyph glyph-name="P" unicode="P" horiz-adv-x="700" 
d="M68 699h347q121 0 191 -64.5t70 -184.5q0 -126 -67.5 -188.5t-193.5 -62.5h-172v-199h-175v699zM402 350q98 0 98 100q0 47 -26 72.5t-72 25.5h-159v-198h159z" />
    <glyph glyph-name="Q" unicode="Q" horiz-adv-x="873" 
d="M817 348q0 -107 -53.5 -193t-146.5 -131l92 -184h-205l-61 145h-9q-167 0 -275.5 104.5t-108.5 258.5q0 158 109 262.5t274 104.5q168 0 276 -104.5t108 -262.5zM434 141q96 0 151.5 57.5t55.5 150.5q0 89 -56.5 149.5t-151.5 60.5q-96 0 -151.5 -59t-55.5 -151
q0 -93 56 -150.5t152 -57.5z" />
    <glyph glyph-name="R" unicode="R" horiz-adv-x="737" 
d="M686 450q0 -176 -132 -229l132 -221h-199l-111 199h-121v-199h-175v699h345q121 0 191 -64.5t70 -184.5zM255 548v-198h157q98 0 98 100q0 47 -26.5 72.5t-71.5 25.5h-157z" />
    <glyph glyph-name="S" unicode="S" horiz-adv-x="719" 
d="M384 435q149 -17 217 -71t68 -152q0 -105 -84 -166.5t-236 -61.5q-91 0 -172.5 26t-126.5 78l109 112q72 -63 190 -63q71 0 107.5 20t36.5 51q0 61 -128 73l-28 3q-142 14 -202.5 62.5t-60.5 159.5q0 97 79.5 153t218.5 56q164 0 274 -91l-115 -113q-29 22 -74.5 37
t-84.5 15q-56 0 -88.5 -16t-32.5 -42q0 -28 19.5 -42.5t84.5 -23.5z" />
    <glyph glyph-name="T" unicode="T" horiz-adv-x="664" 
d="M36 699h595v-151h-210v-548h-176v548h-209v151z" />
    <glyph glyph-name="U" unicode="U" horiz-adv-x="800" 
d="M542 699h178v-365q0 -157 -84 -253t-236 -96q-153 0 -236.5 96t-83.5 253v365h178l1 -365q0 -105 34 -151t107 -46q142 0 142 197v365z" />
    <glyph glyph-name="V" unicode="V" horiz-adv-x="770" 
d="M562 699h196l-274 -699h-199l-274 699h200l140 -396l34 -125h3l34 124z" />
    <glyph glyph-name="W" unicode="W" horiz-adv-x="1097" 
d="M880 699h195l-221 -699h-194l-107 350h-3l-106 -350h-196l-219 699h193l136 -453h3l137 453h107l136 -453h3z" />
    <glyph glyph-name="X" unicode="X" horiz-adv-x="701" 
d="M489 0l-137 221h-3l-135 -221h-204l226 353v5l-218 341h208l123 -209h3l123 209h208l-219 -342v-4l227 -353h-202z" />
    <glyph glyph-name="Y" unicode="Y" horiz-adv-x="726" 
d="M488 699h217l-255 -454v-245h-176v246l-254 453h217l124 -258h4z" />
    <glyph glyph-name="Z" unicode="Z" horiz-adv-x="649" 
d="M279 154v-3h320v-151h-549l1 149l319 394v5h-320v151h549l-1 -151z" />
    <glyph glyph-name="bracketleft" unicode="[" horiz-adv-x="421" 
d="M97 787h299v-141h-133v-691h133v-141h-299v973z" />
    <glyph glyph-name="backslash" unicode="\" horiz-adv-x="404" 
d="M154 776l249 -930l-140 -40l-252 935z" />
    <glyph glyph-name="bracketright" unicode="]" horiz-adv-x="396" 
d="M340 787v-973h-299v141h133v691h-133v141h299z" />
    <glyph glyph-name="asciicircum" unicode="^" horiz-adv-x="583" 
d="M384 292l-91 190h-3l-91 -190h-167l188 407h143l188 -407h-167z" />
    <glyph glyph-name="underscore" unicode="_" horiz-adv-x="540" 
d="M31 -139v139h466v-139h-466z" />
    <glyph glyph-name="grave" unicode="`" horiz-adv-x="366" 
d="M227 750l126 -172h-175l-179 172h228z" />
    <glyph glyph-name="a" unicode="a" horiz-adv-x="647" 
d="M318 110q92 0 92 91q-48 4 -93 4q-78 0 -78 -43q0 -22 19.5 -37t59.5 -15zM315 512q141 0 206 -70.5t65 -194.5v-247h-154l-22 59h-2q-39 -74 -134 -74q-104 0 -158.5 43t-54.5 119q0 70 55 103.5t175 33.5l118 -4q0 35 -25 56t-69 21q-65 0 -102 -41l-150 70
q39 59 106 92.5t146 33.5z" />
    <glyph glyph-name="b" unicode="b" horiz-adv-x="671" 
d="M246 250q0 -56 31 -86.5t73 -30.5q36 0 65.5 32.5t29.5 84.5q0 46 -30.5 77t-69.5 31q-40 0 -69.5 -33t-29.5 -75zM70 657l175 42v-257h4q48 69 140 69q96 0 164 -67.5t68 -193.5q0 -122 -58.5 -193.5t-176.5 -71.5q-102 0 -139 73h-4l-19 -58h-154v657z" />
    <glyph glyph-name="c" unicode="c" horiz-adv-x="589" 
d="M407 182l154 -72q-36 -55 -98 -90t-141 -35q-108 0 -190 76.5t-82 186.5q0 109 82 186.5t190 77.5q74 0 135.5 -32t98.5 -87l-148 -82q-29 47 -82 47q-42 0 -71 -32.5t-29 -77.5q0 -43 27 -79t68 -36q53 0 86 49z" />
    <glyph glyph-name="d" unicode="d" horiz-adv-x="669" 
d="M425 250q0 42 -29.5 75t-69.5 33q-39 0 -69.5 -31t-30.5 -77q0 -52 29.5 -84.5t65.5 -32.5q42 0 73 30.5t31 86.5zM601 699v-699h-154l-19 58h-4q-36 -73 -139 -73q-118 0 -176.5 71.5t-58.5 193.5q0 126 68 193.5t164 67.5q99 0 140 -69h4v215z" />
    <glyph glyph-name="e" unicode="e" horiz-adv-x="629" 
d="M590 231v-21h-368q25 -78 88 -78q52 0 91 47l149 -70q-35 -55 -97.5 -90t-140.5 -35q-108 0 -190 76.5t-82 186.5q0 108 82 186t190 78q124 0 198.5 -77.5t79.5 -202.5zM224 289h176q-27 68 -84 68q-68 0 -92 -68z" />
    <glyph glyph-name="f" unicode="f" horiz-adv-x="401" 
d="M334 559q-44 0 -61.5 -11.5t-17.5 -37.5l-1 -15h87v-138h-87v-357h-175v357h-49v138h49l1 15q0 104 53.5 152t170.5 48q31 0 67 -8v-147q-24 4 -37 4z" />
    <glyph glyph-name="g" unicode="g" horiz-adv-x="663" 
d="M451 495h150v-450q0 -104 -25.5 -162.5t-95 -88.5t-197.5 -30q-137 0 -215 45l43 148q79 -42 170 -42q79 0 111.5 30.5t32.5 105.5v7h-5q-16 -38 -53.5 -56t-81.5 -18q-118 0 -176.5 72.5t-58.5 195.5q0 126 68.5 192t166.5 66q91 0 128 -66h4zM321 131q42 0 73 30.5
t31 87.5q0 42 -29.5 74.5t-69.5 32.5q-38 0 -69 -31t-31 -76q0 -53 29 -85.5t66 -32.5z" />
    <glyph glyph-name="h" unicode="h" horiz-adv-x="690" 
d="M385 511q235 0 235 -260v-251h-176v251q0 52 -21.5 79t-77.5 27q-45 0 -72 -31.5t-27 -74.5l-1 -251h-175v657l175 42v-257h4q19 35 56.5 52t79.5 17z" />
    <glyph glyph-name="i" unicode="i" horiz-adv-x="314" 
d="M70 0v495h174v-495h-174zM157 556q-39 0 -66 27.5t-27 65.5t27 65.5t66 27.5q38 0 65.5 -27.5t27.5 -65.5t-27.5 -65.5t-65.5 -27.5z" />
    <glyph glyph-name="j" unicode="j" horiz-adv-x="314" 
d="M70 -229v724h174v-682zM157 556q-39 0 -66 27.5t-27 65.5t27 65.5t66 27.5q38 0 65.5 -27.5t27.5 -65.5t-27.5 -65.5t-65.5 -27.5z" />
    <glyph glyph-name="k" unicode="k" horiz-adv-x="632" 
d="M602 0h-193l-97 190l-65 -71v-119h-177v657l177 42v-373l138 169h211l-170 -183z" />
    <glyph glyph-name="l" unicode="l" horiz-adv-x="314" 
d="M70 657l176 42v-699h-176v657z" />
    <glyph glyph-name="m" unicode="m" horiz-adv-x="993" 
d="M716 510q207 0 207 -260v-250h-175v250q0 108 -80 108q-85 0 -85 -107v-251h-174v250q0 108 -81 108q-82 0 -82 -108v-250h-176v495h154l22 -54h4q17 32 57.5 50.5t82.5 18.5q55 0 88.5 -16t59.5 -56h4q49 72 174 72z" />
    <glyph glyph-name="n" unicode="n" horiz-adv-x="689" 
d="M385 510q234 0 234 -261v-249h-175v249q0 108 -100 108q-45 0 -72.5 -32.5t-27.5 -75.5v-249h-174v495h148l22 -55h5q42 70 140 70z" />
    <glyph glyph-name="o" unicode="o" horiz-adv-x="651" 
d="M325 511q114 0 195 -77t81 -186t-81 -186.5t-195 -77.5t-194.5 77.5t-80.5 186.5t80.5 186t194.5 77zM325 132q41 0 70.5 33t29.5 80q0 46 -29.5 79t-70.5 33t-70.5 -33t-29.5 -79q0 -47 29.5 -80t70.5 -33z" />
    <glyph glyph-name="p" unicode="p" horiz-adv-x="671" 
d="M348 356q-42 0 -72.5 -28t-30.5 -84q0 -42 30 -77t70 -35q37 0 68.5 33t31.5 79q0 51 -30 81.5t-67 30.5zM245 -163l-175 -42v700h154l21 -59h3q32 74 138 74q113 0 174 -73t61 -193q0 -122 -63.5 -191.5t-171.5 -69.5q-43 0 -79.5 18t-55.5 51h-6v-215z" />
    <glyph glyph-name="q" unicode="q" horiz-adv-x="671" 
d="M601 -163l-175 -41v257h-4q-48 -69 -140 -69q-96 0 -164 67.5t-68 193.5q0 122 58.5 193.5t176.5 71.5q103 0 139 -73h4l19 58h154v-658zM425 245q0 56 -31 86.5t-73 30.5q-36 0 -65.5 -32.5t-29.5 -84.5q0 -46 30.5 -77t69.5 -31q40 0 69.5 33t29.5 75z" />
    <glyph glyph-name="r" unicode="r" horiz-adv-x="445" 
d="M360 510q28 0 62 -11v-176q-37 21 -82 21q-46 0 -70.5 -25.5t-24.5 -71.5v-247h-175v495h147l24 -55h4q40 70 115 70z" />
    <glyph glyph-name="s" unicode="s" horiz-adv-x="560" 
d="M333 297q100 -21 140.5 -51.5t40.5 -94.5q0 -68 -60.5 -116t-179.5 -48q-69 0 -141 32t-102 75l127 86q20 -19 55 -32.5t64 -13.5q26 0 39 8.5t13 19.5q0 23 -55 34l-36 7q-171 31 -171 147q0 74 63 118.5t161 44.5q61 0 117.5 -25t96.5 -73l-130 -88q-43 33 -94 33
q-40 0 -40 -22q0 -20 40 -29z" />
    <glyph glyph-name="t" unicode="t" horiz-adv-x="400" 
d="M368 495v-138h-84v-357h-176v357h-78v138h78v129l176 42v-171h84z" />
    <glyph glyph-name="u" unicode="u" 
d="M292 -16q-97 0 -165.5 67.5t-68.5 193.5v250h176v-250q0 -49 25.5 -80.5t73.5 -31.5q44 0 71.5 34t27.5 78l1 250h175v-495h-149l-23 53h-5q-19 -32 -58 -50.5t-81 -18.5z" />
    <glyph glyph-name="v" unicode="v" horiz-adv-x="597" 
d="M410 495h182l-214 -495h-162l-211 495h186l86 -243l20 -74h3l22 75z" />
    <glyph glyph-name="w" unicode="w" horiz-adv-x="836" 
d="M654 495h177l-186 -495h-164l-60 186h-3l-61 -186h-165l-187 495h181l66 -236l21 -74h3l24 74l73 235h98l70 -235l23 -74h3l21 74z" />
    <glyph glyph-name="x" unicode="x" horiz-adv-x="628" 
d="M404 0l-88 140h-3l-88 -140h-206l187 251v3l-179 241h205l81 -129h3l81 129h205l-179 -241v-3l186 -251h-205z" />
    <glyph glyph-name="y" unicode="y" horiz-adv-x="632" 
d="M433 495h194l-311 -711h-174l89 217l-226 494h193l116 -300h2z" />
    <glyph glyph-name="z" unicode="z" horiz-adv-x="587" 
d="M288 150h249v-150h-487l1 139l240 205v2h-235v149h473l-1 -139l-240 -204v-2z" />
    <glyph glyph-name="braceleft" unicode="{" horiz-adv-x="514" 
d="M322 30q0 -63 26.5 -84.5t111.5 -21.5v-151q-161 0 -232 48.5t-71 148.5v142q0 59 -26 89t-67 30h-18v137h18q42 0 67.5 27.5t25.5 85.5v120q0 216 303 216l-1 -151q-84 0 -109.5 -20t-25.5 -78l-2 -111q0 -130 -97 -157v-3q19 -6 33 -14.5t30 -25t25 -46t9 -69.5v-112z
" />
    <glyph glyph-name="bar" unicode="|" horiz-adv-x="335" 
d="M80 729h175v-972h-175v972z" />
    <glyph glyph-name="braceright" unicode="}" horiz-adv-x="467" 
d="M162 30v112q0 76 27.5 109t69.5 46v3q-97 27 -97 157v111q0 58 -27 78t-111 20l-1 151q304 0 304 -216v-120q0 -58 25.5 -85.5t67.5 -27.5h18v-137h-18q-41 0 -67 -30t-26 -89v-142q0 -100 -71 -148.5t-232 -48.5v151q85 0 111.5 21.5t26.5 84.5z" />
    <glyph glyph-name="asciitilde" unicode="~" horiz-adv-x="467" 
d="M177 391q38 0 93.5 -19t86.5 -19q25 0 51.5 10.5t41.5 20.5l14 11v-112q-6 -6 -16.5 -14.5t-40 -22.5t-57.5 -14q-38 0 -93.5 19t-86.5 19q-25 0 -51.5 -10.5t-40.5 -21.5l-15 -10v113q6 6 16.5 14t40 22t57.5 14z" />
    <glyph glyph-name="exclamdown" unicode="&#xa1;" horiz-adv-x="283" 
d="M205 210l20 -331h-184l22 331h142zM136 426q37 0 63 -21t26 -50t-26 -49.5t-63 -20.5t-63 20.5t-26 49.5t26 50t63 21z" />
    <glyph glyph-name="cent" unicode="&#xa2;" horiz-adv-x="579" 
d="M553 113q-33 -50 -88.5 -83.5t-124.5 -39.5v-88h-57v88q-99 12 -170 86t-71 175t70.5 176t170.5 87v87h57v-87q135 -11 208 -118l-148 -82q-22 36 -60 45v-219q33 10 59 45zM218 251q0 -34 18 -65t47 -43v212q-29 -12 -47 -40.5t-18 -63.5z" />
    <glyph glyph-name="sterling" unicode="&#xa3;" horiz-adv-x="640" 
d="M313 139h310v-139h-565v140q6 1 15.5 2.5t33.5 9.5t43 19.5t34 32.5t15 48q0 18 -4 36h-101v139h59q-15 48 -15 78q0 100 89.5 155t220.5 55q39 0 76 -6.5t54 -13.5l18 -7v-142q-67 32 -149 32q-65 0 -98 -19t-33 -69q0 -26 11 -63h200v-139h-154q5 -15 5 -35
q0 -69 -65 -108v-6z" />
    <glyph glyph-name="currency" unicode="&#xa4;" horiz-adv-x="540" 
d="M486 254l-98 -98l-58 59q-31 -11 -63 -11t-62 11l-59 -59l-98 98l56 53q-15 31 -15 68q0 35 14 66l-55 54l98 99l58 -60q30 11 63 11t64 -11l57 60l98 -99l-55 -54q14 -31 14 -66q0 -36 -14 -67zM267 311q28 0 47 19t19 45t-19 44.5t-47 18.5t-47 -18.5t-19 -44.5t19 -45
t47 -19z" />
    <glyph glyph-name="yen" unicode="&#xa5;" horiz-adv-x="750" 
d="M717 699l-217 -389h118v-69h-155v-50h155v-70h-155v-121h-175v121h-155v70h155v50h-155v69h119l-218 389h217l124 -245h3l123 245h216z" />
    <glyph glyph-name="brokenbar" unicode="&#xa6;" horiz-adv-x="341" 
d="M80 729h176v-429h-176v429zM80 -241v429h176v-429h-176z" />
    <glyph glyph-name="section" unicode="&#xa7;" horiz-adv-x="689" 
d="M590 61v-6q61 -50 61 -148q0 -209 -312 -209q-164 0 -264 69l46 144q41 -27 105.5 -43.5t112.5 -16.5q75 0 105 14t30 43q0 27 -16 41.5t-57 20.5l-134 16q-119 13 -171 64t-52 150q0 56 15.5 89t49.5 57v4q-34 25 -49.5 56.5t-15.5 94.5q0 209 313 209q162 0 264 -69
l-47 -144q-41 27 -105 43.5t-112 16.5q-75 0 -105 -14t-30 -43q0 -27 15.5 -41.5t56.5 -20.5l135 -16q118 -13 170 -64t52 -150q0 -98 -61 -147zM350 133q125 0 125 70q0 72 -130 72q-124 0 -124 -70q0 -72 129 -72z" />
    <glyph glyph-name="dieresis" unicode="&#xa8;" horiz-adv-x="506" 
d="M133 566q-39 0 -66 27.5t-27 65.5t27 65.5t66 27.5q38 0 65.5 -27.5t27.5 -65.5t-27.5 -65.5t-65.5 -27.5zM378 566q-39 0 -66 27.5t-27 65.5t27 65.5t66 27.5q38 0 65.5 -27.5t27.5 -65.5t-27.5 -65.5t-65.5 -27.5z" />
    <glyph glyph-name="copyright" unicode="&#xa9;" horiz-adv-x="857" 
d="M426 459q-52 0 -82.5 -32.5t-30.5 -83.5q0 -50 30.5 -82t82.5 -32q48 0 80 30l71 -50q-59 -61 -151 -61q-86 0 -146.5 56.5t-60.5 138.5t60.5 140t146.5 58q98 0 158 -73l-71 -50q-30 41 -87 41zM424 704q170 0 270.5 -97.5t101.5 -259.5q0 -163 -103 -263.5t-272 -100.5
t-269.5 98t-101.5 261q0 163 102 262.5t272 99.5zM424 69q126 0 199 77t73 198q0 122 -74 198.5t-201 76.5q-125 0 -198 -77t-73 -199q0 -121 74 -197.5t200 -76.5z" />
    <glyph glyph-name="ordfeminine" unicode="&#xaa;" horiz-adv-x="474" 
d="M229 713q100 0 146.5 -50t46.5 -138l-1 -176h-109l-16 42h-1q-15 -29 -38.5 -41t-64.5 -12q-144 0 -144 116q0 49 39 73t125 24l84 -3q0 25 -18 40t-49 15q-47 0 -73 -29l-106 50q27 42 74.5 65.5t104.5 23.5zM231 427q65 0 65 65q-34 3 -66 3q-56 0 -56 -30
q0 -38 57 -38z" />
    <glyph glyph-name="guillemotleft" unicode="&#xab;" horiz-adv-x="496" 
d="M354 495l-120 -229l116 -231h-184l-114 231l119 229h183zM634 495l-120 -229l116 -231h-184l-114 231l119 229h183z" />
    <glyph glyph-name="logicalnot" unicode="&#xac;" horiz-adv-x="577" 
d="M45 436h482v-260h-139v121h-343v139z" />
    <glyph glyph-name="registered" unicode="&#xae;" horiz-adv-x="857" 
d="M610 410q0 -84 -74 -114l66 -140h-102l-61 129h-88v-129h-95v379h221q60 0 96.5 -34t36.5 -91zM470 367q19 0 31.5 11.5t12.5 31.5t-12.5 31.5t-31.5 11.5h-119v-86h119zM426 708q170 0 271 -98.5t102 -261.5q0 -164 -102.5 -265t-273.5 -101q-170 0 -271 98.5
t-102 262.5q0 164 102.5 264.5t273.5 100.5zM426 68q126 0 200 77.5t74 199.5q0 123 -74.5 199.5t-201.5 76.5t-200.5 -77t-73.5 -200q0 -122 74.5 -199t201.5 -77z" />
    <glyph glyph-name="degree" unicode="&#xb0;" horiz-adv-x="363" 
d="M391 535q0 -70 -52 -120t-126 -50t-126 50t-52 120q0 71 52.5 121t125.5 50t125.5 -50t52.5 -121zM147 535q0 -26 19.5 -44.5t46.5 -18.5q28 0 47.5 18.5t19.5 44.5t-19.5 45t-47.5 19q-27 0 -46.5 -19t-19.5 -45z" />
    <glyph glyph-name="plusminus" unicode="&#xb1;" horiz-adv-x="594" 
d="M65 21v139h480v-139h-480zM375 530h171v-139h-171v-171h-138v171h-171v139h171v170h138v-170z" />
    <glyph glyph-name="twosuperior" unicode="&#xb2;" horiz-adv-x="301" 
d="M191 474h87v-84h-227v78l17 13q73 55 94 75.5t21 43.5q0 28 -31 28q-26 0 -52 -29l-7 -9l-60 67l7 7q50 48 121 48q53 0 85 -29t32 -77q0 -37 -18.5 -63.5t-68.5 -66.5v-2z" />
    <glyph glyph-name="threesuperior" unicode="&#xb3;" horiz-adv-x="290" 
d="M203 572q61 -21 61 -87q0 -55 -33.5 -80.5t-106.5 -25.5q-53 0 -95 18l-10 4l36 81l10 -5q22 -12 59 -12q21 0 31.5 3.5t12 7t1.5 10.5t-2.5 11t-21 8.5t-53.5 4.5h-9l-9 59l48 45v2h-83v84h213l-1 -78l-48 -47v-3z" />
    <glyph glyph-name="acute" unicode="&#xb4;" horiz-adv-x="357" 
d="M-1 578l126 172h228l-179 -172h-175z" />
    <glyph glyph-name="mu" unicode="&#xb5;" horiz-adv-x="673" 
d="M611 244q0 -260 -235 -260q-42 0 -79.5 17t-56.5 52h-4v-218l-175 -39v699h175l1 -251q0 -43 27 -74.5t72 -31.5q56 0 77.5 27t21.5 79v251h176v-251z" />
    <glyph glyph-name="paragraph" unicode="&#xb6;" horiz-adv-x="554" 
d="M505 611h-63v-611h-94v611h-64v-611h-95v376q-64 2 -104.5 50t-40.5 113q0 69 46 114.5t114 45.5h301v-88z" />
    <glyph glyph-name="periodcentered" unicode="&#xb7;" horiz-adv-x="333" 
d="M159 203q-39 0 -66 27.5t-27 65.5t27 65.5t66 27.5q38 0 65.5 -27.5t27.5 -65.5t-27.5 -65.5t-65.5 -27.5z" />
    <glyph glyph-name="cedilla" unicode="&#xb8;" horiz-adv-x="331" 
d="M180 -43q60 0 93.5 -29t33.5 -87q0 -66 -43.5 -103t-121.5 -37q-24 0 -52 8t-44 16l-15 8v101q48 -37 111 -37q41 0 54.5 10t13.5 32q0 37 -70 37h-63l2 153h101v-72z" />
    <glyph glyph-name="onesuperior" unicode="&#xb9;" horiz-adv-x="285" 
d="M188 699v-230h54v-84h-204v84h55v136l-55 -11v85l92 20h58z" />
    <glyph glyph-name="ordmasculine" unicode="&#xba;" horiz-adv-x="475" 
d="M232 708q80 0 137 -54.5t57 -131.5t-57 -131.5t-137 -54.5t-137 54.5t-57 131.5t57 131.5t137 54.5zM232 441q29 0 50 23t21 56t-21 56t-50 23t-49.5 -23t-20.5 -56t20.5 -56t49.5 -23z" />
    <glyph glyph-name="guillemotright" unicode="&#xbb;" horiz-adv-x="631" 
d="M420 266l-120 229h183l119 -229l-114 -231h-184zM140 266l-120 229h183l119 -229l-114 -231h-184z" />
    <glyph glyph-name="onequarter" unicode="&#xbc;" horiz-adv-x="778" 
d="M540 713l81 -48l-415 -680l-75 46zM200 701v-230h54v-85h-204v85h55v135l-55 -11v85l93 20zM726 134v-78h-37v-56h-90v56h-144l2 75l111 184h108l-110 -179v-2h33v34h90v-34h37z" />
    <glyph glyph-name="onehalf" unicode="&#xbd;" horiz-adv-x="776" 
d="M200 712v-230h54v-84h-203v84h54v136l-54 -11v85l92 20h57zM605 85h86v-85h-227v79l17 13q73 55 94 75.5t21 43.5q0 27 -31 27q-27 0 -51 -28l-8 -10l-60 68l7 7q51 48 121 48q53 0 85 -29t32 -78q0 -36 -18.5 -63t-67.5 -66v-2zM540 713l81 -48l-415 -680l-75 46z" />
    <glyph glyph-name="threequarters" unicode="&#xbe;" horiz-adv-x="772" 
d="M238 577q61 -22 61 -87q0 -55 -33.5 -80.5t-106.5 -25.5q-48 0 -95 18l-10 4l35 81l10 -5q24 -12 60 -12q20 0 30.5 3.5t12 7t1.5 10.5t-2.5 11t-21 8.5t-53.5 4.5h-9l-9 59l48 44v3h-82v84h212v-78l-48 -47v-3zM714 135v-79h-37v-56h-90v56h-144l1 76l112 183h108
l-110 -179v-1h33v34h90v-34h37zM540 713l81 -48l-415 -680l-75 46z" />
    <glyph glyph-name="questiondown" unicode="&#xbf;" horiz-adv-x="501" 
d="M273 -297q-129 0 -194 58t-65 155q0 56 19 98t46 63t53.5 33.5t45.5 15.5l19 2v64h176v-160q-53 -3 -82 -6q-102 -10 -102 -94q0 -78 117 -78q47 0 89 13t61 27l19 13v-158q-8 -5 -23 -12.5t-67.5 -20.5t-111.5 -13zM289 433q39 0 66 -27.5t27 -65.5t-27 -65.5t-66 -27.5
q-38 0 -65.5 27.5t-27.5 65.5t27.5 65.5t65.5 27.5z" />
    <glyph glyph-name="Agrave" unicode="&#xc0;" horiz-adv-x="761" 
d="M555 0l-45 125h-260l-44 -125h-196l273 699h195l273 -699h-196zM302 267h157l-78 212h-2zM304 954l126 -172h-175l-179 172h228z" />
    <glyph glyph-name="Aacute" unicode="&#xc1;" horiz-adv-x="761" 
d="M555 0l-45 125h-260l-44 -125h-196l273 699h195l273 -699h-196zM302 267h157l-78 212h-2zM283 782l126 172h228l-179 -172h-175z" />
    <glyph glyph-name="Acircumflex" unicode="&#xc2;" horiz-adv-x="761" 
d="M555 0l-45 125h-260l-44 -125h-196l273 699h195l273 -699h-196zM302 267h157l-78 212h-2zM285 769h-184v15l180 179h177l180 -179v-15h-184l-84 91z" />
    <glyph glyph-name="Atilde" unicode="&#xc3;" horiz-adv-x="761" 
d="M555 0l-45 125h-260l-44 -125h-196l273 699h195l273 -699h-196zM302 267h157l-78 212h-2zM284 949q38 0 93.5 -19t86.5 -19q25 0 51.5 10.5t40.5 20.5l15 11v-118q-6 -6 -16.5 -14.5t-40 -22.5t-57.5 -14q-38 0 -93.5 19t-86.5 19q-25 0 -51.5 -10.5t-41.5 -21.5l-14 -10
v119q6 6 16.5 14t40 22t57.5 14z" />
    <glyph glyph-name="Adieresis" unicode="&#xc4;" horiz-adv-x="761" 
d="M555 0l-45 125h-260l-44 -125h-196l273 699h195l273 -699h-196zM302 267h157l-78 212h-2zM261 770q-39 0 -66 27.5t-27 65.5t27 65.5t66 27.5q38 0 65.5 -27.5t27.5 -65.5t-27.5 -65.5t-65.5 -27.5zM506 770q-39 0 -66 27.5t-27 65.5t27 65.5t66 27.5q38 0 65.5 -27.5
t27.5 -65.5t-27.5 -65.5t-65.5 -27.5z" />
    <glyph glyph-name="Aring" unicode="&#xc5;" horiz-adv-x="762" 
d="M500 644l252 -644h-196l-45 125h-260l-46 -125h-195l250 641q-44 46 -44 106q0 64 47.5 110t114.5 46t115 -45.5t48 -110.5q0 -59 -41 -103zM379 792q-20 0 -33.5 -13t-13.5 -32t13.5 -32t33.5 -13q19 0 32.5 13t13.5 32t-13.5 32t-32.5 13zM302 267h157l-77 212h-3z" />
    <glyph glyph-name="AE" unicode="&#xc6;" horiz-adv-x="944" 
d="M693 150h201v-150h-337l-46 125h-260l-45 -125h-196l273 699h469v-151h-214l48 -123h215v-151h-156zM304 269h155l-76 210h-3z" />
    <glyph glyph-name="Ccedilla" unicode="&#xc7;" horiz-adv-x="769" 
d="M432 141q106 0 164 72l138 -97q-95 -112 -256 -129v-36q60 0 93.5 -29t33.5 -88q0 -65 -43 -102t-121 -37q-25 0 -53 8t-44 16l-15 8v101q48 -37 111 -37q41 0 54.5 9.5t13.5 31.5q0 37 -70 37h-63l2 120q-145 17 -237 116t-92 244q0 161 110.5 264t274.5 103
q90 0 168 -34.5t133 -97.5l-138 -100q-62 75 -165 75q-95 0 -150.5 -58.5t-55.5 -150.5q0 -93 55.5 -151t151.5 -58z" />
    <glyph glyph-name="Egrave" unicode="&#xc8;" horiz-adv-x="688" 
d="M633 548h-371v-124h327v-138h-327v-135h371v-151h-547v699h547v-151zM337 954l126 -172h-175l-179 172h228z" />
    <glyph glyph-name="Eacute" unicode="&#xc9;" horiz-adv-x="700" 
d="M632 548h-371v-124h327v-138h-327v-135h371v-151h-547v699h547v-151zM269 782l126 172h228l-179 -172h-175z" />
    <glyph glyph-name="Ecircumflex" unicode="&#xca;" horiz-adv-x="690" 
d="M631 548h-371v-124h327v-138h-327v-135h371v-151h-547v699h547v-151zM274 769h-184v15l180 179h177l180 -179v-15h-184l-84 91z" />
    <glyph glyph-name="Edieresis" unicode="&#xcb;" horiz-adv-x="715" 
d="M644 548h-371v-124h327v-138h-327v-135h371v-151h-547v699h547v-151zM248 770q-39 0 -66 27.5t-27 65.5t27 65.5t66 27.5q38 0 65.5 -27.5t27.5 -65.5t-27.5 -65.5t-65.5 -27.5zM493 770q-39 0 -66 27.5t-27 65.5t27 65.5t66 27.5q38 0 65.5 -27.5t27.5 -65.5
t-27.5 -65.5t-65.5 -27.5z" />
    <glyph glyph-name="Igrave" unicode="&#xcc;" horiz-adv-x="336" 
d="M81 699h175v-699h-175v699zM123 954l126 -172h-175l-179 172h228z" />
    <glyph glyph-name="Iacute" unicode="&#xcd;" horiz-adv-x="343" 
d="M78 699h175v-699h-175v699zM77 782l126 172h228l-179 -172h-175z" />
    <glyph glyph-name="Icircumflex" unicode="&#xce;" horiz-adv-x="296" 
d="M60 699h175v-699h-175v699zM62 769h-184v15l180 179h177l180 -179v-15h-184l-84 91z" />
    <glyph glyph-name="Idieresis" unicode="&#xcf;" horiz-adv-x="352" 
d="M87 699h175v-699h-175v699zM51 772q-39 0 -66 27.5t-27 65.5t27 65.5t66 27.5q38 0 65.5 -27.5t27.5 -65.5t-27.5 -65.5t-65.5 -27.5zM296 772q-39 0 -66 27.5t-27 65.5t27 65.5t66 27.5q38 0 65.5 -27.5t27.5 -65.5t-27.5 -65.5t-65.5 -27.5z" />
    <glyph glyph-name="Eth" unicode="&#xd0;" horiz-adv-x="889" 
d="M430 699q204 0 307.5 -84.5t103.5 -265.5q0 -349 -411 -349h-280v280h-104v139h104v280h280zM430 152q120 0 177.5 46t57.5 152q0 112 -56.5 155t-178.5 43h-105v-129h142v-139h-142v-128h105z" />
    <glyph glyph-name="Ntilde" unicode="&#xd1;" horiz-adv-x="805" 
d="M549 699h176v-699h-176l-289 409h-4v-409h-176v699h176l290 -421h3v421zM290 949q38 0 93.5 -19t86.5 -19q25 0 51.5 10.5t40.5 20.5l15 11v-118q-6 -6 -16.5 -14.5t-40 -22.5t-57.5 -14q-38 0 -93.5 19t-86.5 19q-25 0 -51.5 -10.5t-41.5 -21.5l-14 -10v119q6 6 16.5 14
t40 22t57.5 14z" />
    <glyph glyph-name="Ograve" unicode="&#xd2;" horiz-adv-x="867" 
d="M431 714q168 0 276 -104t108 -263q0 -155 -107 -259t-276 -104q-167 0 -275.5 104.5t-108.5 258.5q0 159 109 263t274 104zM432 140q96 0 151.5 57.5t55.5 150.5q0 90 -56.5 150t-151.5 60q-96 0 -151.5 -59t-55.5 -151q0 -93 56 -150.5t152 -57.5zM379 954l126 -172
h-175l-179 172h228z" />
    <glyph glyph-name="Oacute" unicode="&#xd3;" horiz-adv-x="867" 
d="M431 714q168 0 276 -104t108 -263q0 -155 -107 -259t-276 -104q-167 0 -275.5 104.5t-108.5 258.5q0 159 109 263t274 104zM432 140q96 0 151.5 57.5t55.5 150.5q0 90 -56.5 150t-151.5 60q-96 0 -151.5 -59t-55.5 -151q0 -93 56 -150.5t152 -57.5zM350 782l126 172h228
l-179 -172h-175z" />
    <glyph glyph-name="Ocircumflex" unicode="&#xd4;" horiz-adv-x="867" 
d="M431 714q168 0 276 -104t108 -263q0 -155 -107 -259t-276 -104q-167 0 -275.5 104.5t-108.5 258.5q0 159 109 263t274 104zM432 140q96 0 151.5 57.5t55.5 150.5q0 90 -56.5 150t-151.5 60q-96 0 -151.5 -59t-55.5 -151q0 -93 56 -150.5t152 -57.5zM350 769h-184v15
l180 179h177l180 -179v-15h-184l-84 91z" />
    <glyph glyph-name="Otilde" unicode="&#xd5;" horiz-adv-x="867" 
d="M431 714q168 0 276 -104t108 -263q0 -155 -107 -259t-276 -104q-167 0 -275.5 104.5t-108.5 258.5q0 159 109 263t274 104zM432 140q96 0 151.5 57.5t55.5 150.5q0 90 -56.5 150t-151.5 60q-96 0 -151.5 -59t-55.5 -151q0 -93 56 -150.5t152 -57.5zM349 949
q38 0 93.5 -19t86.5 -19q25 0 51.5 10.5t41.5 20.5l14 11v-118q-6 -6 -16.5 -14.5t-40 -22.5t-57.5 -14q-38 0 -93.5 19t-86.5 19q-25 0 -51.5 -10.5t-40.5 -21.5l-15 -10v119q6 6 16.5 14t40 22t57.5 14z" />
    <glyph glyph-name="Odieresis" unicode="&#xd6;" horiz-adv-x="867" 
d="M431 714q168 0 276 -104t108 -263q0 -155 -107 -259t-276 -104q-167 0 -275.5 104.5t-108.5 258.5q0 159 109 263t274 104zM432 140q96 0 151.5 57.5t55.5 150.5q0 90 -56.5 150t-151.5 60q-96 0 -151.5 -59t-55.5 -151q0 -93 56 -150.5t152 -57.5zM310 770
q-39 0 -66 27.5t-27 65.5t27 65.5t66 27.5q38 0 65.5 -27.5t27.5 -65.5t-27.5 -65.5t-65.5 -27.5zM555 770q-39 0 -66 27.5t-27 65.5t27 65.5t66 27.5q38 0 65.5 -27.5t27.5 -65.5t-27.5 -65.5t-65.5 -27.5z" />
    <glyph glyph-name="multiply" unicode="&#xd7;" horiz-adv-x="655" 
d="M406 299l191 -200h-168l-102 114l-102 -114h-171l194 200l-188 199l165 1l102 -114l102 114h168z" />
    <glyph glyph-name="Oslash" unicode="&#xd8;" horiz-adv-x="867" 
d="M739 578q78 -97 78 -230q0 -155 -107 -259t-276 -104q-126 0 -224 64l-70 -69l-78 78l66 65q-78 97 -78 225q0 159 109 263t274 104q128 0 224 -63l70 70l78 -78zM433 559q-96 0 -151.5 -59t-55.5 -151q0 -54 22 -101h4l285 284v3q-46 24 -104 24zM434 141
q96 0 151.5 57.5t55.5 150.5q0 56 -23 102h-4l-284 -282v-5q48 -23 104 -23z" />
    <glyph glyph-name="Ugrave" unicode="&#xd9;" horiz-adv-x="800" 
d="M542 699h178v-365q0 -157 -84 -253t-236 -96q-153 0 -236.5 96t-83.5 253v365h178l1 -365q0 -105 34 -151t107 -46q142 0 142 197v365zM360 954l126 -172h-175l-179 172h228z" />
    <glyph glyph-name="Uacute" unicode="&#xda;" horiz-adv-x="800" 
d="M542 699h178v-365q0 -157 -84 -253t-236 -96q-153 0 -236.5 96t-83.5 253v365h178l1 -365q0 -105 34 -151t107 -46q142 0 142 197v365zM317 782l126 172h228l-179 -172h-175z" />
    <glyph glyph-name="Ucircumflex" unicode="&#xdb;" horiz-adv-x="800" 
d="M542 699h178v-365q0 -157 -84 -253t-236 -96q-153 0 -236.5 96t-83.5 253v365h178l1 -365q0 -105 34 -151t107 -46q142 0 142 197v365zM317 769h-184v15l180 179h177l180 -179v-15h-184l-84 91z" />
    <glyph glyph-name="Udieresis" unicode="&#xdc;" horiz-adv-x="800" 
d="M542 699h178v-365q0 -157 -84 -253t-236 -96q-153 0 -236.5 96t-83.5 253v365h178l1 -365q0 -105 34 -151t107 -46q142 0 142 197v365zM275 770q-39 0 -66 27.5t-27 65.5t27 65.5t66 27.5q38 0 65.5 -27.5t27.5 -65.5t-27.5 -65.5t-65.5 -27.5zM520 770q-39 0 -66 27.5
t-27 65.5t27 65.5t66 27.5q38 0 65.5 -27.5t27.5 -65.5t-27.5 -65.5t-65.5 -27.5z" />
    <glyph glyph-name="Yacute" unicode="&#xdd;" horiz-adv-x="705" 
d="M488 699h217l-255 -454v-245h-176v246l-254 453h217l124 -258h4zM269 782l126 172h228l-179 -172h-175z" />
    <glyph glyph-name="Thorn" unicode="&#xde;" horiz-adv-x="667" 
d="M396 579q108 0 175.5 -63t67.5 -168t-67 -166.5t-176 -61.5h-155v-120h-176v699h176v-120h155zM383 271q34 0 57 20.5t23 56.5q0 37 -23 58.5t-57 21.5h-142v-157h142z" />
    <glyph glyph-name="germandbls" unicode="&#xdf;" horiz-adv-x="612" 
d="M468 382q8 0 21 -1t46 -10.5t58.5 -26t46.5 -52.5t21 -85q0 -97 -70.5 -153.5t-189.5 -56.5l-77 3v153q22 -3 49 -3q63 0 87 15.5t24 57.5q0 39 -31 57.5t-121 18.5v151q81 0 81 60q0 29 -20 47t-59 18q-44 0 -59.5 -19.5t-15.5 -75.5v-480h-176v520q0 105 62.5 156.5
t212.5 51.5q112 0 171 -48.5t59 -135.5q0 -36 -12.5 -65.5t-30 -45.5t-35 -27t-30.5 -15l-12 -4v-5z" />
    <glyph glyph-name="agrave" unicode="&#xe0;" horiz-adv-x="650" 
d="M318 110q92 0 92 91q-48 4 -93 4q-78 0 -78 -43q0 -22 19.5 -37t59.5 -15zM315 512q141 0 206 -70.5t65 -194.5v-247h-154l-22 59h-2q-39 -74 -134 -74q-104 0 -158.5 43t-54.5 119q0 70 55 103.5t175 33.5l118 -4q0 35 -25 56t-69 21q-65 0 -102 -41l-150 70
q39 59 106 92.5t146 33.5zM308 750l126 -172h-175l-179 172h228z" />
    <glyph glyph-name="aacute" unicode="&#xe1;" horiz-adv-x="652" 
d="M318 110q92 0 92 91q-48 4 -93 4q-78 0 -78 -43q0 -22 19.5 -37t59.5 -15zM315 512q141 0 206 -70.5t65 -194.5v-247h-154l-22 59h-2q-39 -74 -134 -74q-104 0 -158.5 43t-54.5 119q0 70 55 103.5t175 33.5l118 -4q0 35 -25 56t-69 21q-65 0 -102 -41l-150 70
q39 59 106 92.5t146 33.5zM267 578l126 172h228l-179 -172h-175z" />
    <glyph glyph-name="acircumflex" unicode="&#xe2;" horiz-adv-x="664" 
d="M330 110q92 0 92 91q-48 4 -93 4q-78 0 -78 -43q0 -22 19.5 -37t59.5 -15zM327 512q141 0 206 -70.5t65 -194.5v-247h-154l-22 59h-2q-39 -74 -134 -74q-104 0 -158.5 43t-54.5 119q0 70 55 103.5t175 33.5l118 -4q0 35 -25 56t-69 21q-65 0 -102 -41l-150 70
q39 59 106 92.5t146 33.5zM258 565h-184v15l180 179h177l180 -179v-15h-184l-84 91z" />
    <glyph glyph-name="atilde" unicode="&#xe3;" 
d="M318 110q92 0 92 91q-48 4 -93 4q-78 0 -78 -43q0 -22 19.5 -37t59.5 -15zM315 512q141 0 206 -70.5t65 -194.5v-247h-154l-22 59h-2q-39 -74 -134 -74q-104 0 -158.5 43t-54.5 119q0 70 55 103.5t175 33.5l118 -4q0 35 -25 56t-69 21q-65 0 -102 -41l-150 70
q39 59 106 92.5t146 33.5zM254 745q38 0 93.5 -19t86.5 -19q25 0 51.5 10.5t40.5 20.5l15 11v-118q-6 -6 -16.5 -14.5t-40 -22.5t-57.5 -14q-38 0 -93.5 19t-86.5 19q-25 0 -51.5 -10.5t-41.5 -21.5l-14 -10v119q6 6 16.5 14t40 22t57.5 14z" />
    <glyph glyph-name="adieresis" unicode="&#xe4;" horiz-adv-x="654" 
d="M318 110q92 0 92 91q-48 4 -93 4q-78 0 -78 -43q0 -22 19.5 -37t59.5 -15zM315 512q141 0 206 -70.5t65 -194.5v-247h-154l-22 59h-2q-39 -74 -134 -74q-104 0 -158.5 43t-54.5 119q0 70 55 103.5t175 33.5l118 -4q0 35 -25 56t-69 21q-65 0 -102 -41l-150 70
q39 59 106 92.5t146 33.5zM197 566q-39 0 -66 27.5t-27 65.5t27 65.5t66 27.5q38 0 65.5 -27.5t27.5 -65.5t-27.5 -65.5t-65.5 -27.5zM442 566q-39 0 -66 27.5t-27 65.5t27 65.5t66 27.5q38 0 65.5 -27.5t27.5 -65.5t-27.5 -65.5t-65.5 -27.5z" />
    <glyph glyph-name="aring" unicode="&#xe5;" 
d="M317 557q-62 0 -105.5 42t-43.5 101t43.5 101t105.5 42t105.5 -42t43.5 -101t-43.5 -101t-105.5 -42zM317 751q-22 0 -37.5 -15t-15.5 -36t15.5 -36t37.5 -15t37.5 15t15.5 36t-15.5 36t-37.5 15zM316 511q141 0 205.5 -70t64.5 -194v-247h-153l-23 59h-2
q-20 -40 -53.5 -57.5t-91.5 -17.5q-201 0 -201 163q0 70 54.5 103.5t174.5 33.5l119 -4q0 35 -25 56t-69 21q-67 0 -102 -41l-150 70q38 59 105 92t147 33zM318 110q92 0 92 91q-48 4 -93 4q-78 0 -78 -43q0 -22 19.5 -37t59.5 -15z" />
    <glyph glyph-name="ae" unicode="&#xe6;" horiz-adv-x="1001" 
d="M963 233v-21h-368q25 -78 88 -78q52 0 91 47l149 -70q-35 -55 -97.5 -90t-140.5 -35q-111 0 -193 79q-96 -79 -225 -79q-202 0 -202 162q0 71 54.5 104t175.5 33l118 -4q0 35 -25 56t-69 21q-65 0 -102 -41l-150 70q39 59 106 92.5t146 33.5q127 0 196 -61q75 61 170 61
q124 0 198.5 -77.5t79.5 -202.5zM322 112q91 0 91 91q-48 4 -93 4q-78 0 -78 -43q0 -23 19.5 -37.5t60.5 -14.5zM597 291h176q-27 68 -84 68q-68 0 -92 -68z" />
    <glyph glyph-name="ccedilla" unicode="&#xe7;" horiz-adv-x="594" 
d="M552 112q-66 -102 -190 -121l1 -34q59 0 92.5 -29t33.5 -87q0 -66 -43 -103t-121 -37q-25 0 -53 8t-44 16l-15 8v101q48 -37 111 -37q42 0 55.5 10t13.5 32q0 37 -71 37h-62l1 116q-92 19 -155.5 90t-63.5 167q0 109 82 186.5t190 77.5q73 0 134.5 -32t99.5 -87l-148 -82
q-29 47 -82 47q-42 0 -71 -32.5t-29 -77.5q0 -43 27 -78.5t68 -35.5q53 0 86 48z" />
    <glyph glyph-name="egrave" unicode="&#xe8;" horiz-adv-x="650" 
d="M606 231v-21h-368q25 -78 88 -78q52 0 91 47l149 -70q-35 -55 -97.5 -90t-140.5 -35q-108 0 -190 76.5t-82 186.5q0 108 82 186t190 78q124 0 198.5 -77.5t79.5 -202.5zM240 289h176q-27 68 -84 68q-68 0 -92 -68zM282 750l126 -172h-175l-179 172h228z" />
    <glyph glyph-name="eacute" unicode="&#xe9;" horiz-adv-x="650" 
d="M600 231v-21h-368q25 -78 88 -78q52 0 91 47l149 -70q-35 -55 -97.5 -90t-140.5 -35q-108 0 -190 76.5t-82 186.5q0 108 82 186t190 78q124 0 198.5 -77.5t79.5 -202.5zM234 289h176q-27 68 -84 68q-68 0 -92 -68zM241 578l126 172h228l-179 -172h-175z" />
    <glyph glyph-name="ecircumflex" unicode="&#xea;" horiz-adv-x="664" 
d="M614 231v-21h-368q25 -78 88 -78q52 0 91 47l149 -70q-35 -55 -97.5 -90t-140.5 -35q-108 0 -190 76.5t-82 186.5q0 108 82 186t190 78q124 0 198.5 -77.5t79.5 -202.5zM248 289h176q-27 68 -84 68q-68 0 -92 -68zM252 565h-184v15l180 179h177l180 -179v-15h-184l-84 91
z" />
    <glyph glyph-name="edieresis" unicode="&#xeb;" horiz-adv-x="650" 
d="M600 231v-21h-368q25 -78 88 -78q52 0 91 47l149 -70q-35 -55 -97.5 -90t-140.5 -35q-108 0 -190 76.5t-82 186.5q0 108 82 186t190 78q124 0 198.5 -77.5t79.5 -202.5zM234 289h176q-27 68 -84 68q-68 0 -92 -68zM205 566q-39 0 -66 27.5t-27 65.5t27 65.5t66 27.5
q38 0 65.5 -27.5t27.5 -65.5t-27.5 -65.5t-65.5 -27.5zM450 566q-39 0 -66 27.5t-27 65.5t27 65.5t66 27.5q38 0 65.5 -27.5t27.5 -65.5t-27.5 -65.5t-65.5 -27.5z" />
    <glyph glyph-name="igrave" unicode="&#xec;" horiz-adv-x="288" 
d="M58 0v495h174v-495h-174zM103 750l126 -172h-175l-179 172h228z" />
    <glyph glyph-name="iacute" unicode="&#xed;" horiz-adv-x="295" 
d="M58 0v495h174v-495h-174zM68 578l126 172h228l-179 -172h-175z" />
    <glyph glyph-name="icircumflex" unicode="&#xee;" horiz-adv-x="287" 
d="M58 0v495h174v-495h-174zM58 565h-184v15l180 179h177l180 -179v-15h-184l-84 91z" />
    <glyph glyph-name="idieresis" unicode="&#xef;" horiz-adv-x="290" 
d="M59 0v495h174v-495h-174zM24 566q-39 0 -66 27.5t-27 65.5t27 65.5t66 27.5q38 0 65.5 -27.5t27.5 -65.5t-27.5 -65.5t-65.5 -27.5zM269 566q-39 0 -66 27.5t-27 65.5t27 65.5t66 27.5q38 0 65.5 -27.5t27.5 -65.5t-27.5 -65.5t-65.5 -27.5z" />
    <glyph glyph-name="eth" unicode="&#xf0;" horiz-adv-x="644" 
d="M500 641q95 -88 95 -303q0 -183 -71.5 -269t-217.5 -86q-132 0 -200 63.5t-68 179.5q0 232 240 232q34 0 61.5 -7t43.5 -17t26.5 -20.5t14.5 -17.5l4 -7v50q0 61 -38 92l-47 -48h-116l76 77q-7 1 -22 1q-65 0 -131 -44l-81 128q33 21 50.5 30.5t62.5 23.5t92 14
q90 0 153 -27l42 43h119zM317 139q57 0 83.5 18.5t26.5 58.5q0 42 -27 67t-83 25q-58 0 -84 -22.5t-26 -70.5q0 -76 110 -76z" />
    <glyph glyph-name="ntilde" unicode="&#xf1;" horiz-adv-x="689" 
d="M385 510q234 0 234 -261v-249h-175v249q0 108 -100 108q-45 0 -72.5 -32.5t-27.5 -75.5v-249h-174v495h148l22 -55h5q42 70 140 70zM223 745q38 0 93.5 -19t86.5 -19q25 0 51.5 10.5t41.5 20.5l14 11v-118q-6 -6 -16.5 -14.5t-40 -22.5t-57.5 -14q-38 0 -93.5 19
t-86.5 19q-25 0 -51.5 -10.5t-40.5 -21.5l-15 -10v119q6 6 16.5 14t40 22t57.5 14z" />
    <glyph glyph-name="ograve" unicode="&#xf2;" horiz-adv-x="647" 
d="M327 511q114 0 195 -77t81 -186t-81 -186.5t-195 -77.5t-194.5 77.5t-80.5 186.5t80.5 186t194.5 77zM327 132q41 0 70.5 33t29.5 80q0 46 -29.5 79t-70.5 33t-70.5 -33t-29.5 -79q0 -47 29.5 -80t70.5 -33zM252 750l126 -172h-175l-179 172h228z" />
    <glyph glyph-name="oacute" unicode="&#xf3;" horiz-adv-x="651" 
d="M325 511q114 0 195 -77t81 -186t-81 -186.5t-195 -77.5t-194.5 77.5t-80.5 186.5t80.5 186t194.5 77zM325 132q41 0 70.5 33t29.5 80q0 46 -29.5 79t-70.5 33t-70.5 -33t-29.5 -79q0 -47 29.5 -80t70.5 -33zM253 578l126 172h228l-179 -172h-175z" />
    <glyph glyph-name="ocircumflex" unicode="&#xf4;" horiz-adv-x="637" 
d="M327 511q114 0 195 -77t81 -186t-81 -186.5t-195 -77.5t-194.5 77.5t-80.5 186.5t80.5 186t194.5 77zM327 132q41 0 70.5 33t29.5 80q0 46 -29.5 79t-70.5 33t-70.5 -33t-29.5 -79q0 -47 29.5 -80t70.5 -33zM245 565h-184v15l180 179h177l180 -179v-15h-184l-84 91z" />
    <glyph glyph-name="otilde" unicode="&#xf5;" horiz-adv-x="651" 
d="M325 511q114 0 195 -77t81 -186t-81 -186.5t-195 -77.5t-194.5 77.5t-80.5 186.5t80.5 186t194.5 77zM325 132q41 0 70.5 33t29.5 80q0 46 -29.5 79t-70.5 33t-70.5 -33t-29.5 -79q0 -47 29.5 -80t70.5 -33zM242 745q38 0 93.5 -19t86.5 -19q25 0 51.5 10.5t40.5 20.5
l15 11v-118q-6 -6 -16.5 -14.5t-40 -22.5t-57.5 -14q-38 0 -93.5 19t-86.5 19q-25 0 -51.5 -10.5t-41.5 -21.5l-14 -10v119q6 6 16.5 14t40 22t57.5 14z" />
    <glyph glyph-name="odieresis" unicode="&#xf6;" horiz-adv-x="643" 
d="M325 511q114 0 195 -77t81 -186t-81 -186.5t-195 -77.5t-194.5 77.5t-80.5 186.5t80.5 186t194.5 77zM325 132q41 0 70.5 33t29.5 80q0 46 -29.5 79t-70.5 33t-70.5 -33t-29.5 -79q0 -47 29.5 -80t70.5 -33zM202 566q-39 0 -66 27.5t-27 65.5t27 65.5t66 27.5
q38 0 65.5 -27.5t27.5 -65.5t-27.5 -65.5t-65.5 -27.5zM447 566q-39 0 -66 27.5t-27 65.5t27 65.5t66 27.5q38 0 65.5 -27.5t27.5 -65.5t-27.5 -65.5t-65.5 -27.5z" />
    <glyph glyph-name="divide" unicode="&#xf7;" horiz-adv-x="620" 
d="M67 364h488v-120h-488v120zM311 417q-39 0 -66 27.5t-27 65.5t27 65.5t66 27.5q38 0 65.5 -27.5t27.5 -65.5t-27.5 -65.5t-65.5 -27.5zM311 6q-39 0 -66 27.5t-27 65.5t27 65.5t66 27.5q38 0 65.5 -27.5t27.5 -65.5t-27.5 -65.5t-65.5 -27.5z" />
    <glyph glyph-name="oslash" unicode="&#xf8;" horiz-adv-x="650" 
d="M540 414q63 -73 63 -168q0 -109 -81.5 -186.5t-196.5 -77.5q-92 0 -165 54l-60 -60l-46 46l58 58q-62 72 -62 166q0 109 81 187t194 78q93 0 167 -53l61 61l46 -46zM234 201h3l137 137v4q-23 14 -49 14q-41 0 -70.5 -33t-29.5 -79q0 -18 9 -43zM325 130q42 0 72 33.5
t30 80.5q0 16 -8 42h-4l-140 -137v-3q26 -16 50 -16z" />
    <glyph glyph-name="ugrave" unicode="&#xf9;" horiz-adv-x="668" 
d="M297 -16q-97 0 -165.5 67.5t-68.5 193.5v250h176v-250q0 -49 25.5 -80.5t73.5 -31.5q44 0 71.5 34t27.5 78l1 250h175v-495h-149l-23 53h-5q-19 -32 -58 -50.5t-81 -18.5zM295 750l126 -172h-175l-179 172h228z" />
    <glyph glyph-name="uacute" unicode="&#xfa;" 
d="M292 -16q-97 0 -165.5 67.5t-68.5 193.5v250h176v-250q0 -49 25.5 -80.5t73.5 -31.5q44 0 71.5 34t27.5 78l1 250h175v-495h-149l-23 53h-5q-19 -32 -58 -50.5t-81 -18.5zM247 578l126 172h228l-179 -172h-175z" />
    <glyph glyph-name="ucircumflex" unicode="&#xfb;" 
d="M299 -16q-97 0 -165.5 67.5t-68.5 193.5v250h176v-250q0 -49 25.5 -80.5t73.5 -31.5q44 0 71.5 34t27.5 78l1 250h175v-495h-149l-23 53h-5q-19 -32 -58 -50.5t-81 -18.5zM251 565h-184v15l180 179h177l180 -179v-15h-184l-84 91z" />
    <glyph glyph-name="udieresis" unicode="&#xfc;" 
d="M292 -16q-97 0 -165.5 67.5t-68.5 193.5v250h176v-250q0 -49 25.5 -80.5t73.5 -31.5q44 0 71.5 34t27.5 78l1 250h175v-495h-149l-23 53h-5q-19 -32 -58 -50.5t-81 -18.5zM207 566q-39 0 -66 27.5t-27 65.5t27 65.5t66 27.5q38 0 65.5 -27.5t27.5 -65.5t-27.5 -65.5
t-65.5 -27.5zM452 566q-39 0 -66 27.5t-27 65.5t27 65.5t66 27.5q38 0 65.5 -27.5t27.5 -65.5t-27.5 -65.5t-65.5 -27.5z" />
    <glyph glyph-name="yacute" unicode="&#xfd;" horiz-adv-x="629" 
d="M433 495h194l-311 -711h-174l89 217l-226 494h193l116 -300h2zM224 578l126 172h228l-179 -172h-175z" />
    <glyph glyph-name="thorn" unicode="&#xfe;" 
d="M352 141q36 0 64.5 32.5t28.5 84.5q0 47 -28.5 77t-71.5 30q-42 0 -71 -30t-29 -77q0 -55 30 -86t77 -31zM387 519q101 0 167 -67t66 -194q0 -123 -58 -194.5t-176 -71.5q-44 0 -84 17.5t-57 53.5v-280h-175v904l175 42v-280q19 32 59.5 51t82.5 19z" />
    <glyph glyph-name="ydieresis" unicode="&#xff;" horiz-adv-x="641" 
d="M433 495h194l-311 -711h-174l89 217l-226 494h193l116 -300h2zM193 566q-39 0 -66 27.5t-27 65.5t27 65.5t66 27.5q38 0 65.5 -27.5t27.5 -65.5t-27.5 -65.5t-65.5 -27.5zM438 566q-39 0 -66 27.5t-27 65.5t27 65.5t66 27.5q38 0 65.5 -27.5t27.5 -65.5t-27.5 -65.5
t-65.5 -27.5z" />
    <glyph glyph-name="Abreve" unicode="&#x102;" horiz-adv-x="761" 
d="M555 0l-45 125h-260l-44 -125h-196l273 699h195l273 -699h-196zM302 267h157l-78 212h-2zM336 928q0 -27 12.5 -41.5t32.5 -14.5q44 0 44 56h126q0 -85 -46.5 -123t-123.5 -38q-76 0 -123.5 37.5t-47.5 123.5h126z" />
    <glyph glyph-name="abreve" unicode="&#x103;" horiz-adv-x="653" 
d="M318 110q92 0 92 91q-48 4 -93 4q-78 0 -78 -43q0 -22 19.5 -37t59.5 -15zM315 512q141 0 206 -70.5t65 -194.5v-247h-154l-22 59h-2q-39 -74 -134 -74q-104 0 -158.5 43t-54.5 119q0 70 55 103.5t175 33.5l118 -4q0 35 -25 56t-69 21q-65 0 -102 -41l-150 70
q39 59 106 92.5t146 33.5zM290 723q0 -27 12.5 -41.5t32.5 -14.5q44 0 44 56h126q0 -85 -46.5 -123t-123.5 -38q-76 0 -123.5 37.5t-47.5 123.5h126z" />
    <glyph glyph-name="Aogonek" unicode="&#x104;" horiz-adv-x="761" 
d="M647 -97q0 -51 48 -51q12 0 23.5 2t16.5 4l5 2l-1 -98q-29 -12 -77 -12q-36 0 -71.5 11t-64 38.5t-28.5 67.5q0 79 84 133h-29l-45 125h-260l-44 -125h-196l273 699h195l273 -699h-19q-83 -34 -83 -97zM300 267h157l-78 212h-2z" />
    <glyph glyph-name="aogonek" unicode="&#x105;" 
d="M507 -95q0 -51 48 -51q12 0 23.5 2t16.5 4l5 2l-1 -98q-29 -12 -77 -12q-36 0 -71.5 11t-64 38.5t-28.5 67.5q0 81 88 132l-22 58h-2q-20 -40 -53.5 -57.5t-91.5 -17.5q-201 0 -201 163q0 70 54.5 103.5t174.5 33.5l119 -4q0 35 -25 56t-69 21q-67 0 -102 -41l-150 70
q38 59 105 92t147 33q141 0 205.5 -70t64.5 -194v-247h-21q-72 -37 -72 -95zM332 110q92 0 92 91q-48 4 -93 4q-79 0 -79 -43q0 -22 20 -37t60 -15z" />
    <glyph glyph-name="Cacute" unicode="&#x106;" horiz-adv-x="775" 
d="M597 211l138 -97q-111 -131 -302 -131q-165 0 -274.5 102.5t-109.5 261.5q0 161 110.5 264t273.5 103q90 0 168.5 -34.5t133.5 -97.5l-139 -100q-62 75 -164 75q-96 0 -151.5 -58.5t-55.5 -150.5t56 -150.5t152 -58.5q105 0 164 72zM355 783l126 172h228l-179 -172h-175z
" />
    <glyph glyph-name="cacute" unicode="&#x107;" horiz-adv-x="589" 
d="M407 182l154 -72q-36 -55 -98 -90t-141 -35q-108 0 -190 76.5t-82 186.5q0 109 82 186.5t190 77.5q74 0 135.5 -32t98.5 -87l-148 -82q-29 47 -82 47q-42 0 -71 -32.5t-29 -77.5q0 -43 27 -79t68 -36q53 0 86 49zM239 578l126 172h228l-179 -172h-175z" />
    <glyph glyph-name="Ccaron" unicode="&#x10c;" horiz-adv-x="768" 
d="M597 211l138 -97q-111 -131 -302 -131q-165 0 -274.5 102.5t-109.5 261.5q0 161 110.5 264t273.5 103q90 0 168.5 -34.5t133.5 -97.5l-139 -100q-62 75 -164 75q-96 0 -151.5 -58.5t-55.5 -150.5t56 -150.5t152 -58.5q105 0 164 72zM161 943h184l85 -89l84 89h184v-15
l-180 -179h-177l-180 179v15z" />
    <glyph glyph-name="ccaron" unicode="&#x10d;" horiz-adv-x="589" 
d="M407 182l154 -72q-36 -55 -98 -90t-141 -35q-108 0 -190 76.5t-82 186.5q0 109 82 186.5t190 77.5q74 0 135.5 -32t98.5 -87l-148 -82q-29 47 -82 47q-42 0 -71 -32.5t-29 -77.5q0 -43 27 -79t68 -36q53 0 86 49zM53 737h184l85 -89l84 89h184v-15l-180 -179h-177
l-180 179v15z" />
    <glyph glyph-name="Dcaron" unicode="&#x10e;" horiz-adv-x="822" 
d="M360 699q205 0 308.5 -84t103.5 -265q0 -350 -412 -350h-280v699h280zM360 152q120 0 178 46t58 152q0 112 -56.5 155t-179.5 43h-105v-395zM107 943h184l85 -89l84 89h184v-15l-180 -179h-177l-180 179v15z" />
    <glyph glyph-name="dcroat" unicode="&#x111;" horiz-adv-x="671" 
d="M646 642v-139h-45v-503h-154l-19 58h-7q-16 -38 -54 -55.5t-82 -17.5q-118 0 -176.5 71.5t-58.5 193.5q0 126 68 193.5t164 67.5q99 0 140 -69h4v61h-43v139h43v23l175 34v-57h45zM321 133q42 0 73 30.5t31 86.5q0 42 -29.5 75t-69.5 33q-39 0 -69.5 -31t-30.5 -77
q0 -52 29.5 -84.5t65.5 -32.5z" />
    <glyph glyph-name="Eogonek" unicode="&#x118;" horiz-adv-x="684" 
d="M627 548h-371v-124h327v-138h-327v-135h371v-151h-19q-83 -37 -83 -97q0 -51 48 -51q12 0 23.5 2t16.5 4l5 2l-1 -98q-29 -12 -77 -12q-36 0 -71.5 11t-64 38.5t-28.5 67.5q0 79 84 133h-380v699h547v-151z" />
    <glyph glyph-name="eogonek" unicode="&#x119;" horiz-adv-x="650" 
d="M595 231v-21h-368q25 -78 88 -78q52 0 91 47l149 -70q-52 -80 -145 -111q-81 -35 -81 -95q0 -51 48 -51q12 0 23.5 2t16.5 4l5 2l-1 -98q-29 -12 -77 -12q-36 0 -71.5 11t-64 38.5t-28.5 67.5q0 74 73 124q-89 22 -148.5 92.5t-59.5 163.5q0 108 82 186t190 78
q124 0 198.5 -77.5t79.5 -202.5zM229 289h176q-27 68 -84 68q-68 0 -92 -68z" />
    <glyph glyph-name="Ecaron" unicode="&#x11a;" horiz-adv-x="682" 
d="M628 548h-371v-124h327v-138h-327v-135h371v-151h-547v699h547v-151zM90 943h184l85 -89l84 89h184v-15l-180 -179h-177l-180 179v15z" />
    <glyph glyph-name="ecaron" unicode="&#x11b;" horiz-adv-x="650" 
d="M600 231v-21h-368q25 -78 88 -78q52 0 91 47l149 -70q-35 -55 -97.5 -90t-140.5 -35q-108 0 -190 76.5t-82 186.5q0 108 82 186t190 78q124 0 198.5 -77.5t79.5 -202.5zM234 289h176q-27 68 -84 68q-68 0 -92 -68zM56 738h184l85 -89l84 89h184v-15l-180 -179h-177
l-180 179v15z" />
    <glyph glyph-name="Gbreve" unicode="&#x11e;" horiz-adv-x="821" 
d="M413 418h346v-418h-113l-34 58h-3q-25 -35 -75.5 -54t-116.5 -19q-166 0 -266 100t-100 265q0 155 106.5 260t276.5 105q176 0 283 -132l-132 -94q-53 75 -151 75q-101 0 -154.5 -59.5t-53.5 -154.5t53.5 -154.5t154.5 -59.5q137 0 148 144h-169v138zM379 928
q0 -27 12.5 -41.5t32.5 -14.5q44 0 44 56h126q0 -85 -46.5 -123t-123.5 -38q-76 0 -123.5 37.5t-47.5 123.5h126z" />
    <glyph glyph-name="gbreve" unicode="&#x11f;" horiz-adv-x="667" 
d="M451 495h150v-450q0 -104 -25.5 -162.5t-95 -88.5t-197.5 -30q-137 0 -215 45l43 148q79 -42 170 -42q79 0 111.5 30.5t32.5 105.5v7h-5q-16 -38 -53.5 -56t-81.5 -18q-118 0 -176.5 72.5t-58.5 195.5q0 126 68.5 192t166.5 66q91 0 128 -66h4zM321 131q42 0 73 30.5
t31 87.5q0 42 -29.5 74.5t-69.5 32.5q-38 0 -69 -31t-31 -76q0 -53 29 -85.5t66 -32.5zM303 723q0 -27 12.5 -41.5t32.5 -14.5q44 0 44 56h126q0 -85 -46.5 -123t-123.5 -38q-76 0 -123.5 37.5t-47.5 123.5h126z" />
    <glyph glyph-name="Idotaccent" unicode="&#x130;" horiz-adv-x="335" 
d="M80 699h175v-699h-175v699zM167 763q-39 0 -66 27.5t-27 65.5t27 65.5t66 27.5q38 0 65.5 -27.5t27.5 -65.5t-27.5 -65.5t-65.5 -27.5z" />
    <glyph glyph-name="dotlessi" unicode="&#x131;" horiz-adv-x="344" 
d="M300 163h-139v299h-120v129h259v-428z" />
    <glyph glyph-name="Lacute" unicode="&#x139;" horiz-adv-x="621" 
d="M68 0v699h175v-548h346v-151h-521zM84 783l126 172h228l-179 -172h-175z" />
    <glyph glyph-name="lacute" unicode="&#x13a;" horiz-adv-x="314" 
d="M70 657l176 42v-699h-176v657zM74 775l126 172h228l-179 -172h-175z" />
    <glyph glyph-name="Lslash" unicode="&#x141;" horiz-adv-x="703" 
d="M316 151h346v-151h-521v219l-105 -39v181l105 38v300h175v-237l213 78l-2 -181l-211 -77v-131z" />
    <glyph glyph-name="lslash" unicode="&#x142;" horiz-adv-x="425" 
d="M418 515v-139l-119 -53v-323h-176v245l-86 -38v139l86 38v273l176 42v-237z" />
    <glyph glyph-name="Nacute" unicode="&#x143;" horiz-adv-x="805" 
d="M549 699h176v-699h-176l-289 409h-4v-409h-176v699h176l290 -421h3v421zM330 783l126 172h228l-179 -172h-175z" />
    <glyph glyph-name="nacute" unicode="&#x144;" horiz-adv-x="689" 
d="M385 510q234 0 234 -261v-249h-175v249q0 108 -100 108q-45 0 -72.5 -32.5t-27.5 -75.5v-249h-174v495h148l22 -55h5q42 70 140 70zM268 578l126 172h228l-179 -172h-175z" />
    <glyph glyph-name="Ncaron" unicode="&#x147;" horiz-adv-x="805" 
d="M549 699h176v-699h-176l-289 409h-4v-409h-176v699h176l290 -421h3v421zM134 943h184l85 -89l84 89h184v-15l-180 -179h-177l-180 179v15z" />
    <glyph glyph-name="ncaron" unicode="&#x148;" horiz-adv-x="689" 
d="M385 510q234 0 234 -261v-249h-175v249q0 108 -100 108q-45 0 -72.5 -32.5t-27.5 -75.5v-249h-174v495h148l22 -55h5q42 70 140 70zM76 738h184l85 -89l84 89h184v-15l-180 -179h-177l-180 179v15z" />
    <glyph glyph-name="Ohungarumlaut" unicode="&#x150;" horiz-adv-x="867" 
d="M431 714q168 0 276 -104t108 -263q0 -155 -107 -259t-276 -104q-167 0 -275.5 104.5t-108.5 258.5q0 159 109 263t274 104zM432 140q96 0 151.5 57.5t55.5 150.5q0 90 -56.5 150t-151.5 60q-96 0 -151.5 -59t-55.5 -151q0 -93 56 -150.5t152 -57.5zM486 1029l-106 -253
h-112l45 253h173zM693 1029l-106 -253h-112l45 253h173z" />
    <glyph glyph-name="ohungarumlaut" unicode="&#x151;" horiz-adv-x="639" 
d="M325 511q114 0 195 -77t81 -186t-81 -186.5t-195 -77.5t-194.5 77.5t-80.5 186.5t80.5 186t194.5 77zM325 132q41 0 70.5 33t29.5 80q0 46 -29.5 79t-70.5 33t-70.5 -33t-29.5 -79q0 -47 29.5 -80t70.5 -33zM376 812l-106 -253h-112l45 253h173zM583 812l-106 -253h-112
l45 253h173z" />
    <glyph glyph-name="OE" unicode="&#x152;" horiz-adv-x="1038" 
d="M996 548h-309v-123h264v-151h-264v-124h309v-150h-525q-412 0 -412 349q0 181 103.5 265.5t308.5 84.5h525v-151zM511 152v396h-41q-122 0 -178.5 -43t-56.5 -155q0 -106 57.5 -152t177.5 -46h41z" />
    <glyph glyph-name="oe" unicode="&#x153;" horiz-adv-x="1029" 
d="M978 230v-21h-367q10 -34 32.5 -56t55.5 -22q52 0 90 47l150 -70q-36 -55 -98 -90t-141 -35q-103 0 -184 71h-3q-79 -71 -188 -71q-114 0 -194.5 77t-80.5 186t80.5 186.5t194.5 77.5q109 0 189 -72h3q80 72 183 72q124 0 198.5 -77.5t79.5 -202.5zM325 131q41 0 70.5 33
t29.5 80q0 46 -29.5 79t-70.5 33t-70 -32.5t-29 -79.5t29 -80t70 -33zM612 288h176q-25 68 -84 68q-66 0 -92 -68z" />
    <glyph glyph-name="Racute" unicode="&#x154;" horiz-adv-x="781" 
d="M686 450q0 -176 -132 -229l132 -221h-199l-111 199h-121v-199h-175v699h345q121 0 191 -64.5t70 -184.5zM255 548v-198h157q98 0 98 100q0 47 -26.5 72.5t-71.5 25.5h-157zM306 783l126 172h228l-179 -172h-175z" />
    <glyph glyph-name="racute" unicode="&#x155;" horiz-adv-x="458" 
d="M360 510q28 0 62 -11v-176q-37 21 -82 21q-46 0 -70.5 -25.5t-24.5 -71.5v-247h-175v495h147l24 -55h4q40 70 115 70zM148 578l126 172h228l-179 -172h-175z" />
    <glyph glyph-name="Rcaron" unicode="&#x158;" horiz-adv-x="724" 
d="M686 450q0 -176 -132 -229l132 -221h-199l-111 199h-121v-199h-175v699h345q121 0 191 -64.5t70 -184.5zM255 548v-198h157q98 0 98 100q0 47 -26.5 72.5t-71.5 25.5h-157zM87 943h184l85 -89l84 89h184v-15l-180 -179h-177l-180 179v15z" />
    <glyph glyph-name="rcaron" unicode="&#x159;" horiz-adv-x="458" 
d="M360 510q28 0 62 -11v-176q-37 21 -82 21q-46 0 -70.5 -25.5t-24.5 -71.5v-247h-175v495h147l24 -55h4q40 70 115 70zM-34 738h184l85 -89l84 89h184v-15l-180 -179h-177l-180 179v15z" />
    <glyph glyph-name="Sacute" unicode="&#x15a;" horiz-adv-x="719" 
d="M384 435q149 -17 217 -71t68 -152q0 -105 -84 -166.5t-236 -61.5q-91 0 -172.5 26t-126.5 78l109 112q72 -63 190 -63q71 0 107.5 20t36.5 51q0 61 -128 73l-28 3q-142 14 -202.5 62.5t-60.5 159.5q0 97 79.5 153t218.5 56q164 0 274 -91l-115 -113q-29 22 -74.5 37
t-84.5 15q-56 0 -88.5 -16t-32.5 -42q0 -28 19.5 -42.5t84.5 -23.5zM298 783l126 172h228l-179 -172h-175z" />
    <glyph glyph-name="sacute" unicode="&#x15b;" horiz-adv-x="572" 
d="M342 297q100 -21 140.5 -51.5t40.5 -94.5q0 -68 -60.5 -116t-179.5 -48q-69 0 -141 32t-102 75l127 86q20 -19 55 -32.5t64 -13.5q26 0 39 8.5t13 19.5q0 23 -55 34l-36 7q-171 31 -171 147q0 74 63 118.5t161 44.5q61 0 117.5 -25t96.5 -73l-130 -88q-43 33 -94 33
q-40 0 -40 -22q0 -20 40 -29zM207 578l126 172h228l-179 -172h-175z" />
    <glyph glyph-name="Scaron" unicode="&#x160;" horiz-adv-x="719" 
d="M384 435q149 -17 217 -71t68 -152q0 -105 -84 -166.5t-236 -61.5q-91 0 -172.5 26t-126.5 78l109 112q72 -63 190 -63q71 0 107.5 20t36.5 51q0 61 -128 73l-28 3q-142 14 -202.5 62.5t-60.5 159.5q0 97 79.5 153t218.5 56q164 0 274 -91l-115 -113q-29 22 -74.5 37
t-84.5 15q-56 0 -88.5 -16t-32.5 -42q0 -28 19.5 -42.5t84.5 -23.5zM90 953h184l85 -89l84 89h184v-15l-180 -179h-177l-180 179v15z" />
    <glyph glyph-name="scaron" unicode="&#x161;" horiz-adv-x="562" 
d="M342 297q100 -21 140.5 -51.5t40.5 -94.5q0 -68 -60.5 -116t-179.5 -48q-69 0 -141 32t-102 75l127 86q20 -19 55 -32.5t64 -13.5q26 0 39 8.5t13 19.5q0 23 -55 34l-36 7q-171 31 -171 147q0 74 63 118.5t161 44.5q61 0 117.5 -25t96.5 -73l-130 -88q-43 33 -94 33
q-40 0 -40 -22q0 -20 40 -29zM24 748h184l85 -89l84 89h184v-15l-180 -179h-177l-180 179v15z" />
    <glyph glyph-name="Tcaron" unicode="&#x164;" horiz-adv-x="635" 
d="M36 699h595v-151h-210v-548h-176v548h-209v151zM49 943h184l85 -89l84 89h184v-15l-180 -179h-177l-180 179v15z" />
    <glyph glyph-name="Uring" unicode="&#x16e;" horiz-adv-x="800" 
d="M542 699h178v-365q0 -157 -84 -253t-236 -96q-153 0 -236.5 96t-83.5 253v365h178l1 -365q0 -105 34 -151t107 -46q142 0 142 197v365zM578 921q0 -70 -52 -120t-126 -50t-126 50t-52 120q0 71 52.5 121t125.5 50t125.5 -50t52.5 -121zM334 921q0 -26 19.5 -44.5
t46.5 -18.5q28 0 47.5 18.5t19.5 44.5t-19.5 45t-47.5 19q-27 0 -46.5 -19t-19.5 -45z" />
    <glyph glyph-name="uring" unicode="&#x16f;" 
d="M292 -16q-97 0 -165.5 67.5t-68.5 193.5v250h176v-250q0 -49 25.5 -80.5t73.5 -31.5q44 0 71.5 34t27.5 78l1 250h175v-495h-149l-23 53h-5q-19 -32 -58 -50.5t-81 -18.5zM513 718q0 -70 -52 -120t-126 -50t-126 50t-52 120q0 71 52.5 121t125.5 50t125.5 -50t52.5 -121z
M269 718q0 -26 19.5 -44.5t46.5 -18.5q28 0 47.5 18.5t19.5 44.5t-19.5 45t-47.5 19q-27 0 -46.5 -19t-19.5 -45z" />
    <glyph glyph-name="Uhungarumlaut" unicode="&#x170;" horiz-adv-x="800" 
d="M542 699h178v-365q0 -157 -84 -253t-236 -96q-153 0 -236.5 96t-83.5 253v365h178l1 -365q0 -105 34 -151t107 -46q142 0 142 197v365zM461 1019l-106 -253h-112l45 253h173zM668 1019l-106 -253h-112l45 253h173z" />
    <glyph glyph-name="uhungarumlaut" unicode="&#x171;" 
d="M292 -16q-97 0 -165.5 67.5t-68.5 193.5v250h176v-250q0 -49 25.5 -80.5t73.5 -31.5q44 0 71.5 34t27.5 78l1 250h175v-495h-149l-23 53h-5q-19 -32 -58 -50.5t-81 -18.5zM393 820l-106 -253h-112l45 253h173zM600 820l-106 -253h-112l45 253h173z" />
    <glyph glyph-name="Ydieresis" unicode="&#x178;" horiz-adv-x="705" 
d="M488 699h217l-255 -454v-245h-176v246l-254 453h217l124 -258h4zM237 770q-39 0 -66 27.5t-27 65.5t27 65.5t66 27.5q38 0 65.5 -27.5t27.5 -65.5t-27.5 -65.5t-65.5 -27.5zM482 770q-39 0 -66 27.5t-27 65.5t27 65.5t66 27.5q38 0 65.5 -27.5t27.5 -65.5t-27.5 -65.5
t-65.5 -27.5z" />
    <glyph glyph-name="Zacute" unicode="&#x179;" horiz-adv-x="649" 
d="M279 154v-3h320v-151h-549l1 149l319 394v5h-320v151h549l-1 -151zM233 783l126 172h228l-179 -172h-175z" />
    <glyph glyph-name="zacute" unicode="&#x17a;" horiz-adv-x="599" 
d="M288 150h249v-150h-487l1 139l240 205v2h-235v149h473l-1 -139l-240 -204v-2zM205 578l126 172h228l-179 -172h-175z" />
    <glyph glyph-name="Zdotaccent" unicode="&#x17b;" horiz-adv-x="649" 
d="M279 154v-3h320v-151h-549l1 149l319 394v5h-320v151h549l-1 -151zM324 752q-39 0 -66 27.5t-27 65.5t27 65.5t66 27.5q38 0 65.5 -27.5t27.5 -65.5t-27.5 -65.5t-65.5 -27.5z" />
    <glyph glyph-name="zdotaccent" unicode="&#x17c;" horiz-adv-x="587" 
d="M288 150h249v-150h-487l1 139l240 205v2h-235v149h473l-1 -139l-240 -204v-2zM293 543q-39 0 -66 27.5t-27 65.5t27 65.5t66 27.5q38 0 65.5 -27.5t27.5 -65.5t-27.5 -65.5t-65.5 -27.5z" />
    <glyph glyph-name="Zcaron" unicode="&#x17d;" horiz-adv-x="649" 
d="M297 154v-3h320v-151h-549l1 149l319 394v5h-320v151h549l-1 -151zM66 942h184l85 -89l84 89h184v-15l-180 -179h-177l-180 179v15z" />
    <glyph glyph-name="zcaron" unicode="&#x17e;" horiz-adv-x="587" 
d="M295 150h249v-150h-487l1 139l240 205v2h-235v149h473l-1 -139l-240 -204v-2zM35 738h184l85 -89l84 89h184v-15l-180 -179h-177l-180 179v15z" />
    <glyph glyph-name="florin" unicode="&#x192;" horiz-adv-x="404" 
d="M363 579q-49 0 -66 -15t-17 -52h83v-139h-86l-1 -374q0 -124 -53.5 -171t-206.5 -47v152q49 0 65.5 14.5t16.5 51.5l3 374h-48v139h49q0 125 53.5 171.5t207.5 46.5v-151z" />
    <glyph glyph-name="circumflex" unicode="&#x2c6;" horiz-adv-x="600" 
d="M213 565h-184v15l180 179h177l180 -179v-15h-184l-84 91z" />
    <glyph glyph-name="caron" unicode="&#x2c7;" horiz-adv-x="600" 
d="M27 738h184l85 -89l84 89h184v-15l-180 -179h-177l-180 179v15z" />
    <glyph glyph-name="breve" unicode="&#x2d8;" horiz-adv-x="387" 
d="M145 723q0 -27 12.5 -41.5t32.5 -14.5q44 0 44 56h126q0 -85 -46.5 -123t-123.5 -38q-76 0 -123.5 37.5t-47.5 123.5h126z" />
    <glyph glyph-name="dotaccent" unicode="&#x2d9;" horiz-adv-x="248" 
d="M128 519q-39 0 -66 27.5t-27 65.5t27 65.5t66 27.5q38 0 65.5 -27.5t27.5 -65.5t-27.5 -65.5t-65.5 -27.5z" />
    <glyph glyph-name="ring" unicode="&#x2da;" horiz-adv-x="424" 
d="M391 535q0 -70 -52 -120t-126 -50t-126 50t-52 120q0 71 52.5 121t125.5 50t125.5 -50t52.5 -121zM147 535q0 -26 19.5 -44.5t46.5 -18.5q28 0 47.5 18.5t19.5 44.5t-19.5 45t-47.5 19q-27 0 -46.5 -19t-19.5 -45z" />
    <glyph glyph-name="ogonek" unicode="&#x2db;" horiz-adv-x="240" 
d="M282 7q-4 -1 -11 -3.5t-24.5 -12t-31 -20.5t-24.5 -29.5t-11 -38.5q0 -51 48 -51q12 0 23 2t17 4l5 2l-1 -98q-29 -12 -77 -12q-36 0 -71.5 11t-64 38.5t-28.5 67.5q0 48 31.5 86.5t63.5 52.5l31 15z" />
    <glyph glyph-name="tilde" unicode="&#x2dc;" horiz-adv-x="492" 
d="M158 745q38 0 93.5 -19t86.5 -19q25 0 51.5 10.5t40.5 20.5l15 11v-118q-6 -6 -16.5 -14.5t-40 -22.5t-57.5 -14q-38 0 -93.5 19t-86.5 19q-25 0 -51.5 -10.5t-41.5 -21.5l-14 -10v119q6 6 16.5 14t40 22t57.5 14z" />
    <glyph glyph-name="hungarumlaut" unicode="&#x2dd;" horiz-adv-x="482" 
d="M237 699l-106 -253h-112l45 253h173zM444 699l-106 -253h-112l45 253h173z" />
    <glyph glyph-name="endash" unicode="&#x2013;" horiz-adv-x="524" 
d="M476 360v-139h-397v139h397z" />
    <glyph glyph-name="emdash" unicode="&#x2014;" horiz-adv-x="760" 
d="M712 360v-139h-633v139h633z" />
    <glyph glyph-name="quoteleft" unicode="&#x2018;" horiz-adv-x="245" 
d="M27 446l106 253h112l-45 -253h-173z" />
    <glyph glyph-name="quoteright" unicode="&#x2019;" horiz-adv-x="238" 
d="M237 699l-106 -253h-112l45 253h173z" />
    <glyph glyph-name="quotesinglbase" unicode="&#x201a;" horiz-adv-x="280" 
d="M245 148l-89 -253h-129l45 253h173z" />
    <glyph glyph-name="quotedblleft" unicode="&#x201c;" horiz-adv-x="481" 
d="M232 446l106 253h112l-45 -253h-173zM25 446l106 253h112l-45 -253h-173z" />
    <glyph glyph-name="quotedblright" unicode="&#x201d;" horiz-adv-x="469" 
d="M237 699l-106 -253h-112l45 253h173zM444 699l-106 -253h-112l45 253h173z" />
    <glyph glyph-name="quotedblbase" unicode="&#x201e;" horiz-adv-x="488" 
d="M245 148l-106 -253h-112l45 253h173zM452 148l-106 -253h-112l45 253h173z" />
    <glyph glyph-name="dagger" unicode="&#x2020;" horiz-adv-x="575" 
d="M541 495v-152h-163v-495h-175v495h-163v152h163v155h175v-155h163z" />
    <glyph glyph-name="daggerdbl" unicode="&#x2021;" horiz-adv-x="603" 
d="M551 343h-162v-174h162v-153h-162v-168h-176v168h-163v153h163v174h-163v152h163v155h176v-155h162v-152z" />
    <glyph glyph-name="bullet" unicode="&#x2022;" horiz-adv-x="303" 
d="M158 194q-43 0 -72.5 30t-29.5 73q0 42 29.5 72t72.5 30t73 -30t30 -72q0 -43 -30 -73t-73 -30z" />
    <glyph glyph-name="ellipsis" unicode="&#x2026;" horiz-adv-x="870" 
d="M148 -6q-39 0 -66 27.5t-27 65.5t27 65.5t66 27.5q38 0 65.5 -27.5t27.5 -65.5t-27.5 -65.5t-65.5 -27.5zM438 -6q-39 0 -66 27.5t-27 65.5t27 65.5t66 27.5q38 0 65.5 -27.5t27.5 -65.5t-27.5 -65.5t-65.5 -27.5zM728 -6q-39 0 -66 27.5t-27 65.5t27 65.5t66 27.5
q38 0 65.5 -27.5t27.5 -65.5t-27.5 -65.5t-65.5 -27.5z" />
    <glyph glyph-name="perthousand" unicode="&#x2030;" horiz-adv-x="1295" 
d="M391 546q0 -71 -52.5 -121t-125.5 -50t-125.5 50t-52.5 121q0 70 52 120t126 50t126 -50t52 -120zM147 546q0 -26 19 -45t47 -19t47 19t19 45t-19 44.5t-47 18.5t-47 -18.5t-19 -44.5zM696 324q74 0 126 -50t52 -120q0 -71 -52.5 -121t-125.5 -50q-74 0 -126 50t-52 121
t52 120.5t126 49.5zM696 90q27 0 46.5 19t19.5 45t-19.5 44.5t-46.5 18.5q-28 0 -47.5 -18.5t-19.5 -44.5t19.5 -45t47.5 -19zM1083 324q74 0 126 -50t52 -120q0 -71 -52.5 -121t-125.5 -50q-74 0 -126 50t-52 121t52 120.5t126 49.5zM1083 90q27 0 46.5 19t19.5 45
t-19.5 44.5t-46.5 18.5q-28 0 -47.5 -18.5t-19.5 -44.5t19.5 -45t47.5 -19zM615 719l91 -57l-419 -689l-87 53z" />
    <glyph glyph-name="guilsinglleft" unicode="&#x2039;" horiz-adv-x="216" 
d="M354 495l-120 -229l116 -231h-184l-114 231l119 229h183z" />
    <glyph glyph-name="guilsinglright" unicode="&#x203a;" horiz-adv-x="363" 
d="M140 266l-120 229h183l119 -229l-114 -231h-184z" />
    <glyph glyph-name="fraction" unicode="&#x2044;" horiz-adv-x="317" 
d="M153 -194h-151l260 970h152z" />
    <glyph glyph-name="Euro" unicode="&#x20ac;" horiz-adv-x="735" 
d="M508 136q55 0 93 17l92 -126q-84 -43 -185 -43q-125 0 -224.5 67.5t-138.5 175.5h-84v98h64q-1 7 -1 22q0 5 0.5 15.5t0.5 15.5h-64v97h87q41 106 139.5 173t220.5 67q106 0 199 -53l-91 -125q-48 27 -108 27q-117 0 -173 -89h210l-42 -97h-202q-1 -10 -1 -30
q0 -16 1 -23h244l-42 -98h-172q57 -91 177 -91z" />
    <glyph glyph-name="trademark" unicode="&#x2122;" horiz-adv-x="939" 
d="M44 699h374v-88h-136v-320h-102v320h-136v88zM764 699h121v-408h-104v252h-2l-103 -184l-103 184h-2v-252h-104v408h121l87 -156h2z" />
    <glyph glyph-name="minus" unicode="&#x2212;" horiz-adv-x="563" 
d="M512 360v-139h-460v139h460z" />
    <glyph glyph-name="fi" unicode="&#xfb01;" horiz-adv-x="630" 
d="M381 699h176v-136h-176v136zM264 495h293v-495h-176v356h-118v-356h-177v356h-49v139h49l1 18q0 105 53.5 151.5t172.5 46.5q8 0 36 -4v-149q-5 1 -16 1q-43 0 -56 -9.5t-13 -36.5v-18z" />
    <glyph glyph-name="fl" unicode="&#xfb02;" horiz-adv-x="664" 
d="M338 710q151 0 267 -9v-701h-176v558q-32 1 -61 1q-44 0 -61.5 -10.5t-17.5 -35.5v-18h86v-139h-87v-356h-177v356h-49v139h50v18q0 105 53.5 151t172.5 46z" />
    <glyph glyph-name="CR" horiz-adv-x="249" 
 />
    <glyph glyph-name="AV2" horiz-adv-x="787" 
d="M397 711q151 0 234.5 -96t83.5 -252v-363h-175v224h-286v-224h-174v363q0 156 83 252t234 96zM397 562q-142 0 -143 -194h286q-1 102 -36.5 148t-106.5 46z" />
    <glyph glyph-name="UV2" horiz-adv-x="794" 
d="M542 699h177v-699h-128l-16 54h-7q-77 -69 -182 -69q-163 0 -234.5 75.5t-71.5 272.5v366h179v-365q0 -104 32 -148t95 -44q103 0 156 44v513z" />
    <glyph glyph-name="RV1" horiz-adv-x="739" 
d="M733 468q0 -82 -31.5 -133t-107.5 -72l124 -263h-188l-106 228l-168 -21v-207h-176v698h409q109 0 176.5 -62.5t67.5 -167.5zM256 548v-192l204 23q43 5 69.5 29t26.5 60q0 37 -22.5 58.5t-57.5 21.5h-220z" />
    <glyph glyph-name="RV2" horiz-adv-x="739" 
d="M586 261q35 -94 147 -115l-9 -162q-227 30 -292 245l-8 -1l-169 -21v-207h-175v699h410q109 0 176 -62.5t67 -167.5q0 -83 -31 -134t-107 -72zM255 357l205 23q43 5 70 28.5t27 60.5t-23 58t-57 21h-222v-191z" />
    <glyph glyph-name="RV3" horiz-adv-x="854" 
d="M820 419q0 -43 -2 -77.5t-4 -47.5l-1 -13q-23 -130 -126 -213t-252 -83q-167 0 -275.5 104.5t-108.5 258.5q0 159 109 263t274 104q168 0 277 -104l-130 -107q-57 55 -147 55q-96 0 -151.5 -59t-55.5 -151q0 -93 56 -150.5t152 -57.5q76 0 128 37.5t70 102.5h-243v138
h430z" />
    <glyph glyph-name="KV1" horiz-adv-x="760" 
d="M711 699l-167 -349l192 -350h-205l-142 277h-133v-277h-176v699h176v-275h133l135 275h187z" />
    <glyph glyph-name="TT" horiz-adv-x="651" 
d="M29 496h585v-151h-205v-345h-176v345h-204v151z" />
    <glyph glyph-name="OO" horiz-adv-x="588" 
d="M53 47v138h492v-138h-492zM299 246q-102 0 -174 69t-72 166t72 166t174 69t174 -69t72 -166t-72 -166t-174 -69zM299 570q-38 0 -65 -26t-27 -63q0 -36 27 -62t65 -26t65 26t27 62q0 37 -27 63t-65 26z" />
    <glyph glyph-name="&V1" horiz-adv-x="784" 
d="M767 429v-151l-102 -1q-4 -134 -86 -215t-212 -81q-149 0 -233 103t-84 262q0 163 85 266.5t234 103.5q112 0 189 -61l-116 -112q-30 21 -75 21q-117 0 -136 -152zM369 134q60 0 89.5 34.5t32.5 107.5l-258 -1q24 -141 136 -141z" />
    <glyph glyph-name="&V2" horiz-adv-x="839" 
d="M808 287h-123v-3q39 -38 39 -97q0 -68 -46.5 -115t-121 -68t-169.5 -21q-147 0 -242 51t-95 151q0 46 14.5 81t35 52.5t41 29t35.5 14.5l14 2v4q-4 1 -10.5 2.5t-23 12t-29 26t-23 46.5t-10.5 72q0 80 73 133.5t221 53.5q127 0 198 -28l-71 -146q-67 22 -128 22
q-52 0 -85 -19.5t-33 -48.5q0 -30 20.5 -47.5t45.5 -17.5v-139q-61 -1 -85 -21t-24 -55q0 -80 161 -80q162 0 162 80q0 76 -103 76v140l362 14v-157z" />
    <glyph glyph-name="&V3" horiz-adv-x="848" 
d="M822 511q0 -94 -31 -142.5t-107 -66.5v-3q42 -39 42 -112q0 -68 -47 -115.5t-121.5 -68.5t-169.5 -21t-169.5 20.5t-121.5 67.5t-47 115q0 47 18 83t44 53.5t52.5 28.5t44.5 13l18 2v4q-5 1 -14 3t-32 13t-40 26.5t-31.5 46.5t-14.5 70q0 80 73 133.5t221 53.5
q126 0 199 -28l-72 -146q-67 22 -128 22q-52 0 -85 -19.5t-33 -49.5q0 -60 66 -65v-139q-61 -1 -85 -21t-24 -55q0 -80 161 -80q163 0 163 80q0 36 -29 55.5t-66 19.5v138q119 0 157 17.5t38 65.5z" />
    </font>
</defs>
</svg>
