<?xml version="1.0" standalone="no"?>
<!DOCTYPE svg PUBLIC "-//W3C//DTD SVG 1.1//EN" "http://www.w3.org/Graphics/SVG/1.1/DTD/svg11.dtd" >
<svg xmlns="http://www.w3.org/2000/svg" xmlns:xlink="http://www.w3.org/1999/xlink" version="1.1">
<metadata>
Created by FontForge 20170731 at Thu Oct 19 14:11:12 2017
 By Aleksey,,,
Copyright (c) 2017 by Jan-Christian Bruun. All rights reserved.
</metadata>
<defs>
<font id="ArkibalDisplay-RegularItalic" horiz-adv-x="670" >
  <font-face 
    font-family="Arkibal Display Rg"
    font-weight="400"
    font-style="italic"
    font-stretch="normal"
    units-per-em="1000"
    panose-1="2 0 5 3 0 0 0 2 0 4"
    ascent="750"
    descent="-250"
    x-height="494"
    cap-height="699"
    bbox="-108 -310.561 1356.36 1035"
    underline-thickness="50"
    underline-position="-200"
    unicode-range="U+0020-FB02"
  />
<missing-glyph horiz-adv-x="249" 
 />
    <glyph glyph-name=".notdef" horiz-adv-x="249" 
 />
    <glyph glyph-name=".null" horiz-adv-x="0" 
 />
    <glyph glyph-name="nonmarkingreturn" horiz-adv-x="333" 
 />
    <glyph glyph-name="space" unicode=" " horiz-adv-x="313" 
 />
    <glyph glyph-name="exclam" unicode="!" horiz-adv-x="256" 
d="M171 194h-95l78 518h124zM32 49q0 24 13 41q23 31 57 35q31 4 49.5 -17.5t11.5 -49.5q-6 -26 -29 -45t-49 -18q-25 1 -39.5 17.5t-13.5 36.5z" />
    <glyph glyph-name="quotedbl" unicode="&#x22;" horiz-adv-x="315" 
d="M113 459h-75l42 240h75zM252 459h-75l42 240h75z" />
    <glyph glyph-name="numbersign" unicode="#" horiz-adv-x="727" 
d="M686 416h-127l-53 -142h102l-19 -101h-121l-67 -178h-104l67 178h-139l-67 -178h-104l67 178h-108l20 101h126l53 142h-102l20 101h120l70 188h104l-70 -188h139l70 188h104l-70 -188h108zM402 274l53 142h-139l-53 -142h139z" />
    <glyph glyph-name="dollar" unicode="$" horiz-adv-x="673" 
d="M402 411q226 -41 226 -152q0 -110 -81 -180.5t-199 -86.5q-4 0 -11 -1t-11 -2l-11 -59h-104l10 58q-148 9 -238 102q63 55 98 84q53 -66 159 -82l39 220q-61 11 -97 25q-104 39 -105 116q-2 82 35.5 139.5t97.5 84.5t141 35l11 60h105l-11 -58q125 -13 217 -87l-99 -81
q-55 47 -137 61zM205 529q-13 -47 12.5 -68t82.5 -33l33 183q-107 -14 -128 -82zM344 92q67 10 113 40t46 84t-122 79z" />
    <glyph glyph-name="percent" unicode="%" horiz-adv-x="951" 
d="M242 346q-44 0 -73 12q-81 34 -92 123q-6 49 20 99q56 105 167 127q55 10 100 -7q84 -32 95 -111q13 -88 -45.5 -157t-145.5 -84q-10 -2 -26 -2zM290 628q-59 1 -92.5 -42.5t-26.5 -91.5q8 -47 52 -62q26 -9 56 -1q42 10 66.5 44t23.5 72q0 34 -21.5 57.5t-57.5 23.5z
M245 -17l579 728h-103l-568 -728h92zM680 -17q-44 0 -73 12q-81 34 -92 123q-6 49 20 99q56 105 167 127q55 10 100 -7q84 -32 95 -111q13 -88 -45.5 -157t-145.5 -84q-10 -2 -26 -2zM728 265q-59 1 -92.5 -42.5t-26.5 -91.5q8 -47 52 -62q26 -9 56 -1q42 10 66.5 44
t23.5 72q0 34 -21.5 57.5t-57.5 23.5z" />
    <glyph glyph-name="ampersand" unicode="&#x26;" horiz-adv-x="763" 
d="M601 119q2 -2 4 -6t3 -5q44 -60 76 -108h-129q-1 1 -3.5 4t-3.5 5q-4 5 -12 15.5t-12 15.5q-1 1 -3.5 4t-4.5 5h-4q-4 -2 -5 -3q-75 -46 -167 -55q-86 -9 -168 15q-39 12 -70 35q-59 48 -59 119q-1 51 14 90.5t46.5 68.5t65.5 48.5t84 40.5l3 5q-3 5 -6 11q-17 34 -24 68
q-11 45 7 96q41 118 236 126q50 1 108 -14l-21 -105q-59 15 -118 12q-22 -1 -46 -11q-43 -19 -48 -70q-1 -22 8 -43q7 -17 24 -42q48 -70 74 -105q58 -82 87 -124q3 -5 9 -13q4 2 14 14q17 27 27 66q4 13 5 22l100 2q2 -36 -30 -100q-21 -49 -61 -84zM450 124q4 2 9 6
q-100 138 -149 207q-71 -26 -102 -63q-35 -43 -32 -93q1 -36 30 -60q16 -13 40 -20q27 -8 61 -8q72 0 143 31z" />
    <glyph glyph-name="quotesingle" unicode="'" horiz-adv-x="172" 
d="M155 699l-42 -240h-75l42 240h75z" />
    <glyph glyph-name="parenleft" unicode="(" horiz-adv-x="378" 
d="M292 772h115q-2 -3 -6 -7q-61 -72 -108 -148q-68 -109 -102 -214q-23 -68 -31 -145q-5 -47 -2 -86q6 -154 75 -300q2 -4 7 -13t11 -19.5t7 -12.5h-118q-15 22 -16 26q-31 57 -55 139q-30 110 -26 219q3 92 33 187q36 114 110 232q39 61 106 142z" />
    <glyph glyph-name="parenright" unicode=")" horiz-adv-x="354" 
d="M274 485q5 -69 -1 -131q-13 -127 -75 -256q-64 -134 -165 -247q-1 -1 -11 -12t-11 -12h-119l10.5 10.5l10.5 10.5q63 72 114 153q64 102 100 205q26 80 33 149q5 63 1 114q-9 135 -68 269q-2 6 -7 16l-8 16q-1 0 -1 2h115q3 -5 5 -10q30 -60 48 -123q23 -77 29 -154z" />
    <glyph glyph-name="asterisk" unicode="*" horiz-adv-x="449" 
d="M264 503l83 -107l-92 -59l-51 127q-6 -6 -45.5 -61t-49.5 -68l-75 60l124 108l-137 30l46 94q5 -2 29 -14.5t53 -27.5t40 -20l6 145h103l-45 -146l146 66l13 -97z" />
    <glyph glyph-name="plus" unicode="+" horiz-adv-x="554" 
d="M525 380l-17 -100h-185l-34 -186h-102l33 186h-185l18 100h185l33 185h102l-33 -185h185z" />
    <glyph glyph-name="comma" unicode="," horiz-adv-x="201" 
d="M35 -87h-68l76 200h118z" />
    <glyph glyph-name="hyphen" unicode="-" horiz-adv-x="383" 
d="M323 241h-272l17 101h272z" />
    <glyph glyph-name="period" unicode="." horiz-adv-x="198" 
d="M13 49q0 24 13 41q23 31 57 35q31 4 49.5 -17.5t11.5 -49.5q-6 -26 -29 -45t-49 -18q-25 1 -39.5 17.5t-13.5 36.5z" />
    <glyph glyph-name="slash" unicode="/" horiz-adv-x="345" 
d="M28 -104h-104l383 857h104z" />
    <glyph glyph-name="zero" unicode="0" horiz-adv-x="701" 
d="M209 -11q-91 22 -129.5 87t-45.5 174q5 164 82 289q33 57 87 101q72 58 159 70q64 9 121 -5q66 -17 107.5 -67.5t55 -113t6.5 -133.5q-14 -130 -75 -230q-42 -69 -105.5 -116t-140.5 -59q-65 -11 -122 3zM156 297q-3 -46 6 -86.5t29.5 -73t60 -46t92.5 -1.5q51 11 94 59
q27 31 45 69q50 100 50 211q2 38 -6.5 73t-33 66t-62.5 40q-73 17 -135.5 -24.5t-94.5 -114.5q-37 -81 -45 -172z" />
    <glyph glyph-name="one" unicode="1" horiz-adv-x="535" 
d="M491 101l-18 -101h-435l18 102h156q30 160 86 480v3q-93 -19 -162 -33l16 99l200 47h86q-24 -141 -106 -597h159z" />
    <glyph glyph-name="two" unicode="2" horiz-adv-x="590" 
d="M187 106l1 -4l333 -1l-17 -101h-483l20 123q152 80 171 91q74 43 124 84q45 35 74 74q35 49 47 106q6 34 0 54q-9 40 -45.5 59.5t-83.5 13.5q-95 -10 -170 -73q-30 50 -46 75q78 68 184 91q79 18 156 -1q51 -14 85.5 -49t42.5 -88q8 -56 -12 -121q-19 -60 -62 -113
q-38 -46 -98 -91q-65 -49 -154 -95q-29 -16 -67 -34z" />
    <glyph glyph-name="three" unicode="3" horiz-adv-x="566" 
d="M362 420l1 -6q47 -8 76 -20q23 -9 42 -24q40 -32 49 -83q6 -40 -4 -92q-14 -76 -69.5 -128t-136.5 -69q-78 -17 -170 -12q-100 9 -143 27q-2 1 -13 7l60 97q44 -23 122 -29q37 -5 76 -1.5t71 13.5t55.5 37.5t29.5 69.5q15 99 -94 125q-5 1 -86 12l-2 82q63 57 189 169
l-1 3h-292l12 101v0v0v0v0v0h-1v0v0v0v0v0v0v0v0v0v0v0v0v0v0v0v0v0h1v0v0v0v0v0v0v0v0h1v0v0v0v0v0h1v0v0v0v0h1v0v0v0h1v0v0v0h1v0v0h1v0v0h1v0v0h1v0v0h1v0h1v0v0h1v0v0h1v0h1v0h1v0h1v0h1v0h1v0h1v0h1v0h1v0h1v0h1v0h1v0h1v0h1v0h1v0h1v0h1v0h1v0h1h1v0h1v0h1v0h1v0h1h1
v0h1v0h1h1v0h1h1v0h1h1v0h1h1v0h1h1h1v0h1h1h1v0h1h1h1h1v0h1h1h1h1h1h1h1v0h1h1h1h1h1h1h1h1h1h1h1h1h1h1h1h1h1h1h1h1h1h1h1h1h1h1h1h1h1h1h1h1h1h1h1h1h1h1h1h1h1h1h1h1h1h1h1h1h1h1h1h1h1h1h1h1h1h1h1h1h1h1h1h1h1h1h1h1h1h1h1h1h1h1h1h1h1h1h1h1h1h1h1h1h1h1h1h1h1h1h1
h1h1h1h1h1h1h1h1h1h1h1h1h1h1h1h1h1h1h1h1h1h1h1h1h1h1h1h1h1h1h1h1h1h1h1h1h1h1h1h1h1h1h1h1h1h1h1h1h1h1h1h1h1h1h1h1h1h1h1h1h1h1h1h1h1h1h1h1h1h1h1h1h1h1h1h1h1h1h1h1h1h1h1h1h1h1h1h1h1h1h1h1h1h1h1h1h1h1h1h1h1h1h1h1h1h1h1h1h1h1h1h1h1h1h1h1h1h1h1h1h1h1h1h1h1h1h1
h1h1h1h1h1h1h1h1h1h1h1h1h1h1h1h1h1h1h1h1h1h1h1h1h1h1h1h1h1h1h1h1h1h1h1h1h1h1h1h1h1h1h1h1h1h1h1h1h1h1h1h1h1h1h1h1h1h1h1h1h1h1h1h1h1h1h1h1h1h1h1h1h1h1h1h1h1h1h1h1h1h1h1h1h1h1h1h1h1h1h1h1h1h1h1h1h1h1h1h1h1h1h1h1h1h1h1h1h1h1h1h1h1h1h1h1h1h1h1h1h1h1h1h1h1h1h1
h1h1h1h1h1h1h1h1h1h1h1h1h1h1h1h1h1h1h1h1h1h1h1h1h1h1h1h1h1h1h1h1h9l-16 -99z" />
    <glyph glyph-name="four" unicode="4" horiz-adv-x="627" 
d="M29 144l19 105l328 450h123q-47 -66 -101 -138.5t-129 -171t-104 -137.5l2 -5h221l24 117h119q-3 -19 -10.5 -58.5t-10.5 -58.5h83l-17 -102h-83q-5 -26 -13.5 -74.5t-12.5 -69.5l-119 -1l25 144h-344z" />
    <glyph glyph-name="five" unicode="5" horiz-adv-x="611" 
d="M560 597h-320q-5 -28 -14.5 -80.5t-14.5 -80.5l5 -4q66 19 146 17q98 0 147.5 -54t39.5 -151q-10 -75 -55 -136.5t-119 -94.5q-51 -22 -104 -26q-70 -7 -149 8t-124 43l45 100q47 -32 143 -46q36 -6 83 -3q33 1 63 15q44 18 70 60.5t24 91.5q0 36 -25.5 60t-65.5 29
q-32 5 -85 -1q-70 -7 -145 -29l-31 12l62 372h443z" />
    <glyph glyph-name="six" unicode="6" horiz-adv-x="658" 
d="M378 460q52 0 95.5 -12t78.5 -46.5t42 -87.5q14 -121 -60.5 -215.5t-200.5 -109.5q-131 -16 -213.5 42t-80.5 187q3 141 54 273q30 81 89.5 138.5t142.5 75.5q60 14 130 9q104 -5 178 -67l-82 -86q-76 59 -164 51q-167 -10 -208 -231h6q62 82 193 79zM468 199q13 40 7 75
q-9 49 -52 71q-21 10 -47 13q-34 5 -67 0q-44 -7 -76 -25q-52 -31 -66 -86q-11 -35 -6 -72q4 -47 41.5 -67.5t91.5 -20.5q57 0 106 28t68 84z" />
    <glyph glyph-name="seven" unicode="7" horiz-adv-x="518" 
d="M93 699l470 -1l-16 -85q-10 -17 -37.5 -64t-111.5 -190t-211 -359h-119l355 590v8h-344z" />
    <glyph glyph-name="eight" unicode="8" horiz-adv-x="672" 
d="M532 366q84 -46 84 -125q-3 -63 -25 -110q-39 -84 -132 -118t-205 -27q-38 3 -71.5 10.5t-67.5 24t-55.5 46t-24.5 70.5q-1 30 3 61q16 83 140 150v3q-39 31 -51 68t-2 97q10 58 42 99.5t79.5 62.5t100 29.5t111.5 5.5q68 -4 121 -36.5t61 -93.5q17 -133 -107 -214z
M242 484q-2 -25 30 -43q11 -7 19 -10q31 -11 143 -34q34 26 55 53q23 36 28 65q6 42 -25 69.5t-75 27.5q-33 2 -57 -2q-112 -20 -118 -126zM493 209q1 17 -7 31.5t-17 22t-29.5 15.5t-29 10.5t-30.5 7.5q-18 4 -55 10.5t-57 10.5q-88 -44 -107 -107q-11 -37 9.5 -68.5
t59.5 -42.5q29 -11 82 -13q40 2 67 8q46 10 78 40t36 75z" />
    <glyph glyph-name="nine" unicode="9" horiz-adv-x="637" 
d="M274 240q-52 0 -95.5 12t-78.5 46.5t-42 87.5q-14 121 60.5 215.5t200.5 109.5q129 16 211.5 -44.5t82.5 -184.5q0 -133 -54 -273q-30 -81 -89.5 -138.5t-142.5 -75.5q-60 -14 -130 -9q-102 5 -189 78l82 86q90 -70 175 -62q167 10 208 231h-6q-62 -82 -193 -79zM184 501
q-13 -40 -7 -75q9 -49 52 -71q21 -10 47 -13q33 -5 67 0q44 7 76 25q53 32 66 86q17 73 -16 116.5t-111 43.5q-57 0 -106 -28t-68 -84z" />
    <glyph glyph-name="colon" unicode=":" horiz-adv-x="203" 
d="M13 49q0 24 13 41q23 31 57 35q31 4 49.5 -17.5t11.5 -49.5q-6 -26 -29 -45t-49 -18q-25 1 -39.5 17.5t-13.5 36.5zM76 410q0 24 13 41q23 31 57 35q31 4 49.5 -17.5t11.5 -49.5q-6 -26 -29 -45t-49 -18q-25 1 -39.5 17.5t-13.5 36.5z" />
    <glyph glyph-name="semicolon" unicode=";" horiz-adv-x="199" 
d="M156 113l-126 -200h-68l76 200h118zM76 410q0 24 13 41q23 31 57 35q31 4 49.5 -17.5t11.5 -49.5q-6 -26 -29 -45t-49 -18q-25 1 -39.5 17.5t-13.5 36.5z" />
    <glyph glyph-name="less" unicode="&#x3c;" horiz-adv-x="600" 
d="M486 122l-449 156l19 109l505 157h6l-17 -106l-346 -104v-4l308 -104l-19 -104h-7z" />
    <glyph glyph-name="equal" unicode="=" horiz-adv-x="522" 
d="M472 343h-391l16 101h391zM440 158h-392l16 100h392z" />
    <glyph glyph-name="greater" unicode="&#x3e;" horiz-adv-x="572" 
d="M22 113h-6l18 104l350 104v4l-312 104l20 106h6l448 -159l-19 -106z" />
    <glyph glyph-name="question" unicode="?" horiz-adv-x="502" 
d="M475 576q12 -91 -40 -174q-37 -59 -108 -87q-27 -11 -68 -18l-8 -2q-4 -20 -11 -60t-11 -60l-112 1q-1 8 16 105.5t22 114.5q1 0 5 0.5t6 0.5h55q35 0 66 15q17 7 32 19q29 26 37 58q7 32 2 56q-6 35 -39 50q-17 9 -44 11q-104 3 -207 -51l21 105q36 20 75 30
q74 21 158 15q38 -3 71 -18q73 -31 82 -111zM199 0l19 106h-115l-19 -106h115z" />
    <glyph glyph-name="at" unicode="@" horiz-adv-x="997" 
d="M971 468q8 -73 -19 -161q-25 -87 -75 -152q-28 -36 -62 -60q-38 -26 -76 -33q-30 -6 -58 1q-44 9 -65 57h-3q-55 -49 -125 -58q-55 -8 -100 6q-82 26 -99 112q-8 40 0 87q13 81 65 143.5t131 79.5q49 11 96 -1q43 -11 81 -53h3l19 42h53l-51 -288q-2 -22 1 -33
q6 -27 35 -29q10 -1 26 4q19 8 34 20q27 20 50 55q34 53 50 119q12 47 13 85q2 61 -19 109q-30 71 -99 111q-49 27 -101 34q-110 19 -218 -16.5t-188 -114.5q-107 -106 -136 -257q-13 -62 -7 -119q10 -108 76 -180q49 -54 125 -79q54 -19 121 -21q110 -3 218 29q7 2 32 11
l-12 -72q-2 -1 -7.5 -3.5t-8.5 -3.5q-45 -14 -97 -22q-78 -12 -142 -9q-105 5 -182 41q-160 77 -194 250q-10 58 -6 117q17 200 150 344q83 89 199 138t238 43q93 -3 165 -38q89 -42 134 -123q27 -47 35 -112zM630 275q7 40 -1 71q-13 63 -77 78q-26 5 -58 -1
q-58 -11 -94 -63.5t-39 -122.5q0 -76 56 -99q40 -16 82 -9q41 7 76 39q42 41 55 107z" />
    <glyph glyph-name="A" unicode="A" horiz-adv-x="714" 
d="M506 699q118 -565 146 -699h-130l-29 146l-314 1l-82 -147h-131l394 699h146zM233 250h240q1 6 -26.5 149.5t-34.5 172.5h-3z" />
    <glyph glyph-name="B" unicode="B" horiz-adv-x="758" 
d="M577 353l-1 -3q43 -7 74 -32t38 -66q10 -66 -22 -134q-17 -33 -45.5 -56t-57.5 -35t-72.5 -18.5t-74 -7.5t-78.5 -1h-312q33 189 123 699h301q49 0 74 -1q34 -2 65 -8.5t64 -20t53.5 -40.5t22.5 -63q3 -63 -23 -121q-27 -63 -129 -92zM558 163q15 23 13 57t-27 52
q-17 12 -44 18t-44 7t-54 2h-204l-35 -198h213q42 0 68 2t61.5 17t52.5 43zM423 399q188 0 183 130q-7 67 -139 67h-216l-34 -197h206z" />
    <glyph glyph-name="C" unicode="C" horiz-adv-x="783" 
d="M361 -13q-113 7 -200.5 71t-101.5 176q-13 95 22 192q43 120 148.5 198t238.5 90q50 3 92 -1q152 -18 225 -130q-16 -10 -47.5 -30t-47.5 -30q-74 103 -228 90q-80 -9 -145 -49.5t-102 -111.5q-39 -75 -39 -167q0 -70 45 -124t119 -67q76 -13 152 5.5t131 70.5l76 -62
q-65 -62 -152 -93.5t-186 -27.5z" />
    <glyph glyph-name="D" unicode="D" horiz-adv-x="776" 
d="M502 695q122 -12 195 -74t65 -186q-5 -95 -34 -180q-46 -137 -158 -196t-283 -59h-243q18 103 38.5 219.5t45.5 259t39 220.5h250q48 0 85 -4zM640 403q11 126 -68 165q-48 26 -133 29h-172l-87 -495h102q66 -2 119 5q81 9 138.5 53t77.5 122q17 55 23 121z" />
    <glyph glyph-name="E" unicode="E" horiz-adv-x="691" 
d="M691 598h-431l-35 -197h380l-18 -103h-380l-36 -197h433q-3 -18 -10 -54.5t-9 -46.5h-553l126 699h551z" />
    <glyph glyph-name="F" unicode="F" horiz-adv-x="649" 
d="M687 598h-431l-35 -197h380l-18 -103h-380l-56 -298h-119l126 699h551z" />
    <glyph glyph-name="G" unicode="G" horiz-adv-x="821" 
d="M412 312l17 92h346l-72 -404h-71q-4 11 -13.5 37.5t-15.5 40.5h-4q-54 -54 -110.5 -74.5t-137.5 -16.5q-110 0 -196.5 68.5t-103.5 178.5q-15 94 21.5 186.5t105.5 159.5t165.5 104.5t194.5 29.5q74 -5 139.5 -38t99.5 -92l-97 -60q-73 95 -209 90q-133 -7 -220 -104
t-84 -232q4 -79 57.5 -130.5t136.5 -58.5q74 -7 138.5 18t99.5 87q23 40 36 97q2 7 4 21h-227z" />
    <glyph glyph-name="H" unicode="H" horiz-adv-x="755" 
d="M611 699h120l-124 -699h-119l54 307h-353l-54 -307h-119l123 699h120l-52 -292h353z" />
    <glyph glyph-name="I" unicode="I" horiz-adv-x="279" 
d="M144 699h120l-124 -699h-119z" />
    <glyph glyph-name="J" unicode="J" horiz-adv-x="609" 
d="M268 699h327l-60 -344q-14 -75 -19 -101q-16 -88 -62 -157t-125 -94q-43 -13 -92 -16q-42 -3 -76 -2q-110 7 -169 58l83 89q48 -48 142 -45q71 2 110.5 35t62.5 106q10 35 20 94l49 275h-208z" />
    <glyph glyph-name="K" unicode="K" horiz-adv-x="728" 
d="M760 699l-348 -299l247 -400h-154l-192 316l-125 -102l-38 -214h-119l123 699h120l-59 -334l4 1l389 333h152z" />
    <glyph glyph-name="L" unicode="L" horiz-adv-x="581" 
d="M161 103h358l-19 -103h-476l123 699h119z" />
    <glyph glyph-name="M" unicode="M" horiz-adv-x="826" 
d="M676 699h127q-14 -77 -123 -701h-119l86 494h-6l-267 -341l-149 342h-5q-15 -82 -43.5 -246.5t-43.5 -246.5h-121l125 699h131l139 -337h6z" />
    <glyph glyph-name="N" unicode="N" horiz-adv-x="774" 
d="M637 699h119l-123 -699h-109l-292 508h-4l-90 -508h-119l122 699h122l280 -497h6z" />
    <glyph glyph-name="O" unicode="O" horiz-adv-x="872" 
d="M495 712q105 0 185 -39.5t122 -119t29 -185.5q-17 -124 -96 -221.5t-201 -137.5q-70 -24 -158 -24q-99 0 -177.5 40.5t-120 120t-26.5 182.5q22 160 148.5 272t294.5 112zM712 373q11 102 -49 169.5t-168 67.5q-123 0 -216 -77.5t-108 -200.5q-14 -99 39 -166.5
t154 -74.5q73 -6 136 14q90 27 144.5 98.5t67.5 169.5z" />
    <glyph glyph-name="P" unicode="P" horiz-adv-x="710" 
d="M694 523v-2q5 -84 -50 -165q-80 -115 -283 -115h-178l-42 -241h-121l125 699h310q99 0 163.5 -42t75.5 -134zM544 402q31 45 28 105q-3 43 -35.5 66.5t-87.5 23.5h-204l-44 -255h185q116 0 158 60z" />
    <glyph glyph-name="Q" unicode="Q" horiz-adv-x="873" 
d="M486 715q105 0 185 -39.5t122 -119t29 -185.5q-17 -124 -96 -221.5t-201 -137.5q-15 -5 -35 -10l39 -145h-119l-36 131h-7q-99 0 -177.5 40.5t-120 120t-26.5 182.5q22 160 148.5 272t294.5 112zM703 376q11 102 -49 169.5t-168 67.5q-123 0 -216 -77.5t-108 -200.5
q-14 -99 39 -166.5t154 -74.5q73 -6 136 14q90 27 144.5 98.5t67.5 169.5z" />
    <glyph glyph-name="R" unicode="R" horiz-adv-x="706" 
d="M697 522q5 -85 -50 -166q-50 -72 -143 -99l76 -258h-131l-70 242h-15h-171l-42 -241h-121l125 699h303q99 0 163.5 -42.5t75.5 -134.5zM547 402q31 45 28 105q-3 43 -35.5 66t-87.5 23h-197l-44 -254h178q116 0 158 60z" />
    <glyph glyph-name="S" unicode="S" horiz-adv-x="719" 
d="M273 90q29 -6 72 -1t83.5 16t69.5 40t29 70q0 14 -7.5 26.5t-23 21t-30.5 15t-38 12t-37.5 8t-37 6t-28.5 4.5q-71 10 -119 28q-104 39 -105 116q-2 71 25 123.5t76 82t109 43.5t132 14q66 0 134 -23t120 -66l-99 -81q-38 33 -94.5 51t-118.5 16q-132 -5 -156 -84
q-6 -15 -4 -28t4.5 -22t12 -17t17.5 -13t22.5 -9.5t26 -7.5t28.5 -6q22 -4 79 -13q33 -6 56.5 -11t60.5 -17.5t60.5 -27.5t41.5 -41t18 -57q0 -110 -81 -180.5t-199 -86.5q-57 -7 -119 -4q-153 7 -246 102q63 55 98 84q27 -33 72.5 -55t95.5 -28z" />
    <glyph glyph-name="T" unicode="T" horiz-adv-x="631" 
d="M78 699h588l-20 -101h-234l-106 -598h-119l105 598h-233z" />
    <glyph glyph-name="U" unicode="U" horiz-adv-x="784" 
d="M640 699h119l-51 -293q-13 -76 -20 -109q-22 -94 -73 -165q-83 -116 -222 -141q-51 -9 -108 -4q-36 3 -67 13q-109 36 -142 145q-13 39 -13 84q-3 51 9 113q5 25 32 177.5t32 179.5h119q-4 -21 -27.5 -151.5t-26.5 -151.5l-15 -93q-8 -60 6 -112q13 -42 43 -70
q29 -25 70 -31q85 -14 152 33q36 24 62 62q35 51 49 114q2 9 16 80z" />
    <glyph glyph-name="V" unicode="V" horiz-adv-x="674" 
d="M580 699h125l-394 -699h-115l-147 699h125l100 -562h3z" />
    <glyph glyph-name="W" unicode="W" horiz-adv-x="1053" 
d="M958 699h131l-339 -699h-145l-68 512h-6l-246 -512h-155l-84 699h129l55 -559h2q40 78 286 559h96l90 -559h3z" />
    <glyph glyph-name="X" unicode="X" 
d="M416 362v-9l186 -353l-140 1l-135 273h-7l-232 -274h-139l311 354l1 11l-176 334h137l127 -255h6l219 255h137z" />
    <glyph glyph-name="Y" unicode="Y" horiz-adv-x="628" 
d="M540 699h126l-317 -424l-47 -275h-120l49 278l-174 421h132l120 -318h3q76 104 228 318z" />
    <glyph glyph-name="Z" unicode="Z" horiz-adv-x="666" 
d="M664 592l-486 -484l-1 -8h409l-17 -100h-549l22 115l481 475l1 7h-397l15 102h542z" />
    <glyph glyph-name="bracketleft" unicode="[" horiz-adv-x="344" 
d="M191 772h202l-16 -100h-85l-131 -740h85l-16 -100h-202z" />
    <glyph glyph-name="backslash" unicode="\" horiz-adv-x="325" 
d="M264 -99h-104l-80 852h104z" />
    <glyph glyph-name="bracketright" unicode="]" horiz-adv-x="298" 
d="M111 772h201l-162 -940h-202l16 100h83l131 740h-83z" />
    <glyph glyph-name="asciicircum" unicode="^" horiz-adv-x="484" 
d="M436 332v-16h-108l-57 251h-4l-144 -251h-105v11l220 373h108z" />
    <glyph glyph-name="underscore" unicode="_" horiz-adv-x="415" 
d="M397 0l-17 -101h-372l17 101h372z" />
    <glyph glyph-name="grave" unicode="`" horiz-adv-x="258" 
d="M224 565h-99l-106 164h124z" />
    <glyph glyph-name="a" unicode="a" horiz-adv-x="635" 
d="M526 0h-96l-7 53h-3q-45 -40 -92 -54.5t-115 -14.5q-185 0 -165 171q6 50 47 83.5t92.5 45.5t111.5 12q53 1 156 -10q7 50 -15 82.5t-66 38.5q-117 12 -196 -67q-8 3 -42.5 21t-44.5 25q42 53 103 86t128 38q73 7 131 -11q143 -48 122 -226q-27 -165 -49 -273zM440 198
q-63 10 -146 10q-54 1 -92.5 -16.5t-38.5 -56.5q0 -47 69 -53q177 -14 208 116z" />
    <glyph glyph-name="b" unicode="b" horiz-adv-x="669" 
d="M625 343q17 -72 -13 -148q-39 -100 -134.5 -161.5t-201.5 -46.5q-88 10 -117 66h-6l-22 -53h-100l119 674l116 25l-44 -258h5v1q42 53 142 68q60 9 119 -10q111 -39 137 -157zM329 86q83 2 139.5 75.5t40.5 155.5q-13 68 -83 88q-40 11 -85 0q-75 -19 -115.5 -80
t-31.5 -128q6 -50 44 -80.5t91 -30.5z" />
    <glyph glyph-name="c" unicode="c" horiz-adv-x="589" 
d="M183 0q-96 36 -128.5 128t13.5 191q32 70 92.5 118.5t139.5 66.5q75 17 147 -4q72 -20 115 -84l-100 -62q-10 20 -32.5 35t-47.5 18q-109 14 -174 -64q-35 -40 -44.5 -97t18 -104t90.5 -55q76 -9 154 57q12 -10 25 -20.5t28.5 -23t24.5 -19.5q-76 -76 -181 -92
q-76 -13 -140 11z" />
    <glyph glyph-name="d" unicode="d" horiz-adv-x="669" 
d="M554 672l116 27q-15 -85 -58.5 -328t-65.5 -371h-100q0 2 -1.5 23t-1.5 29h-7q-18 -23 -52 -40q-73 -34 -146 -27q-37 3 -72 16q-100 40 -126 148q-17 76 14 154q38 94 127 154.5t191 53.5q97 -6 134 -72h5zM364 105q58 29 86.5 84.5t21.5 110.5q-5 45 -39 75t-83 34
q-89 5 -145 -60q-49 -53 -52 -137q0 -87 76 -118q22 -9 54 -9q46 2 81 20z" />
    <glyph glyph-name="e" unicode="e" horiz-adv-x="634" 
d="M56 293q30 78 95 135.5t149 76.5q89 18 159 -9q167 -64 130 -291h-427q0 -49 32 -80t71 -37q48 -7 95 12t76 58q8 -3 47 -23t46 -25q-43 -72 -138 -104.5t-187 -12.5q-64 14 -106 57.5t-52 104.5q-12 75 10 138zM320 408q-46 -8 -87 -38t-53 -72h298q0 33 -22.5 62.5
t-56.5 41.5q-36 14 -79 6z" />
    <glyph glyph-name="f" unicode="f" horiz-adv-x="357" 
d="M275 702q67 13 136 -3l-18 -105q-44 12 -89 0q-40 -12 -56 -51q-10 -24 -11 -48h114l-17 -101h-116q-12 -65 -35 -197t-34 -197h-120q3 16 16.5 91.5t31 175.5t22.5 127h-77q2 17 8 50.5t9 50.5h78l2 13q8 47 23 82q16 36 39 60q38 40 94 52z" />
    <glyph glyph-name="g" unicode="g" 
d="M544 495h95l-79 -446q-45 -222 -207 -270q-57 -16 -116 -16q-72 0 -149.5 21t-97.5 50q9 20 25.5 55.5t21.5 46.5q68 -59 176 -70q49 -4 97 6q67 15 98 74q20 37 33 107h-7q-20 -25 -58 -43.5t-70 -23.5q-76 -11 -140 16q-100 43 -123 152q-16 79 17 152q39 89 119.5 147
t178.5 58q47 0 89.5 -20t63.5 -53h6zM431 153q59 69 46 155q-6 43 -40 71t-80 30q-63 4 -114.5 -31t-72.5 -97q-14 -50 -8 -93.5t40 -73t87 -30.5q91 8 142 69z" />
    <glyph glyph-name="h" unicode="h" horiz-adv-x="691" 
d="M514 500q141 -42 105 -263l-42 -237h-118l46 263q14 130 -105 147q-76 7 -136.5 -38.5t-74.5 -120.5l-46 -251l-118 -1l116 669l126 31l-43 -258h5q1 0 1 0.5t1 0.5q60 66 173 71q69 0 110 -13z" />
    <glyph glyph-name="i" unicode="i" horiz-adv-x="259" 
d="M11 0l88 495h119l-89 -495h-118zM122 637q0 24 13 41q23 31 57 35q31 4 49.5 -17.5t11.5 -49.5q-6 -26 -29 -45t-49 -18q-25 1 -39.5 17.5t-13.5 36.5z" />
    <glyph glyph-name="j" unicode="j" horiz-adv-x="259" 
d="M-29 -224l127 719h120l-122 -684zM122 637q0 24 13 41q23 31 57 35q31 4 49.5 -17.5t11.5 -49.5q-6 -26 -29 -45t-49 -18q-25 1 -39.5 17.5t-13.5 36.5z" />
    <glyph glyph-name="k" unicode="k" horiz-adv-x="590" 
d="M592 495l-221 -180l137 -315h-141q-55 135 -95 232l-126 -104l-23 -128h-118l117 669l126 30l-75 -422h2l263 218h154z" />
    <glyph glyph-name="l" unicode="l" horiz-adv-x="259" 
d="M138 667l126 32l-124 -699h-119z" />
    <glyph glyph-name="m" unicode="m" horiz-adv-x="1062" 
d="M1002 340q1 -32 -9 -92l-44 -248h-119l46 259q6 31 4 66q-10 76 -84 82q-74 7 -139 -48q-56 -47 -68 -122l-41 -238l-120 1l45 253q19 134 -60 151q-63 14 -120 -18q-87 -47 -106 -143l-44 -243h-119q77 433 88 495h95l2 -84h6q62 82 172 97q56 8 110 -9q75 -24 97 -100
h7q35 47 92.5 79t118.5 32q54 0 88 -11q99 -34 102 -159z" />
    <glyph glyph-name="n" unicode="n" horiz-adv-x="691" 
d="M505 501q63 -19 92 -73t22 -125q0 -2 -15 -97q-4 -21 -18.5 -103t-18.5 -103h-118q6 39 22.5 128t23.5 136q10 58 -10 98t-76 46q-114 12 -193 -85q-29 -37 -39 -95l-40 -228h-120q5 27 13.5 74.5t29 160.5t46.5 260h94l3 -81h7q56 67 159 90q72 16 136 -3z" />
    <glyph glyph-name="o" unicode="o" horiz-adv-x="640" 
d="M300 502q81 22 157 -3q119 -42 145 -166q14 -68 -16 -144q-38 -93 -120.5 -149t-181.5 -56q-90 0 -152.5 45.5t-79.5 130.5q-15 81 22 157q71 144 226 185zM485 307q-6 39 -35.5 68t-69.5 32q-84 7 -146 -46.5t-66 -138.5q0 -44 19.5 -79t61.5 -49q47 -17 100 -1
q74 22 110.5 86t25.5 128z" />
    <glyph glyph-name="p" unicode="p" horiz-adv-x="672" 
d="M615 334q13 -67 -16 -140q-35 -91 -118.5 -151t-181.5 -60q-47 0 -89 17.5t-64 54.5h-5l-42 -228l-118 -30l125 698h89l13 -53h6q40 48 115.5 64t137.5 -5q124 -37 148 -167zM438 135q58 55 61 149q-1 43 -23 76.5t-63 42.5q-63 14 -124 -15.5t-90 -87.5
q-29 -54 -18 -114q9 -40 40 -67.5t74 -31.5q83 -9 143 48z" />
    <glyph glyph-name="q" unicode="q" horiz-adv-x="672" 
d="M557 494h89l-117 -671l-118 -28l46 260h-6q-30 -35 -79.5 -54t-102.5 -18q-49 0 -86 15q-103 40 -130 148q-19 75 11 152q35 96 124.5 158t193.5 55q41 -1 81.5 -18.5t54.5 -51.5h7zM457 176q38 63 28 128q-10 63 -69 91q-29 14 -66 14q-82 0 -137.5 -68t-45.5 -156
q9 -72 79 -93q34 -11 74 -5q90 15 137 89z" />
    <glyph glyph-name="r" unicode="r" horiz-adv-x="422" 
d="M193 272l-50 -272h-118q22 130 87 495h94l9 -60h3q40 48 95 65q48 14 93 8q16 -2 23 -6l-22 -123q-22 10 -33 13q-43 10 -79 1q-85 -22 -102 -121z" />
    <glyph glyph-name="s" unicode="s" horiz-adv-x="526" 
d="M68 307q-6 110 83 163.5t212 37.5q94 -12 135 -61l-81 -81q-31 31 -94 42q-23 2 -52.5 2.5t-55.5 -14.5t-26 -43q2 -23 38 -36q18 -5 52 -11q59 -7 95 -20q47 -16 73 -50.5t17 -83.5q-10 -61 -52 -101t-106 -55q-64 -16 -141 -9q-120 13 -163 73q37 42 77 83
q56 -56 167 -56q39 0 69.5 16t27.5 53q0 36 -92 50q-64 10 -96 20q-74 21 -87 81z" />
    <glyph glyph-name="t" unicode="t" horiz-adv-x="371" 
d="M237 394l-66 -394h-120l66 394h-94q7 45 17 101h95l25 140l123 24l-27 -164h104l-17 -101h-106z" />
    <glyph glyph-name="u" unicode="u" 
d="M520 496h118q-31 -191 -87 -496h-93q-1 9 -3 28t-4 28h-6q-33 -40 -104 -60q-53 -15 -117 -9q-39 3 -71 13q-7 4 -13 5q-81 33 -98 123q-8 46 0 93q6 40 20 120q3 21 13 77.5t14 77.5h119q-34 -189 -45 -261q-5 -30 0 -62q12 -66 78 -81q79 -19 148 24.5t86 121.5
q3 14 7.5 40t6.5 34q3 19 15.5 92t15.5 92z" />
    <glyph glyph-name="v" unicode="v" horiz-adv-x="574" 
d="M469 494h131l-298 -494h-143l-125 494h129l84 -384h6z" />
    <glyph glyph-name="w" unicode="w" horiz-adv-x="800" 
d="M696 495h131q-135 -248 -270 -495h-136l-30 250h-5l-119 -250h-134q-17 84 -49 251t-47 244h129l60 -354h4l161 353h81l36 -353h5z" />
    <glyph glyph-name="x" unicode="x" horiz-adv-x="547" 
d="M347 253l-1 -4l152 -249h-134l-100 169h-3l-161 -169h-140l245 249v4l-136 242h138l82 -162h5l137 161h137z" />
    <glyph glyph-name="y" unicode="y" horiz-adv-x="574" 
d="M466 495h129l-425 -713h-123l126 217q-21 78 -68.5 243t-71.5 253h128l90 -354h4q1 0 3 5z" />
    <glyph glyph-name="z" unicode="z" horiz-adv-x="573" 
d="M538 398l-360 -290l-1 -7h316l-15 -101h-478l24 97l361 289l2 8h-312l18 100l462 1z" />
    <glyph glyph-name="braceleft" unicode="{" horiz-adv-x="362" 
d="M202 669q50 108 194 108l-13 -96q-23 0 -37 -2.5t-31 -15t-26 -36.5q-5 -15 -11 -47q-8 -47 -24 -143q-7 -34 -17 -56q-8 -16 -16 -28q-23 -33 -60 -45q-2 0 -5.5 -1t-5.5 -2v-3q43 -11 57 -60q6 -21 2 -55q-6 -38 -10 -57q-6 -37 -20 -111q-2 -12 -2 -38q2 -28 28 -37
q9 -4 26 -6t20 -2l-17 -99q-50 0 -85 12q-71 25 -77 102q-3 31 4 69q3 20 10.5 59.5t10.5 59.5q5 33 -1 56q-10 50 -61 57q-6 0 -8 1l16 97q1 0 4 0.5t4 0.5q44 3 74 42q19 25 27 58q3 13 13.5 74t18.5 93q6 27 18 51z" />
    <glyph glyph-name="bar" unicode="|" horiz-adv-x="261" 
d="M251 728l-150 -842h-99l148 842h101z" />
    <glyph glyph-name="braceright" unicode="}" horiz-adv-x="375" 
d="M304 352q1 0 4.5 -0.5t6.5 -0.5q-3 -17 -8.5 -48.5t-8.5 -48.5q-2 0 -5.5 -0.5t-5.5 -0.5q-41 -5 -66 -36q-27 -32 -35 -75q-4 -16 -9 -47.5t-6 -34.5l-5 -29q-6 -29 -10 -43q-3 -17 -17 -47q-33 -65 -103 -89q-38 -14 -93 -14l16 99q4 1 11 1q18 2 36 6q32 9 44 40
q9 17 12 43q3 15 8 45t8 46q5 29 14 74q7 29 19 49q24 43 79 61l1 4q-49 14 -58 63q-5 33 1 70l27 147q5 24 4 43q0 53 -73 53l16 96q127 0 153 -78q5 -15 7 -36q3 -43 -7 -95q-16 -93 -18 -104q-7 -34 1 -61q12 -46 60 -52z" />
    <glyph glyph-name="asciitilde" unicode="~" horiz-adv-x="467" 
d="M416 367q8 6 15 11l-16 -85q-31 -24 -73 -37q-35 -11 -78 1q-7 2 -14 4.5t-15 5.5t-13 5q-11 3 -25 8q-42 12 -84 -3q-21 -7 -43 -21l-5 -2.5l-5 -2.5l11 77q52 37 102 41q27 2 64 -10q8 -2 38 -14q26 -8 38 -9q21 -4 47 3q28 10 56 28z" />
    <glyph glyph-name="exclamdown" unicode="&#xa1;" horiz-adv-x="209" 
d="M145 274l-55 -391h-124l84 391h95zM57 381q0 19 12 34q20 25 52 29q29 3 45.5 -15t10.5 -41q-6 -22 -27 -37.5t-45 -14.5q-22 1 -35.5 14.5t-12.5 30.5z" />
    <glyph glyph-name="cent" unicode="&#xa2;" horiz-adv-x="579" 
d="M319 97q47 12 94 53q12 -10 25 -20.5t28.5 -23t24.5 -19.5q-76 -76 -181 -92q-1 0 -4.5 -0.5t-5.5 -0.5l-18 -103h-104l19 107q-9 2 -27 8q-96 36 -128.5 128t13.5 191q32 70 92.5 118.5t139.5 66.5h1l19 106h104l-18 -101q22 -3 41 -9q72 -20 115 -84l-100 -62
q-9 19 -29.5 33t-44.5 19zM195 349q-30 -35 -41.5 -84t4.5 -94.5t58 -65.5l53 298q-43 -18 -74 -54z" />
    <glyph glyph-name="sterling" unicode="&#xa3;" horiz-adv-x="571" 
d="M578 692q5 -2 15 -7l-20 -109q-11 4 -14 5q-66 26 -133 26q-57 0 -100.5 -35.5t-46.5 -94.5l-3 -54v-5v-6v-5h198l-18 -101h-155q7 -60 -21 -106q-35 -58 -80 -91l2 -8h313l-17 -100h-472l13 103q37 18 63 40q28 25 46 51q30 46 26 111h-15h-83l19 101h56v14q-3 62 9 106
q24 94 109 141.5t199 43.5q59 -3 110 -20z" />
    <glyph glyph-name="currency" unicode="&#xa4;" horiz-adv-x="472" 
d="M375 365q-7 -17 -18 -40l45 -56l-81 -71l-50 59l-12 -3q-49 -14 -95 0l-9 3q-11 -10 -61 -52q-3 -3 -9 -7l-59 70l65 55q0 2 -1.5 18.5t-1.5 24.5q-1 18 7 40q1 2 17 40l-44 57l83 70q8 -9 23.5 -28t24.5 -29q6 0 9 1q52 15 102 -1q3 0 6 -1l69 58l58 -69l-64 -56
q0 -2 1.5 -18.5t1.5 -24.5q0 -22 -7 -40zM296 396q1 32 -30 41q-35 11 -66 -10q-28 -19 -26 -57q1 -22 23 -33q15 -6 29 -5q16 -1 31 6q39 16 39 58z" />
    <glyph glyph-name="yen" unicode="&#xa5;" horiz-adv-x="671" 
d="M705 699l-290 -387h185l-11 -68h-206l-9 -51h206l-11 -68h-207l-21 -125h-120l22 125h-212l11 68h213l9 51h-212l11 68h193l-159 387h131l120 -319l3 1q44 60 128 177t101 141h125z" />
    <glyph glyph-name="brokenbar" unicode="&#xa6;" horiz-adv-x="261" 
d="M178 357h-100l65 372h102zM61 257h99l-65 -370h-99z" />
    <glyph glyph-name="section" unicode="&#xa7;" horiz-adv-x="638" 
d="M467 451q48 -15 82.5 -43.5t34.5 -73.5q0 -78 -33.5 -115.5t-107.5 -59.5l-1 -5q69 -32 55 -116q-12 -74 -82 -119q-38 -25 -96 -37q-61 -14 -133 -9q-104 6 -158 56l83 79q30 -23 79 -32q59 -10 120 2q71 15 68 78q-1 13 -8 22t-20.5 14.5t-24 8.5t-29 6.5t-25.5 5.5
q-10 2 -88 18q-131 32 -133 118q-3 60 27 112q33 56 106 69l1 4q-20 8 -35 33t-15 51q-1 143 170 185q77 17 149 10q88 -7 145 -51l-82 -80q-57 33 -122 34q-132 0 -138 -76q-3 -43 55 -57q15 -3 47.5 -8.5t58.5 -11t50 -12.5zM300 215q27 0 51 3.5t51 12.5t43 29.5t16 50.5
q-4 55 -96 62q-51 6 -105 -5q-32 -5 -58 -24t-29 -51q-2 -24 9.5 -40.5t32.5 -24t40.5 -10.5t44.5 -3z" />
    <glyph glyph-name="dieresis" unicode="&#xa8;" horiz-adv-x="430" 
d="M47 650q0 24 13 41q23 31 57 35q31 4 49.5 -17.5t11.5 -49.5q-6 -26 -29 -45t-49 -18q-25 1 -39.5 17.5t-13.5 36.5zM252 650q0 24 13 41q23 31 57 35q31 4 49.5 -17.5t11.5 -49.5q-6 -26 -29 -45t-49 -18q-25 1 -39.5 17.5t-13.5 36.5z" />
    <glyph glyph-name="copyright" unicode="&#xa9;" horiz-adv-x="857" 
d="M805 473q19 -99 -23 -201q-51 -126 -163.5 -204.5t-249.5 -78.5q-123 0 -209.5 63.5t-108.5 184.5q-14 75 12 160q28 84 89 155q69 76 163.5 120t195.5 39q109 -6 186 -66q88 -67 108 -172zM730 316q23 72 6 142q-30 117 -145 166q-82 34 -181 13q-123 -26 -211 -125
q-50 -56 -72 -125q-20 -67 -9 -130q18 -89 89.5 -144t168.5 -57q33 0 70 8q101 21 178 89q79 71 106 163zM396 209q72 -6 138 44l40 -33q-48 -51 -128 -64q-60 -10 -111 6q-49 16 -81 56t-33 92q-2 101 73 172t178 73q49 0 89 -20q37 -18 62 -52l-54 -33q-41 41 -77 47
q-65 10 -122 -24t-76 -99q-10 -36 -7 -69q8 -61 60 -84q24 -11 49 -12z" />
    <glyph glyph-name="ordfeminine" unicode="&#xaa;" horiz-adv-x="474" 
d="M387 343h-67l-7 38h-2q-70 -63 -175 -49q-54 12 -79.5 45.5t-10.5 82.5q12 31 33 50.5t52 27.5t55 10t62 2q51 0 86 -5q7 35 -8.5 60t-50.5 29q-86 7 -131 -50l-69 33q43 63 137 85q57 11 107 0q47 -10 73.5 -40.5t29.5 -68t-3 -79.5zM324 486q-37 4 -99 4q-92 0 -97 -45
q-3 -24 18.5 -35.5t46.5 -10t42 1.5q38 6 62 28t27 57z" />
    <glyph glyph-name="guillemotleft" unicode="&#xab;" horiz-adv-x="582" 
d="M351 488l-187 -201l114 -201h-118l-114 201l187 201h118zM568 488l-187 -201l114 -201h-118l-114 201l187 201h118z" />
    <glyph glyph-name="logicalnot" unicode="&#xac;" horiz-adv-x="541" 
d="M62 434h431l-42 -266h-104l26 166h-328z" />
    <glyph glyph-name="registered" unicode="&#xae;" horiz-adv-x="857" 
d="M143 59q-107 85 -107 226q0 105 56 197q108 176 309 218q101 23 198 -10q125 -45 176 -161q30 -66 24 -146q-10 -122 -92 -221q-97 -119 -246 -160q-66 -18 -133 -14q-109 8 -185 71zM118 385q-24 -77 -6 -145q28 -112 136 -161q78 -34 171 -20q83 14 152 60
q97 67 138 164q31 75 21 149q-15 100 -95 159q-69 51 -167 51q-42 0 -76 -9q-116 -29 -195 -114q-57 -60 -79 -134zM615 468q6 -58 -26 -105q-23 -36 -66 -52l43 -149h-72l-38 135h-135l-24 -135h-64l66 384h188q115 0 128 -78zM478 355q35 5 55.5 31t15.5 61q-6 41 -72 43
h-121l-23 -137h34.5h43h34.5q22 0 33 2z" />
    <glyph glyph-name="degree" unicode="&#xb0;" horiz-adv-x="393" 
d="M134 435q-67 13 -81 85q-7 42 3 71q20 54 64 85.5t102 31.5q33 0 62 -13q59 -29 61 -96q3 -82 -60 -131.5t-151 -32.5zM137 560q-3 -34 33 -44q18 -5 37 0q50 11 53 60q1 21 -14.5 34t-38.5 13q-28 0 -47.5 -17t-22.5 -46z" />
    <glyph glyph-name="plusminus" unicode="&#xb1;" horiz-adv-x="594" 
d="M526 56l16 100h-469l-17 -100h470zM611 505l-18 -99h-185l-33 -187h-102l33 187h-185l17 99h186l33 186h102l-33 -186h185z" />
    <glyph glyph-name="twosuperior" unicode="&#xb2;" horiz-adv-x="292" 
d="M206 503q-23 -19 -61 -41q-9 -6 -11 -7l1 -3h116l-9 -61q-71 -1 -225 -1l12 69l7 3.5l7 3.5q61 32 80 44q31 20 47 36q26 26 32 54q2 6 2 18q0 30 -30 32q-42 3 -92 -31l-27 49q37 31 96 44q35 5 64 -2q56 -14 62 -70q2 -17 -3 -42q-8 -28 -24 -50q-19 -24 -44 -45z" />
    <glyph glyph-name="threesuperior" unicode="&#xb3;" horiz-adv-x="290" 
d="M261 642q-6 -4 -72 -64v-2q3 -3 5 -3q3 -1 9.5 -3.5t9.5 -4.5q32 -17 36 -52q7 -54 -27.5 -91.5t-92.5 -42.5q-68 -5 -113 8q-3 1 -8 2.5t-9 3t-7 3.5l35 59q4 -1 11 -3.5t9 -3.5q41 -14 93 -6q9 2 17 5q7 3 11 9q13 16 10 41q-1 12 -14 19q-19 11 -63 15v47l63 56v4
h-107l8 62h207z" />
    <glyph glyph-name="acute" unicode="&#xb4;" horiz-adv-x="247" 
d="M275 730l-168 -164h-99l143 164h124z" />
    <glyph glyph-name="mu" unicode="&#xb5;" horiz-adv-x="673" 
d="M527 495h117q-14 -101 -44 -260q-11 -64 -39 -114q-39 -75 -111 -108q-38 -18 -84 -24q-35 -4 -55 -5q-56 0 -97 17q-48 20 -69 55h-5q-31 -167 -42 -227l-123 -33q18 102 61.5 355.5t59.5 343.5h119q-11 -68 -43 -251q-6 -30 0 -61q16 -68 85 -91q17 -5 41 -7q40 0 65 7
q60 18 94 73q18 31 26 73q25 132 44 257z" />
    <glyph glyph-name="paragraph" unicode="&#xb6;" horiz-adv-x="543" 
d="M265 698q81 1 257 1l-9 -58h-68l-114 -641h-57l113 641h-84l-114 -641h-59l75 411q-59 0 -91 43.5t-21 100.5q21 104 121 137q20 6 51 6z" />
    <glyph glyph-name="periodcentered" unicode="&#xb7;" horiz-adv-x="246" 
d="M62 293q0 24 13 41q23 31 57 35q31 4 49.5 -17.5t11.5 -49.5q-6 -26 -29 -45t-49 -18q-25 1 -39.5 17.5t-13.5 36.5z" />
    <glyph glyph-name="cedilla" unicode="&#xb8;" horiz-adv-x="307" 
d="M292 -95q5 -31 -7 -71q-32 -97 -154 -110q-86 -8 -134 25l26 85q39 -18 96 -20q27 0 47.5 14t20.5 41q0 32 -55 36q-15 1 -45 1h-16l22 124l75 1l-6 -49q117 0 130 -77z" />
    <glyph glyph-name="onesuperior" unicode="&#xb9;" horiz-adv-x="285" 
d="M183 442h65l-10 -62h-203l11 62h67l33 187l-67 -15l9 61l91 21h47z" />
    <glyph glyph-name="ordmasculine" unicode="&#xba;" horiz-adv-x="484" 
d="M340 696q87 -34 99 -129q7 -49 -16 -97q-69 -142 -218 -142q-46 2 -81 19q-74 37 -85 122q-6 49 17 95q55 115 176 140q57 13 108 -8zM223 402q60 0 98.5 47t32.5 108q-8 57 -61 73q-32 11 -68 0q-50 -14 -77 -57t-23 -89q4 -39 29.5 -60.5t68.5 -21.5z" />
    <glyph glyph-name="guillemotright" unicode="&#xbb;" horiz-adv-x="556" 
d="M175 488l119 -201l-182 -201h-118l182 201l-119 201h118zM393 488l119 -201l-182 -201h-118l182 201l-119 201h118z" />
    <glyph glyph-name="onequarter" unicode="&#xbc;" horiz-adv-x="760" 
d="M631 139h38l-12 -68h-39l-13 -72h-78q2 10 6 35t6 37h-172l17 67q155 198 164 210h85q-125 -152 -167 -207l1 -2h85l9 48h77zM217 410h71l-10 -69h-226l12 69h75l36 208l-75 -17l10 68l102 24h52zM135 -11h-88l568 718h101z" />
    <glyph glyph-name="onehalf" unicode="&#xbd;" horiz-adv-x="776" 
d="M635 125q-30 -25 -79 -53l1 -4h128l-10 -66l-1 -1l-1 -1h-1h-246l13 76q98 41 157 97q27 27 35 59q3 12 2 21q0 15 -9 24.5t-24 11.5q-45 3 -103 -36l-29 55q45 37 107 49q37 6 71 -2q61 -17 69 -78q2 -18 -5 -47q-7 -28 -26 -55q-18 -24 -49 -50zM222 413h72l-10 -70
h-227l13 70h74l37 207l-75 -16l10 68l101 23h53zM149 -9h-89l569 718h101z" />
    <glyph glyph-name="threequarters" unicode="&#xbe;" horiz-adv-x="772" 
d="M659 140h38l-12 -68h-39l-14 -72h-77q2 10 6 35t6 37h-172l17 67q106 136 158 204l6 6h85q-3 -4 -38 -46t-50 -62q-12 -15 -35.5 -44t-35.5 -44q-2 -2 -4 -5q-1 -2 -2 -3t-2 -3l1 -2h85l9 48h77zM160 -9h-89l569 719h101zM271 570l-11 -11v-3l6 -3q4 -2 11 -4.5t10 -3.5
q34 -18 40 -58q5 -44 -18 -82t-65 -54q-19 -8 -50 -12q-72 -7 -126 9q-25 8 -26 9l39 66l10.5 -3.5t11.5 -4.5q43 -16 103 -6q15 3 18 5q9 4 13 10q14 17 11 46q-1 12 -16 21q-14 7 -31 10l-27 3l-12 3v52q12 12 36.5 32.5t33.5 29.5l1 4h-120l10 69h229l-12 -64
q-8 -7 -69 -60z" />
    <glyph glyph-name="questiondown" unicode="&#xbf;" horiz-adv-x="481" 
d="M-23 -145q-12 91 40 174q37 59 108 87q27 11 68 18l8 2q4 20 11 60t11 60l112 -1q1 -8 -16 -105.5t-22 -114.5q-1 0 -5 -0.5t-6 -0.5h-55q-35 0 -66 -15q-17 -7 -32 -19q-29 -26 -37 -58q-7 -32 -2 -56q6 -35 39 -50q17 -9 44 -11q104 -3 207 51l-21 -105
q-36 -19 -75 -30q-74 -21 -158 -15q-38 3 -71 18q-73 31 -82 111zM234 325l19 106h115l-19 -106h-115z" />
    <glyph glyph-name="Agrave" unicode="&#xc0;" horiz-adv-x="705" 
d="M506 699q118 -565 146 -699h-130l-29 146l-314 1l-82 -147h-131l394 699h146zM233 250h240q1 6 -26.5 149.5t-34.5 172.5h-3zM476 769h-99l-106 164h124z" />
    <glyph glyph-name="Aacute" unicode="&#xc1;" horiz-adv-x="705" 
d="M506 699q118 -565 146 -699h-130l-29 146l-314 1l-82 -147h-131l394 699h146zM233 250h240q1 6 -26.5 149.5t-34.5 172.5h-3zM660 934l-168 -164h-99l143 164h124z" />
    <glyph glyph-name="Acircumflex" unicode="&#xc2;" horiz-adv-x="705" 
d="M506 699q118 -565 146 -699h-130l-29 146l-314 1l-82 -147h-131l394 699h146zM233 250h240q1 6 -26.5 149.5t-34.5 172.5h-3zM658 792v-15h-136l-62 99h-4l-85 -99h-131v11l175 157h108z" />
    <glyph glyph-name="Atilde" unicode="&#xc3;" horiz-adv-x="705" 
d="M506 699q118 -565 146 -699h-130l-29 146l-314 1l-82 -147h-131l394 699h146zM233 250h240q1 6 -26.5 149.5t-34.5 172.5h-3zM614 899q8 6 15 11l-16 -85q-31 -24 -73 -37q-35 -11 -78 1l-42 15q-11 3 -25 8q-42 12 -84 -3q-21 -7 -43 -21l-5 -2.5l-5 -2.5l11 77
q52 37 102 41q27 2 64 -10q8 -2 38 -14q26 -8 38 -9q21 -4 47 3q28 10 56 28z" />
    <glyph glyph-name="Adieresis" unicode="&#xc4;" horiz-adv-x="705" 
d="M506 699q118 -565 146 -699h-130l-29 146l-314 1l-82 -147h-131l394 699h146zM233 250h240q1 6 -26.5 149.5t-34.5 172.5h-3zM303 854q0 24 13 41q23 31 57 35q31 4 49.5 -17.5t11.5 -49.5q-6 -26 -29 -45t-49 -18q-25 1 -39.5 17.5t-13.5 36.5zM508 854q0 24 13 41
q23 31 57 35q31 4 49.5 -17.5t11.5 -49.5q-6 -26 -29 -45t-49 -18q-25 1 -39.5 17.5t-13.5 36.5z" />
    <glyph glyph-name="Aring" unicode="&#xc5;" horiz-adv-x="704" 
d="M499 637q66 -312 134 -637h-130l-29 146h-314l-82 -146h-131l362 642l-3 3l-1 2q-28 31 -29 70q-1 58 37 106q44 52 111 62q39 6 75 -6q60 -21 73 -80q8 -37 -6 -77q-14 -41 -52 -73q-3 -3 -9 -7q0 -1 -6 -5zM385 785q-24 -20 -23 -51q0 -17 14 -28q10 -8 21 -11
q36 -9 67 13q22 15 25 45q3 29 -24 42q-15 7 -30 6q-28 0 -50 -16zM214 249h240q0 6 -27.5 151.5t-33.5 170.5h-3z" />
    <glyph glyph-name="AE" unicode="&#xc6;" horiz-adv-x="943" 
d="M630 297l52 -194h182l-14 -103h-273l-36 147h-354l-92 -147h-133l425 699h489l-18 -101h-299l48 -198l235 -1l-18 -102h-194zM248 249h267l-78 312h-4z" />
    <glyph glyph-name="Ccedilla" unicode="&#xc7;" horiz-adv-x="782" 
d="M679 108q-107 -104 -269 -119l-4 -40q117 0 130 -77q5 -31 -7 -71q-32 -97 -154 -110q-86 -8 -134 25l26 85q39 -18 96 -20q27 0 47.5 14t20.5 41q0 32 -55 36q-15 1 -45 1h-16l20 115q-111 8 -196.5 72t-99.5 174q-13 95 22 192q43 120 148.5 198t238.5 90q50 3 92 -1
q152 -18 225 -130q-16 -10 -47.5 -30t-47.5 -30q-74 103 -228 90q-80 -9 -145 -49.5t-102 -111.5q-39 -75 -39 -167q0 -70 45 -124t119 -67q76 -13 152 5.5t131 70.5z" />
    <glyph glyph-name="Egrave" unicode="&#xc8;" horiz-adv-x="700" 
d="M704 598h-431l-35 -197h380l-18 -103h-380l-36 -197h433q-3 -18 -10 -54.5t-9 -46.5h-553l126 699h551zM523 769h-99l-106 164h124z" />
    <glyph glyph-name="Eacute" unicode="&#xc9;" horiz-adv-x="705" 
d="M704 598h-431l-35 -197h380l-18 -103h-380l-36 -197h433q-3 -18 -10 -54.5t-9 -46.5h-553l126 699h551zM674 934l-168 -164h-99l143 164h124z" />
    <glyph glyph-name="Ecircumflex" unicode="&#xca;" horiz-adv-x="704" 
d="M704 598h-431l-35 -197h380l-18 -103h-380l-36 -197h433q-3 -18 -10 -54.5t-9 -46.5h-553l126 699h551zM672 792v-15h-136l-62 99h-4l-85 -99h-131v11l175 157h108z" />
    <glyph glyph-name="Edieresis" unicode="&#xcb;" horiz-adv-x="694" 
d="M691 598h-431l-35 -197h380l-18 -103h-380l-36 -197h433q-3 -18 -10 -54.5t-9 -46.5h-553l126 699h551zM302 854q0 24 13 41q23 31 57 35q31 4 49.5 -17.5t11.5 -49.5q-6 -26 -29 -45t-49 -18q-25 1 -39.5 17.5t-13.5 36.5zM507 854q0 24 13 41q23 31 57 35
q31 4 49.5 -17.5t11.5 -49.5q-6 -26 -29 -45t-49 -18q-25 1 -39.5 17.5t-13.5 36.5z" />
    <glyph glyph-name="Igrave" unicode="&#xcc;" horiz-adv-x="279" 
d="M144 699h120l-124 -699h-119zM276 769h-99l-106 164h124z" />
    <glyph glyph-name="Iacute" unicode="&#xcd;" horiz-adv-x="279" 
d="M144 699h120l-124 -699h-119zM435 934l-168 -164h-99l143 164h124z" />
    <glyph glyph-name="Icircumflex" unicode="&#xce;" horiz-adv-x="279" 
d="M144 699h120l-124 -699h-119zM426 792v-15h-136l-62 99h-4l-85 -99h-131v11l175 157h108z" />
    <glyph glyph-name="Idieresis" unicode="&#xcf;" horiz-adv-x="279" 
d="M144 699h120l-124 -699h-119zM70 854q0 24 13 41q23 31 57 35q31 4 49.5 -17.5t11.5 -49.5q-6 -26 -29 -45t-49 -18q-25 1 -39.5 17.5t-13.5 36.5zM275 854q0 24 13 41q23 31 57 35q31 4 49.5 -17.5t11.5 -49.5q-6 -26 -29 -45t-49 -18q-25 1 -39.5 17.5t-13.5 36.5z" />
    <glyph glyph-name="Eth" unicode="&#xd0;" horiz-adv-x="854" 
d="M545 695q122 -12 195 -74t65 -186q-5 -95 -34 -180q-46 -137 -158 -196t-283 -59h-243q10 53 27.5 153.5t25.5 145.5h-132l16 100h133q9 50 26.5 150t26.5 150h250q48 0 85 -4zM683 403q11 126 -68 165q-48 26 -133 29h-172l-35 -198h208l-16 -100h-209l-35 -197h102
q66 -2 119 5q81 9 138.5 53t77.5 122q17 55 23 121z" />
    <glyph glyph-name="Ntilde" unicode="&#xd1;" horiz-adv-x="774" 
d="M637 699h119l-123 -699h-109l-292 508h-4l-90 -508h-119l122 699h122l280 -497h6zM637 899q8 6 15 11l-16 -85q-31 -24 -73 -37q-35 -11 -78 1q-7 2 -14 4.5t-15 5.5t-13 5q-11 3 -25 8q-42 12 -84 -3q-21 -7 -43 -21q-1 -1 -5 -2.5t-5 -2.5l11 77q52 37 102 41
q27 2 64 -10q8 -2 38 -14q26 -8 38 -9q21 -4 47 3q28 10 56 28z" />
    <glyph glyph-name="Ograve" unicode="&#xd2;" horiz-adv-x="872" 
d="M495 712q105 0 185 -39.5t122 -119t29 -185.5q-17 -124 -96 -221.5t-201 -137.5q-70 -24 -158 -24q-99 0 -177.5 40.5t-120 120t-26.5 182.5q22 160 148.5 272t294.5 112zM712 373q11 102 -49 169.5t-168 67.5q-123 0 -216 -77.5t-108 -200.5q-14 -99 39 -166.5
t154 -74.5q73 -6 136 14q90 27 144.5 98.5t67.5 169.5zM567 769h-99l-106 164h124z" />
    <glyph glyph-name="Oacute" unicode="&#xd3;" horiz-adv-x="872" 
d="M482 712q105 0 185 -39.5t122 -119t29 -185.5q-17 -124 -96 -221.5t-201 -137.5q-70 -24 -158 -24q-99 0 -177.5 40.5t-120 120t-26.5 182.5q22 160 148.5 272t294.5 112zM699 373q11 102 -49 169.5t-168 67.5q-123 0 -216 -77.5t-108 -200.5q-14 -99 39 -166.5
t154 -74.5q73 -6 136 14q90 27 144.5 98.5t67.5 169.5zM711 934l-168 -164h-99l143 164h124z" />
    <glyph glyph-name="Ocircumflex" unicode="&#xd4;" horiz-adv-x="872" 
d="M495 712q105 0 185 -39.5t122 -119t29 -185.5q-17 -124 -96 -221.5t-201 -137.5q-70 -24 -158 -24q-99 0 -177.5 40.5t-120 120t-26.5 182.5q22 160 148.5 272t294.5 112zM712 373q11 102 -49 169.5t-168 67.5q-123 0 -216 -77.5t-108 -200.5q-14 -99 39 -166.5
t154 -74.5q73 -6 136 14q90 27 144.5 98.5t67.5 169.5zM742 792v-15h-136l-62 99h-4l-85 -99h-131v11l175 157h108z" />
    <glyph glyph-name="Otilde" unicode="&#xd5;" horiz-adv-x="872" 
d="M495 712q105 0 185 -39.5t122 -119t29 -185.5q-17 -124 -96 -221.5t-201 -137.5q-70 -24 -158 -24q-99 0 -177.5 40.5t-120 120t-26.5 182.5q22 160 148.5 272t294.5 112zM712 373q11 102 -49 169.5t-168 67.5q-123 0 -216 -77.5t-108 -200.5q-14 -99 39 -166.5
t154 -74.5q73 -6 136 14q90 27 144.5 98.5t67.5 169.5zM703 899q8 6 15 11l-16 -85q-31 -24 -73 -37q-35 -11 -78 1l-42 15q-11 3 -25 8q-42 12 -84 -3q-21 -7 -43 -21q-1 -1 -5 -2.5t-5 -2.5l11 77q52 37 102 41q27 2 64 -10q8 -2 38 -14q26 -8 38 -9q21 -4 47 3
q28 10 56 28z" />
    <glyph glyph-name="Odieresis" unicode="&#xd6;" horiz-adv-x="872" 
d="M495 712q105 0 185 -39.5t122 -119t29 -185.5q-17 -124 -96 -221.5t-201 -137.5q-70 -24 -158 -24q-99 0 -177.5 40.5t-120 120t-26.5 182.5q22 160 148.5 272t294.5 112zM712 373q11 102 -49 169.5t-168 67.5q-123 0 -216 -77.5t-108 -200.5q-14 -99 39 -166.5
t154 -74.5q73 -6 136 14q90 27 144.5 98.5t67.5 169.5zM370 854q0 24 13 41q23 31 57 35q31 4 49.5 -17.5t11.5 -49.5q-6 -26 -29 -45t-49 -18q-25 1 -39.5 17.5t-13.5 36.5zM575 854q0 24 13 41q23 31 57 35q31 4 49.5 -17.5t11.5 -49.5q-6 -26 -29 -45t-49 -18
q-25 1 -39.5 17.5t-13.5 36.5z" />
    <glyph glyph-name="multiply" unicode="&#xd7;" horiz-adv-x="555" 
d="M531 496l-196 -173l136 -178h-106l-94 121l-137 -121h-106l198 178l-135 174h112l88 -116l128 115h112z" />
    <glyph glyph-name="Oslash" unicode="&#xd8;" horiz-adv-x="872" 
d="M795 588q60 -94 48 -210q-13 -123 -92 -221q-88 -106 -219 -148q-64 -21 -138 -23q-127 -2 -226 70l-78 -66l-52 60l73 63q-38 60 -47 121q-13 84 17 174q48 145 183 232t290 74q105 -9 184 -68q17 12 78 66l51 -61q-14 -13 -72 -63zM531 613q-95 7 -176 -32.5
t-129 -119.5t-46 -182q3 -60 20 -83h8q73 62 219 185.5t219 185.5v8q-35 30 -115 38zM687 250q43 82 38 178q-1 37 -17 74l-3 3h-7q-2 -1 -45 -38q-157 -133 -393 -332v-7q33 -33 124 -40q67 -3 124 14q124 39 179 148z" />
    <glyph glyph-name="Ugrave" unicode="&#xd9;" horiz-adv-x="784" 
d="M640 699h119l-51 -293q-13 -76 -20 -109q-22 -94 -73 -165q-83 -116 -222 -141q-51 -9 -108 -4q-36 3 -67 13q-109 36 -142 145q-13 39 -13 84q-3 51 9 113q5 25 32 177.5t32 179.5h119q-4 -21 -27.5 -151.5t-26.5 -151.5l-15 -93q-8 -60 6 -112q13 -42 43 -70
q29 -25 70 -31q85 -14 152 33q36 24 62 62q35 51 49 114q2 9 16 80zM527 769h-99l-106 164h124z" />
    <glyph glyph-name="Uacute" unicode="&#xda;" horiz-adv-x="784" 
d="M640 699h119l-51 -293q-13 -76 -20 -109q-22 -94 -73 -165q-83 -116 -222 -141q-51 -9 -108 -4q-36 3 -67 13q-109 36 -142 145q-13 39 -13 84q-3 51 9 113q5 25 32 177.5t32 179.5h119q-4 -21 -27.5 -151.5t-26.5 -151.5l-15 -93q-8 -60 6 -112q13 -42 43 -70
q29 -25 70 -31q85 -14 152 33q36 24 62 62q35 51 49 114q2 9 16 80zM655 934l-168 -164h-99l143 164h124z" />
    <glyph glyph-name="Ucircumflex" unicode="&#xdb;" horiz-adv-x="784" 
d="M640 699h119l-51 -293q-13 -76 -20 -109q-22 -94 -73 -165q-83 -116 -222 -141q-51 -9 -108 -4q-36 3 -67 13q-109 36 -142 145q-13 39 -13 84q-3 51 9 113q5 25 32 177.5t32 179.5h119q-4 -21 -27.5 -151.5t-26.5 -151.5l-15 -93q-8 -60 6 -112q13 -42 43 -70
q29 -25 70 -31q85 -14 152 33q36 24 62 62q35 51 49 114q2 9 16 80zM674 792v-15h-136l-62 99h-4l-85 -99h-131v11l175 157h108z" />
    <glyph glyph-name="Udieresis" unicode="&#xdc;" horiz-adv-x="784" 
d="M640 699h119l-51 -293q-13 -76 -20 -109q-22 -94 -73 -165q-83 -116 -222 -141q-51 -9 -108 -4q-36 3 -67 13q-109 36 -142 145q-13 39 -13 84q-3 51 9 113q5 25 32 177.5t32 179.5h119q-4 -21 -27.5 -151.5t-26.5 -151.5l-15 -93q-8 -60 6 -112q13 -42 43 -70
q29 -25 70 -31q85 -14 152 33q36 24 62 62q35 51 49 114q2 9 16 80zM315 854q0 24 13 41q23 31 57 35q31 4 49.5 -17.5t11.5 -49.5q-6 -26 -29 -45t-49 -18q-25 1 -39.5 17.5t-13.5 36.5zM520 854q0 24 13 41q23 31 57 35q31 4 49.5 -17.5t11.5 -49.5q-6 -26 -29 -45
t-49 -18q-25 1 -39.5 17.5t-13.5 36.5z" />
    <glyph glyph-name="Yacute" unicode="&#xdd;" horiz-adv-x="628" 
d="M540 699h126l-317 -424l-47 -275h-120l49 278l-174 421h132l120 -318h3q76 104 228 318zM593 934l-168 -164h-99l143 164h124z" />
    <glyph glyph-name="Thorn" unicode="&#xde;" horiz-adv-x="685" 
d="M661 435q12 -93 -35 -171.5t-135 -112.5q-43 -16 -89 -21q-21 -3 -62 -3h-178l-22 -127h-119l123 700h120l-22 -125h163q40 0 60 -2q51 -2 92 -17q23 -8 42 -21q54 -36 62 -100zM510 283q38 52 31 115q-3 32 -33 53q-14 10 -32 14q-24 8 -57 8h-195l-44 -246h160h39
q39 2 67 12q41 13 64 44z" />
    <glyph glyph-name="germandbls" unicode="&#xdf;" horiz-adv-x="629" 
d="M570 247q5 -116 -68 -183q-53 -50 -129 -69q-40 -11 -122 -11q-15 0 -42 5t-36 9l21 103q31 -13 94 -15q50 -2 85 14q73 32 78 114q3 48 -40.5 71t-98.5 26l-60 2l18 100h23q74 0 115 42q29 29 35 72q6 31 -15.5 53.5t-54.5 26.5q-53 6 -92.5 -20.5t-51.5 -79.5
q-1 -4 -12 -65q-12 -74 -39 -221.5t-39 -220.5h-113q14 82 43 245.5t43 245.5q15 82 69 141t141 73q66 11 123 -6q54 -15 88.5 -58.5t28.5 -102.5q-5 -46 -28.5 -88t-59.5 -65l-2 -5q46 -21 70 -52.5t28 -80.5z" />
    <glyph glyph-name="agrave" unicode="&#xe0;" horiz-adv-x="642" 
d="M526 0h-96l-7 53h-3q-45 -40 -92 -54.5t-115 -14.5q-185 0 -165 171q6 50 47 83.5t92.5 45.5t111.5 12q53 1 156 -10q7 50 -15 82.5t-66 38.5q-117 12 -196 -67q-8 3 -42.5 21t-44.5 25q42 53 103 86t128 38q73 7 131 -11q143 -48 122 -226q-27 -165 -49 -273zM440 198
q-63 10 -146 10q-54 1 -92.5 -16.5t-38.5 -56.5q0 -47 69 -53q177 -14 208 116zM421 565h-99l-106 164h124z" />
    <glyph glyph-name="aacute" unicode="&#xe1;" horiz-adv-x="671" 
d="M526 0h-96l-7 53h-3q-45 -40 -92 -54.5t-115 -14.5q-185 0 -165 171q6 50 47 83.5t92.5 45.5t111.5 12q53 1 156 -10q7 50 -15 82.5t-66 38.5q-117 12 -196 -67q-8 3 -42.5 21t-44.5 25q42 53 103 86t128 38q73 7 131 -11q143 -48 122 -226q-27 -165 -49 -273zM440 198
q-63 10 -146 10q-54 1 -92.5 -16.5t-38.5 -56.5q0 -47 69 -53q177 -14 208 116zM600 730l-168 -164h-99l143 164h124z" />
    <glyph glyph-name="acircumflex" unicode="&#xe2;" horiz-adv-x="655" 
d="M430 0h96q22 108 49 273q21 178 -122 226q-58 18 -131 11q-67 -5 -128 -38t-103 -86q10 -7 44.5 -25t42.5 -21q79 79 196 67q44 -6 66 -38.5t15 -82.5q-103 11 -156 10q-60 0 -111.5 -12t-92.5 -45.5t-47 -83.5q-20 -171 165 -171q68 0 115 14.5t92 54.5h3zM440 198
q-31 -130 -208 -116q-69 6 -69 53q0 39 38.5 56.5t92.5 16.5q83 0 146 -10zM590 588v-15h-136l-62 99h-4l-85 -99h-131v11l175 157h108z" />
    <glyph glyph-name="atilde" unicode="&#xe3;" horiz-adv-x="646" 
d="M430 0h96q22 108 49 273q21 178 -122 226q-58 18 -131 11q-67 -5 -128 -38t-103 -86q10 -7 44.5 -25t42.5 -21q79 79 196 67q44 -6 66 -38.5t15 -82.5q-103 11 -156 10q-60 0 -111.5 -12t-92.5 -45.5t-47 -83.5q-20 -171 165 -171q68 0 115 14.5t92 54.5h3zM440 198
q-31 -130 -208 -116q-69 6 -69 53q0 39 38.5 56.5t92.5 16.5q83 0 146 -10zM568 695q8 6 15 11l-16 -85q-31 -24 -73 -37q-35 -11 -78 1l-42 15q-11 3 -25 8q-42 12 -84 -3q-21 -7 -43 -21q-2 -1 -5.5 -2.5t-4.5 -2.5l11 77q52 37 102 41q27 2 64 -10q8 -2 38 -14
q26 -8 38 -9q21 -4 47 3q28 10 56 28z" />
    <glyph glyph-name="adieresis" unicode="&#xe4;" horiz-adv-x="638" 
d="M513 0h-96l-7 53h-3q-45 -40 -92 -54.5t-115 -14.5q-185 0 -165 171q6 50 47 83.5t92.5 45.5t111.5 12q53 1 156 -10q7 50 -15 82.5t-66 38.5q-117 12 -196 -67q-8 3 -42.5 21t-44.5 25q42 53 103 86t128 38q73 7 131 -11q143 -48 122 -226q-27 -165 -49 -273zM427 198
q-63 10 -146 10q-54 1 -92.5 -16.5t-38.5 -56.5q0 -47 69 -53q177 -14 208 116zM226 650q0 24 13 41q23 31 57 35q31 4 49.5 -17.5t11.5 -49.5q-6 -26 -29 -45t-49 -18q-25 1 -39.5 17.5t-13.5 36.5zM431 650q0 24 13 41q23 31 57 35q31 4 49.5 -17.5t11.5 -49.5
q-6 -26 -29 -45t-49 -18q-25 1 -39.5 17.5t-13.5 36.5z" />
    <glyph glyph-name="aring" unicode="&#xe5;" horiz-adv-x="639" 
d="M393 566q-48 0 -79.5 31.5t-26.5 81.5q4 47 42.5 84t90.5 44q47 6 84 -21.5t38 -75.5q1 -60 -43 -102t-106 -42zM369 684q-2 -16 8.5 -28.5t26.5 -13.5q22 -1 39 16t17 37q-2 37 -40 37q-19 -1 -34.5 -15t-16.5 -33zM430 0h96q22 108 49 273q21 178 -122 226
q-58 18 -131 11q-67 -5 -128 -38t-103 -86q10 -7 44.5 -25t42.5 -21q79 79 196 67q44 -6 66 -38.5t15 -82.5q-103 11 -156 10q-60 0 -111.5 -12t-92.5 -45.5t-47 -83.5q-20 -171 165 -171q68 0 115 14.5t92 54.5h3zM440 198q-31 -130 -208 -116q-69 6 -69 53q0 39 38.5 56.5
t92.5 16.5q83 0 146 -10z" />
    <glyph glyph-name="ae" unicode="&#xe6;" horiz-adv-x="986" 
d="M823 500q160 -64 125 -291h-413q0 -49 31 -80t69 -37q47 -7 92.5 12t72.5 58q9 -3 46 -23t44 -25q-42 -72 -133.5 -104.5t-180.5 -12.5q-80 18 -123 83h-2q-25 -42 -85 -67t-146 -25q-98 0 -146 41.5t-38 129.5q4 38 27.5 66.5t59 44t74.5 23t81 7.5q52 1 151 -10
q7 50 -14 82.5t-64 38.5q-113 12 -190 -67q-40 18 -84 46q40 53 99.5 86t124.5 38q70 7 126 -11q62 -22 93 -71h4q64 58 145 77q85 18 154 -9zM214 86q170 -14 201 116q-62 10 -142 10q-52 1 -89 -16.5t-37 -56.5q0 -47 67 -53zM553 296h288q0 38 -18.5 68t-49.5 42
q-40 15 -88 6q-44 -8 -82.5 -39t-49.5 -77z" />
    <glyph glyph-name="ccedilla" unicode="&#xe7;" horiz-adv-x="594" 
d="M318 -9q-1 0 -3 -0.5t-3 -0.5l-5 -41q117 0 130 -77q5 -31 -7 -71q-32 -97 -154 -110q-86 -8 -134 25l26 85q39 -18 96 -20q27 0 47.5 14t20.5 41q0 32 -55 36q-15 1 -45 1h-16l20 115q-35 6 -58 14q-96 36 -128.5 128t13.5 191q32 70 92.5 118.5t139.5 66.5
q75 17 147 -4q72 -20 115 -84l-100 -62q-10 20 -32.5 35t-47.5 18q-109 14 -174 -64q-35 -40 -44.5 -97t18 -104t90.5 -55q76 -9 154 57q12 -10 25 -20.5t28.5 -23t24.5 -19.5q-76 -76 -181 -92z" />
    <glyph glyph-name="egrave" unicode="&#xe8;" horiz-adv-x="651" 
d="M56 293q30 78 95 135.5t149 76.5q89 18 159 -9q167 -64 130 -291h-427q0 -49 32 -80t71 -37q48 -7 95 12t76 58q8 -3 47 -23t46 -25q-43 -72 -138 -104.5t-187 -12.5q-64 14 -106 57.5t-52 104.5q-12 75 10 138zM320 408q-46 -8 -87 -38t-53 -72h298q0 33 -22.5 62.5
t-56.5 41.5q-36 14 -79 6zM434 565h-99l-106 164h124z" />
    <glyph glyph-name="eacute" unicode="&#xe9;" horiz-adv-x="651" 
d="M56 293q30 78 95 135.5t149 76.5q89 18 159 -9q167 -64 130 -291h-427q0 -49 32 -80t71 -37q48 -7 95 12t76 58q8 -3 47 -23t46 -25q-43 -72 -138 -104.5t-187 -12.5q-64 14 -106 57.5t-52 104.5q-12 75 10 138zM320 408q-46 -8 -87 -38t-53 -72h298q0 33 -22.5 62.5
t-56.5 41.5q-36 14 -79 6zM603 730l-168 -164h-99l143 164h124z" />
    <glyph glyph-name="ecircumflex" unicode="&#xea;" horiz-adv-x="651" 
d="M56 293q30 78 95 135.5t149 76.5q89 18 159 -9q167 -64 130 -291h-427q0 -49 32 -80t71 -37q48 -7 95 12t76 58q8 -3 47 -23t46 -25q-43 -72 -138 -104.5t-187 -12.5q-64 14 -106 57.5t-52 104.5q-12 75 10 138zM320 408q-46 -8 -87 -38t-53 -72h298q0 33 -22.5 62.5
t-56.5 41.5q-36 14 -79 6zM578 588v-15h-136l-62 99h-4l-85 -99h-131v11l175 157h108z" />
    <glyph glyph-name="edieresis" unicode="&#xeb;" horiz-adv-x="651" 
d="M56 293q30 78 95 135.5t149 76.5q89 18 159 -9q167 -64 130 -291h-427q0 -49 32 -80t71 -37q48 -7 95 12t76 58q8 -3 47 -23t46 -25q-43 -72 -138 -104.5t-187 -12.5q-64 14 -106 57.5t-52 104.5q-12 75 10 138zM320 408q-46 -8 -87 -38t-53 -72h298q0 33 -22.5 62.5
t-56.5 41.5q-36 14 -79 6zM237 650q0 24 13 41q23 31 57 35q31 4 49.5 -17.5t11.5 -49.5q-6 -26 -29 -45t-49 -18q-25 1 -39.5 17.5t-13.5 36.5zM442 650q0 24 13 41q23 31 57 35q31 4 49.5 -17.5t11.5 -49.5q-6 -26 -29 -45t-49 -18q-25 1 -39.5 17.5t-13.5 36.5z" />
    <glyph glyph-name="igrave" unicode="&#xec;" horiz-adv-x="259" 
d="M11 0l88 495h119l-89 -495h-118zM219 565h-99l-106 164h124z" />
    <glyph glyph-name="iacute" unicode="&#xed;" horiz-adv-x="259" 
d="M11 0l88 495h119l-89 -495h-118zM390 730l-168 -164h-99l143 164h124z" />
    <glyph glyph-name="icircumflex" unicode="&#xee;" horiz-adv-x="259" 
d="M11 0l88 495h119l-89 -495h-118zM388 588v-15h-136l-62 99h-4l-85 -99h-131v11l175 157h108z" />
    <glyph glyph-name="idieresis" unicode="&#xef;" horiz-adv-x="259" 
d="M11 0l88 495h119l-89 -495h-118zM17 650q0 24 13 41q23 31 57 35q31 4 49.5 -17.5t11.5 -49.5q-6 -26 -29 -45t-49 -18q-25 1 -39.5 17.5t-13.5 36.5zM222 650q0 24 13 41q23 31 57 35q31 4 49.5 -17.5t11.5 -49.5q-6 -26 -29 -45t-49 -18q-25 1 -39.5 17.5t-13.5 36.5z
" />
    <glyph glyph-name="eth" unicode="&#xf0;" horiz-adv-x="645" 
d="M558 647q40 -43 54 -107q9 -43 7 -92q-5 -119 -40 -228q-28 -90 -88 -153t-148 -79q-68 -13 -127 -6q-74 10 -127 55.5t-59 119.5q-7 96 47 180q41 63 117 90.5t162 24.5q36 -2 67 -15q44 -18 68 -66h3q8 39 10 67t-5.5 65t-30.5 62q-11 -9 -35 -31l-106 -2q46 40 72 66
q-15 7 -55 6q-66 0 -155 -50l-46 88q74 49 154 59q74 8 136 0q25 -2 63 -15q7 6 21.5 19t22.5 20h102zM461 242q4 55 -36.5 83.5t-101.5 28.5q-79 0 -128.5 -41.5t-51.5 -125.5q0 -39 27 -67.5t67 -34.5q53 -10 112 6q70 21 97 89q13 30 15 62z" />
    <glyph glyph-name="ntilde" unicode="&#xf1;" horiz-adv-x="695" 
d="M505 501q63 -19 92 -73t22 -125q0 -2 -15 -97q-4 -21 -18.5 -103t-18.5 -103h-118q6 39 22.5 128t23.5 136q10 58 -10 98t-76 46q-114 12 -193 -85q-29 -37 -39 -95l-40 -228h-120q5 27 13.5 74.5t29 160.5t46.5 260h94l3 -81h7q56 67 159 90q72 16 136 -3zM598 695
q8 6 15 11l-16 -85q-31 -24 -73 -37q-35 -11 -78 1l-42 15q-11 3 -25 8q-42 12 -84 -3q-21 -7 -43 -21q-1 -1 -5 -2.5t-5 -2.5l11 77q52 37 102 41q27 2 64 -10q8 -2 38 -14q26 -8 38 -9q21 -4 47 3q28 10 56 28z" />
    <glyph glyph-name="ograve" unicode="&#xf2;" horiz-adv-x="650" 
d="M300 502q81 22 157 -3q119 -42 145 -166q14 -68 -16 -144q-38 -93 -120.5 -149t-181.5 -56q-90 0 -152.5 45.5t-79.5 130.5q-15 81 22 157q71 144 226 185zM485 307q-6 39 -35.5 68t-69.5 32q-84 7 -146 -46.5t-66 -138.5q0 -44 19.5 -79t61.5 -49q47 -17 100 -1
q74 22 110.5 86t25.5 128zM437 565h-99l-106 164h124z" />
    <glyph glyph-name="oacute" unicode="&#xf3;" horiz-adv-x="650" 
d="M300 502q81 22 157 -3q119 -42 145 -166q14 -68 -16 -144q-38 -93 -120.5 -149t-181.5 -56q-90 0 -152.5 45.5t-79.5 130.5q-15 81 22 157q71 144 226 185zM485 307q-6 39 -35.5 68t-69.5 32q-84 7 -146 -46.5t-66 -138.5q0 -44 19.5 -79t61.5 -49q47 -17 100 -1
q74 22 110.5 86t25.5 128zM606 730l-168 -164h-99l143 164h124z" />
    <glyph glyph-name="ocircumflex" unicode="&#xf4;" horiz-adv-x="650" 
d="M300 502q81 22 157 -3q119 -42 145 -166q14 -68 -16 -144q-38 -93 -120.5 -149t-181.5 -56q-90 0 -152.5 45.5t-79.5 130.5q-15 81 22 157q71 144 226 185zM485 307q-6 39 -35.5 68t-69.5 32q-84 7 -146 -46.5t-66 -138.5q0 -44 19.5 -79t61.5 -49q47 -17 100 -1
q74 22 110.5 86t25.5 128zM594 588v-15h-136l-62 99h-4l-85 -99h-131v11l175 157h108z" />
    <glyph glyph-name="otilde" unicode="&#xf5;" horiz-adv-x="650" 
d="M300 502q81 22 157 -3q119 -42 145 -166q14 -68 -16 -144q-38 -93 -120.5 -149t-181.5 -56q-90 0 -152.5 45.5t-79.5 130.5q-15 81 22 157q71 144 226 185zM485 307q-6 39 -35.5 68t-69.5 32q-84 7 -146 -46.5t-66 -138.5q0 -44 19.5 -79t61.5 -49q47 -17 100 -1
q74 22 110.5 86t25.5 128zM572 695q8 6 15 11l-16 -85q-31 -24 -73 -37q-35 -11 -78 1l-42 15q-11 3 -25 8q-42 12 -84 -3q-21 -7 -43 -21l-5 -2.5l-5 -2.5l11 77q52 37 102 41q27 2 64 -10q8 -2 38 -14q26 -8 38 -9q21 -4 47 3q28 10 56 28z" />
    <glyph glyph-name="odieresis" unicode="&#xf6;" horiz-adv-x="650" 
d="M300 502q81 22 157 -3q119 -42 145 -166q14 -68 -16 -144q-38 -93 -120.5 -149t-181.5 -56q-90 0 -152.5 45.5t-79.5 130.5q-15 81 22 157q71 144 226 185zM485 307q-6 39 -35.5 68t-69.5 32q-84 7 -146 -46.5t-66 -138.5q0 -44 19.5 -79t61.5 -49q47 -17 100 -1
q74 22 110.5 86t25.5 128zM233 650q0 24 13 41q23 31 57 35q31 4 49.5 -17.5t11.5 -49.5q-6 -26 -29 -45t-49 -18q-25 1 -39.5 17.5t-13.5 36.5zM438 650q0 24 13 41q23 31 57 35q31 4 49.5 -17.5t11.5 -49.5q-6 -26 -29 -45t-49 -18q-25 1 -39.5 17.5t-13.5 36.5z" />
    <glyph glyph-name="divide" unicode="&#xf7;" horiz-adv-x="620" 
d="M553 284h-480l16 100h480zM290 525q0 24 13 41q23 31 57 35q31 4 49.5 -17.5t11.5 -49.5q-6 -26 -29 -45t-49 -18q-25 1 -39.5 17.5t-13.5 36.5zM220 121q0 24 13 41q23 31 57 35q31 4 49.5 -17.5t11.5 -49.5q-6 -26 -29 -45t-49 -18q-25 1 -39.5 17.5t-13.5 36.5z" />
    <glyph glyph-name="oslash" unicode="&#xf8;" horiz-adv-x="650" 
d="M620 455l-50 -43q54 -88 24 -193q-29 -101 -117 -167q-62 -49 -138 -62q-77 -15 -147 8q-34 11 -68 37q-8 -7 -25.5 -22t-25.5 -22l-41 49q9 9 26.5 24t22.5 20q-41 54 -33 143q7 75 59 147q75 98 188 127q80 21 155 -1q48 -15 76 -40l52 44zM168 244q-7 -40 7 -77h6
q104 87 252 214v5q-18 21 -63 23q-104 5 -165 -76q-29 -40 -37 -89zM408 123q80 62 77 167q0 25 -8 39h-4q-39 -33 -124.5 -105t-131.5 -111v-3q32 -26 82 -24q62 0 109 37z" />
    <glyph glyph-name="ugrave" unicode="&#xf9;" 
d="M520 496h118q-31 -191 -87 -496h-93q-1 9 -3 28t-4 28h-6q-33 -40 -104 -60q-53 -15 -117 -9q-39 3 -71 13q-7 4 -13 5q-81 33 -98 123q-8 46 0 93q6 40 20 120q3 21 13 77.5t14 77.5h119q-34 -189 -45 -261q-5 -30 0 -62q12 -66 78 -81q79 -19 148 24.5t86 121.5
q3 14 7.5 40t6.5 34q3 19 15.5 92t15.5 92zM432 565h-99l-106 164h124z" />
    <glyph glyph-name="uacute" unicode="&#xfa;" 
d="M520 496h118q-31 -191 -87 -496h-93q-1 9 -3 28t-4 28h-6q-33 -40 -104 -60q-53 -15 -117 -9q-39 3 -71 13q-7 4 -13 5q-81 33 -98 123q-8 46 0 93q6 40 20 120q3 21 13 77.5t14 77.5h119q-34 -189 -45 -261q-5 -30 0 -62q12 -66 78 -81q79 -19 148 24.5t86 121.5
q3 14 7.5 40t6.5 34q3 19 15.5 92t15.5 92zM583 730l-168 -164h-99l143 164h124z" />
    <glyph glyph-name="ucircumflex" unicode="&#xfb;" 
d="M520 496h118q-31 -191 -87 -496h-93q-1 9 -3 28t-4 28h-6q-33 -40 -104 -60q-53 -15 -117 -9q-39 3 -71 13q-7 4 -13 5q-81 33 -98 123q-8 46 0 93q6 40 20 120q3 21 13 77.5t14 77.5h119q-34 -189 -45 -261q-5 -30 0 -62q12 -66 78 -81q79 -19 148 24.5t86 121.5
q3 14 7.5 40t6.5 34q3 19 15.5 92t15.5 92zM588 588v-15h-136l-62 99h-4l-85 -99h-131v11l175 157h108z" />
    <glyph glyph-name="udieresis" unicode="&#xfc;" 
d="M520 496h118q-31 -191 -87 -496h-93q-1 9 -3 28t-4 28h-6q-33 -40 -104 -60q-53 -15 -117 -9q-39 3 -71 13q-7 4 -13 5q-81 33 -98 123q-8 46 0 93q6 40 20 120q3 21 13 77.5t14 77.5h119q-34 -189 -45 -261q-5 -30 0 -62q12 -66 78 -81q79 -19 148 24.5t86 121.5
q3 14 7.5 40t6.5 34q3 19 15.5 92t15.5 92zM223 650q0 24 13 41q23 31 57 35q31 4 49.5 -17.5t11.5 -49.5q-6 -26 -29 -45t-49 -18q-25 1 -39.5 17.5t-13.5 36.5zM428 650q0 24 13 41q23 31 57 35q31 4 49.5 -17.5t11.5 -49.5q-6 -26 -29 -45t-49 -18q-25 1 -39.5 17.5
t-13.5 36.5z" />
    <glyph glyph-name="yacute" unicode="&#xfd;" horiz-adv-x="571" 
d="M466 495h129l-425 -713h-123l126 217q-21 78 -68.5 243t-71.5 253h128l90 -354h4q1 0 3 5zM547 730l-168 -164h-99l143 164h124z" />
    <glyph glyph-name="thorn" unicode="&#xfe;" horiz-adv-x="633" 
d="M583 332q17 -72 -13 -148q-39 -100 -134.5 -161.5t-201.5 -46.5q-88 10 -117 66l-3 -18l-40 -236h-100l160 941h107l-50 -272l-3 -14q16 19 56 34.5t83 21.5q60 9 119 -10q111 -39 137 -157zM287 75q83 2 139.5 75.5t40.5 155.5q-13 68 -83 88q-40 11 -85 0
q-75 -19 -115.5 -80t-31.5 -128q6 -50 44 -80.5t91 -30.5z" />
    <glyph glyph-name="ydieresis" unicode="&#xff;" horiz-adv-x="578" 
d="M466 495h129l-425 -713h-123l126 217q-21 78 -68.5 243t-71.5 253h128l90 -354h4q1 0 3 5zM184 650q0 24 13 41q23 31 57 35q31 4 49.5 -17.5t11.5 -49.5q-6 -26 -29 -45t-49 -18q-25 1 -39.5 17.5t-13.5 36.5zM389 650q0 24 13 41q23 31 57 35q31 4 49.5 -17.5
t11.5 -49.5q-6 -26 -29 -45t-49 -18q-25 1 -39.5 17.5t-13.5 36.5z" />
    <glyph glyph-name="Abreve" unicode="&#x102;" horiz-adv-x="705" 
d="M506 699q118 -565 146 -699h-130l-29 146l-314 1l-82 -147h-131l394 699h146zM233 250h240q1 6 -26.5 149.5t-34.5 172.5h-3zM574 937h103q0 -37 -26 -77t-63 -67q-97 -69 -218 -38q-19 5 -44 19q-50 32 -59 93q-6 30 0 70h104q0 -21 2 -35q4 -31 36 -47q13 -7 26 -8
q42 -6 76 9q54 22 63 81z" />
    <glyph glyph-name="abreve" unicode="&#x103;" horiz-adv-x="651" 
d="M430 0h96q22 108 49 273q21 178 -122 226q-58 18 -131 11q-67 -5 -128 -38t-103 -86q10 -7 44.5 -25t42.5 -21q79 79 196 67q44 -6 66 -38.5t15 -82.5q-103 11 -156 10q-60 0 -111.5 -12t-92.5 -45.5t-47 -83.5q-20 -171 165 -171q68 0 115 14.5t92 54.5h3zM440 198
q-31 -130 -208 -116q-69 6 -69 53q0 39 38.5 56.5t92.5 16.5q83 0 146 -10zM513 752h103q0 -37 -26 -77t-63 -67q-97 -69 -218 -38q-19 5 -44 19q-50 32 -59 93q-6 30 0 70h104q0 -21 2 -35q4 -31 36 -47q13 -7 26 -8q42 -6 76 9q54 22 63 81z" />
    <glyph glyph-name="Aogonek" unicode="&#x104;" horiz-adv-x="705" 
d="M534 -147q24 -1 51 5q4 2 15 4l-14 -80q-15 -8 -39 -10q-43 -3 -76 3q-19 3 -33 11q-35 17 -40 56q-8 57 24 104q16 22 33 38q22 20 56 41l-24 121h-314l-82 -146h-131l394 698h146q37 -179 146 -698h-92q-22 -14 -34 -28q-30 -35 -26 -81q1 -17 12.5 -27t27.5 -11z
M227 249h240q0 6 -27.5 151.5t-33.5 170.5h-3z" />
    <glyph glyph-name="aogonek" unicode="&#x105;" horiz-adv-x="639" 
d="M456 499q143 -48 122 -226q-27 -165 -49 -273h-35q-6 -2 -29 -12q-25 -14 -37 -30q-30 -35 -26 -81q1 -17 12.5 -27t27.5 -11q26 -1 51 6q6 1 15 3l-14 -80q-13 -6 -39 -10q-38 -3 -76 3q-17 3 -33 11q-36 19 -40 56q-8 57 24 105q14 20 33 37q29 27 67 47l-4 36h-3
q-45 -40 -93.5 -54.5t-117.5 -14.5q-181 0 -161 171q6 50 47 83.5t92.5 45.5t111.5 12q53 1 156 -10q7 50 -15 82.5t-66 38.5q-117 12 -196 -67q-8 3 -42.5 21t-44.5 25q42 53 103 86t128 38q73 7 131 -11zM235 82q177 -14 208 116q-63 10 -146 10q-54 1 -92.5 -16.5
t-38.5 -56.5q0 -47 69 -53z" />
    <glyph glyph-name="Cacute" unicode="&#x106;" horiz-adv-x="783" 
d="M343 -13q-113 7 -200.5 71t-101.5 176q-13 95 22 192q43 120 148.5 198t238.5 90q50 3 92 -1q152 -18 225 -130q-16 -10 -47.5 -30t-47.5 -30q-74 103 -228 90q-80 -9 -145 -49.5t-102 -111.5q-39 -75 -39 -167q0 -70 45 -124t119 -67q76 -13 152 5.5t131 70.5l76 -62
q-65 -62 -152 -93.5t-186 -27.5zM732 935l-168 -164h-99l143 164h124z" />
    <glyph glyph-name="cacute" unicode="&#x107;" horiz-adv-x="589" 
d="M183 0q-96 36 -128.5 128t13.5 191q32 70 92.5 118.5t139.5 66.5q75 17 147 -4q72 -20 115 -84l-100 -62q-10 20 -32.5 35t-47.5 18q-109 14 -174 -64q-35 -40 -44.5 -97t18 -104t90.5 -55q76 -9 154 57q12 -10 25 -20.5t28.5 -23t24.5 -19.5q-76 -76 -181 -92
q-76 -13 -140 11zM596 730l-168 -164h-99l143 164h124z" />
    <glyph glyph-name="Ccaron" unicode="&#x10c;" horiz-adv-x="783" 
d="M361 -13q-113 7 -200.5 71t-101.5 176q-13 95 22 192q43 120 148.5 198t238.5 90q50 3 92 -1q152 -18 225 -130q-16 -10 -47.5 -30t-47.5 -30q-74 103 -228 90q-80 -9 -145 -49.5t-102 -111.5q-39 -75 -39 -167q0 -70 45 -124t119 -67q76 -13 152 5.5t131 70.5l76 -62
q-65 -62 -152 -93.5t-186 -27.5zM327 926v16h136l62 -99h4l85 99h131v-11l-176 -157h-107z" />
    <glyph glyph-name="ccaron" unicode="&#x10d;" horiz-adv-x="576" 
d="M169 0q-96 36 -128.5 128t13.5 191q32 70 92.5 118.5t139.5 66.5q75 17 147 -4q72 -20 115 -84l-100 -62q-10 20 -32.5 35t-47.5 18q-109 14 -174 -64q-35 -40 -44.5 -97t18 -104t90.5 -55q76 -9 154 57q12 -10 25 -20.5t28.5 -23t24.5 -19.5q-76 -76 -181 -92
q-76 -13 -140 11zM189 721v16h136l62 -99h4l85 99h131v-11l-176 -157h-107z" />
    <glyph glyph-name="Dcaron" unicode="&#x10e;" horiz-adv-x="790" 
d="M485 695q122 -12 195 -74t65 -186q-5 -95 -34 -180q-46 -137 -158 -196t-283 -59h-243q18 103 38.5 219.5t45.5 259t39 220.5h250q48 0 85 -4zM623 403q11 126 -68 165q-48 26 -133 29h-172l-87 -495h102q66 -2 119 5q81 9 138.5 53t77.5 122q17 55 23 121zM251 926v16
h136l62 -99h4l85 99h131v-11l-176 -157h-107z" />
    <glyph glyph-name="dcaron" unicode="&#x10f;" horiz-adv-x="784" 
d="M554 672l116 27q-15 -85 -58.5 -328t-65.5 -371h-100q0 2 -1.5 23t-1.5 29h-7q-18 -23 -52 -40q-73 -34 -146 -27q-37 3 -72 16q-100 40 -126 148q-17 76 14 154q38 94 127 154.5t191 53.5q97 -6 134 -72h5zM364 105q58 29 86.5 84.5t21.5 110.5q-5 45 -39 75t-83 34
q-89 5 -145 -60q-49 -53 -52 -137q0 -87 76 -118q22 -9 54 -9q46 2 81 20zM752 499l126 200h-118l-76 -200h68z" />
    <glyph glyph-name="Dcroat" unicode="&#x110;" horiz-adv-x="776" 
d="M683 878l-17 -101h-400l17 101h400zM492 695q122 -12 195 -74t65 -186q-5 -95 -34 -180q-46 -137 -158 -196t-283 -59h-243q18 103 38.5 219.5t45.5 259t39 220.5h250q48 0 85 -4zM630 403q11 126 -68 165q-48 26 -133 29h-172l-87 -495h102q66 -2 119 5q81 9 138.5 53
t77.5 122q17 55 23 121z" />
    <glyph glyph-name="dcroat" unicode="&#x111;" horiz-adv-x="694" 
d="M733 639l-17 -100h-64q-57 -319 -96 -539h-100q0 2 -1.5 23t-1.5 29h-7q-18 -23 -52 -40q-73 -34 -146 -27q-37 3 -72 16q-100 40 -126 148q-17 76 14 154q38 94 127 154.5t191 53.5q97 -6 134 -72h5l18 100h-55l16 100h57l7 31l116 29q-1 -8 -4.5 -28.5t-5.5 -31.5h63z
M374 105q58 29 86.5 84.5t21.5 110.5q-5 45 -39 75t-83 34q-89 5 -145 -60q-49 -53 -52 -137q0 -87 76 -118q22 -9 54 -9q46 2 81 20z" />
    <glyph glyph-name="Eogonek" unicode="&#x118;" 
d="M670 598h-431l-35 -197h380l-18 -103h-380l-36 -197h433q-3 -18 -10 -54.5t-9 -46.5h-74q-22 -14 -34 -28q-30 -35 -26 -81q1 -17 12.5 -27t27.5 -11q24 -1 51 5q5 2 15 4l-14 -80q-15 -8 -39 -10q-43 -3 -76 3q-19 3 -33 11q-35 17 -40 56q-8 57 24 104q16 22 33 38
q1 1 8 7t11 9h-399l126 699h551z" />
    <glyph glyph-name="eogonek" unicode="&#x119;" horiz-adv-x="636" 
d="M449 495q167 -64 130 -291h-427q0 -49 32 -80t71 -37q48 -7 95 12t76 58q8 -3 47 -23t46 -25q-34 -55 -99.5 -87.5t-140.5 -35.5q-20 -33 -16 -68q1 -17 12.5 -27t27.5 -11q24 -1 50 5q5 2 15 4l-13 -80q-15 -8 -39 -10q-44 -3 -76 3q-20 3 -33 11q-35 16 -40 56
q-8 57 24 104q8 12 13 17q-6 2 -10 2q-64 14 -106 57.5t-52 104.5q-12 75 10 138q30 78 95 135.5t149 76.5q89 18 159 -9zM170 297h298q0 33 -22.5 62.5t-56.5 41.5q-36 14 -79 6q-46 -8 -87 -38t-53 -72z" />
    <glyph glyph-name="Ecaron" unicode="&#x11a;" horiz-adv-x="710" 
d="M704 598h-431l-35 -197h380l-18 -103h-380l-36 -197h433q-3 -18 -10 -54.5t-9 -46.5h-553l126 699h551zM269 926v16h136l62 -99h4l85 99h131v-11l-176 -157h-107z" />
    <glyph glyph-name="ecaron" unicode="&#x11b;" horiz-adv-x="651" 
d="M56 293q30 78 95 135.5t149 76.5q89 18 159 -9q167 -64 130 -291h-427q0 -49 32 -80t71 -37q48 -7 95 12t76 58q8 -3 47 -23t46 -25q-43 -72 -138 -104.5t-187 -12.5q-64 14 -106 57.5t-52 104.5q-12 75 10 138zM320 408q-46 -8 -87 -38t-53 -72h298q0 33 -22.5 62.5
t-56.5 41.5q-36 14 -79 6zM201 721v16h136l62 -99h4l85 99h131v-11l-176 -157h-107z" />
    <glyph glyph-name="Gbreve" unicode="&#x11e;" horiz-adv-x="821" 
d="M412 312l17 92h346l-72 -404h-71q-4 11 -13.5 37.5t-15.5 40.5h-4q-54 -54 -110.5 -74.5t-137.5 -16.5q-110 0 -196.5 68.5t-103.5 178.5q-15 94 21.5 186.5t105.5 159.5t165.5 104.5t194.5 29.5q74 -5 139.5 -38t99.5 -92l-97 -60q-73 95 -209 90q-133 -7 -220 -104
t-84 -232q4 -79 57.5 -130.5t136.5 -58.5q74 -7 138.5 18t99.5 87q23 40 36 97q2 7 4 21h-227zM646 962h103q0 -37 -26 -77t-63 -67q-97 -69 -218 -38q-19 5 -44 19q-50 32 -59 93q-6 30 0 70h104q0 -21 2 -35q4 -31 36 -47q13 -7 26 -8q42 -6 76 9q54 22 63 81z" />
    <glyph glyph-name="gbreve" unicode="&#x11f;" 
d="M544 495h95l-79 -446q-45 -222 -207 -270q-57 -16 -116 -16q-72 0 -149.5 21t-97.5 50q9 20 25.5 55.5t21.5 46.5q68 -59 176 -70q49 -4 97 6q67 15 98 74q20 37 33 107h-7q-20 -25 -58 -43.5t-70 -23.5q-76 -11 -140 16q-100 43 -123 152q-16 79 17 152q39 89 119.5 147
t178.5 58q47 0 89.5 -20t63.5 -53h6zM431 153q59 69 46 155q-6 43 -40 71t-80 30q-63 4 -114.5 -31t-72.5 -97q-14 -50 -8 -93.5t40 -73t87 -30.5q91 8 142 69zM523 743h103q0 -37 -26 -77t-63 -67q-97 -69 -218 -38q-19 5 -44 19q-50 32 -59 93q-6 30 0 70h104q0 -21 2 -35
q4 -31 36 -47q13 -7 26 -8q42 -6 76 9q54 22 63 81z" />
    <glyph glyph-name="Idotaccent" unicode="&#x130;" horiz-adv-x="279" 
d="M144 699h120l-124 -699h-119zM165 852q0 24 13 41q23 31 57 35q31 4 49.5 -17.5t11.5 -49.5q-6 -26 -29 -45t-49 -18q-25 1 -39.5 17.5t-13.5 36.5z" />
    <glyph glyph-name="dotlessi" unicode="&#x131;" horiz-adv-x="320" 
d="M53 591h238l-75 -434h-99l56 334h-136z" />
    <glyph glyph-name="Lacute" unicode="&#x139;" horiz-adv-x="581" 
d="M161 103h358l-19 -103h-476l123 699h119zM440 935l-168 -164h-99l143 164h124z" />
    <glyph glyph-name="lacute" unicode="&#x13a;" horiz-adv-x="259" 
d="M138 667l126 32l-124 -699h-119zM442 932l-168 -164h-99l143 164h124z" />
    <glyph glyph-name="Lcaron" unicode="&#x13d;" horiz-adv-x="581" 
d="M161 103h358l-19 -103h-476l123 699h119zM450 497l126 200h-118l-76 -200h68z" />
    <glyph glyph-name="lcaron" unicode="&#x13e;" horiz-adv-x="392" 
d="M138 667l126 32l-124 -699h-119zM352 499l126 200h-118l-76 -200h68z" />
    <glyph glyph-name="Lslash" unicode="&#x141;" 
d="M245 102h359l-19 -102h-477l43 243l-117 -47l15 93l118 48l64 362h120l-55 -310l287 116l-17 -96l-287 -115z" />
    <glyph glyph-name="lslash" unicode="&#x142;" horiz-adv-x="425" 
d="M409 443l-19 -99l-141 -58l-51 -286h-119l41 233l-98 -41l16 101l100 40l64 366h120l-56 -314z" />
    <glyph glyph-name="Nacute" unicode="&#x143;" horiz-adv-x="774" 
d="M637 699h119l-123 -699h-109l-292 508h-4l-90 -508h-119l122 699h122l280 -497h6zM675 935l-168 -164h-99l143 164h124z" />
    <glyph glyph-name="nacute" unicode="&#x144;" horiz-adv-x="691" 
d="M505 501q63 -19 92 -73t22 -125q0 -2 -15 -97q-4 -21 -18.5 -103t-18.5 -103h-118q6 39 22.5 128t23.5 136q10 58 -10 98t-76 46q-114 12 -193 -85q-29 -37 -39 -95l-40 -228h-120q5 27 13.5 74.5t29 160.5t46.5 260h94l3 -81h7q56 67 159 90q72 16 136 -3zM612 730
l-168 -164h-99l143 164h124z" />
    <glyph glyph-name="Ncaron" unicode="&#x147;" horiz-adv-x="774" 
d="M637 699h119l-123 -699h-109l-292 508h-4l-90 -508h-119l122 699h122l280 -497h6zM258 926v16h136l62 -99h4l85 99h131v-11l-176 -157h-107z" />
    <glyph glyph-name="ncaron" unicode="&#x148;" horiz-adv-x="691" 
d="M505 501q63 -19 92 -73t22 -125q0 -2 -15 -97q-4 -21 -18.5 -103t-18.5 -103h-118q6 39 22.5 128t23.5 136q10 58 -10 98t-76 46q-114 12 -193 -85q-29 -37 -39 -95l-40 -228h-120q5 27 13.5 74.5t29 160.5t46.5 260h94l3 -81h7q56 67 159 90q72 16 136 -3zM198 721v16
h136l62 -99h4l85 99h131v-11l-176 -157h-107z" />
    <glyph glyph-name="Ohungarumlaut" unicode="&#x150;" horiz-adv-x="872" 
d="M495 712q105 0 185 -39.5t122 -119t29 -185.5q-17 -124 -96 -221.5t-201 -137.5q-70 -24 -158 -24q-99 0 -177.5 40.5t-120 120t-26.5 182.5q22 160 148.5 272t294.5 112zM712 373q11 102 -49 169.5t-168 67.5q-123 0 -216 -77.5t-108 -200.5q-14 -99 39 -166.5
t154 -74.5q73 -6 136 14q90 27 144.5 98.5t67.5 169.5zM479 789h-99l143 164h124zM643 788h-99l143 165h124z" />
    <glyph glyph-name="ohungarumlaut" unicode="&#x151;" horiz-adv-x="650" 
d="M300 502q81 22 157 -3q119 -42 145 -166q14 -68 -16 -144q-38 -93 -120.5 -149t-181.5 -56q-90 0 -152.5 45.5t-79.5 130.5q-15 81 22 157q71 144 226 185zM485 307q-6 39 -35.5 68t-69.5 32q-84 7 -146 -46.5t-66 -138.5q0 -44 19.5 -79t61.5 -49q47 -17 100 -1
q74 22 110.5 86t25.5 128zM359 584h-99l143 164h124zM523 583h-99l143 165h124z" />
    <glyph glyph-name="OE" unicode="&#x152;" horiz-adv-x="999" 
d="M991 599h-326l-35 -197h275l-18 -103h-275l-36 -197h328q-3 -18 -10 -54.5t-9 -46.5l-456 -1q-69 0 -104 3q-124 12 -195.5 76.5t-67.5 184.5q5 101 37 192q27 71 70 118.5t102.5 73.5t121.5 37.5t146 14.5h470zM455 104l89 493q-63 1 -110.5 -4.5t-96 -23.5t-82 -56.5
t-50.5 -97.5q-17 -58 -23 -127q-14 -165 157 -180q53 -6 116 -4z" />
    <glyph glyph-name="oe" unicode="&#x153;" horiz-adv-x="1086" 
d="M1023 204h-423v-4l-1 -3q6 -49 36.5 -77.5t71.5 -33.5q88 -10 155 58q3 4 10 11l93 -47q-1 -1 -5 -7q-83 -95 -201 -114q-79 -11 -143 14q-51 18 -102 79h-7q-45 -47 -121 -77q-60 -22 -126 -19q-84 5 -139 52q-57 48 -71 125q-13 75 19 148q33 74 99 126t145 67
q85 16 156 -13q58 -23 97 -79h7q52 54 124 80q66 24 139 16q104 -12 152 -82q35 -52 42.5 -106.5t-7.5 -113.5zM620 305q-2 -6 -3 -11h297q0 36 -23 65.5t-60 40.5q-37 12 -77 4q-90 -16 -134 -99zM482 279v14q-7 81 -80 106q-37 13 -80 5q-84 -14 -126 -82t-29 -134
q7 -40 34 -67.5t69 -34.5q60 -9 115 23q92 55 97 170z" />
    <glyph glyph-name="Racute" unicode="&#x154;" horiz-adv-x="739" 
d="M698 522q5 -85 -50 -166q-50 -72 -143 -99l76 -258h-131l-70 242h-15h-171l-42 -241h-121l125 699h303q99 0 163.5 -42.5t75.5 -134.5zM548 402q31 45 28 105q-3 43 -35.5 66t-87.5 23h-197l-44 -254h178q116 0 158 60zM649 935l-168 -164h-99l143 164h124z" />
    <glyph glyph-name="racute" unicode="&#x155;" horiz-adv-x="441" 
d="M193 272l-50 -272h-118q22 130 87 495h94l9 -60h3q40 48 95 65q48 14 93 8q16 -2 23 -6l-22 -123q-22 10 -33 13q-43 10 -79 1q-85 -22 -102 -121zM485 730l-168 -164h-99l143 164h124z" />
    <glyph glyph-name="Rcaron" unicode="&#x158;" horiz-adv-x="711" 
d="M697 522q5 -85 -50 -166q-50 -72 -143 -99l76 -258h-131l-70 242h-15h-171l-42 -241h-121l125 699h303q99 0 163.5 -42.5t75.5 -134.5zM547 402q31 45 28 105q-3 43 -35.5 66t-87.5 23h-197l-44 -254h178q116 0 158 60zM237 926v16h136l62 -99h4l85 99h131v-11l-176 -157
h-107z" />
    <glyph glyph-name="rcaron" unicode="&#x159;" horiz-adv-x="453" 
d="M143 0l50 272q17 99 102 121q36 9 79 -1q11 -3 33 -13l22 123q-7 4 -23 6q-45 6 -93 -8q-55 -17 -95 -65h-3l-9 60h-94q-65 -365 -87 -495h118zM76 721v16h136l62 -99h4l85 99h131v-11l-176 -157h-107z" />
    <glyph glyph-name="Sacute" unicode="&#x15a;" horiz-adv-x="719" 
d="M273 90q29 -6 72 -1t83.5 16t69.5 40t29 70q0 14 -7.5 26.5t-23 21t-30.5 15t-38 12t-37.5 8t-37 6t-28.5 4.5q-71 10 -119 28q-104 39 -105 116q-2 71 25 123.5t76 82t109 43.5t132 14q66 0 134 -23t120 -66l-99 -81q-38 33 -94.5 51t-118.5 16q-132 -5 -156 -84
q-6 -15 -4 -28t4.5 -22t12 -17t17.5 -13t22.5 -9.5t26 -7.5t28.5 -6q22 -4 79 -13q33 -6 56.5 -11t60.5 -17.5t60.5 -27.5t41.5 -41t18 -57q0 -110 -81 -180.5t-199 -86.5q-57 -7 -119 -4q-153 7 -246 102q63 55 98 84q27 -33 72.5 -55t95.5 -28zM667 935l-168 -164h-99
l143 164h124z" />
    <glyph glyph-name="sacute" unicode="&#x15b;" horiz-adv-x="526" 
d="M68 307q-6 110 83 163.5t212 37.5q94 -12 135 -61l-81 -81q-31 31 -94 42q-23 2 -52.5 2.5t-55.5 -14.5t-26 -43q2 -23 38 -36q18 -5 52 -11q59 -7 95 -20q47 -16 73 -50.5t17 -83.5q-10 -61 -52 -101t-106 -55q-64 -16 -141 -9q-120 13 -163 73q37 42 77 83
q56 -56 167 -56q39 0 69.5 16t27.5 53q0 36 -92 50q-64 10 -96 20q-74 21 -87 81zM536 730l-168 -164h-99l143 164h124z" />
    <glyph glyph-name="Scaron" unicode="&#x160;" horiz-adv-x="719" 
d="M273 90q29 -6 72 -1t83.5 16t69.5 40t29 70q0 14 -7.5 26.5t-23 21t-30.5 15t-38 12t-37.5 8t-37 6t-28.5 4.5q-71 10 -119 28q-104 39 -105 116q-2 71 25 123.5t76 82t109 43.5t132 14q66 0 134 -23t120 -66l-99 -81q-38 33 -94.5 51t-118.5 16q-132 -5 -156 -84
q-6 -15 -4 -28t4.5 -22t12 -17t17.5 -13t22.5 -9.5t26 -7.5t28.5 -6q22 -4 79 -13q33 -6 56.5 -11t60.5 -17.5t60.5 -27.5t41.5 -41t18 -57q0 -110 -81 -180.5t-199 -86.5q-57 -7 -119 -4q-153 7 -246 102q63 55 98 84q27 -33 72.5 -55t95.5 -28zM254 925v16h136l62 -99h4
l85 99h131v-11l-176 -157h-107z" />
    <glyph glyph-name="scaron" unicode="&#x161;" horiz-adv-x="526" 
d="M68 307q-6 110 83 163.5t212 37.5q94 -12 135 -61l-81 -81q-31 31 -94 42q-23 2 -52.5 2.5t-55.5 -14.5t-26 -43q2 -23 38 -36q18 -5 52 -11q59 -7 95 -20q47 -16 73 -50.5t17 -83.5q-10 -61 -52 -101t-106 -55q-64 -16 -141 -9q-120 13 -163 73q37 42 77 83
q56 -56 167 -56q39 0 69.5 16t27.5 53q0 36 -92 50q-64 10 -96 20q-74 21 -87 81zM142 721v16h136l62 -99h4l85 99h131v-11l-176 -157h-107z" />
    <glyph glyph-name="Tcaron" unicode="&#x164;" horiz-adv-x="626" 
d="M69 699h588l-20 -101h-234l-106 -598h-119l105 598h-233zM184 926v16h136l62 -99h4l85 99h131v-11l-176 -157h-107z" />
    <glyph glyph-name="tcaron" unicode="&#x165;" horiz-adv-x="355" 
d="M237 394l-66 -394h-120l66 394h-94q7 45 17 101h95l25 140l123 24l-27 -164h104l-17 -101h-106zM480 749l-126 -200h-68l76 200h118z" />
    <glyph glyph-name="Uring" unicode="&#x16e;" horiz-adv-x="784" 
d="M640 699h119l-51 -293q-13 -76 -20 -109q-22 -94 -73 -165q-83 -116 -222 -141q-51 -9 -108 -4q-36 3 -67 13q-109 36 -142 145q-13 39 -13 84q-3 51 9 113q5 25 32 177.5t32 179.5h119q-4 -21 -27.5 -151.5t-26.5 -151.5l-15 -93q-8 -60 6 -112q13 -42 43 -70
q29 -25 70 -31q85 -14 152 33q36 24 62 62q35 51 49 114q2 9 16 80zM405 762q-67 13 -81 85q-7 42 3 71q20 54 64 85.5t102 31.5q33 0 62 -13q59 -29 61 -96q3 -82 -60 -131.5t-151 -32.5zM408 887q-3 -34 33 -44q19 -5 37 0q50 11 53 60q1 21 -14.5 34t-38.5 13
q-28 0 -47.5 -17t-22.5 -46z" />
    <glyph glyph-name="uring" unicode="&#x16f;" 
d="M520 496h118q-31 -191 -87 -496h-93q-1 9 -3 28t-4 28h-6q-33 -40 -104 -60q-53 -15 -117 -9q-39 3 -71 13q-7 4 -13 5q-81 33 -98 123q-8 46 0 93q6 40 20 120q3 21 13 77.5t14 77.5h119q-34 -189 -45 -261q-5 -30 0 -62q12 -66 78 -81q79 -19 148 24.5t86 121.5
q3 14 7.5 40t6.5 34q3 19 15.5 92t15.5 92zM343 568q-67 13 -81 85q-7 42 3 71q20 54 64 85.5t102 31.5q33 0 62 -13q59 -29 61 -96q3 -82 -60 -131.5t-151 -32.5zM346 693q-3 -34 33 -44q19 -5 37 0q50 11 53 60q1 21 -14.5 34t-38.5 13q-28 0 -47.5 -17t-22.5 -46z" />
    <glyph glyph-name="Uhungarumlaut" unicode="&#x170;" horiz-adv-x="784" 
d="M640 699h119l-51 -293q-13 -76 -20 -109q-22 -94 -73 -165q-83 -116 -222 -141q-51 -9 -108 -4q-36 3 -67 13q-109 36 -142 145q-13 39 -13 84q-3 51 9 113q5 25 32 177.5t32 179.5h119q-4 -21 -27.5 -151.5t-26.5 -151.5l-15 -93q-8 -60 6 -112q13 -42 43 -70
q29 -25 70 -31q85 -14 152 33q36 24 62 62q35 51 49 114q2 9 16 80zM435 789h-99l143 164h124zM599 788h-99l143 165h124z" />
    <glyph glyph-name="uhungarumlaut" unicode="&#x171;" 
d="M520 496h118q-31 -191 -87 -496h-93q-1 9 -3 28t-4 28h-6q-33 -40 -104 -60q-53 -15 -117 -9q-39 3 -71 13q-7 4 -13 5q-81 33 -98 123q-8 46 0 93q6 40 20 120q3 21 13 77.5t14 77.5h119q-34 -189 -45 -261q-5 -30 0 -62q12 -66 78 -81q79 -19 148 24.5t86 121.5
q3 14 7.5 40t6.5 34q3 19 15.5 92t15.5 92zM359 584h-99l143 164h124zM523 583h-99l143 165h124z" />
    <glyph glyph-name="Ydieresis" unicode="&#x178;" horiz-adv-x="628" 
d="M540 699h126l-317 -424l-47 -275h-120l49 278l-174 421h132l120 -318h3q76 104 228 318zM224 854q0 24 13 41q23 31 57 35q31 4 49.5 -17.5t11.5 -49.5q-6 -26 -29 -45t-49 -18q-25 1 -39.5 17.5t-13.5 36.5zM429 854q0 24 13 41q23 31 57 35q31 4 49.5 -17.5t11.5 -49.5
q-6 -26 -29 -45t-49 -18q-25 1 -39.5 17.5t-13.5 36.5z" />
    <glyph glyph-name="Zacute" unicode="&#x179;" horiz-adv-x="647" 
d="M646 592l-486 -484l-1 -8h409l-17 -100h-549l22 115l481 475l1 7h-397l15 102h542zM634 935l-168 -164h-99l143 164h124z" />
    <glyph glyph-name="zacute" unicode="&#x17a;" horiz-adv-x="573" 
d="M538 398l-360 -290l-1 -7h316l-15 -101h-478l24 97l361 289l2 8h-312l18 100l462 1zM560 730l-168 -164h-99l143 164h124z" />
    <glyph glyph-name="Zdotaccent" unicode="&#x17b;" horiz-adv-x="647" 
d="M653 592l-486 -484l-1 -8h409l-17 -100h-549l22 115l481 475l1 7h-397l15 102h542zM363 852q0 24 13 41q23 31 57 35q31 4 49.5 -17.5t11.5 -49.5q-6 -26 -29 -45t-49 -18q-25 1 -39.5 17.5t-13.5 36.5z" />
    <glyph glyph-name="zdotaccent" unicode="&#x17c;" horiz-adv-x="573" 
d="M538 398l-360 -290l-1 -7h316l-15 -101h-478l24 97l361 289l2 8h-312l18 100l462 1zM284 647q0 24 13 41q23 31 57 35q31 4 49.5 -17.5t11.5 -49.5q-6 -26 -29 -45t-49 -18q-25 1 -39.5 17.5t-13.5 36.5z" />
    <glyph glyph-name="Zcaron" unicode="&#x17d;" horiz-adv-x="647" 
d="M641 592l-486 -484l-1 -8h409l-17 -100h-549l22 115l481 475l1 7h-397l15 102h542zM218 925v16h136l62 -99h4l85 99h131v-11l-176 -157h-107z" />
    <glyph glyph-name="zcaron" unicode="&#x17e;" horiz-adv-x="572" 
d="M538 398l-360 -290l-1 -7h316l-15 -101h-478l24 97l361 289l2 8h-312l18 100l462 1zM153 721v16h136l62 -99h4l85 99h131v-11l-176 -157h-107z" />
    <glyph glyph-name="florin" unicode="&#x192;" horiz-adv-x="404" 
d="M296 606q-30 -6 -42 -33q-8 -16 -14 -56h112l-16 -100h-114q-4 -27 -15.5 -91.5t-16.5 -91.5q-16 -94 -25 -142q-9 -58 -26 -148q-8 -38 -24 -71q-42 -80 -137 -88q-35 -3 -70 3q-1 0 -3.5 1t-3.5 1t-5 2q17 93 18 98q4 -1 11.5 -2.5t10.5 -1.5q27 -3 51 1q28 6 40 33
q8 17 12 44q6 32 17.5 96.5t17.5 96.5q18 106 28 159q2 15 8 50.5t9 50.5h-62l17 100h64l1 12q7 38 15 60q10 26 22 45q36 56 98 69q50 11 116 -3l-20 -100q-43 12 -74 6z" />
    <glyph glyph-name="Scommaaccent" unicode="&#x218;" horiz-adv-x="719" 
d="M214 -283l126 200h-118l-76 -200h68zM273 90q29 -6 72 -1t83.5 16t69.5 40t29 70q0 14 -7.5 26.5t-23 21t-30.5 15t-38 12t-37.5 8t-37 6t-28.5 4.5q-71 10 -119 28q-104 39 -105 116q-2 71 25 123.5t76 82t109 43.5t132 14q66 0 134 -23t120 -66l-99 -81
q-38 33 -94.5 51t-118.5 16q-132 -5 -156 -84q-6 -15 -4 -28t4.5 -22t12 -17t17.5 -13t22.5 -9.5t26 -7.5t28.5 -6q22 -4 79 -13q33 -6 56.5 -11t60.5 -17.5t60.5 -27.5t41.5 -41t18 -57q0 -110 -81 -180.5t-199 -86.5q-57 -7 -119 -4q-153 7 -246 102q63 55 98 84
q27 -33 72.5 -55t95.5 -28z" />
    <glyph glyph-name="scommaaccent" unicode="&#x219;" horiz-adv-x="526" 
d="M150 -283l126 200h-118l-76 -200h68zM68 307q-6 110 83 163.5t212 37.5q94 -12 135 -61l-81 -81q-31 31 -94 42q-23 2 -52.5 2.5t-55.5 -14.5t-26 -43q2 -23 38 -36q18 -5 52 -11q59 -7 95 -20q47 -16 73 -50.5t17 -83.5q-10 -61 -52 -101t-106 -55q-64 -16 -141 -9
q-120 13 -163 73q37 42 77 83q56 -56 167 -56q39 0 69.5 16t27.5 53q0 36 -92 50q-64 10 -96 20q-74 21 -87 81z" />
    <glyph glyph-name="circumflex" unicode="&#x2c6;" horiz-adv-x="471" 
d="M437 588v-15h-136l-62 99h-4l-85 -99h-131v11l175 157h108z" />
    <glyph glyph-name="caron" unicode="&#x2c7;" horiz-adv-x="469" 
d="M25 721v16h136l62 -99h4l85 99h131v-11l-176 -157h-107z" />
    <glyph glyph-name="breve" unicode="&#x2d8;" horiz-adv-x="467" 
d="M358 719h103q0 -37 -26 -77t-63 -67q-97 -69 -218 -38q-19 5 -44 19q-50 32 -59 93q-6 30 0 70h104q0 -21 2 -35q4 -31 36 -47q13 -7 26 -8q42 -6 76 9q54 22 63 81z" />
    <glyph glyph-name="dotaccent" unicode="&#x2d9;" horiz-adv-x="189" 
d="M31 647q0 24 13 41q23 31 57 35q31 4 49.5 -17.5t11.5 -49.5q-6 -26 -29 -45t-49 -18q-25 1 -39.5 17.5t-13.5 36.5z" />
    <glyph glyph-name="ring" unicode="&#x2da;" horiz-adv-x="363" 
d="M120 435q-67 13 -81 85q-7 42 3 71q20 54 64 85.5t102 31.5q33 0 62 -13q59 -29 61 -96q3 -82 -60 -131.5t-151 -32.5zM123 560q-3 -34 33 -44q18 -5 37 0q50 11 53 60q1 21 -14.5 34t-38.5 13q-28 0 -47.5 -17t-22.5 -46z" />
    <glyph glyph-name="ogonek" unicode="&#x2db;" horiz-adv-x="240" 
d="M150 -162q26 -2 51 6q6 2 15 3l-14 -80q-13 -6 -39 -10q-38 -3 -76 3q-17 3 -33 11q-36 19 -40 56q-8 57 24 105q14 20 33 37q33 30 79 54l79 -16q-29 -6 -56 -20q-25 -14 -37 -30q-30 -35 -26 -81q1 -17 12.5 -27t27.5 -11z" />
    <glyph glyph-name="tilde" unicode="&#x2dc;" horiz-adv-x="447" 
d="M393 695q8 6 15 11l-16 -85q-31 -24 -73 -37q-35 -11 -78 1q-7 2 -14 4.5t-15 5.5t-13 5q-11 3 -25 8q-42 12 -84 -3q-21 -7 -43 -21q-1 -1 -5 -2.5t-5 -2.5l11 77q52 37 102 41q27 2 64 -10q8 -2 38 -14q26 -8 38 -9q21 -4 47 3q28 10 56 28z" />
    <glyph glyph-name="hungarumlaut" unicode="&#x2dd;" horiz-adv-x="425" 
d="M140 584h-99l143 164h124zM304 583h-99l143 165h124z" />
    <glyph glyph-name="endash" unicode="&#x2013;" horiz-adv-x="521" 
d="M468 342l-17 -101h-400l17 101h400z" />
    <glyph glyph-name="emdash" unicode="&#x2014;" horiz-adv-x="756" 
d="M707 342l-17 -101h-639l17 101h639z" />
    <glyph glyph-name="quoteleft" unicode="&#x2018;" horiz-adv-x="178" 
d="M25 499l126 200h68l-76 -200h-118z" />
    <glyph glyph-name="quoteright" unicode="&#x2019;" horiz-adv-x="163" 
d="M219 699l-126 -200h-68l76 200h118z" />
    <glyph glyph-name="quotesinglbase" unicode="&#x201a;" horiz-adv-x="211" 
d="M176 113l-126 -200h-68l76 200h118z" />
    <glyph glyph-name="quotedblleft" unicode="&#x201c;" horiz-adv-x="379" 
d="M169 499l126 200h68l-76 -200h-118zM25 499l126 200h68l-76 -200h-118z" />
    <glyph glyph-name="quotedblright" unicode="&#x201d;" horiz-adv-x="363" 
d="M93 499h-68l76 200h118zM237 499h-68l76 200h118z" />
    <glyph glyph-name="quotedblbase" unicode="&#x201e;" horiz-adv-x="364" 
d="M62 -87h-68l76 200h118zM214 -87h-68l76 200h118z" />
    <glyph glyph-name="dagger" unicode="&#x2020;" horiz-adv-x="431" 
d="M393 494l-19 -103h-112l-95 -537h-99l94 537h-113l16 103h115l29 163h101l-29 -163h112z" />
    <glyph glyph-name="daggerdbl" unicode="&#x2021;" horiz-adv-x="435" 
d="M378 393h-111l-48 -268h114l-19 -102h-113l-30 -167h-99l30 167h-113l17 102h113l47 268h-113l17 102h114l29 163h101l-29 -163h112z" />
    <glyph glyph-name="bullet" unicode="&#x2022;" horiz-adv-x="303" 
d="M79 294q0 29 16 49q27 38 71 44q38 4 60.5 -22.5t13.5 -59.5q-7 -33 -35.5 -56t-60.5 -22q-30 1 -48 21t-17 46z" />
    <glyph glyph-name="ellipsis" unicode="&#x2026;" horiz-adv-x="594" 
d="M13 49q0 24 13 41q23 31 57 35q31 4 49.5 -17.5t11.5 -49.5q-6 -26 -29 -45t-49 -18q-25 1 -39.5 17.5t-13.5 36.5zM222 49q0 24 13 41q23 31 57 35q31 4 49.5 -17.5t11.5 -49.5q-6 -26 -29 -45t-49 -18q-25 1 -39.5 17.5t-13.5 36.5zM429 49q0 24 13 41q23 31 57 35
q31 4 49.5 -17.5t11.5 -49.5q-6 -26 -29 -45t-49 -18q-25 1 -39.5 17.5t-13.5 36.5z" />
    <glyph glyph-name="perthousand" unicode="&#x2030;" horiz-adv-x="1405" 
d="M242 346q-44 0 -73 12q-81 34 -92 123q-6 49 20 99q56 105 167 127q55 10 100 -7q84 -32 95 -111q13 -88 -45.5 -157t-145.5 -84q-10 -2 -26 -2zM290 628q-59 1 -92.5 -42.5t-26.5 -91.5q8 -47 52 -62q26 -9 56 -1q42 10 66.5 44t23.5 72q0 34 -21.5 57.5t-57.5 23.5z
M245 -17l579 728h-103l-568 -728h92zM680 -17q-44 0 -73 12q-81 34 -92 123q-6 49 20 99q56 105 167 127q55 10 100 -7q84 -32 95 -111q13 -88 -45.5 -157t-145.5 -84q-10 -2 -26 -2zM728 265q-59 1 -92.5 -42.5t-26.5 -91.5q8 -47 52 -62q26 -9 56 -1q42 10 66.5 44
t23.5 72q0 34 -21.5 57.5t-57.5 23.5zM1137 -17q-44 0 -73 12q-81 34 -92 123q-6 49 20 99q56 105 167 127q55 10 100 -7q84 -32 95 -111q13 -88 -45.5 -157t-145.5 -84q-10 -2 -26 -2zM1185 265q-59 1 -92.5 -42.5t-26.5 -91.5q8 -47 52 -62q26 -9 56 -1q42 10 66.5 44
t23.5 72q0 34 -21.5 57.5t-57.5 23.5z" />
    <glyph glyph-name="guilsinglleft" unicode="&#x2039;" horiz-adv-x="365" 
d="M347 488l-187 -201l114 -201h-118l-114 201l187 201h118z" />
    <glyph glyph-name="guilsinglright" unicode="&#x203a;" horiz-adv-x="336" 
d="M170 488l119 -201l-182 -201h-118l182 201l-119 201h118z" />
    <glyph glyph-name="fraction" unicode="&#x2044;" horiz-adv-x="317" 
d="M411 753l-383 -857h-104l383 857h104z" />
    <glyph glyph-name="Euro" unicode="&#x20ac;" horiz-adv-x="735" 
d="M596 711q70 -3 139 -39l-56 -92q-1 0 -2 0.5t-2 0.5q-39 22 -95 29q-84 8 -159 -22q-73 -28 -124 -93q-2 -2 -5.5 -7t-5.5 -9l-1 -1h303l-17 -94h-329v-1q-11 -35 -11 -68h326l-18 -94h-297h-3l4 -12q21 -54 67 -83q35 -23 79 -31q87 -18 175 10l57 -77q-2 -2 -14 -7
q-82 -33 -164 -34q-90 -2 -163 32q-110 50 -151 156q-3 7 -10 35l-4 10v1h-77l18 94h55q2 32 13 69h-54l17 94h74q65 115 180 177.5t255 55.5z" />
    <glyph glyph-name="trademark" unicode="&#x2122;" horiz-adv-x="939" 
d="M67 699h360l-11 -63h-143q-34 -192 -63 -368h-74l63 368h-141zM805 699h80l-78 -431h-74l55 303h-3l-121 -159h-66l-69 159h-3l-55 -302v-1h-73q11 58 38 214.5t38 216.5h83l84 -207h4z" />
    <glyph glyph-name="minus" unicode="&#x2212;" horiz-adv-x="504" 
d="M468 342l-17 -101h-400l17 101h400z" />
    <glyph glyph-name="fi" unicode="&#xfb01;" horiz-adv-x="585" 
d="M262 495h277l-89 -495h-119l70 394h-158q-12 -65 -35 -197t-34 -197h-120q3 16 16.5 91.5t31 175.5t22.5 127h-77q2 17 8 50.5t9 50.5h78l2 13q8 47 23 82q16 36 39 60q38 40 94 52q47 9 88 5l-16 -108q-21 0 -43 -5q-40 -12 -56 -51q-10 -24 -11 -48zM442 637
q0 30 20 51.5t50 24.5q32 3 50 -18t11 -49q-6 -26 -29 -45t-49 -18q-25 1 -39.5 17.5t-13.5 36.5z" />
    <glyph glyph-name="fl" unicode="&#xfb02;" horiz-adv-x="604" 
d="M392 700q40 0 85.5 -3t70.5 -5l25 -3l-121 -689h-117q20 110 104 590q-5 2 -29 4q-109 13 -141 -51q-10 -21 -14 -50h88l-16 -99h-90q-12 -64 -69 -394h-117q8 44 32 182t37 212h-75l18 99h74l2 13q7 32 16 55q37 91 133 124q46 15 104 15z" />
    <glyph glyph-name="CR" horiz-adv-x="249" 
 />
    <glyph glyph-name="OO" horiz-adv-x="588" 
d="M280 278q-99 0 -163 65.5t-64 152.5q0 85 64 151t163 66t163.5 -66.5t64.5 -150.5q0 -88 -64.5 -153t-163.5 -65zM280 629q-55 0 -92 -36t-37 -97q0 -58 37.5 -96t91.5 -38q55 0 92.5 37t37.5 97t-37.5 96.5t-92.5 36.5z" />
    </font>
</defs>
</svg>
