<?xml version="1.0" standalone="no"?>
<!DOCTYPE svg PUBLIC "-//W3C//DTD SVG 1.1//EN" "http://www.w3.org/Graphics/SVG/1.1/DTD/svg11.dtd" >
<svg xmlns="http://www.w3.org/2000/svg" xmlns:xlink="http://www.w3.org/1999/xlink" version="1.1">
<metadata>
Created by FontForge 20170731 at Thu Oct 19 14:11:13 2017
 By Aleksey,,,
Copyright (c) 2017 by Jan-Christian Bruun. All rights reserved.
</metadata>
<defs>
<font id="ArkibalDisplay-LightItalic" horiz-adv-x="670" >
  <font-face 
    font-family="Arkibal Display"
    font-weight="300"
    font-style="italic"
    font-stretch="normal"
    units-per-em="1000"
    panose-1="2 0 5 3 0 0 0 2 0 4"
    ascent="750"
    descent="-250"
    x-height="495"
    cap-height="699"
    bbox="-85 -318.138 1304.44 1010.29"
    underline-thickness="50"
    underline-position="-200"
    unicode-range="U+0020-FB02"
  />
<missing-glyph horiz-adv-x="249" 
 />
    <glyph glyph-name=".notdef" horiz-adv-x="249" 
 />
    <glyph glyph-name=".null" horiz-adv-x="0" 
 />
    <glyph glyph-name="nonmarkingreturn" horiz-adv-x="333" 
 />
    <glyph glyph-name="space" unicode=" " horiz-adv-x="313" 
 />
    <glyph glyph-name="exclam" unicode="!" horiz-adv-x="227" 
d="M116 193h-39l86 523h50zM105 40q0 -18 -13.5 -30t-31.5 -12q-13 0 -22 10t-7 24q2 13 12.5 25t26.5 14q14 2 24.5 -7t10.5 -24z" />
    <glyph glyph-name="quotedbl" unicode="&#x22;" horiz-adv-x="285" 
d="M74 458h-44l42 241h44zM215 458h-43l42 241h43z" />
    <glyph glyph-name="numbersign" unicode="#" horiz-adv-x="734" 
d="M704 468h-132l-87 -232h125l-8 -45h-133l-75 -200h-47l75 200h-227l-75 -200h-47l75 200h-126l8 45h135l87 232h-128l7 45h137l73 195h47l-73 -195h227l73 195h47l-73 -195h122zM439 236l87 232h-228l-87 -232h228z" />
    <glyph glyph-name="dollar" unicode="$" horiz-adv-x="673" 
d="M414 384q32 -5 54.5 -10t56.5 -16.5t55 -26.5t37 -41t16 -58q-1 -84 -49 -140.5t-117.5 -80.5t-157.5 -27l-11 -63h-45l12 63q-159 11 -269 107l38 36q91 -88 239 -96l57 315q-60 7 -76 11q-61 13 -106 45.5t-47 88.5q-4 221 295 225l11 65h45l-12 -66q127 -5 221 -70
l-37 -37q-81 54 -192 62l-51 -282q20 -2 33 -4zM320 395l17 -2l51 277q-202 -2 -231 -126q-10 -38 1 -66.5t38.5 -45t57.5 -25t66 -12.5zM583 217q1 34 -19 58.5t-58.5 37t-65.5 18t-67 9.5l-56 -310q25 0 47 3q39 5 75 17.5t69.5 33.5t54 55.5t20.5 77.5z" />
    <glyph glyph-name="percent" unicode="%" horiz-adv-x="916" 
d="M302 717q43 0 78 -19q40 -22 59 -61.5t13 -81.5q-12 -82 -76 -134q-45 -36 -110 -46q-52 -7 -94 13q-40 18 -62.5 54.5t-19.5 82.5q3 63 44 112q69 80 168 80zM292 669q-53 0 -99 -36.5t-54 -87.5q-7 -39 10.5 -69t50.5 -44q23 -10 46 -10q58 0 101.5 35t54.5 88
q6 41 -12 71t-50 44q-22 9 -48 9zM223 -17h-56l573 736h56zM728 325q43 0 78 -19q40 -22 59 -61.5t13 -81.5q-12 -82 -76 -134q-45 -36 -110 -46q-52 -7 -94 13q-40 18 -62.5 54.5t-19.5 82.5q3 63 44 112q69 80 168 80zM718 277q-53 0 -99 -36.5t-54 -87.5q-7 -39 10.5 -69
t50.5 -44q23 -10 46 -10q58 0 101.5 35t54.5 88q6 41 -12 71t-50 44q-22 9 -48 9z" />
    <glyph glyph-name="ampersand" unicode="&#x26;" horiz-adv-x="655" 
d="M573 204q-22 -49 -55 -90l77 -114h-67l-46 68h-5q-82 -67 -188 -79q-54 -6 -108.5 4t-100.5 46.5t-53 95.5q-10 87 45 159q52 70 171 109v2q-34 51 -46 94q-22 72 28 134.5t134 77.5q69 12 134 -2q29 -7 63 -26l-16 -48q-44 24 -77 31q-67 14 -129 -7q-63 -25 -83 -73.5
t13 -109.5q24 -40 37 -59l188 -263q45 58 60 151h53q0 -14 -9 -46t-20 -55zM436 94q14 11 17 15l-187 259h-6q-70 -20 -121 -65.5t-60 -112.5q-6 -46 16 -81.5t59 -51t82 -21.5t86 6q61 12 114 52z" />
    <glyph glyph-name="quotesingle" unicode="'" horiz-adv-x="157" 
d="M143 699l-42 -241h-44l42 241h44z" />
    <glyph glyph-name="parenleft" unicode="(" horiz-adv-x="309" 
d="M321 772h54q-8 -10 -10 -12q-119 -143 -184 -294q-37 -89 -51 -170q-11 -67 -8 -130q4 -154 72 -298q2 -6 8 -17t8 -17q1 -1 3 -4h-58l-6 9q-29 57 -49 121q-26 80 -32 172q-4 62 3 123q9 80 39 165q45 125 130 250q44 60 75 96z" />
    <glyph glyph-name="parenright" unicode=")" horiz-adv-x="314" 
d="M224 471q12 -156 -45 -308q-49 -130 -142 -256q-19 -26 -61 -74l-3 -3h-58l6 6q72 82 130 180q61 103 92 201q30 101 29 202q0 175 -82 344q-1 1 -2.5 4l-2.5 5h55q2 -2 7 -13q29 -59 50 -132q23 -83 27 -156z" />
    <glyph glyph-name="asterisk" unicode="*" horiz-adv-x="414" 
d="M396 560l-162 -32l91 -116l-65 -43l-51 144l-104 -144l-50 40l131 117l-150 33l33 65l131 -68l6 155h71l-49 -156l159 71z" />
    <glyph glyph-name="plus" unicode="+" horiz-adv-x="554" 
d="M521 368l-7 -42h-218l-38 -218h-42l38 218h-218l7 42h218l38 217h42l-38 -217h218z" />
    <glyph glyph-name="comma" unicode="," horiz-adv-x="201" 
d="M-25 -113h-38l99 202h84z" />
    <glyph glyph-name="hyphen" unicode="-" horiz-adv-x="362" 
d="M306 265h-257l8 45h256z" />
    <glyph glyph-name="period" unicode="." horiz-adv-x="209" 
d="M108 41q0 -18 -13.5 -30t-31.5 -12q-13 0 -22 10t-7 24q2 13 12.5 25t26.5 14q14 2 24.5 -7t10.5 -24z" />
    <glyph glyph-name="slash" unicode="/" horiz-adv-x="317" 
d="M-7 -93h-46l387 863h46z" />
    <glyph glyph-name="zero" unicode="0" horiz-adv-x="701" 
d="M50 255q6 115 42.5 209.5t110 162t175.5 83.5q104 11 173.5 -30t97 -119t16.5 -183q-15 -144 -97 -252.5t-208 -136.5q-79 -16 -151 6q-81 28 -120 99t-39 161zM619 425q0 123 -65 188.5t-186 47.5q-114 -28 -182.5 -120.5t-81.5 -217.5q-19 -136 42 -219t187 -71
q91 14 157 76t96.5 143.5t32.5 172.5z" />
    <glyph glyph-name="one" unicode="1" horiz-adv-x="511" 
d="M288 46h192l-7 -46h-434l7 46h193h1l105 600l-198 -43l5 50l213 45h38z" />
    <glyph glyph-name="two" unicode="2" horiz-adv-x="584" 
d="M203 103q-12 -6 -49.5 -23.5t-55.5 -26.5l-1 -5h406l-7 -48h-455l14 81q125 54 209 104q70 42 127 92q53 48 84 93t44 95q9 37 6 75q-6 64 -54.5 92.5t-128.5 24.5q-90 -5 -187 -85l-27 33q114 100 260 100q66 0 118.5 -32t64.5 -96q7 -32 2 -79q-13 -102 -88 -190
q-40 -48 -108 -100q-72 -52 -174 -105z" />
    <glyph glyph-name="three" unicode="3" horiz-adv-x="584" 
d="M568 699l-9 -49l-258 -223l1 -5q79 -4 143.5 -44.5t70.5 -109.5q8 -96 -50.5 -173t-159.5 -97q-80 -17 -171 -12q-70 4 -147 27l19 49q108 -39 244 -28q94 8 156 63t62 149q-3 32 -18.5 56.5t-36.5 38.5t-51.5 23.5t-58 13.5t-61.5 6l-5 37l252 227l2 6h-360l7 45h429z
" />
    <glyph glyph-name="four" unicode="4" horiz-adv-x="607" 
d="M496 212h81l-7 -48h-83l-29 -164h-46l27 164h-415l10 48l330 487h59l-338 -484v-3h363l30 168h47z" />
    <glyph glyph-name="five" unicode="5" horiz-adv-x="560" 
d="M545 651h-351l-41 -231l4 -1q41 18 83 27q76 14 142 -4q51 -16 86 -53t44 -91q8 -61 -15 -125q-50 -139 -197 -177q-51 -12 -113 -9q-126 9 -172 64l30 43q46 -49 122 -61t146 12q117 37 147 169q17 73 -22.5 127.5t-114.5 61.5q-97 9 -215 -49l-14 6l59 339h399z" />
    <glyph glyph-name="six" unicode="6" horiz-adv-x="643" 
d="M510 422q71 -38 86 -116q11 -54 -7 -114q-22 -75 -79 -129t-133 -71q-74 -17 -146 1q-176 42 -133 324q48 277 203 358q52 28 119 36q47 5 90 -1q66 -8 118 -38l-32 -42q-57 28 -119 34q-51 5 -99 -7q-87 -21 -142 -94q-36 -47 -57 -112q-18 -54 -29 -135h4
q27 47 73.5 80t102.5 45q51 9 98 5q46 -5 82 -24zM321 33q99 0 167 74.5t53 174.5q-6 43 -35 72.5t-73 39.5q-72 16 -145 -12q-69 -27 -108 -88.5t-32 -137.5q6 -61 54.5 -92t118.5 -31z" />
    <glyph glyph-name="seven" unicode="7" horiz-adv-x="546" 
d="M75 699h470l-8 -43l-370 -656h-53l369 647v5h-414z" />
    <glyph glyph-name="eight" unicode="8" horiz-adv-x="648" 
d="M190 375l2 3q-64 29 -67 106q-7 96 51 156t160 70q35 5 86 3q70 -3 121 -32t61 -87q10 -65 -23 -129.5t-89 -102.5l-1 -4q104 -41 94 -151q-9 -90 -70 -143.5t-154 -71.5q-68 -11 -146 -5q-68 7 -122 43t-62 97q-15 170 159 248zM278 28q40 0 85 8q76 17 122.5 64.5
t50.5 120.5q0 21 -5.5 37.5t-19 28.5t-26 20t-38 15t-40.5 10.5t-48 9.5q-82 11 -117 20q-153 -74 -163 -178q-2 -83 55.5 -119.5t143.5 -36.5zM448 373q54 37 82 88q28 54 25 105q-3 47 -39.5 71t-84.5 29q-50 6 -104 -2q-164 -32 -154 -181q1 -21 17 -38t34 -26t48.5 -16
t44.5 -9t40 -5q60 -8 91 -16z" />
    <glyph glyph-name="nine" unicode="9" horiz-adv-x="595" 
d="M322 712q75 3 126.5 -19t76 -63.5t33.5 -98.5t-1 -123q-11 -94 -39 -172q-28 -77 -68 -129q-71 -93 -184 -115q-42 -9 -90 -7q-87 3 -153 41l29 45q57 -30 119 -37q46 -4 95 5q87 18 144 90q37 46 59 109q27 76 34 151h-3q-38 -74 -112.5 -111.5t-160.5 -29.5
q-47 3 -85 23q-75 40 -88 122q-10 53 8 112q27 89 97 146t163 61zM494 454q15 54 6 98q-13 65 -72 92t-132 19q-84 -13 -141 -84.5t-47 -158.5q9 -83 85 -114q36 -14 75 -12q74 -4 137.5 41t88.5 119z" />
    <glyph glyph-name="colon" unicode=":" horiz-adv-x="193" 
d="M94 41q0 -18 -13.5 -30t-31.5 -12q-13 0 -22 10t-7 24q2 13 12.5 25t26.5 14q14 2 24.5 -7t10.5 -24zM151 394q0 -18 -13.5 -30t-31.5 -12q-13 0 -22 10t-7 24q2 13 12.5 25t26.5 14q14 2 24.5 -7t10.5 -24z" />
    <glyph glyph-name="semicolon" unicode=";" horiz-adv-x="192" 
d="M111 89l-145 -202h-38l99 202h84zM156 394q0 -18 -13.5 -30t-31.5 -12q-13 0 -22 10t-7 24q2 13 12.5 25t26.5 14q14 2 24.5 -7t10.5 -24z" />
    <glyph glyph-name="less" unicode="&#x3c;" horiz-adv-x="585" 
d="M38 340l519 185l-9 -52l-452 -160v-2l393 -156l-6 -53l-455 187z" />
    <glyph glyph-name="equal" unicode="=" horiz-adv-x="522" 
d="M482 416h-399l8 45h398zM446 214h-399l8 45h399z" />
    <glyph glyph-name="greater" unicode="&#x3e;" horiz-adv-x="593" 
d="M547 287l-519 -185l9 52l452 160v2l-393 156l6 53l455 -187z" />
    <glyph glyph-name="question" unicode="?" horiz-adv-x="502" 
d="M478 581q5 -108 -71 -182q-39 -36 -97 -54q-45 -15 -90 -15l-27 -142h-49q4 22 16 86t18 98q46 -4 93 5q49 10 81 33q59 40 73 113q7 31 1 57q-8 37 -38.5 58.5t-71.5 27.5q-142 16 -248 -51l8 50q53 36 145 48q47 6 93 3q64 -4 111.5 -38.5t52.5 -96.5zM178 38
q0 15 -10.5 24t-24.5 7q-16 -2 -26.5 -14t-12.5 -25q-2 -14 7 -24t22 -10q18 0 31.5 12t13.5 30z" />
    <glyph glyph-name="at" unicode="@" horiz-adv-x="989" 
d="M948 478q10 -70 -7 -143q-17 -79 -58 -147q-29 -48 -67 -79q-36 -31 -76 -41q-31 -8 -61 -2q-50 12 -64 75h-4q-66 -66 -134 -76q-50 -7 -90 4q-84 24 -99 110q-10 58 11 125.5t70 111.5q67 63 158 60q89 -5 125 -78h4l28 63h28l-48 -275q-3 -19 -2 -35q3 -41 46 -46
q13 -1 32 4q26 8 51 30q20 18 41 47q35 50 55 121q19 66 16 119q-3 90 -56 152.5t-131.5 87t-167.5 15.5q-136 -14 -245 -94q-158 -115 -199 -309q-13 -64 -9 -119q6 -108 64 -184q56 -71 144 -101q50 -18 113 -23q130 -6 257 34l-9 -43q-24 -9 -58 -16q-94 -21 -179 -18
q-113 3 -200 50q-137 74 -171 225q-15 70 -6 149q12 111 63 202q123 217 367 277q72 17 143 14q119 -4 209.5 -67.5t115.5 -179.5zM592 171q43 55 45 141q2 45 -31 82t-78 40q-98 6 -153 -73q-50 -74 -39 -163q6 -60 62 -83q44 -17 89 -9q62 11 105 65z" />
    <glyph glyph-name="A" unicode="A" horiz-adv-x="741" 
d="M476 699l212 -699h-55l-55 186h-436q-23 -34 -65 -98.5t-57 -87.5h-55l460 699h51zM175 231h387l-119 402h-7z" />
    <glyph glyph-name="B" unicode="B" horiz-adv-x="758" 
d="M556 350q39 -6 73 -32.5t43 -66.5q11 -49 -6 -101q-48 -150 -265 -150h-388q24 135 69.5 393t54.5 306h378q34 0 65.5 -6.5t62.5 -21t51 -43.5t23 -69q6 -77 -46 -139q-42 -49 -114 -67zM177 650q-3 -8 -25 -130t-25 -147h342q72 0 129 37.5t68 105.5q11 63 -33.5 98.5
t-112.5 35.5h-343zM628 197q6 67 -42.5 98t-122.5 31h-345q-8 -46 -24.5 -139t-24.5 -139l354 1q77 0 135.5 39t69.5 109z" />
    <glyph glyph-name="C" unicode="C" horiz-adv-x="783" 
d="M598 699q101 -30 157 -110l-42 -30q-59 80 -165 103q-159 27 -297 -64q-130 -86 -162 -243q-11 -45 -6 -91q15 -143 146 -205q85 -38 185 -26q132 18 232 109l35 -29q-60 -60 -146 -95q-63 -26 -135 -34q-45 -4 -94 2q-52 6 -100 27q-94 40 -139 126q-23 43 -31 95
q-13 95 25 194q63 160 225 240q68 34 147 43q91 11 165 -12z" />
    <glyph glyph-name="D" unicode="D" horiz-adv-x="766" 
d="M727 531q8 -35 8 -68q0 -124 -45 -238q-36 -93 -117 -148.5t-190 -69.5q-59 -7 -127 -7h-240l124 698h251q48 0 88 -4q69 -7 120 -25q103 -43 128 -138zM684 404q5 49 -4 94q-22 119 -184 145q-43 7 -111 7h-205l-107 -603h183q79 0 128 7q217 31 276 225q18 61 24 125z
" />
    <glyph glyph-name="E" unicode="E" horiz-adv-x="658" 
d="M658 651h-469l-49 -277h420l-10 -48h-419l-50 -278h471l-10 -48h-516l123 699h519z" />
    <glyph glyph-name="F" unicode="F" horiz-adv-x="654" 
d="M658 651h-469l-49 -277h420l-10 -48h-419l-57 -326h-48l123 699h519z" />
    <glyph glyph-name="G" unicode="G" horiz-adv-x="820" 
d="M422 333l8 43h346l-68 -376h-40l9 102h-3q-64 -71 -169 -102q-55 -15 -119 -17q-146 0 -244.5 98t-85.5 247q11 128 100.5 227t233.5 141q67 19 144 14q149 -11 245 -127l-37 -28q-72 85 -181 104q-110 18 -218.5 -30t-175.5 -143q-47 -68 -60 -142q-20 -119 55 -211.5
t199 -99.5q165 -10 264 79q63 59 80 144q3 13 8.5 41.5t6.5 35.5h-298z" />
    <glyph glyph-name="H" unicode="H" horiz-adv-x="758" 
d="M715 699h48l-122 -699h-48l57 327h-502l-57 -327h-48l123 699h48l-58 -325h502z" />
    <glyph glyph-name="I" unicode="I" horiz-adv-x="208" 
d="M197 699l-123 -699h-48l123 699h48z" />
    <glyph glyph-name="J" unicode="J" horiz-adv-x="578" 
d="M223 696h327q-8 -43 -22 -123t-25.5 -145t-21.5 -122q-14 -81 -36 -140q-28 -79 -91 -126t-152 -54q-71 -6 -148 6.5t-115 48.5l40 38q66 -50 190 -50q180 0 238 167q14 45 26 110q4 23 60 344h-278q3 23 8 46z" />
    <glyph glyph-name="K" unicode="K" horiz-adv-x="693" 
d="M714 700l-318 -291l232 -409h-60l-218 369l-240 -215l-27 -154h-48l123 699h48l-84 -479q5 4 11 10l517 470h64z" />
    <glyph glyph-name="L" unicode="L" horiz-adv-x="537" 
d="M87 47h390l-9 -47h-436l121 699h48z" />
    <glyph glyph-name="M" unicode="M" horiz-adv-x="868" 
d="M822 699h42l-123 -699h-50l107 606h-4l-368 -384l-235 384h-4l-107 -606h-47q46 263 124 699h39l239 -403h3z" />
    <glyph glyph-name="N" unicode="N" horiz-adv-x="767" 
d="M709 699h48l-125 -699h-31l-417 606h-4l-107 -606h-47l123 699h32l415 -605h4z" />
    <glyph glyph-name="O" unicode="O" horiz-adv-x="871" 
d="M493 714q149 0 248.5 -101t84.5 -241q-16 -130 -92 -219t-178 -131t-212 -35q-111 9 -192 74.5t-102 170.5q-13 73 9 151q43 141 166.5 236t267.5 95zM94 293q7 -111 83.5 -181t186.5 -78q109 -3 203.5 46.5t154.5 138.5q60 91 56 189q-4 129 -112.5 202.5t-235.5 50.5
q-94 -17 -173 -76t-122 -142q-40 -76 -41 -150z" />
    <glyph glyph-name="P" unicode="P" horiz-adv-x="701" 
d="M678 562q21 -132 -59 -212t-221 -80h-272l-48 -270h-48l123 699l329 -1q71 0 128 -36.5t68 -99.5zM412 316q106 0 169.5 66t48.5 159q-8 49 -51.5 80t-110.5 31h-273q-3 -7 -30 -161t-30 -174z" />
    <glyph glyph-name="Q" unicode="Q" horiz-adv-x="871" 
d="M492 714q149 0 248.5 -101t84.5 -241q-16 -130 -92 -219q-116 -136 -288 -162l52 -151h-64l-48 146q-28 0 -42 1q-111 9 -192 74.5t-102 170.5q-13 73 9 151q43 141 166.5 236t267.5 95zM721 219q60 91 56 189q-4 129 -112.5 202.5t-235.5 50.5q-94 -17 -173 -76
t-122 -142q-40 -76 -41 -150q7 -111 83.5 -181t186.5 -78q109 -3 203.5 46.5t154.5 138.5z" />
    <glyph glyph-name="R" unicode="R" horiz-adv-x="675" 
d="M645 561q19 -107 -34 -182t-156 -99l87 -280h-58l-86 271q-11 -1 -33 -1h-240l-48 -270h-48l123 699h297q70 0 127 -37.5t69 -100.5zM379 316q106 0 169.5 66t48.5 159q-8 49 -51.5 81t-110.5 32h-242l-59 -337z" />
    <glyph glyph-name="S" unicode="S" horiz-adv-x="706" 
d="M422 385q218 -30 218 -151q-1 -69 -34 -120.5t-87.5 -78.5t-118 -38.5t-134.5 -8.5q-150 6 -260 106l38 36q95 -92 254 -97q50 0 74 3q53 7 99.5 26t82.5 60t36 97q1 24 -8.5 43t-29.5 31.5t-38.5 21t-49 14.5t-46 8t-42.5 5q-13 2 -52 6.5t-61 9.5q-61 13 -105.5 45.5
t-46.5 88.5q-1 66 24.5 112t73.5 70t104.5 33.5t125.5 7.5q131 -3 228 -70l-36 -37q-95 62 -224 62q-211 0 -241 -126q-10 -38 1 -66t38.5 -44t57 -24.5t65.5 -12.5q62 -8 94 -12z" />
    <glyph glyph-name="T" unicode="T" horiz-adv-x="609" 
d="M44 699h585l-8 -47h-268l-116 -652h-48l116 652h-269z" />
    <glyph glyph-name="U" unicode="U" horiz-adv-x="799" 
d="M727 699h46l-69 -384q-22 -110 -83 -189q-79 -104 -203 -133q-44 -12 -105 -10q-49 2 -89 14q-69 20 -111 74q-30 39 -43 91q-12 51 -9 102l74 435h48l-66 -366q-12 -61 -6 -112q7 -93 77.5 -144t169.5 -46q152 12 235 131q37 54 57 128q3 11 16 79z" />
    <glyph glyph-name="V" unicode="V" horiz-adv-x="676" 
d="M676 699h50l-429 -699h-52l-186 699h55l162 -646h4z" />
    <glyph glyph-name="W" unicode="W" horiz-adv-x="1007" 
d="M1005 699h53q-218 -458 -332 -699h-56l-114 640h-4l-338 -640h-57l-88 699h55l68 -645h4l344 645h50l115 -646h4z" />
    <glyph glyph-name="X" unicode="X" horiz-adv-x="656" 
d="M374 358l-1 -7l209 -351h-65l-180 318h-4l-293 -318h-61l329 352l1 7l-197 340h57l177 -308h3l286 308h57z" />
    <glyph glyph-name="Y" unicode="Y" horiz-adv-x="624" 
d="M612 699h57l-352 -416l-49 -283h-45l48 287l-207 412h52l183 -361h7z" />
    <glyph glyph-name="Z" unicode="Z" horiz-adv-x="687" 
d="M690 654l-571 -601v-4h472l-7 -49h-541l6 44l570 601l1 6h-468l11 48h533z" />
    <glyph glyph-name="bracketleft" unicode="[" horiz-adv-x="335" 
d="M372 729h-154l-151 -865h154l-8 -44h-198l167 953h197z" />
    <glyph glyph-name="backslash" unicode="\" horiz-adv-x="289" 
d="M209 -93h-47l-84 863h47z" />
    <glyph glyph-name="bracketright" unicode="]" horiz-adv-x="409" 
d="M0 -136h154l151 865h-154l8 44h198l-167 -953h-197z" />
    <glyph glyph-name="asciicircum" unicode="^" horiz-adv-x="484" 
d="M331 702l120 -387h-54l-96 332h-3l-218 -332h-50l253 387h48z" />
    <glyph glyph-name="underscore" unicode="_" horiz-adv-x="488" 
d="M432 0l-7 -45h-412l8 45h411z" />
    <glyph glyph-name="grave" unicode="`" horiz-adv-x="201" 
d="M181 585h-51l-112 167h76z" />
    <glyph glyph-name="a" unicode="a" 
d="M547 0h-35l3 96h-1q-54 -62 -118 -87t-151 -25q-80 0 -130.5 35t-51.5 100q0 85 65.5 124t162.5 39q95 1 254 -16q11 73 -20 126t-99 66q-70 13 -140 -5q-52 -17 -79 -36t-55 -54l-41 22q40 61 110 94t157 33q112 0 172 -70.5t42 -178.5zM536 223q-64 10 -184 16
q-28 -1 -59 0t-62 -5t-56 -16t-42 -32.5t-20 -55.5q2 -33 20.5 -55t44.5 -30.5t56.5 -12.5t57.5 0q101 10 166 56.5t78 134.5z" />
    <glyph glyph-name="b" unicode="b" 
d="M504 487q72 -37 102.5 -110.5t7.5 -154.5q-23 -83 -91 -148t-156 -81q-181 -34 -273 100h-3l-28 -93h-37q21 123 61.5 349.5t59.5 333.5l49 15l-50 -295h5q91 91 205 106q83 10 148 -22zM563 214q24 63 0 130.5t-88 97.5q-57 29 -130 18q-66 -10 -124 -51t-88 -101
q-20 -38 -23 -94q-5 -89 71.5 -140.5t163.5 -36.5q72 11 130.5 58t87.5 119z" />
    <glyph glyph-name="c" unicode="c" horiz-adv-x="609" 
d="M303 35q116 7 194 96l40 -20q-45 -59 -121 -94.5t-156 -29.5q-98 8 -157 73q-44 48 -53 116q-9 80 24 145q45 92 139 147.5t195 41.5q116 -13 172 -110l-47 -23q-42 66 -117 81q-87 18 -166 -21t-123 -116q-28 -50 -29 -101q-2 -59 30.5 -106.5t88.5 -67.5q43 -14 86 -11
z" />
    <glyph glyph-name="d" unicode="d" 
d="M626 682l51 15q-35 -199 -123 -697h-36l4 93h-4q-44 -48 -106.5 -78t-132.5 -31q-70 0 -126 30q-88 50 -106 149q-11 60 11 125q27 77 89 133q68 62 154 81q83 19 153 -6q38 -13 72.5 -38.5t46.5 -58.5h3zM527 172q31 51 31 117q0 72 -57.5 122.5t-134.5 50.5
q-78 0 -149.5 -44.5t-104.5 -116.5q-27 -60 -17 -119q11 -65 64 -107t120 -42q75 0 141.5 37.5t106.5 101.5z" />
    <glyph glyph-name="e" unicode="e" horiz-adv-x="654" 
d="M585 225h-502q-6 -93 53 -143.5t143 -48.5q60 0 115 25.5t95 71.5l40 -22q-69 -90 -201 -118q-85 -17 -161 12q-65 28 -102 83t-34 122q8 115 84 198.5t186 101.5q85 12 153 -10q170 -73 131 -272zM90 271h455q2 30 -2 50q-13 64 -59 102t-110 40q-102 6 -179.5 -47.5
t-104.5 -144.5z" />
    <glyph glyph-name="f" unicode="f" horiz-adv-x="362" 
d="M203 569q-6 -30 -13 -74h132l-8 -47h-132l-80 -448h-47l77 448h-85l6 47h88q12 71 14 79q6 28 19 51q34 63 108 77q41 7 83 -5q1 0 6 -2.5t11 -4.5l-18 -44q-46 17 -83 10q-43 -9 -63 -44q-11 -21 -15 -43z" />
    <glyph glyph-name="g" unicode="g" 
d="M597 493h40l-70 -395q-14 -80 -28 -120q-13 -40 -36 -80q-42 -68 -110.5 -99t-166.5 -33q-144 -2 -243 75l28 43q61 -51 150.5 -66.5t172.5 7.5q86 24 133 102q23 39 38 94q9 35 15 73h-5q-93 -106 -240 -109q-61 -2 -114 25q-100 48 -118 157q-11 61 13 127
q30 83 104 143q68 54 150 69q84 16 157 -14q72 -30 101 -86h5zM543 217q20 56 6 111q-21 75 -93 112q-62 31 -137 20q-59 -9 -106 -40q-76 -48 -108 -126q-24 -60 -13 -114q15 -80 87 -121q42 -24 107 -26q105 2 191 82q48 46 66 102z" />
    <glyph glyph-name="h" unicode="h" horiz-adv-x="691" 
d="M80 0h-48l119 681l52 18l-52 -297h4q40 47 103.5 78t132.5 31q65 2 117 -19q68 -28 100.5 -93.5t19.5 -141.5q-4 -26 -22.5 -130.5t-22.5 -126.5h-48q5 34 40 227q0 3 1 10q11 75 -3 116l-4 12q-27 64 -96 88q-45 16 -95 13q-70 -5 -123 -37q-98 -56 -127 -162
q-2 -8 -48 -267z" />
    <glyph glyph-name="i" unicode="i" horiz-adv-x="197" 
d="M167 495l-88 -495h-48l88 495h48zM210 670q0 -18 -13.5 -30t-31.5 -12q-13 0 -22 10t-7 24q2 13 12.5 25t26.5 14q14 2 24.5 -7t10.5 -24z" />
    <glyph glyph-name="j" unicode="j" horiz-adv-x="197" 
d="M169 495l-120 -682l-49 -9l121 691h48zM210 670q0 -18 -13.5 -30t-31.5 -12q-13 0 -22 10t-7 24q2 13 12.5 25t26.5 14q14 2 24.5 -7t10.5 -24z" />
    <glyph glyph-name="k" unicode="k" horiz-adv-x="561" 
d="M554 495l-208 -177l160 -318h-54l-145 286l-208 -169l-21 -117h-48l120 680l51 19l-91 -519h4q61 52 186.5 157.5t186.5 157.5h67z" />
    <glyph glyph-name="l" unicode="l" horiz-adv-x="188" 
d="M197 699l-123 -699h-48l120 679z" />
    <glyph glyph-name="m" unicode="m" horiz-adv-x="1075" 
d="M77 0h-48l87 495h35l-3 -91h4l2 2q69 77 179 102q36 7 80 2q62 -6 102.5 -47t48.5 -105h3q55 101 176 141q53 17 117 12q34 -4 57 -12q132 -49 98 -255l-42 -244h-49l44 260q10 66 -7 120.5t-73 72.5q-34 12 -79 9q-91 -6 -159.5 -70t-85.5 -157l-41 -235h-48
q2 15 19.5 115.5t20.5 116.5q8 33 5.5 70t-11 68.5t-35 56t-66.5 32.5q-57 12 -114 -10q-130 -51 -168 -180q-8 -28 -25.5 -135t-23.5 -134z" />
    <glyph glyph-name="n" unicode="n" horiz-adv-x="689" 
d="M78 0h-48l87 495h36l-5 -95h4q88 91 201 106q79 11 148 -15q75 -27 106.5 -91.5t17.5 -153.5l-42 -246h-49l45 261q10 59 -11.5 106.5t-74.5 72.5q-32 15 -73 20q-106 8 -184.5 -40.5t-109.5 -151.5z" />
    <glyph glyph-name="o" unicode="o" horiz-adv-x="650" 
d="M373 511q69 0 120 -27q96 -50 114 -156q11 -61 -16 -133q-35 -88 -117 -147q-60 -44 -132 -57q-87 -17 -160 14q-101 44 -125 149q-13 54 3 114q18 69 66 125q108 118 247 118zM100 214q10 -122 111 -165q55 -23 124 -12q69 12 125 56q66 52 89 124q21 58 6 112
q-24 86 -108 120q-60 23 -126 9q-123 -25 -189 -134q-30 -50 -32 -110z" />
    <glyph glyph-name="p" unicode="p" horiz-adv-x="671" 
d="M51 -181l-52 -21q35 199 123 697h36l-4 -93h4q44 48 106.5 78t132.5 31q70 0 126 -30q88 -50 106 -149q11 -60 -11 -125q-27 -77 -89 -133q-68 -62 -154 -81q-83 -19 -153 6q-38 13 -72.5 38.5t-46.5 58.5h-3zM149 323q-31 -51 -31 -117q0 -72 57.5 -122.5t134.5 -50.5
q78 0 149.5 44.5t104.5 116.5q27 60 17 119q-11 65 -64 107t-120 42q-75 0 -141.5 -37.5t-106.5 -101.5z" />
    <glyph glyph-name="q" unicode="q" horiz-adv-x="671" 
d="M169 8q-72 37 -102.5 110.5t-7.5 154.5q23 83 91 148t156 81q181 34 273 -100h3l28 93h37q-21 -122 -61 -346t-59 -331l-50 -21l50 295h-5q-91 -91 -205 -106q-83 -10 -148 22zM110 281q-24 -63 0 -130.5t88 -97.5q57 -29 130 -18q66 10 124 51t88 101q20 38 23 94
q5 89 -71.5 140.5t-163.5 36.5q-72 -11 -130.5 -58t-87.5 -119z" />
    <glyph glyph-name="r" unicode="r" horiz-adv-x="419" 
d="M109 495h35l-4 -95h3q85 108 217 105q33 -1 64 -16l-8 -52q-37 26 -91 20q-37 -3 -61 -12q-60 -22 -96 -74q-25 -35 -44 -92q-10 -31 -21 -86q-9 -57 -34 -193h-48q15 80 44 247t44 248z" />
    <glyph glyph-name="s" unicode="s" horiz-adv-x="526" 
d="M474 407q-63 53 -176 53q-72 0 -117.5 -27.5t-43.5 -75.5q2 -15 11 -27t26 -19t26.5 -10t28.5 -8q22 -6 58 -15t58 -15q57 -13 94 -43.5t36 -75.5q-7 -126 -164 -152q-65 -11 -125 -5q-57 7 -106 26t-66 44l35 38q54 -47 147 -59q41 -5 96 0q32 4 58 13t48.5 30.5
t24.5 50.5q1 22 -5.5 36.5t-24 25t-30.5 15.5t-42 14q-22 7 -61.5 15.5t-53.5 12.5q-49 11 -86 37t-37 68q0 45 24.5 78.5t64.5 50.5t83.5 23.5t87.5 2.5q100 -5 167 -65z" />
    <glyph glyph-name="t" unicode="t" horiz-adv-x="314" 
d="M112 0h-50l76 448h-99l8 47h100l31 167l49 11l-29 -178h120l-6 -47h-122z" />
    <glyph glyph-name="u" unicode="u" horiz-adv-x="667" 
d="M588 495h48l-87 -495h-36l5 95h-4q-88 -91 -201 -106q-79 -11 -148 15q-75 27 -106.5 91.5t-17.5 153.5l42 246h49l-45 -261q-10 -59 11.5 -106.5t74.5 -72.5q32 -15 73 -20q106 -8 184.5 40.5t109.5 151.5z" />
    <glyph glyph-name="v" unicode="v" horiz-adv-x="512" 
d="M485 495h52l-312 -495h-48l-137 495h54l111 -442h4l1 1z" />
    <glyph glyph-name="w" unicode="w" horiz-adv-x="810" 
d="M796 495h52l-275 -496h-51l-85 427h-4l-235 -426h-51q-2 8 -50 247t-49 248h52l77 -443h5q23 44 246 443h40l86 -443h4z" />
    <glyph glyph-name="x" unicode="x" horiz-adv-x="492" 
d="M272 257l-1 -3l162 -254h-59q-26 40 -73 114.5t-67 105.5h-4l-218 -220h-60l254 255v3l-150 237h57l129 -202h4l200 202h57z" />
    <glyph glyph-name="y" unicode="y" horiz-adv-x="546" 
d="M519 495h50l-472 -712h-56q49 74 148 222q-25 83 -76.5 245t-77.5 245h55l129 -435h6z" />
    <glyph glyph-name="z" unicode="z" horiz-adv-x="587" 
d="M574 451q-80 -69 -234 -204.5t-221 -193.5l-2 -5h406l-7 -48h-493l11 37l464 406l1 3h-395l10 49h471z" />
    <glyph glyph-name="braceleft" unicode="{" horiz-adv-x="390" 
d="M367 771q25 5 57 5l-5 -45q-21 0 -61 -9q-58 -16 -86 -70q-16 -31 -22 -70q-9 -51 -27 -151q-8 -37 -18 -56q-8 -18 -18 -32q-27 -35 -73 -47l-1 -3q86 -21 58 -156q-4 -23 -12 -69.5t-12 -69.5q-5 -31 1 -61q9 -40 47 -55q18 -8 56 -12h16l-8 -46q-50 0 -83 12
q-8 2 -15 6q-51 24 -62 80q-7 30 -2 66q3 20 10 60t10 60q2 9 5.5 27t4.5 27q16 95 -60 108q-2 1 -6.5 1.5t-6.5 0.5l8 49h11q49 6 76 48q19 28 26 67q5 27 14 78t10 58q9 48 21 76l6 15q40 91 141 108z" />
    <glyph glyph-name="bar" unicode="|" horiz-adv-x="202" 
d="M58 -127h-44l149 856h43z" />
    <glyph glyph-name="braceright" unicode="}" horiz-adv-x="375" 
d="M278 322q3 0 8 -1t7 -1l-7 -48q-2 0 -6.5 -1t-6.5 -1q-47 -6 -73 -46q-22 -31 -28 -70q-4 -20 -8 -42t-8.5 -48.5t-7.5 -41.5q-7 -42 -18 -69q-2 -7 -8 -21q-36 -73 -115 -97q-38 -11 -84 -11l6 46h14q27 1 56 9q52 17 76 64q15 30 22 67q9 46 25 138q6 35 14 57
q8 18 13 27q27 51 81 62l1 3q-46 17 -56 51q-4 13 -6 29q-2 25 5 65q16 92 24 139q6 27 4 57q-3 24 -5 31q-10 35 -46 50q-29 13 -67 13l4 44q61 0 106 -22q46 -26 55 -76q7 -38 1 -68q-6 -42 -17 -109q-2 -10 -6.5 -33.5t-6.5 -36.5q-4 -35 2 -57q12 -46 56 -52z" />
    <glyph glyph-name="asciitilde" unicode="~" horiz-adv-x="467" 
d="M407 325q2 1 6.5 4t8.5 6l-13 -48q-46 -35 -90 -42q-32 -4 -66 7q-7 2 -20.5 7t-20.5 8q-31 10 -41 11q-21 4 -48 -3q-23 -6 -56 -24q-4 -3 -14 -8l12 47q45 31 90 36q24 3 60 -6l42 -15q26 -8 39 -11q30 -7 61 5q24 8 50 26z" />
    <glyph glyph-name="exclamdown" unicode="&#xa1;" horiz-adv-x="215" 
d="M86 275h37l-83 -396h-48zM95 421h85l-15 -66h-84z" />
    <glyph glyph-name="cent" unicode="&#xa2;" horiz-adv-x="597" 
d="M296 35q112 11 186 95l40 -20q-38 -51 -101.5 -85t-133.5 -39l-18 -104h-42l19 104h-1q-98 8 -157 73q-44 48 -53 116q-9 80 24 145q39 80 115.5 133.5t164.5 57.5l18 104h42l-19 -104q129 -15 185 -112l-47 -23q-24 37 -63 60t-84 26zM202 45q30 -9 52 -10l76 427
q-68 -5 -125.5 -43t-92.5 -99q-28 -50 -29 -101q-2 -59 30.5 -106.5t88.5 -67.5z" />
    <glyph glyph-name="sterling" unicode="&#xa3;" horiz-adv-x="571" 
d="M391 678q-70 -2 -123.5 -46.5t-61.5 -117.5q-5 -52 7 -120q0 -7 2 -9h205l-8 -49h-189q2 -10 2 -17q6 -51 -1 -99q-9 -60 -53 -106t-89 -61l-1 -3h409l-8 -50h-473l12 70q40 9 81 40q63 46 70 121q4 34 -2 87q0 6 -2 18h-98l6 49h82q0 3 -1 9.5t-2 9.5q-7 49 -4 89
q3 81 49 140q41 51 105 75t135 19q57 -4 123 -33l-14 -53q-50 28 -106 34q-18 3 -52 3z" />
    <glyph glyph-name="currency" unicode="&#xa4;" horiz-adv-x="431" 
d="M332 447q30 -68 -23 -131l54 -67l-37 -32l-57 68q-68 -28 -127 -1l-82 -68l-27 32l79 67q-10 30 -10 45q1 23 9 46q6 16 24 40l-54 68l38 32l57 -68q33 11 52 13q43 4 74 -14l82 70l27 -31zM211 315q35 0 58.5 23.5t20.5 60.5q-1 24 -20 36t-44 10q-36 -3 -55 -29.5
t-16 -56.5q2 -21 18 -32.5t38 -11.5z" />
    <glyph glyph-name="yen" unicode="&#xa5;" horiz-adv-x="630" 
d="M693 699l-312 -369h223l-12 -49h-251l-15 -86h253l-12 -49h-250l-25 -146h-46l25 146h-254l12 49h251l14 86h-252l12 49h220l-186 369h52l183 -361h7l306 361h57z" />
    <glyph glyph-name="brokenbar" unicode="&#xa6;" horiz-adv-x="158" 
d="M115 352h-44l66 377h43zM54 253h44l-66 -380h-43z" />
    <glyph glyph-name="section" unicode="&#xa7;" horiz-adv-x="584" 
d="M189 189q-19 5 -30 8t-29.5 9t-29.5 11.5t-25 14t-21 18.5t-12.5 23t-5 29t6.5 34q13 45 53.5 76.5t92.5 44.5l1 3q-65 28 -65 78q-1 58 36.5 98t98.5 54q81 18 154 9q56 -7 102 -36l-25 -44q-47 32 -116 34q-62 2 -109 -10q-81 -20 -89 -82q0 -17 8 -30t25.5 -22
t29.5 -13.5t33 -10.5q23 -6 66.5 -16.5t61.5 -15.5q140 -36 140 -118q0 -67 -60 -110q-37 -27 -92 -38l-1 -3q28 -13 49 -42.5t18 -59.5q-4 -54 -40 -86t-99 -51q-73 -22 -157 -14q-80 7 -135 40l25 47q47 -32 113 -38q59 -7 128 6q44 8 79.5 32t35.5 64q0 15 -8.5 28
t-18 20.5t-29.5 15.5t-28.5 10.5t-29.5 8.5zM441 249q52 31 49 78q0 16 -6 28t-20.5 20.5t-24 12.5t-28.5 11q-23 7 -114 29q-11 3 -35 3q-51 0 -97 -23q-30 -16 -46 -33q-23 -26 -27 -55q-2 -32 18.5 -48t61.5 -27q34 -10 116 -29q4 -1 9.5 -2t11 -1.5t7.5 -0.5
q73 3 125 37z" />
    <glyph glyph-name="dieresis" unicode="&#xa8;" horiz-adv-x="397" 
d="M124 669q0 -18 -13.5 -30t-31.5 -12q-13 0 -22 10t-7 24q2 13 12.5 25t26.5 14q14 2 24.5 -7t10.5 -24zM331 669q0 -18 -13.5 -30t-31.5 -12q-13 0 -22 10t-7 24q2 13 12.5 25t26.5 14q14 2 24.5 -7t10.5 -24z" />
    <glyph glyph-name="copyright" unicode="&#xa9;" horiz-adv-x="770" 
d="M428 676q93 0 157 -41q104 -63 122 -183q11 -78 -22 -159q-43 -106 -144 -176q-79 -55 -166 -68q-96 -16 -179 20q-119 52 -149 177q-17 64 3 139q20 79 78 147q133 144 300 144zM421 637q-126 -3 -231 -93q-69 -63 -96 -144q-23 -70 -9 -136q25 -114 135 -160
q79 -33 171 -14q91 20 159 79q78 65 106 153q22 67 9 130q-22 108 -121 158q-54 27 -123 27zM378 529q108 14 163 -62l-35 -17q-36 50 -101 48q-90 -2 -144 -72q-26 -34 -31 -79q-4 -39 15 -71.5t59 -46.5q45 -14 88.5 -3.5t75.5 39.5l25 -25q-61 -52 -139 -55
q-57 -2 -103.5 32t-54.5 91q-8 63 23 115q53 88 159 106z" />
    <glyph glyph-name="ordfeminine" unicode="&#xaa;" horiz-adv-x="474" 
d="M388 532q10 49 -16 89t-80 48q-53 7 -100.5 -10.5t-77.5 -55.5q-19 10 -35 17q63 85 163 91q98 6 149.5 -46t37.5 -143q-2 -11 -33 -181h-33q0 10 1.5 31t2.5 32h-1q-47 -63 -140 -74q-88 -8 -142 24t-34 105q29 94 202 88q55 -2 136 -15zM381 499q-52 8 -91 10
q-84 4 -135.5 -6t-61.5 -48q-8 -32 4.5 -52.5t37 -26t52 -7.5t49.5 2q125 19 145 128z" />
    <glyph glyph-name="guillemotleft" unicode="&#xab;" horiz-adv-x="545" 
d="M299 471l-194 -206l118 -203h-55l-117 204l193 205h55zM506 471l-194 -206l118 -203h-55l-117 204l193 205h55z" />
    <glyph glyph-name="logicalnot" unicode="&#xac;" horiz-adv-x="541" 
d="M67 440h437l-37 -218h-55l29 167h-384z" />
    <glyph glyph-name="registered" unicode="&#xae;" horiz-adv-x="762" 
d="M328 44q-71 -2 -135 31q-114 58 -136 182q-15 79 15 158q37 103 132 176q77 59 167 76q106 21 193 -17q119 -50 150 -174q16 -62 0 -131q-23 -100 -102 -181q-85 -85 -203 -112q-40 -8 -81 -8zM433 635q-29 0 -60 -6q-99 -20 -177 -92q-67 -64 -91 -144q-22 -69 -6 -134
q28 -114 139 -158q69 -27 151 -14q66 10 126 47q99 61 142 160q32 71 22 143q-16 115 -119 169q-54 29 -127 29zM504 523q61 -14 61 -76q0 -28 -11 -53q-21 -44 -66 -61q-9 -4 -16 -5q1 -3 4 -14q25 -80 36 -118h-41q-5 16 -20 64.5t-20 64.5h-150l-22 -129h-37q4 21 15 86
t17 98q21 118 26 146h193q15 0 31 -3zM474 363q28 9 43.5 33t11.5 52q-4 33 -37 42q-11 3 -22 3h-160l-24 -134h167q7 0 21 4z" />
    <glyph glyph-name="degree" unicode="&#xb0;" horiz-adv-x="418" 
d="M182 375q-51 2 -87 23q-55 34 -66 101q-6 48 15 91q53 110 174 128q63 7 112.5 -26.5t59.5 -93.5q8 -52 -14 -100q-28 -60 -79 -91.5t-115 -31.5zM190 424q74 0 122 62q33 41 30 86q-4 44 -34.5 71.5t-72.5 27.5q-54 0 -102 -37t-54 -90q-11 -70 49 -105q27 -15 62 -15z
" />
    <glyph glyph-name="plusminus" unicode="&#xb1;" horiz-adv-x="594" 
d="M569 452l-7 -41h-219l-38 -219h-42l38 219h-217l7 41h218l37 218h42l-37 -218h218zM501 81l10 44h-476l-10 -44h476z" />
    <glyph glyph-name="twosuperior" unicode="&#xb2;" horiz-adv-x="292" 
d="M226 529q-43 -48 -136 -95v-2h159l-7 -42h-225l8 52q120 48 178 118q24 31 28 60q3 27 -12.5 43.5t-44.5 16.5q-53 0 -106 -41l-20 34q78 60 160 47q59 -14 65 -67q5 -44 -16 -82q-11 -20 -31 -42z" />
    <glyph glyph-name="threesuperior" unicode="&#xb3;" horiz-adv-x="290" 
d="M274 663l-100 -88v-4q85 -14 85 -80q0 -51 -34 -83t-88 -39q-46 -6 -99 2q-22 4 -36 12l26 36q28 -14 87 -14q77 0 95 49q21 65 -46 80q-10 2 -44 7l-2 31l92 81l2 5h-141l7 41h205z" />
    <glyph glyph-name="acute" unicode="&#xb4;" horiz-adv-x="198" 
d="M248 751l-173 -167h-51l148 167h76z" />
    <glyph glyph-name="mu" unicode="&#xb5;" horiz-adv-x="673" 
d="M602 495h49q-5 -28 -18.5 -101t-18.5 -101q-10 -56 -18 -83q-26 -86 -87.5 -144t-148.5 -77q-48 -11 -93 -8q-85 5 -143 54q-21 18 -49 57h-3l-50 -284l-51 -16l125 703h48q-6 -36 -22.5 -123t-22.5 -132q-8 -50 6 -91q25 -80 105 -109q32 -12 70 -14q70 -3 129 24
q108 51 141 173q10 36 14 62z" />
    <glyph glyph-name="paragraph" unicode="&#xb6;" horiz-adv-x="552" 
d="M306 699h234l-6 -46h-61l-116 -653h-48l114 653h-70l-118 -653h-49l73 410q-141 0 -153 91q-10 94 45 144.5t155 53.5z" />
    <glyph glyph-name="periodcentered" unicode="&#xb7;" horiz-adv-x="210" 
d="M142 302q0 -20 -15.5 -34t-35.5 -14q-15 0 -25 11.5t-8 26.5q2 16 14 29t30 16q16 2 28 -8t12 -27z" />
    <glyph glyph-name="cedilla" unicode="&#xb8;" horiz-adv-x="329" 
d="M151 -32q59 0 103 -24.5t44 -77.5q0 -48 -26 -89q-28 -42 -85 -58q-28 -8 -63 -8q-79 -2 -123 25l10 54q49 -34 137 -30q26 2 45 8q35 12 47 46q8 22 8 44q-2 32 -31 46t-68 14q-45 0 -69 1l19 104h40l-7 -55h19z" />
    <glyph glyph-name="onesuperior" unicode="&#xb9;" horiz-adv-x="285" 
d="M171 417h84l-6 -42h-212l7 42h84l43 237l-88 -18l7 43l93 20h37z" />
    <glyph glyph-name="ordmasculine" unicode="&#xba;" horiz-adv-x="484" 
d="M207 325q-65 0 -112 39.5t-56 100.5q-7 51 17 101q56 115 180 140q51 11 101 -6q43 -15 72 -47.5t36 -79.5q8 -48 -12 -99q-30 -71 -89.5 -110t-136.5 -39zM270 668q-68 0 -123 -45.5t-65 -109.5q-9 -59 28.5 -101t92.5 -45q99 -6 160 69q34 42 41 88q6 63 -32.5 103.5
t-101.5 40.5z" />
    <glyph glyph-name="guillemotright" unicode="&#xbb;" horiz-adv-x="526" 
d="M246 62l194 206l-118 203h55l117 -204l-193 -205h-55zM39 62l194 206l-118 203h55l117 -204l-193 -205h-55z" />
    <glyph glyph-name="onequarter" unicode="&#xbc;" horiz-adv-x="778" 
d="M123 -20h-46l574 735h47zM171 417h84l-6 -42h-212l7 42h84l43 237l-88 -18l7 43l93 20h37zM661 119h38l-5 -41h-40l-13 -78h-44l13 78h-182l10 41l147 206h46l-144 -203l-1 -3h131l10 58h42z" />
    <glyph glyph-name="onehalf" unicode="&#xbd;" horiz-adv-x="776" 
d="M698 715l-575 -735h-46l574 735h47zM681 139q-43 -48 -136 -95v-2h159l-7 -42h-225l8 52q120 48 178 118q24 31 28 60q3 27 -12.5 43.5t-44.5 16.5q-53 0 -106 -41l-20 34q78 60 160 47q59 -14 65 -67q5 -44 -16 -82q-11 -20 -31 -42zM171 417h84l-6 -42h-212l7 42h84
l43 237l-88 -18l7 43l93 20h37z" />
    <glyph glyph-name="threequarters" unicode="&#xbe;" horiz-adv-x="772" 
d="M698 715l-575 -735h-46l574 735h47zM661 119h38l-5 -41h-40l-13 -78h-44l13 78h-182l10 41l147 206h46l-144 -203l-1 -3h131l10 58h42zM295 663l-100 -88v-4q85 -14 85 -80q0 -51 -34 -83t-88 -39q-46 -6 -99 2q-22 4 -36 12l26 36q28 -14 87 -14q77 0 95 49
q21 65 -46 80q-10 2 -44 7l-2 31l92 81l2 5h-141l7 41h205z" />
    <glyph glyph-name="questiondown" unicode="&#xbf;" horiz-adv-x="481" 
d="M14 -156q-5 108 71 182q39 36 97 54q45 15 90 15l27 142h49q-4 -22 -16 -86t-18 -98q-46 4 -93 -5q-49 -10 -81 -33q-59 -40 -73 -113q-7 -31 -1 -57q8 -37 38.5 -58.5t71.5 -27.5q142 -16 248 51l-8 -50q-53 -36 -145 -48q-47 -6 -93 -3q-64 4 -111.5 38.5t-52.5 96.5z
M388 384q0 -19 -15 -32t-34 -13q-14 0 -23.5 11t-7.5 26q2 14 13.5 27t28.5 15q16 2 27 -8t11 -26z" />
    <glyph glyph-name="Agrave" unicode="&#xc0;" horiz-adv-x="741" 
d="M476 699l212 -699h-55l-55 186h-436q-23 -34 -65 -98.5t-57 -87.5h-55l460 699h51zM175 231h387l-119 402h-7zM457 789h-49l-109 167h74z" />
    <glyph glyph-name="Aacute" unicode="&#xc1;" horiz-adv-x="741" 
d="M476 699l212 -699h-55l-55 186h-436q-23 -34 -65 -98.5t-57 -87.5h-55l460 699h51zM175 231h387l-119 402h-7zM663 955l-173 -167h-51l148 167h76z" />
    <glyph glyph-name="Acircumflex" unicode="&#xc2;" horiz-adv-x="741" 
d="M468 699l212 -699h-55l-55 186h-436q-23 -34 -65 -98.5t-57 -87.5h-55l460 699h51zM167 231h387l-119 402h-7zM635 771v-7h-60l-104 132h-3l-152 -132h-63v6l195 165h48z" />
    <glyph glyph-name="Atilde" unicode="&#xc3;" horiz-adv-x="741" 
d="M476 699l212 -699h-55l-55 186h-436q-23 -34 -65 -98.5t-57 -87.5h-55l460 699h51zM175 231h387l-119 402h-7zM630 891q2 1 6.5 4t8.5 6l-13 -48q-46 -35 -90 -42q-32 -4 -66 7q-7 2 -20.5 7t-20.5 8q-31 10 -41 11q-21 4 -48 -3q-23 -6 -56 -24q-4 -3 -14 -8l12 47
q45 31 90 36q24 3 60 -6l42 -15q26 -8 39 -11q30 -7 61 5q24 8 50 26z" />
    <glyph glyph-name="Adieresis" unicode="&#xc4;" horiz-adv-x="741" 
d="M476 699l212 -699h-55l-55 186h-436q-23 -34 -65 -98.5t-57 -87.5h-55l460 699h51zM175 231h387l-119 402h-7zM399 873q0 -18 -13.5 -30t-31.5 -12q-13 0 -22 10t-7 24q2 13 12.5 25t26.5 14q14 2 24.5 -7t10.5 -24zM606 873q0 -18 -13.5 -30t-31.5 -12q-13 0 -22 10
t-7 24q2 13 12.5 25t26.5 14q14 2 24.5 -7t10.5 -24z" />
    <glyph glyph-name="Aring" unicode="&#xc5;" horiz-adv-x="741" 
d="M480 665l202 -665h-55l-55 187h-436l-122 -187h-55l438 666q-10 4 -13 6q-30 15 -43.5 43t-8.5 58q5 35 24 62q53 71 135 65q31 -2 57 -20.5t35 -51.5q11 -38 -6 -75q-26 -61 -97 -88zM376 776q-5 -31 16 -53.5t53 -22.5q9 0 13 1q28 4 52.5 26.5t30.5 51.5q6 27 -8 49.5
t-40 28.5q-22 4 -43 0q-30 -8 -50.5 -31.5t-23.5 -49.5zM169 232h387l-120 401h-6z" />
    <glyph glyph-name="AE" unicode="&#xc6;" horiz-adv-x="1005" 
d="M959 699l-8 -48h-449l84 -278h296l-8 -48h-273l84 -277h232l-8 -48h-264l-56 186h-436l-121 -186h-55l460 699h522zM574 231l-120 402h-7l-260 -402h387z" />
    <glyph glyph-name="Ccedilla" unicode="&#xc7;" horiz-adv-x="776" 
d="M627 699q104 -31 157 -110l-42 -29q-65 84 -161 100q-165 28 -301 -61q-130 -86 -162 -243q-10 -52 -5 -92q14 -143 146 -205q47 -21 104 -26q36 -4 81 1q65 7 127 37q52 26 95 63q6 6 9 8l35 -29l-8 -8q-57 -53 -138 -86q-67 -28 -135 -34q-4 -1 -12 -1l-5 -45h19
q59 0 103 -24.5t44 -77.5q0 -48 -26 -89q-28 -42 -85 -58q-28 -8 -63 -8q-79 -2 -123 25l10 54q49 -34 137 -30q26 2 45 8q35 12 47 46q8 22 8 44q-2 32 -31 46t-68 14q-45 0 -69 1l17 93l-42 3q-57 8 -100 27q-94 41 -139 126q-23 44 -31 96q-12 98 25 193q65 162 225 241
q67 32 147 43q89 11 165 -13z" />
    <glyph glyph-name="Egrave" unicode="&#xc8;" horiz-adv-x="654" 
d="M658 651h-469l-49 -277h420l-10 -48h-419l-50 -278h471l-10 -48h-516l123 699h519zM460 789h-51l-112 167h76z" />
    <glyph glyph-name="Eacute" unicode="&#xc9;" horiz-adv-x="666" 
d="M658 651h-469l-49 -277h420l-10 -48h-419l-50 -278h471l-10 -48h-516l123 699h519zM624 955l-173 -167h-51l148 167h76z" />
    <glyph glyph-name="Ecircumflex" unicode="&#xca;" horiz-adv-x="654" 
d="M658 651h-469l-49 -277h420l-10 -48h-419l-50 -278h471l-10 -48h-516l123 699h519zM615 771v-7h-60l-104 132h-3l-152 -132h-63v6l195 165h48z" />
    <glyph glyph-name="Edieresis" unicode="&#xcb;" horiz-adv-x="650" 
d="M658 651h-469l-49 -277h420l-10 -48h-419l-50 -278h471l-10 -48h-516l123 699h519zM375 873q0 -18 -13.5 -30t-31.5 -12q-13 0 -22 10t-7 24q2 13 12.5 25t26.5 14q14 2 24.5 -7t10.5 -24zM582 873q0 -18 -13.5 -30t-31.5 -12q-13 0 -22 10t-7 24q2 13 12.5 25t26.5 14
q14 2 24.5 -7t10.5 -24z" />
    <glyph glyph-name="Igrave" unicode="&#xcc;" horiz-adv-x="208" 
d="M197 699l-123 -699h-48l123 699h48zM214 789h-51l-112 167h76z" />
    <glyph glyph-name="Iacute" unicode="&#xcd;" horiz-adv-x="208" 
d="M197 699l-123 -699h-48l123 699h48zM397 955l-173 -167h-51l148 167h76z" />
    <glyph glyph-name="Icircumflex" unicode="&#xce;" horiz-adv-x="208" 
d="M197 699l-123 -699h-48l123 699h48zM371 771v-7h-60l-104 132h-3l-152 -132h-63v6l195 165h48z" />
    <glyph glyph-name="Idieresis" unicode="&#xcf;" horiz-adv-x="208" 
d="M197 699l-123 -699h-48l123 699h48zM126 873q0 -18 -13.5 -30t-31.5 -12q-13 0 -22 10t-7 24q2 13 12.5 25t26.5 14q14 2 24.5 -7t10.5 -24zM333 873q0 -18 -13.5 -30t-31.5 -12q-13 0 -22 10t-7 24q2 13 12.5 25t26.5 14q14 2 24.5 -7t10.5 -24z" />
    <glyph glyph-name="Eth" unicode="&#xd0;" horiz-adv-x="854" 
d="M805 532q8 -35 8 -68q0 -125 -45 -239q-36 -93 -117 -148.5t-190 -69.5q-59 -7 -128 -7h-240l60 338h-142l10 44h140l56 317h252q48 0 88 -4q69 -7 120 -25q103 -43 128 -138zM762 405q5 49 -4 94q-22 119 -184 145q-43 7 -111 7h-206l-48 -269h290l-10 -44h-288
l-51 -291h183q80 0 129 7q217 31 276 225q18 61 24 126z" />
    <glyph glyph-name="Ntilde" unicode="&#xd1;" horiz-adv-x="767" 
d="M709 699h48l-125 -699h-31l-417 606h-4l-107 -606h-47l123 699h32l415 -605h4zM656 891q2 1 6.5 4t8.5 6l-13 -48q-46 -35 -90 -42q-32 -4 -66 7q-7 2 -20.5 7t-20.5 8q-31 10 -41 11q-21 4 -48 -3q-23 -6 -56 -24q-4 -3 -14 -8l12 47q45 31 90 36q24 3 60 -6l42 -15
q26 -8 39 -11q30 -7 61 5q24 8 50 26z" />
    <glyph glyph-name="Ograve" unicode="&#xd2;" horiz-adv-x="871" 
d="M493 714q149 0 248.5 -101t84.5 -241q-16 -130 -92 -219t-178 -131t-212 -35q-111 9 -192 74.5t-102 170.5q-13 73 9 151q43 141 166.5 236t267.5 95zM94 293q7 -111 83.5 -181t186.5 -78q109 -3 203.5 46.5t154.5 138.5q60 91 56 189q-4 129 -112.5 202.5t-235.5 50.5
q-94 -17 -173 -76t-122 -142q-40 -76 -41 -150zM563 789h-51l-112 167h76z" />
    <glyph glyph-name="Oacute" unicode="&#xd3;" horiz-adv-x="861" 
d="M493 714q149 0 248.5 -101t84.5 -241q-16 -130 -92 -219t-178 -131t-212 -35q-111 9 -192 74.5t-102 170.5q-13 73 9 151q43 141 166.5 236t267.5 95zM94 293q7 -111 83.5 -181t186.5 -78q109 -3 203.5 46.5t154.5 138.5q60 91 56 189q-4 129 -112.5 202.5t-235.5 50.5
q-94 -17 -173 -76t-122 -142q-40 -76 -41 -150zM739 955l-173 -167h-51l148 167h76z" />
    <glyph glyph-name="Ocircumflex" unicode="&#xd4;" horiz-adv-x="861" 
d="M493 714q-144 0 -267.5 -95t-166.5 -236q-22 -78 -9 -151q21 -105 102 -170.5t192 -74.5q110 -7 212 35t178 131t92 219q15 140 -84.5 241t-248.5 101zM94 293q1 74 41 150q43 83 122 142t173 76q127 23 235.5 -50.5t112.5 -202.5q4 -98 -56 -189q-60 -89 -154.5 -138.5
t-203.5 -46.5q-110 8 -186.5 78t-83.5 181zM696 771v-7h-60l-104 132h-3l-152 -132h-63v6l195 165h48z" />
    <glyph glyph-name="Otilde" unicode="&#xd5;" horiz-adv-x="871" 
d="M493 714q-144 0 -267.5 -95t-166.5 -236q-22 -78 -9 -151q21 -105 102 -170.5t192 -74.5q110 -7 212 35t178 131t92 219q15 140 -84.5 241t-248.5 101zM94 293q1 74 41 150q43 83 122 142t173 76q127 23 235.5 -50.5t112.5 -202.5q4 -98 -56 -189q-60 -89 -154.5 -138.5
t-203.5 -46.5q-110 8 -186.5 78t-83.5 181zM703 891q2 1 6.5 4t8.5 6l-13 -48q-46 -35 -90 -42q-32 -4 -66 7q-7 2 -20.5 7t-20.5 8q-31 10 -41 11q-21 4 -48 -3q-23 -6 -56 -24q-4 -3 -14 -8l12 47q45 31 90 36q24 3 60 -6l42 -15q26 -8 39 -11q30 -7 61 5q24 8 50 26z" />
    <glyph glyph-name="Odieresis" unicode="&#xd6;" horiz-adv-x="866" 
d="M493 714q149 0 248.5 -101t84.5 -241q-16 -130 -92 -219t-178 -131t-212 -35q-111 9 -192 74.5t-102 170.5q-13 73 9 151q43 141 166.5 236t267.5 95zM94 293q7 -111 83.5 -181t186.5 -78q109 -3 203.5 46.5t154.5 138.5q60 91 56 189q-4 129 -112.5 202.5t-235.5 50.5
q-94 -17 -173 -76t-122 -142q-40 -76 -41 -150zM468 873q0 -18 -13.5 -30t-31.5 -12q-13 0 -22 10t-7 24q2 13 12.5 25t26.5 14q14 2 24.5 -7t10.5 -24zM675 873q0 -18 -13.5 -30t-31.5 -12q-13 0 -22 10t-7 24q2 13 12.5 25t26.5 14q14 2 24.5 -7t10.5 -24z" />
    <glyph glyph-name="multiply" unicode="&#xd7;" horiz-adv-x="555" 
d="M560 529l-234 -211l162 -208h-62l-135 177l-195 -177h-68l238 210l-159 208h56l138 -178l203 179h56z" />
    <glyph glyph-name="Oslash" unicode="&#xd8;" horiz-adv-x="871" 
d="M772 599q52 -72 62 -154q8 -71 -17 -149q-29 -92 -102 -165q-101 -103 -240 -135q-64 -14 -134 -8q-61 5 -115 30q-46 22 -78 51l-89 -74l-27 32l85 74q-47 61 -60 138q-8 53 1 102q20 127 118 227q97 100 223 133q77 20 155 11q118 -14 186 -81l90 75l28 -32zM162 140
q17 14 217 184t317 268v7q-40 35 -93 52q-91 28 -189 6q-91 -20 -173 -88q-81 -67 -116 -159q-33 -83 -17 -166q14 -70 49 -104h5zM749 253q48 92 33 194q-8 58 -49 113h-6q-489 -411 -534 -453v-6q8 -10 34 -24.5t47 -22.5q87 -31 180 -14q76 13 147 55q100 64 148 158z
" />
    <glyph glyph-name="Ugrave" unicode="&#xd9;" horiz-adv-x="799" 
d="M727 699h46l-69 -384q-22 -110 -83 -189q-79 -104 -203 -133q-44 -12 -105 -10q-49 2 -89 14q-69 20 -111 74q-30 39 -43 91q-12 51 -9 102l74 435h48l-66 -366q-12 -61 -6 -112q7 -93 77.5 -144t169.5 -46q152 12 235 131q37 54 57 128q3 11 16 79zM507 789h-51
l-112 167h76z" />
    <glyph glyph-name="Uacute" unicode="&#xda;" horiz-adv-x="799" 
d="M727 699h46l-69 -384q-22 -110 -83 -189q-79 -104 -203 -133q-44 -12 -105 -10q-49 2 -89 14q-69 20 -111 74q-30 39 -43 91q-12 51 -9 102l74 435h48l-66 -366q-12 -61 -6 -112q7 -93 77.5 -144t169.5 -46q152 12 235 131q37 54 57 128q3 11 16 79zM676 955l-173 -167
h-51l148 167h76z" />
    <glyph glyph-name="Ucircumflex" unicode="&#xdb;" horiz-adv-x="799" 
d="M727 699h46l-69 -384q-22 -110 -83 -189q-79 -104 -203 -133q-44 -12 -105 -10q-49 2 -89 14q-69 20 -111 74q-30 39 -43 91q-12 51 -9 102l74 435h48l-66 -366q-12 -61 -6 -112q7 -93 77.5 -144t169.5 -46q152 12 235 131q37 54 57 128q3 11 16 79zM656 771v-7h-60
l-104 132h-3l-152 -132h-63v6l195 165h48z" />
    <glyph glyph-name="Udieresis" unicode="&#xdc;" horiz-adv-x="799" 
d="M727 699h46l-69 -384q-22 -110 -83 -189q-79 -104 -203 -133q-44 -12 -105 -10q-49 2 -89 14q-69 20 -111 74q-30 39 -43 91q-12 51 -9 102l74 435h48l-66 -366q-12 -61 -6 -112q7 -93 77.5 -144t169.5 -46q152 12 235 131q37 54 57 128q3 11 16 79zM416 873
q0 -18 -13.5 -30t-31.5 -12q-13 0 -22 10t-7 24q2 13 12.5 25t26.5 14q14 2 24.5 -7t10.5 -24zM623 873q0 -18 -13.5 -30t-31.5 -12q-13 0 -22 10t-7 24q2 13 12.5 25t26.5 14q14 2 24.5 -7t10.5 -24z" />
    <glyph glyph-name="Yacute" unicode="&#xdd;" horiz-adv-x="627" 
d="M612 699h57l-352 -416l-49 -283h-45l48 287l-207 412h52l183 -361h7zM587 955l-173 -167h-51l148 167h76z" />
    <glyph glyph-name="Thorn" unicode="&#xde;" horiz-adv-x="654" 
d="M626 417q15 -89 -48 -177q-47 -65 -132 -87q-43 -11 -93 -11h-255l-25 -142h-48l123 699h48l-25 -142h253q179 0 202 -140zM528 251q61 67 49 153q-7 50 -44.5 79t-91.5 29h-278l-57 -324h278q86 0 144 63z" />
    <glyph glyph-name="germandbls" unicode="&#xdf;" horiz-adv-x="612" 
d="M561 229q1 -80 -50 -145t-134 -88q-56 -16 -121 -11q-46 4 -69 8l15 46q52 -9 90 -10q79 -2 141 39t76 120q5 24 0 48q-6 31 -25 53t-48.5 33.5t-58.5 17t-67 8.5l-13 1l7 42q34 5 53 8.5t47 17t50 34.5q46 49 49 114q4 39 -22.5 68.5t-68.5 38.5q-48 10 -90 -3
q-53 -14 -86 -57.5t-43 -103.5l-90 -508h-48l91 517q13 74 63 128.5t125 69.5q56 11 110 -3q52 -13 83 -52t27 -94q-6 -72 -55 -124q-33 -37 -97 -63l-1 -5q63 -9 109.5 -46.5t50.5 -98.5z" />
    <glyph glyph-name="agrave" unicode="&#xe0;" 
d="M547 0h-35l3 96h-1q-54 -62 -118 -87t-151 -25q-80 0 -130.5 35t-51.5 100q0 85 65.5 124t162.5 39q95 1 254 -16q11 73 -20 126t-99 66q-70 13 -140 -5q-52 -17 -79 -36t-55 -54l-41 22q40 61 110 94t157 33q112 0 172 -70.5t42 -178.5zM536 223q-64 10 -184 16
q-28 -1 -59 0t-62 -5t-56 -16t-42 -32.5t-20 -55.5q2 -33 20.5 -55t44.5 -30.5t56.5 -12.5t57.5 0q101 10 166 56.5t78 134.5zM396 585h-51l-112 167h76z" />
    <glyph glyph-name="aacute" unicode="&#xe1;" 
d="M547 0h-35l3 96h-1q-54 -62 -118 -87t-151 -25q-80 0 -130.5 35t-51.5 100q0 85 65.5 124t162.5 39q95 1 254 -16q11 73 -20 126t-99 66q-70 13 -140 -5q-52 -17 -79 -36t-55 -54l-41 22q40 61 110 94t157 33q112 0 172 -70.5t42 -178.5zM536 223q-64 10 -184 16
q-28 -1 -59 0t-62 -5t-56 -16t-42 -32.5t-20 -55.5q2 -33 20.5 -55t44.5 -30.5t56.5 -12.5t57.5 0q101 10 166 56.5t78 134.5zM627 751l-173 -167h-51l148 167h76z" />
    <glyph glyph-name="acircumflex" unicode="&#xe2;" 
d="M512 0h35l45 263q18 108 -42 178.5t-172 70.5q-87 0 -157 -33t-110 -94l41 -22q28 35 55 54t79 36q70 18 140 5q68 -13 99 -66t20 -126q-159 17 -254 16q-97 0 -162.5 -39t-65.5 -124q1 -65 51.5 -100t130.5 -35q87 0 151 25t118 87h1zM536 223q-13 -88 -78 -134.5
t-166 -56.5q-27 -4 -57.5 0t-56.5 12.5t-44.5 30.5t-20.5 55q3 33 20 55.5t42 32.5t56 16t62 5t59 0q120 -6 184 -16zM590 567v-7h-60l-104 132h-3l-152 -132h-63v6l195 165h48z" />
    <glyph glyph-name="atilde" unicode="&#xe3;" 
d="M512 0h35l45 263q18 108 -42 178.5t-172 70.5q-87 0 -157 -33t-110 -94l41 -22q28 35 55 54t79 36q70 18 140 5q68 -13 99 -66t20 -126q-159 17 -254 16q-97 0 -162.5 -39t-65.5 -124q1 -65 51.5 -100t130.5 -35q87 0 151 25t118 87h1zM536 223q-13 -88 -78 -134.5
t-166 -56.5q-27 -4 -57.5 0t-56.5 12.5t-44.5 30.5t-20.5 55q3 33 20 55.5t42 32.5t56 16t62 5t59 0q120 -6 184 -16zM578 687q2 1 6.5 4t8.5 6l-13 -48q-46 -35 -90 -42q-32 -4 -66 7q-7 2 -20.5 7t-20.5 8q-31 10 -41 11q-21 4 -48 -3q-23 -6 -56 -24q-4 -3 -14 -8l12 47
q45 31 90 36q24 3 60 -6l42 -15q26 -8 39 -11q30 -7 61 5q24 8 50 26z" />
    <glyph glyph-name="adieresis" unicode="&#xe4;" 
d="M547 0h-35l3 96h-1q-54 -62 -118 -87t-151 -25q-80 0 -130.5 35t-51.5 100q0 85 65.5 124t162.5 39q95 1 254 -16q11 73 -20 126t-99 66q-70 13 -140 -5q-52 -17 -79 -36t-55 -54l-41 22q40 61 110 94t157 33q112 0 172 -70.5t42 -178.5zM536 223q-64 10 -184 16
q-28 -1 -59 0t-62 -5t-56 -16t-42 -32.5t-20 -55.5q2 -33 20.5 -55t44.5 -30.5t56.5 -12.5t57.5 0q101 10 166 56.5t78 134.5zM336 669q0 -18 -13.5 -30t-31.5 -12q-13 0 -22 10t-7 24q2 13 12.5 25t26.5 14q14 2 24.5 -7t10.5 -24zM543 669q0 -18 -13.5 -30t-31.5 -12
q-13 0 -22 10t-7 24q2 13 12.5 25t26.5 14q14 2 24.5 -7t10.5 -24z" />
    <glyph glyph-name="aring" unicode="&#xe5;" 
d="M386 572q-50 2 -80 32t-25 78q5 55 47.5 93t95.5 38q49 0 78 -25q33 -28 34 -71q2 -63 -43 -104t-107 -41zM390 613q39 0 65.5 21.5t34.5 56.5q7 30 -9.5 52.5t-44.5 27.5q-40 6 -72.5 -19.5t-38.5 -64.5q-3 -33 16 -53.5t49 -20.5zM541 0h-35l3 96h-1q-54 -62 -118 -87
t-151 -25q-80 0 -130.5 35t-51.5 100q0 85 65.5 124t162.5 39q95 1 254 -16q11 73 -20 126t-99 66q-70 13 -140 -5q-52 -17 -79 -36t-55 -54l-41 22q40 61 110 94t157 33q112 0 172 -70.5t42 -178.5zM530 223q-64 10 -184 16q-28 -1 -59 0t-62 -5t-56 -16t-42 -32.5
t-20 -55.5q2 -33 20.5 -55t44.5 -30.5t56.5 -12.5t57.5 0q101 10 166 56.5t78 134.5z" />
    <glyph glyph-name="ae" unicode="&#xe6;" horiz-adv-x="1044" 
d="M1006 229h-469q-6 -94 45.5 -144t130.5 -48q119 0 200 97l42 -23q-65 -90 -188 -117q-86 -18 -161 12q-69 31 -104 118h-3q-85 -137 -282 -137q-181 0 -182 135q0 86 60.5 124.5t157.5 38.5q100 0 241 -16q11 73 -18.5 125.5t-94.5 66.5q-64 14 -133 -5q-50 -17 -75 -36
t-53 -54l-39 22q39 61 105 94t149 33q78 0 131.5 -39.5t69.5 -106.5h2q74 121 196 142q77 13 145 -11q57 -21 90 -63.5t40 -94.5t-3 -113zM253 35q96 10 158.5 56.5t74.5 134.5q-61 10 -175 16q-33 3 -73 0t-74 -9.5t-57.5 -32t-23.5 -67.5q-1 -41 28.5 -65.5t66 -30
t75.5 -2.5zM803 467q-98 5 -165.5 -48t-93.5 -146h422q2 32 -2 52q-12 64 -54 101t-107 41z" />
    <glyph glyph-name="ccedilla" unicode="&#xe7;" horiz-adv-x="594" 
d="M299 35q116 7 194 96l40 -20q-37 -50 -98.5 -83.5t-129.5 -39.5l-5 -45h19q59 0 103 -24.5t44 -77.5q0 -48 -26 -89q-28 -42 -85 -58q-28 -8 -63 -8q-79 -2 -123 25l10 54q49 -34 137 -30q26 2 45 8q35 12 47 46q8 22 8 44q-2 32 -31 46t-68 14q-45 0 -69 1l17 93h-9
q-98 8 -157 73q-44 48 -53 116q-9 80 24 145q45 92 139 147.5t195 41.5q116 -13 172 -110l-47 -23q-42 66 -117 81q-87 18 -166 -21t-123 -116q-28 -50 -29 -101q-2 -59 30.5 -106.5t88.5 -67.5q43 -14 86 -11z" />
    <glyph glyph-name="egrave" unicode="&#xe8;" horiz-adv-x="625" 
d="M585 225h-502q-6 -93 53 -143.5t143 -48.5q60 0 115 25.5t95 71.5l40 -22q-69 -90 -201 -118q-85 -17 -161 12q-65 28 -102 83t-34 122q8 115 84 198.5t186 101.5q85 12 153 -10q170 -73 131 -272zM90 271h455q2 30 -2 50q-13 64 -59 102t-110 40q-102 6 -179.5 -47.5
t-104.5 -144.5zM374 585h-51l-112 167h76z" />
    <glyph glyph-name="eacute" unicode="&#xe9;" horiz-adv-x="622" 
d="M585 225h-502q-6 -93 53 -143.5t143 -48.5q60 0 115 25.5t95 71.5l40 -22q-69 -90 -201 -118q-85 -17 -161 12q-65 28 -102 83t-34 122q8 115 84 198.5t186 101.5q85 12 153 -10q170 -73 131 -272zM90 271h455q2 30 -2 50q-13 64 -59 102t-110 40q-102 6 -179.5 -47.5
t-104.5 -144.5zM584 751l-173 -167h-51l148 167h76z" />
    <glyph glyph-name="ecircumflex" unicode="&#xea;" horiz-adv-x="631" 
d="M585 225q39 199 -131 272q-68 22 -153 10q-110 -18 -186 -101.5t-84 -198.5q-3 -67 34 -122t102 -83q76 -29 161 -12q132 28 201 118l-40 22q-40 -46 -95 -71.5t-115 -25.5q-84 -2 -143 48.5t-53 143.5h502zM545 271h-455q27 91 104.5 144.5t179.5 47.5q64 -2 110 -40
t59 -102q4 -20 2 -50zM555 567v-7h-60l-104 132h-3l-152 -132h-63v6l195 165h48z" />
    <glyph glyph-name="edieresis" unicode="&#xeb;" horiz-adv-x="631" 
d="M585 225h-502q-6 -93 53 -143.5t143 -48.5q60 0 115 25.5t95 71.5l40 -22q-69 -90 -201 -118q-85 -17 -161 12q-65 28 -102 83t-34 122q8 115 84 198.5t186 101.5q85 12 153 -10q170 -73 131 -272zM90 271h455q2 30 -2 50q-13 64 -59 102t-110 40q-102 6 -179.5 -47.5
t-104.5 -144.5zM317 669q0 -18 -13.5 -30t-31.5 -12q-13 0 -22 10t-7 24q2 13 12.5 25t26.5 14q14 2 24.5 -7t10.5 -24zM524 669q0 -18 -13.5 -30t-31.5 -12q-13 0 -22 10t-7 24q2 13 12.5 25t26.5 14q14 2 24.5 -7t10.5 -24z" />
    <glyph glyph-name="igrave" unicode="&#xec;" horiz-adv-x="195" 
d="M167 495l-88 -495h-48l88 495h48zM188 585h-51l-112 167h76z" />
    <glyph glyph-name="iacute" unicode="&#xed;" horiz-adv-x="232" 
d="M167 495l-88 -495h-48l88 495h48zM364 751l-173 -167h-51l148 167h76z" />
    <glyph glyph-name="icircumflex" unicode="&#xee;" horiz-adv-x="232" 
d="M167 495l-88 -495h-48l88 495h48zM343 567v-7h-60l-104 132h-3l-152 -132h-63v6l195 165h48z" />
    <glyph glyph-name="idieresis" unicode="&#xef;" horiz-adv-x="188" 
d="M167 495l-88 -495h-48l88 495h48zM92 669q0 -18 -13.5 -30t-31.5 -12q-13 0 -22 10t-7 24q2 13 12.5 25t26.5 14q14 2 24.5 -7t10.5 -24zM299 669q0 -18 -13.5 -30t-31.5 -12q-13 0 -22 10t-7 24q2 13 12.5 25t26.5 14q14 2 24.5 -7t10.5 -24z" />
    <glyph glyph-name="eth" unicode="&#xf0;" horiz-adv-x="633" 
d="M522 665l4 -4q48 -45 62 -117q11 -50 8 -110q-6 -100 -34 -192q-20 -66 -50 -114q-30 -52 -76 -87q-55 -42 -129 -53q-41 -6 -83 -3q-64 7 -109 39q-58 43 -70 112q-19 109 50 203q58 80 161 103q78 17 149 -3q29 -7 59 -27q47 -36 62 -90h3q19 82 18 148q-2 56 -17 94
q-17 44 -49 68l-67 -57h-64l91 78q-22 12 -65 16q-91 4 -181 -35l-21 42q73 30 117 37q55 8 98 3q57 -3 97 -26l54 46h65zM414 82q91 77 79 198q-6 58 -56 92q-20 14 -41 20q-59 19 -121 7q-96 -19 -143 -95t-30 -164q13 -73 87 -99q26 -9 70 -11q86 0 155 52z" />
    <glyph glyph-name="ntilde" unicode="&#xf1;" horiz-adv-x="677" 
d="M78 0h-48l87 495h36l-5 -95h4q88 91 201 106q79 11 148 -15q75 -27 106.5 -91.5t17.5 -153.5l-42 -246h-49l45 261q10 59 -11.5 106.5t-74.5 72.5q-32 15 -73 20q-106 8 -184.5 -40.5t-109.5 -151.5zM587 687q2 1 6.5 4t8.5 6l-13 -48q-46 -35 -90 -42q-32 -4 -66 7
q-7 2 -20.5 7t-20.5 8q-31 10 -41 11q-21 4 -48 -3q-23 -6 -56 -24q-4 -3 -14 -8l12 47q45 31 90 36q24 3 60 -6l42 -15q26 -8 39 -11q30 -7 61 5q24 8 50 26z" />
    <glyph glyph-name="ograve" unicode="&#xf2;" horiz-adv-x="650" 
d="M373 511q69 0 120 -27q96 -50 114 -156q11 -61 -16 -133q-35 -88 -117 -147q-60 -44 -132 -57q-87 -17 -160 14q-101 44 -125 149q-13 54 3 114q18 69 66 125q108 118 247 118zM100 214q10 -122 111 -165q55 -23 124 -12q69 12 125 56q66 52 89 124q21 58 6 112
q-24 86 -108 120q-60 23 -126 9q-123 -25 -189 -134q-30 -50 -32 -110zM433 585h-51l-112 167h76z" />
    <glyph glyph-name="oacute" unicode="&#xf3;" horiz-adv-x="650" 
d="M373 511q69 0 120 -27q96 -50 114 -156q11 -61 -16 -133q-35 -88 -117 -147q-60 -44 -132 -57q-87 -17 -160 14q-101 44 -125 149q-13 54 3 114q18 69 66 125q108 118 247 118zM100 214q10 -122 111 -165q55 -23 124 -12q69 12 125 56q66 52 89 124q21 58 6 112
q-24 86 -108 120q-60 23 -126 9q-123 -25 -189 -134q-30 -50 -32 -110zM596 751l-173 -167h-51l148 167h76z" />
    <glyph glyph-name="ocircumflex" unicode="&#xf4;" horiz-adv-x="650" 
d="M373 511q-139 0 -247 -118q-48 -56 -66 -125q-16 -60 -3 -114q24 -105 125 -149q73 -31 160 -14q72 13 132 57q82 59 117 147q27 72 16 133q-18 106 -114 156q-51 27 -120 27zM100 214q2 60 32 110q66 109 189 134q66 14 126 -9q84 -34 108 -120q15 -54 -6 -112
q-23 -72 -89 -124q-56 -44 -125 -56q-69 -11 -124 12q-101 43 -111 165zM577 567v-7h-60l-104 132h-3l-152 -132h-63v6l195 165h48z" />
    <glyph glyph-name="otilde" unicode="&#xf5;" horiz-adv-x="650" 
d="M373 511q-139 0 -247 -118q-48 -56 -66 -125q-16 -60 -3 -114q24 -105 125 -149q73 -31 160 -14q72 13 132 57q82 59 117 147q27 72 16 133q-18 106 -114 156q-51 27 -120 27zM100 214q2 60 32 110q66 109 189 134q66 14 126 -9q84 -34 108 -120q15 -54 -6 -112
q-23 -72 -89 -124q-56 -44 -125 -56q-69 -11 -124 12q-101 43 -111 165zM586 687q2 1 6.5 4t8.5 6l-13 -48q-46 -35 -90 -42q-32 -4 -66 7q-7 2 -20.5 7t-20.5 8q-31 10 -41 11q-21 4 -48 -3q-23 -6 -56 -24q-4 -3 -14 -8l12 47q45 31 90 36q24 3 60 -6l42 -15q26 -8 39 -11
q30 -7 61 5q24 8 50 26z" />
    <glyph glyph-name="odieresis" unicode="&#xf6;" horiz-adv-x="650" 
d="M373 511q69 0 120 -27q96 -50 114 -156q11 -61 -16 -133q-35 -88 -117 -147q-60 -44 -132 -57q-87 -17 -160 14q-101 44 -125 149q-13 54 3 114q18 69 66 125q108 118 247 118zM100 214q10 -122 111 -165q55 -23 124 -12q69 12 125 56q66 52 89 124q21 58 6 112
q-24 86 -108 120q-60 23 -126 9q-123 -25 -189 -134q-30 -50 -32 -110zM330 669q0 -18 -13.5 -30t-31.5 -12q-13 0 -22 10t-7 24q2 13 12.5 25t26.5 14q14 2 24.5 -7t10.5 -24zM537 669q0 -18 -13.5 -30t-31.5 -12q-13 0 -22 10t-7 24q2 13 12.5 25t26.5 14q14 2 24.5 -7
t10.5 -24z" />
    <glyph glyph-name="divide" unicode="&#xf7;" horiz-adv-x="620" 
d="M78 369h487l-7 -40h-487zM394 545q0 -19 -15 -32.5t-35 -13.5q-15 0 -24.5 11.5t-7.5 26.5q2 14 13.5 27t29.5 16q16 2 27.5 -8t11.5 -27zM324 165q0 -19 -15 -32.5t-35 -13.5q-15 0 -24.5 11.5t-7.5 26.5q2 14 13.5 27t29.5 16q16 2 27.5 -8t11.5 -27z" />
    <glyph glyph-name="oslash" unicode="&#xf8;" horiz-adv-x="650" 
d="M563 422q29 -38 40 -94q11 -61 -16 -133q-35 -88 -117 -147q-60 -44 -132 -57q-87 -17 -160 14q-34 14 -61 38l-61 -51l-25 29l60 50q-28 35 -38 83q-13 54 3 114q18 69 66 125q108 118 247 118q69 0 120 -27q27 -15 48 -33l59 49l24 -29zM128 324q-30 -50 -32 -110
q5 -62 34 -105h5l359 305v5q-22 18 -51 30q-60 23 -126 9q-123 -25 -189 -134zM545 217q21 58 6 112q-9 31 -27 57h-4l-359 -306v-4q20 -17 46 -27q55 -23 124 -12q69 12 125 56q66 52 89 124z" />
    <glyph glyph-name="ugrave" unicode="&#xf9;" horiz-adv-x="667" 
d="M588 495h48l-87 -495h-36l5 95h-4q-88 -91 -201 -106q-79 -11 -148 15q-75 27 -106.5 91.5t-17.5 153.5l42 246h49l-45 -261q-10 -59 11.5 -106.5t74.5 -72.5q32 -15 73 -20q106 -8 184.5 40.5t109.5 151.5zM399 585h-51l-112 167h76z" />
    <glyph glyph-name="uacute" unicode="&#xfa;" horiz-adv-x="667" 
d="M588 495h48l-87 -495h-36l5 95h-4q-88 -91 -201 -106q-79 -11 -148 15q-75 27 -106.5 91.5t-17.5 153.5l42 246h49l-45 -261q-10 -59 11.5 -106.5t74.5 -72.5q32 -15 73 -20q106 -8 184.5 40.5t109.5 151.5zM573 751l-173 -167h-51l148 167h76z" />
    <glyph glyph-name="ucircumflex" unicode="&#xfb;" horiz-adv-x="667" 
d="M588 495h48l-87 -495h-36l5 95h-4q-88 -91 -201 -106q-79 -11 -148 15q-75 27 -106.5 91.5t-17.5 153.5l42 246h49l-45 -261q-10 -59 11.5 -106.5t74.5 -72.5q32 -15 73 -20q106 -8 184.5 40.5t109.5 151.5zM556 567v-7h-60l-104 132h-3l-152 -132h-63v6l195 165h48z" />
    <glyph glyph-name="udieresis" unicode="&#xfc;" horiz-adv-x="667" 
d="M588 495h48l-87 -495h-36l5 95h-4q-88 -91 -201 -106q-79 -11 -148 15q-75 27 -106.5 91.5t-17.5 153.5l42 246h49l-45 -261q-10 -59 11.5 -106.5t74.5 -72.5q32 -15 73 -20q106 -8 184.5 40.5t109.5 151.5zM313 669q0 -18 -13.5 -30t-31.5 -12q-13 0 -22 10t-7 24
q2 13 12.5 25t26.5 14q14 2 24.5 -7t10.5 -24zM520 669q0 -18 -13.5 -30t-31.5 -12q-13 0 -22 10t-7 24q2 13 12.5 25t26.5 14q14 2 24.5 -7t10.5 -24z" />
    <glyph glyph-name="yacute" unicode="&#xfd;" horiz-adv-x="546" 
d="M519 495h50l-472 -712h-56q49 74 148 222q-25 83 -76.5 245t-77.5 245h55l129 -435h6zM525 751l-173 -167h-51l148 167h76z" />
    <glyph glyph-name="thorn" unicode="&#xfe;" horiz-adv-x="668" 
d="M626 299q7 -81 -35 -155q-76 -131 -224 -167q-82 -19 -156 6q-81 27 -124 98h-3l-53 -305h-48l168 953h47l-60 -340h3q47 49 111.5 79t133.5 31q86 2 147 -40q84 -59 93 -160zM565 196q20 57 9 111q-20 87 -100 125q-43 19 -92 18q-47 0 -101.5 -21.5t-92.5 -56.5
q-63 -57 -74 -124q-15 -108 46 -174t179 -54q68 7 129 51q71 53 97 125z" />
    <glyph glyph-name="ydieresis" unicode="&#xff;" horiz-adv-x="546" 
d="M519 495h50l-472 -712h-56q49 74 148 222q-25 83 -76.5 245t-77.5 245h55l129 -435h6zM254 669q0 -18 -13.5 -30t-31.5 -12q-13 0 -22 10t-7 24q2 13 12.5 25t26.5 14q14 2 24.5 -7t10.5 -24zM461 669q0 -18 -13.5 -30t-31.5 -12q-13 0 -22 10t-7 24q2 13 12.5 25
t26.5 14q14 2 24.5 -7t10.5 -24z" />
    <glyph glyph-name="Abreve" unicode="&#x102;" horiz-adv-x="741" 
d="M476 699l212 -699h-55l-55 186h-436q-23 -34 -65 -98.5t-57 -87.5h-55l460 699h51zM175 231h387l-119 402h-7zM623 928h48q-14 -74 -76.5 -123t-141.5 -47q-66 3 -106.5 52.5t-32.5 117.5h46q0 -98 76 -117q38 -9 70 -1q44 11 75.5 41.5t41.5 76.5z" />
    <glyph glyph-name="abreve" unicode="&#x103;" 
d="M512 0h35l45 263q18 108 -42 178.5t-172 70.5q-87 0 -157 -33t-110 -94l41 -22q28 35 55 54t79 36q70 18 140 5q68 -13 99 -66t20 -126q-159 17 -254 16q-97 0 -162.5 -39t-65.5 -124q1 -65 51.5 -100t130.5 -35q87 0 151 25t118 87h1zM536 223q-13 -88 -78 -134.5
t-166 -56.5q-27 -4 -57.5 0t-56.5 12.5t-44.5 30.5t-20.5 55q3 33 20 55.5t42 32.5t56 16t62 5t59 0q120 -6 184 -16zM561 752h48q-14 -74 -76.5 -123t-141.5 -47q-66 3 -106.5 52.5t-32.5 117.5h46q0 -98 76 -117q38 -9 70 -1q44 11 75.5 41.5t41.5 76.5z" />
    <glyph glyph-name="Aogonek" unicode="&#x104;" horiz-adv-x="741" 
d="M600 -57q-25 -24 -38 -49q-14 -26 -14 -53v-9q3 -30 32 -39q19 -5 44 -2q4 1 16.5 4t22.5 5l-6 -45q-56 -15 -98 -5q-4 0 -10 2q-51 17 -54 70q-1 43 20 81q18 30 44 53q34 31 80 55l-52 175h-436q-59 -91 -121 -186h-56l460 699h52l211 -699h-12l-6 -3q-49 -25 -79 -54z
M184 231h388l-120 401h-7z" />
    <glyph glyph-name="aogonek" unicode="&#x105;" horiz-adv-x="643" 
d="M366 512q112 0 172 -70.5t42 -178.5l-45 -263h-19q-27 -14 -54 -41q-24 -22 -38 -49q-14 -28 -14 -52q0 -6 1 -9q3 -30 31 -39q17 -6 44 -2q10 1 39 9l-5 -45q-57 -14 -99 -6q-2 0 -5 1t-5 2q-50 17 -53 69q-3 43 20 81q13 25 44 54q37 32 79 54l2 69h-1
q-54 -62 -118 -87t-151 -25q-80 0 -130.5 35t-51.5 100q0 85 65.5 124t162.5 39q95 1 254 -16q11 73 -20 126t-99 66q-70 13 -140 -5q-52 -17 -79 -36t-55 -54l-41 22q40 61 110 94t157 33zM280 32q101 10 166 56.5t78 134.5q-64 10 -184 16q-28 -1 -59 0t-62 -5t-56 -16
t-42 -32.5t-20 -55.5q2 -33 20.5 -55t44.5 -30.5t56.5 -12.5t57.5 0z" />
    <glyph glyph-name="Cacute" unicode="&#x106;" horiz-adv-x="783" 
d="M611 699q101 -30 157 -110l-42 -30q-59 80 -165 103q-159 27 -297 -64q-130 -86 -162 -243q-11 -45 -6 -91q15 -143 146 -205q85 -38 185 -26q132 18 232 109l35 -29q-60 -60 -146 -95q-63 -26 -135 -34q-45 -4 -94 2q-52 6 -100 27q-94 40 -139 126q-23 43 -31 95
q-13 95 25 194q63 160 225 240q68 34 147 43q91 11 165 -12zM707 956l-173 -167h-51l148 167h76z" />
    <glyph glyph-name="cacute" unicode="&#x107;" horiz-adv-x="609" 
d="M303 35q116 7 194 96l40 -20q-45 -59 -121 -94.5t-156 -29.5q-98 8 -157 73q-44 48 -53 116q-9 80 24 145q45 92 139 147.5t195 41.5q116 -13 172 -110l-47 -23q-42 66 -117 81q-87 18 -166 -21t-123 -116q-28 -50 -29 -101q-2 -59 30.5 -106.5t88.5 -67.5q43 -14 86 -11
zM586 751l-173 -167h-51l148 167h76z" />
    <glyph glyph-name="Ccaron" unicode="&#x10c;" horiz-adv-x="783" 
d="M609 699q101 -30 157 -110l-42 -30q-59 80 -165 103q-159 27 -297 -64q-130 -86 -162 -243q-11 -45 -6 -91q15 -143 146 -205q85 -38 185 -26q132 18 232 109l35 -29q-60 -60 -146 -95q-63 -26 -135 -34q-45 -4 -94 2q-52 6 -100 27q-94 40 -139 126q-23 43 -31 95
q-13 95 25 194q63 160 225 240q68 34 147 43q91 11 165 -12zM348 913v7h60l104 -132h3l152 132h63v-6l-195 -165h-48z" />
    <glyph glyph-name="ccaron" unicode="&#x10d;" horiz-adv-x="609" 
d="M303 35q116 7 194 96l40 -20q-45 -59 -121 -94.5t-156 -29.5q-98 8 -157 73q-44 48 -53 116q-9 80 24 145q45 92 139 147.5t195 41.5q116 -13 172 -110l-47 -23q-42 66 -117 81q-87 18 -166 -21t-123 -116q-28 -50 -29 -101q-2 -59 30.5 -106.5t88.5 -67.5q43 -14 86 -11
zM233 718v7h60l104 -132h3l152 132h63v-6l-195 -165h-48z" />
    <glyph glyph-name="Dcaron" unicode="&#x10e;" horiz-adv-x="766" 
d="M727 531q8 -35 8 -68q0 -124 -45 -238q-36 -93 -117 -148.5t-190 -69.5q-59 -7 -127 -7h-240l124 698h251q48 0 88 -4q69 -7 120 -25q103 -43 128 -138zM684 404q5 49 -4 94q-22 119 -184 145q-43 7 -111 7h-205l-107 -603h183q79 0 128 7q217 31 276 225q18 61 24 125z
M267 913v7h60l104 -132h3l152 132h63v-6l-195 -165h-48z" />
    <glyph glyph-name="dcaron" unicode="&#x10f;" horiz-adv-x="778" 
d="M626 682l51 15q-35 -199 -123 -697h-36l4 93h-4q-44 -48 -106.5 -78t-132.5 -31q-70 0 -126 30q-88 50 -106 149q-11 60 11 125q27 77 89 133q68 62 154 81q83 19 153 -6q38 -13 72.5 -38.5t46.5 -58.5h3zM527 172q31 51 31 117q0 72 -57.5 122.5t-134.5 50.5
q-78 0 -149.5 -44.5t-104.5 -116.5q-27 -60 -17 -119q11 -65 64 -107t120 -42q75 0 141.5 37.5t106.5 101.5zM873 699l-145 -202h-38l99 202h84z" />
    <glyph glyph-name="Dcroat" unicode="&#x110;" horiz-adv-x="766" 
d="M625 829l-7 -45h-369l8 45h368zM727 531q8 -35 8 -68q0 -124 -45 -238q-36 -93 -117 -148.5t-190 -69.5q-59 -7 -127 -7h-240l124 698h251q48 0 88 -4q69 -7 120 -25q103 -43 128 -138zM684 404q5 49 -4 94q-22 119 -184 145q-43 7 -111 7h-205l-107 -603h183q79 0 128 7
q217 31 276 225q18 61 24 125z" />
    <glyph glyph-name="dcroat" unicode="&#x111;" horiz-adv-x="709" 
d="M749 610l-10 -45h-96q-18 -105 -52.5 -299t-47.5 -266h-36l4 93h-4q-44 -48 -106.5 -78t-132.5 -31q-70 0 -126 30q-88 50 -106 149q-11 60 11 125q27 77 89 133q68 62 154 81q83 19 153 -6q38 -13 72.5 -38.5t46.5 -58.5h3l30 166h-95l9 45h94l12 68l51 19l-15 -87h98z
M516 172q31 51 31 117q0 72 -57.5 122.5t-134.5 50.5q-78 0 -149.5 -44.5t-104.5 -116.5q-27 -60 -17 -119q11 -65 64 -107t120 -42q75 0 141.5 37.5t106.5 101.5z" />
    <glyph glyph-name="Eogonek" unicode="&#x118;" horiz-adv-x="660" 
d="M658 650h-470l-48 -277h420l-10 -48h-419l-48 -276h469l-10 -49h-28q-42 -20 -79 -54q-25 -23 -37 -49q-14 -25 -14 -52v-9q3 -30 32 -39q16 -6 44 -2q8 1 39 9l-6 -45q-55 -15 -98 -6q-4 1 -10 3q-51 17 -54 70q-1 41 20 81q16 27 44 53q24 21 54 40h-423l123 699h519z
" />
    <glyph glyph-name="eogonek" unicode="&#x119;" horiz-adv-x="654" 
d="M600 225h-502q-6 -93 53 -143.5t143 -48.5q60 0 115 25.5t95 71.5l40 -22q-69 -90 -201 -118q-27 -4 -38 -5q-28 -20 -41 -32q-25 -23 -37 -49q-14 -26 -14 -53v-9q3 -30 32 -39q19 -5 44 -2q4 1 39 10l-6 -46q-56 -15 -98 -5q-1 0 -10 3q-51 15 -54 69q-2 45 20 81
q18 30 44 53q16 14 24 20q-31 3 -66 16q-65 28 -102 83t-34 122q8 115 84 198.5t186 101.5q85 12 153 -10q170 -73 131 -272zM389 463q-102 6 -179.5 -47.5t-104.5 -144.5h455q2 30 -2 50q-13 64 -59 102t-110 40z" />
    <glyph glyph-name="Ecaron" unicode="&#x11a;" horiz-adv-x="661" 
d="M658 651h-469l-49 -277h420l-10 -48h-419l-50 -278h471l-10 -48h-516l123 699h519zM256 913v7h60l104 -132h3l152 132h63v-6l-195 -165h-48z" />
    <glyph glyph-name="ecaron" unicode="&#x11b;" horiz-adv-x="633" 
d="M585 225q39 199 -131 272q-68 22 -153 10q-110 -18 -186 -101.5t-84 -198.5q-3 -67 34 -122t102 -83q76 -29 161 -12q132 28 201 118l-40 22q-40 -46 -95 -71.5t-115 -25.5q-84 -2 -143 48.5t-53 143.5h502zM545 271h-455q27 91 104.5 144.5t179.5 47.5q64 -2 110 -40
t59 -102q4 -20 2 -50zM206 720v7h60l104 -132h3l152 132h63v-6l-195 -165h-48z" />
    <glyph glyph-name="Gbreve" unicode="&#x11e;" horiz-adv-x="810" 
d="M422 333l8 43h346l-68 -376h-40l9 102h-3q-64 -71 -169 -102q-55 -15 -119 -17q-146 0 -244.5 98t-85.5 247q11 128 100.5 227t233.5 141q67 19 144 14q149 -11 245 -127l-37 -28q-72 85 -181 104q-110 18 -218.5 -30t-175.5 -143q-47 -68 -60 -142q-20 -119 55 -211.5
t199 -99.5q165 -10 264 79q63 59 80 144q3 13 8.5 41.5t6.5 35.5h-298zM672 928h48q-14 -74 -76.5 -123t-141.5 -47q-66 3 -106.5 52.5t-32.5 117.5h46q0 -98 76 -117q38 -9 70 -1q44 11 75.5 41.5t41.5 76.5z" />
    <glyph glyph-name="gbreve" unicode="&#x11f;" 
d="M597 493h40l-70 -395q-14 -80 -28 -120q-13 -40 -36 -80q-42 -68 -110.5 -99t-166.5 -33q-144 -2 -243 75l28 43q61 -51 150.5 -66.5t172.5 7.5q86 24 133 102q23 39 38 94q9 35 15 73h-5q-93 -106 -240 -109q-61 -2 -114 25q-100 48 -118 157q-11 61 13 127
q30 83 104 143q68 54 150 69q84 16 157 -14q72 -30 101 -86h5zM543 217q20 56 6 111q-21 75 -93 112q-62 31 -137 20q-59 -9 -106 -40q-76 -48 -108 -126q-24 -60 -13 -114q15 -80 87 -121q42 -24 107 -26q105 2 191 82q48 46 66 102zM542 723h48q-14 -74 -76.5 -123
t-141.5 -47q-66 3 -106.5 52.5t-32.5 117.5h46q0 -98 76 -117q38 -9 70 -1q44 11 75.5 41.5t41.5 76.5z" />
    <glyph glyph-name="Idotaccent" unicode="&#x130;" horiz-adv-x="208" 
d="M197 699l-123 -699h-48l123 699h48zM245 870q0 -19 -15 -32.5t-35 -13.5q-15 0 -24.5 11.5t-7.5 26.5q2 14 13.5 27t29.5 16q16 2 27.5 -8t11.5 -27z" />
    <glyph glyph-name="dotlessi" unicode="&#x131;" horiz-adv-x="302" 
d="M65 591h219l-75 -438h-51l67 384h-169z" />
    <glyph glyph-name="Lacute" unicode="&#x139;" horiz-adv-x="537" 
d="M87 47h390l-9 -47h-436l121 699h48zM403 956l-173 -167h-51l148 167h76z" />
    <glyph glyph-name="lacute" unicode="&#x13a;" horiz-adv-x="188" 
d="M197 699l-123 -699h-48l120 679zM394 953l-173 -167h-51l148 167h76z" />
    <glyph glyph-name="Lcaron" unicode="&#x13d;" horiz-adv-x="537" 
d="M87 47h390l-9 -47h-436l121 699h48zM379 497l145 202h-84l-99 -202h38z" />
    <glyph glyph-name="lcaron" unicode="&#x13e;" horiz-adv-x="275" 
d="M197 699l-123 -699h-48l120 679zM246 497l145 202h-84l-99 -202h38z" />
    <glyph glyph-name="Lslash" unicode="&#x141;" 
d="M135 47h475l-8 -47h-523l51 291l-104 -41l8 52l105 41l62 355h47l-58 -334l375 149l-7 -51l-377 -150z" />
    <glyph glyph-name="lslash" unicode="&#x142;" horiz-adv-x="425" 
d="M433 504l-8 -53l-207 -82l-65 -369h-48l62 348l-118 -46l9 52l118 48l52 297h48l-48 -277z" />
    <glyph glyph-name="Nacute" unicode="&#x143;" horiz-adv-x="767" 
d="M709 699h48l-125 -699h-31l-417 606h-4l-107 -606h-47l123 699h32l415 -605h4zM685 956l-173 -167h-51l148 167h76z" />
    <glyph glyph-name="nacute" unicode="&#x144;" horiz-adv-x="689" 
d="M78 0h-48l87 495h36l-5 -95h4q88 91 201 106q79 11 148 -15q75 -27 106.5 -91.5t17.5 -153.5l-42 -246h-49l45 261q10 59 -11.5 106.5t-74.5 72.5q-32 15 -73 20q-106 8 -184.5 -40.5t-109.5 -151.5zM620 751l-173 -167h-51l148 167h76z" />
    <glyph glyph-name="Ncaron" unicode="&#x147;" horiz-adv-x="767" 
d="M709 699h48l-125 -699h-31l-417 606h-4l-107 -606h-47l123 699h32l415 -605h4zM299 913v7h60l104 -132h3l152 132h63v-6l-195 -165h-48z" />
    <glyph glyph-name="ncaron" unicode="&#x148;" horiz-adv-x="689" 
d="M78 0h-48l87 495h36l-5 -95h4q88 91 201 106q79 11 148 -15q75 -27 106.5 -91.5t17.5 -153.5l-42 -246h-49l45 261q10 59 -11.5 106.5t-74.5 72.5q-32 15 -73 20q-106 8 -184.5 -40.5t-109.5 -151.5zM239 708v7h60l104 -132h3l152 132h63v-6l-195 -165h-48z" />
    <glyph glyph-name="Ohungarumlaut" unicode="&#x150;" horiz-adv-x="866" 
d="M493 714q149 0 248.5 -101t84.5 -241q-16 -130 -92 -219t-178 -131t-212 -35q-111 9 -192 74.5t-102 170.5q-13 73 9 151q43 141 166.5 236t267.5 95zM94 293q7 -111 83.5 -181t186.5 -78q109 -3 203.5 46.5t154.5 138.5q60 91 56 189q-4 129 -112.5 202.5t-235.5 50.5
q-94 -17 -173 -76t-122 -142q-40 -76 -41 -150zM446 789h-51l148 167h76zM643 789h-51l148 167h76z" />
    <glyph glyph-name="ohungarumlaut" unicode="&#x151;" horiz-adv-x="650" 
d="M373 511q69 0 120 -27q96 -50 114 -156q11 -61 -16 -133q-35 -88 -117 -147q-60 -44 -132 -57q-87 -17 -160 14q-101 44 -125 149q-13 54 3 114q18 69 66 125q108 118 247 118zM100 214q10 -122 111 -165q55 -23 124 -12q69 12 125 56q66 52 89 124q21 58 6 112
q-24 86 -108 120q-60 23 -126 9q-123 -25 -189 -134q-30 -50 -32 -110zM331 584h-51l148 167h76zM528 584h-51l148 167h76z" />
    <glyph glyph-name="OE" unicode="&#x152;" horiz-adv-x="999" 
d="M975 650h-371l-49 -277h323l-10 -47h-321l-48 -276h371l-11 -49l-418 -1h-72q-79 0 -152 21q-83 25 -126.5 84.5t-40.5 149.5q5 109 40 208q68 191 308 228q61 8 140 8h447zM450 50l106 600q-110 0 -155 -6q-106 -17 -175.5 -68.5t-100.5 -152.5q-18 -65 -24 -130
q-5 -49 4 -94q29 -140 254 -148z" />
    <glyph glyph-name="oe" unicode="&#x153;" horiz-adv-x="1162" 
d="M1119 332q6 -41 -6 -108h-507q-8 -31 8 -78q23 -64 88 -95q54 -25 116 -20q70 5 128 40q28 17 72 62l37 -22q-94 -104 -216 -124q-81 -13 -148 16q-89 38 -127 135h-5q-32 -53 -90 -93t-123 -54q-89 -19 -164 10q-104 43 -132 150q-15 62 7 132q27 89 106 152
q68 57 151 72q91 18 164 -16q85 -37 120 -133h6q54 64 68 76q81 65 176 77q77 10 142 -16q113 -46 129 -163zM423 69q82 48 117 132q23 53 16 106q-14 100 -105 140q-59 28 -134 13q-72 -13 -130 -62q-78 -67 -92 -159q-8 -57 18.5 -109t82.5 -79q39 -19 91 -19q71 0 136 37
zM1071 272q2 27 0 47q-4 46 -36 82t-79 52q-53 17 -116 9q-76 -9 -138 -57q-24 -19 -54.5 -62t-31.5 -71h455z" />
    <glyph glyph-name="Racute" unicode="&#x154;" horiz-adv-x="700" 
d="M645 561q19 -107 -34 -182t-156 -99l87 -280h-58l-86 271q-11 -1 -33 -1h-240l-48 -270h-48l123 699h297q70 0 127 -37.5t69 -100.5zM379 316q106 0 169.5 66t48.5 159q-8 49 -51.5 81t-110.5 32h-242l-59 -337zM585 956l-173 -167h-51l148 167h76z" />
    <glyph glyph-name="racute" unicode="&#x155;" horiz-adv-x="426" 
d="M109 495h35l-4 -95h3q85 108 217 105q33 -1 64 -16l-8 -52q-37 26 -91 20q-37 -3 -61 -12q-60 -22 -96 -74q-25 -35 -44 -92q-10 -31 -21 -86q-9 -57 -34 -193h-48q15 80 44 247t44 248zM466 751l-173 -167h-51l148 167h76z" />
    <glyph glyph-name="Rcaron" unicode="&#x158;" horiz-adv-x="696" 
d="M645 561q19 -107 -34 -182t-156 -99l87 -280h-58l-86 271q-11 -1 -33 -1h-240l-48 -270h-48l123 699h297q70 0 127 -37.5t69 -100.5zM379 316q106 0 169.5 66t48.5 159q-8 49 -51.5 81t-110.5 32h-242l-59 -337zM232 913v7h60l104 -132h3l152 132h63v-6l-195 -165h-48z
" />
    <glyph glyph-name="rcaron" unicode="&#x159;" horiz-adv-x="439" 
d="M144 495h-35q-15 -81 -44 -248t-44 -247h48q25 136 34 193q11 55 21 86q19 57 44 92q36 52 96 74q24 9 61 12q54 6 91 -20l8 52q-31 15 -64 16q-132 3 -217 -105h-3zM111 708v7h60l104 -132h3l152 132h63v-6l-195 -165h-48z" />
    <glyph glyph-name="Sacute" unicode="&#x15a;" horiz-adv-x="706" 
d="M422 385q218 -30 218 -151q-1 -69 -34 -120.5t-87.5 -78.5t-118 -38.5t-134.5 -8.5q-150 6 -260 106l38 36q95 -92 254 -97q50 0 74 3q53 7 99.5 26t82.5 60t36 97q1 24 -8.5 43t-29.5 31.5t-38.5 21t-49 14.5t-46 8t-42.5 5q-13 2 -52 6.5t-61 9.5q-61 13 -105.5 45.5
t-46.5 88.5q-1 66 24.5 112t73.5 70t104.5 33.5t125.5 7.5q131 -3 228 -70l-36 -37q-95 62 -224 62q-211 0 -241 -126q-10 -38 1 -66t38.5 -44t57 -24.5t65.5 -12.5q62 -8 94 -12zM622 956l-173 -167h-51l148 167h76z" />
    <glyph glyph-name="sacute" unicode="&#x15b;" horiz-adv-x="541" 
d="M474 407q-63 53 -176 53q-72 0 -117.5 -27.5t-43.5 -75.5q2 -15 11 -27t26 -19t26.5 -10t28.5 -8q22 -6 58 -15t58 -15q57 -13 94 -43.5t36 -75.5q-7 -126 -164 -152q-65 -11 -125 -5q-57 7 -106 26t-66 44l35 38q54 -47 147 -59q41 -5 96 0q32 4 58 13t48.5 30.5
t24.5 50.5q1 22 -5.5 36.5t-24 25t-30.5 15.5t-42 14q-22 7 -61.5 15.5t-53.5 12.5q-49 11 -86 37t-37 68q0 45 24.5 78.5t64.5 50.5t83.5 23.5t87.5 2.5q100 -5 167 -65zM534 751l-173 -167h-51l148 167h76z" />
    <glyph glyph-name="Scaron" unicode="&#x160;" horiz-adv-x="698" 
d="M422 385q218 -30 218 -151q-1 -69 -34 -120.5t-87.5 -78.5t-118 -38.5t-134.5 -8.5q-150 6 -260 106l38 36q95 -92 254 -97q50 0 74 3q53 7 99.5 26t82.5 60t36 97q1 24 -8.5 43t-29.5 31.5t-38.5 21t-49 14.5t-46 8t-42.5 5q-13 2 -52 6.5t-61 9.5q-61 13 -105.5 45.5
t-46.5 88.5q-1 66 24.5 112t73.5 70t104.5 33.5t125.5 7.5q131 -3 228 -70l-36 -37q-95 62 -224 62q-211 0 -241 -126q-10 -38 1 -66t38.5 -44t57 -24.5t65.5 -12.5q62 -8 94 -12zM253 925v7h60l104 -132h3l152 132h63v-6l-195 -165h-48z" />
    <glyph glyph-name="scaron" unicode="&#x161;" horiz-adv-x="536" 
d="M474 407l36 37q-67 60 -167 65q-44 4 -87.5 -2.5t-83.5 -23.5t-64.5 -50.5t-24.5 -78.5q0 -42 37 -68t86 -37q14 -4 53.5 -12.5t61.5 -15.5q29 -9 42 -14t30.5 -15.5t24 -25t5.5 -36.5q-2 -29 -24.5 -50.5t-48.5 -30.5t-58 -13q-55 -5 -96 0q-93 12 -147 59l-35 -38
q17 -25 66 -44t106 -26q60 -6 125 5q157 26 164 152q1 45 -36 75.5t-94 43.5q-22 6 -58 15t-58 15q-19 5 -28.5 8t-26.5 10t-26 19t-11 27q-2 48 43.5 75.5t117.5 27.5q113 0 176 -53zM160 718v7h60l104 -132h3l152 132h63v-6l-195 -165h-48z" />
    <glyph glyph-name="Tcaron" unicode="&#x164;" horiz-adv-x="630" 
d="M74 699h585l-8 -47h-268l-116 -652h-48l116 652h-269zM214 913v7h60l104 -132h3l152 132h63v-6l-195 -165h-48z" />
    <glyph glyph-name="tcaron" unicode="&#x165;" horiz-adv-x="369" 
d="M112 0h-50l76 448h-99l8 47h100l31 167l49 11l-29 -178h120l-6 -47h-122zM449 771l-145 -202h-38l99 202h84z" />
    <glyph glyph-name="Uring" unicode="&#x16e;" horiz-adv-x="799" 
d="M727 699h46l-69 -384q-22 -110 -83 -189q-79 -104 -203 -133q-44 -12 -105 -10q-49 2 -89 14q-69 20 -111 74q-30 39 -43 91q-12 51 -9 102l74 435h48l-66 -366q-12 -61 -6 -112q7 -93 77.5 -144t169.5 -46q152 12 235 131q37 54 57 128q3 11 16 79zM459 729q-29 0 -54 9
q-71 27 -71 103q-1 72 54 123q60 54 143 45q44 -7 72 -36.5t29 -72.5q1 -69 -48 -118q-50 -51 -125 -53zM499 967q-42 0 -76 -31t-39 -77q-3 -29 12 -52.5t49 -31.5q26 -5 52 3q39 11 62 42.5t23 69.5q0 37 -25.5 57t-57.5 20z" />
    <glyph glyph-name="uring" unicode="&#x16f;" horiz-adv-x="667" 
d="M588 495h48l-87 -495h-36l5 95h-4q-88 -91 -201 -106q-79 -11 -148 15q-75 27 -106.5 91.5t-17.5 153.5l42 246h49l-45 -261q-10 -59 11.5 -106.5t74.5 -72.5q32 -15 73 -20q106 -8 184.5 40.5t109.5 151.5zM374 562q-28 0 -54 9q-71 27 -71 103q-1 72 54 123
q60 54 143 45q44 -7 72 -36.5t29 -72.5q1 -69 -48 -118q-50 -51 -125 -53zM414 800q-42 0 -76 -31t-39 -77q-3 -29 12 -52.5t49 -31.5q26 -5 52 3q39 11 62 42.5t23 69.5q0 37 -25.5 57t-57.5 20z" />
    <glyph glyph-name="Uhungarumlaut" unicode="&#x170;" horiz-adv-x="799" 
d="M727 699h46l-69 -384q-22 -110 -83 -189q-79 -104 -203 -133q-44 -12 -105 -10q-49 2 -89 14q-69 20 -111 74q-30 39 -43 91q-12 51 -9 102l74 435h48l-66 -366q-12 -61 -6 -112q7 -93 77.5 -144t169.5 -46q152 12 235 131q37 54 57 128q3 11 16 79zM409 789h-51l148 167
h76zM606 789h-51l148 167h76z" />
    <glyph glyph-name="uhungarumlaut" unicode="&#x171;" horiz-adv-x="667" 
d="M588 495h48l-87 -495h-36l5 95h-4q-88 -91 -201 -106q-79 -11 -148 15q-75 27 -106.5 91.5t-17.5 153.5l42 246h49l-45 -261q-10 -59 11.5 -106.5t74.5 -72.5q32 -15 73 -20q106 -8 184.5 40.5t109.5 151.5zM301 584h-51l148 167h76zM498 584h-51l148 167h76z" />
    <glyph glyph-name="Ydieresis" unicode="&#x178;" horiz-adv-x="627" 
d="M612 699h57l-352 -416l-49 -283h-45l48 287l-207 412h52l183 -361h7zM314 873q0 -18 -13.5 -30t-31.5 -12q-13 0 -22 10t-7 24q2 13 12.5 25t26.5 14q14 2 24.5 -7t10.5 -24zM521 873q0 -18 -13.5 -30t-31.5 -12q-13 0 -22 10t-7 24q2 13 12.5 25t26.5 14q14 2 24.5 -7
t10.5 -24z" />
    <glyph glyph-name="Zacute" unicode="&#x179;" horiz-adv-x="685" 
d="M690 654l-571 -601v-4h472l-7 -49h-541l6 44l570 601l1 6h-468l11 48h533zM652 956l-173 -167h-51l148 167h76z" />
    <glyph glyph-name="zacute" unicode="&#x17a;" horiz-adv-x="602" 
d="M574 451q-80 -69 -234 -204.5t-221 -193.5l-2 -5h406l-7 -48h-493l11 37l464 406l1 3h-395l10 49h471zM566 751l-173 -167h-51l148 167h76z" />
    <glyph glyph-name="Zdotaccent" unicode="&#x17b;" horiz-adv-x="647" 
d="M690 654l-571 -601v-4h472l-7 -49h-541l6 44l570 601l1 6h-468l11 48h533zM380 870q0 -19 -15 -32.5t-35 -13.5q-15 0 -24.5 11.5t-7.5 26.5q2 14 13.5 27t29.5 16q16 2 27.5 -8t11.5 -27z" />
    <glyph glyph-name="zdotaccent" unicode="&#x17c;" horiz-adv-x="587" 
d="M574 451q-80 -69 -234 -204.5t-221 -193.5l-2 -5h406l-7 -48h-493l11 37l464 406l1 3h-395l10 49h471zM417 665q0 -19 -15 -32.5t-35 -13.5q-15 0 -24.5 11.5t-7.5 26.5q2 14 13.5 27t29.5 16q16 2 27.5 -8t11.5 -27z" />
    <glyph glyph-name="Zcaron" unicode="&#x17d;" horiz-adv-x="662" 
d="M677 654l-571 -601v-4h472l-7 -49h-541l6 44l570 601l1 6h-468l11 48h533zM260 912v7h60l104 -132h3l152 132h63v-6l-195 -165h-48z" />
    <glyph glyph-name="zcaron" unicode="&#x17e;" horiz-adv-x="587" 
d="M574 451q-80 -69 -234 -204.5t-221 -193.5l-2 -5h406l-7 -48h-493l11 37l464 406l1 3h-395l10 49h471zM196 708v7h60l104 -132h3l152 132h63v-6l-195 -165h-48z" />
    <glyph glyph-name="florin" unicode="&#x192;" horiz-adv-x="367" 
d="M355 672q-110 -17 -134 -159h140l-8 -46h-140l-91 -508q-4 -27 -14 -56q-41 -114 -157 -144q-8 -2 -16 -2l7 44q1 0 6.5 2t8.5 3q72 22 101 93q10 26 17 63l89 505h-91l9 46h91l3 20q34 146 144 176q32 9 81 9l-6 -43q-22 0 -40 -3z" />
    <glyph glyph-name="Scommaaccent" unicode="&#x218;" horiz-adv-x="706" 
d="M197 -274l145 202h-84l-99 -202h38zM422 385q218 -30 218 -151q-1 -69 -34 -120.5t-87.5 -78.5t-118 -38.5t-134.5 -8.5q-150 6 -260 106l38 36q95 -92 254 -97q50 0 74 3q53 7 99.5 26t82.5 60t36 97q1 24 -8.5 43t-29.5 31.5t-38.5 21t-49 14.5t-46 8t-42.5 5
q-13 2 -52 6.5t-61 9.5q-61 13 -105.5 45.5t-46.5 88.5q-1 66 24.5 112t73.5 70t104.5 33.5t125.5 7.5q131 -3 228 -70l-36 -37q-95 62 -224 62q-211 0 -241 -126q-10 -38 1 -66t38.5 -44t57 -24.5t65.5 -12.5q62 -8 94 -12z" />
    <glyph glyph-name="scommaaccent" unicode="&#x219;" horiz-adv-x="526" 
d="M273 -72l-145 -202h-38l99 202h84zM474 407q-63 53 -176 53q-72 0 -117.5 -27.5t-43.5 -75.5q2 -15 11 -27t26 -19t26.5 -10t28.5 -8q22 -6 58 -15t58 -15q57 -13 94 -43.5t36 -75.5q-7 -126 -164 -152q-65 -11 -125 -5q-57 7 -106 26t-66 44l35 38q54 -47 147 -59
q41 -5 96 0q32 4 58 13t48.5 30.5t24.5 50.5q1 22 -5.5 36.5t-24 25t-30.5 15.5t-42 14q-22 7 -61.5 15.5t-53.5 12.5q-49 11 -86 37t-37 68q0 45 24.5 78.5t64.5 50.5t83.5 23.5t87.5 2.5q100 -5 167 -65z" />
    <glyph glyph-name="circumflex" unicode="&#x2c6;" horiz-adv-x="429" 
d="M401 567v-7h-60l-104 132h-3l-152 -132h-63v6l195 165h48z" />
    <glyph glyph-name="caron" unicode="&#x2c7;" horiz-adv-x="426" 
d="M50 708v7h60l104 -132h3l152 132h63v-6l-195 -165h-48z" />
    <glyph glyph-name="breve" unicode="&#x2d8;" horiz-adv-x="411" 
d="M352 723h48q-14 -74 -76.5 -123t-141.5 -47q-66 3 -106.5 52.5t-32.5 117.5h46q0 -98 76 -117q38 -9 70 -1q44 11 75.5 41.5t41.5 76.5z" />
    <glyph glyph-name="dotaccent" unicode="&#x2d9;" horiz-adv-x="151" 
d="M132 665q0 -19 -15 -32.5t-35 -13.5q-15 0 -24.5 11.5t-7.5 26.5q2 14 13.5 27t29.5 16q16 2 27.5 -8t11.5 -27z" />
    <glyph glyph-name="ring" unicode="&#x2da;" horiz-adv-x="363" 
d="M166 430q-28 0 -54 9q-71 27 -71 103q-1 72 54 123q60 54 143 45q44 -7 72 -36.5t29 -72.5q1 -69 -48 -118q-50 -51 -125 -53zM206 668q-42 0 -76 -31t-39 -77q-3 -29 12 -52.5t49 -31.5q26 -5 52 3q39 11 62 42.5t23 69.5q0 37 -25.5 57t-57.5 20z" />
    <glyph glyph-name="ogonek" unicode="&#x2db;" horiz-adv-x="240" 
d="M114 -47q-24 -22 -38 -49q-14 -28 -14 -52q0 -6 1 -9q3 -30 31 -39q17 -6 44 -2q10 1 39 9l-5 -45q-57 -14 -99 -6q-1 0 -4.5 1t-5.5 2q-50 17 -53 69q-3 43 20 81q13 25 44 54q35 31 82 56l51 -9q-8 -3 -13 -7q-48 -23 -80 -54z" />
    <glyph glyph-name="tilde" unicode="&#x2dc;" horiz-adv-x="447" 
d="M398 687q2 1 6.5 4t8.5 6l-13 -48q-46 -35 -90 -42q-32 -4 -66 7q-7 2 -20.5 7t-20.5 8q-31 10 -41 11q-21 4 -48 -3q-23 -6 -56 -24q-4 -3 -14 -8l12 47q45 31 90 36q24 3 60 -6l42 -15q26 -8 39 -11q30 -7 61 5q24 8 50 26z" />
    <glyph glyph-name="hungarumlaut" unicode="&#x2dd;" horiz-adv-x="396" 
d="M75 584h-51l148 167h76zM272 584h-51l148 167h76z" />
    <glyph glyph-name="endash" unicode="&#x2013;" horiz-adv-x="470" 
d="M425 310l-7 -45h-369l8 45h368z" />
    <glyph glyph-name="emdash" unicode="&#x2014;" horiz-adv-x="620" 
d="M570 310l-7 -45h-514l8 45h513z" />
    <glyph glyph-name="quoteleft" unicode="&#x2018;" horiz-adv-x="178" 
d="M27 497l145 202h38l-99 -202h-84z" />
    <glyph glyph-name="quoteright" unicode="&#x2019;" horiz-adv-x="163" 
d="M203 699l-145 -202h-38l99 202h84z" />
    <glyph glyph-name="quotesinglbase" unicode="&#x201a;" horiz-adv-x="139" 
d="M120 89l-145 -202h-38l99 202h84z" />
    <glyph glyph-name="quotedblleft" unicode="&#x201c;" horiz-adv-x="313" 
d="M150 497l145 202h38l-99 -202h-84zM27 497l145 202h38l-99 -202h-84z" />
    <glyph glyph-name="quotedblright" unicode="&#x201d;" horiz-adv-x="287" 
d="M176 699l-145 -202h-38l99 202h84zM299 699l-145 -202h-38l99 202h84z" />
    <glyph glyph-name="quotedblbase" unicode="&#x201e;" horiz-adv-x="272" 
d="M120 89l-145 -202h-38l99 202h84zM243 89l-145 -202h-38l99 202h84z" />
    <glyph glyph-name="dagger" unicode="&#x2020;" horiz-adv-x="431" 
d="M406 495l-7 -43h-145l-99 -575h-44l100 575h-146l7 43h146l34 193h44l-34 -193h144z" />
    <glyph glyph-name="daggerdbl" unicode="&#x2021;" horiz-adv-x="445" 
d="M420 452h-144l-58 -334h146l-8 -43h-146l-34 -198h-43l34 198h-144l7 43h144l58 334h-146l8 43h146l33 193h44l-34 -193h144z" />
    <glyph glyph-name="bullet" unicode="&#x2022;" horiz-adv-x="303" 
d="M195 308q0 -26 -20 -43.5t-46 -17.5q-19 0 -31.5 15t-10.5 35q3 19 18 36.5t39 20.5q21 3 36 -10.5t15 -35.5z" />
    <glyph glyph-name="ellipsis" unicode="&#x2026;" horiz-adv-x="417" 
d="M89 41q0 -18 -13.5 -30t-31.5 -12q-13 0 -22 10t-7 24q2 13 12.5 25t26.5 14q14 2 24.5 -7t10.5 -24zM231 41q0 -18 -13.5 -30t-31.5 -12q-13 0 -22 10t-7 24q2 13 12.5 25t26.5 14q14 2 24.5 -7t10.5 -24zM375 41q0 -18 -13.5 -30t-31.5 -12q-13 0 -22 10t-7 24
q2 13 12.5 25t26.5 14q14 2 24.5 -7t10.5 -24z" />
    <glyph glyph-name="perthousand" unicode="&#x2030;" horiz-adv-x="1359" 
d="M302 717q43 0 78 -19q40 -22 59 -61.5t13 -81.5q-12 -82 -76 -134q-45 -36 -110 -46q-52 -7 -94 13q-40 18 -62.5 54.5t-19.5 82.5q3 63 44 112q69 80 168 80zM292 669q-53 0 -99 -36.5t-54 -87.5q-7 -39 10.5 -69t50.5 -44q23 -10 46 -10q58 0 101.5 35t54.5 88
q6 41 -12 71t-50 44q-22 9 -48 9zM796 719l-573 -736h-56l573 736h56zM728 325q43 0 78 -19q40 -22 59 -61.5t13 -81.5q-12 -82 -76 -134q-45 -36 -110 -46q-52 -7 -94 13q-40 18 -62.5 54.5t-19.5 82.5q3 63 44 112q69 80 168 80zM718 277q-53 0 -99 -36.5t-54 -87.5
q-7 -39 10.5 -69t50.5 -44q23 -10 46 -10q58 0 101.5 35t54.5 88q6 41 -12 71t-50 44q-22 9 -48 9zM1153 325q43 0 78 -19q40 -22 59 -61.5t13 -81.5q-12 -82 -76 -134q-45 -36 -110 -46q-52 -7 -94 13q-40 18 -62.5 54.5t-19.5 82.5q3 63 44 112q69 80 168 80zM1143 277
q-53 0 -99 -36.5t-54 -87.5q-7 -39 10.5 -69t50.5 -44q23 -10 46 -10q58 0 101.5 35t54.5 88q6 41 -12 71t-50 44q-23 9 -48 9z" />
    <glyph glyph-name="guilsinglleft" unicode="&#x2039;" horiz-adv-x="315" 
d="M299 471l-194 -206l118 -203h-55l-117 204l193 205h55z" />
    <glyph glyph-name="guilsinglright" unicode="&#x203a;" horiz-adv-x="307" 
d="M22 62l194 206l-118 203h55l117 -204l-193 -205h-55z" />
    <glyph glyph-name="fraction" unicode="&#x2044;" horiz-adv-x="299" 
d="M380 770l-387 -863h-46l387 863h46z" />
    <glyph glyph-name="Euro" unicode="&#x20ac;" horiz-adv-x="735" 
d="M285 563q-23 -20 -51.5 -56.5t-37.5 -61.5h387l-8 -48h-401q-19 -57 -16 -100h397l-7 -48h-388q0 -58 43 -111.5t102 -81.5q50 -23 110 -28q94 -8 194 37l21 -41q-65 -30 -118 -37q-48 -8 -92 -5q-113 5 -193 65q-103 76 -117 202h-67q4 34 8 48h56q4 34 6 50q1 8 5 25
t6 25h-54l7 48h68q40 94 130.5 165t198.5 95q60 14 122 9q81 -5 160 -50l-33 -40q-62 36 -127 41q-174 15 -311 -102z" />
    <glyph glyph-name="trademark" unicode="&#x2122;" horiz-adv-x="939" 
d="M71 699h360l-6 -37h-161l-71 -398h-36l70 398h-161zM869 697h30l-76 -433h-35l59 354h-2l-186 -205h-25l-112 205h-4l-64 -354h-36q7 42 35 197.5t42 237.5h30q19 -35 40.5 -74.5t47 -87t39.5 -74.5h5z" />
    <glyph glyph-name="minus" unicode="&#x2212;" horiz-adv-x="504" 
d="M469 310l-7 -45h-413l8 45h412z" />
    <glyph glyph-name="fi" unicode="&#xfb01;" horiz-adv-x="469" 
d="M199 495h240l-87 -495h-48l79 448h-192l-80 -448h-47l77 448h-85l6 47h88q12 71 14 79q6 28 19 51q34 63 108 77q38 8 75 -3l-8 -48q-35 11 -68 5q-43 -9 -63 -44q-11 -21 -15 -43q-6 -30 -13 -74zM481 670q0 15 -10.5 24t-24.5 7q-16 -2 -26.5 -14t-12.5 -25
q-2 -14 7 -24t22 -10q18 0 31.5 12t13.5 30z" />
    <glyph glyph-name="fl" unicode="&#xfb02;" horiz-adv-x="532" 
d="M378 709q22 0 54 -3.5t53 -7.5l21 -3l-122 -695h-48l115 653q-81 16 -147 3q-43 -9 -63 -44q-11 -21 -15 -43q-6 -30 -13 -74h132l-8 -47h-132l-80 -448h-47l77 448h-85l6 47h88q12 71 14 79q6 28 19 51q34 63 108 77q39 7 73 7z" />
    <glyph glyph-name="CR" horiz-adv-x="249" 
 />
    <glyph glyph-name="OO" horiz-adv-x="588" 
d="M298 243q-102 0 -173.5 69t-71.5 166q0 98 71.5 166.5t173.5 68.5q101 0 173 -69t72 -166t-72 -166t-173 -69zM298 665q-82 0 -140 -55t-58 -132t58 -132t140 -55t139.5 55t57.5 132t-57.5 132t-139.5 55z" />
    </font>
</defs>
</svg>
