<?xml version="1.0" standalone="no"?>
<!DOCTYPE svg PUBLIC "-//W3C//DTD SVG 1.1//EN" "http://www.w3.org/Graphics/SVG/1.1/DTD/svg11.dtd" >
<svg xmlns="http://www.w3.org/2000/svg" xmlns:xlink="http://www.w3.org/1999/xlink" version="1.1">
<metadata>
Created by FontForge 20170731 at Thu Oct 19 14:11:12 2017
 By Aleksey,,,
Copyright (c) 2017 by Jan-Christian Bruun. All rights reserved.
</metadata>
<defs>
<font id="ArkibalDisplay-ThinItalic" horiz-adv-x="670" >
  <font-face 
    font-family="Arkibal Display"
    font-weight="100"
    font-style="italic"
    font-stretch="normal"
    units-per-em="1000"
    panose-1="2 0 5 3 0 0 0 2 0 4"
    ascent="750"
    descent="-250"
    x-height="494"
    cap-height="699"
    bbox="-76 -320.4 1255 1012"
    underline-thickness="50"
    underline-position="-200"
    unicode-range="U+0020-FB02"
  />
<missing-glyph horiz-adv-x="249" 
 />
    <glyph glyph-name=".notdef" horiz-adv-x="249" 
 />
    <glyph glyph-name=".null" horiz-adv-x="0" 
 />
    <glyph glyph-name="nonmarkingreturn" horiz-adv-x="333" 
 />
    <glyph glyph-name="space" unicode=" " horiz-adv-x="313" 
 />
    <glyph glyph-name="exclam" unicode="!" horiz-adv-x="227" 
d="M91 192h-20l90 525h26zM55 52q11 0 17 -7.5t5 -18.5q-2 -11 -10.5 -19.5t-19.5 -8.5q-11 -1 -18.5 6.5t-6.5 18.5q1 12 11 20.5t22 8.5z" />
    <glyph glyph-name="quotedbl" unicode="&#x22;" horiz-adv-x="268" 
d="M77 457h-24l44 242h24zM180 458h-25l44 241h25z" />
    <glyph glyph-name="numbersign" unicode="#" horiz-adv-x="727" 
d="M707 479h-142l-97 -254h142l-4 -24h-147l-80 -210h-22l78 210h-249l-80 -210h-22l78 210h-138l4 24h143l96 254h-141l4 24h146l76 204h27l-78 -204h248l76 204h27l-78 -204h137zM444 225l96 254h-248l-97 -254h249z" />
    <glyph glyph-name="dollar" unicode="$" horiz-adv-x="673" 
d="M627 621q-89 66 -200 68l-56 -308q70 -9 90 -14q69 -16 114.5 -51.5t42.5 -95.5q-7 -65 -34 -111t-71 -72t-96 -38t-118 -14l-12 -63h-24l11 63q-165 9 -254 103l19 18q95 -91 240 -96l63 350q-58 8 -85 15q-57 10 -97.5 42t-39.5 82q2 89 58 145q68 68 228 70l11 59h25
l-11 -59q119 -3 217 -75zM282 395q21 -4 65 -10l55 304q-222 -2 -254 -151q-3 -16 -3 -32q5 -50 40.5 -74.5t96.5 -36.5zM370 357h-4l-63 -348q5 1 14 1t13 1q114 5 186 55t76 156q0 86 -132 118q-50 12 -90 17z" />
    <glyph glyph-name="percent" unicode="%" horiz-adv-x="845" 
d="M248 713q52 0 87 -24q72 -47 63 -136q-8 -75 -72 -129q-67 -56 -149 -53q-48 3 -85 29q-48 37 -55 95q-6 58 21 106q68 112 190 112zM239 686q-81 0 -142 -72q-30 -38 -34 -78q-9 -74 50 -115q34 -25 86 -23q60 3 108 43q57 46 64 110q9 66 -46 109q-33 24 -86 26z
M150 -18h-31l574 734h31zM655 323q52 0 87 -24q72 -47 63 -136q-8 -75 -72 -129q-67 -56 -149 -53q-48 3 -85 29q-48 37 -55 95q-6 58 21 106q68 112 190 112zM646 296q-81 0 -142 -72q-30 -38 -34 -78q-9 -74 50 -115q34 -25 86 -23q60 3 108 43q57 46 64 110q9 66 -46 109
q-33 24 -86 26z" />
    <glyph glyph-name="ampersand" unicode="&#x26;" horiz-adv-x="655" 
d="M603 306q0 -51 -26.5 -109t-61.5 -100l71 -97h-36l-53 75h-4q-80 -74 -181 -87q-58 -7 -115 3t-105 47.5t-55 98.5q-10 93 50 164q30 34 76 62q43 24 105 42l1 2q-6 10 -7 12q-27 39 -39 70q-13 29 -17 57q-2 19 3 47q13 68 87.5 99.5t162.5 23.5q51 -5 101 -29l-9 -24
q-64 30 -128 30q-70 0 -120.5 -25.5t-67 -74t25.5 -120.5q19 -34 37 -61q32 -47 98 -142t98 -143q1 -2 4 -5t4 -5q33 33 54.5 86t24.5 103h22zM339 16q29 6 78.5 32t64.5 47q-6 11 -100 146.5t-100 142.5q-2 0 -5.5 -0.5t-5.5 -1.5q-41 -10 -83 -31q-43 -23 -71 -51
q-46 -46 -55 -105q-8 -55 16.5 -97t67 -60.5t94.5 -26.5t99 5z" />
    <glyph glyph-name="quotesingle" unicode="'" horiz-adv-x="139" 
d="M121 699l-44 -242h-24l44 242h24z" />
    <glyph glyph-name="parenleft" unicode="(" horiz-adv-x="309" 
d="M303 772h26q-1 -2 -4 -5q-97 -114 -159 -237q-47 -92 -71 -189q-20 -82 -17 -173q6 -172 89 -332q1 0 3 -4.5t3 -5.5h-30q-1 1 -4 7.5t-4 8.5q-36 67 -59 151q-30 114 -23 228q4 85 34 176q27 85 71 164q57 106 134 198q3 3 11 13z" />
    <glyph glyph-name="parenright" unicode=")" horiz-adv-x="314" 
d="M211 482q5 -68 -1 -130q-14 -139 -85 -278q-61 -123 -154 -230q-14 -14 -17 -18h-30q0 1 5 6l6 6q79 88 141 196q51 86 80 177q33 103 33 212q-1 176 -83 341q0 2 -1 4.5t-2 3.5h26q1 -2 2.5 -5.5t2.5 -5.5q32 -65 54 -146q17 -67 23 -133z" />
    <glyph glyph-name="asterisk" unicode="*" horiz-adv-x="414" 
d="M365 569l-160 -31l115 -120l-48 -34l-79 145l-79 -146l-47 34l115 120l-161 32l17 52l148 -70l-22 160h57l-22 -161l149 73z" />
    <glyph glyph-name="plus" unicode="+" horiz-adv-x="554" 
d="M527 356l-4 -25h-225l-40 -226h-26l40 226h-226l4 25h226l40 226h26l-40 -226h225z" />
    <glyph glyph-name="comma" unicode="," horiz-adv-x="140" 
d="M-14 -113h-19l103 202h39z" />
    <glyph glyph-name="hyphen" unicode="-" horiz-adv-x="362" 
d="M309 288h-258l4 24h258z" />
    <glyph glyph-name="period" unicode="." horiz-adv-x="173" 
d="M53 52q11 0 17 -7.5t5 -18.5q-2 -11 -10.5 -19.5t-19.5 -8.5q-11 -1 -18.5 6.5t-6.5 18.5q1 12 11 20.5t22 8.5z" />
    <glyph glyph-name="slash" unicode="/" horiz-adv-x="317" 
d="M-22 -91h-23l384 863h26z" />
    <glyph glyph-name="zero" unicode="0" horiz-adv-x="701" 
d="M43 262q6 182 108 314q117 144 284 137q50 -4 90.5 -24.5t66 -52t42 -71.5t22 -84.5t2.5 -89t-15 -87.5q-38 -143 -133 -233.5t-241 -87.5q-119 11 -172.5 87.5t-53.5 191.5zM69 273q-4 -133 71.5 -207t202.5 -54q78 12 139.5 68t100.5 132q42 79 51 177q6 116 -42 200
t-151 98q-75 7 -143 -24t-116 -89q-108 -127 -113 -301z" />
    <glyph glyph-name="one" unicode="1" horiz-adv-x="511" 
d="M268 24h203l-4 -24h-434l4 24h204l115 650l-212 -42q0 4 2 11.5t2 11.5l218 43h19z" />
    <glyph glyph-name="two" unicode="2" horiz-adv-x="560" 
d="M144 64q-18 -9 -81 -36l-1 -4h423l-3 -24h-460l7 35q156 68 243 127q89 61 149 125q53 58 81 115q25 51 31 102q5 45 -4 79q-11 43 -46.5 70t-82.5 34q-154 19 -272 -91l-11 18q129 118 292 96q95 -16 130.5 -85t8.5 -168q-19 -67 -68 -134q-49 -68 -123 -127
q-94 -76 -213 -132z" />
    <glyph glyph-name="three" unicode="3" horiz-adv-x="553" 
d="M539 674q-268 -235 -271 -238l1 -2q33 -5 62 -12q38 -8 68 -23q34 -16 56 -38q42 -42 45 -101q4 -81 -37 -153q-33 -56 -97 -86q-36 -18 -94 -29q-75 -12 -157 -7q-77 3 -141 26l19 24q54 -20 124 -25q46 -4 103 1q68 5 117 25q35 14 62 35q41 35 61 87q15 41 16 77
q2 58 -33.5 98t-87.5 57.5t-116 20.5l-8 24l274 237l1 3h-388l4 24h421z" />
    <glyph glyph-name="four" unicode="4" horiz-adv-x="627" 
d="M499 201h92l-4 -25h-94l-30 -176h-24l29 176h-426l5 31l363 492h29l-364 -495v-3h398l33 180h24z" />
    <glyph glyph-name="five" unicode="5" horiz-adv-x="560" 
d="M533 674h-383l-48 -278h3l2 2q77 56 191 53q69 -2 125 -42.5t67 -110.5q7 -45 -6 -97q-20 -81 -75 -134q-53 -53 -131 -72q-57 -13 -114 -9q-122 9 -171 64l15 19q30 -26 89 -46q34 -11 82 -13q55 -2 93 8q93 23 147 96q54 72 46 159q-5 69 -56 111.5t-129 42.5
q-101 0 -175 -53q-2 -2 -6 -4.5t-6 -3.5l-19 11l56 322h125.5h151.5h131z" />
    <glyph glyph-name="six" unicode="6" horiz-adv-x="615" 
d="M134 510q-31 -63 -44 -129q-4 -20 -10.5 -57.5t-9.5 -50.5h4q0 1 1 1q35 74 107 121.5t157 51.5q50 2 94.5 -12.5t79 -50.5t41.5 -88q12 -88 -36 -167q-66 -114 -198 -140q-71 -13 -133 4q-75 21 -109 73.5t-32 142.5q2 74 10 121q13 71 34 131q35 95 101 161.5t161 84.5
q55 10 103 4q60 -4 124 -36l-20 -21q-78 43 -181 33q-157 -15 -244 -177zM127 321q-62 -74 -53 -165q5 -47 37.5 -85t81.5 -53q50 -15 110 -7q86 13 145 67q81 74 84 183q0 21 -4 37q-11 52 -52.5 84t-92 37.5t-103.5 -4.5q-92 -23 -153 -94z" />
    <glyph glyph-name="seven" unicode="7" horiz-adv-x="511" 
d="M110 699h445l-3 -27l-373 -672h-31l373 670l1 5h-415z" />
    <glyph glyph-name="eight" unicode="8" horiz-adv-x="648" 
d="M211 379l1 4q-22 8 -42 22q-35 27 -41 70q-3 20 1 48q6 35 19 66q58 135 287 124q65 -4 113 -32t58 -83q12 -99 -50 -175q-40 -45 -76 -64l-1 -4q45 -20 75.5 -54t31.5 -78q1 -57 -37 -121q-54 -89 -185 -110q-71 -12 -147 -4q-213 29 -181 216q15 88 174 175zM278 9
q199 2 264 127q32 77 3 132t-112 74q-9 2 -94 16q-75 10 -95 16q-99 -54 -145.5 -103t-41.5 -122q6 -40 27.5 -69t54.5 -43.5t67 -21t72 -6.5zM155 515q-3 -54 21.5 -79.5t78.5 -38.5q31 -8 102 -18q72 -10 94 -16q74 51 106 100t24 124q-21 102 -173 102q-238 3 -253 -174z
" />
    <glyph glyph-name="nine" unicode="9" horiz-adv-x="595" 
d="M570 539q6 -60 0 -119q-10 -91 -39 -180q-34 -109 -114.5 -180.5t-193.5 -75.5q-102 -5 -179 34l15 25q73 -41 167 -35q126 7 210 104q45 54 72 128q15 42 25 96q14 73 15 87h-3q-54 -110 -170 -154q-62 -24 -130 -19q-69 2 -121.5 45t-59.5 112q-10 94 48 179
q67 96 184 120q69 14 138 -3q58 -17 94 -61t42 -103zM500 386q56 73 44 159q-6 48 -40 84t-84 50q-76 19 -151 -5q-109 -35 -157 -135q-33 -68 -22 -137q10 -61 62.5 -94.5t121.5 -33.5q53 0 95 17q83 30 131 95z" />
    <glyph glyph-name="colon" unicode=":" horiz-adv-x="193" 
d="M53 52q11 0 17 -7.5t5 -18.5q-2 -11 -10.5 -19.5t-19.5 -8.5q-11 -1 -18.5 6.5t-6.5 18.5q1 12 11 20.5t22 8.5zM119 442q11 0 17 -7.5t5 -18.5q-2 -11 -10.5 -19.5t-19.5 -8.5q-11 -1 -18.5 6.5t-6.5 18.5q1 12 11 20.5t22 8.5z" />
    <glyph glyph-name="semicolon" unicode=";" horiz-adv-x="192" 
d="M109 89l-123 -202h-19l103 202h39zM136 442q11 0 17 -7.5t5 -18.5q-2 -11 -10.5 -19.5t-19.5 -8.5q-11 -1 -18.5 6.5t-6.5 18.5q1 12 11 20.5t22 8.5z" />
    <glyph glyph-name="less" unicode="&#x3c;" horiz-adv-x="593" 
d="M562 513h7l-7 -21l-486 -181v-2l427 -171l-4 -20h-5l-450 185l2 19z" />
    <glyph glyph-name="equal" unicode="=" horiz-adv-x="547" 
d="M457 223h-399l4 24h399zM495 426h-399l4 24h399z" />
    <glyph glyph-name="greater" unicode="&#x3e;" horiz-adv-x="606" 
d="M35 112h-7l7 21l486 181v2l-427 170l4 20h5l450 -184l-2 -19z" />
    <glyph glyph-name="question" unicode="?" horiz-adv-x="502" 
d="M493 599q9 -42 -7 -99q-28 -92 -115 -136q-50 -25 -107 -31q-24 -2 -36 -4l-26 -141h-21l29 165q3 1 9.5 1h9.5q67 2 118 23q38 17 66 43q48 48 57 115q5 36 -3 64q-10 40 -46 64q-29 18 -63 23q-134 24 -265 -46l8 30q50 25 104 37t121 9q45 -3 81 -17q24 -11 42 -25
q35 -29 44 -75zM170 52q-12 0 -22 -8.5t-11 -20.5q-1 -11 6.5 -18.5t18.5 -6.5q11 0 19.5 8.5t10.5 19.5q1 11 -5 18.5t-17 7.5z" />
    <glyph glyph-name="at" unicode="@" horiz-adv-x="989" 
d="M912 466q3 -53 -12 -115q-15 -72 -42 -128q-19 -41 -43 -71q-25 -30 -52 -46q-39 -24 -79 -23q-44 2 -56 42q-9 25 -5 74h-2q-57 -78 -128 -105q-62 -22 -126 -4q-74 21 -93 98q-7 30 -4 73q6 59 34 109q38 72 110 106q40 19 82 20q53 1 94 -28t59 -79h3l34 91h8
l-48 -279q-4 -32 2 -50q1 -10 7 -19q17 -29 49 -24q21 2 47 18q18 11 42 37q32 37 54 90q29 74 38 149q6 62 -9 115q-27 88 -107 138q-50 31 -111 40q-220 34 -394 -106q-140 -112 -177 -294q-12 -58 -9 -107q3 -78 30 -135q48 -103 157 -151q43 -19 101 -27q56 -8 141 -1
q71 7 142 29l-17 -29q-49 -15 -113 -23q-58 -6 -109 -5q-97 5 -164 35q-154 68 -186 237q-12 60 -4 133q14 119 70 215q113 196 336 247q82 19 172 11q75 -7 132 -35q83 -40 121 -120q22 -48 25 -103zM554 152q95 78 82 193q-6 56 -47 94q-39 34 -88 33q-69 -2 -121 -43
q-36 -29 -57 -69q-38 -75 -26 -142q15 -84 96 -106q19 -6 41 -6q25 3 26 3q50 9 94 43z" />
    <glyph glyph-name="A" unicode="A" horiz-adv-x="727" 
d="M451 699q35 -115 106 -349.5t106 -349.5h-26l-61 201h-449l-132 -201h-27l459 699h24zM143 226h426l-133 438h-4z" />
    <glyph glyph-name="B" unicode="B" horiz-adv-x="741" 
d="M603 328q57 -34 61 -91q9 -114 -70.5 -175.5t-199.5 -61.5h-369l123 699h371q42 0 80 -10.5t70 -40.5t36 -75q9 -97 -61 -166q-42 -42 -111 -55v-1q40 -7 70 -23zM170 675q-9 -51 -28.5 -157t-28.5 -156h329q35 0 52 1q46 3 88 24q55 27 79.5 77.5t18.5 101.5
q-6 53 -48.5 79.5t-105.5 29.5h-356zM406 24q42 0 83 12t75.5 35t55.5 60.5t20 84.5q0 66 -60 98q-46 22 -109 24h-362q-9 -49 -28 -154t-28 -160h353z" />
    <glyph glyph-name="C" unicode="C" horiz-adv-x="783" 
d="M769 583l-20 -16q-77 91 -190 115q-52 11 -118 3q-160 -21 -273 -141q-68 -73 -94 -171q-13 -59 -8 -106q14 -130 120 -203q61 -43 138 -51q188 -22 343 114l16 -16q-104 -86 -211 -114q-60 -13 -121 -12q-75 3 -135 31q-104 46 -149 143q-19 40 -25 89q-13 109 40 213
q55 100 144 164t195 82q99 17 186 -11q97 -36 162 -113z" />
    <glyph glyph-name="D" unicode="D" horiz-adv-x="766" 
d="M733 532q8 -29 8 -69q0 -127 -46 -243q-20 -50 -56 -93q-50 -59 -128 -90q-93 -37 -242 -37h-246l123 699h207q65 0 98 -1q118 -6 188 -43q74 -40 94 -123zM716 416q5 49 -4 95q-17 87 -94 125q-80 40 -232 40h-219q-10 -58 -52 -292.5t-64 -359.5h224q127 0 216 31
q121 44 176 160q17 36 27 75q17 61 22 126z" />
    <glyph glyph-name="E" unicode="E" horiz-adv-x="657" 
d="M662 674h-494l-55 -314h440l-4 -25h-441l-54 -310h493l-4 -25h-518l123 699h518z" />
    <glyph glyph-name="F" unicode="F" horiz-adv-x="629" 
d="M662 674h-494l-55 -314h440l-4 -25h-441l-58 -335h-25l123 699h518z" />
    <glyph glyph-name="G" unicode="G" horiz-adv-x="821" 
d="M412 344l3 21h346l-65 -365h-18l16 123h-3q-43 -65 -116 -100.5t-158 -38.5q-156 -7 -254 81q-74 67 -91 168q-16 94 22 191q42 107 137 183.5t213 96.5q48 8 107 5q134 -11 226 -103l-22 -19q-68 74 -165 92q-107 20 -214 -18q-103 -38 -179.5 -118.5t-97.5 -184.5
q-20 -104 24.5 -196t147.5 -132q60 -23 123 -23q110 0 195 52.5t118 154.5q8 25 16 71q1 7 4.5 27t5.5 32h-321z" />
    <glyph glyph-name="H" unicode="H" horiz-adv-x="736" 
d="M690 699h24l-123 -699h-24l60 337h-527v2l-60 -339h-24l123 699h24l-59 -337h527z" />
    <glyph glyph-name="I" unicode="I" horiz-adv-x="184" 
d="M43 0h-24l123 699h24z" />
    <glyph glyph-name="J" unicode="J" horiz-adv-x="606" 
d="M260 699h335l-74 -416q-12 -63 -30 -110t-49 -89t-80.5 -66.5t-116.5 -30.5q-182 -17 -263 42l18 21q78 -52 238 -39q126 11 182.5 83.5t82.5 217.5l64 362h-312z" />
    <glyph glyph-name="K" unicode="K" horiz-adv-x="693" 
d="M710 699l-345 -302l234 -397h-31l-223 380l-252 -215l-29 -165h-24l123 699h24l-88 -498h2l578 498h31z" />
    <glyph glyph-name="L" unicode="L" horiz-adv-x="548" 
d="M68 25h414l-4 -25h-438l123 699h24z" />
    <glyph glyph-name="M" unicode="M" horiz-adv-x="844" 
d="M810 699h15l-124 -699h-24l115 646h-3h-1l-380 -404l-239 402h-4l-115 -644h-25l125 699h15l246 -418h4z" />
    <glyph glyph-name="N" unicode="N" horiz-adv-x="758" 
d="M706 699h23l-123 -699h-17l-438 645h-3l-113 -645h-25l122 699h15l440 -647h3z" />
    <glyph glyph-name="O" unicode="O" horiz-adv-x="871" 
d="M386 -18q-121 2 -211.5 66.5t-113.5 177.5q-10 51 -2 109q22 140 130 245q142 130 332 130q101 0 186 -55q85 -62 115 -154.5t2 -192.5q-39 -129 -143 -217q-91 -76 -213 -101q-44 -8 -82 -8zM506 685q-79 0 -157.5 -31.5t-138.5 -86.5q-82 -76 -112 -172
q-26 -79 -12 -155q21 -101 97 -163.5t178 -68.5q87 -6 169.5 24t148.5 89q112 101 132 243q8 91 -30 167t-115 117q-70 39 -160 37z" />
    <glyph glyph-name="P" unicode="P" horiz-adv-x="668" 
d="M140 699h323q95 0 149.5 -50.5t42.5 -144.5q-7 -46 -20 -79q-43 -102 -152 -131q-37 -9 -87 -9h-305l-50 -285h-22zM626 479q19 84 -23 139.5t-136 55.5h-307q-50 -283 -64 -364h319q31 0 66 8q89 21 128 106q10 21 17 55z" />
    <glyph glyph-name="Q" unicode="Q" horiz-adv-x="871" 
d="M701 660q85 -62 115 -154.5t2 -192.5q-39 -129 -143 -217q-91 -76 -213 -101q-6 -1 -43 -6l54 -150h-27l-54 148h-12q-121 2 -211.5 66.5t-113.5 177.5q-10 51 -2 109q22 140 130 245q142 130 336 130q97 0 182 -55zM805 369q8 91 -31 167t-116 117q-70 39 -158 37
q-79 0 -157.5 -31.5t-138.5 -86.5q-82 -76 -112 -172q-26 -79 -12 -155q21 -101 97 -163.5t178 -68.5q87 -6 169.5 24t148.5 89q112 101 132 243z" />
    <glyph glyph-name="R" unicode="R" horiz-adv-x="685" 
d="M471 699q95 0 149.5 -50.5t42.5 -144.5q-7 -46 -20 -79q-43 -102 -152 -131q-21 -6 -44 -8l84 -286h-29l-83 285h-299l-50 -285h-22l121 699h302zM634 479q19 84 -23 139.5t-136 55.5h-286q-50 -283 -64 -364h298q31 0 66 8q89 21 128 106q10 21 17 55z" />
    <glyph glyph-name="S" unicode="S" horiz-adv-x="661" 
d="M2 89l19 18q106 -95 268 -95q133 0 207 44t78 152q-1 30 -15 54t-35 39t-52.5 27t-58.5 18t-61 12q-10 2 -36 6t-39 6.5t-36.5 8t-36.5 10.5t-32 12.5t-29.5 16.5t-21 21t-15 27.5t-4.5 33.5q1 60 26.5 103.5t69.5 67t95.5 34t113.5 10.5q130 -3 223 -75l-21 -18
q-92 69 -210 69q-258 0 -272 -184q0 -26 14 -46.5t27.5 -31t47.5 -20.5t46 -12t51 -8l18 -3q51 -7 91 -17t84.5 -29.5t69 -53.5t24.5 -80q-13 -220 -340 -220q-167 9 -258 103z" />
    <glyph glyph-name="T" unicode="T" horiz-adv-x="625" 
d="M76 699h584l-3 -25h-281l-119 -674h-24l119 674h-280z" />
    <glyph glyph-name="U" unicode="U" horiz-adv-x="799" 
d="M747 699h24l-68 -376q-21 -112 -80 -192q-76 -105 -198 -136q-43 -11 -87 -12q-41 0 -61 3q-78 10 -130 52q-48 38 -70 103q-11 32 -14 75q-5 54 9 130l63 353h25l-56 -310q-2 -16 -11 -64q-12 -72 -1 -130q9 -58 41 -101q40 -54 105 -74q36 -12 81 -14q68 -2 130 19
q103 37 163 129q43 63 60 139q2 9 16 80z" />
    <glyph glyph-name="V" unicode="V" horiz-adv-x="613" 
d="M626 699h28q-5 -10 -214 -352.5t-212 -346.5h-18l-172 699h28l159 -658h1z" />
    <glyph glyph-name="W" unicode="W" horiz-adv-x="978" 
d="M998 699h28l-340 -699h-19l-120 665h-4l-355 -665h-15l-95 699h27l82 -653h3l347 653h29l116 -653h2z" />
    <glyph glyph-name="X" unicode="X" horiz-adv-x="641" 
d="M363 357v-3l191 -354h-30l-181 334h-2l-294 -334h-32l313 354v3l-185 342h30l174 -323h4l286 323h30z" />
    <glyph glyph-name="Y" unicode="Y" horiz-adv-x="627" 
d="M628 699h32l-354 -413l-51 -286h-24l51 285l-212 414h31q33 -64 98.5 -192.5t98.5 -191.5h4q218 258 326 384z" />
    <glyph glyph-name="Z" unicode="Z" horiz-adv-x="647" 
d="M691 699l-6 -27l-615 -645l3 -3h509l-5 -24h-545l4 22l615 648v4h-496l4 25h532z" />
    <glyph glyph-name="bracketleft" unicode="[" horiz-adv-x="304" 
d="M359 748h-171l-160 -903h171l-4 -24h-196l167 952h197z" />
    <glyph glyph-name="backslash" unicode="\" horiz-adv-x="289" 
d="M190 -90h-22l-80 862h26z" />
    <glyph glyph-name="bracketright" unicode="]" horiz-adv-x="346" 
d="M107 773h197l-166 -952h-196l4 24h170l159 903h-172z" />
    <glyph glyph-name="asciicircum" unicode="^" horiz-adv-x="484" 
d="M453 320v-7h-22l-124 357h-2l-247 -357h-22v5l265 382h20z" />
    <glyph glyph-name="underscore" unicode="_" horiz-adv-x="488" 
d="M446 -24h-410v24h410v-24z" />
    <glyph glyph-name="grave" unicode="`" horiz-adv-x="174" 
d="M154 585h-28l-99 167h38z" />
    <glyph glyph-name="a" unicode="a" horiz-adv-x="642" 
d="M525 0h-19l22 157h-2q-46 -81 -128 -126t-183 -45q-90 0 -132.5 52.5t-17.5 134.5q33 110 263 110q94 0 218 -17q16 97 -34 158t-138 61q-156 0 -249 -112l-22 13q51 65 115.5 95t156.5 30q104 0 160 -69.5t37 -182.5zM542 242q-89 17 -202 17q-220 0 -245 -90
q-11 -47 -5.5 -77.5t28.5 -48.5t50.5 -25.5t61.5 -7.5q109 0 195.5 67t116.5 165z" />
    <glyph glyph-name="b" unicode="b" 
d="M620 325q11 -69 -19 -139q-39 -90 -126 -146q-60 -39 -129 -51q-78 -13 -141 15q-85 38 -123 132h-2l-35 -136h-22l125 690l26 9l-60 -345h2l2 2q76 114 207 146q46 11 88 7q78 -6 135 -55.5t72 -128.5zM548 140q50 68 50 149q0 78 -56 134.5t-137 61.5q-42 4 -85 -8
q-99 -30 -168 -112q-32 -38 -47 -80q-22 -59 -7 -117q20 -84 100 -131q69 -40 154 -23q123 27 196 126z" />
    <glyph glyph-name="c" unicode="c" horiz-adv-x="609" 
d="M577 397l-24 -13q-47 78 -140 100q-36 8 -69 5q-61 -5 -112 -31q-97 -50 -142 -143q-27 -55 -24 -111q6 -124 116 -174q37 -17 88 -19q142 -3 237 107l20 -11q-77 -90 -185 -113q-41 -10 -81 -8q-62 3 -109 28q-91 48 -109 150q-11 67 16 139q37 87 109 141.5t162 65.5
q62 7 120 -11q45 -15 74 -40t53 -62z" />
    <glyph glyph-name="d" unicode="d" horiz-adv-x="682" 
d="M578 356h3q9 41 22.5 114t25 141t13.5 77l25 10q-55 -336 -122 -698h-18l12 137h-3q-96 -125 -221 -147q-39 -8 -85 -2q-59 8 -106 40q-74 54 -87 144q-11 77 28 154q40 75 109.5 124.5t147.5 57.5q87 7 156 -32.5t100 -119.5zM354 486q-96 -1 -176.5 -61t-107.5 -149
q-18 -55 -6 -112q18 -76 85 -119q83 -53 183 -28q70 21 125 65t84 103q22 41 25 89q1 52 -22 98q-26 51 -78 83t-112 31z" />
    <glyph glyph-name="e" unicode="e" horiz-adv-x="654" 
d="M609 235h-523q-13 -75 25.5 -132t109.5 -83q51 -17 109 -9q114 19 200 111l20 -10q-31 -43 -86 -77t-109 -44t-97 -5q-76 11 -130 56.5t-66 115.5q-15 89 28 171q48 89 135 138t187 42q104 -10 163 -91t34 -183zM588 260q10 64 -17.5 117t-82.5 84q-32 17 -79 24
q-110 7 -202.5 -57.5t-116.5 -167.5h498z" />
    <glyph glyph-name="f" unicode="f" horiz-adv-x="348" 
d="M181 623q-12 -25 -18 -50l-14 -78h156l-3 -25h-157l-84 -470h-24l83 470h-86l5 25h85l15 81q6 29 21 55q31 56 102 70q29 5 55 2q22 -2 42 -10l-7 -25q-45 22 -106 6q-43 -12 -65 -51z" />
    <glyph glyph-name="g" unicode="g" 
d="M615 495h19q-8 -46 -42 -240q-24 -138 -34 -190q-13 -68 -36 -121q-25 -59 -67 -101q-49 -46 -119 -65q-50 -13 -94 -13l-18 -1q-18 0 -18 1q-48 0 -107 17q-50 15 -79 30q-10 4 -22 13q-2 1 -6 5q8 12 16 22l2 -1l2 -1q35 -26 92 -43q69 -22 135 -19q71 3 119 21
q70 27 113 88q27 40 46 100q10 32 21 91q6 36 10 56h-2q-47 -69 -120.5 -114.5t-153.5 -45.5q-83 -2 -149.5 46t-82.5 130q-14 76 20 152q32 74 100 126.5t150 66.5q72 12 126 -8q97 -33 141 -139h3q5 21 17 67t18 70zM552 206q23 57 10 115q-19 87 -99 135q-72 43 -161 23
q-76 -16 -138.5 -67.5t-88.5 -123.5q-22 -64 -11 -116q15 -74 73 -118t137 -46q58 -4 119 29t107 84q35 40 52 85z" />
    <glyph glyph-name="h" unicode="h" horiz-adv-x="692" 
d="M505 486q68 -32 95.5 -97t15.5 -144l-46 -245h-23l45 251q12 70 -18.5 132t-97.5 87q-26 10 -63 14q-32 4 -70 -1q-92 -14 -170 -93q-37 -38 -57.5 -77t-32.5 -97l-37 -216h-24l121 689l26 10l-61 -349h2q40 64 106.5 108t140.5 50q33 4 75 -1q44 -7 73 -21z" />
    <glyph glyph-name="i" unicode="i" horiz-adv-x="189" 
d="M36 0l88 495h24l-88 -495h-24zM172 699q11 0 17 -7.5t5 -18.5q-2 -11 -10.5 -19.5t-19.5 -8.5q-11 -1 -18.5 6.5t-6.5 18.5q1 12 11 20.5t22 8.5z" />
    <glyph glyph-name="j" unicode="j" horiz-adv-x="163" 
d="M-42 -193l122 688h24l-120 -683zM129 699q11 0 17 -7.5t5 -18.5q-2 -11 -10.5 -19.5t-19.5 -8.5q-11 -1 -18.5 6.5t-6.5 18.5q1 12 11 20.5t22 8.5z" />
    <glyph glyph-name="k" unicode="k" horiz-adv-x="561" 
d="M529 494l-225 -190l178 -304h-27l-169 287l-209 -174l-20 -113h-24l121 689l26 10l-97 -549h2l413 344h31z" />
    <glyph glyph-name="l" unicode="l" horiz-adv-x="165" 
d="M176 699l-123 -699h-24l121 690z" />
    <glyph glyph-name="m" unicode="m" horiz-adv-x="1075" 
d="M881 501q160 -43 121 -283q-5 -27 -38 -218h-25q11 56 33 189q10 54 11.5 94t-6.5 85.5t-40 74.5t-87 39q-116 17 -208 -67q-63 -60 -88 -150q-2 -7 -10 -56q-21 -114 -36 -209h-23q5 46 24 145q18 103 20 119q11 76 -19.5 140.5t-103.5 77.5q-70 11 -141 -20
q-67 -30 -113 -90.5t-57 -129.5q-24 -144 -42 -242h-25l87 494h18l-19 -141h4q74 133 218 154q52 7 92 -4q109 -29 126 -175h5q57 135 193 173q64 18 129 0z" />
    <glyph glyph-name="n" unicode="n" horiz-adv-x="689" 
d="M491 489q71 -28 103.5 -96.5t16.5 -147.5q-4 -21 -21.5 -123t-20.5 -122h-24l43 253q11 69 -19 129.5t-96 85.5q-36 14 -78 16q-92 5 -170 -43.5t-116 -124.5q-18 -34 -26 -80l-40 -236h-25l88 495h19l-21 -144h4q38 62 102 105t136 50q79 10 145 -17z" />
    <glyph glyph-name="o" unicode="o" horiz-adv-x="650" 
d="M277 -15q105 0 186.5 58.5t121.5 157.5q31 78 4 161t-109 125q-48 25 -114 23q-100 0 -185 -60t-122 -157q-24 -65 -14 -126q17 -111 117 -159q49 -23 115 -23zM280 9q-58 0 -103 22q-88 44 -106 140q-11 60 13 123q45 107 153.5 160t220.5 13q75 -34 104 -108t-1 -153
q-37 -90 -112 -143.5t-169 -53.5z" />
    <glyph glyph-name="p" unicode="p" horiz-adv-x="671" 
d="M626 323q10 -65 -19 -134q-31 -74 -99 -129t-151 -70q-91 -18 -165 22q-18 9 -32.5 21t-23.5 20.5t-20.5 28t-15.5 27.5l-17 34h-2l-61 -333l-26 -12l124 697h18l-12 -134h4q39 54 96 93t120 51q99 19 182 -31.5t100 -150.5zM594 222q16 54 6 104q-18 82 -89 127
q-85 51 -184 24q-91 -26 -160 -101q-37 -40 -53 -82q-41 -104 19.5 -193.5t174.5 -91.5q60 0 119 27t104 76q45 50 63 110z" />
    <glyph glyph-name="q" unicode="q" horiz-adv-x="671" 
d="M609 495h18l-121 -687l-26 -11l61 348h-1q-76 -112 -206 -151q-85 -24 -166 7q-106 43 -133 152q-14 53 2 114q27 109 127.5 180t218.5 61q125 -11 187 -150h3q6 24 36 137zM543 200q27 69 11 130.5t-67 104.5q-77 65 -179 47q-71 -12 -132.5 -55.5t-93.5 -108.5
q-36 -67 -26 -139q10 -75 71 -125q55 -44 138 -46q85 0 163 54.5t115 137.5z" />
    <glyph glyph-name="r" unicode="r" horiz-adv-x="429" 
d="M50 0h-24q77 433 88 495h18l-19 -146h1q64 103 134 135q58 27 124 22q30 -1 62 -16l-5 -28q-37 21 -90 20q-95 -3 -169 -85q-61 -69 -76 -153q-18 -102 -44 -244z" />
    <glyph glyph-name="s" unicode="s" horiz-adv-x="526" 
d="M12 58l17 18q75 -78 245 -65q59 4 107.5 29.5t61.5 74.5q13 60 -56 93q-26 13 -76 26q-84 22 -126 34q-45 13 -75.5 38.5t-27.5 64.5q4 44 39 75.5t78.5 45.5t91.5 17q32 1 61 0q91 -8 157 -63l-17 -18q-47 41 -108 52q-80 14 -156 -5q-50 -11 -83.5 -39.5t-36.5 -63.5
q0 -12 4 -22.5t9 -17.5t16 -14.5t17 -11.5t21 -9t20 -6.5t21 -6t18 -4.5q72 -18 109 -28q29 -7 58 -21q35 -16 55 -43.5t14 -62.5q-26 -140 -251 -140q-57 0 -122 20t-85 53z" />
    <glyph glyph-name="t" unicode="t" horiz-adv-x="363" 
d="M210 471l-84 -471h-26l85 471h-114l4 24h114l29 167l25 7l-30 -174h136l-4 -24h-135z" />
    <glyph glyph-name="u" unicode="u" horiz-adv-x="667" 
d="M56 157q-7 40 2 93q7 40 42 245h25l-44 -253q-8 -53 5 -99q25 -85 111 -117q30 -13 77 -16q90 -5 157 42t106 126q19 38 25 80q4 19 21 118.5t20 118.5h25l-87 -495h-19l20 143h-4q-26 -43 -50.5 -70.5t-60.5 -47.5q-57 -32 -103 -37q-80 -10 -145 17q-103 42 -123 152z
" />
    <glyph glyph-name="v" unicode="v" horiz-adv-x="514" 
d="M500 494h28l-323 -494h-20l-144 494h27l133 -452h4z" />
    <glyph glyph-name="w" unicode="w" horiz-adv-x="810" 
d="M776 495h29q-211 -383 -274 -495h-19l-100 460h-3l-262 -460h-20l-100 495h29l87 -453h4l254 453h30l95 -454h3z" />
    <glyph glyph-name="x" unicode="x" horiz-adv-x="506" 
d="M259 257v-2l169 -255h-36q-16 25 -69.5 107.5t-82.5 127.5h-4l-234 -235h-37l258 255v3l-151 237h32l138 -217h4l219 217h32z" />
    <glyph glyph-name="y" unicode="y" horiz-adv-x="546" 
d="M496 495h32l-468 -715h-28l147 227q-67 232 -140 488h29l130 -452h4z" />
    <glyph glyph-name="z" unicode="z" horiz-adv-x="602" 
d="M563 471q-97 -83 -275 -235.5t-243 -208.5v-3h454l-5 -24h-489l4 24l514 444l1 3h-428l3 24h466z" />
    <glyph glyph-name="braceleft" unicode="{" horiz-adv-x="390" 
d="M367 770q36 6 63 6l-4 -24q-5 0 -11.5 -0.5t-9.5 -0.5q-29 -1 -61 -11q-52 -18 -81 -65q-22 -36 -31 -81q-3 -16 -9 -48.5t-9 -49.5q-14 -75 -15 -80q-3 -21 -18 -50q-29 -52 -90 -69v-3q53 -15 64 -63q6 -25 1 -60q-1 -4 -15 -88q-10 -60 -14 -89q-5 -37 4 -70
q12 -41 52 -61q26 -11 55 -13q18 -2 27 -2l-4 -24q-53 2 -80 11q-3 1 -7 3t-7 3q-54 25 -65 86q-6 31 1 75q18 102 27 154q6 37 2 60q-8 55 -72 60l6 39q56 4 86 46q14 19 21 48q2 6 12 58q8 43 24 131q8 39 23 69q40 86 135 103z" />
    <glyph glyph-name="bar" unicode="|" horiz-adv-x="161" 
d="M-15 -125h-23l151 854h26z" />
    <glyph glyph-name="braceright" unicode="}" horiz-adv-x="375" 
d="M293 315l-7 -39q-56 0 -86 -44q-14 -21 -22 -50q-2 -6 -12 -58q-2 -10 -10.5 -57.5t-13.5 -73.5q-4 -26 -19 -58q-36 -76 -118 -100q-23 -7 -70 -11h-11l4 23q41 2 73 11q63 20 94 77q19 35 27 76q8 46 24 136q8 42 17 63q10 23 22 39q29 37 74 44v4q-51 14 -63 64
q-6 29 -1 59q6 40 17 104l12 72q25 156 -136 156l5 24q139 0 156 -100q7 -41 -1 -87l-27 -153q-6 -42 -2 -62l3 -12q12 -41 71 -47z" />
    <glyph glyph-name="asciitilde" unicode="~" horiz-adv-x="467" 
d="M410 320q2 1 6 4t7 5l-3 -25l-5 -5q-46 -31 -88 -36q-31 -4 -65 7q-6 2 -13 4.5t-15.5 5.5t-13.5 5q-23 8 -38 10q-26 6 -53 -2q-23 -6 -56 -24q-1 -1 -13 -8l2 25q2 1 11 7q33 18 64 25q43 9 86 -5q9 -3 41 -14q21 -8 41 -11q28 -4 55 6q27 9 50 26z" />
    <glyph glyph-name="exclamdown" unicode="&#xa1;" horiz-adv-x="161" 
d="M98 276h19l-86 -398h-25zM140 423q11 0 17 -7.5t5 -18.5q-2 -11 -10.5 -19.5t-19.5 -8.5q-11 -1 -18.5 6.5t-6.5 18.5q1 12 11 20.5t22 8.5z" />
    <glyph glyph-name="cent" unicode="&#xa2;" horiz-adv-x="597" 
d="M445 497q81 -26 122 -102l-25 -13q-18 38 -55.5 64.5t-82.5 35.5q-22 4 -46 6l-86 -479q128 4 226 108l19 -12q-23 -33 -82 -68t-104 -45q-26 -6 -63 -8l-18 -103h-25l19 104q-58 5 -101 27q-92 48 -109 151q-13 67 16 138q47 122 173 181q54 25 114 29l19 103h25
l-19 -103q46 -2 83 -14zM172 28q36 -16 76 -18l85 477q-60 -5 -110 -31q-96 -49 -142 -142q-28 -59 -25 -112q6 -123 116 -174z" />
    <glyph glyph-name="sterling" unicode="&#xa3;" horiz-adv-x="571" 
d="M284 662q-73 -46 -90 -134q-8 -35 -5 -78q5 -57 7 -69l2 -9h234l-4 -25h-224q1 -8 3 -23.5t3 -23.5q6 -68 -7 -109q-9 -29 -26 -56q-46 -72 -119 -108v-3h445l-1 -24h-477l5 34q100 46 142 139q18 41 15 96q-1 31 -8 67l-2 11h-89l3 25h80l-2 9q-7 45 -5 101q2 41 13 77
q34 96 131 138q63 28 142 23q59 -1 114 -26l-2 -27q-76 38 -175 28q-55 -4 -103 -33z" />
    <glyph glyph-name="currency" unicode="&#xa4;" horiz-adv-x="431" 
d="M299 324q-1 -1 -2.5 -3t-2.5 -3l44 -56l-19 -16l-47 56q-63 -32 -119 -1l-67 -55l-15 16l65 55q-12 33 -11 42q0 25 8 42q7 19 25 37l-46 58l19 16l48 -57q66 32 119 0l67 57l14 -16l-64 -57q0 -1 0.5 -2.5t1.5 -2.5q17 -30 5 -70q-7 -21 -23 -40zM242 310q54 18 63 70
q5 25 -8 44.5t-39 24.5q-32 6 -61 -7q-25 -11 -39 -33t-13 -48q2 -35 35 -49q12 -6 33 -6q17 0 29 4z" />
    <glyph glyph-name="yen" unicode="&#xa5;" horiz-adv-x="630" 
d="M669 700l-332 -388h243l-4 -24h-261l-1 -2l-18 -101h262l-5 -24h-262l-28 -161h-24l28 161h-266l4 24h267l18 100l-1 3h-265l4 24h248l-198 387h33q28 -56 60.5 -120t72 -141.5t62.5 -122.5h3q56 65 328 385h32z" />
    <glyph glyph-name="brokenbar" unicode="&#xa6;" horiz-adv-x="158" 
d="M94 353h-24l66 376h26zM52 254h25l-69 -379h-23z" />
    <glyph glyph-name="section" unicode="&#xa7;" horiz-adv-x="584" 
d="M518 355q2 -16 -3 -41q-14 -50 -52 -79q-40 -32 -97 -43l-2 -4q23 -10 37.5 -18.5t31 -23t23 -33t3.5 -42.5q-10 -55 -57 -91q-37 -28 -91 -39q-71 -16 -146 -7q-56 6 -109 27q-3 1 -8 3.5l-7 3.5l12 23q4 -2 10 -4q48 -22 109 -30q34 -3 62 -2q58 2 103 18q31 11 55 29
q36 30 41 65q11 55 -58 88q-29 13 -76 26q-60 16 -128 36q-102 27 -102 100q0 30 30 68q20 22 53 39q49 26 105 32l1 3q-35 7 -76 25q-55 26 -55 70q0 45 30 80.5t78 53.5q46 18 98 21q32 3 65 0q61 -4 103 -24l-13 -23q-39 20 -90 23q-69 5 -121 -8q-48 -12 -85 -40
t-39 -72q-1 -21 11.5 -34.5t39.5 -26.5q27 -12 72 -23q76 -20 113 -30q33 -9 55.5 -18.5t45 -29.5t28.5 -48zM491 317q13 57 -59 91q-66 29 -131 29q-33 0 -67 -6q-48 -10 -84 -33q-27 -17 -40 -38q-16 -23 -16 -52q0 -41 74 -65q6 -2 42 -11.5t55 -15.5q34 -12 70 -6
q55 9 87 27q27 13 42 30q21 23 27 50z" />
    <glyph glyph-name="dieresis" unicode="&#xa8;" horiz-adv-x="388" 
d="M99 703q11 0 17 -7.5t5 -18.5q-2 -11 -10.5 -19.5t-19.5 -8.5q-11 -1 -18.5 6.5t-6.5 18.5q1 12 11 20.5t22 8.5zM307 703q11 0 17 -7.5t5 -18.5q-2 -11 -10.5 -19.5t-19.5 -8.5q-11 -1 -18.5 6.5t-6.5 18.5q1 12 11 20.5t22 8.5z" />
    <glyph glyph-name="copyright" unicode="&#xa9;" horiz-adv-x="770" 
d="M437 672q75 0 133 -25q120 -53 145 -179q15 -68 -6 -141q-37 -128 -148 -209q-81 -60 -178 -73q-91 -13 -165 15q-95 33 -138 115q-25 45 -29 93q-12 110 49 210q91 151 267 187q34 7 70 7zM79 307q0 -25 6 -52q27 -116 138 -163q82 -35 182 -14q119 26 203 121
q69 80 80 173q8 60 -11 114q-38 102 -144 140q-74 28 -158 12q-166 -33 -254 -180q-41 -69 -42 -151zM499 510q39 -20 53 -49l-23 -16q-20 29 -53 45.5t-72 13.5q-92 -6 -145 -82q-31 -46 -30 -97q3 -68 59 -100q34 -19 80 -19q66 2 117 48l21 -12q-58 -58 -143 -60
q-49 -2 -83 19q-78 42 -75 131q1 74 63 134q54 52 126 61q57 8 105 -17z" />
    <glyph glyph-name="ordfeminine" unicode="&#xaa;" horiz-adv-x="508" 
d="M415 527q29 138 -105 159q-56 8 -110.5 -13.5t-86.5 -66.5l-19 11q18 29 56 54t76 33q107 22 170.5 -28t40.5 -153q-12 -73 -34 -189h-18q3 24 11 60t10 54h-1q-27 -53 -88.5 -89t-119.5 -36q-140 0 -140 106q4 61 59 89.5t136 26.5q55 0 163 -18zM412 507
q-92 18 -162 18q-78 0 -123 -25.5t-45 -72.5q0 -78 131 -78q68 3 127.5 48t71.5 110z" />
    <glyph glyph-name="guillemotleft" unicode="&#xab;" horiz-adv-x="496" 
d="M274 478l-189 -202l116 -206h-32l-116 205h-1l189 203h33zM463 478l-189 -202l116 -205h-32l-116 204h-1l189 203h33z" />
    <glyph glyph-name="logicalnot" unicode="&#xac;" horiz-adv-x="541" 
d="M50 439h438l-39 -217h-25l36 194h-413z" />
    <glyph glyph-name="registered" unicode="&#xae;" horiz-adv-x="762" 
d="M337 42q-71 0 -128 25q-122 54 -146 185q-13 70 9 142q38 129 154 209q78 53 170 66q97 13 176 -20q119 -50 150 -168q12 -49 6 -99q-10 -98 -70.5 -179t-152.5 -124q-82 -37 -168 -37zM88 304q-1 -14 4 -43q27 -125 144 -171q80 -32 175 -13q110 23 192 107
q59 61 84 138q23 76 6 142q-30 117 -142 162q-76 30 -162 14q-173 -33 -261 -183q-40 -69 -40 -153zM509 518q56 -16 56 -75q0 -27 -12 -53q-14 -30 -43 -45q-18 -11 -34 -13q-2 -1 -9 -2.5t-9 -2.5l3 -10l38 -124h-28q-7 25 -20 70.5t-18 62.5l-153 1l-24 -134h-22l57 331
h183q19 -2 35 -6zM541 434q2 47 -43 61q-12 4 -36 4h-149l-28 -148h160q13 0 35 4q45 11 57 55q4 16 4 24z" />
    <glyph glyph-name="degree" unicode="&#xb0;" horiz-adv-x="436" 
d="M190 375q-46 0 -84 22t-54.5 60.5t-11.5 79.5q13 72 65.5 122t120.5 58q52 6 95 -13q38 -18 60.5 -54.5t20.5 -82.5q-3 -54 -35 -98q-76 -94 -177 -94zM67 523q-1 -37 20.5 -68t59.5 -44q40 -13 83 -4q63 14 108 67q28 35 34 81q5 35 -11.5 69t-52.5 52q-30 16 -66 14
q-62 0 -116.5 -50.5t-58.5 -116.5z" />
    <glyph glyph-name="plusminus" unicode="&#xb1;" horiz-adv-x="615" 
d="M34 89l4 24h472l-3 -24h-473zM345 439h223l-4 -24h-223l-40 -225h-26l40 225h-224l4 24h225l39 224h26z" />
    <glyph glyph-name="twosuperior" unicode="&#xb2;" horiz-adv-x="292" 
d="M175 466q-30 -20 -93 -49l-1 -3h179l-4 -24h-219l4 25q70 35 102 56q39 24 60 44q22 18 41 45q21 31 24 64q0 19 -3 28q-10 38 -51 44q-62 11 -118 -34l-10 20q48 44 119 41q25 -2 42 -11q41 -21 46 -68q3 -36 -14 -68q-15 -30 -39 -57q-26 -26 -65 -53z" />
    <glyph glyph-name="threesuperior" unicode="&#xb3;" horiz-adv-x="290" 
d="M302 679l-121 -95v-3q49 -6 77 -29q29 -23 29 -59q-1 -37 -20.5 -66.5t-53.5 -42.5q-16 -7 -41 -11q-80 -10 -141 12l18 23q32 -14 82 -14q85 0 114 39q19 24 17 64q-1 20 -18 35q-11 10 -29 17q-23 8 -51 13q-3 0 -7 1t-7 1l1 19l116 91l1 4h-169l5 23h206z" />
    <glyph glyph-name="acute" unicode="&#xb4;" horiz-adv-x="238" 
d="M230 753l-159 -168h-28l149 168h38z" />
    <glyph glyph-name="mu" unicode="&#xb5;" horiz-adv-x="691" 
d="M624 495h25q-24 -132 -42 -242q-26 -141 -140 -217q-59 -38 -131 -49q-50 -7 -86 -2q-120 14 -173 115q-3 7 -13 34q0 1 -1 3.5t-2 3.5h-2l-58 -336l-27 -9l121 699h24q-3 -19 -20 -117t-23 -130q-12 -68 15 -127q40 -82 135 -107q45 -12 102 -4q58 6 106 34
q121 67 147 202q38 215 43 249z" />
    <glyph glyph-name="paragraph" unicode="&#xb6;" horiz-adv-x="496" 
d="M253 699h225l-4 -24h-66l-119 -678h-23l118 678h-108l-120 -678h-25l74 415h-12q-33 0 -56 5q-24 7 -33 11q-51 22 -56 80q-4 42 12 89q23 61 83 85q32 13 81 17h29z" />
    <glyph glyph-name="periodcentered" unicode="&#xb7;" horiz-adv-x="210" 
d="M115 338q11 0 17.5 -7.5t5.5 -19.5q-2 -12 -10.5 -20.5t-20.5 -8.5q-12 -1 -19.5 6.5t-6.5 19.5t11.5 21t22.5 9z" />
    <glyph glyph-name="cedilla" unicode="&#xb8;" horiz-adv-x="329" 
d="M243 -73q40 -27 40 -75q-2 -53 -32.5 -92t-82.5 -52q-35 -9 -83 -7q-66 2 -100 25l15 21q76 -38 167 -16q55 13 79 64q10 21 11 41q5 43 -21 65q-40 32 -136 34h-22l15 88h22l-9 -65q89 0 137 -31z" />
    <glyph glyph-name="onesuperior" unicode="&#xb9;" horiz-adv-x="285" 
d="M169 399h91l-3 -24h-210l4 24h94l49 279l-96 -19l3 21l102 19h18z" />
    <glyph glyph-name="ordmasculine" unicode="&#xba;" horiz-adv-x="484" 
d="M211 325q-81 0 -129.5 55t-40.5 132q11 79 65.5 130t138.5 65q58 9 110 -13q52 -23 76 -70t16 -99q-14 -87 -81 -143.5t-155 -56.5zM214 351q77 0 137.5 51.5t69.5 124.5q8 72 -43 118q-45 41 -114 38q-64 -4 -115 -42.5t-73 -94.5q-23 -79 17.5 -136t120.5 -59z" />
    <glyph glyph-name="guillemotright" unicode="&#xbb;" horiz-adv-x="488" 
d="M230 70l189 202l-116 206h32l116 -205h1l-189 -203h-33zM41 70l189 202l-116 205h32l116 -204h1l-189 -203h-33z" />
    <glyph glyph-name="onequarter" unicode="&#xbc;" horiz-adv-x="767" 
d="M638 101h52l-4 -25h-53l-14 -77h-23l13 77h-192l8 28l161 220h29q-22 -29 -163 -220l-1 -3h163l13 71h24q-8 -39 -13 -71zM164 399h91l-3 -24h-209l3 24h95l48 279l-96 -19l3 21l103 19h17zM101 -19h-22l573 736h27z" />
    <glyph glyph-name="onehalf" unicode="&#xbd;" horiz-adv-x="739" 
d="M570 76q-30 -20 -93 -49v-3h178l-4 -24h-219l4 25q2 1 5.5 3t5.5 3q56 27 91 50q39 24 60 44q22 18 41 45q21 31 24 64q0 19 -3 28q-10 38 -51 44q-62 11 -118 -34l-10 20q48 44 119 41q25 -2 42 -11q41 -21 46 -68q3 -36 -14 -68q-15 -30 -39 -57q-26 -26 -65 -53z
M169 399h91l-3 -24h-210l4 24h94l49 279l-96 -19l3 21l102 19h18zM101 -17h-23l574 737h26z" />
    <glyph glyph-name="threequarters" unicode="&#xbe;" horiz-adv-x="733" 
d="M615 102h53l-4 -25h-53l-14 -77h-24l14 77h-192l7 28l162 220h28q-16 -22 -37 -50.5t-58 -78.5t-67 -91l-1 -3h162l13 71h24q-2 -9 -6.5 -35t-6.5 -36zM319 677l-121 -95v-3q27 -4 46 -12q20 -7 31 -17q29 -23 29 -59q-1 -37 -20.5 -66.5t-53.5 -42.5q-16 -7 -41 -11
q-80 -10 -141 12l18 23q32 -14 82 -14q43 0 64 7q12 3 24 9q15 7 26 23q19 27 17 64q-1 20 -18 35q-11 10 -29 17q-23 8 -51 13q-3 0 -7 1t-7 1l1 19l116 91l1 4h-169l5 23h206zM99 -19h-23l574 737h26z" />
    <glyph glyph-name="questiondown" unicode="&#xbf;" horiz-adv-x="481" 
d="M-18 -174q-9 42 7 99q28 92 115 136q50 25 107 31q24 2 36 4l26 141h21l-29 -165h-9.5t-9.5 -1q-67 -2 -118 -23q-38 -17 -66 -43q-48 -48 -57 -115q-5 -36 3 -64q10 -40 46 -64q29 -18 63 -23q134 -24 265 46l-8 -30q-50 -25 -104 -37t-121 -9q-45 3 -81 17
q-24 11 -42 25q-35 29 -44 75zM319 426q11 0 17 -7.5t5 -18.5q-2 -11 -10.5 -19.5t-19.5 -8.5q-11 -1 -18.5 6.5t-6.5 18.5q1 12 11 20.5t22 8.5z" />
    <glyph glyph-name="Agrave" unicode="&#xc0;" horiz-adv-x="741" 
d="M451 699q35 -115 106 -349.5t106 -349.5h-26l-61 201h-449l-132 -201h-27l459 699h24zM143 226h426l-133 438h-4zM444 789h-27l-97 167h37z" />
    <glyph glyph-name="Aacute" unicode="&#xc1;" horiz-adv-x="741" 
d="M451 699q35 -115 106 -349.5t106 -349.5h-26l-61 201h-449l-132 -201h-27l459 699h24zM143 226h426l-133 438h-4zM628 957l-159 -168h-28l149 168h38z" />
    <glyph glyph-name="Acircumflex" unicode="&#xc2;" horiz-adv-x="741" 
d="M451 699q35 -115 106 -349.5t106 -349.5h-26l-61 201h-449l-132 -201h-27l459 699h24zM143 226h426l-133 438h-4zM614 769v-5h-34l-122 148h-2l-173 -148h-37v5l203 165h23z" />
    <glyph glyph-name="Atilde" unicode="&#xc3;" horiz-adv-x="741" 
d="M451 699q35 -115 106 -349.5t106 -349.5h-26l-61 201h-449l-132 -201h-27l459 699h24zM143 226h426l-133 438h-4zM611 892q2 1 6 4t7 5l-3 -25l-5 -5q-46 -31 -88 -36q-31 -4 -65 7q-6 2 -13 4.5t-15.5 5.5t-13.5 5q-23 8 -38 10q-26 6 -53 -2q-23 -6 -56 -24
q-1 -1 -13 -8l2 25q2 1 11 7q33 18 64 25q43 9 86 -5q9 -3 41 -14q21 -8 41 -11q28 -4 55 6q27 9 50 26z" />
    <glyph glyph-name="Adieresis" unicode="&#xc4;" horiz-adv-x="741" 
d="M451 699q35 -115 106 -349.5t106 -349.5h-26l-61 201h-449l-132 -201h-27l459 699h24zM143 226h426l-133 438h-4zM365 907q11 0 17 -7.5t5 -18.5q-2 -11 -10.5 -19.5t-19.5 -8.5q-11 -1 -18.5 6.5t-6.5 18.5q1 12 11 20.5t22 8.5zM573 907q11 0 17 -7.5t5 -18.5
q-2 -11 -10.5 -19.5t-19.5 -8.5q-11 -1 -18.5 6.5t-6.5 18.5q1 12 11 20.5t22 8.5z" />
    <glyph glyph-name="Aring" unicode="&#xc5;" horiz-adv-x="741" 
d="M491 680q109 -360 205 -680h-26l-61 201h-449l-131 -201h-28l447 680q-42 7 -63 40t-15 66q16 82 98 110q39 12 74 1t51.5 -41t11.5 -64q-6 -37 -32 -66q-29 -32 -76 -45q-3 0 -6 -1zM393 785q-4 -26 10 -49t39 -30q37 -11 71 4q61 25 69 86q4 24 -7.5 44.5t-32.5 30.5
q-16 8 -39 8q-9 0 -14 -1q-3 0 -13 -2q-32 -8 -55.5 -33.5t-27.5 -57.5zM177 226h425l-133 438h-4l-205 -311z" />
    <glyph glyph-name="AE" unicode="&#xc6;" horiz-adv-x="990" 
d="M964 699l-5 -25h-484l93 -311h308l-2 -23h-299l99 -316h245l-4 -24h-261l-64 204h-448l-134 -204h-28l463 699h521zM581 228l-130 435h-4l-290 -435h133h158h133z" />
    <glyph glyph-name="Ccedilla" unicode="&#xc7;" horiz-adv-x="776" 
d="M764 598l4 -4q3 -5 5 -8q-5 -3 -11 -9q-2 -1 -5.5 -3.5t-5.5 -3.5q-1 1 -3 2.5t-3 2.5q-68 88 -185 111q-54 10 -116 2q-159 -21 -272 -141q-71 -75 -94 -171q-13 -52 -9 -106q14 -130 120 -203q63 -44 139 -51q185 -21 333 106q3 2 9 8q5 -3 16 -16l-7 -7
q-88 -79 -204 -106q-48 -12 -88 -13l-6 -51q8 -1 23 -1q40 -2 76 -13q23 -7 38 -17q39 -27 39 -76q-2 -53 -32.5 -92t-82.5 -52q-31 -8 -83 -6q-45 2 -80 15q-14 4 -20 10l15 21q75 -38 167 -17q8 2 24 8q39 17 56 56q9 25 10 42q5 43 -21 64q-19 15 -51 24q-42 11 -84 11
h-23l13 74h-10q-76 3 -136 31q-102 46 -149 144q-19 40 -24 88q-13 109 40 213q63 124 191 195q69 37 147 51q101 17 194 -12q90 -30 146 -100z" />
    <glyph glyph-name="Egrave" unicode="&#xc8;" horiz-adv-x="667" 
d="M662 674h-494l-55 -314h440l-4 -25h-441l-54 -310h493l-4 -25h-518l123 699h518zM436 789h-28l-99 167h38z" />
    <glyph glyph-name="Eacute" unicode="&#xc9;" horiz-adv-x="668" 
d="M662 674h-494l-55 -314h440l-4 -25h-441l-54 -310h493l-4 -25h-518l123 699h518zM600 957l-159 -168h-28l149 168h38z" />
    <glyph glyph-name="Ecircumflex" unicode="&#xca;" horiz-adv-x="679" 
d="M662 674h-494l-55 -314h440l-4 -25h-441l-54 -310h493l-4 -25h-518l123 699h518zM601 769v-5h-34l-122 148h-2l-173 -148h-37v5l203 165h23z" />
    <glyph glyph-name="Edieresis" unicode="&#xcb;" 
d="M662 674h-494l-55 -314h440l-4 -25h-441l-54 -310h493l-4 -25h-518l123 699h518zM333 907q11 0 17 -7.5t5 -18.5q-2 -11 -10.5 -19.5t-19.5 -8.5q-11 -1 -18.5 6.5t-6.5 18.5q1 12 11 20.5t22 8.5zM541 907q11 0 17 -7.5t5 -18.5q-2 -11 -10.5 -19.5t-19.5 -8.5
q-11 -1 -18.5 6.5t-6.5 18.5q1 12 11 20.5t22 8.5z" />
    <glyph glyph-name="Igrave" unicode="&#xcc;" horiz-adv-x="186" 
d="M45 0h-24l123 699h24zM207 789h-28l-99 167h38z" />
    <glyph glyph-name="Iacute" unicode="&#xcd;" horiz-adv-x="208" 
d="M48 0h-24l123 699h24zM351 957l-159 -168h-28l149 168h38z" />
    <glyph glyph-name="Icircumflex" unicode="&#xce;" horiz-adv-x="203" 
d="M42 0l123 699h-24l-123 -699h24zM350 769v-5h-34l-122 148h-2l-173 -148h-37v5l203 165h23z" />
    <glyph glyph-name="Idieresis" unicode="&#xcf;" horiz-adv-x="186" 
d="M44 0h-24l123 699h24zM85 907q11 0 17 -7.5t5 -18.5q-2 -11 -10.5 -19.5t-19.5 -8.5q-11 -1 -18.5 6.5t-6.5 18.5q1 12 11 20.5t22 8.5zM293 907q11 0 17 -7.5t5 -18.5q-2 -11 -10.5 -19.5t-19.5 -8.5q-11 -1 -18.5 6.5t-6.5 18.5q1 12 11 20.5t22 8.5z" />
    <glyph glyph-name="Eth" unicode="&#xd0;" horiz-adv-x="854" 
d="M793 532q8 -37 8 -69q0 -128 -47 -243q-22 -53 -56 -93q-50 -60 -128 -90q-50 -20 -115 -30q-59 -7 -126 -7h-246l59 337h-117l4 24h117l60 338h206q17 -1 50 -1t49 -1q235 -10 282 -165zM776 416q5 49 -4 94q-8 44 -35 76t-66 50t-82.5 27t-92.5 10q-17 1 -51 1h-219
q-19 -103 -55 -313h273l-4 -24h-274q-39 -227 -55 -313h225q56 0 111 6q61 9 103 24q122 44 176 161q17 34 28 75q16 59 22 126z" />
    <glyph glyph-name="Ntilde" unicode="&#xd1;" horiz-adv-x="767" 
d="M706 699h23l-123 -699h-17l-438 645h-3l-113 -645h-25l122 699h15l440 -647h3zM636 892q2 1 6 4t7 5l-3 -25l-5 -5q-46 -31 -88 -36q-31 -4 -65 7l-42 15q-23 8 -38 10q-26 6 -53 -2q-23 -6 -56 -24q-1 -1 -13 -8l2 25q2 1 11 7q33 18 64 25q43 9 86 -5q9 -3 41 -14
q21 -8 41 -11q28 -4 55 6q27 9 50 26z" />
    <glyph glyph-name="Ograve" unicode="&#xd2;" horiz-adv-x="871" 
d="M386 -18q-121 2 -211.5 66.5t-113.5 177.5q-10 51 -2 109q22 140 130 245q142 130 332 130q101 0 186 -55q85 -62 115 -154.5t2 -192.5q-39 -129 -143 -217q-91 -76 -213 -101q-44 -8 -82 -8zM506 685q-79 0 -157.5 -31.5t-138.5 -86.5q-82 -76 -112 -172
q-26 -79 -12 -155q21 -101 97 -163.5t178 -68.5q87 -6 169.5 24t148.5 89q112 101 132 243q8 91 -30 167t-115 117q-70 39 -160 37zM585 789h-28l-99 167h38z" />
    <glyph glyph-name="Oacute" unicode="&#xd3;" horiz-adv-x="871" 
d="M386 -18q-121 2 -211.5 66.5t-113.5 177.5q-10 51 -2 109q22 140 130 245q142 130 332 130q101 0 186 -55q85 -62 115 -154.5t2 -192.5q-39 -129 -143 -217q-91 -76 -213 -101q-44 -8 -82 -8zM506 685q-79 0 -157.5 -31.5t-138.5 -86.5q-82 -76 -112 -172
q-26 -79 -12 -155q21 -101 97 -163.5t178 -68.5q87 -6 169.5 24t148.5 89q112 101 132 243q8 91 -30 167t-115 117q-70 39 -160 37zM712 957l-159 -168h-28l149 168h38z" />
    <glyph glyph-name="Ocircumflex" unicode="&#xd4;" horiz-adv-x="871" 
d="M386 -18q38 0 82 8q122 25 213 101q104 88 143 217q28 100 -2 192.5t-115 154.5q-85 55 -186 55q-190 0 -332 -130q-108 -105 -130 -245q-8 -58 2 -109q23 -113 113.5 -177.5t211.5 -66.5zM506 685q90 2 160 -37q77 -41 115 -117t30 -167q-20 -142 -132 -243
q-66 -59 -148.5 -89t-169.5 -24q-102 6 -178 68.5t-97 163.5q-14 76 12 155q30 96 112 172q60 55 138.5 86.5t157.5 31.5zM728 769v-5h-34l-122 148h-2l-173 -148h-37v5l203 165h23z" />
    <glyph glyph-name="Otilde" unicode="&#xd5;" horiz-adv-x="871" 
d="M386 -18q38 0 82 8q122 25 213 101q104 88 143 217q28 100 -2 192.5t-115 154.5q-85 55 -186 55q-190 0 -332 -130q-108 -105 -130 -245q-8 -58 2 -109q23 -113 113.5 -177.5t211.5 -66.5zM506 685q90 2 160 -37q77 -41 115 -117t30 -167q-20 -142 -132 -243
q-66 -59 -148.5 -89t-169.5 -24q-102 6 -178 68.5t-97 163.5q-14 76 12 155q30 96 112 172q60 55 138.5 86.5t157.5 31.5zM716 892q2 1 6 4t7 5l-3 -25l-5 -5q-46 -31 -88 -36q-31 -4 -65 7q-6 2 -13 4.5t-15.5 5.5t-13.5 5q-23 8 -38 10q-26 6 -53 -2q-23 -6 -56 -24
q-1 -1 -13 -8l2 25q2 1 11 7q33 18 64 25q43 9 86 -5q9 -3 41 -14q21 -8 41 -11q28 -4 55 6q27 9 50 26z" />
    <glyph glyph-name="Odieresis" unicode="&#xd6;" horiz-adv-x="871" 
d="M386 -18q-121 2 -211.5 66.5t-113.5 177.5q-10 51 -2 109q22 140 130 245q142 130 332 130q101 0 186 -55q85 -62 115 -154.5t2 -192.5q-39 -129 -143 -217q-91 -76 -213 -101q-44 -8 -82 -8zM506 685q-79 0 -157.5 -31.5t-138.5 -86.5q-82 -76 -112 -172
q-26 -79 -12 -155q21 -101 97 -163.5t178 -68.5q87 -6 169.5 24t148.5 89q112 101 132 243q8 91 -30 167t-115 117q-70 39 -160 37zM456 907q11 0 17 -7.5t5 -18.5q-2 -11 -10.5 -19.5t-19.5 -8.5q-11 -1 -18.5 6.5t-6.5 18.5q1 12 11 20.5t22 8.5zM664 907q11 0 17 -7.5
t5 -18.5q-2 -11 -10.5 -19.5t-19.5 -8.5q-11 -1 -18.5 6.5t-6.5 18.5q1 12 11 20.5t22 8.5z" />
    <glyph glyph-name="multiply" unicode="&#xd7;" horiz-adv-x="555" 
d="M521 528l-234 -209l160 -209h-33l-146 192l-213 -192h-33l234 209l-160 209h30l148 -193l217 193h30z" />
    <glyph glyph-name="Oslash" unicode="&#xd8;" horiz-adv-x="871" 
d="M756 607q55 -71 68 -148q6 -36 1 -76q-16 -159 -140 -274q-89 -82 -211 -111q-63 -15 -125 -11q-121 6 -220 90l-83 -71l-15 16l83 71q-57 72 -67 158q-13 97 34 200q54 113 164 186q78 52 173 70q36 7 79 7q97 0 171 -39q36 -18 72 -51q17 14 49 40.5t36 29.5l14 -16
q-14 -14 -43.5 -38t-39.5 -33zM72 252q4 -32 22.5 -75t40.5 -62h4q113 95 325 274.5t253 213.5v4q-80 74 -199 82q-44 3 -93 -5q-98 -18 -177 -74q-95 -66 -143 -164q-46 -94 -33 -194zM777 280q33 87 22 164q-11 87 -64 143h-3q-96 -81 -289 -244t-289 -245v-3
q71 -71 185 -83q34 -3 67 0q31 1 63 9q99 22 180 88q88 71 128 171z" />
    <glyph glyph-name="Ugrave" unicode="&#xd9;" horiz-adv-x="796" 
d="M747 699h24l-68 -376q-21 -112 -80 -192q-76 -105 -198 -136q-43 -11 -87 -12q-41 0 -61 3q-78 10 -130 52q-48 38 -70 103q-11 32 -14 75q-5 54 9 130l63 353h25l-56 -310q-2 -16 -11 -64q-12 -72 -1 -130q9 -58 41 -101q40 -54 105 -74q36 -12 81 -14q68 -2 130 19
q103 37 163 129q43 63 60 139q2 9 16 80zM479 789h-28l-99 167h38z" />
    <glyph glyph-name="Uacute" unicode="&#xda;" horiz-adv-x="796" 
d="M747 699h24l-68 -376q-21 -112 -80 -192q-76 -105 -198 -136q-43 -11 -87 -12q-41 0 -61 3q-78 10 -130 52q-48 38 -70 103q-11 32 -14 75q-5 54 9 130l63 353h25l-56 -310q-2 -16 -11 -64q-12 -72 -1 -130q9 -58 41 -101q40 -54 105 -74q36 -12 81 -14q68 -2 130 19
q103 37 163 129q43 63 60 139q2 9 16 80zM646 957l-159 -168h-28l149 168h38z" />
    <glyph glyph-name="Ucircumflex" unicode="&#xdb;" horiz-adv-x="795" 
d="M747 699h24l-68 -376q-21 -112 -80 -192q-76 -105 -198 -136q-43 -11 -87 -12q-41 0 -61 3q-78 10 -130 52q-48 38 -70 103q-11 32 -14 75q-5 54 9 130l63 353h25l-56 -310q-2 -16 -11 -64q-12 -72 -1 -130q9 -58 41 -101q40 -54 105 -74q36 -12 81 -14q68 -2 130 19
q103 37 163 129q43 63 60 139q2 9 16 80zM661 769v-5h-34l-122 148h-2l-173 -148h-37v5l203 165h23z" />
    <glyph glyph-name="Udieresis" unicode="&#xdc;" horiz-adv-x="795" 
d="M747 699h24l-68 -376q-21 -112 -80 -192q-76 -105 -198 -136q-43 -11 -87 -12q-41 0 -61 3q-78 10 -130 52q-48 38 -70 103q-11 32 -14 75q-5 54 9 130l63 353h25l-56 -310q-2 -16 -11 -64q-12 -72 -1 -130q9 -58 41 -101q40 -54 105 -74q36 -12 81 -14q68 -2 130 19
q103 37 163 129q43 63 60 139q2 9 16 80zM384 907q11 0 17 -7.5t5 -18.5q-2 -11 -10.5 -19.5t-19.5 -8.5q-11 -1 -18.5 6.5t-6.5 18.5q1 12 11 20.5t22 8.5zM592 907q11 0 17 -7.5t5 -18.5q-2 -11 -10.5 -19.5t-19.5 -8.5q-11 -1 -18.5 6.5t-6.5 18.5q1 12 11 20.5t22 8.5z
" />
    <glyph glyph-name="Yacute" unicode="&#xdd;" horiz-adv-x="627" 
d="M628 699h32l-354 -413l-51 -286h-24l51 285l-212 414h31q33 -64 98.5 -192.5t98.5 -191.5h4q218 258 326 384zM553 957l-159 -168h-28l149 168h38z" />
    <glyph glyph-name="Thorn" unicode="&#xde;" horiz-adv-x="643" 
d="M611 438q9 -40 -1 -92q-4 -26 -18 -64q-29 -68 -88.5 -103t-140.5 -35h-291l-25 -144h-24l123 699h24l-25 -140h291q64 0 112.5 -30.5t62.5 -90.5zM584 334q11 55 4 90q-9 54 -50 82t-102 28h-295l-65 -366h297q63 0 116 29t78 86q12 28 17 51z" />
    <glyph glyph-name="germandbls" unicode="&#xdf;" horiz-adv-x="612" 
d="M507 325q54 -45 48 -119q-6 -72 -52 -127q-45 -55 -121 -79q-45 -15 -92 -15q-47 -1 -109 9l7 26q56 -10 96 -11q99 -2 169 53q64 50 76 129q11 61 -34 106q-64 64 -191 64l7 24q60 3 112 31q42 23 67 56q34 44 34 103q0 42 -26.5 72.5t-67.5 40.5q-71 18 -132 -3
q-70 -24 -107 -91q-18 -32 -26 -78l-92 -516h-24l92 519q8 44 28 82q43 79 126 106q71 22 145 4q48 -12 80 -50.5t29 -87.5q-6 -100 -90 -160q-29 -20 -75 -36v-4q36 -3 69 -17q31 -12 54 -31z" />
    <glyph glyph-name="agrave" unicode="&#xe0;" 
d="M525 0h-19l22 157h-2q-46 -81 -128 -126t-183 -45q-90 0 -132.5 52.5t-17.5 134.5q33 110 263 110q94 0 218 -17q16 97 -34 158t-138 61q-156 0 -249 -112l-22 13q51 65 115.5 95t156.5 30q104 0 160 -69.5t37 -182.5zM542 242q-89 17 -202 17q-220 0 -245 -90
q-11 -47 -5.5 -77.5t28.5 -48.5t50.5 -25.5t61.5 -7.5q109 0 195.5 67t116.5 165zM393 585h-28l-99 167h38z" />
    <glyph glyph-name="aacute" unicode="&#xe1;" 
d="M525 0h-19l22 157h-2q-46 -81 -128 -126t-183 -45q-90 0 -132.5 52.5t-17.5 134.5q33 110 263 110q94 0 218 -17q16 97 -34 158t-138 61q-156 0 -249 -112l-22 13q51 65 115.5 95t156.5 30q104 0 160 -69.5t37 -182.5zM542 242q-89 17 -202 17q-220 0 -245 -90
q-11 -47 -5.5 -77.5t28.5 -48.5t50.5 -25.5t61.5 -7.5q109 0 195.5 67t116.5 165zM584 753l-159 -168h-28l149 168h38z" />
    <glyph glyph-name="acircumflex" unicode="&#xe2;" 
d="M506 0h19l47 259q19 113 -37 182.5t-160 69.5q-92 0 -156.5 -30t-115.5 -95l22 -13q93 112 249 112q88 0 138 -61t34 -158q-124 17 -218 17q-230 0 -263 -110q-25 -82 17.5 -134.5t132.5 -52.5q101 0 183 45t128 126h2zM542 242q-30 -98 -116.5 -165t-195.5 -67
q-34 0 -61.5 7.5t-50.5 25.5t-28.5 48.5t5.5 77.5q25 90 245 90q113 0 202 -17zM562 565v-5h-34l-122 148h-2l-173 -148h-37v5l203 165h23z" />
    <glyph glyph-name="atilde" unicode="&#xe3;" horiz-adv-x="680" 
d="M506 0h19l47 259q19 113 -37 182.5t-160 69.5q-92 0 -156.5 -30t-115.5 -95l22 -13q93 112 249 112q88 0 138 -61t34 -158q-124 17 -218 17q-230 0 -263 -110q-25 -82 17.5 -134.5t132.5 -52.5q101 0 183 45t128 126h2zM542 242q-30 -98 -116.5 -165t-195.5 -67
q-34 0 -61.5 7.5t-50.5 25.5t-28.5 48.5t5.5 77.5q25 90 245 90q113 0 202 -17zM589 688q2 1 6 4t7 5l-3 -25l-5 -5q-46 -31 -88 -36q-31 -4 -65 7l-42 15q-23 8 -38 10q-26 6 -53 -2q-23 -6 -56 -24q-1 -1 -13 -8l2 25q2 1 11 7q33 18 64 25q43 9 86 -5q9 -3 41 -14
q21 -8 41 -11q28 -4 55 6q27 9 50 26z" />
    <glyph glyph-name="adieresis" unicode="&#xe4;" 
d="M525 0h-19l22 157h-2q-46 -81 -128 -126t-183 -45q-90 0 -132.5 52.5t-17.5 134.5q33 110 263 110q94 0 218 -17q16 97 -34 158t-138 61q-156 0 -249 -112l-22 13q51 65 115.5 95t156.5 30q104 0 160 -69.5t37 -182.5zM542 242q-89 17 -202 17q-220 0 -245 -90
q-11 -47 -5.5 -77.5t28.5 -48.5t50.5 -25.5t61.5 -7.5q109 0 195.5 67t116.5 165zM321 703q11 0 17 -7.5t5 -18.5q-2 -11 -10.5 -19.5t-19.5 -8.5q-11 -1 -18.5 6.5t-6.5 18.5q1 12 11 20.5t22 8.5zM529 703q11 0 17 -7.5t5 -18.5q-2 -11 -10.5 -19.5t-19.5 -8.5
q-11 -1 -18.5 6.5t-6.5 18.5q1 12 11 20.5t22 8.5z" />
    <glyph glyph-name="aring" unicode="&#xe5;" horiz-adv-x="679" 
d="M446 813q47 0 77 -29.5t29 -74.5q-4 -51 -37 -87t-85 -47q-44 -7 -73 6q-59 27 -60 89q3 60 45.5 101.5t103.5 41.5zM407 593q38 0 69.5 22t47.5 59q17 45 -6 80t-68 38q-49 2 -87.5 -30t-44.5 -79q-4 -40 22.5 -65t66.5 -25zM530 0h-19l22 157h-2q-46 -81 -128 -126
t-183 -45q-90 0 -132.5 52.5t-17.5 134.5q33 110 263 110q94 0 218 -17q16 97 -34 158t-138 61q-156 0 -249 -112l-22 13q51 65 115.5 95t156.5 30q104 0 160 -69.5t37 -182.5zM547 242q-89 17 -202 17q-220 0 -245 -90q-11 -47 -5.5 -77.5t28.5 -48.5t50.5 -25.5t61.5 -7.5
q109 0 195.5 67t116.5 165z" />
    <glyph glyph-name="ae" unicode="&#xe6;" horiz-adv-x="1043" 
d="M1007 237h-484q-13 -77 19 -133.5t98 -81.5q48 -17 103 -9q107 18 189 111l19 -10q-28 -43 -80.5 -77t-103.5 -44t-92 -5q-70 11 -116.5 55.5t-57.5 116.5l-3 18h-1q-83 -191 -310 -191q-85 0 -125 52.5t-17 134.5q32 110 249 110q90 0 206 -17q15 97 -33 158.5
t-130 61.5q-74 0 -130.5 -24.5t-104.5 -88.5l-21 13q48 65 109.5 95t148.5 30q81 0 132 -48t58 -130q40 91 118.5 137.5t173.5 39.5q99 -10 154.5 -89.5t31.5 -184.5zM201 11q110 0 192 65t104 167q-85 17 -192 17q-208 0 -231 -90q-10 -46 -5 -77t26.5 -49t47.5 -25.5
t58 -7.5zM818 487q-104 10 -186 -55t-105 -170h460q10 64 -16 117t-78 84q-30 17 -75 24z" />
    <glyph glyph-name="ccedilla" unicode="&#xe7;" horiz-adv-x="594" 
d="M450 498q81 -26 122 -102l-25 -13q-18 37 -55.5 63.5t-82.5 36.5q-31 7 -70 5q-56 -4 -111 -31q-96 -49 -142 -143q-28 -57 -25 -111q6 -124 116 -174q37 -17 88 -19q134 -3 237 107l20 -11q-23 -35 -79.5 -69t-106.5 -44q-33 -7 -60 -8l-6 -44q5 0 12.5 -0.5t11.5 -0.5
q38 -1 76 -12q21 -7 37 -18q41 -27 39 -75q-1 -54 -32 -92.5t-83 -51.5q-34 -9 -82 -7q-41 1 -80 15q-16 7 -20 10l15 21q76 -38 166 -16q18 5 24 7q39 16 56 57q7 16 11 41q5 43 -22 65q-16 13 -50 23q-44 11 -85 11h-23l12 68q-59 3 -105 27q-92 48 -109 150
q-13 67 16 139q47 123 173 180q42 20 98 27q65 8 124 -11z" />
    <glyph glyph-name="egrave" unicode="&#xe8;" horiz-adv-x="673" 
d="M609 235h-523q-13 -75 25.5 -132t109.5 -83q51 -17 109 -9q114 19 200 111l20 -10q-31 -43 -86 -77t-109 -44t-97 -5q-76 11 -130 56.5t-66 115.5q-15 89 28 171q48 89 135 138t187 42q104 -10 163 -91t34 -183zM588 260q10 64 -17.5 117t-82.5 84q-32 17 -79 24
q-110 7 -202.5 -57.5t-116.5 -167.5h498zM401 585h-28l-99 167h38z" />
    <glyph glyph-name="eacute" unicode="&#xe9;" horiz-adv-x="654" 
d="M609 235h-523q-13 -75 25.5 -132t109.5 -83q51 -17 109 -9q114 19 200 111l20 -10q-31 -43 -86 -77t-109 -44t-97 -5q-76 11 -130 56.5t-66 115.5q-15 89 28 171q48 89 135 138t187 42q104 -10 163 -91t34 -183zM588 260q10 64 -17.5 117t-82.5 84q-32 17 -79 24
q-110 7 -202.5 -57.5t-116.5 -167.5h498zM578 753l-159 -168h-28l149 168h38z" />
    <glyph glyph-name="ecircumflex" unicode="&#xea;" horiz-adv-x="673" 
d="M609 235q25 102 -34 183t-163 91q-100 7 -187 -42t-135 -138q-43 -82 -28 -171q12 -70 66 -115.5t130 -56.5q43 -5 97 5t109 44t86 77l-20 10q-86 -92 -200 -111q-58 -8 -109 9q-71 26 -109.5 83t-25.5 132h523zM588 260h-498q24 103 116.5 167.5t202.5 57.5
q47 -7 79 -24q55 -31 82.5 -84t17.5 -117zM585 565v-5h-34l-122 148h-2l-173 -148h-37v5l203 165h23z" />
    <glyph glyph-name="edieresis" unicode="&#xeb;" horiz-adv-x="654" 
d="M591 235h-523q-13 -75 25.5 -132t109.5 -83q51 -17 109 -9q114 19 200 111l20 -10q-31 -43 -86 -77t-109 -44t-97 -5q-76 11 -130 56.5t-66 115.5q-15 89 28 171q48 89 135 138t187 42q104 -10 163 -91t34 -183zM570 260q10 64 -17.5 117t-82.5 84q-32 17 -79 24
q-110 7 -202.5 -57.5t-116.5 -167.5h498zM320 703q11 0 17 -7.5t5 -18.5q-2 -11 -10.5 -19.5t-19.5 -8.5q-11 -1 -18.5 6.5t-6.5 18.5q1 12 11 20.5t22 8.5zM528 703q11 0 17 -7.5t5 -18.5q-2 -11 -10.5 -19.5t-19.5 -8.5q-11 -1 -18.5 6.5t-6.5 18.5q1 12 11 20.5t22 8.5z
" />
    <glyph glyph-name="igrave" unicode="&#xec;" horiz-adv-x="186" 
d="M16 0l88 495h24l-88 -495h-24zM146 585h-28l-99 167h38z" />
    <glyph glyph-name="iacute" unicode="&#xed;" horiz-adv-x="232" 
d="M36 0l88 495h24l-88 -495h-24zM323 753l-159 -168h-28l149 168h38z" />
    <glyph glyph-name="icircumflex" unicode="&#xee;" horiz-adv-x="225" 
d="M36 0l88 495h24l-88 -495h-24zM328 565v-5h-34l-122 148h-2l-173 -148h-37v5l203 165h23z" />
    <glyph glyph-name="idieresis" unicode="&#xef;" horiz-adv-x="184" 
d="M22 0l88 495h24l-88 -495h-24zM50 703q11 0 17 -7.5t5 -18.5q-2 -11 -10.5 -19.5t-19.5 -8.5q-11 -1 -18.5 6.5t-6.5 18.5q1 12 11 20.5t22 8.5zM258 703q11 0 17 -7.5t5 -18.5q-2 -11 -10.5 -19.5t-19.5 -8.5q-11 -1 -18.5 6.5t-6.5 18.5q1 12 11 20.5t22 8.5z" />
    <glyph glyph-name="eth" unicode="&#xf0;" horiz-adv-x="608" 
d="M498 667q53 -49 69 -122q11 -52 8 -113q-6 -101 -35 -192q-19 -62 -45 -106q-33 -57 -75 -89q-55 -45 -129 -57q-47 -6 -90 -2q-51 5 -87 25q-76 43 -90 132q-20 116 63.5 208.5t204.5 97.5q92 3 156.5 -44t77.5 -136h2q2 15 9.5 53.5t10.5 60.5q12 79 -2 144
q-15 82 -70 123l-84 -74h-38q97 84 102 88q-30 18 -77 26q-109 14 -205 -32l-5 25q43 19 90 27q48 9 96 6q67 -4 123 -35q13 10 35.5 29.5t32.5 27.5h36q-81 -68 -84 -71zM504 229q9 76 -43.5 133t-131.5 63q-95 9 -174.5 -43.5t-102.5 -147.5q-11 -45 -4 -85
q16 -89 103 -125q39 -17 88 -15q49 -1 95 15q69 24 115.5 79.5t54.5 125.5z" />
    <glyph glyph-name="ntilde" unicode="&#xf1;" horiz-adv-x="689" 
d="M491 489q71 -28 103.5 -96.5t16.5 -147.5q-4 -21 -21.5 -123t-20.5 -122h-24l43 253q11 69 -19 129.5t-96 85.5q-36 14 -78 16q-92 5 -170 -43.5t-116 -124.5q-18 -34 -26 -80l-40 -236h-25l88 495h19l-21 -144h4q38 62 102 105t136 50q79 10 145 -17zM600 688q2 1 6 4
t7 5l-3 -25l-5 -5q-46 -31 -88 -36q-31 -4 -65 7q-6 2 -13 4.5t-15.5 5.5t-13.5 5q-23 8 -38 10q-26 6 -53 -2q-23 -6 -56 -24q-1 -1 -13 -8l2 25q2 1 11 7q33 18 64 25q43 9 86 -5q9 -3 41 -14q21 -8 41 -11q28 -4 55 6q27 9 50 26z" />
    <glyph glyph-name="ograve" unicode="&#xf2;" horiz-adv-x="650" 
d="M277 -15q-66 0 -115 23q-100 48 -117 159q-10 61 14 126q37 97 122 157t185 60q66 2 114 -23q82 -42 109 -125t-4 -161q-40 -99 -121.5 -157.5t-186.5 -58.5zM280 9q94 0 169 53.5t112 143.5q30 79 1 153t-104 108q-112 40 -220.5 -13t-153.5 -160q-24 -63 -13 -123
q18 -96 106 -140q45 -22 103 -22zM424 585h-28l-99 167h38z" />
    <glyph glyph-name="oacute" unicode="&#xf3;" horiz-adv-x="650" 
d="M277 -15q-66 0 -115 23q-100 48 -117 159q-10 61 14 126q37 97 122 157t185 60q66 2 114 -23q82 -42 109 -125t-4 -161q-40 -99 -121.5 -157.5t-186.5 -58.5zM280 9q94 0 169 53.5t112 143.5q30 79 1 153t-104 108q-112 40 -220.5 -13t-153.5 -160q-24 -63 -13 -123
q18 -96 106 -140q45 -22 103 -22zM566 753l-159 -168h-28l149 168h38z" />
    <glyph glyph-name="ocircumflex" unicode="&#xf4;" horiz-adv-x="650" 
d="M277 -15q105 0 186.5 58.5t121.5 157.5q31 78 4 161t-109 125q-48 25 -114 23q-100 0 -185 -60t-122 -157q-24 -65 -14 -126q17 -111 117 -159q49 -23 115 -23zM280 9q-58 0 -103 22q-88 44 -106 140q-11 60 13 123q45 107 153.5 160t220.5 13q75 -34 104 -108t-1 -153
q-37 -90 -112 -143.5t-169 -53.5zM560 565v-5h-34l-122 148h-2l-173 -148h-37v5l203 165h23z" />
    <glyph glyph-name="otilde" unicode="&#xf5;" horiz-adv-x="650" 
d="M277 -15q105 0 186.5 58.5t121.5 157.5q31 78 4 161t-109 125q-48 25 -114 23q-100 0 -185 -60t-122 -157q-24 -65 -14 -126q17 -111 117 -159q49 -23 115 -23zM280 9q-58 0 -103 22q-88 44 -106 140q-11 60 13 123q45 107 153.5 160t220.5 13q75 -34 104 -108t-1 -153
q-37 -90 -112 -143.5t-169 -53.5zM562 688q2 1 6 4t7 5l-3 -25l-5 -5q-46 -31 -88 -36q-31 -4 -65 7q-6 2 -13 4.5t-15.5 5.5t-13.5 5q-23 8 -38 10q-26 6 -53 -2q-23 -6 -56 -24q-1 -1 -13 -8l2 25q2 1 11 7q33 18 64 25q43 9 86 -5q9 -3 41 -14q21 -8 41 -11q28 -4 55 6
q27 9 50 26z" />
    <glyph glyph-name="odieresis" unicode="&#xf6;" horiz-adv-x="650" 
d="M265 -15q-66 0 -115 23q-100 48 -117 159q-10 61 14 126q37 97 122 157t185 60q66 2 114 -23q82 -42 109 -125t-4 -161q-40 -99 -121.5 -157.5t-186.5 -58.5zM268 9q94 0 169 53.5t112 143.5q30 79 1 153t-104 108q-112 40 -220.5 -13t-153.5 -160q-24 -63 -13 -123
q18 -96 106 -140q45 -22 103 -22zM303 703q11 0 17 -7.5t5 -18.5q-2 -11 -10.5 -19.5t-19.5 -8.5q-11 -1 -18.5 6.5t-6.5 18.5q1 12 11 20.5t22 8.5zM511 703q11 0 17 -7.5t5 -18.5q-2 -11 -10.5 -19.5t-19.5 -8.5q-11 -1 -18.5 6.5t-6.5 18.5q1 12 11 20.5t22 8.5z" />
    <glyph glyph-name="divide" unicode="&#xf7;" horiz-adv-x="620" 
d="M546 337h-484l4 24h484zM348 570q11 0 17 -7.5t5 -18.5q-2 -11 -10.5 -19.5t-19.5 -8.5q-11 -1 -18.5 6.5t-6.5 18.5q1 12 11 20.5t22 8.5zM279 187q11 0 17 -7.5t5 -18.5q-2 -11 -10.5 -19.5t-19.5 -8.5q-11 -1 -18.5 6.5t-6.5 18.5q1 12 11 20.5t22 8.5z" />
    <glyph glyph-name="oslash" unicode="&#xf8;" horiz-adv-x="650" 
d="M615 479l-54 -47q42 -53 46 -125q3 -106 -64 -193q-80 -100 -204 -124q-75 -15 -148 9q-45 17 -83 48l-55 -47l-14 17q9 8 27.5 23.5t27.5 23.5q-44 57 -45 123q-4 106 63 193q77 100 200 124q78 16 147 -6q56 -17 86 -50q10 8 28.5 24t27.5 24zM116 85h3q99 83 295 251
l105 90v6q-22 22 -60 37q-65 26 -140 12q-134 -27 -208 -144q-38 -61 -38 -134q2 -74 43 -118zM578 329q-11 54 -39 81h-4q-60 -52 -194.5 -166t-205.5 -176v-4q48 -48 127 -54q75 -6 144 26q107 50 155 154q30 67 17 139z" />
    <glyph glyph-name="ugrave" unicode="&#xf9;" horiz-adv-x="667" 
d="M56 157q-7 40 2 93q7 40 42 245h25l-44 -253q-8 -53 5 -99q25 -85 111 -117q30 -13 77 -16q90 -5 157 42t106 126q19 38 25 80q4 19 21 118.5t20 118.5h25l-87 -495h-19l20 143h-4q-26 -43 -50.5 -70.5t-60.5 -47.5q-57 -32 -103 -37q-80 -10 -145 17q-103 42 -123 152z
M400 585h-28l-99 167h38z" />
    <glyph glyph-name="uacute" unicode="&#xfa;" horiz-adv-x="667" 
d="M56 157q-7 40 2 93q7 40 42 245h25l-44 -253q-8 -53 5 -99q25 -85 111 -117q30 -13 77 -16q90 -5 157 42t106 126q19 38 25 80q4 19 21 118.5t20 118.5h25l-87 -495h-19l20 143h-4q-26 -43 -50.5 -70.5t-60.5 -47.5q-57 -32 -103 -37q-80 -10 -145 17q-103 42 -123 152z
M555 753l-159 -168h-28l149 168h38z" />
    <glyph glyph-name="ucircumflex" unicode="&#xfb;" horiz-adv-x="667" 
d="M56 157q-7 40 2 93q7 40 42 245h25l-44 -253q-8 -53 5 -99q25 -85 111 -117q30 -13 77 -16q90 -5 157 42t106 126q19 38 25 80q4 19 21 118.5t20 118.5h25l-87 -495h-19l20 143h-4q-26 -43 -50.5 -70.5t-60.5 -47.5q-57 -32 -103 -37q-80 -10 -145 17q-103 42 -123 152z
M565 565v-5h-34l-122 148h-2l-173 -148h-37v5l203 165h23z" />
    <glyph glyph-name="udieresis" unicode="&#xfc;" horiz-adv-x="667" 
d="M56 157q-7 40 2 93q7 40 42 245h25l-44 -253q-8 -53 5 -99q25 -85 111 -117q30 -13 77 -16q90 -5 157 42t106 126q19 38 25 80q4 19 21 118.5t20 118.5h25l-87 -495h-19l20 143h-4q-26 -43 -50.5 -70.5t-60.5 -47.5q-57 -32 -103 -37q-80 -10 -145 17q-103 42 -123 152z
M292 703q11 0 17 -7.5t5 -18.5q-2 -11 -10.5 -19.5t-19.5 -8.5q-11 -1 -18.5 6.5t-6.5 18.5q1 12 11 20.5t22 8.5zM500 703q11 0 17 -7.5t5 -18.5q-2 -11 -10.5 -19.5t-19.5 -8.5q-11 -1 -18.5 6.5t-6.5 18.5q1 12 11 20.5t22 8.5z" />
    <glyph glyph-name="yacute" unicode="&#xfd;" horiz-adv-x="546" 
d="M496 495h32l-468 -715h-28l147 227q-67 232 -140 488h29l130 -452h4zM495 753l-159 -168h-28l149 168h38z" />
    <glyph glyph-name="thorn" unicode="&#xfe;" horiz-adv-x="668" 
d="M621 322q13 -70 -19 -142q-38 -91 -130 -151q-64 -42 -141 -51q-100 -11 -171 42q-54 41 -83 124h-2l-65 -364h-23l167 953h26l-69 -384h4q38 57 100.5 98.5t130.5 53.5q91 14 166 -26q91 -50 109 -153zM566 159q33 57 33 117q1 99 -77 159q-58 45 -134 45q-34 0 -66 -9
q-91 -26 -159 -99q-37 -39 -56 -85q-27 -65 -12 -125q23 -100 120 -144q62 -28 132 -14q145 29 219 155z" />
    <glyph glyph-name="ydieresis" unicode="&#xff;" horiz-adv-x="510" 
d="M496 495h32l-468 -715h-28l147 227q-67 232 -140 488h29l130 -452h4zM215 703q11 0 17 -7.5t5 -18.5q-2 -11 -10.5 -19.5t-19.5 -8.5q-11 -1 -18.5 6.5t-6.5 18.5q1 12 11 20.5t22 8.5zM423 703q11 0 17 -7.5t5 -18.5q-2 -11 -10.5 -19.5t-19.5 -8.5q-11 -1 -18.5 6.5
t-6.5 18.5q1 12 11 20.5t22 8.5z" />
    <glyph glyph-name="Abreve" unicode="&#x102;" horiz-adv-x="741" 
d="M451 699q35 -115 106 -349.5t106 -349.5h-26l-61 201h-449l-132 -201h-27l459 699h24zM143 226h426l-133 438h-4zM631 926h24q-5 -52 -53 -102q-48 -49 -116 -63q-54 -11 -99 7q-75 29 -89 109q-3 16 -1 49h24q-10 -98 71 -133q19 -8 32 -10q65 -10 121 22.5t78 88.5
q7 17 8 32z" />
    <glyph glyph-name="abreve" unicode="&#x103;" 
d="M506 0h19l47 259q19 113 -37 182.5t-160 69.5q-92 0 -156.5 -30t-115.5 -95l22 -13q93 112 249 112q88 0 138 -61t34 -158q-124 17 -218 17q-230 0 -263 -110q-25 -82 17.5 -134.5t132.5 -52.5q101 0 183 45t128 126h2zM542 242q-30 -98 -116.5 -165t-195.5 -67
q-34 0 -61.5 7.5t-50.5 25.5t-28.5 48.5t5.5 77.5q25 90 245 90q113 0 202 -17zM574 725h24q-5 -52 -53 -102q-48 -49 -116 -63q-54 -11 -99 7q-75 29 -89 109q-3 16 -1 49h24q-10 -98 71 -133q19 -8 32 -10q65 -10 121 22.5t78 88.5q7 17 8 32z" />
    <glyph glyph-name="Aogonek" unicode="&#x104;" horiz-adv-x="741" 
d="M576 -224q31 -6 71 4q8 2 13 4l-3 -24l-8 -4q-47 -12 -84 -4q-19 5 -20 6q-42 16 -48 62q-5 40 15 78q10 22 38 52q39 38 90 64l-57 187h-449l-131 -201h-28l460 699h24q91 -299 211 -699h-20q-33 -17 -59 -39q-30 -25 -45 -47q-24 -35 -25 -72q0 -57 55 -66zM151 226
h425l-133 438h-4z" />
    <glyph glyph-name="aogonek" unicode="&#x105;" horiz-adv-x="663" 
d="M457 -31q-25 -17 -45 -44q-24 -30 -24 -67q0 -52 55 -61q34 -6 83 7l-2 -22q-64 -18 -113 -2q-42 15 -47 59q-4 37 14 71q15 28 39 49q35 33 88 59l19 139h-2q-46 -81 -128 -126t-183 -45q-90 0 -132.5 52.5t-17.5 134.5q33 110 263 110q94 0 218 -17q16 97 -34 158
t-138 61q-81 0 -139.5 -24t-109.5 -88l-22 13q51 65 114.5 95t157.5 30q105 0 160.5 -69.5t36.5 -182.5l-47 -259h-16q-22 -11 -48 -31zM226 10q109 0 195.5 67t116.5 165q-89 17 -202 17q-220 0 -245 -90q-11 -47 -5.5 -77.5t28.5 -48.5t50.5 -25.5t61.5 -7.5z" />
    <glyph glyph-name="Cacute" unicode="&#x106;" horiz-adv-x="783" 
d="M769 583l-20 -16q-77 91 -190 115q-52 11 -118 3q-160 -21 -273 -141q-68 -73 -94 -171q-13 -59 -8 -106q14 -130 120 -203q61 -43 138 -51q188 -22 343 114l16 -16q-104 -86 -211 -114q-60 -13 -121 -12q-75 3 -135 31q-104 46 -149 143q-19 40 -25 89q-13 109 40 213
q55 100 144 164t195 82q99 17 186 -11q97 -36 162 -113zM685 957l-159 -168h-28l149 168h38z" />
    <glyph glyph-name="cacute" unicode="&#x107;" horiz-adv-x="622" 
d="M577 397l-24 -13q-47 78 -140 100q-36 8 -69 5q-61 -5 -112 -31q-97 -50 -142 -143q-27 -55 -24 -111q6 -124 116 -174q37 -17 88 -19q142 -3 237 107l20 -11q-77 -90 -185 -113q-41 -10 -81 -8q-62 3 -109 28q-91 48 -109 150q-11 67 16 139q37 87 109 141.5t162 65.5
q62 7 120 -11q45 -15 74 -40t53 -62zM538 753l-159 -168h-28l149 168h38z" />
    <glyph glyph-name="Ccaron" unicode="&#x10c;" horiz-adv-x="783" 
d="M749 567l20 16q-65 77 -162 113q-87 28 -186 11q-106 -18 -195 -82t-144 -164q-53 -104 -40 -213q6 -49 25 -89q45 -97 149 -143q60 -28 135 -31q61 -1 121 12q107 28 211 114l-16 16q-155 -136 -343 -114q-77 8 -138 51q-106 73 -120 203q-5 47 8 106q26 98 94 171
q113 120 273 141q66 8 118 -3q113 -24 190 -115zM369 911v5h34l122 -145h2l173 145h37v-5l-203 -163h-23z" />
    <glyph glyph-name="ccaron" unicode="&#x10d;" horiz-adv-x="609" 
d="M553 384l24 13q-24 37 -53 62t-74 40q-58 18 -120 11q-90 -11 -162 -65.5t-109 -141.5q-27 -72 -16 -139q18 -102 109 -150q47 -25 109 -28q40 -2 81 8q108 23 185 113l-20 11q-95 -110 -237 -107q-51 2 -88 19q-110 50 -116 174q-3 56 24 111q45 93 142 143
q51 26 112 31q33 3 69 -5q93 -22 140 -100zM213 707v5h34l122 -145h2l173 145h37v-5l-203 -163h-23z" />
    <glyph glyph-name="Dcaron" unicode="&#x10e;" horiz-adv-x="785" 
d="M733 532q8 -29 8 -69q0 -127 -46 -243q-20 -50 -56 -93q-50 -59 -128 -90q-93 -37 -242 -37h-246l123 699h207q65 0 98 -1q118 -6 188 -43q74 -40 94 -123zM716 416q5 49 -4 95q-17 87 -94 125q-80 40 -232 40h-219q-10 -58 -52 -292.5t-64 -359.5h224q127 0 216 31
q121 44 176 160q17 36 27 75q17 61 22 126zM280 911v5h34l122 -145h2l173 145h37v-5l-203 -163h-23z" />
    <glyph glyph-name="dcaron" unicode="&#x10f;" horiz-adv-x="754" 
d="M578 356h3q9 41 22.5 114t25 141t13.5 77l25 10q-55 -336 -122 -698h-18l12 137h-3q-96 -125 -221 -147q-39 -8 -85 -2q-59 8 -106 40q-74 54 -87 144q-11 77 28 154q40 75 109.5 124.5t147.5 57.5q87 7 156 -32.5t100 -119.5zM354 486q-96 -1 -176.5 -61t-107.5 -149
q-18 -55 -6 -112q18 -76 85 -119q83 -53 183 -28q70 21 125 65t84 103q22 41 25 89q1 52 -22 98q-26 51 -78 83t-112 31zM826 699l-123 -201h-19l104 201h38z" />
    <glyph glyph-name="Dcroat" unicode="&#x110;" horiz-adv-x="766" 
d="M624 824l-4 -24h-361l4 24h361zM733 532q8 -29 8 -69q0 -127 -46 -243q-20 -50 -56 -93q-50 -59 -128 -90q-93 -37 -242 -37h-246l123 699h207q65 0 98 -1q118 -6 188 -43q74 -40 94 -123zM716 416q5 49 -4 95q-17 87 -94 125q-80 40 -232 40h-219q-10 -58 -52 -292.5
t-64 -359.5h224q127 0 216 31q121 44 176 160q17 36 27 75q17 61 22 126z" />
    <glyph glyph-name="dcroat" unicode="&#x111;" horiz-adv-x="681" 
d="M787 611l-4 -24h-140q-21 -113 -60 -335.5t-44 -251.5h-19l11 128h-5q-111 -142 -277 -142q-33 0 -70.5 11.5t-61.5 29.5q-73 52 -87 143q-11 78 28 155q59 111 180 162q33 13 77 20q105 13 181 -46q56 -41 75 -106h3l44 232h-135l4 24h135q5 26 14 75l26 10l-15 -85h140
zM559 273q2 52 -22 98q-26 51 -78 83t-112 31q-29 0 -59 -7q-82 -19 -145 -78q-58 -55 -80 -126q-18 -58 -5 -111q18 -78 80 -119q83 -56 187 -28q65 17 122 62t88 106q21 42 24 89z" />
    <glyph glyph-name="Eogonek" unicode="&#x118;" horiz-adv-x="679" 
d="M675 674h-494l-55 -313h440l-4 -25h-440l-55 -310h493l-4 -25h-34q-35 -20 -59 -40q-30 -25 -45 -47q-24 -35 -25 -72q0 -57 55 -66q31 -6 71 4q8 2 13 4l-3 -24l-8 -4q-47 -12 -84 -4q-18 5 -20 6q-42 16 -48 62q-5 40 15 78q10 22 38 52q28 28 66 50h-449l123 699h517z
" />
    <glyph glyph-name="eogonek" unicode="&#x119;" horiz-adv-x="654" 
d="M602 334q7 -44 -3 -95l-2 -4h-131h-131h-130h-131q-3 -13 -3 -26q0 -55 24 -97q36 -67 114 -92q50 -17 109 -9q119 16 198 110q1 0 21 -9q-28 -42 -87 -77.5t-108 -43.5q-1 0 -7 -2q-24 -13 -48 -32q-25 -21 -45 -48q-24 -34 -24 -72q0 -55 55 -66q30 -6 70 4q5 2 13 4
l-2 -24l-9 -3q-43 -13 -83 -4q-9 1 -20 5q-44 17 -48 63q-4 40 14 77q13 26 39 52q21 21 48 40q-27 -2 -49 1q-88 10 -143 66q-42 44 -53 106q-16 86 27 171q67 129 210 170q50 15 113 10q77 -6 130 -50q58 -47 72 -125zM577 260l1 4q5 26 0 53q-15 97 -102 144
q-35 18 -79 23q-42 6 -88 -4q-81 -18 -142 -73q-62 -56 -85 -131l-3 -16h498z" />
    <glyph glyph-name="Ecaron" unicode="&#x11a;" horiz-adv-x="673" 
d="M662 674h-494l-55 -314h440l-4 -25h-441l-54 -310h493l-4 -25h-518l123 699h518zM266 911v5h34l122 -145h2l173 145h37v-5l-203 -163h-23z" />
    <glyph glyph-name="ecaron" unicode="&#x11b;" horiz-adv-x="654" 
d="M609 235q25 102 -34 183t-163 91q-100 7 -187 -42t-135 -138q-43 -82 -28 -171q12 -70 66 -115.5t130 -56.5q43 -5 97 5t109 44t86 77l-20 10q-86 -92 -200 -111q-58 -8 -109 9q-71 26 -109.5 83t-25.5 132h523zM588 260h-498q24 103 116.5 167.5t202.5 57.5
q47 -7 79 -24q55 -31 82.5 -84t17.5 -117zM248 707v5h34l122 -145h2l173 145h37v-5l-203 -163h-23z" />
    <glyph glyph-name="Gbreve" unicode="&#x11e;" horiz-adv-x="820" 
d="M406 344l3 21h346l-65 -365h-18l16 123h-3q-43 -65 -116 -100.5t-158 -38.5q-156 -7 -254 81q-74 67 -91 168q-16 94 22 191q42 107 137 183.5t213 96.5q48 8 107 5q134 -11 226 -103l-22 -19q-68 74 -165 92q-107 20 -214 -18q-103 -38 -179.5 -118.5t-97.5 -184.5
q-20 -104 24.5 -196t147.5 -132q60 -23 123 -23q110 0 195 52.5t118 154.5q8 25 16 71q1 7 4.5 27t5.5 32h-321zM710 926h24q-5 -52 -53 -102q-48 -49 -116 -63q-54 -11 -99 7q-75 29 -89 109q-3 16 -1 49h24q-10 -98 71 -133q19 -8 32 -10q65 -10 121 22.5t78 88.5
q7 17 8 32z" />
    <glyph glyph-name="gbreve" unicode="&#x11f;" 
d="M615 495h19q-8 -46 -42 -240q-24 -138 -34 -190q-13 -68 -36 -121q-25 -59 -67 -101q-49 -46 -119 -65q-50 -13 -94 -13l-18 -1q-18 0 -18 1q-48 0 -107 17q-50 15 -79 30q-10 4 -22 13q-2 1 -6 5q8 12 16 22l2 -1l2 -1q35 -26 92 -43q69 -22 135 -19q71 3 119 21
q70 27 113 88q27 40 46 100q10 32 21 91q6 36 10 56h-2q-47 -69 -120.5 -114.5t-153.5 -45.5q-83 -2 -149.5 46t-82.5 130q-14 76 20 152q32 74 100 126.5t150 66.5q72 12 126 -8q97 -33 141 -139h3q5 21 17 67t18 70zM552 206q23 57 10 115q-19 87 -99 135q-72 43 -161 23
q-76 -16 -138.5 -67.5t-88.5 -123.5q-22 -64 -11 -116q15 -74 73 -118t137 -46q58 -4 119 29t107 84q35 40 52 85zM584 722h24q-5 -52 -53 -102q-48 -49 -116 -63q-54 -11 -99 7q-75 29 -89 109q-3 16 -1 49h24q-10 -98 71 -133q19 -8 32 -10q65 -10 121 22.5t78 88.5
q7 17 8 32z" />
    <glyph glyph-name="Idotaccent" unicode="&#x130;" horiz-adv-x="187" 
d="M44 0h-24l123 699h24zM185 907q11 0 17 -7.5t5 -18.5q-2 -11 -10.5 -19.5t-19.5 -8.5q-11 -1 -18.5 6.5t-6.5 18.5q1 12 11 20.5t22 8.5z" />
    <glyph glyph-name="dotlessi" unicode="&#x131;" horiz-adv-x="302" 
d="M52 591h218l-78 -437h-23l74 413h-195z" />
    <glyph glyph-name="Lacute" unicode="&#x139;" horiz-adv-x="559" 
d="M69 25h414l-4 -25h-438l123 699h24zM371 957l-159 -168h-28l149 168h38z" />
    <glyph glyph-name="lacute" unicode="&#x13a;" horiz-adv-x="179" 
d="M174 699l-123 -699h-24l121 690zM342 922l-159 -168h-28l149 168h38z" />
    <glyph glyph-name="Lcaron" unicode="&#x13d;" horiz-adv-x="548" 
d="M68 25h414l-4 -25h-438l123 699h24zM380 495l123 201h-38l-104 -201h19z" />
    <glyph glyph-name="lcaron" unicode="&#x13e;" horiz-adv-x="273" 
d="M176 699l-123 -699h-24l121 690zM339 699l-123 -201h-19l104 201h38z" />
    <glyph glyph-name="Lslash" unicode="&#x141;" 
d="M597 490l-387 -155l-54 -310h413l-4 -25h-438l57 324l-123 -49l4 24l123 50l62 350h24l-60 -340l387 155z" />
    <glyph glyph-name="lslash" unicode="&#x142;" horiz-adv-x="468" 
d="M432 514l-4 -25l-224 -88l-71 -401h-24l69 391l-135 -53l4 24l135 53l50 284h24l-48 -274z" />
    <glyph glyph-name="Nacute" unicode="&#x143;" horiz-adv-x="757" 
d="M706 699h23l-123 -699h-17l-438 645h-3l-113 -645h-25l122 699h15l440 -647h3zM610 957l-159 -168h-28l149 168h38z" />
    <glyph glyph-name="nacute" unicode="&#x144;" horiz-adv-x="689" 
d="M491 489q71 -28 103.5 -96.5t16.5 -147.5q-4 -21 -21.5 -123t-20.5 -122h-24l43 253q11 69 -19 129.5t-96 85.5q-36 14 -78 16q-92 5 -170 -43.5t-116 -124.5q-18 -34 -26 -80l-40 -236h-25l88 495h19l-21 -144h4q38 62 102 105t136 50q79 10 145 -17zM588 753l-159 -168
h-28l149 168h38z" />
    <glyph glyph-name="Ncaron" unicode="&#x147;" horiz-adv-x="758" 
d="M706 699h23l-123 -699h-17l-438 645h-3l-113 -645h-25l122 699h15l440 -647h3zM273 911v5h34l122 -145h2l173 145h37v-5l-203 -163h-23z" />
    <glyph glyph-name="ncaron" unicode="&#x148;" horiz-adv-x="689" 
d="M491 489q71 -28 103.5 -96.5t16.5 -147.5q-4 -21 -21.5 -123t-20.5 -122h-24l43 253q11 69 -19 129.5t-96 85.5q-36 14 -78 16q-92 5 -170 -43.5t-116 -124.5q-18 -34 -26 -80l-40 -236h-25l88 495h19l-21 -144h4q38 62 102 105t136 50q79 10 145 -17zM242 721v5h34
l122 -145h2l173 145h37v-5l-203 -163h-23z" />
    <glyph glyph-name="Ohungarumlaut" unicode="&#x150;" horiz-adv-x="871" 
d="M386 -18q-121 2 -211.5 66.5t-113.5 177.5q-10 51 -2 109q22 140 130 245q142 130 332 130q101 0 186 -55q85 -62 115 -154.5t2 -192.5q-39 -129 -143 -217q-91 -76 -213 -101q-44 -8 -82 -8zM506 685q-79 0 -157.5 -31.5t-138.5 -86.5q-82 -76 -112 -172
q-26 -79 -12 -155q21 -101 97 -163.5t178 -68.5q87 -6 169.5 24t148.5 89q112 101 132 243q8 91 -30 167t-115 117q-70 39 -160 37zM498 789h-28l149 168h38zM605 789h-28l149 168h38z" />
    <glyph glyph-name="ohungarumlaut" unicode="&#x151;" horiz-adv-x="650" 
d="M277 -15q-66 0 -115 23q-100 48 -117 159q-10 61 14 126q37 97 122 157t185 60q66 2 114 -23q82 -42 109 -125t-4 -161q-40 -99 -121.5 -157.5t-186.5 -58.5zM280 9q94 0 169 53.5t112 143.5q30 79 1 153t-104 108q-112 40 -220.5 -13t-153.5 -160q-24 -63 -13 -123
q18 -96 106 -140q45 -22 103 -22zM353 585h-28l149 168h38zM460 585h-28l149 168h38z" />
    <glyph glyph-name="OE" unicode="&#x152;" horiz-adv-x="999" 
d="M963 674h-372l-55 -313h317l-3 -26h-318l-55 -310h370l-3 -25h-464q-85 2 -148 20q-33 11 -55 22q-83 44 -102 133q-8 33 -8 76q3 108 41 213q17 49 50 94q55 75 150 108q48 17 104 25q57 8 130 8h424zM453 25l114 649q-103 0 -154 -7q-60 -8 -109 -26
q-103 -41 -153 -135q-19 -37 -29 -70q-23 -72 -29 -146q-5 -54 5 -101q20 -87 97 -126q17 -9 32 -14q43 -15 119 -21q50 -3 107 -3z" />
    <glyph glyph-name="oe" unicode="&#x153;" horiz-adv-x="1162" 
d="M1122 348q12 -45 -1 -112h-526q-1 -5 -3 -7q-5 -51 11 -92q34 -92 130 -121q76 -23 160 4q77 26 136 88l22 -11q-73 -80 -171 -105q-75 -20 -148 -2q-79 18 -126 81q-33 43 -37 91h-6q-27 -49 -62 -84q-79 -76 -184 -92q-79 -13 -146 13q-102 38 -129 140q-12 41 -7 86
q9 85 63 155t137 105q79 32 160 23q69 -6 118 -44q64 -47 80 -132h7q12 24 40.5 57.5t46.5 47.5q76 61 168 71q74 8 135 -14q106 -41 132 -146zM328 11q108 24 179 109q54 63 63 143q8 83 -39 143q-54 71 -154 79q-70 6 -135 -23q-114 -51 -162 -160q-28 -60 -19 -124
q15 -105 110 -150q44 -22 104 -22q23 0 53 5zM1101 259q3 42 -2 67q-19 95 -109 138q-69 33 -152 17q-96 -17 -168 -91q-53 -57 -70 -122q-1 -3 -1 -9h502z" />
    <glyph glyph-name="Racute" unicode="&#x154;" horiz-adv-x="724" 
d="M471 699q95 0 149.5 -50.5t42.5 -144.5q-7 -46 -20 -79q-43 -102 -152 -131q-21 -6 -44 -8l84 -286h-29l-83 285h-299l-50 -285h-22l121 699h302zM634 479q19 84 -23 139.5t-136 55.5h-286q-50 -283 -64 -364h298q31 0 66 8q89 21 128 106q10 21 17 55zM609 957
l-159 -168h-28l149 168h38z" />
    <glyph glyph-name="racute" unicode="&#x155;" horiz-adv-x="454" 
d="M50 0h-24q77 433 88 495h18l-19 -146h1q64 103 134 135q58 27 124 22q30 -1 62 -16l-5 -28q-37 21 -90 20q-95 -3 -169 -85q-61 -69 -76 -153q-18 -102 -44 -244zM452 753l-159 -168h-28l149 168h38z" />
    <glyph glyph-name="Rcaron" unicode="&#x158;" horiz-adv-x="712" 
d="M471 699q95 0 149.5 -50.5t42.5 -144.5q-7 -46 -20 -79q-43 -102 -152 -131q-21 -6 -44 -8l84 -286h-29l-83 285h-299l-50 -285h-22l121 699h302zM634 479q19 84 -23 139.5t-136 55.5h-286q-50 -283 -64 -364h298q31 0 66 8q89 21 128 106q10 21 17 55zM261 911v5h34
l122 -145h2l173 145h37v-5l-203 -163h-23z" />
    <glyph glyph-name="rcaron" unicode="&#x159;" horiz-adv-x="444" 
d="M25 0h24q26 142 44 244q15 84 76 153q74 82 169 85q53 1 90 -20l5 28q-32 15 -62 16q-66 5 -124 -22q-70 -32 -134 -135h-1l19 146h-18q-11 -62 -88 -495zM91 707v5h34l122 -145h2l173 145h37v-5l-203 -163h-23z" />
    <glyph glyph-name="Sacute" unicode="&#x15a;" horiz-adv-x="675" 
d="M2 89l19 18q106 -95 268 -95q133 0 207 44t78 152q-1 30 -15 54t-35 39t-52.5 27t-58.5 18t-61 12q-10 2 -36 6t-39 6.5t-36.5 8t-36.5 10.5t-32 12.5t-29.5 16.5t-21 21t-15 27.5t-4.5 33.5q1 60 26.5 103.5t69.5 67t95.5 34t113.5 10.5q130 -3 223 -75l-21 -18
q-92 69 -210 69q-258 0 -272 -184q0 -26 14 -46.5t27.5 -31t47.5 -20.5t46 -12t51 -8l18 -3q51 -7 91 -17t84.5 -29.5t69 -53.5t24.5 -80q-13 -220 -340 -220q-167 9 -258 103zM603 957l-159 -168h-28l149 168h38z" />
    <glyph glyph-name="sacute" unicode="&#x15b;" horiz-adv-x="549" 
d="M12 58l17 18q75 -78 245 -65q59 4 107.5 29.5t61.5 74.5q13 60 -56 93q-26 13 -76 26q-84 22 -126 34q-45 13 -75.5 38.5t-27.5 64.5q4 44 39 75.5t78.5 45.5t91.5 17q32 1 61 0q91 -8 157 -63l-17 -18q-47 41 -108 52q-80 14 -156 -5q-50 -11 -83.5 -39.5t-36.5 -63.5
q0 -12 4 -22.5t9 -17.5t16 -14.5t17 -11.5t21 -9t20 -6.5t21 -6t18 -4.5q72 -18 109 -28q29 -7 58 -21q35 -16 55 -43.5t14 -62.5q-26 -140 -251 -140q-57 0 -122 20t-85 53zM504 753l-159 -168h-28l149 168h38z" />
    <glyph glyph-name="Scaron" unicode="&#x160;" horiz-adv-x="691" 
d="M21 107l-19 -18q91 -94 258 -103q327 0 340 220q0 46 -24.5 80t-69 53.5t-84.5 29.5t-91 17q-99 15 -131 28q-72 31 -73 93q14 184 272 184q118 0 210 -69l21 18q-93 72 -223 75q-62 0 -113.5 -10.5t-95.5 -34t-69.5 -67t-26.5 -103.5q0 -18 4.5 -33.5t15 -27.5t21 -21
t29.5 -16.5t32 -12.5t36.5 -10.5t36.5 -8t39 -6.5t36 -6q34 -6 61 -12t58.5 -18t52.5 -27t35 -39t15 -54q-4 -108 -78 -152t-207 -44q-162 0 -268 95zM251 924v5h34l122 -145h2l173 145h37v-5l-203 -163h-23z" />
    <glyph glyph-name="scaron" unicode="&#x161;" horiz-adv-x="536" 
d="M29 76l-17 -18q20 -33 85 -53t122 -20q225 0 251 140q6 35 -14 62.5t-55 43.5q-29 14 -58 21q-37 10 -109 28q-2 0 -18 4.5t-21 6t-20 6.5t-21 9t-17 11.5t-16 14.5t-9 17.5t-4 22.5q3 35 36.5 63.5t83.5 39.5q76 19 156 5q61 -11 108 -52l17 18q-66 55 -157 63
q-29 1 -61 0q-48 -3 -91.5 -17t-78.5 -45.5t-39 -75.5q-3 -39 27.5 -64.5t75.5 -38.5q42 -12 126 -34q50 -13 76 -26q69 -33 56 -93q-13 -49 -61.5 -74.5t-107.5 -29.5q-170 -13 -245 65zM181 717v5h34l122 -145h2l173 145h37v-5l-203 -163h-23z" />
    <glyph glyph-name="Tcaron" unicode="&#x164;" horiz-adv-x="625" 
d="M76 699h584l-3 -25h-281l-119 -674h-24l119 674h-280zM228 911v5h34l122 -145h2l173 145h37v-5l-203 -163h-23z" />
    <glyph glyph-name="tcaron" unicode="&#x165;" horiz-adv-x="375" 
d="M210 471l-84 -471h-26l85 471h-114l4 24h114l29 167l25 7l-30 -174h136l-4 -24h-135zM408 774l-123 -201h-19l104 201h38z" />
    <glyph glyph-name="Uring" unicode="&#x16e;" horiz-adv-x="797" 
d="M747 699h24l-68 -376q-21 -112 -80 -192q-76 -105 -198 -136q-43 -11 -87 -12q-41 0 -61 3q-78 10 -130 52q-48 38 -70 103q-11 32 -14 75q-5 54 9 130l63 353h25l-56 -310q-2 -16 -11 -64q-12 -72 -1 -130q9 -58 41 -101q40 -54 105 -74q36 -12 81 -14q68 -2 130 19
q103 37 163 129q43 63 60 139q2 9 16 80zM502 1012q35 -2 59 -13q65 -31 65 -99q0 -60 -34 -102.5t-84 -58t-101 -2.5q-62 17 -77 81q-8 38 4 73q22 59 67 90t101 31zM498 989q-50 0 -89 -28.5t-55 -75.5q-8 -29 -4 -53q9 -48 52 -67.5t94 -7.5q44 13 74 46.5t34 76.5
q5 50 -24 79.5t-82 29.5z" />
    <glyph glyph-name="uring" unicode="&#x16f;" horiz-adv-x="667" 
d="M56 157q-7 40 2 93q7 40 42 245h25l-44 -253q-8 -53 5 -99q25 -85 111 -117q30 -13 77 -16q90 -5 157 42t106 126q19 38 25 80q4 19 21 118.5t20 118.5h25l-87 -495h-19l20 143h-4q-26 -43 -50.5 -70.5t-60.5 -47.5q-57 -32 -103 -37q-80 -10 -145 17q-103 42 -123 152z
M431 840q36 -2 60 -13q67 -33 67 -105q0 -95 -71.5 -144t-152.5 -28q-63 17 -79 85q-8 40 4 78q23 62 68.5 94.5t103.5 32.5zM427 816q-51 0 -91 -30t-57 -80q-8 -30 -4 -56q10 -51 53.5 -71.5t96.5 -7.5q45 14 75.5 49t34.5 81q5 53 -24.5 84t-83.5 31z" />
    <glyph glyph-name="Uhungarumlaut" unicode="&#x170;" horiz-adv-x="796" 
d="M747 699h24l-68 -376q-21 -112 -80 -192q-76 -105 -198 -136q-43 -11 -87 -12q-41 0 -61 3q-78 10 -130 52q-48 38 -70 103q-11 32 -14 75q-5 54 9 130l63 353h25l-56 -310q-2 -16 -11 -64q-12 -72 -1 -130q9 -58 41 -101q40 -54 105 -74q36 -12 81 -14q68 -2 130 19
q103 37 163 129q43 63 60 139q2 9 16 80zM432 789h-28l149 168h38zM539 789h-28l149 168h38z" />
    <glyph glyph-name="uhungarumlaut" unicode="&#x171;" horiz-adv-x="667" 
d="M56 157q-7 40 2 93q7 40 42 245h25l-44 -253q-8 -53 5 -99q25 -85 111 -117q30 -13 77 -16q90 -5 157 42t106 126q19 38 25 80q4 19 21 118.5t20 118.5h25l-87 -495h-19l20 143h-4q-26 -43 -50.5 -70.5t-60.5 -47.5q-57 -32 -103 -37q-80 -10 -145 17q-103 42 -123 152z
M333 585h-28l149 168h38zM440 585h-28l149 168h38z" />
    <glyph glyph-name="Ydieresis" unicode="&#x178;" horiz-adv-x="627" 
d="M628 699h32l-354 -413l-51 -286h-24l51 285l-212 414h31q33 -64 98.5 -192.5t98.5 -191.5h4q218 258 326 384zM286 907q11 0 17 -7.5t5 -18.5q-2 -11 -10.5 -19.5t-19.5 -8.5q-11 -1 -18.5 6.5t-6.5 18.5q1 12 11 20.5t22 8.5zM494 907q11 0 17 -7.5t5 -18.5
q-2 -11 -10.5 -19.5t-19.5 -8.5q-11 -1 -18.5 6.5t-6.5 18.5q1 12 11 20.5t22 8.5z" />
    <glyph glyph-name="Zacute" unicode="&#x179;" horiz-adv-x="705" 
d="M691 699l-6 -27l-615 -645l3 -3h509l-5 -24h-545l4 22l615 648v4h-496l4 25h532zM609 957l-159 -168h-28l149 168h38z" />
    <glyph glyph-name="zacute" unicode="&#x17a;" horiz-adv-x="587" 
d="M563 471q-97 -83 -275 -235.5t-243 -208.5v-3h454l-5 -24h-489l4 24l514 444l1 3h-428l3 24h466zM525 753l-159 -168h-28l149 168h38z" />
    <glyph glyph-name="Zdotaccent" unicode="&#x17b;" horiz-adv-x="712" 
d="M691 699l-6 -27l-615 -645l3 -3h509l-5 -24h-545l4 22l615 648v4h-496l4 25h532zM463 907q11 0 17 -7.5t5 -18.5q-2 -11 -10.5 -19.5t-19.5 -8.5q-11 -1 -18.5 6.5t-6.5 18.5q1 12 11 20.5t22 8.5z" />
    <glyph glyph-name="zdotaccent" unicode="&#x17c;" horiz-adv-x="593" 
d="M563 471q-97 -83 -275 -235.5t-243 -208.5v-3h454l-5 -24h-489l4 24l514 444l1 3h-428l3 24h466zM377 703q11 0 17 -7.5t5 -18.5q-2 -11 -10.5 -19.5t-19.5 -8.5q-11 -1 -18.5 6.5t-6.5 18.5q1 12 11 20.5t22 8.5z" />
    <glyph glyph-name="Zcaron" unicode="&#x17d;" horiz-adv-x="688" 
d="M679 699l-6 -27l-615 -645l3 -3h509l-5 -24h-545l4 22l615 648v4h-153h-189.5h-153.5l4 25h532zM263 911v5h34l122 -145h2l173 145h37v-5l-203 -163h-23z" />
    <glyph glyph-name="zcaron" unicode="&#x17e;" horiz-adv-x="587" 
d="M563 471q-97 -83 -275 -235.5t-243 -208.5v-3h454l-5 -24h-489l4 24l514 444l1 3h-428l3 24h466zM186 707v5h34l122 -145h2l173 145h37v-5l-203 -163h-23z" />
    <glyph glyph-name="florin" unicode="&#x192;" horiz-adv-x="367" 
d="M306 708q29 12 85 12l-4 -23q-47 0 -70 -8q-33 -11 -55 -39t-31 -54t-18 -69l-3 -12h144l-2 -23h-145l-98 -550q-9 -46 -21 -73q-2 -6 -3 -8q-34 -79 -118 -100q-15 -3 -17 -3l3 26q3 0 7 1t7 2q52 10 82 56q17 28 27 61q7 22 15 68l92 520h-85l3 23h86l5 23
q28 136 114 170z" />
    <glyph glyph-name="Scommaaccent" unicode="&#x218;" horiz-adv-x="661" 
d="M311 -78l-123 -201h-19l104 201h38zM2 89l19 18q106 -95 268 -95q133 0 207 44t78 152q-1 30 -15 54t-35 39t-52.5 27t-58.5 18t-61 12q-10 2 -36 6t-39 6.5t-36.5 8t-36.5 10.5t-32 12.5t-29.5 16.5t-21 21t-15 27.5t-4.5 33.5q1 60 26.5 103.5t69.5 67t95.5 34
t113.5 10.5q130 -3 223 -75l-21 -18q-92 69 -210 69q-258 0 -272 -184q0 -26 14 -46.5t27.5 -31t47.5 -20.5t46 -12t51 -8l18 -3q51 -7 91 -17t84.5 -29.5t69 -53.5t24.5 -80q-13 -220 -340 -220q-167 9 -258 103z" />
    <glyph glyph-name="scommaaccent" unicode="&#x219;" horiz-adv-x="538" 
d="M251 -78l-123 -201h-19l104 201h38zM12 58l17 18q75 -78 245 -65q59 4 107.5 29.5t61.5 74.5q13 60 -56 93q-26 13 -76 26q-84 22 -126 34q-45 13 -75.5 38.5t-27.5 64.5q4 44 39 75.5t78.5 45.5t91.5 17q32 1 61 0q91 -8 157 -63l-17 -18q-47 41 -108 52q-80 14 -156 -5
q-50 -11 -83.5 -39.5t-36.5 -63.5q0 -12 4 -22.5t9 -17.5t16 -14.5t17 -11.5t21 -9t20 -6.5t21 -6t18 -4.5q72 -18 109 -28q29 -7 58 -21q35 -16 55 -43.5t14 -62.5q-26 -140 -251 -140q-57 0 -122 20t-85 53z" />
    <glyph glyph-name="circumflex" unicode="&#x2c6;" horiz-adv-x="429" 
d="M395 565v-5h-34l-122 148h-2l-173 -148h-37v5l203 165h23z" />
    <glyph glyph-name="caron" unicode="&#x2c7;" horiz-adv-x="426" 
d="M35 707v5h34l122 -145h2l173 145h37v-5l-203 -163h-23z" />
    <glyph glyph-name="breve" unicode="&#x2d8;" horiz-adv-x="420" 
d="M369 722h24q-5 -52 -53 -102q-48 -49 -116 -63q-54 -11 -99 7q-75 29 -89 109q-3 16 -1 49h24q-10 -98 71 -133q19 -8 32 -10q65 -10 121 22.5t78 88.5q7 17 8 32z" />
    <glyph glyph-name="dotaccent" unicode="&#x2d9;" horiz-adv-x="151" 
d="M82 703q11 0 17 -7.5t5 -18.5q-2 -11 -10.5 -19.5t-19.5 -8.5q-11 -1 -18.5 6.5t-6.5 18.5q1 12 11 20.5t22 8.5z" />
    <glyph glyph-name="ring" unicode="&#x2da;" horiz-adv-x="363" 
d="M206 713q35 -2 59 -13q65 -31 65 -99q0 -60 -34 -102.5t-84 -58t-101 -2.5q-62 17 -77 81q-8 38 4 73q22 59 67 90t101 31zM202 690q-50 0 -89 -28.5t-55 -75.5q-8 -29 -4 -53q9 -48 52 -67.5t94 -7.5q44 13 74 46.5t34 76.5q5 50 -24 79.5t-82 29.5z" />
    <glyph glyph-name="ogonek" unicode="&#x2db;" horiz-adv-x="240" 
d="M88 -224q34 -5 70 4q2 0 6.5 2t6.5 2l-2 -24q-62 -18 -113 -2q-42 13 -47 63q-4 40 14 77q15 29 39 52q39 39 95 68l19 -10q-41 -20 -74 -47q-25 -19 -45 -47q-24 -34 -24 -72q0 -55 55 -66z" />
    <glyph glyph-name="tilde" unicode="&#x2dc;" horiz-adv-x="447" 
d="M389 688q2 1 6 4t7 5l-3 -25l-5 -5q-46 -31 -88 -36q-31 -4 -65 7l-42 15q-23 8 -38 10q-26 6 -53 -2q-23 -6 -56 -24q-1 -1 -13 -8l2 25q2 1 11 7q33 18 64 25q43 9 86 -5q9 -3 41 -14q21 -8 41 -11q28 -4 55 6q27 9 50 26z" />
    <glyph glyph-name="hungarumlaut" unicode="&#x2dd;" horiz-adv-x="280" 
d="M71 585h-28l149 168h38zM178 585h-28l149 168h38z" />
    <glyph glyph-name="endash" unicode="&#x2013;" horiz-adv-x="470" 
d="M416 312l-4 -24h-361l4 24h361z" />
    <glyph glyph-name="emdash" unicode="&#x2014;" horiz-adv-x="620" 
d="M568 312l-4 -24h-513l4 24h513z" />
    <glyph glyph-name="quoteleft" unicode="&#x2018;" horiz-adv-x="160" 
d="M46 498l123 201h19l-104 -201h-38z" />
    <glyph glyph-name="quoteright" unicode="&#x2019;" horiz-adv-x="163" 
d="M209 699l-123 -201h-19l104 201h38z" />
    <glyph glyph-name="quotesinglbase" unicode="&#x201a;" horiz-adv-x="158" 
d="M143 89l-123 -201h-19l104 201h38z" />
    <glyph glyph-name="quotedblleft" unicode="&#x201c;" horiz-adv-x="262" 
d="M153 498l123 201h19l-104 -201h-38zM46 498l123 201h19l-104 -201h-38z" />
    <glyph glyph-name="quotedblright" unicode="&#x201d;" horiz-adv-x="287" 
d="M209 699l-123 -201h-19l104 201h38zM316 699l-123 -201h-19l104 201h38z" />
    <glyph glyph-name="quotedblbase" unicode="&#x201e;" horiz-adv-x="272" 
d="M-40 -112h-19l104 201h38zM67 -112h-19l104 201h38z" />
    <glyph glyph-name="dagger" unicode="&#x2020;" horiz-adv-x="431" 
d="M400 487l-4 -24h-166l-105 -584h-22l102 584h-164l4 24h164l36 202h26l-36 -202h165z" />
    <glyph glyph-name="daggerdbl" unicode="&#x2021;" horiz-adv-x="435" 
d="M396 462h-157l-63 -353h158l-4 -24h-158l-38 -207h-22l36 207h-152l4 24h152l62 353h-152l4 24h152l36 202h26l-36 -202h156z" />
    <glyph glyph-name="bullet" unicode="&#x2022;" horiz-adv-x="258" 
d="M143 356q15 0 23.5 -10.5t6.5 -25.5t-13.5 -26.5t-27.5 -11.5q-15 -1 -25 9t-9 25q2 16 15.5 28t29.5 12z" />
    <glyph glyph-name="ellipsis" unicode="&#x2026;" horiz-adv-x="417" 
d="M53 52q11 0 17 -7.5t5 -18.5q-2 -11 -10.5 -19.5t-19.5 -8.5q-11 -1 -18.5 6.5t-6.5 18.5q1 12 11 20.5t22 8.5zM185 52q11 0 17 -7.5t5 -18.5q-2 -11 -10.5 -19.5t-19.5 -8.5q-11 -1 -18.5 6.5t-6.5 18.5q1 12 11 20.5t22 8.5zM313 52q11 0 17 -7.5t5 -18.5
q-2 -11 -10.5 -19.5t-19.5 -8.5q-11 -1 -18.5 6.5t-6.5 18.5q1 12 11 20.5t22 8.5z" />
    <glyph glyph-name="perthousand" unicode="&#x2030;" horiz-adv-x="1317" 
d="M248 713q52 0 87 -24q72 -47 63 -136q-8 -75 -72 -129q-67 -56 -149 -53q-48 3 -85 29q-48 37 -55 95q-6 58 21 106q68 112 190 112zM239 686q-81 0 -142 -72q-30 -38 -34 -78q-9 -74 50 -115q34 -25 86 -23q60 3 108 43q57 46 64 110q9 66 -46 109q-33 24 -86 26z
M724 716l-574 -734h-31l574 734h31zM655 323q52 0 87 -24q72 -47 63 -136q-8 -75 -72 -129q-67 -56 -149 -53q-48 3 -85 29q-48 37 -55 95q-6 58 21 106q68 112 190 112zM646 296q-81 0 -142 -72q-30 -38 -34 -78q-9 -74 50 -115q34 -25 86 -23q60 3 108 43q57 46 64 110
q9 66 -46 109q-33 24 -86 26zM1104 323q52 0 87 -24q72 -47 63 -136q-8 -75 -72 -129q-67 -56 -149 -53q-48 3 -85 29q-48 37 -55 95q-6 58 21 106q68 112 190 112zM1095 296q-81 0 -142 -72q-30 -38 -34 -78q-9 -74 50 -115q34 -25 86 -23q60 3 108 43q57 46 64 110
q9 66 -46 109q-33 24 -86 26z" />
    <glyph glyph-name="guilsinglleft" unicode="&#x2039;" horiz-adv-x="286" 
d="M266 477l-188 -202l116 -206h-33l-116 205h-1l190 203h32z" />
    <glyph glyph-name="guilsinglright" unicode="&#x203a;" horiz-adv-x="298" 
d="M30 69l188 202l-116 206h33l116 -205h1l-190 -203h-32z" />
    <glyph glyph-name="fraction" unicode="&#x2044;" horiz-adv-x="299" 
d="M365 772l-387 -863h-23l384 863h26z" />
    <glyph glyph-name="Euro" unicode="&#x20ac;" horiz-adv-x="735" 
d="M213 494q-5 -8 -14 -24.5t-14 -24.5l-5 -10h401l-3 -24h-408l-2 -6q-18 -53 -19 -103v-13h406l-3 -25h-400l1 -15q23 -129 134 -194q58 -37 136 -43q94 -8 191 29l14 -20q-63 -25 -130 -33q-50 -5 -94 1q-133 16 -214 111q-47 57 -61 137q0 3 -2 13l-2 14h-73l5 25h69v15
q1 47 17 95l3 12h-68l2 24h74q2 3 5 9q65 141 204 214q81 44 170 53q97 11 179 -20q24 -9 47 -22l-18 -21q-69 41 -162 41q-104 2 -204.5 -51t-161.5 -144z" />
    <glyph glyph-name="trademark" unicode="&#x2122;" horiz-adv-x="939" 
d="M419 699l-3 -22h-167q-40 -215 -75 -413h-24l74 413h-167l2 22h360zM861 698h23q-31 -182 -77 -434h-23l69 391h-3l-208 -242h-18l-122 243h-3l-70 -392h-24l79 434h23l129 -259h2z" />
    <glyph glyph-name="minus" unicode="&#x2212;" horiz-adv-x="504" 
d="M460 312l-4 -24h-405l4 24h405z" />
    <glyph glyph-name="fi" unicode="&#xfb01;" horiz-adv-x="486" 
d="M191 495h249l-89 -499h-24l84 475h-225l-83 -471h-24l83 471h-86l5 24h85l15 81q14 66 60 100t119 29q14 -2 21 -4l-5 -24q-46 12 -87 -2q-69 -22 -84 -102zM462 700q-12 0 -22 -8.5t-11 -20.5q-1 -11 6.5 -18.5t18.5 -6.5q11 0 19.5 8.5t10.5 19.5q1 11 -5 18.5t-17 7.5
z" />
    <glyph glyph-name="fl" unicode="&#xfb02;" horiz-adv-x="538" 
d="M349 706q41 0 79.5 -4t57.5 -8l18 -4q-7 -39 -122 -690h-23l116 670q-55 12 -126 12q-26 0 -45 -5q-44 -12 -67 -51q-13 -24 -20 -57l-13 -73h153l-4 -24h-154l-83 -472h-23l82 472h-90l4 24h91l13 73q7 34 20 60q32 60 102 74q18 3 34 3z" />
    <glyph glyph-name="CR" horiz-adv-x="249" 
 />
    <glyph glyph-name="OO" horiz-adv-x="588" 
d="M301 239q-106 0 -177 68t-71 169q0 100 71.5 168.5t176.5 68.5q106 0 176.5 -68.5t70.5 -168.5q0 -99 -70.5 -168t-176.5 -69zM301 691q-94 0 -160 -63t-66 -152t65.5 -152t160.5 -63q96 0 161 64t65 151q0 89 -66 152t-160 63z" />
    </font>
</defs>
</svg>
