<?xml version="1.0" standalone="no"?>
<!DOCTYPE svg PUBLIC "-//W3C//DTD SVG 1.1//EN" "http://www.w3.org/Graphics/SVG/1.1/DTD/svg11.dtd" >
<svg xmlns="http://www.w3.org/2000/svg" xmlns:xlink="http://www.w3.org/1999/xlink" version="1.1">
<metadata>
Created by FontForge 20170731 at Thu Oct 19 14:11:15 2017
 By Aleksey,,,
Copyright (c) 2017 by Jan-Christian Bruun. All rights reserved.
</metadata>
<defs>
<font id="ArkibalDisplay-Bold" horiz-adv-x="670" >
  <font-face 
    font-family="Arkibal Display Rg"
    font-weight="700"
    font-stretch="normal"
    units-per-em="1000"
    panose-1="2 0 5 4 0 0 0 2 0 4"
    ascent="750"
    descent="-250"
    x-height="495"
    cap-height="699"
    bbox="-125 -304 1291 1071"
    underline-thickness="50"
    underline-position="-200"
    unicode-range="U+0020-FB02"
  />
<missing-glyph horiz-adv-x="249" 
 />
    <glyph glyph-name=".notdef" horiz-adv-x="249" 
 />
    <glyph glyph-name=".null" horiz-adv-x="0" 
 />
    <glyph glyph-name="nonmarkingreturn" horiz-adv-x="333" 
 />
    <glyph glyph-name="space" unicode=" " horiz-adv-x="313" 
 />
    <glyph glyph-name="exclam" unicode="!" horiz-adv-x="319" 
d="M210 251h-120l-21 465h161zM149 -7q-33 0 -56 23t-23 56t23 56.5t56 23.5t56.5 -23.5t23.5 -56.5t-23.5 -56t-56.5 -23z" />
    <glyph glyph-name="quotedbl" unicode="&#x22;" horiz-adv-x="393" 
d="M49 442v257h96v-257h-96zM207 699h96v-257h-96v257z" />
    <glyph glyph-name="numbersign" unicode="#" horiz-adv-x="842" 
d="M811 397h-169l-20 -94h154v-128h-181l-40 -182h-138l41 182h-131l-39 -182h-139l41 182h-139v128h168l21 94h-154v128h183l40 182h133l-39 -182h133l41 182h132l-39 -182h141v-128zM486 303l22 94h-133l-20 -94h131z" />
    <glyph glyph-name="dollar" unicode="$" horiz-adv-x="673" 
d="M647 211q0 -95 -70.5 -155.5t-199.5 -70.5v-95h-71v94q-86 2 -161 28t-117 75l96 100q30 -32 80.5 -51.5t101.5 -23.5v188q-139 20 -196.5 66t-57.5 139q0 89 67.5 144t186.5 64v95h71v-94q146 -7 247 -91l-101 -98q-50 50 -146 60v-166q145 -21 207.5 -68t62.5 -140z
M195 511q0 -27 23 -47.5t88 -33.5v155q-111 -9 -111 -74zM377 113q126 11 126 89q0 36 -28.5 56.5t-97.5 31.5v-177z" />
    <glyph glyph-name="percent" unicode="%" horiz-adv-x="916" 
d="M620 714l74 -40l-420 -689l-70 38zM391 546q0 -71 -52.5 -121t-125.5 -50t-125.5 50t-52.5 121q0 70 52 120t126 50t126 -50t52 -120zM125 546q0 -33 26.5 -57t61.5 -24t61.5 23t26.5 58q0 34 -26.5 57t-61.5 23q-34 0 -60 -22.5t-28 -57.5zM706 326q74 0 126 -50
t52 -120q0 -71 -52.5 -121t-125.5 -50t-125.5 50t-52.5 121q0 70 52 120t126 50zM706 75q34 0 61 23.5t27 57.5q0 33 -26.5 56.5t-61.5 23.5q-34 0 -61 -22.5t-27 -57.5q0 -34 26.5 -57.5t61.5 -23.5z" />
    <glyph glyph-name="ampersand" unicode="&#x26;" horiz-adv-x="768" 
d="M625 139l121 -139h-189l-38 42q-24 -19 -75 -36.5t-106 -17.5q-145 0 -221.5 61t-76.5 166q0 151 149 198v2q-42 52 -42 108q0 90 62 140t186 50q29 0 58.5 -5.5t43.5 -9.5t17 -6l-1 -129q-49 23 -112 23q-46 0 -64.5 -16t-18.5 -52q0 -28 39 -72l171 -197q6 32 6 85h143
q0 -66 -11.5 -111t-40.5 -84zM332 116q23 0 53 9t46 19l-152 174q-95 -21 -95 -101q0 -101 148 -101z" />
    <glyph glyph-name="quotesingle" unicode="'" horiz-adv-x="201" 
d="M49 442v257h96v-257h-96z" />
    <glyph glyph-name="parenleft" unicode="(" horiz-adv-x="430" 
d="M248 -185q-7 9 -18 24.5t-40 66.5t-51.5 104t-40.5 132t-18 155t17 155t41.5 136.5t49 104t41.5 70.5l17 24h146q-7 -9 -18 -25.5t-40 -69t-51.5 -106.5t-40.5 -132.5t-18 -152.5t19.5 -151t47 -134.5t54.5 -104.5t47 -71l19 -25h-163z" />
    <glyph glyph-name="parenright" unicode=")" horiz-adv-x="384" 
d="M184 -185h-163q8 9 20.5 25.5t44.5 69t57 106.5t45 132.5t20 152.5t-17.5 151.5t-42 135t-49 104t-41.5 70.5l-18 25h146q7 -9 18 -25t39.5 -68.5t50.5 -106.5t40 -134t18 -156t-17.5 -153.5t-42 -134t-49 -102t-41.5 -69.5z" />
    <glyph glyph-name="asterisk" unicode="*" horiz-adv-x="488" 
d="M460 509l-142 -31l95 -111l-97 -72l-75 127l-76 -127l-97 72l96 111l-143 31l38 116l135 -59l-14 146h121l-12 -146l135 59z" />
    <glyph glyph-name="plus" unicode="+" horiz-adv-x="554" 
d="M518 408v-128h-177v-177h-127v177h-177v128h177v176h127v-176h177z" />
    <glyph glyph-name="comma" unicode="," horiz-adv-x="201" 
d="M27 -82l45 254h143l-89 -254h-99z" />
    <glyph glyph-name="hyphen" unicode="-" horiz-adv-x="390" 
d="M79 227v128h264v-128h-264z" />
    <glyph glyph-name="period" unicode="." horiz-adv-x="237" 
d="M115 -7q-33 0 -56 23t-23 56t23 56.5t56 23.5t56.5 -23.5t23.5 -56.5t-23.5 -56t-56.5 -23z" />
    <glyph glyph-name="slash" unicode="/" horiz-adv-x="425" 
d="M2 -194l260 970h113l-261 -970h-112z" />
    <glyph glyph-name="zero" unicode="0" horiz-adv-x="729" 
d="M368 713q148 0 231.5 -102.5t83.5 -260.5q0 -163 -85 -266t-233 -103t-231.5 102.5t-83.5 260.5q0 168 86 268.5t232 100.5zM368 109q171 0 171 236q0 240 -174 240q-85 0 -128.5 -61t-43.5 -175q0 -240 175 -240z" />
    <glyph glyph-name="one" unicode="1" horiz-adv-x="530" 
d="M335 127h146v-127h-436v127h146v430l-146 -31v129l214 44h76v-572z" />
    <glyph glyph-name="two" unicode="2" horiz-adv-x="590" 
d="M263 127h290v-127h-492v125q209 158 279.5 224.5t70.5 124.5q0 108 -131 108q-61 0 -103.5 -15.5t-92.5 -55.5l-57 119q114 80 248 80q138 0 208 -58.5t70 -164.5q0 -97 -64 -174.5t-226 -182.5v-3z" />
    <glyph glyph-name="three" unicode="3" horiz-adv-x="606" 
d="M326 407q220 -17 220 -197q0 -118 -72.5 -172.5t-237.5 -54.5q-134 0 -203 36l25 129q72 -37 178 -37q92 0 129 25t37 76q0 28 -17.5 48t-74.5 34.5t-153 14.5l-14 92l195 169v1h-300v128h477v-129l-189 -161v-2z" />
    <glyph glyph-name="four" unicode="4" horiz-adv-x="627" 
d="M593 257v-128h-78v-129h-143v129h-332v129l250 441h155l-255 -439v-3h182v121h143v-121h78z" />
    <glyph glyph-name="five" unicode="5" horiz-adv-x="611" 
d="M338 434q107 0 169.5 -52.5t62.5 -157.5q0 -107 -74.5 -174.5t-204.5 -67.5q-69 0 -130 15t-87 31l-27 15l33 120q103 -54 191 -54q155 0 155 103q0 98 -154 98q-97 0 -178 -33l-15 7v415h454v-128h-310v-158l2 -2q52 23 113 23z" />
    <glyph glyph-name="six" unicode="6" horiz-adv-x="658" 
d="M598 222q0 -114 -69 -176.5t-199 -62.5q-153 0 -221.5 83.5t-68.5 271.5q0 194 77 284.5t242 90.5q130 0 209 -67l-66 -108q-56 47 -143 47q-97 0 -137 -47.5t-40 -154.5v-5h2q16 38 65.5 59t109.5 21q110 0 174.5 -59.5t64.5 -176.5zM324 331q-65 0 -100.5 -31
t-35.5 -79q0 -53 33.5 -81.5t97.5 -28.5q72 0 103.5 27t31.5 83q0 51 -32.5 80.5t-97.5 29.5z" />
    <glyph glyph-name="seven" unicode="7" horiz-adv-x="573" 
d="M41 699h499v-116l-194 -583h-155l204 566v5h-354v128z" />
    <glyph glyph-name="eight" unicode="8" horiz-adv-x="693" 
d="M529 377v-2q48 -14 81 -57.5t33 -106.5q0 -228 -296 -228q-158 0 -227.5 55.5t-69.5 166.5q0 53 29.5 91.5t81.5 47.5v1q-53 19 -74 52.5t-21 107.5q0 102 75 155.5t205 53.5t202 -54t72 -147q0 -111 -91 -136zM337 423l52 -10q39 9 63 33t24 54q0 86 -130 86
q-76 0 -106.5 -21.5t-30.5 -60.5q0 -34 25 -49t103 -32zM347 294q-31 7 -54 9q-51 -12 -75.5 -33t-24.5 -57q0 -103 154 -103q151 0 151 97q0 31 -34 51t-117 36z" />
    <glyph glyph-name="nine" unicode="9" horiz-adv-x="658" 
d="M50 473q0 114 69 176.5t199 62.5q153 0 221.5 -83.5t68.5 -271.5q0 -194 -77 -284.5t-242 -90.5q-60 0 -124 15t-106 40l55 114q65 -41 175 -41q97 0 136.5 47t39.5 155v5h-2q-17 -38 -66 -59t-108 -21q-110 0 -174.5 59.5t-64.5 176.5zM324 364q65 0 100.5 31t35.5 80
q0 53 -33.5 81t-97.5 28q-72 0 -103.5 -27t-31.5 -82q0 -51 32 -81t98 -30z" />
    <glyph glyph-name="colon" unicode=":" horiz-adv-x="230" 
d="M109 -7q-33 0 -56 23t-23 56t23 56.5t56 23.5t56.5 -23.5t23.5 -56.5t-23.5 -56t-56.5 -23zM109 343q-33 0 -56 23t-23 56t23 56.5t56 23.5t56.5 -23.5t23.5 -56.5t-23.5 -56t-56.5 -23z" />
    <glyph glyph-name="semicolon" unicode=";" horiz-adv-x="277" 
d="M19 -82l45 254h143l-89 -254h-99zM141 343q-33 0 -56 23t-23 56t23 56.5t56 23.5t56.5 -23.5t23.5 -56.5t-23.5 -56t-56.5 -23z" />
    <glyph glyph-name="less" unicode="&#x3c;" horiz-adv-x="588" 
d="M544 253v-138l-499 158v143l499 161v-138l-353 -92v-2z" />
    <glyph glyph-name="equal" unicode="=" horiz-adv-x="540" 
d="M67 472h405v-128h-405v128zM67 127v128h405v-128h-405z" />
    <glyph glyph-name="greater" unicode="&#x3e;" horiz-adv-x="558" 
d="M34 253l353 92v2l-353 92v138l499 -161v-143l-499 -158v138z" />
    <glyph glyph-name="question" unicode="?" horiz-adv-x="519" 
d="M245 712q129 0 194 -58t65 -155q0 -41 -11 -74.5t-29 -55t-39 -37.5t-42.5 -24.5t-39.5 -13.5t-29 -6l-11 -1v-73h-143v173q36 0 67 2q63 5 98 31t35 73q0 91 -148 91q-47 0 -89 -13t-61 -27l-19 -13v135q8 5 23 12.5t67.5 20.5t111.5 13zM230 -7q-33 0 -56 23t-23 56
t23 56.5t56 23.5t56.5 -23.5t23.5 -56.5t-23.5 -56t-56.5 -23z" />
    <glyph glyph-name="at" unicode="@" horiz-adv-x="997" 
d="M647 459h97v-273q0 -37 31 -37q90 0 90 169q0 123 -77.5 203.5t-225.5 80.5q-180 0 -274 -86.5t-94 -240.5q0 -153 93 -238.5t273 -85.5q54 0 106 7.5t77 15.5l25 8v-130q-77 -29 -205 -29q-239 0 -376 123t-137 329q0 202 141 328.5t373 126.5q201 0 323 -120.5
t122 -288.5q0 -146 -57.5 -209t-178.5 -63q-55 0 -90.5 23t-41.5 41h-2q-41 -65 -128 -65q-101 0 -156.5 55.5t-55.5 150.5q0 97 58.5 156.5t154.5 59.5q78 0 109 -52h2zM531 157q49 0 74.5 25.5t25.5 73.5q0 47 -27 76.5t-73 29.5q-47 0 -75 -26t-28 -80q0 -47 26.5 -73
t76.5 -26z" />
    <glyph glyph-name="A" unicode="A" horiz-adv-x="761" 
d="M595 0l-53 135h-324l-53 -135h-155l283 699h174l283 -699h-155zM266 256h227l-112 290h-2z" />
    <glyph glyph-name="B" unicode="B" horiz-adv-x="770" 
d="M609 356v-1q48 -13 79.5 -53.5t31.5 -100.5q0 -94 -67 -147.5t-177 -53.5h-396v699h380q117 0 180.5 -53t63.5 -150q0 -49 -25.5 -86.5t-69.5 -53.5zM223 571v-161h224q61 0 87 19t26 60q0 82 -113 82h-224zM463 127q62 0 87.5 18.5t25.5 59.5q0 43 -26 63.5t-87 20.5
h-240v-162h240z" />
    <glyph glyph-name="C" unicode="C" horiz-adv-x="775" 
d="M624 193l109 -78q-110 -131 -300 -131q-167 0 -275.5 105t-108.5 259q0 158 108.5 262t274.5 104q191 0 300 -130l-108 -80q-65 83 -192 83q-113 0 -176 -64t-63 -174q-1 -106 63.5 -171.5t176.5 -65.5q126 0 191 81z" />
    <glyph glyph-name="D" unicode="D" horiz-adv-x="822" 
d="M80 699h298q201 0 293 -82.5t92 -266.5q0 -182 -93.5 -266t-291.5 -84h-298v699zM378 128q138 0 189.5 53t51.5 169q0 121 -51 171t-190 50h-155v-443h155z" />
    <glyph glyph-name="E" unicode="E" horiz-adv-x="671" 
d="M608 571h-403v-155h359v-122h-359v-166h403v-128h-547v699h547v-128z" />
    <glyph glyph-name="F" unicode="F" horiz-adv-x="649" 
d="M627 571h-403v-155h359v-122h-359v-294h-144v699h547v-128z" />
    <glyph glyph-name="G" unicode="G" horiz-adv-x="837" 
d="M418 407h346v-407h-112l-35 65h-2q-25 -38 -76.5 -59t-117.5 -21q-163 0 -267.5 102t-104.5 261t109 263t274 104q189 0 301 -130l-109 -80q-65 82 -192 82q-113 0 -176 -64t-63 -174q0 -106 64.5 -171t175.5 -65q89 0 136 40.5t51 138.5h-202v115z" />
    <glyph glyph-name="H" unicode="H" horiz-adv-x="807" 
d="M582 699h144v-699h-144v286h-358v-286h-144v699h144v-286h358v286z" />
    <glyph glyph-name="I" unicode="I" horiz-adv-x="335" 
d="M80 699h143v-699h-143v699z" />
    <glyph glyph-name="J" unicode="J" horiz-adv-x="626" 
d="M179 699h367v-389q0 -155 -78.5 -240.5t-225.5 -85.5q-151 0 -232 81l96 96q43 -49 136 -49q86 0 123 46t37 153v260h-223v128z" />
    <glyph glyph-name="K" unicode="K" horiz-adv-x="763" 
d="M440 400l279 -400h-176l-196 297l-124 -133v-164h-143v699h143v-346l306 346h179z" />
    <glyph glyph-name="L" unicode="L" horiz-adv-x="627" 
d="M71 0v699h144v-571h377v-128h-521z" />
    <glyph glyph-name="M" unicode="M" horiz-adv-x="877" 
d="M644 699h157v-699h-144v445h-3l-209 -373h-8l-210 373h-3v-445h-144v699h167l192 -377h3z" />
    <glyph glyph-name="N" unicode="N" horiz-adv-x="805" 
d="M581 699h144v-699h-147l-352 487h-2v-487h-144v699h148l350 -483h3v483z" />
    <glyph glyph-name="O" unicode="O" horiz-adv-x="867" 
d="M433 714q168 0 276 -104t108 -263q0 -155 -107 -259t-276 -104q-167 0 -275.5 105t-108.5 259q0 158 108.5 262t274.5 104zM434 112q112 0 175.5 64t63.5 172t-63.5 173.5t-176.5 65.5t-176 -64t-63 -174q0 -106 64.5 -171.5t175.5 -65.5z" />
    <glyph glyph-name="P" unicode="P" horiz-adv-x="688" 
d="M80 699h342q117 0 186.5 -63.5t69.5 -171.5q0 -113 -68 -174.5t-188 -61.5h-199v-228h-143v699zM422 355q49 0 80.5 28t31.5 81q0 107 -112 107h-199v-216h199z" />
    <glyph glyph-name="Q" unicode="Q" horiz-adv-x="873" 
d="M677 345q2 108 -61 174.5t-176 67.5q-113 2 -177 -61t-66 -173q-2 -107 61.5 -173t174.5 -67q111 -2 176.5 61t67.5 171zM442 715q168 -3 274.5 -109.5t103.5 -264.5q-1 -112 -62 -200t-165 -128l86 -173h-162l-62 146q-12 -1 -24 -1q-167 3 -273.5 109t-104.5 260
q3 159 113.5 261t275.5 100z" />
    <glyph glyph-name="R" unicode="R" horiz-adv-x="727" 
d="M678 464q0 -168 -144 -219l146 -245h-152l-128 228h-177v-228h-143v699h342q117 0 186.5 -63.5t69.5 -171.5zM223 571v-216h199q49 0 80.5 28t31.5 81q0 107 -112 107h-199z" />
    <glyph glyph-name="S" unicode="S" horiz-adv-x="719" 
d="M384 422q153 -20 219 -67.5t66 -142.5q0 -105 -84 -166.5t-236 -61.5q-91 0 -172.5 26t-126.5 78l97 100q33 -35 91 -55.5t111 -20.5q176 0 176 91q0 40 -36 61t-124 32l-28 4q-144 20 -203.5 66t-59.5 140q0 97 79.5 153t218.5 56q164 0 274 -91l-100 -98
q-30 29 -80.5 45.5t-93.5 16.5q-154 0 -154 -76q0 -30 28 -52t109 -34z" />
    <glyph glyph-name="T" unicode="T" horiz-adv-x="666" 
d="M33 699h595v-127h-225v-572h-144v572h-226v127z" />
    <glyph glyph-name="U" unicode="U" horiz-adv-x="800" 
d="M576 699h144v-365q0 -157 -84 -253t-236 -96q-153 0 -236.5 96t-83.5 253v365h143v-365q0 -111 46 -166t131 -55q81 0 128.5 55.5t47.5 165.5v365z" />
    <glyph glyph-name="V" unicode="V" horiz-adv-x="767" 
d="M595 699h155l-283 -699h-174l-283 699h155l161 -415l53 -149h2l53 149z" />
    <glyph glyph-name="W" unicode="W" horiz-adv-x="1066" 
d="M896 699h160l-233 -699h-159l-130 439h-2l-141 -439h-157l-224 699h160l108 -415l39 -149h2l43 149l105 415h132l105 -415l43 -149h2l39 149z" />
    <glyph glyph-name="X" unicode="X" horiz-adv-x="701" 
d="M509 0l-167 255h-3l-165 -255h-164l232 353v5l-224 341h168l153 -239h3l153 239h168l-227 -342v-4l235 -353h-162z" />
    <glyph glyph-name="Y" unicode="Y" horiz-adv-x="705" 
d="M528 699h167l-272 -454v-245h-143v246l-270 453h166l176 -312h2z" />
    <glyph glyph-name="Z" unicode="Z" horiz-adv-x="649" 
d="M244 130v-2h355v-128h-549v118l354 450v3h-354v128h548v-115z" />
    <glyph glyph-name="bracketleft" unicode="[" horiz-adv-x="421" 
d="M97 787h277v-128h-133v-717h133v-128h-277v973z" />
    <glyph glyph-name="backslash" unicode="\" horiz-adv-x="404" 
d="M375 -194h-112l-261 970h113z" />
    <glyph glyph-name="bracketright" unicode="]" horiz-adv-x="396" 
d="M318 787v-973h-277v128h133v717h-133v128h277z" />
    <glyph glyph-name="asciicircum" unicode="^" horiz-adv-x="583" 
d="M408 292l-115 261h-3l-114 -261h-144l189 407h142l188 -407h-143z" />
    <glyph glyph-name="underscore" unicode="_" horiz-adv-x="540" 
d="M31 -128v128h466v-128h-466z" />
    <glyph glyph-name="grave" unicode="`" horiz-adv-x="201" 
d="M201 750l125 -172h-146l-181 172h202z" />
    <glyph glyph-name="a" unicode="a" horiz-adv-x="661" 
d="M320 512q135 0 203 -67.5t68 -186.5v-258h-120l-27 65h-2q-25 -42 -69.5 -61t-89.5 -19q-102 0 -159.5 41.5t-57.5 116.5q0 76 55.5 109.5t187.5 33.5q30 0 64.5 -2t54.5 -4l19 -1q0 46 -32 75.5t-95 29.5q-84 0 -128 -55l-124 57q39 60 106 93t146 33zM312 100
q60 0 97.5 23.5t37.5 71.5q-60 6 -127 6q-64 0 -86.5 -11t-22.5 -37q0 -27 22 -40t79 -13z" />
    <glyph glyph-name="b" unicode="b" horiz-adv-x="671" 
d="M379 511q111 0 176 -75t65 -188q0 -115 -62 -189t-179 -74q-113 0 -164 80h-1l-23 -65h-121v666l144 33v-267h2q49 79 163 79zM345 113q64 0 98 38.5t34 96.5t-35 96.5t-97 38.5q-59 0 -95 -39.5t-36 -95.5t36.5 -95.5t94.5 -39.5z" />
    <glyph glyph-name="c" unicode="c" horiz-adv-x="589" 
d="M435 169l125 -59q-37 -57 -99 -91t-135 -34q-114 0 -195 77t-81 186t81 186.5t195 77.5q71 0 132 -32t98 -87l-119 -65q-36 56 -111 56q-60 0 -96 -39.5t-36 -93.5q0 -63 34.5 -100.5t97.5 -37.5q72 0 109 56z" />
    <glyph glyph-name="d" unicode="d" horiz-adv-x="669" 
d="M291 511q114 0 163 -79h2v233l144 34v-699h-121l-23 65h-1q-51 -80 -164 -80q-117 0 -179 74t-62 189q0 113 65 188t176 75zM325 113q58 0 94.5 39.5t36.5 95.5t-36 95.5t-95 39.5q-62 0 -97 -38.5t-35 -96.5t34 -96.5t98 -38.5z" />
    <glyph glyph-name="e" unicode="e" horiz-adv-x="629" 
d="M588 238v-36h-398q25 -90 126 -90q72 0 109 56l125 -60q-38 -57 -99.5 -90.5t-134.5 -33.5q-114 0 -195 77t-81 186t81 186.5t195 77.5q120 0 196 -77.5t76 -195.5zM190 292h252q-11 41 -43 66t-83 25q-48 0 -80.5 -25.5t-45.5 -65.5z" />
    <glyph glyph-name="f" unicode="f" horiz-adv-x="386" 
d="M324 582q-86 0 -86 -69v-18h103v-128h-104v-367h-143v367h-64v128h65v18q0 102 47.5 149.5t161.5 47.5q35 0 67 -8v-125q-22 5 -47 5z" />
    <glyph glyph-name="g" unicode="g" horiz-adv-x="663" 
d="M281 -236q-68 0 -121.5 11t-73.5 23l-19 11l39 132q8 -5 22.5 -13.5t60.5 -22t92 -13.5q104 0 139 34t35 122v16h-2q-50 -79 -162 -79q-117 0 -179 73.5t-62 188.5q0 113 65.5 188t175.5 75q109 0 160 -79h1l28 64h120v-447q0 -151 -77.5 -217.5t-241.5 -66.5zM325 112
q58 0 94.5 39.5t36.5 95.5t-36 96t-95 40q-62 0 -96.5 -38.5t-34.5 -97.5q0 -58 34 -96.5t97 -38.5z" />
    <glyph glyph-name="h" unicode="h" horiz-adv-x="690" 
d="M384 511q235 0 235 -261v-250h-142v238q0 145 -125 145q-63 0 -100.5 -38t-37.5 -107v-238h-144v666l144 33l-1 -268h2q45 80 169 80z" />
    <glyph glyph-name="i" unicode="i" horiz-adv-x="283" 
d="M70 0v495h144v-495h-144zM142 555q-33 0 -56 23t-23 56t23 56.5t56 23.5t56.5 -23.5t23.5 -56.5t-23.5 -56t-56.5 -23z" />
    <glyph glyph-name="j" unicode="j" horiz-adv-x="287" 
d="M70 -229v724h144v-688zM142 555q-33 0 -56 23t-23 56t23 56.5t56 23.5t56.5 -23.5t23.5 -56.5t-23.5 -56t-56.5 -23z" />
    <glyph glyph-name="k" unicode="k" horiz-adv-x="618" 
d="M374 303l217 -303h-157l-154 213l-66 -63v-150h-144v664l144 35v-395l190 191h172z" />
    <glyph glyph-name="l" unicode="l" horiz-adv-x="290" 
d="M70 666l143 33v-699h-143v666z" />
    <glyph glyph-name="m" unicode="m" horiz-adv-x="993" 
d="M710 511q209 0 209 -261v-250h-144v238q0 73 -22 109t-79 36q-108 0 -108 -145v-238h-144v238q0 73 -22.5 109t-79.5 36q-107 0 -107 -145v-238h-143v495h108l19 -64h2q40 80 150 80q124 0 177 -88h2q44 88 182 88z" />
    <glyph glyph-name="n" unicode="n" horiz-adv-x="689" 
d="M384 511q235 0 235 -261v-250h-142v238q0 145 -126 145q-62 0 -99.5 -38t-37.5 -107v-238h-144v495h121l22 -64h2q45 80 169 80z" />
    <glyph glyph-name="o" unicode="o" horiz-adv-x="651" 
d="M601 247q0 -103 -78 -183t-197 -80q-114 0 -195 77t-81 186t81 186.5t195 77.5t194.5 -77.5t80.5 -186.5zM326 384q-60 0 -96 -39.5t-36 -94.5q0 -63 34.5 -100.5t97.5 -37.5q58 0 94.5 38t36.5 100q0 56 -34 95t-97 39z" />
    <glyph glyph-name="p" unicode="p" horiz-adv-x="671" 
d="M620 247q0 -112 -65.5 -187.5t-175.5 -75.5q-114 0 -163 79h-2v-226l-144 -41v699h120l24 -65h1q51 80 164 80q117 0 179 -74t62 -189zM477 247q0 58 -34 96.5t-98 38.5q-58 0 -94.5 -39.5t-36.5 -95.5t36 -95.5t95 -39.5q62 0 97 38.5t35 96.5z" />
    <glyph glyph-name="q" unicode="q" horiz-adv-x="671" 
d="M50 247q0 115 62 189t179 74q113 0 164 -80h1l24 65h120v-659l-144 -40v267h-2q-49 -79 -163 -79q-110 0 -175.5 75.5t-65.5 187.5zM193 247q0 -58 35 -96.5t97 -38.5q59 0 95 39.5t36 95.5t-36.5 95.5t-94.5 39.5q-64 0 -98 -38.5t-34 -96.5z" />
    <glyph glyph-name="r" unicode="r" horiz-adv-x="446" 
d="M419 501v-152q-38 25 -88 25q-117 0 -117 -137v-237h-144v495h122l22 -64h2q23 41 54.5 60.5t89.5 19.5q31 0 59 -10z" />
    <glyph glyph-name="s" unicode="s" horiz-adv-x="560" 
d="M333 297q98 -21 139.5 -53t41.5 -93q0 -72 -58 -118t-178 -46q-69 0 -143.5 32.5t-103.5 74.5l109 74q19 -22 58.5 -37.5t85.5 -15.5q86 0 86 39q0 16 -18 25.5t-66 18.5l-48 9q-93 17 -132 51t-39 92q0 74 63 118.5t161 44.5q61 0 117.5 -25t96.5 -73l-110 -74
q-45 46 -114 46q-36 0 -53 -10t-17 -22q0 -31 70 -46z" />
    <glyph glyph-name="t" unicode="t" horiz-adv-x="421" 
d="M281 0h-143v367h-98v128h97v143l143 31v-174h104v-128h-103v-367z" />
    <glyph glyph-name="u" unicode="u" 
d="M292 -16q-234 0 -234 262v249h141v-237q0 -145 126 -145q62 0 100 38t38 107v237h144v-495h-122l-22 65h-2q-45 -81 -169 -81z" />
    <glyph glyph-name="v" unicode="v" horiz-adv-x="597" 
d="M437 495h155l-206 -495h-174l-207 495h155l85 -211l53 -149h2l53 149z" />
    <glyph glyph-name="w" unicode="w" horiz-adv-x="836" 
d="M676 495h155l-187 -495h-159l-66 237h-3l-65 -237h-159l-187 495h155l68 -211l44 -149h2l42 149l61 211h81l62 -211l41 -149h2l44 149z" />
    <glyph glyph-name="x" unicode="x" horiz-adv-x="600" 
d="M420 0l-118 160h-3l-118 -160h-176l199 251v3l-191 241h175l111 -149h3l111 149h175l-192 -241v-3l199 -251h-175z" />
    <glyph glyph-name="y" unicode="y" horiz-adv-x="632" 
d="M447 495h160l-298 -711h-146l86 205l-244 506h165l85 -211l57 -132h2l49 132z" />
    <glyph glyph-name="z" unicode="z" horiz-adv-x="587" 
d="M268 128h269v-128h-487v117l262 248v2h-256v128h472v-118l-260 -247v-2z" />
    <glyph glyph-name="braceleft" unicode="{" horiz-adv-x="514" 
d="M300 7q0 -63 25 -84t110 -21v-128q-158 0 -218 47t-60 150v141q0 60 -26 92t-67 32h-18v128h18q42 0 67.5 29.5t25.5 87.5v120q0 115 67 165.5t211 50.5v-127q-84 0 -109.5 -20t-25.5 -79v-134q0 -132 -98 -156v-4q98 -28 98 -155v-135z" />
    <glyph glyph-name="bar" unicode="|" horiz-adv-x="335" 
d="M80 729h143v-972h-143v972z" />
    <glyph glyph-name="braceright" unicode="}" horiz-adv-x="467" 
d="M158 7v135q0 127 98 155v4q-98 24 -98 156v134q0 59 -25.5 79t-109.5 20v127q144 0 211 -50.5t67 -165.5v-120q0 -58 25.5 -87.5t67.5 -29.5h18v-128h-18q-41 0 -67 -32t-26 -92v-141q0 -103 -60 -150t-218 -47v128q85 0 110 21t25 84z" />
    <glyph glyph-name="asciitilde" unicode="~" horiz-adv-x="467" 
d="M350 241q-38 0 -93.5 17.5t-86.5 17.5q-25 0 -51.5 -10t-40.5 -20l-15 -9v108q52 46 114 46q38 0 93.5 -17.5t86.5 -17.5q25 0 51.5 10t41.5 20l14 9v-108q-52 -46 -114 -46z" />
    <glyph glyph-name="exclamdown" unicode="&#xa1;" horiz-adv-x="254" 
d="M177 222h-116l-20 -367h155zM119 281q-33 0 -56 21t-23 50q0 30 23 51.5t56 21.5t56.5 -21.5t23.5 -51.5q0 -29 -23.5 -50t-56.5 -21z" />
    <glyph glyph-name="cent" unicode="&#xa2;" horiz-adv-x="579" 
d="M553 113q-34 -53 -89 -86t-120 -38v-88h-57v88q-103 11 -174 86t-71 175q0 101 71 176.5t174 86.5v87h57v-87q130 -11 204 -117l-119 -66q-28 46 -85 55v-268q54 9 83 54zM186 253q0 -54 26.5 -90t74.5 -45v265q-47 -9 -74 -46t-27 -84z" />
    <glyph glyph-name="sterling" unicode="&#xa3;" horiz-adv-x="640" 
d="M278 128h345v-128h-565v129q6 1 15.5 3.5t33.5 12.5t43 22.5t34 35t15 49.5q0 24 -4 42h-101v127h59q-15 47 -15 84q0 103 82 156.5t228 53.5q39 0 76 -6.5t54 -13.5l18 -7v-133q-67 32 -149 32q-85 0 -125.5 -22.5t-40.5 -74.5q0 -38 13 -69h233v-127h-189q5 -15 5 -41
q0 -39 -20 -73.5t-45 -49.5v-2z" />
    <glyph glyph-name="currency" unicode="&#xa4;" horiz-adv-x="540" 
d="M486 254l-98 -98l-58 59q-31 -11 -63 -11t-62 11l-59 -59l-98 98l56 53q-15 31 -15 68q0 35 14 66l-55 54l98 99l58 -60q30 11 63 11t64 -11l57 60l98 -99l-55 -54q14 -31 14 -66q0 -36 -14 -67zM267 311q28 0 47 19t19 45t-19 44.5t-47 18.5t-47 -18.5t-19 -44.5t19 -45
t47 -19z" />
    <glyph glyph-name="yen" unicode="&#xa5;" horiz-adv-x="750" 
d="M719 699l-238 -397h138v-59h-172v-58h172v-58h-172v-127h-144v127h-169v58h169v58h-169v59h136l-236 397h166l176 -313h2l174 313h167z" />
    <glyph glyph-name="brokenbar" unicode="&#xa6;" horiz-adv-x="341" 
d="M80 729h143v-428h-143v428zM80 -241v429h143v-429h-143z" />
    <glyph glyph-name="section" unicode="&#xa7;" horiz-adv-x="689" 
d="M566 59q73 -49 73 -143q0 -104 -81 -161t-234 -57q-48 0 -93 7t-75 17t-53 20.5t-33 17.5l-11 7l41 121q10 -7 28.5 -17.5t77 -28t118.5 -17.5q94 0 132.5 19t38.5 63q0 39 -36 60t-124 32l-28 4q-144 20 -203.5 66t-59.5 141q0 88 69 142v1q-69 46 -69 148
q0 97 79.5 153t218.5 56q70 0 136 -17t98 -35l31 -17l-41 -123q-13 7 -34.5 17.5t-81 28.5t-108.5 18q-154 0 -154 -76q0 -30 28 -52t109 -34l29 -4q153 -20 219 -67t66 -142q0 -94 -73 -145v-3zM363 124q67 -9 99.5 12t32.5 62q0 40 -33.5 60.5t-120.5 31.5l-8 1
q-78 7 -111.5 -16t-33.5 -60q0 -30 28 -52t109 -34q14 -2 38 -5z" />
    <glyph glyph-name="dieresis" unicode="&#xa8;" horiz-adv-x="439" 
d="M108 581q-33 0 -56 23t-23 56t23 56.5t56 23.5t56.5 -23.5t23.5 -56.5t-23.5 -56t-56.5 -23zM329 581q-33 0 -56 23t-23 56t23 56.5t56 23.5t56.5 -23.5t23.5 -56.5t-23.5 -56t-56.5 -23z" />
    <glyph glyph-name="copyright" unicode="&#xa9;" horiz-adv-x="857" 
d="M426 459q-52 0 -82.5 -32.5t-30.5 -83.5q0 -50 30.5 -82t82.5 -32q48 0 80 30l71 -50q-59 -61 -151 -61q-86 0 -146.5 56.5t-60.5 138.5t60.5 140t146.5 58q98 0 158 -73l-71 -50q-30 41 -87 41zM424 704q170 0 270.5 -97.5t101.5 -259.5q0 -163 -103 -263.5t-272 -100.5
t-269.5 98t-101.5 261q0 163 102 262.5t272 99.5zM424 69q126 0 199 77t73 198q0 122 -74 198.5t-201 76.5q-125 0 -198 -77t-73 -199q0 -121 74 -197.5t200 -76.5z" />
    <glyph glyph-name="ordfeminine" unicode="&#xaa;" horiz-adv-x="474" 
d="M228 711q95 0 143 -48t48 -132l-1 -181h-84l-19 46h-1q-18 -29 -49.5 -43t-62.5 -14q-72 0 -112.5 29.5t-40.5 82.5t39 76.5t132 23.5l97 -5q0 33 -22.5 54t-66.5 21q-58 0 -91 -39l-87 40q28 42 75 65.5t103 23.5zM222 421q42 0 68.5 16.5t26.5 49.5q-42 5 -89 5
q-45 0 -61 -8t-16 -26q0 -19 15.5 -28t55.5 -9z" />
    <glyph glyph-name="guillemotleft" unicode="&#xab;" horiz-adv-x="496" 
d="M316 495l-120 -229l116 -231h-146l-114 231l118 229h146zM570 495l-120 -229l116 -231h-146l-114 231l119 229h145z" />
    <glyph glyph-name="logicalnot" unicode="&#xac;" horiz-adv-x="577" 
d="M45 436h482v-260h-139v132h-343v128z" />
    <glyph glyph-name="registered" unicode="&#xae;" horiz-adv-x="857" 
d="M610 410q0 -84 -74 -114l66 -140h-102l-61 129h-88v-129h-95v379h221q60 0 96.5 -34t36.5 -91zM470 367q19 0 31.5 11.5t12.5 31.5t-12.5 31.5t-31.5 11.5h-119v-86h119zM426 708q170 0 271 -98.5t102 -261.5q0 -164 -102.5 -265t-273.5 -101q-170 0 -271 98.5
t-102 262.5q0 164 102.5 264.5t273.5 100.5zM426 68q126 0 200 77.5t74 199.5q0 123 -74.5 199.5t-201.5 76.5t-200.5 -77t-73.5 -200q0 -122 74.5 -199t201.5 -77z" />
    <glyph glyph-name="degree" unicode="&#xb0;" horiz-adv-x="363" 
d="M213 706q73 0 125.5 -50t52.5 -121q0 -70 -52 -120t-126 -50t-126 50t-52 120q0 71 52.5 121t125.5 50zM213 450q36 0 61 25.5t25 60.5t-25 60t-61 25q-35 0 -60 -25t-25 -60t25 -60.5t60 -25.5z" />
    <glyph glyph-name="plusminus" unicode="&#xb1;" horiz-adv-x="594" 
d="M66 24v128h480v-128h-480zM370 522h176v-127h-176v-177h-128v177h-177v127h177v177h128v-177z" />
    <glyph glyph-name="twosuperior" unicode="&#xb2;" horiz-adv-x="301" 
d="M176 466v-2h99v-74h-219v79q132 86 132 131q0 37 -39 37q-36 0 -61 -35l-55 60q55 50 125 50q53 0 85 -29t32 -77q0 -43 -21.5 -73t-77.5 -67z" />
    <glyph glyph-name="threesuperior" unicode="&#xb3;" horiz-adv-x="290" 
d="M188 571q76 -14 76 -87q0 -55 -33.5 -80.5t-106.5 -25.5q-53 0 -95 18l-10 4l33 69q33 -18 72 -18q55 0 55 30q0 36 -88 36h-9l-8 51l64 55v2h-99v74h212l-1 -68l-62 -58v-2z" />
    <glyph glyph-name="acute" unicode="&#xb4;" horiz-adv-x="198" 
d="M-1 578l125 172h202l-181 -172h-146z" />
    <glyph glyph-name="mu" unicode="&#xb5;" horiz-adv-x="673" 
d="M610 245q0 -261 -234 -261q-124 0 -169 80h-2v-238l-144 -30v699h144v-238q0 -69 38 -106.5t100 -37.5q126 0 126 144v238h141v-250z" />
    <glyph glyph-name="paragraph" unicode="&#xb6;" horiz-adv-x="554" 
d="M505 699v-88h-63v-611h-94v611h-64v-611h-95v376q-64 2 -104.5 50t-40.5 113q0 69 46 114.5t114 45.5h301z" />
    <glyph glyph-name="periodcentered" unicode="&#xb7;" horiz-adv-x="308" 
d="M149 221q-33 0 -56 23t-23 56t23 56.5t56 23.5t56.5 -23.5t23.5 -56.5t-23.5 -56t-56.5 -23z" />
    <glyph glyph-name="cedilla" unicode="&#xb8;" horiz-adv-x="331" 
d="M180 -43q60 0 93.5 -29t33.5 -87q0 -66 -43.5 -103t-121.5 -37q-24 0 -52 8t-44 16l-15 8v101q48 -37 111 -37q41 0 54.5 10t13.5 32q0 37 -70 37h-63l2 153h101v-72z" />
    <glyph glyph-name="onesuperior" unicode="&#xb9;" horiz-adv-x="285" 
d="M183 699v-240h59v-74h-204v74h60v159l-60 -14v75l92 20h53z" />
    <glyph glyph-name="ordmasculine" unicode="&#xba;" horiz-adv-x="475" 
d="M233 336q-80 0 -137.5 54.5t-57.5 131.5t57.5 131.5t137.5 54.5t136.5 -54.5t56.5 -131.5t-56.5 -131.5t-136.5 -54.5zM233 618q-43 0 -68.5 -28t-25.5 -66q0 -45 25 -71.5t69 -26.5q41 0 66.5 27t25.5 71q0 39 -23.5 66.5t-68.5 27.5z" />
    <glyph glyph-name="guillemotright" unicode="&#xbb;" horiz-adv-x="631" 
d="M394 266l-120 229h146l118 -229l-114 -231h-146zM140 266l-120 229h145l119 -229l-114 -231h-146z" />
    <glyph glyph-name="onequarter" unicode="&#xbc;" horiz-adv-x="778" 
d="M254 459v-74h-204v74h60v159l-60 -14v75l92 20h53v-240h59zM660 132h39v-74h-39v-58h-85v58h-147l2 73l111 184h100l-110 -180v-2h44v35h85v-36zM541 711l74 -40l-420 -689l-70 38z" />
    <glyph glyph-name="onehalf" unicode="&#xbd;" horiz-adv-x="776" 
d="M587 76v-2h99v-74h-219v79q132 86 132 131q0 37 -39 37q-35 0 -64 -33l-52 57q54 51 125 51q53 0 85 -29t32 -77q0 -43 -22 -73.5t-77 -66.5zM255 459v-74h-204v74h60v159l-60 -14v75l92 20h53v-240h59zM541 711l74 -40l-420 -689l-70 38z" />
    <glyph glyph-name="threequarters" unicode="&#xbe;" horiz-adv-x="772" 
d="M299 484q0 -55 -33.5 -80.5t-106.5 -25.5q-53 0 -95 18l-10 4l34 69q33 -18 71 -18q55 0 55 30q0 36 -88 36h-9l-8 51l64 55v2h-99v74h213v-68l-63 -58v-2q75 -13 75 -87zM675 132h39v-74h-38v-58h-86v58h-147l2 73l111 184h100l-110 -180v-2h44v35h85v-36zM555 711
l74 -40l-420 -689l-70 38z" />
    <glyph glyph-name="questiondown" unicode="&#xbf;" horiz-adv-x="501" 
d="M278 -301q-129 0 -194 58t-65 155q0 56 20.5 98t50 63t59 33.5t49.5 15.5l21 2v73h144v-173q-36 0 -67 -2q-133 -10 -133 -104q0 -91 148 -91q47 0 89 13.5t61 26.5l19 13v-135q-8 -5 -23 -12.5t-67.5 -20.5t-111.5 -13zM292 279q-33 0 -56 23t-23 56t23 56.5t56 23.5
t56.5 -23.5t23.5 -56.5t-23.5 -56t-56.5 -23z" />
    <glyph glyph-name="Agrave" unicode="&#xc0;" horiz-adv-x="761" 
d="M595 0l-53 135h-324l-53 -135h-155l283 699h174l283 -699h-155zM266 256h227l-112 290h-2zM315 954l125 -172h-146l-181 172h202z" />
    <glyph glyph-name="Aacute" unicode="&#xc1;" horiz-adv-x="761" 
d="M595 0l-53 135h-324l-53 -135h-155l283 699h174l283 -699h-155zM266 256h227l-112 290h-2zM311 782l125 172h202l-181 -172h-146z" />
    <glyph glyph-name="Acircumflex" unicode="&#xc2;" horiz-adv-x="761" 
d="M595 0l-53 135h-324l-53 -135h-155l283 699h174l283 -699h-155zM266 256h227l-112 290h-2zM637 769h-163l-95 104l-94 -104h-164v9l186 185h144l186 -185v-9z" />
    <glyph glyph-name="Atilde" unicode="&#xc3;" horiz-adv-x="761" 
d="M595 0l-53 135h-324l-53 -135h-155l283 699h174l283 -699h-155zM266 256h227l-112 290h-2zM457 797q-38 0 -93.5 17.5t-86.5 17.5q-25 0 -51.5 -10t-41.5 -20l-14 -9v108q52 46 114 46q38 0 93.5 -17.5t86.5 -17.5q25 0 51.5 10t40.5 20l15 9v-108q-52 -46 -114 -46z" />
    <glyph glyph-name="Adieresis" unicode="&#xc4;" horiz-adv-x="761" 
d="M595 0l-53 135h-324l-53 -135h-155l283 699h174l283 -699h-155zM266 256h227l-112 290h-2zM265 785q-33 0 -56 23t-23 56t23 56.5t56 23.5t56.5 -23.5t23.5 -56.5t-23.5 -56t-56.5 -23zM486 785q-33 0 -56 23t-23 56t23 56.5t56 23.5t56.5 -23.5t23.5 -56.5t-23.5 -56
t-56.5 -23z" />
    <glyph glyph-name="Aring" unicode="&#xc5;" horiz-adv-x="762" 
d="M477 674l273 -674h-155l-53 135h-324l-53 -135h-155l273 674q-35 38 -35 89q0 55 38.5 93.5t93.5 38.5t93.5 -38.5t38.5 -93.5q0 -51 -35 -89zM380 810q-20 0 -33.5 -14t-13.5 -33t14 -33t33 -14t33 14t14 33t-13.5 33t-33.5 14zM266 257h228l-113 294h-2z" />
    <glyph glyph-name="AE" unicode="&#xc6;" horiz-adv-x="944" 
d="M699 128h195v-128h-298l-54 135h-323l-54 -135h-155l283 699h459v-128h-233l63 -155h220v-122h-171zM267 257h227l-113 284h-2z" />
    <glyph glyph-name="Ccedilla" unicode="&#xc7;" horiz-adv-x="769" 
d="M732 117q-96 -116 -262 -129v-36q131 0 131 -117q0 -65 -43 -102t-121 -37q-25 0 -53 7t-44 14l-15 7v102q48 -34 111 -34q68 0 68 41t-70 41h-63l1 116q-144 19 -234 120t-90 240q0 158 108.5 262.5t274.5 103.5q191 0 300 -130l-108 -80q-65 83 -192 83
q-114 0 -177 -64t-63 -174q0 -107 64.5 -172t176.5 -65q126 0 190 81z" />
    <glyph glyph-name="Egrave" unicode="&#xc8;" horiz-adv-x="676" 
d="M616 571h-403v-155h359v-122h-359v-166h403v-128h-547v699h547v-128zM317 954l125 -172h-146l-181 172h202z" />
    <glyph glyph-name="Eacute" unicode="&#xc9;" horiz-adv-x="697" 
d="M614 571h-403v-155h359v-122h-359v-166h403v-128h-547v699h547v-128zM265 782l125 172h202l-181 -172h-146z" />
    <glyph glyph-name="Ecircumflex" unicode="&#xca;" horiz-adv-x="674" 
d="M617 571h-403v-155h359v-122h-359v-166h403v-128h-547v699h547v-128zM607 769h-163l-95 104l-94 -104h-164v9l186 185h144l186 -185v-9z" />
    <glyph glyph-name="Edieresis" unicode="&#xcb;" horiz-adv-x="693" 
d="M614 571h-403v-155h359v-122h-359v-166h403v-128h-547v699h547v-128zM238 785q-33 0 -56 23t-23 56t23 56.5t56 23.5t56.5 -23.5t23.5 -56.5t-23.5 -56t-56.5 -23zM459 785q-33 0 -56 23t-23 56t23 56.5t56 23.5t56.5 -23.5t23.5 -56.5t-23.5 -56t-56.5 -23z" />
    <glyph glyph-name="Igrave" unicode="&#xcc;" horiz-adv-x="307" 
d="M82 699h143v-699h-143v699zM92 954l125 -172h-146l-181 172h202z" />
    <glyph glyph-name="Iacute" unicode="&#xcd;" horiz-adv-x="303" 
d="M76 699h143v-699h-143v699zM76 782l125 172h202l-181 -172h-146z" />
    <glyph glyph-name="Icircumflex" unicode="&#xce;" horiz-adv-x="287" 
d="M80 699h143v-699h-143v699zM411 769h-163l-95 104l-94 -104h-164v9l186 185h144l186 -185v-9z" />
    <glyph glyph-name="Idieresis" unicode="&#xcf;" horiz-adv-x="314" 
d="M81 699h143v-699h-143v699zM44 785q-33 0 -56 23t-23 56t23 56.5t56 23.5t56.5 -23.5t23.5 -56.5t-23.5 -56t-56.5 -23zM265 785q-33 0 -56 23t-23 56t23 56.5t56 23.5t56.5 -23.5t23.5 -56.5t-23.5 -56t-56.5 -23z" />
    <glyph glyph-name="Eth" unicode="&#xd0;" horiz-adv-x="889" 
d="M448 699q201 0 293 -82.5t92 -266.5q0 -182 -93.5 -266t-291.5 -84h-298v286h-104v127h104v286h298zM448 128q138 0 189.5 53t51.5 169q0 121 -51 171t-190 50h-155v-158h174v-127h-174v-158h155z" />
    <glyph glyph-name="Ntilde" unicode="&#xd1;" horiz-adv-x="805" 
d="M581 699h144v-699h-147l-352 487h-2v-487h-144v699h148l350 -483h3v483zM476 797q-38 0 -93.5 17.5t-86.5 17.5q-25 0 -51.5 -10t-40.5 -20l-15 -9v108q52 46 114 46q38 0 93.5 -17.5t86.5 -17.5q25 0 51.5 10t41.5 20l14 9v-108q-52 -46 -114 -46z" />
    <glyph glyph-name="Ograve" unicode="&#xd2;" horiz-adv-x="867" 
d="M431 714q168 0 276 -104t108 -263q0 -155 -107 -259t-276 -104q-167 0 -275.5 105t-108.5 259q0 158 108.5 262t274.5 104zM432 112q112 0 175.5 64t63.5 172t-63.5 173.5t-176.5 65.5t-176 -64t-63 -174q0 -106 64.5 -171.5t175.5 -65.5zM369 954l125 -172h-146
l-181 172h202z" />
    <glyph glyph-name="Oacute" unicode="&#xd3;" horiz-adv-x="867" 
d="M434 714q168 0 276 -104t108 -263q0 -155 -107 -259t-276 -104q-167 0 -275.5 105t-108.5 259q0 158 108.5 262t274.5 104zM435 112q112 0 175.5 64t63.5 172t-63.5 173.5t-176.5 65.5t-176 -64t-63 -174q0 -106 64.5 -171.5t175.5 -65.5zM356 782l125 172h202l-181 -172
h-146z" />
    <glyph glyph-name="Ocircumflex" unicode="&#xd4;" horiz-adv-x="867" 
d="M428 714q168 0 276 -104t108 -263q0 -155 -107 -259t-276 -104q-167 0 -275.5 105t-108.5 259q0 158 108.5 262t274.5 104zM429 112q112 0 175.5 64t63.5 172t-63.5 173.5t-176.5 65.5t-176 -64t-63 -174q0 -106 64.5 -171.5t175.5 -65.5zM691 769h-163l-95 104l-94 -104
h-164v9l186 185h144l186 -185v-9z" />
    <glyph glyph-name="Otilde" unicode="&#xd5;" horiz-adv-x="867" 
d="M430 714q168 0 276 -104t108 -263q0 -155 -107 -259t-276 -104q-167 0 -275.5 105t-108.5 259q0 158 108.5 262t274.5 104zM431 112q112 0 175.5 64t63.5 172t-63.5 173.5t-176.5 65.5t-176 -64t-63 -174q0 -106 64.5 -171.5t175.5 -65.5zM522 797q-38 0 -93.5 17.5
t-86.5 17.5q-25 0 -51.5 -10t-40.5 -20l-15 -9v108q52 46 114 46q38 0 93.5 -17.5t86.5 -17.5q25 0 51.5 10t41.5 20l14 9v-108q-52 -46 -114 -46z" />
    <glyph glyph-name="Odieresis" unicode="&#xd6;" horiz-adv-x="867" 
d="M430 714q168 0 276 -104t108 -263q0 -155 -107 -259t-276 -104q-167 0 -275.5 105t-108.5 259q0 158 108.5 262t274.5 104zM431 112q112 0 175.5 64t63.5 172t-63.5 173.5t-176.5 65.5t-176 -64t-63 -174q0 -106 64.5 -171.5t175.5 -65.5zM322 785q-33 0 -56 23t-23 56
t23 56.5t56 23.5t56.5 -23.5t23.5 -56.5t-23.5 -56t-56.5 -23zM543 785q-33 0 -56 23t-23 56t23 56.5t56 23.5t56.5 -23.5t23.5 -56.5t-23.5 -56t-56.5 -23z" />
    <glyph glyph-name="multiply" unicode="&#xd7;" horiz-adv-x="655" 
d="M567 499l-189 -200l189 -199h-144l-113 124l-112 -124h-144l188 199l-188 200h141l115 -127l116 127h141z" />
    <glyph glyph-name="Oslash" unicode="&#xd8;" horiz-adv-x="867" 
d="M737 579q80 -97 80 -231q0 -155 -107 -259t-276 -104q-129 0 -226 65l-70 -70l-75 75l66 66q-79 94 -79 227q0 158 108.5 262.5t274.5 104.5q128 0 226 -65l69 70l75 -75zM193 349q0 -72 33 -130h2l335 336v2q-55 30 -130 30q-114 0 -177 -64t-63 -174zM434 113
q112 0 175.5 64t63.5 172q0 76 -32 131h-3l-334 -334v-3q55 -30 130 -30z" />
    <glyph glyph-name="Ugrave" unicode="&#xd9;" horiz-adv-x="800" 
d="M576 699h144v-365q0 -157 -84 -253t-236 -96q-153 0 -236.5 96t-83.5 253v365h143v-365q0 -111 46 -166t131 -55q81 0 128.5 55.5t47.5 165.5v365zM340 954l125 -172h-146l-181 172h202z" />
    <glyph glyph-name="Uacute" unicode="&#xda;" horiz-adv-x="800" 
d="M576 699h144v-365q0 -157 -84 -253t-236 -96q-153 0 -236.5 96t-83.5 253v365h143v-365q0 -111 46 -166t131 -55q81 0 128.5 55.5t47.5 165.5v365zM328 782l125 172h202l-181 -172h-146z" />
    <glyph glyph-name="Ucircumflex" unicode="&#xdb;" horiz-adv-x="800" 
d="M576 699h144v-365q0 -157 -84 -253t-236 -96q-153 0 -236.5 96t-83.5 253v365h143v-365q0 -111 46 -166t131 -55q81 0 128.5 55.5t47.5 165.5v365zM662 769h-163l-95 104l-94 -104h-164v9l186 185h144l186 -185v-9z" />
    <glyph glyph-name="Udieresis" unicode="&#xdc;" horiz-adv-x="800" 
d="M576 699h144v-365q0 -157 -84 -253t-236 -96q-153 0 -236.5 96t-83.5 253v365h143v-365q0 -111 46 -166t131 -55q81 0 128.5 55.5t47.5 165.5v365zM285 785q-33 0 -56 23t-23 56t23 56.5t56 23.5t56.5 -23.5t23.5 -56.5t-23.5 -56t-56.5 -23zM506 785q-33 0 -56 23
t-23 56t23 56.5t56 23.5t56.5 -23.5t23.5 -56.5t-23.5 -56t-56.5 -23z" />
    <glyph glyph-name="Yacute" unicode="&#xdd;" horiz-adv-x="705" 
d="M528 699h167l-272 -454v-245h-143v246l-270 453h166l176 -312h2zM279 782l125 172h202l-181 -172h-146z" />
    <glyph glyph-name="Thorn" unicode="&#xde;" horiz-adv-x="667" 
d="M395 579q109 0 176.5 -62.5t67.5 -168.5q0 -105 -67 -166.5t-177 -61.5h-186v-120h-144v699h144v-120h186zM382 247q114 0 114 101q0 103 -114 103h-173v-204h173z" />
    <glyph glyph-name="germandbls" unicode="&#xdf;" horiz-adv-x="612" 
d="M478 385q7 0 19.5 -1t44 -10t55.5 -25.5t44 -53.5t20 -88q0 -97 -70.5 -153.5t-189.5 -56.5l-77 3v128q22 -3 49 -3q76 0 110 22.5t34 76.5q0 46 -43.5 67t-141.5 21v128q56 0 85 20.5t29 57.5q0 82 -112 82q-58 0 -82.5 -32t-24.5 -108v-460h-144v468q0 137 61.5 198.5
t213.5 61.5q112 0 171 -48.5t59 -135.5q0 -37 -11.5 -66.5t-27.5 -46t-32 -27t-27 -14.5l-12 -3v-2z" />
    <glyph glyph-name="agrave" unicode="&#xe0;" 
d="M339 512q135 0 203 -67.5t68 -186.5v-258h-120l-27 65h-2q-25 -42 -69.5 -61t-89.5 -19q-102 0 -159.5 41.5t-57.5 116.5q0 76 55.5 109.5t187.5 33.5q30 0 64.5 -2t53.5 -4l20 -1q0 46 -32 75.5t-95 29.5q-84 0 -128 -55l-124 57q39 60 106 93t146 33zM331 100
q60 0 97.5 23.5t37.5 71.5q-60 6 -127 6q-64 0 -86.5 -11t-22.5 -37q0 -27 22 -40t79 -13zM280 750l125 -172h-146l-181 172h202z" />
    <glyph glyph-name="aacute" unicode="&#xe1;" 
d="M329 512q135 0 203 -67.5t68 -186.5v-258h-120l-27 65h-2q-25 -42 -69.5 -61t-89.5 -19q-102 0 -159.5 41.5t-57.5 116.5q0 76 55.5 109.5t187.5 33.5q30 0 64.5 -2t53.5 -4l20 -1q0 46 -32 75.5t-95 29.5q-84 0 -128 -55l-124 57q39 60 106 93t146 33zM321 100
q60 0 97.5 23.5t37.5 71.5q-60 6 -127 6q-64 0 -86.5 -11t-22.5 -37q0 -27 22 -40t79 -13zM271 578l125 172h202l-181 -172h-146z" />
    <glyph glyph-name="acircumflex" unicode="&#xe2;" horiz-adv-x="662" 
d="M333 512q135 0 203 -67.5t68 -186.5v-258h-120l-27 65h-2q-25 -42 -69.5 -61t-89.5 -19q-102 0 -159.5 41.5t-57.5 116.5q0 76 55.5 109.5t187.5 33.5q30 0 64.5 -2t53.5 -4l20 -1q0 46 -32 75.5t-95 29.5q-84 0 -128 -55l-124 57q39 60 106 93t146 33zM325 100
q60 0 97.5 23.5t37.5 71.5q-60 6 -127 6q-64 0 -86.5 -11t-22.5 -37q0 -27 22 -40t79 -13zM598 565h-163l-95 104l-94 -104h-164v9l186 185h144l186 -185v-9z" />
    <glyph glyph-name="atilde" unicode="&#xe3;" 
d="M329 512q135 0 203 -67.5t68 -186.5v-258h-120l-27 65h-2q-25 -42 -69.5 -61t-89.5 -19q-102 0 -159.5 41.5t-57.5 116.5q0 76 55.5 109.5t187.5 33.5q30 0 64.5 -2t53.5 -4l20 -1q0 46 -32 75.5t-95 29.5q-84 0 -128 -55l-124 57q39 60 106 93t146 33zM321 100
q60 0 97.5 23.5t37.5 71.5q-60 6 -127 6q-64 0 -86.5 -11t-22.5 -37q0 -27 22 -40t79 -13zM421 593q-38 0 -93.5 17.5t-86.5 17.5q-25 0 -51.5 -10t-41.5 -20l-14 -9v108q52 46 114 46q38 0 93.5 -17.5t86.5 -17.5q25 0 51.5 10t40.5 20l15 9v-108q-52 -46 -114 -46z" />
    <glyph glyph-name="adieresis" unicode="&#xe4;" 
d="M329 512q135 0 203 -67.5t68 -186.5v-258h-120l-27 65h-2q-25 -42 -69.5 -61t-89.5 -19q-102 0 -159.5 41.5t-57.5 116.5q0 76 55.5 109.5t187.5 33.5q30 0 64.5 -2t53.5 -4l20 -1q0 46 -32 75.5t-95 29.5q-84 0 -128 -55l-124 57q39 60 106 93t146 33zM321 100
q60 0 97.5 23.5t37.5 71.5q-60 6 -127 6q-64 0 -86.5 -11t-22.5 -37q0 -27 22 -40t79 -13zM229 581q-33 0 -56 23t-23 56t23 56.5t56 23.5t56.5 -23.5t23.5 -56.5t-23.5 -56t-56.5 -23zM450 581q-33 0 -56 23t-23 56t23 56.5t56 23.5t56.5 -23.5t23.5 -56.5t-23.5 -56
t-56.5 -23z" />
    <glyph glyph-name="aring" unicode="&#xe5;" 
d="M321 562q-62 0 -106.5 42.5t-44.5 101.5q0 60 44.5 102t106.5 42t106.5 -42t44.5 -102q0 -59 -44.5 -101.5t-106.5 -42.5zM321 777q-32 0 -55 -21t-23 -50q0 -30 24 -50.5t54 -20.5q32 0 55 21t23 50q0 30 -24 51.5t-54 19.5zM320 512q135 0 203 -67.5t68 -186.5v-258
h-120l-27 65h-2q-25 -42 -69.5 -61t-89.5 -19q-102 0 -159.5 41.5t-57.5 116.5q0 76 55.5 109.5t187.5 33.5q30 0 64.5 -2t54.5 -4l19 -1q0 46 -32 75.5t-95 29.5q-84 0 -128 -55l-124 57q39 60 106 93t146 33zM312 100q60 0 97.5 23.5t37.5 71.5q-60 6 -127 6
q-64 0 -86.5 -11t-22.5 -37q0 -27 22 -40t79 -13z" />
    <glyph glyph-name="ae" unicode="&#xe6;" horiz-adv-x="958" 
d="M911 240v-36h-370q25 -90 118 -90q25 0 51 15t41 41l124 -60q-34 -57 -91.5 -90.5t-124.5 -33.5q-63 0 -115 28t-79 80h-2q-26 -46 -86.5 -77t-126.5 -31q-95 0 -148.5 41.5t-53.5 116.5q0 147 236 147l118 -2q0 43 -30.5 69.5t-87.5 26.5q-78 0 -120 -55l-114 57
q36 60 98 93t136 33q131 0 195 -76q76 76 180 76q111 0 181.5 -77.5t70.5 -195.5zM276 101q55 0 90.5 26t35.5 74q-45 1 -107 1q-103 0 -103 -48q0 -28 17.5 -40.5t66.5 -12.5zM542 294h223q-23 91 -113 91q-85 0 -110 -91z" />
    <glyph glyph-name="ccedilla" unicode="&#xe7;" horiz-adv-x="594" 
d="M552 111q-30 -47 -79 -79t-108 -42v-33q131 0 131 -117q0 -65 -43 -102t-121 -37q-25 0 -53 7t-43 14l-16 7v102q48 -34 111 -34q68 0 68 41t-70 41h-63l1 112q-97 17 -161 90t-64 168q0 109 81 186.5t195 77.5q71 0 132 -32t98 -87l-119 -65q-36 57 -111 57
q-60 0 -96 -39.5t-36 -94.5q0 -63 34.5 -100.5t97.5 -37.5q72 0 109 56z" />
    <glyph glyph-name="egrave" unicode="&#xe8;" horiz-adv-x="618" 
d="M588 238v-36h-398q25 -90 126 -90q72 0 109 56l125 -60q-38 -57 -99.5 -90.5t-134.5 -33.5q-114 0 -195 77t-81 186t81 186.5t195 77.5q120 0 196 -77.5t76 -195.5zM190 292h252q-11 41 -43 66t-83 25q-48 0 -80.5 -25.5t-45.5 -65.5zM258 750l125 -172h-146l-181 172
h202z" />
    <glyph glyph-name="eacute" unicode="&#xe9;" horiz-adv-x="644" 
d="M598 238v-36h-398q25 -90 126 -90q72 0 109 56l125 -60q-38 -57 -99.5 -90.5t-134.5 -33.5q-114 0 -195 77t-81 186t81 186.5t195 77.5q120 0 196 -77.5t76 -195.5zM200 292h252q-11 41 -43 66t-83 25q-48 0 -80.5 -25.5t-45.5 -65.5zM242 578l125 172h202l-181 -172
h-146z" />
    <glyph glyph-name="ecircumflex" unicode="&#xea;" horiz-adv-x="629" 
d="M589 238v-36h-398q25 -90 126 -90q72 0 109 56l125 -60q-38 -57 -99.5 -90.5t-134.5 -33.5q-114 0 -195 77t-81 186t81 186.5t195 77.5q120 0 196 -77.5t76 -195.5zM191 292h252q-11 41 -43 66t-83 25q-48 0 -80.5 -25.5t-45.5 -65.5zM574 565h-163l-95 104l-94 -104
h-164v9l186 185h144l186 -185v-9z" />
    <glyph glyph-name="edieresis" unicode="&#xeb;" horiz-adv-x="643" 
d="M591 238v-36h-398q25 -90 126 -90q72 0 109 56l125 -60q-38 -57 -99.5 -90.5t-134.5 -33.5q-114 0 -195 77t-81 186t81 186.5t195 77.5q120 0 196 -77.5t76 -195.5zM193 292h252q-11 41 -43 66t-83 25q-48 0 -80.5 -25.5t-45.5 -65.5zM202 581q-33 0 -56 23t-23 56
t23 56.5t56 23.5t56.5 -23.5t23.5 -56.5t-23.5 -56t-56.5 -23zM423 581q-33 0 -56 23t-23 56t23 56.5t56 23.5t56.5 -23.5t23.5 -56.5t-23.5 -56t-56.5 -23z" />
    <glyph glyph-name="igrave" unicode="&#xec;" horiz-adv-x="286" 
d="M69 0v495h144v-495h-144zM92 750l125 -172h-146l-181 172h202z" />
    <glyph glyph-name="iacute" unicode="&#xed;" horiz-adv-x="268" 
d="M62 0v495h144v-495h-144zM61 578l125 172h202l-181 -172h-146z" />
    <glyph glyph-name="icircumflex" unicode="&#xee;" horiz-adv-x="285" 
d="M63 0v495h144v-495h-144zM391 565h-163l-95 104l-94 -104h-164v9l186 185h144l186 -185v-9z" />
    <glyph glyph-name="idieresis" unicode="&#xef;" horiz-adv-x="269" 
d="M59 0v495h144v-495h-144zM20 581q-33 0 -56 23t-23 56t23 56.5t56 23.5t56.5 -23.5t23.5 -56.5t-23.5 -56t-56.5 -23zM241 581q-33 0 -56 23t-23 56t23 56.5t56 23.5t56.5 -23.5t23.5 -56.5t-23.5 -56t-56.5 -23z" />
    <glyph glyph-name="eth" unicode="&#xf0;" horiz-adv-x="644" 
d="M494 648q102 -87 102 -310q0 -188 -68.5 -271.5t-221.5 -83.5q-134 0 -201 64t-67 175q0 117 64.5 176.5t174.5 59.5q60 0 109.5 -21t65.5 -59h2v5q0 125 -55 170l-69 -70h-116l99 101q-22 2 -36 2q-86 0 -143 -48l-66 108q79 67 209 67q82 0 142 -21l37 37h119zM317 111
q64 0 97.5 28.5t33.5 81.5q0 48 -35.5 79t-100.5 31q-66 0 -98 -29.5t-32 -80.5q0 -56 31.5 -83t103.5 -27z" />
    <glyph glyph-name="ntilde" unicode="&#xf1;" horiz-adv-x="689" 
d="M384 511q235 0 235 -261v-250h-142v238q0 145 -126 145q-62 0 -99.5 -38t-37.5 -107v-238h-144v495h121l22 -64h2q45 80 169 80zM431 593q-38 0 -93.5 17.5t-86.5 17.5q-25 0 -51.5 -10t-41.5 -20l-14 -9v108q52 46 114 46q38 0 93.5 -17.5t86.5 -17.5q25 0 51.5 10
t40.5 20l15 9v-108q-52 -46 -114 -46z" />
    <glyph glyph-name="ograve" unicode="&#xf2;" horiz-adv-x="641" 
d="M600 247q0 -103 -78 -183t-197 -80q-114 0 -195 77t-81 186t81 186.5t195 77.5t194.5 -77.5t80.5 -186.5zM325 384q-60 0 -96 -39.5t-36 -94.5q0 -63 34.5 -100.5t97.5 -37.5q58 0 94.5 38t36.5 100q0 56 -34 95t-97 39zM258 750l125 -172h-146l-181 172h202z" />
    <glyph glyph-name="oacute" unicode="&#xf3;" horiz-adv-x="651" 
d="M601 247q0 -103 -78 -183t-197 -80q-114 0 -195 77t-81 186t81 186.5t195 77.5t194.5 -77.5t80.5 -186.5zM326 384q-60 0 -96 -39.5t-36 -94.5q0 -63 34.5 -100.5t97.5 -37.5q58 0 94.5 38t36.5 100q0 56 -34 95t-97 39zM241 578l125 172h202l-181 -172h-146z" />
    <glyph glyph-name="ocircumflex" unicode="&#xf4;" horiz-adv-x="650" 
d="M601 247q0 -103 -78 -183t-197 -80q-114 0 -195 77t-81 186t81 186.5t195 77.5t194.5 -77.5t80.5 -186.5zM326 384q-60 0 -96 -39.5t-36 -94.5q0 -63 34.5 -100.5t97.5 -37.5q58 0 94.5 38t36.5 100q0 56 -34 95t-97 39zM585 565h-163l-95 104l-94 -104h-164v9l186 185
h144l186 -185v-9z" />
    <glyph glyph-name="otilde" unicode="&#xf5;" horiz-adv-x="643" 
d="M601 247q0 -103 -78 -183t-197 -80q-114 0 -195 77t-81 186t81 186.5t195 77.5t194.5 -77.5t80.5 -186.5zM326 384q-60 0 -96 -39.5t-36 -94.5q0 -63 34.5 -100.5t97.5 -37.5q58 0 94.5 38t36.5 100q0 56 -34 95t-97 39zM416 593q-38 0 -93.5 17.5t-86.5 17.5
q-25 0 -51.5 -10t-40.5 -20l-15 -9v108q52 46 114 46q38 0 93.5 -17.5t86.5 -17.5q25 0 51.5 10t41.5 20l14 9v-108q-52 -46 -114 -46z" />
    <glyph glyph-name="odieresis" unicode="&#xf6;" horiz-adv-x="651" 
d="M601 247q0 -103 -78 -183t-197 -80q-114 0 -195 77t-81 186t81 186.5t195 77.5t194.5 -77.5t80.5 -186.5zM326 384q-60 0 -96 -39.5t-36 -94.5q0 -63 34.5 -100.5t97.5 -37.5q58 0 94.5 38t36.5 100q0 56 -34 95t-97 39zM215 581q-33 0 -56 23t-23 56t23 56.5t56 23.5
t56.5 -23.5t23.5 -56.5t-23.5 -56t-56.5 -23zM436 581q-33 0 -56 23t-23 56t23 56.5t56 23.5t56.5 -23.5t23.5 -56.5t-23.5 -56t-56.5 -23z" />
    <glyph glyph-name="divide" unicode="&#xf7;" horiz-adv-x="620" 
d="M67 355h488v-98h-488v98zM311 436q-33 0 -56 23t-23 56t23 56.5t56 23.5t56.5 -23.5t23.5 -56.5t-23.5 -56t-56.5 -23zM311 21q-33 0 -56 23t-23 56t23 56.5t56 23.5t56.5 -23.5t23.5 -56.5t-23.5 -56t-56.5 -23z" />
    <glyph glyph-name="oslash" unicode="&#xf8;" horiz-adv-x="650" 
d="M537 416q64 -74 64 -169q0 -103 -78 -183t-197 -80q-93 0 -168 54l-44 -44l-43 42l43 43q-64 74 -64 168q0 109 81 186.5t195 77.5q92 0 167 -54l44 44l43 -42zM326 383q-60 0 -96 -39.5t-36 -93.5q0 -43 15 -73h3l186 185v3q-28 18 -72 18zM326 112q58 0 94.5 38
t36.5 100q0 38 -15 68h-3l-186 -186v-2q30 -18 73 -18z" />
    <glyph glyph-name="ugrave" unicode="&#xf9;" horiz-adv-x="668" 
d="M297 -16q-234 0 -234 262v249h141v-237q0 -145 126 -145q62 0 100 38t38 107v237h144v-495h-122l-22 65h-2q-45 -81 -169 -81zM276 750l125 -172h-146l-181 172h202z" />
    <glyph glyph-name="uacute" unicode="&#xfa;" 
d="M292 -16q-234 0 -234 262v249h141v-237q0 -145 126 -145q62 0 100 38t38 107v237h144v-495h-122l-22 65h-2q-45 -81 -169 -81zM255 578l125 172h202l-181 -172h-146z" />
    <glyph glyph-name="ucircumflex" unicode="&#xfb;" horiz-adv-x="668" 
d="M294 -16q-234 0 -234 262v249h141v-237q0 -145 126 -145q62 0 100 38t38 107v237h144v-495h-122l-22 65h-2q-45 -81 -169 -81zM582 565h-163l-95 104l-94 -104h-164v9l186 185h144l186 -185v-9z" />
    <glyph glyph-name="udieresis" unicode="&#xfc;" 
d="M292 -16q-234 0 -234 262v249h141v-237q0 -145 126 -145q62 0 100 38t38 107v237h144v-495h-122l-22 65h-2q-45 -81 -169 -81zM222 581q-33 0 -56 23t-23 56t23 56.5t56 23.5t56.5 -23.5t23.5 -56.5t-23.5 -56t-56.5 -23zM443 581q-33 0 -56 23t-23 56t23 56.5t56 23.5
t56.5 -23.5t23.5 -56.5t-23.5 -56t-56.5 -23z" />
    <glyph glyph-name="yacute" unicode="&#xfd;" horiz-adv-x="629" 
d="M447 495h160l-298 -711h-146l86 205l-244 506h165l85 -211l57 -132h2l49 132zM237 578l125 172h202l-181 -172h-146z" />
    <glyph glyph-name="thorn" unicode="&#xfe;" 
d="M380 519q110 0 175.5 -75.5t65.5 -187.5q0 -115 -62 -189t-179 -74q-111 0 -162 80h-1v-290h-147v909l147 37l-1 -289h1q51 79 163 79zM346 121q63 0 97 38.5t34 96.5t-35 96.5t-96 38.5q-53 0 -87.5 -31.5t-41.5 -79.5v-48q8 -48 42.5 -79.5t86.5 -31.5z" />
    <glyph glyph-name="ydieresis" unicode="&#xff;" horiz-adv-x="613" 
d="M447 495h160l-298 -711h-146l86 205l-244 506h165l85 -211l57 -132h2l49 132zM202 581q-33 0 -56 23t-23 56t23 56.5t56 23.5t56.5 -23.5t23.5 -56.5t-23.5 -56t-56.5 -23zM423 581q-33 0 -56 23t-23 56t23 56.5t56 23.5t56.5 -23.5t23.5 -56.5t-23.5 -56t-56.5 -23z" />
    <glyph glyph-name="Abreve" unicode="&#x102;" horiz-adv-x="761" 
d="M595 0l-53 135h-324l-53 -135h-155l283 699h174l283 -699h-155zM266 256h227l-112 290h-2zM448 927h112q0 -70 -52 -120t-126 -50t-126 49.5t-52 120.5h111q0 -31 19 -49.5t48 -18.5q28 0 47 18.5t19 49.5z" />
    <glyph glyph-name="abreve" unicode="&#x103;" horiz-adv-x="666" 
d="M329 512q135 0 203 -67.5t68 -186.5v-258h-120l-27 65h-2q-25 -42 -69.5 -61t-89.5 -19q-102 0 -159.5 41.5t-57.5 116.5q0 76 55.5 109.5t187.5 33.5q30 0 64.5 -2t53.5 -4l20 -1q0 46 -32 75.5t-95 29.5q-84 0 -128 -55l-124 57q39 60 106 93t146 33zM321 100
q60 0 97.5 23.5t37.5 71.5q-60 6 -127 6q-64 0 -86.5 -11t-22.5 -37q0 -27 22 -40t79 -13zM410 723h112q0 -70 -52 -120t-126 -50t-126 49.5t-52 120.5h111q0 -31 19 -49.5t48 -18.5q28 0 47 18.5t19 49.5z" />
    <glyph glyph-name="Aogonek" unicode="&#x104;" horiz-adv-x="761" 
d="M264 256h227l-112 290h-2zM639 -100q0 -51 64 -51q12 0 23.5 2.5t16.5 4.5l5 2v-105q-30 -12 -78 -12q-77 0 -120.5 35t-43.5 99q0 81 87 128l-53 132h-324l-53 -135h-155l283 699h174l283 -699h-29q-80 -34 -80 -100z" />
    <glyph glyph-name="aogonek" unicode="&#x105;" horiz-adv-x="663" 
d="M484 -91q0 -51 64 -51q12 0 23 2t17 4l5 3v-105q-30 -12 -78 -12q-77 0 -120.5 35t-43.5 99q0 30 12.5 56t32 42.5t35.5 26t32 15.5l-17 41h-1q-25 -42 -70 -61t-89 -19q-103 0 -160 41.5t-57 116.5q0 76 55 109.5t187 33.5q30 0 65 -2t54 -4l20 -1q0 46 -32 75.5
t-95 29.5q-85 0 -129 -55l-123 57q39 60 106 93t146 33q135 0 202.5 -67.5t67.5 -186.5v-258h-48q-61 -34 -61 -91zM315 100q60 0 97.5 23.5t37.5 71.5q-61 6 -127 6q-64 0 -87 -11t-23 -37q0 -27 22.5 -40t79.5 -13z" />
    <glyph glyph-name="Cacute" unicode="&#x106;" horiz-adv-x="775" 
d="M624 193l109 -78q-110 -131 -300 -131q-167 0 -275.5 105t-108.5 259q0 158 108.5 262t274.5 104q191 0 300 -130l-108 -80q-65 83 -192 83q-113 0 -176 -64t-63 -174q-1 -106 63.5 -171.5t176.5 -65.5q126 0 191 81zM353 782l125 172h202l-181 -172h-146z" />
    <glyph glyph-name="cacute" unicode="&#x107;" horiz-adv-x="589" 
d="M435 169l125 -59q-37 -57 -99 -91t-135 -34q-114 0 -195 77t-81 186t81 186.5t195 77.5q71 0 132 -32t98 -87l-119 -65q-36 56 -111 56q-60 0 -96 -39.5t-36 -93.5q0 -63 34.5 -100.5t97.5 -37.5q72 0 109 56zM228 578l125 172h202l-181 -172h-146z" />
    <glyph glyph-name="Ccaron" unicode="&#x10c;" horiz-adv-x="775" 
d="M624 193l109 -78q-110 -131 -300 -131q-167 0 -275.5 105t-108.5 259q0 158 108.5 262t274.5 104q191 0 300 -130l-108 -80q-65 83 -192 83q-113 0 -176 -64t-63 -174q-1 -106 63.5 -171.5t176.5 -65.5q126 0 191 81zM523 942h163v-9l-186 -185h-144l-186 185v9h164
l94 -104z" />
    <glyph glyph-name="ccaron" unicode="&#x10d;" horiz-adv-x="589" 
d="M435 169l125 -59q-37 -57 -99 -91t-135 -34q-114 0 -195 77t-81 186t81 186.5t195 77.5q71 0 132 -32t98 -87l-119 -65q-36 56 -111 56q-60 0 -96 -39.5t-36 -93.5q0 -63 34.5 -100.5t97.5 -37.5q72 0 109 56zM406 738h163v-9l-186 -185h-144l-186 185v9h164l94 -104z
" />
    <glyph glyph-name="Dcaron" unicode="&#x10e;" horiz-adv-x="822" 
d="M80 699h298q201 0 293 -82.5t92 -266.5q0 -182 -93.5 -266t-291.5 -84h-298v699zM378 128q138 0 189.5 53t51.5 169q0 121 -51 171t-190 50h-155v-443h155zM440 942h163v-9l-186 -185h-144l-186 185v9h164l94 -104z" />
    <glyph glyph-name="dcroat" unicode="&#x111;" horiz-adv-x="671" 
d="M662 646v-128h-62v-518h-121l-23 65h-1q-51 -80 -164 -80q-117 0 -179 74t-62 189q0 113 65 188t176 75q114 0 163 -79h2v86h-58v128h58v18l144 35v-53h62zM325 113q58 0 94.5 39.5t36.5 95.5t-36 95.5t-95 39.5q-62 0 -97 -38.5t-35 -96.5t34 -96.5t98 -38.5z" />
    <glyph glyph-name="Eogonek" unicode="&#x118;" horiz-adv-x="663" 
d="M606 571h-403v-155h359v-122h-359v-166h403v-128h-30q-79 -34 -79 -100q0 -51 64 -51q12 0 23.5 2.5t16.5 4.5l5 2v-105q-30 -12 -78 -12q-77 0 -120.5 35t-43.5 99q0 79 82 125h-387v699h547v-128z" />
    <glyph glyph-name="eogonek" unicode="&#x119;" horiz-adv-x="650" 
d="M195 292h252q-11 41 -43 66t-83 25q-48 0 -80.5 -25.5t-45.5 -65.5zM593 238v-36h-398q25 -90 126 -90q72 0 109 56l125 -60q-56 -84 -154 -112q-70 -36 -70 -96q0 -51 64 -51q12 0 23.5 2.5t16.5 4.5l5 2v-105q-30 -12 -78 -12q-77 0 -120.5 35t-43.5 99q0 70 66 115
q-94 19 -156.5 91t-62.5 166q0 109 81 186.5t195 77.5q120 0 196 -77.5t76 -195.5z" />
    <glyph glyph-name="Ecaron" unicode="&#x11a;" horiz-adv-x="692" 
d="M613 571h-403v-155h359v-122h-359v-166h403v-128h-547v699h547v-128zM445 942h163v-9l-186 -185h-144l-186 185v9h164l94 -104z" />
    <glyph glyph-name="ecaron" unicode="&#x11b;" horiz-adv-x="650" 
d="M598 238v-36h-398q25 -90 126 -90q72 0 109 56l125 -60q-38 -57 -99.5 -90.5t-134.5 -33.5q-114 0 -195 77t-81 186t81 186.5t195 77.5q120 0 196 -77.5t76 -195.5zM200 292h252q-11 41 -43 66t-83 25q-48 0 -80.5 -25.5t-45.5 -65.5zM415 738h163v-9l-186 -185h-144
l-186 185v9h164l94 -104z" />
    <glyph glyph-name="Gbreve" unicode="&#x11e;" horiz-adv-x="821" 
d="M418 407h346v-407h-112l-35 65h-2q-25 -38 -76.5 -59t-117.5 -21q-163 0 -267.5 102t-104.5 261t109 263t274 104q189 0 301 -130l-109 -80q-65 82 -192 82q-113 0 -176 -64t-63 -174q0 -106 64.5 -171t175.5 -65q89 0 136 40.5t51 138.5h-202v115zM479 927h112
q0 -70 -52 -120t-126 -50t-126 49.5t-52 120.5h111q0 -31 19 -49.5t48 -18.5q28 0 47 18.5t19 49.5z" />
    <glyph glyph-name="gbreve" unicode="&#x11f;" horiz-adv-x="671" 
d="M281 -236q-68 0 -121.5 11t-73.5 23l-19 11l39 132q8 -5 22.5 -13.5t60.5 -22t92 -13.5q104 0 139 34t35 122v16h-2q-50 -79 -162 -79q-117 0 -179 73.5t-62 188.5q0 113 65.5 188t175.5 75q109 0 160 -79h1l28 64h120v-447q0 -151 -77.5 -217.5t-241.5 -66.5zM325 112
q58 0 94.5 39.5t36.5 95.5t-36 96t-95 40q-62 0 -96.5 -38.5t-34.5 -97.5q0 -58 34 -96.5t97 -38.5zM402 723h112q0 -70 -52 -120t-126 -50t-126 49.5t-52 120.5h111q0 -31 19 -49.5t48 -18.5q28 0 47 18.5t19 49.5z" />
    <glyph glyph-name="Idotaccent" unicode="&#x130;" horiz-adv-x="310" 
d="M83 699h143v-699h-143v699zM152 749q-33 0 -56 23t-23 56t23 56.5t56 23.5t56.5 -23.5t23.5 -56.5t-23.5 -56t-56.5 -23z" />
    <glyph glyph-name="dotlessi" unicode="&#x131;" horiz-adv-x="344" 
d="M300 163h-139v299h-120v129h259v-428z" />
    <glyph glyph-name="Lacute" unicode="&#x139;" horiz-adv-x="631" 
d="M80 0v699h144v-571h377v-128h-521zM85 782l125 172h202l-181 -172h-146z" />
    <glyph glyph-name="lacute" unicode="&#x13a;" horiz-adv-x="301" 
d="M73 666l143 33v-699h-143v666zM67 779l125 172h202l-181 -172h-146z" />
    <glyph glyph-name="Lslash" unicode="&#x141;" horiz-adv-x="703" 
d="M285 127h377v-127h-521v230l-105 -38v149l105 38v320h144v-268l243 89v-149l-243 -89v-155z" />
    <glyph glyph-name="lslash" unicode="&#x142;" horiz-adv-x="425" 
d="M418 515v-139l-142 -64v-312h-144v249l-95 -42v139l95 42v278l144 33v-248z" />
    <glyph glyph-name="Nacute" unicode="&#x143;" horiz-adv-x="805" 
d="M581 699h144v-699h-147l-352 487h-2v-487h-144v699h148l350 -483h3v483zM321 782l125 172h202l-181 -172h-146z" />
    <glyph glyph-name="nacute" unicode="&#x144;" horiz-adv-x="689" 
d="M384 511q235 0 235 -261v-250h-142v238q0 145 -126 145q-62 0 -99.5 -38t-37.5 -107v-238h-144v495h121l22 -64h2q45 80 169 80zM237 578l125 172h202l-181 -172h-146z" />
    <glyph glyph-name="Ncaron" unicode="&#x147;" horiz-adv-x="805" 
d="M581 699h144v-699h-147l-352 487h-2v-487h-144v699h148l350 -483h3v483zM494 942h163v-9l-186 -185h-144l-186 185v9h164l94 -104z" />
    <glyph glyph-name="ncaron" unicode="&#x148;" horiz-adv-x="689" 
d="M384 511q235 0 235 -261v-250h-142v238q0 145 -126 145q-62 0 -99.5 -38t-37.5 -107v-238h-144v495h121l22 -64h2q45 80 169 80zM426 738h163v-9l-186 -185h-144l-186 185v9h164l94 -104z" />
    <glyph glyph-name="Ohungarumlaut" unicode="&#x150;" horiz-adv-x="867" 
d="M431 714q168 0 276 -104t108 -263q0 -155 -107 -259t-276 -104q-167 0 -275.5 105t-108.5 259q0 158 108.5 262t274.5 104zM432 112q112 0 175.5 64t63.5 172t-63.5 173.5t-176.5 65.5t-176 -64t-63 -174q0 -106 64.5 -171.5t175.5 -65.5zM281 785l45 254h143l-89 -254
h-99zM470 785l45 254h143l-89 -254h-99z" />
    <glyph glyph-name="ohungarumlaut" unicode="&#x151;" horiz-adv-x="651" 
d="M601 247q0 -103 -78 -183t-197 -80q-114 0 -195 77t-81 186t81 186.5t195 77.5t194.5 -77.5t80.5 -186.5zM326 384q-60 0 -96 -39.5t-36 -94.5q0 -63 34.5 -100.5t97.5 -37.5q58 0 94.5 38t36.5 100q0 56 -34 95t-97 39zM183 583l45 254h143l-89 -254h-99zM372 583
l45 254h143l-89 -254h-99z" />
    <glyph glyph-name="OE" unicode="&#x152;" horiz-adv-x="1038" 
d="M996 571h-342v-155h298v-122h-298v-166h342v-128h-552q-198 0 -291.5 84t-93.5 266q0 184 92 266.5t293 82.5h552v-128zM511 128v443h-67q-139 0 -190 -50t-51 -171q0 -116 51.5 -169t189.5 -53h67z" />
    <glyph glyph-name="oe" unicode="&#x153;" horiz-adv-x="1029" 
d="M1006 237v-36h-398q25 -90 126 -90q72 0 109 56l125 -60q-38 -57 -99.5 -90.5t-134.5 -33.5q-122 0 -204 87q-82 -87 -204 -87q-114 0 -195 77t-81 186t81 186.5t195 77.5q123 0 204 -86q81 86 204 86q120 0 196 -77.5t76 -195.5zM326 111q59 0 95.5 38.5t36.5 99.5
q0 56 -34.5 94.5t-97.5 38.5q-60 0 -96 -39.5t-36 -93.5q0 -63 34.5 -100.5t97.5 -37.5zM608 291h252q-11 41 -43.5 66t-82.5 25q-48 0 -80.5 -25.5t-45.5 -65.5z" />
    <glyph glyph-name="Racute" unicode="&#x154;" horiz-adv-x="781" 
d="M678 464q0 -168 -144 -219l146 -245h-152l-128 228h-177v-228h-143v699h342q117 0 186.5 -63.5t69.5 -171.5zM223 571v-216h199q49 0 80.5 28t31.5 81q0 107 -112 107h-199zM281 782l125 172h202l-181 -172h-146z" />
    <glyph glyph-name="racute" unicode="&#x155;" horiz-adv-x="469" 
d="M419 501v-152q-38 25 -88 25q-117 0 -117 -137v-237h-144v495h122l22 -64h2q23 41 54.5 60.5t89.5 19.5q31 0 59 -10zM147 578l125 172h202l-181 -172h-146z" />
    <glyph glyph-name="Rcaron" unicode="&#x158;" horiz-adv-x="725" 
d="M678 464q0 -168 -144 -219l146 -245h-152l-128 228h-177v-228h-143v699h342q117 0 186.5 -63.5t69.5 -171.5zM223 571v-216h199q49 0 80.5 28t31.5 81q0 107 -112 107h-199zM470 942h163v-9l-186 -185h-144l-186 185v9h164l94 -104z" />
    <glyph glyph-name="rcaron" unicode="&#x159;" horiz-adv-x="469" 
d="M423 501v-152q-37 25 -88 25q-117 0 -117 -137v-237h-144v495h122l22 -64h2q23 41 54.5 60.5t89.5 19.5q31 0 59 -10zM334 738h163v-9l-186 -185h-144l-186 185v9h164l94 -104z" />
    <glyph glyph-name="Sacute" unicode="&#x15a;" horiz-adv-x="719" 
d="M384 422q153 -20 219 -67.5t66 -142.5q0 -105 -84 -166.5t-236 -61.5q-91 0 -172.5 26t-126.5 78l97 100q33 -35 91 -55.5t111 -20.5q176 0 176 91q0 40 -36 61t-124 32l-28 4q-144 20 -203.5 66t-59.5 140q0 97 79.5 153t218.5 56q164 0 274 -91l-100 -98
q-30 29 -80.5 45.5t-93.5 16.5q-154 0 -154 -76q0 -30 28 -52t109 -34zM291 782l125 172h202l-181 -172h-146z" />
    <glyph glyph-name="sacute" unicode="&#x15b;" horiz-adv-x="561" 
d="M330 297q98 -21 139.5 -53t41.5 -93q0 -72 -58 -118t-178 -46q-69 0 -143.5 32.5t-103.5 74.5l109 74q19 -22 58.5 -37.5t85.5 -15.5q86 0 86 39q0 16 -18 25.5t-66 18.5l-48 9q-93 17 -132 51t-39 92q0 74 63 118.5t161 44.5q61 0 117.5 -25t96.5 -73l-110 -74
q-45 46 -114 46q-36 0 -53 -10t-17 -22q0 -31 70 -46zM206 578l125 172h202l-181 -172h-146z" />
    <glyph glyph-name="Scaron" unicode="&#x160;" horiz-adv-x="719" 
d="M384 422q153 -20 219 -67.5t66 -142.5q0 -105 -84 -166.5t-236 -61.5q-91 0 -172.5 26t-126.5 78l97 100q33 -35 91 -55.5t111 -20.5q176 0 176 91q0 40 -36 61t-124 32l-28 4q-144 20 -203.5 66t-59.5 140q0 97 79.5 153t218.5 56q164 0 274 -91l-100 -98
q-30 29 -80.5 45.5t-93.5 16.5q-154 0 -154 -76q0 -30 28 -52t109 -34zM463 953h163v-9l-186 -185h-144l-186 185v9h164l94 -104z" />
    <glyph glyph-name="scaron" unicode="&#x161;" horiz-adv-x="541" 
d="M333 297q98 -21 139.5 -53t41.5 -93q0 -72 -58 -118t-178 -46q-69 0 -143.5 32.5t-103.5 74.5l109 74q19 -22 58.5 -37.5t85.5 -15.5q86 0 86 39q0 16 -18 25.5t-66 18.5l-48 9q-93 17 -132 51t-39 92q0 74 63 118.5t161 44.5q61 0 117.5 -25t96.5 -73l-110 -74
q-45 46 -114 46q-36 0 -53 -10t-17 -22q0 -31 70 -46zM374 748h163v-9l-186 -185h-144l-186 185v9h164l94 -104z" />
    <glyph glyph-name="Tcaron" unicode="&#x164;" horiz-adv-x="635" 
d="M20 699h595v-127h-225v-572h-144v572h-226v127zM420 942h163v-9l-186 -185h-144l-186 185v9h164l94 -104z" />
    <glyph glyph-name="Uring" unicode="&#x16e;" horiz-adv-x="800" 
d="M576 699h144v-365q0 -157 -84 -253t-236 -96q-153 0 -236.5 96t-83.5 253v365h143v-365q0 -111 46 -166t131 -55q81 0 128.5 55.5t47.5 165.5v365zM582 900q0 -70 -52 -120t-126 -50t-126 50t-52 120q0 71 52.5 121t125.5 50t125.5 -50t52.5 -121zM338 900
q0 -26 19.5 -44.5t46.5 -18.5q28 0 47.5 18.5t19.5 44.5t-19.5 45t-47.5 19q-27 0 -46.5 -19t-19.5 -45z" />
    <glyph glyph-name="uring" unicode="&#x16f;" 
d="M292 -16q-234 0 -234 262v249h141v-237q0 -145 126 -145q62 0 100 38t38 107v237h144v-495h-122l-22 65h-2q-45 -81 -169 -81zM514 699q0 -70 -52 -120t-126 -50t-126 50t-52 120q0 71 52.5 121t125.5 50t125.5 -50t52.5 -121zM270 699q0 -26 19.5 -44.5t46.5 -18.5
q28 0 47.5 18.5t19.5 44.5t-19.5 45t-47.5 19q-27 0 -46.5 -19t-19.5 -45z" />
    <glyph glyph-name="Uhungarumlaut" unicode="&#x170;" horiz-adv-x="800" 
d="M576 699h144v-365q0 -157 -84 -253t-236 -96q-153 0 -236.5 96t-83.5 253v365h143v-365q0 -111 46 -166t131 -55q81 0 128.5 55.5t47.5 165.5v365zM255 746l45 254h143l-89 -254h-99zM444 746l45 254h143l-89 -254h-99z" />
    <glyph glyph-name="uhungarumlaut" unicode="&#x171;" 
d="M292 -16q-234 0 -234 262v249h141v-237q0 -145 126 -145q62 0 100 38t38 107v237h144v-495h-122l-22 65h-2q-45 -81 -169 -81zM184 572l45 254h143l-89 -254h-99zM373 572l45 254h143l-89 -254h-99z" />
    <glyph glyph-name="Ydieresis" unicode="&#x178;" horiz-adv-x="705" 
d="M528 699h167l-272 -454v-245h-143v246l-270 453h166l176 -312h2zM243 785q-33 0 -56 23t-23 56t23 56.5t56 23.5t56.5 -23.5t23.5 -56.5t-23.5 -56t-56.5 -23zM464 785q-33 0 -56 23t-23 56t23 56.5t56 23.5t56.5 -23.5t23.5 -56.5t-23.5 -56t-56.5 -23z" />
    <glyph glyph-name="Zacute" unicode="&#x179;" horiz-adv-x="649" 
d="M244 130v-2h355v-128h-549v118l354 450v3h-354v128h548v-115zM218 782l125 172h202l-181 -172h-146z" />
    <glyph glyph-name="zacute" unicode="&#x17a;" horiz-adv-x="587" 
d="M268 128h269v-128h-487v117l262 248v2h-256v128h472v-118l-260 -247v-2zM196 578l125 172h202l-181 -172h-146z" />
    <glyph glyph-name="Zdotaccent" unicode="&#x17b;" horiz-adv-x="649" 
d="M244 130v-2h355v-128h-549v118l354 450v3h-354v128h548v-115zM309 749q-33 0 -56 23t-23 56t23 56.5t56 23.5t56.5 -23.5t23.5 -56.5t-23.5 -56t-56.5 -23z" />
    <glyph glyph-name="zdotaccent" unicode="&#x17c;" horiz-adv-x="587" 
d="M268 128h269v-128h-487v117l262 248v2h-256v128h472v-118l-260 -247v-2zM293 545q-33 0 -56 23t-23 56t23 56.5t56 23.5t56.5 -23.5t23.5 -56.5t-23.5 -56t-56.5 -23z" />
    <glyph glyph-name="Zcaron" unicode="&#x17d;" horiz-adv-x="649" 
d="M247 130v-2h355v-128h-549v118l354 450v3h-354v128h548v-115zM419 942h163v-9l-186 -185h-144l-186 185v9h164l94 -104z" />
    <glyph glyph-name="zcaron" unicode="&#x17e;" horiz-adv-x="592" 
d="M270 128h269v-128h-487v117l262 248v2h-256v128h472v-118l-260 -247v-2zM385 738h163v-9l-186 -185h-144l-186 185v9h164l94 -104z" />
    <glyph glyph-name="florin" unicode="&#x192;" horiz-adv-x="404" 
d="M363 603q-60 0 -81 -20t-21 -71h102v-127h-102v-397q0 -104 -55 -155t-190 -51v128q50 0 76 20.5t26 57.5v397h-65v127h65q0 124 52.5 171t192.5 47v-127z" />
    <glyph glyph-name="circumflex" unicode="&#x2c6;" horiz-adv-x="600" 
d="M545 565h-163l-95 104l-94 -104h-164v9l186 185h144l186 -185v-9z" />
    <glyph glyph-name="caron" unicode="&#x2c7;" horiz-adv-x="600" 
d="M380 738h163v-9l-186 -185h-144l-186 185v9h164l94 -104z" />
    <glyph glyph-name="breve" unicode="&#x2d8;" horiz-adv-x="387" 
d="M263 723h112q0 -70 -52 -120t-126 -50t-126 49.5t-52 120.5h111q0 -31 19 -49.5t48 -18.5q28 0 47 18.5t19 49.5z" />
    <glyph glyph-name="dotaccent" unicode="&#x2d9;" horiz-adv-x="221" 
d="M108 545q-33 0 -56 23t-23 56t23 56.5t56 23.5t56.5 -23.5t23.5 -56.5t-23.5 -56t-56.5 -23z" />
    <glyph glyph-name="ring" unicode="&#x2da;" horiz-adv-x="424" 
d="M391 535q0 -70 -52 -120t-126 -50t-126 50t-52 120q0 71 52.5 121t125.5 50t125.5 -50t52.5 -121zM147 535q0 -26 19.5 -44.5t46.5 -18.5q28 0 47.5 18.5t19.5 44.5t-19.5 45t-47.5 19q-27 0 -46.5 -19t-19.5 -45z" />
    <glyph glyph-name="ogonek" unicode="&#x2db;" horiz-adv-x="240" 
d="M262 7q-4 -1 -10.5 -3.5t-23.5 -11.5t-30 -20t-23.5 -30.5t-10.5 -41.5q0 -51 64 -51q12 0 23 2.5t17 4.5l5 2v-105q-30 -12 -78 -12q-77 0 -120.5 35t-43.5 99q0 48 31.5 84t63.5 48l31 12z" />
    <glyph glyph-name="tilde" unicode="&#x2dc;" horiz-adv-x="492" 
d="M331 593q-38 0 -93.5 17.5t-86.5 17.5q-25 0 -51.5 -10t-41.5 -20l-14 -9v108q52 46 114 46q38 0 93.5 -17.5t86.5 -17.5q25 0 51.5 10t40.5 20l15 9v-108q-52 -46 -114 -46z" />
    <glyph glyph-name="hungarumlaut" unicode="&#x2dd;" horiz-adv-x="482" 
d="M19 445l45 254h143l-89 -254h-99zM208 445l45 254h143l-89 -254h-99z" />
    <glyph glyph-name="endash" unicode="&#x2013;" horiz-adv-x="524" 
d="M79 227v128h398v-128h-398z" />
    <glyph glyph-name="emdash" unicode="&#x2014;" horiz-adv-x="760" 
d="M79 227v128h635v-128h-635z" />
    <glyph glyph-name="quoteleft" unicode="&#x2018;" horiz-adv-x="178" 
d="M215 699l-45 -254h-143l89 254h99z" />
    <glyph glyph-name="quoteright" unicode="&#x2019;" horiz-adv-x="163" 
d="M19 445l45 254h143l-89 -254h-99z" />
    <glyph glyph-name="quotesinglbase" unicode="&#x201a;" horiz-adv-x="280" 
d="M27 -82l45 254h143l-89 -254h-99z" />
    <glyph glyph-name="quotedblleft" unicode="&#x201c;" horiz-adv-x="313" 
d="M410 699l-45 -254h-143l89 254h99zM213 699l-45 -254h-143l89 254h99z" />
    <glyph glyph-name="quotedblright" unicode="&#x201d;" horiz-adv-x="370" 
d="M19 445l45 254h143l-89 -254h-99zM216 445l45 254h143l-89 -254h-99z" />
    <glyph glyph-name="quotedblbase" unicode="&#x201e;" horiz-adv-x="488" 
d="M27 -82l45 254h143l-89 -254h-99zM216 -82l45 254h143l-89 -254h-99z" />
    <glyph glyph-name="dagger" unicode="&#x2020;" horiz-adv-x="575" 
d="M541 482v-127h-179v-508h-143v508h-179v127h179v168h143v-168h179z" />
    <glyph glyph-name="daggerdbl" unicode="&#x2021;" horiz-adv-x="603" 
d="M551 154v-127h-179v-181h-143v181h-179v127h179v200h-179v127h179v168h143v-168h179v-127h-179v-200h179z" />
    <glyph glyph-name="bullet" unicode="&#x2022;" horiz-adv-x="296" 
d="M149 212q-38 0 -65 27t-27 65q0 39 27 66.5t65 27.5q39 0 66.5 -27.5t27.5 -66.5q0 -38 -27.5 -65t-66.5 -27z" />
    <glyph glyph-name="ellipsis" unicode="&#x2026;" horiz-adv-x="711" 
d="M115 -7q-33 0 -56 23t-23 56t23 56.5t56 23.5t56.5 -23.5t23.5 -56.5t-23.5 -56t-56.5 -23zM352 -7q-33 0 -56 23t-23 56t23 56.5t56 23.5t56.5 -23.5t23.5 -56.5t-23.5 -56t-56.5 -23zM589 -7q-33 0 -56 23t-23 56t23 56.5t56 23.5t56.5 -23.5t23.5 -56.5t-23.5 -56
t-56.5 -23z" />
    <glyph glyph-name="perthousand" unicode="&#x2030;" horiz-adv-x="1295" 
d="M391 546q0 -71 -52.5 -121t-125.5 -50t-125.5 50t-52.5 121q0 70 52 120t126 50t126 -50t52 -120zM125 546q0 -33 26.5 -57t61.5 -24t61.5 23t26.5 58q0 34 -26.5 57t-61.5 23q-34 0 -60 -22.5t-28 -57.5zM706 326q74 0 126 -50t52 -120q0 -71 -52.5 -121t-125.5 -50
t-125.5 50t-52.5 121q0 70 52 120t126 50zM706 75q34 0 61 23.5t27 57.5q0 33 -26.5 56.5t-61.5 23.5q-34 0 -61 -22.5t-27 -57.5q0 -34 26.5 -57.5t61.5 -23.5zM1113 326q74 0 126 -50t52 -120q0 -71 -52.5 -121t-125.5 -50t-125.5 50t-52.5 121q0 70 52 120t126 50z
M1113 75q34 0 61 23.5t27 57.5q0 33 -26.5 56.5t-61.5 23.5q-34 0 -61 -22.5t-27 -57.5q0 -34 26.5 -57.5t61.5 -23.5zM620 714l74 -40l-420 -689l-70 38z" />
    <glyph glyph-name="guilsinglleft" unicode="&#x2039;" horiz-adv-x="216" 
d="M315 495l-120 -229l116 -231h-146l-113 231l118 229h145z" />
    <glyph glyph-name="guilsinglright" unicode="&#x203a;" horiz-adv-x="363" 
d="M140 266l-120 229h145l118 -229l-113 -231h-146z" />
    <glyph glyph-name="fraction" unicode="&#x2044;" horiz-adv-x="317" 
d="M114 -194h-112l260 970h113z" />
    <glyph glyph-name="Euro" unicode="&#x20ac;" horiz-adv-x="735" 
d="M507 113q60 0 108 20l77 -107q-84 -41 -185 -41q-133 1 -231.5 69.5t-134.5 180.5h-80v81h64q-2 22 -2 33q0 12 2 36h-64v81h81q36 113 134.5 181.5t229.5 67.5q114 0 201 -49l-77 -105q-54 27 -124 27q-160 0 -215 -122h254l-37 -81h-239q-2 -22 -2 -35q0 -12 2 -34h276
l-37 -81h-216q28 -57 83 -89.5t132 -32.5z" />
    <glyph glyph-name="trademark" unicode="&#x2122;" horiz-adv-x="939" 
d="M44 699h374v-88h-136v-320h-102v320h-136v88zM764 699h121v-408h-104v252h-2l-104 -180l-102 180h-2v-252h-104v408h121l87 -156h2z" />
    <glyph glyph-name="minus" unicode="&#x2212;" horiz-adv-x="563" 
d="M52 227v128h461v-128h-461z" />
    <glyph glyph-name="fi" unicode="&#xfb01;" horiz-adv-x="630" 
d="M245 495h312v-495h-143v367h-170v-367h-143v367h-64v128h64v18q0 101 47.5 149t162.5 48q21 0 41 -3v-126q-7 1 -21 1q-86 0 -86 -69v-18zM485 555q-33 0 -56 23t-23 56t23 56.5t56 23.5t56.5 -23.5t23.5 -56.5t-23.5 -56t-56.5 -23z" />
    <glyph glyph-name="fl" unicode="&#xfb02;" horiz-adv-x="664" 
d="M356 582q-87 0 -87 -69v-18h104v-128h-104v-367h-143v367h-64v128h64v18q0 101 48 149t162 48q50 0 111.5 -6.5t98.5 -13.5l36 -6v-684h-143v574q-38 8 -83 8z" />
    <glyph glyph-name="CR" horiz-adv-x="249" 
 />
    <glyph glyph-name="AV2" horiz-adv-x="787" 
d="M400 714q153 0 236.5 -96t83.5 -253v-365h-144v236h-352v-236h-144v365q0 157 84 253t236 96zM224 358h352v7q0 111 -45.5 166t-130.5 55q-82 0 -129 -55.5t-47 -165.5v-7z" />
    <glyph glyph-name="UV2" horiz-adv-x="794" 
d="M575 699h144v-699h-128l-16 54h-3q-28 -30 -83 -49.5t-103 -19.5q-169 0 -237.5 74.5t-68.5 273.5v366h143v-365q0 -122 43.5 -172t119.5 -50q100 0 189 52v535z" />
    <glyph glyph-name="RV1" horiz-adv-x="739" 
d="M722 468q0 -77 -34 -130.5t-101 -74.5l123 -263h-156l-107 240l-223 -28v-212h-144v699h398q109 0 176.5 -62.5t67.5 -168.5zM224 571v-231l241 28q59 6 86.5 27.5t27.5 72.5q0 103 -114 103h-241z" />
    <glyph glyph-name="RV2" horiz-adv-x="739" 
d="M565 260q17 -58 60 -94t98 -41l-9 -141q-125 16 -193.5 82t-97.5 171l-199 -25v-212h-144v699h398q109 0 176.5 -62.5t67.5 -168.5q0 -175 -155 -208h-2zM224 571v-231l241 28q59 6 86.5 27.5t27.5 72.5q0 103 -114 103h-241z" />
    <glyph glyph-name="RV3" horiz-adv-x="852" 
d="M817 408q2 -36 0.5 -61.5t-3.5 -39.5l-2 -14q-20 -135 -123.5 -221.5t-255.5 -86.5q-167 0 -275.5 105t-108.5 259q0 158 108.5 262t274.5 104q168 0 277 -104l-104 -85q-64 62 -173 62q-113 0 -176 -64t-63 -174q0 -106 64.5 -171.5t175.5 -65.5q96 0 157 48t77 132
h-280v115h430z" />
    <glyph glyph-name="KV1" horiz-adv-x="760" 
d="M715 699l-168 -349l193 -350h-170l-145 287h-201v-287h-144v699h144v-284h201l129 284h161z" />
    <glyph glyph-name="TT" horiz-adv-x="651" 
d="M29 495h585v-128h-221v-367h-143v367h-221v128z" />
    <glyph glyph-name="OO" horiz-adv-x="588" 
d="M53 52v128h492v-128h-492zM299 247q-101 0 -173 68.5t-72 165.5t72 166t173 69q102 0 173.5 -68.5t71.5 -166.5q0 -97 -71.5 -165.5t-173.5 -68.5zM299 602q-54 0 -85.5 -35t-31.5 -84q0 -56 31 -89.5t86 -33.5q52 0 84.5 34t32.5 89q0 50 -30 84.5t-87 34.5z" />
    <glyph glyph-name="&V1" horiz-adv-x="784" 
d="M767 430v-144h-88q-18 -137 -100 -219.5t-214 -82.5q-148 0 -231.5 102.5t-83.5 260.5q0 168 86 268.5t232 100.5q109 0 188 -61l-96 -94q-39 27 -95 27q-146 0 -168 -176zM368 111q146 0 167 175h-338q24 -175 171 -175z" />
    <glyph glyph-name="&V2" horiz-adv-x="839" 
d="M388 714q54 0 103.5 -7t72.5 -14l22 -7l-61 -126q-45 26 -138 26q-65 0 -107.5 -23t-42.5 -58q0 -41 27.5 -61t70.5 -20v-128q-73 0 -107 -23.5t-34 -58.5q0 -44 46 -73.5t147 -29.5q193 0 193 94q0 36 -38 63.5t-96 27.5v129l362 9v-138h-144v-2q30 -17 45 -47t15 -60
q0 -68 -46.5 -115t-121 -68t-169.5 -21q-147 0 -242 51t-95 151q0 48 15.5 84t37.5 53.5t44 28t37 12.5l16 2v2q-4 0 -11.5 1.5t-25.5 11t-32 25t-25.5 47.5t-11.5 75q0 80 73 133.5t221 53.5z" />
    <glyph glyph-name="&V3" horiz-adv-x="848" 
d="M724 188q0 -68 -46.5 -115t-121 -68t-169.5 -21q-147 0 -242 51t-95 151q0 48 15.5 84t37.5 53.5t44.5 28t38.5 12.5l15 2v2q-4 0 -11.5 1.5t-26 11t-32.5 25t-25.5 47.5t-11.5 75q0 80 73 133.5t221 53.5q54 0 103.5 -7t72.5 -14l22 -7l-61 -126q-44 26 -138 26
q-64 0 -106.5 -23t-42.5 -58q0 -41 27 -61t70 -20v-128q-73 0 -106.5 -23.5t-33.5 -58.5q0 -44 45.5 -73.5t146.5 -29.5q193 0 193 94q0 36 -38 63.5t-96 27.5l-1 129q68 0 105 2t66 6.5t40 16t16 26.5t5 42l145 1q0 -109 -43.5 -156.5t-125.5 -58.5v-2q3 -1 7.5 -3
t17 -10.5t22 -20t17 -33.5t7.5 -48z" />
    </font>
</defs>
</svg>
