<?xml version="1.0" standalone="no"?>
<!DOCTYPE svg PUBLIC "-//W3C//DTD SVG 1.1//EN" "http://www.w3.org/Graphics/SVG/1.1/DTD/svg11.dtd" >
<svg xmlns="http://www.w3.org/2000/svg" xmlns:xlink="http://www.w3.org/1999/xlink" version="1.1">
<metadata>
Created by FontForge 20170731 at Thu Oct 19 14:11:16 2017
 By Aleksey,,,
Copyright (c) 2017 by Jan-Christian Bruun. All rights reserved.
</metadata>
<defs>
<font id="ArkibalDisplay-Light" horiz-adv-x="741" >
  <font-face 
    font-family="Arkibal Display"
    font-weight="300"
    font-stretch="normal"
    units-per-em="1000"
    panose-1="2 0 5 3 0 0 0 2 0 4"
    ascent="750"
    descent="-250"
    x-height="495"
    cap-height="699"
    bbox="-82 -335 1280 1009"
    underline-thickness="50"
    underline-position="-200"
    unicode-range="U+0020-FB02"
  />
<missing-glyph horiz-adv-x="249" 
 />
    <glyph glyph-name=".notdef" horiz-adv-x="249" 
 />
    <glyph glyph-name=".null" horiz-adv-x="0" 
 />
    <glyph glyph-name="nonmarkingreturn" horiz-adv-x="333" 
 />
    <glyph glyph-name="space" unicode=" " horiz-adv-x="313" 
 />
    <glyph glyph-name="exclam" unicode="!" horiz-adv-x="227" 
d="M132 191h-39l-5 521h49zM156 43q0 19 -13.5 32.5t-32.5 13.5q-18 0 -31.5 -13.5t-13.5 -32.5q0 -18 13.5 -31.5t31.5 -13.5q19 0 32.5 13.5t13.5 31.5z" />
    <glyph glyph-name="quotedbl" unicode="&#x22;" horiz-adv-x="285" 
d="M49 460v239h42v-239h-42zM189 699h42v-239h-42v239z" />
    <glyph glyph-name="numbersign" unicode="#" horiz-adv-x="727" 
d="M496 190l-37 -197h-48l37 197h-225l-39 -197h-48l39 197h-124v47h133l45 228h-125v47h134l39 193h48l-39 -193h224l37 193h48l-37 -193h125v-47h-134l-44 -228h125v-47h-134zM232 237h225l44 228h-224z" />
    <glyph glyph-name="dollar" unicode="$" horiz-adv-x="673" 
d="M634 197q0 -60 -25.5 -103t-69 -65.5t-89 -32.5t-98.5 -11v-61h-42v61q-178 7 -282 102l31 36q95 -85 251 -92v314l-31 4q-227 27 -227 180q0 89 61.5 135t196.5 50v64h42v-64q138 -5 232 -72l-35 -33q-85 55 -197 59v-281l33 -4q249 -27 249 -186zM289 395l21 -3v276
q-114 -4 -161.5 -37.5t-47.5 -101.5q0 -56 42.5 -87.5t145.5 -46.5zM352 30q114 3 173.5 47.5t59.5 114.5q0 62 -51 98t-161 48l-21 2v-310z" />
    <glyph glyph-name="percent" unicode="%" horiz-adv-x="916" 
d="M391 543q0 -71 -52.5 -121t-125.5 -50q-74 0 -126 50t-52 121t52 120.5t126 49.5t126 -50t52 -120zM82 543q0 -51 38.5 -87t92.5 -36q53 0 91.5 36t38.5 87q0 50 -38.5 86t-91.5 36q-54 0 -92.5 -36t-38.5 -86zM695 323q74 0 126 -50t52 -121t-52 -120.5t-126 -49.5
q-73 0 -125 49.5t-52 120.5t52 121t125 50zM695 30q54 0 92.5 36t38.5 86q0 51 -38.5 87t-92.5 36q-53 0 -91.5 -36t-38.5 -87q0 -50 38.5 -86t91.5 -36zM644 714l44 -27l-431 -705l-39 23z" />
    <glyph glyph-name="ampersand" unicode="&#x26;" horiz-adv-x="655" 
d="M540 114l98 -114h-67q-28 33 -61 72q-3 -3 -8.5 -9t-25 -20.5t-42 -25.5t-60 -20t-77.5 -9q-115 0 -186 56t-71 154q0 42 18 78.5t40 57.5t52 38t43.5 22t24.5 8v1q-11 11 -25.5 28.5t-33.5 55.5t-19 69q0 68 52 113t149 45q35 0 68.5 -8t48.5 -16l16 -7v-53
q-59 39 -136 39q-73 0 -111.5 -32t-38.5 -78q0 -42 78 -137l239 -269q33 58 33 134l-1 19h55v-9q0 -50 -13 -95.5t-26 -66.5zM304 36q32 0 61.5 7.5t49 18t34 21.5t21.5 19l7 7l-232 259q-6 -1 -16.5 -4t-37 -16.5t-47 -30.5t-37 -49t-16.5 -70q0 -77 60.5 -119.5
t152.5 -42.5z" />
    <glyph glyph-name="quotesingle" unicode="'" horiz-adv-x="139" 
d="M49 460v239h42v-239h-42z" />
    <glyph glyph-name="parenleft" unicode="(" horiz-adv-x="309" 
d="M296 772q-7 -9 -18 -25t-39 -67t-49.5 -103.5t-39 -129t-17.5 -148.5t17.5 -147.5t42 -131.5t49 -101.5t42.5 -68.5l17 -24h-58q-7 8 -18 23.5t-39 65t-49.5 101.5t-39 128.5t-17.5 150.5t16.5 150.5t40 132.5t47.5 101.5t40 68.5l17 24h55z" />
    <glyph glyph-name="parenright" unicode=")" horiz-adv-x="314" 
d="M26 772h55q7 -9 17.5 -24.5t38.5 -66.5t49 -104t38.5 -130.5t17.5 -151.5t-17 -149.5t-41 -130.5t-47.5 -99.5t-40.5 -67.5l-17 -22h-58q7 9 18 25t40 67t51.5 103.5t40.5 129t18 148.5t-17 147.5t-40.5 131.5t-47.5 101.5t-41 68.5z" />
    <glyph glyph-name="asterisk" unicode="*" horiz-adv-x="414" 
d="M21 559l22 65l143 -68l-21 155h71l-21 -156l145 71l21 -67l-156 -31l112 -117l-59 -42l-76 142l-78 -143l-58 42l112 117z" />
    <glyph glyph-name="plus" unicode="+" horiz-adv-x="554" 
d="M510 366v-41h-216v-217h-41v217h-216v41h216v216h41v-216h216z" />
    <glyph glyph-name="comma" unicode="," horiz-adv-x="201" 
d="M173 89l-108 -201h-38l65 201h81z" />
    <glyph glyph-name="hyphen" unicode="-" horiz-adv-x="362" 
d="M52 265v44h255v-44h-255z" />
    <glyph glyph-name="period" unicode="." horiz-adv-x="203" 
d="M149 42q0 -18 -13.5 -31.5t-32.5 -13.5q-18 0 -31.5 13.5t-13.5 31.5q0 19 13.5 32.5t31.5 13.5q19 0 32.5 -13.5t13.5 -32.5z" />
    <glyph glyph-name="slash" unicode="/" horiz-adv-x="317" 
d="M49 -88l-44 13l229 845l45 -12z" />
    <glyph glyph-name="zero" unicode="0" horiz-adv-x="701" 
d="M651 351q0 -162 -80.5 -265.5t-220.5 -103.5q-142 0 -221 102.5t-79 260.5q0 162 80.5 265t221.5 103t220 -102t79 -260zM350 665q-116 0 -184 -89.5t-68 -225.5t69 -228t185 -92q115 0 183 90t68 226t-68.5 227.5t-184.5 91.5z" />
    <glyph glyph-name="one" unicode="1" horiz-adv-x="511" 
d="M281 47h193v-47h-435v47h194v602l-194 -45v51l200 44h42v-652z" />
    <glyph glyph-name="two" unicode="2" horiz-adv-x="560" 
d="M93 48h408v-48h-457v82q188 83 293 186t105 213q0 85 -48 132t-137 47q-128 0 -198 -90l-29 37q84 99 228 99q105 0 168.5 -57t63.5 -168q0 -239 -397 -426v-7z" />
    <glyph glyph-name="three" unicode="3" horiz-adv-x="553" 
d="M254 421q137 -15 193.5 -68.5t56.5 -145.5q0 -115 -71.5 -168.5t-229.5 -53.5q-109 0 -188 27l15 47q76 -29 173 -29q135 0 194.5 43t59.5 134q0 79 -54.5 121t-203.5 57l-6 38l215 227v4h-363v45h429l-1 -44l-222 -231l1 -3h2z" />
    <glyph glyph-name="four" unicode="4" horiz-adv-x="627" 
d="M588 212v-47h-84v-165h-47v164h-416v46l247 489h59l-254 -484v-3h364v171h47v-171h84z" />
    <glyph glyph-name="five" unicode="5" horiz-adv-x="560" 
d="M268 451q107 0 176 -63.5t69 -166.5q0 -106 -67.5 -171t-184.5 -65q-68 0 -121 16t-72 32l-20 16l18 50q3 -3 8 -7.5t23 -16.5t38.5 -21t55 -16.5t71.5 -7.5q96 0 149.5 52t53.5 135t-53.5 135t-148.5 52q-92 0 -175 -51l-16 6v340h401v-48h-353v-234l2 -1q63 35 146 35z
" />
    <glyph glyph-name="six" unicode="6" horiz-adv-x="615" 
d="M318 447q105 0 171 -63t66 -163q0 -99 -68 -168t-180 -69q-267 0 -267 351q0 110 25 187.5t69.5 117.5t93 56.5t106.5 16.5q106 0 173 -41l-25 -42q-70 36 -152 36q-117 0 -178.5 -77t-61.5 -232q0 -34 2 -50h2q5 16 12.5 30.5t25.5 36t40.5 36.5t61 26t84.5 11zM311 32
q92 0 140 53.5t48 135.5q0 79 -51.5 129t-139.5 50q-34 0 -67 -10t-63.5 -30.5t-49 -58t-18.5 -87.5q0 -83 54 -132.5t147 -49.5z" />
    <glyph glyph-name="seven" unicode="7" horiz-adv-x="511" 
d="M5 699h469v-41l-254 -658h-53l254 646v6h-416v47z" />
    <glyph glyph-name="eight" unicode="8" horiz-adv-x="648" 
d="M481 359q117 -45 117 -164q0 -210 -274 -210t-274 210q0 107 126 181v4q-48 21 -68.5 56.5t-20.5 90.5q0 100 60.5 143.5t176.5 43.5q237 0 237 -187q0 -52 -23.5 -95.5t-56.5 -67.5v-5zM135 527q0 -58 33 -87.5t127 -44.5l89 -12q26 -4 51 -10q77 62 77 154
q0 142 -188 142q-189 0 -189 -142zM324 28q227 0 227 167q0 58 -36.5 93.5t-130.5 49.5l-89 12q-34 5 -69 13q-128 -72 -128 -168q0 -74 58 -120.5t168 -46.5z" />
    <glyph glyph-name="nine" unicode="9" horiz-adv-x="595" 
d="M277 712q268 0 268 -350q0 -379 -294 -379q-104 0 -175 42l25 42q70 -36 154 -36q116 0 177.5 76.5t61.5 232.5q0 47 -1 56h-2q-5 -22 -18 -45t-37.5 -48t-68.5 -41t-100 -16q-104 0 -170.5 63.5t-66.5 163.5q0 101 65.5 170t181.5 69zM276 292q76 0 137 46.5t61 141.5
q0 83 -54 134t-147 51q-91 0 -139.5 -54.5t-48.5 -137.5q0 -80 51.5 -130.5t139.5 -50.5z" />
    <glyph glyph-name="colon" unicode=":" horiz-adv-x="193" 
d="M137 42q0 -18 -13.5 -31.5t-32.5 -13.5q-18 0 -31.5 13.5t-13.5 31.5q0 19 13.5 32.5t31.5 13.5q19 0 32.5 -13.5t13.5 -32.5zM137 406q0 -18 -13.5 -31.5t-32.5 -13.5q-18 0 -31.5 13.5t-13.5 31.5q0 19 13.5 32.5t31.5 13.5q19 0 32.5 -13.5t13.5 -32.5z" />
    <glyph glyph-name="semicolon" unicode=";" horiz-adv-x="192" 
d="M142 89l-108 -201h-38l65 201h81zM149 406q0 -18 -13.5 -31.5t-32.5 -13.5q-18 0 -31.5 13.5t-13.5 31.5q0 19 13.5 32.5t31.5 13.5q19 0 32.5 -13.5t13.5 -32.5z" />
    <glyph glyph-name="less" unicode="&#x3c;" horiz-adv-x="552" 
d="M529 521v-51l-421 -157l421 -158v-52l-484 185v49z" />
    <glyph glyph-name="equal" unicode="=" horiz-adv-x="522" 
d="M461 415h-394v44h394v-44zM461 214h-394v44h394v-44z" />
    <glyph glyph-name="greater" unicode="&#x3e;" horiz-adv-x="558" 
d="M34 521l484 -184v-49l-484 -185v52l421 158l-421 157v51z" />
    <glyph glyph-name="question" unicode="?" horiz-adv-x="502" 
d="M43 661q7 6 21.5 14.5t65.5 23t110 14.5q109 0 166.5 -51.5t57.5 -133.5q0 -58 -22.5 -99.5t-55 -60t-64.5 -28.5t-54 -10l-23 -1v-143h-48v184q10 -1 30 -1q94 0 141.5 42.5t47.5 111.5q0 67 -46 104.5t-136 37.5q-54 0 -101.5 -14t-68.5 -28l-21 -14v52zM266 43
q0 -18 -13.5 -31.5t-32.5 -13.5q-18 0 -31.5 13.5t-13.5 31.5q0 19 13.5 32.5t31.5 13.5q19 0 32.5 -13.5t13.5 -32.5z" />
    <glyph glyph-name="at" unicode="@" horiz-adv-x="989" 
d="M528 726q176 0 289.5 -102t113.5 -263q0 -127 -54 -210t-133 -83q-29 0 -51 10t-32.5 26.5t-14.5 26t-6 19.5h-1q-5 -9 -13 -19.5t-26 -26.5t-48.5 -26.5t-68.5 -10.5q-89 0 -138 55t-49 146q0 92 52 151t136 59q35 0 64.5 -10.5t47 -26t26 -26t12.5 -19.5h2l17 68h28
v-276q0 -40 18 -59.5t46 -19.5q52 0 95.5 66.5t43.5 182.5q0 146 -100.5 236t-256.5 90q-180 0 -299 -117t-119 -298t116.5 -297t301.5 -116q56 0 110 9t80 17l26 9v-43q-84 -34 -213 -34q-203 0 -335.5 126t-132.5 329q0 200 133 328.5t333 128.5zM496 108q58 0 99.5 43.5
t41.5 117.5q0 79 -42 123.5t-102 44.5q-75 0 -112.5 -47.5t-37.5 -120.5q0 -76 39 -118.5t114 -42.5z" />
    <glyph glyph-name="A" unicode="A" 
d="M678 0l-90 188h-435l-90 -188h-53l335 699h51l335 -699h-53zM175 233h391l-193 404h-4z" />
    <glyph glyph-name="B" unicode="B" horiz-adv-x="758" 
d="M557 350q73 -9 112 -56.5t39 -114.5q0 -84 -59.5 -131.5t-164.5 -47.5h-404v699h386q43 0 81 -10t70.5 -30t52 -56.5t19.5 -85.5q0 -56 -31.5 -103.5t-100.5 -60.5v-3zM127 651v-278h347q71 0 119.5 40t48.5 101q0 60 -48.5 98.5t-119.5 38.5h-347zM492 48q73 0 120.5 38
t47.5 100q0 58 -45 99t-140 41h-348v-278h365z" />
    <glyph glyph-name="C" unicode="C" horiz-adv-x="783" 
d="M694 143l40 -29q-52 -62 -133 -96.5t-165 -34.5q-165 0 -275.5 103.5t-110.5 262.5t109.5 263t276.5 104q88 0 165.5 -35.5t131.5 -97.5l-40 -29q-103 114 -257 114q-148 0 -243 -88.5t-95 -229.5q0 -140 97 -229.5t241 -89.5q77 0 144.5 29.5t113.5 82.5z" />
    <glyph glyph-name="D" unicode="D" horiz-adv-x="766" 
d="M315 699q220 0 310.5 -81.5t90.5 -268.5q0 -184 -92 -266.5t-309 -82.5h-245v699h245zM315 47q188 0 270.5 67t82.5 236t-82 235t-271 66h-197v-604h197z" />
    <glyph glyph-name="E" unicode="E" horiz-adv-x="648" 
d="M598 651h-470v-279h416v-46h-416v-278h470v-48h-518v699h518v-48z" />
    <glyph glyph-name="F" unicode="F" horiz-adv-x="618" 
d="M598 651h-470v-279h417v-46h-417v-326h-48v699h518v-48z" />
    <glyph glyph-name="G" unicode="G" horiz-adv-x="831" 
d="M414 368h346v-368h-40l-9 104h-3q-38 -57 -110.5 -89t-162.5 -32q-159 0 -272 105.5t-113 256.5t113 258.5t272 107.5q87 0 163.5 -34.5t130.5 -94.5l-40 -28q-102 110 -254 110q-139 0 -238 -93.5t-99 -225.5t98.5 -223t238.5 -91q129 0 203 63t74 169l1 62h-299v43z
" />
    <glyph glyph-name="H" unicode="H" horiz-adv-x="758" 
d="M630 699h48v-699h-48v326h-502v-326h-48v699h48v-326h502v326z" />
    <glyph glyph-name="I" unicode="I" horiz-adv-x="208" 
d="M80 699h48v-699h-48v699z" />
    <glyph glyph-name="J" unicode="J" horiz-adv-x="578" 
d="M181 699h327v-388q0 -189 -61.5 -258t-228.5 -69q-144 0 -208 48l36 36q55 -39 172 -39q145 0 193.5 58.5t48.5 224.5v339h-279v48z" />
    <glyph glyph-name="K" unicode="K" horiz-adv-x="693" 
d="M368 408l305 -408h-59l-282 370l-204 -217v-153h-48v699h48v-482l446 482h61z" />
    <glyph glyph-name="L" unicode="L" horiz-adv-x="537" 
d="M128 48h389v-48h-437v699h48v-651z" />
    <glyph glyph-name="M" unicode="M" horiz-adv-x="851" 
d="M718 699h50v-699h-48v610h-3l-294 -488h-4l-289 488h-3v-610h-47v699h51l290 -496h2z" />
    <glyph glyph-name="N" unicode="N" horiz-adv-x="767" 
d="M640 699h47v-699h-34l-523 610h-2v-610h-48v699h36l521 -608h3v608z" />
    <glyph glyph-name="O" unicode="O" horiz-adv-x="871" 
d="M435 714q160 0 273 -107.5t113 -258.5t-113 -256.5t-273 -105.5q-159 0 -272 105.5t-113 256.5t113 258.5t272 107.5zM435 33q141 0 239.5 91.5t98.5 223.5t-99 225t-239 93t-238.5 -93t-98.5 -225t98.5 -223.5t238.5 -91.5z" />
    <glyph glyph-name="P" unicode="P" horiz-adv-x="700" 
d="M80 699h348q109 0 175 -60t66 -157q0 -93 -68 -153t-173 -60h-299v-269h-49v699zM428 315q85 0 139.5 45t54.5 122t-53.5 124t-140.5 47h-299v-338h299z" />
    <glyph glyph-name="Q" unicode="Q" horiz-adv-x="871" 
d="M821 348q0 -133 -89.5 -233t-225.5 -123l81 -153h-64l-73 147h-15q-159 0 -272 105.5t-113 256.5t113 258.5t272 107.5q160 0 273 -107.5t113 -258.5zM435 33q141 0 239.5 91.5t98.5 223.5t-99 225t-239 93t-238.5 -93t-98.5 -225t98.5 -223.5t238.5 -91.5z" />
    <glyph glyph-name="R" unicode="R" horiz-adv-x="727" 
d="M669 482q0 -75 -46 -130t-121 -74l166 -278h-50l-159 270q-10 -1 -31 -1h-299v-269h-49v699h348q109 0 175 -60t66 -157zM428 315q85 0 139.5 45t54.5 122t-53.5 124t-140.5 47h-299v-338h299z" />
    <glyph glyph-name="S" unicode="S" horiz-adv-x="706" 
d="M408 384q248 -27 248 -185q0 -62 -27.5 -106.5t-74 -66.5t-94 -31t-101.5 -9q-195 0 -309 103l32 36q102 -93 277 -93q122 0 185.5 44.5t63.5 117.5q0 62 -51.5 97.5t-161.5 47.5l-100 12q-221 27 -221 180q0 94 68 139t217 45q68 0 134.5 -19t112.5 -53l-35 -33
q-39 26 -96.5 43t-115.5 17q-129 0 -182.5 -34t-53.5 -105q0 -57 43 -90t146 -45z" />
    <glyph glyph-name="T" unicode="T" horiz-adv-x="625" 
d="M20 699h585v-47h-269v-652h-48v652h-268v47z" />
    <glyph glyph-name="U" unicode="U" horiz-adv-x="799" 
d="M671 699h48v-366q0 -157 -84 -253.5t-235 -96.5q-153 0 -236.5 96.5t-83.5 253.5v366h48v-366q0 -142 72 -222t200 -80q127 0 199 80t72 222v366z" />
    <glyph glyph-name="V" unicode="V" horiz-adv-x="686" 
d="M343 49l70 172l215 478h48l-306 -699h-53l-307 699h55l209 -479l67 -171h2z" />
    <glyph glyph-name="W" unicode="W" horiz-adv-x="1007" 
d="M944 699h53l-209 -699h-55l-228 645h-2l-229 -645h-54l-210 699h54l137 -479l45 -171h2l56 167l175 483h51l174 -483l55 -167h3l45 171z" />
    <glyph glyph-name="X" unicode="X" horiz-adv-x="624" 
d="M551 0l-238 320h-2l-238 -320h-63l271 353v5l-259 341h57l232 -310h2l232 310h57l-259 -342v-4l271 -353h-63z" />
    <glyph glyph-name="Y" unicode="Y" horiz-adv-x="627" 
d="M561 699h56l-278 -412v-287h-48v287l-281 412h56l247 -363h4z" />
    <glyph glyph-name="Z" unicode="Z" horiz-adv-x="647" 
d="M118 49h479v-49h-547v36l476 612v3h-476v48h542l-1 -40l-473 -608v-2z" />
    <glyph glyph-name="bracketleft" unicode="[" horiz-adv-x="304" 
d="M270 731h-151v-863h151v-42h-196v947h196v-42z" />
    <glyph glyph-name="backslash" unicode="\" horiz-adv-x="289" 
d="M279 -75l-44 -13l-230 846l45 12z" />
    <glyph glyph-name="bracketright" unicode="]" horiz-adv-x="277" 
d="M159 731h-151v42h196v-947h-196v42h151v863z" />
    <glyph glyph-name="asciicircum" unicode="^" horiz-adv-x="484" 
d="M216 699h49l185 -384h-52l-158 334l-157 -334h-51z" />
    <glyph glyph-name="underscore" unicode="_" horiz-adv-x="488" 
d="M446 -44h-410v44h410v-44z" />
    <glyph glyph-name="grave" unicode="`" horiz-adv-x="201" 
d="M73 751l118 -166h-52l-140 166h74z" />
    <glyph glyph-name="a" unicode="a" horiz-adv-x="644" 
d="M311 512q129 0 194 -68t65 -187v-257h-34l-13 99h-2q-28 -50 -88 -82t-144 -32q-107 0 -164.5 41.5t-57.5 116.5q0 76 53 108.5t179 32.5q41 0 97 -4t91 -8l35 -4q0 89 -53 142.5t-158 53.5q-131 0 -197 -100l-46 22q84 126 243 126zM289 33q117 0 175 52t58 140
q-116 16 -223 16q-106 0 -145 -24t-39 -74q0 -110 174 -110z" />
    <glyph glyph-name="b" unicode="b" horiz-adv-x="670" 
d="M345 511q114 0 194.5 -77t80.5 -186t-80.5 -186t-194.5 -77q-69 0 -128.5 30.5t-97.5 82.5h-1l-12 -98h-36v682l48 17v-301h2q37 52 96.5 82.5t128.5 30.5zM345 33q94 0 160.5 63t66.5 152t-66.5 152t-160.5 63t-163.5 -63.5t-69.5 -151.5q0 -89 69.5 -152t163.5 -63z
" />
    <glyph glyph-name="c" unicode="c" horiz-adv-x="609" 
d="M515 131l44 -20q-37 -57 -99 -91t-135 -34q-114 0 -194.5 76.5t-80.5 185.5t80.5 186.5t194.5 77.5q71 0 132 -32t98 -87l-42 -23q-31 43 -80.5 68.5t-107.5 25.5q-94 0 -160.5 -63.5t-66.5 -152.5q0 -88 66.5 -151t160.5 -63q59 0 109 26.5t81 70.5z" />
    <glyph glyph-name="d" unicode="d" horiz-adv-x="670" 
d="M325 511q69 0 128.5 -30.5t96.5 -82.5h2v284l48 17v-699h-36l-12 98h-1q-38 -52 -97.5 -82.5t-128.5 -30.5q-114 0 -194.5 77t-80.5 186t80.5 186t194.5 77zM325 33q94 0 163.5 63t69.5 152q0 88 -69.5 151.5t-163.5 63.5t-160.5 -63t-66.5 -152t66.5 -152t160.5 -63z
" />
    <glyph glyph-name="e" unicode="e" horiz-adv-x="654" 
d="M523 130l41 -19q-38 -58 -100 -92.5t-136 -34.5q-116 0 -197 75.5t-81 188.5q0 110 78.5 186.5t199.5 76.5q123 0 199.5 -75t76.5 -188v-23h-505q8 -85 72 -139t157 -54q63 0 113.5 26t81.5 72zM328 464q-93 0 -156.5 -53.5t-72.5 -137.5h457q-9 84 -72.5 137.5
t-155.5 53.5z" />
    <glyph glyph-name="f" unicode="f" horiz-adv-x="306" 
d="M306 645q-28 14 -61 14q-90 0 -90 -100v-64h134v-47h-134l-1 -448h-47v448h-87v47h87v68q0 71 37.5 106.5t100.5 35.5q30 0 61 -11v-49z" />
    <glyph glyph-name="g" unicode="g" horiz-adv-x="670" 
d="M560 495h40v-420q0 -168 -69 -239t-218 -71q-64 0 -137.5 22.5t-100.5 43.5l13 45q40 -25 105 -45t120 -20q127 0 184 62t57 203v22h-3q-38 -52 -97.5 -82.5t-128.5 -30.5q-114 0 -194.5 77t-80.5 186t80.5 186t194.5 77q69 0 128.5 -30t97.5 -82h1zM325 33q95 0 164 63
t69 152t-69 152t-164 63q-94 0 -160.5 -63t-66.5 -152t66.5 -152t160.5 -63z" />
    <glyph glyph-name="h" unicode="h" horiz-adv-x="691" 
d="M345 511q127 0 201.5 -74t74.5 -189v-248h-48v248q0 96 -61.5 157t-162.5 61q-102 0 -166.5 -63.5t-64.5 -154.5v-248h-48v682l48 17v-301h2q38 52 97.5 82.5t127.5 30.5z" />
    <glyph glyph-name="i" unicode="i" horiz-adv-x="197" 
d="M75 0v495h48v-495h-48zM134 664q0 -14 -10.5 -24.5t-24.5 -10.5t-24.5 10.5t-10.5 24.5q0 15 10.5 25t24.5 10t24.5 -10t10.5 -25z" />
    <glyph glyph-name="j" unicode="j" horiz-adv-x="197" 
d="M75 -197v692h48v-682zM134 664q0 -14 -10.5 -24.5t-24.5 -10.5t-24.5 10.5t-10.5 24.5q0 15 10.5 25t24.5 10t24.5 -10t10.5 -25z" />
    <glyph glyph-name="k" unicode="k" horiz-adv-x="561" 
d="M546 0h-53l-197 286l-178 -170v-116h-48v682l48 17v-524l322 320h70l-179 -175z" />
    <glyph glyph-name="l" unicode="l" horiz-adv-x="188" 
d="M70 0v682l48 17v-699h-48z" />
    <glyph glyph-name="m" unicode="m" horiz-adv-x="1075" 
d="M776 511q109 0 169 -64.5t60 -198.5v-248h-47l-1 248q0 215 -181 215q-87 0 -151.5 -61t-64.5 -154v-248h-47l-1 248q0 97 -50 156t-136 59q-82 0 -145 -61.5t-63 -153.5v-248h-48v495h36l12 -97h1q29 50 88.5 81.5t118.5 31.5q84 0 140 -40.5t73 -116.5h1
q23 74 90.5 115.5t145.5 41.5z" />
    <glyph glyph-name="n" unicode="n" horiz-adv-x="689" 
d="M344 510q127 0 201 -74t74 -188v-248h-47l-1 248q0 96 -60.5 155.5t-166.5 59.5q-104 0 -165 -58t-61 -157v-248h-48v495h35l13 -97h2q38 52 97 82t127 30z" />
    <glyph glyph-name="o" unicode="o" horiz-adv-x="650" 
d="M325 511q114 0 194.5 -77t80.5 -186t-80.5 -186t-194.5 -77t-194.5 77t-80.5 186t80.5 186t194.5 77zM325 33q94 0 160.5 63t66.5 152t-66.5 152t-160.5 63t-160.5 -63t-66.5 -152t66.5 -152t160.5 -63z" />
    <glyph glyph-name="p" unicode="p" horiz-adv-x="671" 
d="M621 247q0 -109 -80.5 -186t-194.5 -77q-69 0 -128.5 30t-97.5 82h-2v-280l-48 -20v699h37l11 -98h2q37 52 97 82.5t129 30.5q114 0 194.5 -77t80.5 -186zM573 247q0 89 -66.5 152t-160.5 63q-95 0 -164.5 -63t-69.5 -152t69.5 -152t164.5 -63q94 0 160.5 63t66.5 152z
" />
    <glyph glyph-name="q" unicode="q" horiz-adv-x="671" 
d="M50 247q0 109 80.5 186t194.5 77q69 0 129 -30.5t97 -82.5h2l11 98h37v-680l-48 -19v300h-2q-38 -52 -97.5 -82t-128.5 -30q-114 0 -194.5 77t-80.5 186zM98 247q0 -89 66.5 -152t160.5 -63q95 0 164.5 63t69.5 152t-69.5 152t-164.5 63q-94 0 -160.5 -63t-66.5 -152z
" />
    <glyph glyph-name="r" unicode="r" horiz-adv-x="400" 
d="M312 506q33 0 75 -16v-53q-35 22 -75 22q-195 0 -195 -256v-203h-47v495h35l12 -97h2q27 53 79.5 80.5t113.5 27.5z" />
    <glyph glyph-name="s" unicode="s" horiz-adv-x="526" 
d="M328 265q96 -22 127 -52.5t31 -85.5q0 -71 -59.5 -106.5t-157.5 -35.5q-72 0 -140.5 22t-88.5 51l29 38q23 -24 79.5 -43.5t120.5 -19.5q90 0 129.5 25t39.5 64t-22.5 59.5t-97.5 39.5l-102 24q-97 23 -128 50t-31 81q0 61 58 97.5t154 36.5q66 0 120 -19t80 -46l-31 -38
q-65 55 -169 55q-75 0 -118 -23t-43 -62q0 -36 26 -54t95 -34z" />
    <glyph glyph-name="t" unicode="t" horiz-adv-x="341" 
d="M187 0h-49v448h-117v47h117v167l49 12v-179h135v-47h-135v-448z" />
    <glyph glyph-name="u" unicode="u" horiz-adv-x="667" 
d="M331 -15q-129 0 -195 69.5t-66 192.5v248h47l1 -248q0 -98 54 -156.5t159 -58.5q98 0 158 57.5t60 157.5v248h48v-495h-35l-13 97h-2q-81 -112 -216 -112z" />
    <glyph glyph-name="v" unicode="v" horiz-adv-x="512" 
d="M454 495h53l-225 -495h-52l-225 495h57l121 -275l70 -171h2l73 167z" />
    <glyph glyph-name="w" unicode="w" horiz-adv-x="810" 
d="M756 495h49l-187 -495h-51l-161 432h-2l-161 -432h-51l-187 495h53l95 -275l61 -171h2l61 167l109 279h41l106 -275l58 -171h2l62 167z" />
    <glyph glyph-name="x" unicode="x" horiz-adv-x="493" 
d="M488 0h-61l-181 223h-1l-180 -223h-60l210 256v1l-192 238h58l163 -204h2l165 204h58l-192 -238v-1z" />
    <glyph glyph-name="y" unicode="y" horiz-adv-x="546" 
d="M489 495h52l-350 -715h-55l107 220l-238 495h59l203 -439h3z" />
    <glyph glyph-name="z" unicode="z" horiz-adv-x="587" 
d="M129 48h408v-48h-487v31l404 413v3h-398v48h472v-37l-399 -408v-2z" />
    <glyph glyph-name="braceleft" unicode="{" horiz-adv-x="390" 
d="M225 25q0 -76 30.5 -113t112.5 -37v-46q-191 0 -191 184v138q0 61 -26 92t-67 31v49q42 0 67.5 29.5t25.5 90.5v132q0 105 44.5 153t146.5 48v-46q-80 0 -111.5 -39.5t-31.5 -114.5v-136q0 -121 -85 -140v-3q39 -10 62 -40t23 -98v-134z" />
    <glyph glyph-name="bar" unicode="|" horiz-adv-x="202" 
d="M122 -121h-42v850h42v-850z" />
    <glyph glyph-name="braceright" unicode="}" horiz-adv-x="375" 
d="M166 25v134q0 68 23 98t62 40v3q-85 19 -85 140v136q0 75 -31.5 114.5t-111.5 39.5v46q102 0 146.5 -48t44.5 -153v-132q0 -61 25.5 -90.5t67.5 -29.5v-49q-41 0 -67 -31t-26 -92v-138q0 -184 -191 -184v46q82 0 112.5 37t30.5 113z" />
    <glyph glyph-name="asciitilde" unicode="~" horiz-adv-x="467" 
d="M321 291q22 0 45.5 11t35.5 22l13 11v-45q-5 -5 -14 -12.5t-35.5 -20.5t-50.5 -13q-34 0 -82.5 17.5t-75.5 17.5q-22 0 -45.5 -9.5t-35.5 -19.5l-13 -10v45q45 41 100 41q34 0 82.5 -17.5t75.5 -17.5z" />
    <glyph glyph-name="exclamdown" unicode="&#xa1;" horiz-adv-x="161" 
d="M101 276h-37l-5 -394h47zM125 388q0 -14 -13.5 -24t-31.5 -10q-17 0 -30 10t-13 24t13 24.5t30 10.5q18 0 31.5 -10.5t13.5 -24.5z" />
    <glyph glyph-name="cent" unicode="&#xa2;" horiz-adv-x="597" 
d="M552 111q-34 -53 -90 -86t-123 -38v-102h-42v102q-108 8 -181.5 83t-73.5 179t73.5 179.5t181.5 83.5v102h42v-103q64 -4 119 -35.5t90 -81.5l-43 -24q-59 83 -166 94v-429q110 11 169 97zM90 249q0 -84 60 -145t147 -69v429q-87 -8 -147 -69.5t-60 -145.5z" />
    <glyph glyph-name="sterling" unicode="&#xa3;" horiz-adv-x="571" 
d="M118 49h411v-49h-471v70q49 16 85.5 50t36.5 93q0 25 -6 55t-12 48l-5 17h-99v49h81q-29 78 -29 145q0 91 62.5 143.5t160.5 52.5q44 0 82 -8.5t54 -16.5l16 -8v-55q-60 39 -158 39q-75 0 -119.5 -41t-44.5 -106q0 -29 8 -65.5t16 -57.5l8 -22h204v-49h-187
q21 -61 21 -118q0 -37 -13 -67.5t-34 -50t-37 -29.5t-31 -16v-3z" />
    <glyph glyph-name="currency" unicode="&#xa4;" horiz-adv-x="431" 
d="M332 379q0 -34 -22 -64l68 -68l-32 -32l-70 70q-27 -15 -62 -15q-37 0 -63 14l-70 -69l-33 32l68 68q-20 28 -20 64q0 38 20 66l-68 68l33 32l70 -70q32 15 63 15q32 0 62 -15l70 70l32 -32l-68 -68q22 -30 22 -66zM214 315q29 0 47.5 18t18.5 46q0 30 -18.5 47.5
t-47.5 17.5q-30 0 -48.5 -17.5t-18.5 -47.5q0 -29 18.5 -46.5t48.5 -17.5z" />
    <glyph glyph-name="yen" unicode="&#xa5;" horiz-adv-x="630" 
d="M580 699l-223 -367h223v-49h-249v-87h249v-50h-249v-146h-47v146h-250v50h250v87h-250v49h223l-223 367h56l217 -362h1l217 362h55z" />
    <glyph glyph-name="brokenbar" unicode="&#xa6;" horiz-adv-x="158" 
d="M60 729h41v-374h-41v374zM60 -121v378h41v-378h-41z" />
    <glyph glyph-name="section" unicode="&#xa7;" horiz-adv-x="584" 
d="M530 320q0 -102 -127 -130v-3q46 -20 65.5 -46t19.5 -64q0 -71 -67 -107t-167 -36q-88 0 -158 33l14 49q59 -34 144 -34q91 0 138.5 26t47.5 63q0 36 -29 58t-107 41l-103 24q-79 7 -123 43.5t-46 79.5t32 84.5t96 58.5v2q-47 19 -65 44t-18 66q0 131 222 131
q76 0 134 -29l-14 -50q-55 31 -120 31q-171 0 -171 -83q0 -35 29.5 -54t99.5 -36l99 -24q99 -23 136.5 -54.5t37.5 -83.5zM298 219q59 -13 121.5 17t62.5 78q0 37 -29 58.5t-107 40.5l-72 17q-67 13 -127.5 -18t-60.5 -83q0 -35 29 -54t99 -36z" />
    <glyph glyph-name="dieresis" unicode="&#xa8;" horiz-adv-x="397" 
d="M122 653q0 -18 -13.5 -31.5t-32.5 -13.5q-18 0 -31.5 13.5t-13.5 31.5q0 19 13.5 32.5t31.5 13.5q19 0 32.5 -13.5t13.5 -32.5zM364 653q0 -18 -13.5 -31.5t-32.5 -13.5q-18 0 -31.5 13.5t-13.5 31.5q0 19 13.5 32.5t31.5 13.5q19 0 32.5 -13.5t13.5 -32.5z" />
    <glyph glyph-name="copyright" unicode="&#xa9;" horiz-adv-x="770" 
d="M390 495q-62 0 -104.5 -40t-42.5 -98q0 -59 42.5 -98.5t104.5 -39.5q60 0 104 41l3 4l30 -21l-6 -6q-55 -53 -131 -53q-75 0 -128 50.5t-53 122.5q0 71 53 121.5t128 50.5q84 0 140 -62l5 -6l-29 -20l-4 4q-44 50 -112 50zM385 672q136 0 232 -92t96 -222t-96 -222
t-232 -92t-232 92t-96 222t96 222t232 92zM385 83q119 0 204 80.5t85 194.5q0 113 -85 194t-204 81q-120 0 -204.5 -81t-84.5 -194q0 -114 84.5 -194.5t204.5 -80.5z" />
    <glyph glyph-name="ordfeminine" unicode="&#xaa;" horiz-adv-x="474" 
d="M231 711q95 0 143 -49.5t48 -136.5l-1 -188h-33l-7 68h-1q-47 -80 -164 -80q-79 0 -121 30.5t-42 85.5t38.5 79.5t131.5 24.5q30 0 69 -3t63 -6l24 -3q0 137 -148 137q-95 0 -140 -68l-37 17q60 92 177 92zM216 367q163 0 163 133q-78 8 -156 8t-103 -15t-25 -52
q0 -36 27 -55t94 -19z" />
    <glyph glyph-name="guillemotleft" unicode="&#xab;" horiz-adv-x="496" 
d="M264 469l-156 -203l153 -204h-58l-151 204l155 203h57zM465 469l-156 -203l153 -204h-58l-151 204l155 203h57z" />
    <glyph glyph-name="logicalnot" unicode="&#xac;" horiz-adv-x="541" 
d="M480 223h-53v166h-382v50h435v-216z" />
    <glyph glyph-name="registered" unicode="&#xae;" horiz-adv-x="762" 
d="M543 425q0 -37 -19.5 -62.5t-54.5 -33.5l64 -133h-41l-62 130h-151v-130h-35v330h191q50 0 79 -27t29 -74zM441 359q29 0 48.5 19t19.5 47q0 29 -19.5 48.5t-48.5 19.5h-162v-134h162zM379 673q136 0 232 -91.5t96 -221.5q0 -131 -96 -222.5t-232 -91.5t-231.5 92
t-95.5 222t95.5 221.5t231.5 91.5zM379 85q120 0 204.5 80.5t84.5 194.5q0 113 -84.5 193.5t-204.5 80.5q-119 0 -203.5 -80.5t-84.5 -193.5q0 -114 84.5 -194.5t203.5 -80.5z" />
    <glyph glyph-name="degree" unicode="&#xb0;" horiz-adv-x="418" 
d="M382 545q0 -71 -52 -120.5t-126 -49.5t-126 50t-52 120q0 71 52.5 121t125.5 50q74 0 126 -50t52 -121zM74 545q0 -50 38 -86t92 -36t92 36t38 86q0 51 -38 87t-92 36t-92 -36t-38 -87z" />
    <glyph glyph-name="plusminus" unicode="&#xb1;" horiz-adv-x="594" 
d="M65 80v42h473v-42h-473zM322 448h216v-42h-216v-216h-41v216h-216v42h216v216h41v-216z" />
    <glyph glyph-name="twosuperior" unicode="&#xb2;" horiz-adv-x="292" 
d="M102 432h159v-42h-219v53l6 2q78 35 122.5 79.5t44.5 88.5q0 66 -70 66q-51 0 -78 -34l-8 -11l-26 34l5 6q40 47 107 47q52 0 82 -29t30 -80q0 -101 -155 -179v-1z" />
    <glyph glyph-name="threesuperior" unicode="&#xb3;" horiz-adv-x="290" 
d="M160 575q50 -9 74 -33.5t24 -67.5q0 -106 -141 -106q-51 0 -86 12l-12 4l21 36l9 -3q27 -11 68 -11q58 0 78.5 16.5t20.5 51.5q0 33 -18 47t-84 20l-9 1l-4 28l82 86v2h-145v41h206v-34l-84 -88v-2z" />
    <glyph glyph-name="acute" unicode="&#xb4;" horiz-adv-x="198" 
d="M-1 585l118 166h74l-140 -166h-52z" />
    <glyph glyph-name="mu" unicode="&#xb5;" horiz-adv-x="673" 
d="M612 247q0 -115 -74.5 -189t-201.5 -74q-68 0 -127.5 30.5t-97.5 82.5h-2v-285l-48 -16v699h48v-248q0 -91 64.5 -154.5t166.5 -63.5q101 0 162.5 61t61.5 157v248h48v-248z" />
    <glyph glyph-name="paragraph" unicode="&#xb6;" horiz-adv-x="496" 
d="M219 699h235v-45h-60v-654h-49v654h-72v-654h-49v413h-9q-167 0 -167 147q0 139 171 139z" />
    <glyph glyph-name="periodcentered" unicode="&#xb7;" horiz-adv-x="210" 
d="M152 291q0 -18 -13.5 -31.5t-32.5 -13.5q-18 0 -31.5 13.5t-13.5 31.5q0 19 13.5 32.5t31.5 13.5q19 0 32.5 -13.5t13.5 -32.5z" />
    <glyph glyph-name="cedilla" unicode="&#xb8;" horiz-adv-x="329" 
d="M117 -32q92 0 139 -34t47 -92q0 -130 -153 -130q-36 0 -66.5 6t-43.5 12l-13 7v55q55 -31 123 -31q58 0 81 17.5t23 61.5q0 38 -33 58.5t-117 20.5h-31l2 104h41z" />
    <glyph glyph-name="onesuperior" unicode="&#xb9;" horiz-adv-x="285" 
d="M249 417v-42h-211v42h85v236l-85 -18v43l95 21h31v-282h85z" />
    <glyph glyph-name="ordmasculine" unicode="&#xba;" horiz-adv-x="484" 
d="M239 708q83 0 141.5 -56.5t58.5 -135.5t-59 -135t-141 -56q-83 0 -142 56t-59 135q0 80 59 136t142 56zM239 366q66 0 112.5 44t46.5 106t-46.5 106.5t-112.5 44.5t-112.5 -44.5t-46.5 -106.5t46.5 -106t112.5 -44z" />
    <glyph glyph-name="guillemotright" unicode="&#xbb;" horiz-adv-x="488" 
d="M377 266l-156 203h57l155 -203l-151 -204h-58zM176 266l-156 203h57l155 -203l-151 -204h-58z" />
    <glyph glyph-name="onequarter" unicode="&#xbc;" horiz-adv-x="778" 
d="M261 417v-42h-211v42h85v236l-85 -18v43l96 21h31v-282h84zM693 118h41v-40h-41v-78h-41v78h-184l2 34l113 212h47l-111 -205v-1h133v59h41v-59zM571 715l40 -25l-431 -705l-35 21z" />
    <glyph glyph-name="onehalf" unicode="&#xbd;" horiz-adv-x="776" 
d="M261 417v-42h-210v42h84v236l-84 -18v43l95 21h31v-282h84zM560 42h159v-42h-219v53l6 3q78 35 122.5 79t44.5 88q0 67 -70 67q-51 0 -78 -35l-8 -10l-26 33l5 7q40 47 107 47q52 0 82 -29t30 -80q0 -101 -155 -179v-2zM571 715l40 -25l-431 -705l-35 21z" />
    <glyph glyph-name="threequarters" unicode="&#xbe;" horiz-adv-x="772" 
d="M292 475q0 -107 -141 -107q-50 0 -85 12l-12 4l21 36l8 -3q30 -10 68 -10q58 0 79 16.5t21 51.5q0 32 -18.5 46t-84.5 21h-8l-4 28l81 87v1h-145v41h207l-1 -34l-84 -88v-2q98 -16 98 -100zM665 118h42v-40h-42v-78h-41v78h-183l1 34l113 212h47l-111 -205v-1h133v59h41
v-59zM571 715l40 -25l-431 -705l-35 21z" />
    <glyph glyph-name="questiondown" unicode="&#xbf;" horiz-adv-x="502" 
d="M464 -216q-7 -6 -21.5 -14.5t-65.5 -23t-110 -14.5q-109 0 -166.5 51.5t-57.5 133.5q0 42 12 75.5t31.5 54t42.5 35t46.5 21t43 10t31.5 3.5h12v143h48v-184q-10 1 -30 1q-94 0 -141.5 -42.5t-47.5 -111.5q0 -67 46 -104.5t136 -37.5q54 0 101.5 14t68.5 28l21 14v-52z
M241 402q0 18 13.5 31.5t32.5 13.5q18 0 31.5 -13.5t13.5 -31.5q0 -19 -13.5 -32.5t-31.5 -13.5q-19 0 -32.5 13.5t-13.5 32.5z" />
    <glyph glyph-name="Agrave" unicode="&#xc0;" 
d="M678 0l-90 188h-435l-90 -188h-53l335 699h51l335 -699h-53zM175 233h391l-193 404h-4zM266 955l115 -166h-51l-136 166h72z" />
    <glyph glyph-name="Aacute" unicode="&#xc1;" 
d="M678 0l-90 188h-435l-90 -188h-53l335 699h51l335 -699h-53zM175 233h391l-193 404h-4zM348 789l118 166h74l-140 -166h-52z" />
    <glyph glyph-name="Acircumflex" unicode="&#xc2;" 
d="M678 0l-90 188h-435l-90 -188h-53l335 699h51l335 -699h-53zM175 233h391l-193 404h-4zM347 933h50l160 -161v-8h-58l-127 132l-126 -132h-59v8z" />
    <glyph glyph-name="Atilde" unicode="&#xc3;" 
d="M678 0l-90 188h-435l-90 -188h-53l335 699h51l335 -699h-53zM175 233h391l-193 404h-4zM440 858q22 0 45.5 11t36.5 22l12 11v-45q-5 -5 -14 -12.5t-35.5 -20.5t-50.5 -13q-34 0 -82.5 17.5t-75.5 17.5q-22 0 -45.5 -10t-36.5 -20l-12 -9v45q45 41 100 41
q34 0 82.5 -17.5t75.5 -17.5z" />
    <glyph glyph-name="Adieresis" unicode="&#xc4;" 
d="M678 0l-90 188h-435l-90 -188h-53l335 699h51l335 -699h-53zM175 233h391l-193 404h-4zM297 857q0 -18 -13.5 -31.5t-32.5 -13.5q-18 0 -31.5 13.5t-13.5 31.5q0 19 13.5 32.5t31.5 13.5q19 0 32.5 -13.5t13.5 -32.5zM539 857q0 -18 -13.5 -31.5t-32.5 -13.5
q-18 0 -31.5 13.5t-13.5 31.5q0 19 13.5 32.5t31.5 13.5q19 0 32.5 -13.5t13.5 -32.5z" />
    <glyph glyph-name="Aring" unicode="&#xc5;" 
d="M412 666l319 -666h-53l-89 188h-435l-90 -188h-54l320 666q-38 13 -61.5 43.5t-23.5 69.5q0 50 37 85.5t89 35.5t89 -35.5t37 -85.5q0 -38 -24 -69t-61 -44zM288 779q0 -32 24.5 -55.5t58.5 -23.5t58.5 23.5t24.5 55.5q0 33 -24.5 56.5t-58.5 23.5t-58.5 -23.5
t-24.5 -56.5zM176 233h391l-194 404h-4z" />
    <glyph glyph-name="AE" unicode="&#xc6;" horiz-adv-x="990" 
d="M707 48h233v-48h-263l-90 188h-433l-90 -188h-54l335 699h522v-48h-449l134 -279h294v-46h-272zM175 234h391l-194 403h-4z" />
    <glyph glyph-name="Ccedilla" unicode="&#xc7;" horiz-adv-x="776" 
d="M733 114q-52 -62 -132.5 -96.5t-164.5 -34.5l1 -62q92 0 139.5 -34.5t47.5 -92.5q0 -129 -153 -129q-36 0 -67 6.5t-44 12.5l-13 6v54q55 -30 123 -30q58 0 81 17.5t23 60.5q0 38 -33 58.5t-117 20.5h-30l1 114q-151 13 -248.5 114t-97.5 250q0 159 109.5 263t276.5 104
q88 0 165.5 -35.5t131.5 -97.5l-40 -29q-103 114 -257 114q-148 0 -243 -88.5t-95 -229.5q0 -140 97 -229.5t241 -89.5q77 0 144 30t114 82z" />
    <glyph glyph-name="Egrave" unicode="&#xc8;" horiz-adv-x="648" 
d="M598 651h-470v-279h416v-46h-416v-278h470v-48h-518v699h518v-48zM255 955l118 -166h-52l-140 166h74z" />
    <glyph glyph-name="Eacute" unicode="&#xc9;" horiz-adv-x="648" 
d="M598 651h-470v-279h416v-46h-416v-278h470v-48h-518v699h518v-48zM324 789l118 166h74l-140 -166h-52z" />
    <glyph glyph-name="Ecircumflex" unicode="&#xca;" horiz-adv-x="648" 
d="M598 651h-470v-279h416v-46h-416v-278h470v-48h-518v699h518v-48zM307 933h50l160 -161v-8h-58l-127 132l-126 -132h-59v8z" />
    <glyph glyph-name="Edieresis" unicode="&#xcb;" horiz-adv-x="648" 
d="M598 651h-470v-279h416v-46h-416v-278h470v-48h-518v699h518v-48zM258 857q0 -18 -13.5 -31.5t-32.5 -13.5q-18 0 -31.5 13.5t-13.5 31.5q0 19 13.5 32.5t31.5 13.5q19 0 32.5 -13.5t13.5 -32.5zM500 857q0 -18 -13.5 -31.5t-32.5 -13.5q-18 0 -31.5 13.5t-13.5 31.5
q0 19 13.5 32.5t31.5 13.5q19 0 32.5 -13.5t13.5 -32.5z" />
    <glyph glyph-name="Igrave" unicode="&#xcc;" horiz-adv-x="208" 
d="M80 699h48v-699h-48v699zM13 955l118 -166h-52l-140 166h74z" />
    <glyph glyph-name="Iacute" unicode="&#xcd;" horiz-adv-x="208" 
d="M80 699h48v-699h-48v699zM78 789l118 166h74l-140 -166h-52z" />
    <glyph glyph-name="Icircumflex" unicode="&#xce;" horiz-adv-x="208" 
d="M80 699h48v-699h-48v699zM78 933h50l160 -161v-8h-58l-127 132l-126 -132h-59v8z" />
    <glyph glyph-name="Idieresis" unicode="&#xcf;" horiz-adv-x="208" 
d="M80 699h48v-699h-48v699zM29 857q0 -18 -13.5 -31.5t-32.5 -13.5q-18 0 -31.5 13.5t-13.5 31.5q0 19 13.5 32.5t31.5 13.5q19 0 32.5 -13.5t13.5 -32.5zM271 857q0 -18 -13.5 -31.5t-32.5 -13.5q-18 0 -31.5 13.5t-13.5 31.5q0 19 13.5 32.5t31.5 13.5q19 0 32.5 -13.5
t13.5 -32.5z" />
    <glyph glyph-name="Eth" unicode="&#xd0;" horiz-adv-x="854" 
d="M387 699q219 0 310 -81.5t91 -267.5q0 -184 -92.5 -267t-308.5 -83h-245v326h-96v47h96v326h245zM387 48q188 0 270.5 67t82.5 236t-82 234.5t-271 65.5h-197v-278h294v-47h-294v-278h197z" />
    <glyph glyph-name="Ntilde" unicode="&#xd1;" horiz-adv-x="767" 
d="M640 699h47v-699h-34l-523 610h-2v-610h-48v699h36l521 -608h3v608zM466 858q22 0 45.5 11t36.5 22l12 11v-45q-5 -5 -14 -12.5t-35.5 -20.5t-50.5 -13q-34 0 -82.5 17.5t-75.5 17.5q-22 0 -45.5 -10t-36.5 -20l-12 -9v45q45 41 100 41q34 0 82.5 -17.5t75.5 -17.5z" />
    <glyph glyph-name="Ograve" unicode="&#xd2;" horiz-adv-x="871" 
d="M435 714q160 0 273 -107.5t113 -258.5t-113 -256.5t-273 -105.5q-159 0 -272 105.5t-113 256.5t113 258.5t272 107.5zM435 33q141 0 239.5 91.5t98.5 223.5t-99 225t-239 93t-238.5 -93t-98.5 -225t98.5 -223.5t238.5 -91.5zM335 955l118 -166h-52l-140 166h74z" />
    <glyph glyph-name="Oacute" unicode="&#xd3;" horiz-adv-x="871" 
d="M435 714q160 0 273 -107.5t113 -258.5t-113 -256.5t-273 -105.5q-159 0 -272 105.5t-113 256.5t113 258.5t272 107.5zM435 33q141 0 239.5 91.5t98.5 223.5t-99 225t-239 93t-238.5 -93t-98.5 -225t98.5 -223.5t238.5 -91.5zM418 789l118 166h74l-140 -166h-52z" />
    <glyph glyph-name="Ocircumflex" unicode="&#xd4;" horiz-adv-x="871" 
d="M435 714q160 0 273 -107.5t113 -258.5t-113 -256.5t-273 -105.5q-159 0 -272 105.5t-113 256.5t113 258.5t272 107.5zM435 33q141 0 239.5 91.5t98.5 223.5t-99 225t-239 93t-238.5 -93t-98.5 -225t98.5 -223.5t238.5 -91.5zM410 933h50l160 -161v-8h-58l-127 132
l-126 -132h-59v8z" />
    <glyph glyph-name="Otilde" unicode="&#xd5;" horiz-adv-x="871" 
d="M435 714q160 0 273 -107.5t113 -258.5t-113 -256.5t-273 -105.5q-159 0 -272 105.5t-113 256.5t113 258.5t272 107.5zM435 33q141 0 239.5 91.5t98.5 223.5t-99 225t-239 93t-238.5 -93t-98.5 -225t98.5 -223.5t238.5 -91.5zM519 858q22 0 45.5 11t35.5 22l13 11v-45
q-5 -5 -14 -12.5t-35.5 -20.5t-50.5 -13q-34 0 -82.5 17.5t-75.5 17.5q-22 0 -45.5 -10t-35.5 -20l-13 -9v45q45 41 100 41q34 0 82.5 -17.5t75.5 -17.5z" />
    <glyph glyph-name="Odieresis" unicode="&#xd6;" horiz-adv-x="871" 
d="M435 714q160 0 273 -107.5t113 -258.5t-113 -256.5t-273 -105.5q-159 0 -272 105.5t-113 256.5t113 258.5t272 107.5zM435 33q141 0 239.5 91.5t98.5 223.5t-99 225t-239 93t-238.5 -93t-98.5 -225t98.5 -223.5t238.5 -91.5zM363 857q0 -18 -13.5 -31.5t-32.5 -13.5
q-18 0 -31.5 13.5t-13.5 31.5q0 19 13.5 32.5t31.5 13.5q19 0 32.5 -13.5t13.5 -32.5zM605 857q0 -18 -13.5 -31.5t-32.5 -13.5q-18 0 -31.5 13.5t-13.5 31.5q0 19 13.5 32.5t31.5 13.5q19 0 32.5 -13.5t13.5 -32.5z" />
    <glyph glyph-name="multiply" unicode="&#xd7;" horiz-adv-x="555" 
d="M444 110l-163 174h-2l-162 -174h-62l195 205v1l-196 209h56l169 -178h1l169 178h56l-195 -209v-1l195 -205h-61z" />
    <glyph glyph-name="Oslash" unicode="&#xd8;" horiz-adv-x="871" 
d="M717 598q104 -106 104 -250q0 -151 -113 -256.5t-273 -105.5q-141 0 -247 84l-76 -76l-33 34l73 73q-102 105 -102 247q0 152 113 259.5t272 107.5q139 0 246 -85l77 77l34 -33zM435 667q-139 0 -238 -93.5t-99 -225.5q0 -121 87 -210h4l457 456v3q-92 70 -211 70z
M435 34q140 0 239 91.5t99 222.5q0 123 -89 215h-2l-457 -457v-4q94 -68 210 -68z" />
    <glyph glyph-name="Ugrave" unicode="&#xd9;" horiz-adv-x="799" 
d="M671 699h48v-366q0 -157 -84 -253.5t-235 -96.5q-153 0 -236.5 96.5t-83.5 253.5v366h48v-366q0 -142 72 -222t200 -80q127 0 199 80t72 222v366zM322 955l118 -166h-52l-140 166h74z" />
    <glyph glyph-name="Uacute" unicode="&#xda;" horiz-adv-x="799" 
d="M671 699h48v-366q0 -157 -84 -253.5t-235 -96.5q-153 0 -236.5 96.5t-83.5 253.5v366h48v-366q0 -142 72 -222t200 -80q127 0 199 80t72 222v366zM363 789l118 166h74l-140 -166h-52z" />
    <glyph glyph-name="Ucircumflex" unicode="&#xdb;" horiz-adv-x="799" 
d="M671 699h48v-366q0 -157 -84 -253.5t-235 -96.5q-153 0 -236.5 96.5t-83.5 253.5v366h48v-366q0 -142 72 -222t200 -80q127 0 199 80t72 222v366zM372 933h50l160 -161v-8h-58l-127 132l-126 -132h-59v8z" />
    <glyph glyph-name="Udieresis" unicode="&#xdc;" horiz-adv-x="799" 
d="M671 699h48v-366q0 -157 -84 -253.5t-235 -96.5q-153 0 -236.5 96.5t-83.5 253.5v366h48v-366q0 -142 72 -222t200 -80q127 0 199 80t72 222v366zM323 857q0 -18 -13.5 -31.5t-32.5 -13.5q-18 0 -31.5 13.5t-13.5 31.5q0 19 13.5 32.5t31.5 13.5q19 0 32.5 -13.5
t13.5 -32.5zM565 857q0 -18 -13.5 -31.5t-32.5 -13.5q-18 0 -31.5 13.5t-13.5 31.5q0 19 13.5 32.5t31.5 13.5q19 0 32.5 -13.5t13.5 -32.5z" />
    <glyph glyph-name="Yacute" unicode="&#xdd;" horiz-adv-x="627" 
d="M561 699h56l-278 -412v-287h-48v287l-281 412h56l247 -363h4zM295 789l118 166h74l-140 -166h-52z" />
    <glyph glyph-name="Thorn" unicode="&#xde;" horiz-adv-x="643" 
d="M380 556q103 0 163.5 -56t60.5 -151q0 -97 -59.5 -151t-164.5 -54h-267v-144h-48v699h48v-143h267zM393 189q71 0 117.5 45t46.5 115t-46.5 116t-117.5 46h-280v-322h280z" />
    <glyph glyph-name="germandbls" unicode="&#xdf;" horiz-adv-x="612" 
d="M358 373q8 -1 21 -3t46 -13.5t58 -29.5t46 -55t21 -85q0 -90 -64 -145.5t-169 -55.5q-26 0 -53.5 2.5t-41.5 5.5l-15 2v47q64 -13 116 -13q84 0 131 43t47 114q0 77 -65 119t-176 42v43q80 0 125.5 43.5t45.5 107.5t-43.5 98t-109.5 34q-64 0 -105.5 -41.5t-41.5 -115.5
v-517h-48v517q0 95 55.5 147.5t144.5 52.5q87 0 142 -46.5t55 -121.5q0 -39 -12.5 -70.5t-30.5 -49.5t-36 -30.5t-31 -16.5l-12 -4v-5z" />
    <glyph glyph-name="agrave" unicode="&#xe0;" horiz-adv-x="670" 
d="M311 512q129 0 194 -68t65 -187v-257h-34l-13 99h-2q-28 -50 -88 -82t-144 -32q-107 0 -164.5 41.5t-57.5 116.5q0 76 53 108.5t179 32.5q41 0 97 -4t91 -8l35 -4q0 89 -53 142.5t-158 53.5q-131 0 -197 -100l-46 22q84 126 243 126zM289 33q117 0 175 52t58 140
q-116 16 -223 16q-106 0 -145 -24t-39 -74q0 -110 174 -110zM228 751l118 -166h-52l-140 166h74z" />
    <glyph glyph-name="aacute" unicode="&#xe1;" horiz-adv-x="641" 
d="M311 512q129 0 194 -68t65 -187v-257h-34l-13 99h-2q-28 -50 -88 -82t-144 -32q-107 0 -164.5 41.5t-57.5 116.5q0 76 53 108.5t179 32.5q41 0 97 -4t91 -8l35 -4q0 89 -53 142.5t-158 53.5q-131 0 -197 -100l-46 22q84 126 243 126zM289 33q117 0 175 52t58 140
q-116 16 -223 16q-106 0 -145 -24t-39 -74q0 -110 174 -110zM309 585l118 166h74l-140 -166h-52z" />
    <glyph glyph-name="acircumflex" unicode="&#xe2;" horiz-adv-x="635" 
d="M311 512q129 0 194 -68t65 -187v-257h-34l-13 99h-2q-28 -50 -88 -82t-144 -32q-107 0 -164.5 41.5t-57.5 116.5q0 76 53 108.5t179 32.5q41 0 97 -4t91 -8l35 -4q0 89 -53 142.5t-158 53.5q-131 0 -197 -100l-46 22q84 126 243 126zM289 33q117 0 175 52t58 140
q-116 16 -223 16q-106 0 -145 -24t-39 -74q0 -110 174 -110zM298 729h50l160 -161v-8h-58l-127 132l-126 -132h-59v8z" />
    <glyph glyph-name="atilde" unicode="&#xe3;" horiz-adv-x="670" 
d="M311 512q129 0 194 -68t65 -187v-257h-34l-13 99h-2q-28 -50 -88 -82t-144 -32q-107 0 -164.5 41.5t-57.5 116.5q0 76 53 108.5t179 32.5q41 0 97 -4t91 -8l35 -4q0 89 -53 142.5t-158 53.5q-131 0 -197 -100l-46 22q84 126 243 126zM289 33q117 0 175 52t58 140
q-116 16 -223 16q-106 0 -145 -24t-39 -74q0 -110 174 -110zM418 654q22 0 45.5 11t36.5 22l12 11v-45q-5 -5 -14 -12.5t-35.5 -20.5t-50.5 -13q-34 0 -82.5 17.5t-75.5 17.5q-22 0 -45.5 -10t-36.5 -20l-12 -9v45q45 41 100 41q34 0 82.5 -17.5t75.5 -17.5z" />
    <glyph glyph-name="adieresis" unicode="&#xe4;" horiz-adv-x="636" 
d="M311 512q129 0 194 -68t65 -187v-257h-34l-13 99h-2q-28 -50 -88 -82t-144 -32q-107 0 -164.5 41.5t-57.5 116.5q0 76 53 108.5t179 32.5q41 0 97 -4t91 -8l35 -4q0 89 -53 142.5t-158 53.5q-131 0 -197 -100l-46 22q84 126 243 126zM289 33q117 0 175 52t58 140
q-116 16 -223 16q-106 0 -145 -24t-39 -74q0 -110 174 -110zM239 653q0 -18 -13.5 -31.5t-32.5 -13.5q-18 0 -31.5 13.5t-13.5 31.5q0 19 13.5 32.5t31.5 13.5q19 0 32.5 -13.5t13.5 -32.5zM481 653q0 -18 -13.5 -31.5t-32.5 -13.5q-18 0 -31.5 13.5t-13.5 31.5
q0 19 13.5 32.5t31.5 13.5q19 0 32.5 -13.5t13.5 -32.5z" />
    <glyph glyph-name="aring" unicode="&#xe5;" horiz-adv-x="650" 
d="M312 572q-52 0 -89 35t-37 85t37 85.5t89 35.5t89 -35.5t37 -85.5q0 -49 -37 -84.5t-89 -35.5zM312 772q-34 0 -58.5 -23.5t-24.5 -56.5q0 -32 24.5 -55.5t58.5 -23.5t58.5 23.5t24.5 55.5q0 33 -24.5 56.5t-58.5 23.5zM311 512q129 0 194 -68t65 -187v-257h-34l-13 99
h-2q-28 -50 -88 -82t-144 -32q-107 0 -164.5 41.5t-57.5 116.5q0 76 53 108.5t179 32.5q41 0 97 -4t91 -8l35 -4q0 89 -53 142.5t-158 53.5q-131 0 -197 -100l-46 22q84 126 243 126zM289 33q117 0 175 52t58 140q-116 16 -223 16q-106 0 -145 -24t-39 -74q0 -110 174 -110z
" />
    <glyph glyph-name="ae" unicode="&#xe6;" horiz-adv-x="1051" 
d="M993 251v-20h-459q8 -88 64.5 -142t141.5 -54q58 0 104.5 26t73.5 72l38 -19q-34 -58 -91.5 -92.5t-124.5 -34.5q-77 0 -138.5 41.5t-91.5 112.5l-1 3q-21 -68 -81 -112.5t-157 -44.5q-98 0 -151 41.5t-53 116.5q0 74 51.5 107.5t161.5 33.5q38 0 88.5 -2.5t81.5 -5.5
l32 -2q0 89 -47 139.5t-145 50.5q-119 0 -180 -100l-41 22q75 126 221 126q174 0 222 -143q31 65 91 104t137 39q113 0 183 -75t70 -188zM271 35q106 0 158.5 53.5t52.5 143.5q-104 11 -202 11q-93 0 -129 -24.5t-36 -73.5q0 -110 156 -110zM534 276h409q-8 85 -64 138
t-139 53q-85 0 -141.5 -53t-64.5 -138z" />
    <glyph glyph-name="ccedilla" unicode="&#xe7;" horiz-adv-x="594" 
d="M551 111q-37 -56 -97.5 -90t-132.5 -35v-65q92 0 139.5 -34t47.5 -92q0 -130 -153 -130q-36 0 -66.5 6.5t-43.5 12.5l-13 6v55q54 -31 122 -31q58 0 81 17.5t23 61.5q0 38 -33 58.5t-117 20.5h-30l1 117q-101 14 -169 87.5t-68 172.5q0 109 80.5 186.5t194.5 77.5
q71 0 132 -32t98 -87l-42 -23q-31 43 -80.5 68.5t-107.5 25.5q-94 0 -160.5 -63.5t-66.5 -152.5t66.5 -152t160.5 -63q59 0 109 26.5t81 71.5z" />
    <glyph glyph-name="egrave" unicode="&#xe8;" horiz-adv-x="654" 
d="M523 130l41 -19q-38 -58 -100 -92.5t-136 -34.5q-116 0 -197 75.5t-81 188.5q0 110 78.5 186.5t199.5 76.5q123 0 199.5 -75t76.5 -188v-23h-505q8 -85 72 -139t157 -54q63 0 113.5 26t81.5 72zM328 464q-93 0 -156.5 -53.5t-72.5 -137.5h457q-9 84 -72.5 137.5
t-155.5 53.5zM235 751l118 -166h-52l-140 166h74z" />
    <glyph glyph-name="eacute" unicode="&#xe9;" horiz-adv-x="654" 
d="M523 130l41 -19q-38 -58 -100 -92.5t-136 -34.5q-116 0 -197 75.5t-81 188.5q0 110 78.5 186.5t199.5 76.5q123 0 199.5 -75t76.5 -188v-23h-505q8 -85 72 -139t157 -54q63 0 113.5 26t81.5 72zM328 464q-93 0 -156.5 -53.5t-72.5 -137.5h457q-9 84 -72.5 137.5
t-155.5 53.5zM311 585l118 166h74l-140 -166h-52z" />
    <glyph glyph-name="ecircumflex" unicode="&#xea;" horiz-adv-x="654" 
d="M523 130l41 -19q-38 -58 -100 -92.5t-136 -34.5q-116 0 -197 75.5t-81 188.5q0 110 78.5 186.5t199.5 76.5q123 0 199.5 -75t76.5 -188v-23h-505q8 -85 72 -139t157 -54q63 0 113.5 26t81.5 72zM328 464q-93 0 -156.5 -53.5t-72.5 -137.5h457q-9 84 -72.5 137.5
t-155.5 53.5zM300 729h50l160 -161v-8h-58l-127 132l-126 -132h-59v8z" />
    <glyph glyph-name="edieresis" unicode="&#xeb;" horiz-adv-x="654" 
d="M523 130l41 -19q-38 -58 -100 -92.5t-136 -34.5q-116 0 -197 75.5t-81 188.5q0 110 78.5 186.5t199.5 76.5q123 0 199.5 -75t76.5 -188v-23h-505q8 -85 72 -139t157 -54q63 0 113.5 26t81.5 72zM328 464q-93 0 -156.5 -53.5t-72.5 -137.5h457q-9 84 -72.5 137.5
t-155.5 53.5zM253 653q0 -18 -13.5 -31.5t-32.5 -13.5q-18 0 -31.5 13.5t-13.5 31.5q0 19 13.5 32.5t31.5 13.5q19 0 32.5 -13.5t13.5 -32.5zM495 653q0 -18 -13.5 -31.5t-32.5 -13.5q-18 0 -31.5 13.5t-13.5 31.5q0 19 13.5 32.5t31.5 13.5q19 0 32.5 -13.5t13.5 -32.5z
" />
    <glyph glyph-name="igrave" unicode="&#xec;" horiz-adv-x="231" 
d="M91 0v495h48v-495h-48zM22 751l118 -166h-52l-140 166h74z" />
    <glyph glyph-name="iacute" unicode="&#xed;" horiz-adv-x="232" 
d="M91 0v495h48v-495h-48zM90 585l118 166h74l-140 -166h-52z" />
    <glyph glyph-name="icircumflex" unicode="&#xee;" horiz-adv-x="232" 
d="M91 0v495h48v-495h-48zM91 729h50l160 -161v-8h-58l-127 132l-126 -132h-59v8z" />
    <glyph glyph-name="idieresis" unicode="&#xef;" horiz-adv-x="232" 
d="M91 0v495h48v-495h-48zM42 653q0 -18 -13.5 -31.5t-32.5 -13.5q-18 0 -31.5 13.5t-13.5 31.5q0 19 13.5 32.5t31.5 13.5q19 0 32.5 -13.5t13.5 -32.5zM284 653q0 -18 -13.5 -31.5t-32.5 -13.5q-18 0 -31.5 13.5t-13.5 31.5q0 19 13.5 32.5t31.5 13.5q19 0 32.5 -13.5
t13.5 -32.5z" />
    <glyph glyph-name="eth" unicode="&#xf0;" horiz-adv-x="596" 
d="M433 662q121 -90 121 -327q0 -351 -268 -351q-113 0 -180.5 69t-67.5 169t66.5 162.5t171.5 62.5q52 0 94 -14t65.5 -34t39.5 -40t21 -34l5 -14q2 22 2 46q0 199 -104 272l-56 -57h-65l79 78q-39 16 -94 16q-84 0 -152 -35l-25 41q69 42 173 42q75 0 135 -28l48 48h63z
M282 31q93 0 147 50t54 133q0 50 -18.5 87.5t-48.5 58.5t-63.5 31t-67.5 10q-88 0 -139.5 -50t-51.5 -129q0 -83 48 -137t140 -54z" />
    <glyph glyph-name="ntilde" unicode="&#xf1;" horiz-adv-x="689" 
d="M344 510q127 0 201 -74t74 -188v-248h-47l-1 248q0 96 -60.5 155.5t-166.5 59.5q-104 0 -165 -58t-61 -157v-248h-48v495h35l13 -97h2q38 52 97 82t127 30zM421 654q22 0 45.5 11t35.5 22l13 11v-45q-5 -5 -14 -12.5t-35.5 -20.5t-50.5 -13q-34 0 -82.5 17.5t-75.5 17.5
q-22 0 -45.5 -10t-35.5 -20l-13 -9v45q45 41 100 41q34 0 82.5 -17.5t75.5 -17.5z" />
    <glyph glyph-name="ograve" unicode="&#xf2;" horiz-adv-x="650" 
d="M325 511q114 0 194.5 -77t80.5 -186t-80.5 -186t-194.5 -77t-194.5 77t-80.5 186t80.5 186t194.5 77zM325 33q94 0 160.5 63t66.5 152t-66.5 152t-160.5 63t-160.5 -63t-66.5 -152t66.5 -152t160.5 -63zM236 751l118 -166h-52l-140 166h74z" />
    <glyph glyph-name="oacute" unicode="&#xf3;" horiz-adv-x="650" 
d="M325 511q114 0 194.5 -77t80.5 -186t-80.5 -186t-194.5 -77t-194.5 77t-80.5 186t80.5 186t194.5 77zM325 33q94 0 160.5 63t66.5 152t-66.5 152t-160.5 63t-160.5 -63t-66.5 -152t66.5 -152t160.5 -63zM300 585l118 166h74l-140 -166h-52z" />
    <glyph glyph-name="ocircumflex" unicode="&#xf4;" horiz-adv-x="650" 
d="M325 511q114 0 194.5 -77t80.5 -186t-80.5 -186t-194.5 -77t-194.5 77t-80.5 186t80.5 186t194.5 77zM325 33q94 0 160.5 63t66.5 152t-66.5 152t-160.5 63t-160.5 -63t-66.5 -152t66.5 -152t160.5 -63zM303 729h50l160 -161v-8h-58l-127 132l-126 -132h-59v8z" />
    <glyph glyph-name="otilde" unicode="&#xf5;" horiz-adv-x="650" 
d="M325 511q114 0 194.5 -77t80.5 -186t-80.5 -186t-194.5 -77t-194.5 77t-80.5 186t80.5 186t194.5 77zM325 33q94 0 160.5 63t66.5 152t-66.5 152t-160.5 63t-160.5 -63t-66.5 -152t66.5 -152t160.5 -63zM410 654q22 0 45.5 11t36.5 22l12 11v-45q-5 -5 -14 -12.5
t-35.5 -20.5t-50.5 -13q-34 0 -82.5 17.5t-75.5 17.5q-22 0 -45.5 -10t-36.5 -20l-12 -9v45q45 41 100 41q34 0 82.5 -17.5t75.5 -17.5z" />
    <glyph glyph-name="odieresis" unicode="&#xf6;" horiz-adv-x="650" 
d="M325 511q114 0 194.5 -77t80.5 -186t-80.5 -186t-194.5 -77t-194.5 77t-80.5 186t80.5 186t194.5 77zM325 33q94 0 160.5 63t66.5 152t-66.5 152t-160.5 63t-160.5 -63t-66.5 -152t66.5 -152t160.5 -63zM250 653q0 -18 -13.5 -31.5t-32.5 -13.5q-18 0 -31.5 13.5
t-13.5 31.5q0 19 13.5 32.5t31.5 13.5q19 0 32.5 -13.5t13.5 -32.5zM492 653q0 -18 -13.5 -31.5t-32.5 -13.5q-18 0 -31.5 13.5t-13.5 31.5q0 19 13.5 32.5t31.5 13.5q19 0 32.5 -13.5t13.5 -32.5z" />
    <glyph glyph-name="divide" unicode="&#xf7;" horiz-adv-x="620" 
d="M67 368h482v-38h-482v38zM353 155q0 -18 -13.5 -31.5t-32.5 -13.5q-18 0 -31.5 13.5t-13.5 31.5q0 19 13.5 32.5t31.5 13.5q19 0 32.5 -13.5t13.5 -32.5zM353 542q0 -18 -13.5 -31.5t-32.5 -13.5q-18 0 -31.5 13.5t-13.5 31.5q0 19 13.5 32.5t31.5 13.5q19 0 32.5 -13.5
t13.5 -32.5z" />
    <glyph glyph-name="oslash" unicode="&#xf8;" horiz-adv-x="650" 
d="M530 423q70 -75 70 -176q0 -109 -80.5 -185.5t-194.5 -76.5q-97 0 -174 59l-50 -51l-30 30l49 49q-70 77 -70 175q0 109 80.5 186.5t194.5 77.5q99 0 174 -59l51 50l30 -29zM325 463q-94 0 -160.5 -63.5t-66.5 -152.5q0 -79 54 -139h5l304 308v3q-60 44 -136 44zM325 33
q94 0 160.5 63t66.5 151q0 80 -55 140h-4l-305 -308v-3q61 -43 137 -43z" />
    <glyph glyph-name="ugrave" unicode="&#xf9;" horiz-adv-x="667" 
d="M331 -15q-129 0 -195 69.5t-66 192.5v248h47l1 -248q0 -98 54 -156.5t159 -58.5q98 0 158 57.5t60 157.5v248h48v-495h-35l-13 97h-2q-81 -112 -216 -112zM249 751l118 -166h-52l-140 166h74z" />
    <glyph glyph-name="uacute" unicode="&#xfa;" horiz-adv-x="667" 
d="M331 -15q-129 0 -195 69.5t-66 192.5v248h47l1 -248q0 -98 54 -156.5t159 -58.5q98 0 158 57.5t60 157.5v248h48v-495h-35l-13 97h-2q-81 -112 -216 -112zM301 585l118 166h74l-140 -166h-52z" />
    <glyph glyph-name="ucircumflex" unicode="&#xfb;" horiz-adv-x="667" 
d="M331 -15q-129 0 -195 69.5t-66 192.5v248h47l1 -248q0 -98 54 -156.5t159 -58.5q98 0 158 57.5t60 157.5v248h48v-495h-35l-13 97h-2q-81 -112 -216 -112zM312 729h50l160 -161v-8h-58l-127 132l-126 -132h-59v8z" />
    <glyph glyph-name="udieresis" unicode="&#xfc;" horiz-adv-x="667" 
d="M331 -15q-129 0 -195 69.5t-66 192.5v248h47l1 -248q0 -98 54 -156.5t159 -58.5q98 0 158 57.5t60 157.5v248h48v-495h-35l-13 97h-2q-81 -112 -216 -112zM256 653q0 -18 -13.5 -31.5t-32.5 -13.5q-18 0 -31.5 13.5t-13.5 31.5q0 19 13.5 32.5t31.5 13.5q19 0 32.5 -13.5
t13.5 -32.5zM498 653q0 -18 -13.5 -31.5t-32.5 -13.5q-18 0 -31.5 13.5t-13.5 31.5q0 19 13.5 32.5t31.5 13.5q19 0 32.5 -13.5t13.5 -32.5z" />
    <glyph glyph-name="yacute" unicode="&#xfd;" horiz-adv-x="546" 
d="M489 495h52l-350 -715h-55l107 220l-238 495h59l203 -439h3zM251 585l118 166h74l-140 -166h-52z" />
    <glyph glyph-name="thorn" unicode="&#xfe;" horiz-adv-x="668" 
d="M339 501q115 0 195.5 -77t80.5 -187q0 -109 -80.5 -186t-195.5 -77q-69 0 -131.5 31t-100.5 82h-1v-305h-48v930l48 17v-341h2q38 52 100 82.5t131 30.5zM339 22q95 0 161.5 63t66.5 152t-67 152.5t-161 63.5t-163.5 -63.5t-69.5 -152.5t69.5 -152t163.5 -63z" />
    <glyph glyph-name="ydieresis" unicode="&#xff;" horiz-adv-x="546" 
d="M489 495h52l-350 -715h-55l107 220l-238 495h59l203 -439h3zM192 653q0 -18 -13.5 -31.5t-32.5 -13.5q-18 0 -31.5 13.5t-13.5 31.5q0 19 13.5 32.5t31.5 13.5q19 0 32.5 -13.5t13.5 -32.5zM434 653q0 -18 -13.5 -31.5t-32.5 -13.5q-18 0 -31.5 13.5t-13.5 31.5
q0 19 13.5 32.5t31.5 13.5q19 0 32.5 -13.5t13.5 -32.5z" />
    <glyph glyph-name="Abreve" unicode="&#x102;" 
d="M678 0l-90 188h-435l-90 -188h-53l335 699h51l335 -699h-53zM175 233h391l-193 404h-4zM500 928h48q0 -71 -52.5 -120.5t-126.5 -49.5q-73 0 -125 49.5t-52 120.5h47q0 -50 38.5 -86t91.5 -36q54 0 92.5 36t38.5 86z" />
    <glyph glyph-name="abreve" unicode="&#x103;" horiz-adv-x="631" 
d="M311 512q129 0 194 -68t65 -187v-257h-34l-13 99h-2q-28 -50 -88 -82t-144 -32q-107 0 -164.5 41.5t-57.5 116.5q0 76 53 108.5t179 32.5q41 0 97 -4t91 -8l35 -4q0 89 -53 142.5t-158 53.5q-131 0 -197 -100l-46 22q84 126 243 126zM289 33q117 0 175 52t58 140
q-116 16 -223 16q-106 0 -145 -24t-39 -74q0 -110 174 -110zM438 752h48q0 -71 -52.5 -120.5t-126.5 -49.5q-73 0 -125 49.5t-52 120.5h47q0 -50 38.5 -86t91.5 -36q54 0 92.5 36t38.5 86z" />
    <glyph glyph-name="Aogonek" unicode="&#x104;" 
d="M607 -136q0 -33 18 -50t48 -17q15 0 29.5 2.5t21.5 5.5l7 3v-46q-23 -9 -59 -9q-52 0 -84 27.5t-32 82.5q0 88 114 154l-82 171h-435l-90 -188h-53l335 699h51l335 -699h-25q-37 -20 -68 -54.5t-31 -81.5zM175 233h391l-193 404h-4z" />
    <glyph glyph-name="aogonek" unicode="&#x105;" horiz-adv-x="637" 
d="M440 -135q0 -33 18 -50t48 -17q15 0 29.5 3t21.5 5l7 3v-46q-23 -9 -59 -9q-52 0 -84 27.5t-32 82.5q0 31 16 61t42 51.5t44 33.5t34 21l-9 67h-1q-30 -49 -90 -81.5t-143 -32.5q-107 0 -164.5 41.5t-57.5 117.5q0 75 53 108t180 33q41 0 97 -4t91 -8l35 -5q0 90 -53 143
t-159 53q-131 0 -197 -99l-45 22q82 125 242 125q129 0 194.5 -67.5t65.5 -186.5v-257h-27q-97 -57 -97 -135zM282 32q117 0 175.5 52t58.5 141q-117 15 -223 15t-145.5 -24t-39.5 -73q0 -50 41.5 -80.5t132.5 -30.5z" />
    <glyph glyph-name="Cacute" unicode="&#x106;" horiz-adv-x="783" 
d="M694 143l40 -29q-52 -62 -133 -96.5t-165 -34.5q-165 0 -275.5 103.5t-110.5 262.5t109.5 263t276.5 104q88 0 165.5 -35.5t131.5 -97.5l-40 -29q-103 114 -257 114q-148 0 -243 -88.5t-95 -229.5q0 -140 97 -229.5t241 -89.5q77 0 144.5 29.5t113.5 82.5zM413 790
l118 166h74l-140 -166h-52z" />
    <glyph glyph-name="cacute" unicode="&#x107;" horiz-adv-x="609" 
d="M515 131l44 -20q-37 -57 -99 -91t-135 -34q-114 0 -194.5 76.5t-80.5 185.5t80.5 186.5t194.5 77.5q71 0 132 -32t98 -87l-42 -23q-31 43 -80.5 68.5t-107.5 25.5q-94 0 -160.5 -63.5t-66.5 -152.5q0 -88 66.5 -151t160.5 -63q59 0 109 26.5t81 70.5zM304 585l118 166h74
l-140 -166h-52z" />
    <glyph glyph-name="Ccaron" unicode="&#x10c;" horiz-adv-x="783" 
d="M694 143l40 -29q-52 -62 -133 -96.5t-165 -34.5q-165 0 -275.5 103.5t-110.5 262.5t109.5 263t276.5 104q88 0 165.5 -35.5t131.5 -97.5l-40 -29q-103 114 -257 114q-148 0 -243 -88.5t-95 -229.5q0 -140 97 -229.5t241 -89.5q77 0 144.5 29.5t113.5 82.5zM459 749h-50
l-160 161v8h58l127 -139l126 139h58v-8z" />
    <glyph glyph-name="ccaron" unicode="&#x10d;" horiz-adv-x="609" 
d="M515 131l44 -20q-37 -57 -99 -91t-135 -34q-114 0 -194.5 76.5t-80.5 185.5t80.5 186.5t194.5 77.5q71 0 132 -32t98 -87l-42 -23q-31 43 -80.5 68.5t-107.5 25.5q-94 0 -160.5 -63.5t-66.5 -152.5q0 -88 66.5 -151t160.5 -63q59 0 109 26.5t81 70.5zM353 544h-50
l-160 161v8h58l127 -139l126 139h58v-8z" />
    <glyph glyph-name="Dcaron" unicode="&#x10e;" horiz-adv-x="766" 
d="M315 699q220 0 310.5 -81.5t90.5 -268.5q0 -184 -92 -266.5t-309 -82.5h-245v699h245zM315 47q188 0 270.5 67t82.5 236t-82 235t-271 66h-197v-604h197zM368 749h-50l-160 161v8h58l127 -139l126 139h58v-8z" />
    <glyph glyph-name="dcroat" unicode="&#x111;" horiz-adv-x="681" 
d="M703 606v-44h-103v-562h-36l-12 98h-1q-38 -52 -97.5 -82.5t-128.5 -30.5q-114 0 -194.5 77t-80.5 186t80.5 186t194.5 77q69 0 128.5 -30.5t96.5 -82.5h2v164h-104v44h104v77l48 16v-93h103zM325 33q94 0 163.5 63t69.5 152q0 88 -69.5 151.5t-163.5 63.5t-160.5 -63
t-66.5 -152t66.5 -152t160.5 -63z" />
    <glyph glyph-name="Eogonek" unicode="&#x118;" horiz-adv-x="648" 
d="M598 651h-470v-279h416v-46h-416v-278h470v-48h-24q-100 -57 -100 -136q0 -33 18 -50t48 -17q15 0 29.5 2.5t21.5 5.5l7 3v-46q-23 -9 -59 -9q-52 0 -84 27.5t-32 82.5q0 75 88 137h-431v699h518v-48z" />
    <glyph glyph-name="eogonek" unicode="&#x119;" horiz-adv-x="654" 
d="M603 248v-23h-505q8 -85 72 -139t157 -54q63 0 113.5 26t81.5 72l41 -19q-46 -72 -127 -106q-22 -12 -43 -27t-43.5 -47t-22.5 -67q0 -33 18 -50t48 -17q15 0 29.5 2.5t21.5 5.5l7 3v-46q-23 -9 -59 -9q-52 0 -84 27.5t-32 82.5q0 66 67 121h-16q-116 0 -197 75.5
t-81 188.5q0 110 78.5 186.5t199.5 76.5q123 0 199.5 -75t76.5 -188zM98 273h457q-9 84 -72.5 137.5t-155.5 53.5q-93 0 -156.5 -53.5t-72.5 -137.5z" />
    <glyph glyph-name="Ecaron" unicode="&#x11a;" horiz-adv-x="648" 
d="M598 651h-470v-279h416v-46h-416v-278h470v-48h-518v699h518v-48zM371 749h-50l-160 161v8h58l127 -139l126 139h58v-8z" />
    <glyph glyph-name="ecaron" unicode="&#x11b;" horiz-adv-x="654" 
d="M523 130l41 -19q-38 -58 -100 -92.5t-136 -34.5q-116 0 -197 75.5t-81 188.5q0 110 78.5 186.5t199.5 76.5q123 0 199.5 -75t76.5 -188v-23h-505q8 -85 72 -139t157 -54q63 0 113.5 26t81.5 72zM328 464q-93 0 -156.5 -53.5t-72.5 -137.5h457q-9 84 -72.5 137.5
t-155.5 53.5zM352 544h-50l-160 161v8h58l127 -139l126 139h58v-8z" />
    <glyph glyph-name="Gbreve" unicode="&#x11e;" horiz-adv-x="820" 
d="M414 368h346v-368h-40l-9 104h-3q-38 -57 -110.5 -89t-162.5 -32q-159 0 -272 105.5t-113 256.5t113 258.5t272 107.5q87 0 163.5 -34.5t130.5 -94.5l-40 -28q-102 110 -254 110q-139 0 -238 -93.5t-99 -225.5t98.5 -223t238.5 -91q129 0 203 63t74 169l1 62h-299v43z
M569 928h48q0 -71 -52.5 -120.5t-126.5 -49.5q-73 0 -125 49.5t-52 120.5h47q0 -50 38.5 -86t91.5 -36q54 0 92.5 36t38.5 86z" />
    <glyph glyph-name="gbreve" unicode="&#x11f;" horiz-adv-x="670" 
d="M560 495h40v-420q0 -168 -69 -239t-218 -71q-64 0 -137.5 22.5t-100.5 43.5l13 45q40 -25 105 -45t120 -20q127 0 184 62t57 203v22h-3q-38 -52 -97.5 -82.5t-128.5 -30.5q-114 0 -194.5 77t-80.5 186t80.5 186t194.5 77q69 0 128.5 -30t97.5 -82h1zM325 33q95 0 164 63
t69 152t-69 152t-164 63q-94 0 -160.5 -63t-66.5 -152t66.5 -152t160.5 -63zM465 723h48q0 -71 -52.5 -120.5t-126.5 -49.5q-73 0 -125 49.5t-52 120.5h47q0 -50 38.5 -86t91.5 -36q54 0 92.5 36t38.5 86z" />
    <glyph glyph-name="Idotaccent" unicode="&#x130;" horiz-adv-x="208" 
d="M80 699h48v-699h-48v699zM149 858q0 -18 -13.5 -31.5t-32.5 -13.5q-18 0 -31.5 13.5t-13.5 31.5q0 19 13.5 32.5t31.5 13.5q19 0 32.5 -13.5t13.5 -32.5z" />
    <glyph glyph-name="dotlessi" unicode="&#x131;" horiz-adv-x="302" 
d="M259 591v-435h-51v382h-167v53h218z" />
    <glyph glyph-name="Lacute" unicode="&#x139;" horiz-adv-x="537" 
d="M128 48h389v-48h-437v699h48v-651zM79 790l118 166h74l-140 -166h-52z" />
    <glyph glyph-name="lacute" unicode="&#x13a;" horiz-adv-x="188" 
d="M70 0v682l48 17v-699h-48zM68 787l118 166h74l-140 -166h-52z" />
    <glyph glyph-name="Lslash" unicode="&#x141;" horiz-adv-x="670" 
d="M181 48h470v-48h-518v293l-97 -42v53l97 41v354h48v-334l346 148v-52l-346 -148v-265z" />
    <glyph glyph-name="lslash" unicode="&#x142;" horiz-adv-x="425" 
d="M384 504v-53l-188 -81v-370h-48v350l-111 -47v52l111 48v282l48 14v-276z" />
    <glyph glyph-name="Nacute" unicode="&#x143;" horiz-adv-x="767" 
d="M640 699h47v-699h-34l-523 610h-2v-610h-48v699h36l521 -608h3v608zM379 790l118 166h74l-140 -166h-52z" />
    <glyph glyph-name="nacute" unicode="&#x144;" horiz-adv-x="689" 
d="M344 510q127 0 201 -74t74 -188v-248h-47l-1 248q0 96 -60.5 155.5t-166.5 59.5q-104 0 -165 -58t-61 -157v-248h-48v495h35l13 -97h2q38 52 97 82t127 30zM322 585l118 166h74l-140 -166h-52z" />
    <glyph glyph-name="Ncaron" unicode="&#x147;" horiz-adv-x="767" 
d="M640 699h47v-699h-34l-523 610h-2v-610h-48v699h36l521 -608h3v608zM409 749h-50l-160 161v8h58l127 -139l126 139h58v-8z" />
    <glyph glyph-name="ncaron" unicode="&#x148;" horiz-adv-x="689" 
d="M344 510q127 0 201 -74t74 -188v-248h-47l-1 248q0 96 -60.5 155.5t-166.5 59.5q-104 0 -165 -58t-61 -157v-248h-48v495h35l13 -97h2q38 52 97 82t127 30zM370 544h-50l-160 161v8h58l127 -139l126 139h58v-8z" />
    <glyph glyph-name="Ohungarumlaut" unicode="&#x150;" horiz-adv-x="871" 
d="M435 714q160 0 273 -107.5t113 -258.5t-113 -256.5t-273 -105.5q-159 0 -272 105.5t-113 256.5t113 258.5t272 107.5zM435 33q141 0 239.5 91.5t98.5 223.5t-99 225t-239 93t-238.5 -93t-98.5 -225t98.5 -223.5t238.5 -91.5zM321 790l118 166h74l-140 -166h-52zM519 790
l118 166h74l-140 -166h-52z" />
    <glyph glyph-name="ohungarumlaut" unicode="&#x151;" horiz-adv-x="650" 
d="M325 511q114 0 194.5 -77t80.5 -186t-80.5 -186t-194.5 -77t-194.5 77t-80.5 186t80.5 186t194.5 77zM325 33q94 0 160.5 63t66.5 152t-66.5 152t-160.5 63t-160.5 -63t-66.5 -152t66.5 -152t160.5 -63zM202 585l118 166h74l-140 -166h-52zM400 585l118 166h74l-140 -166
h-52z" />
    <glyph glyph-name="OE" unicode="&#x152;" horiz-adv-x="999" 
d="M939 651h-373v-279h320v-46h-320v-278h373v-48h-479q-216 0 -308.5 83t-92.5 266q0 186 91 268t310 82h479v-48zM518 48v603h-58q-188 0 -270.5 -66t-82.5 -235q0 -168 83 -235.5t270 -67.5z" />
    <glyph glyph-name="oe" unicode="&#x153;" horiz-adv-x="1162" 
d="M836 30q63 0 114 26.5t81 72.5l41 -20q-38 -58 -100.5 -92t-135.5 -34q-85 0 -154 44t-102 115h-1q-32 -71 -100.5 -115t-152.5 -44q-114 0 -195 77t-81 186t81 186.5t195 77.5q83 0 151.5 -44t101.5 -115h2q32 71 101 115t154 44q121 0 198.5 -75.5t77.5 -188.5v-23
h-505q8 -85 72 -139t157 -54zM836 462q-93 0 -156.5 -53t-72.5 -138h457q-9 85 -72.5 138t-155.5 53zM326 31q94 0 160.5 63t66.5 152t-66.5 152.5t-160.5 63.5t-161 -63.5t-67 -152.5t67 -152t161 -63z" />
    <glyph glyph-name="Racute" unicode="&#x154;" horiz-adv-x="761" 
d="M669 482q0 -75 -46 -130t-121 -74l166 -278h-50l-159 270q-10 -1 -31 -1h-299v-269h-49v699h348q109 0 175 -60t66 -157zM428 315q85 0 139.5 45t54.5 122t-53.5 124t-140.5 47h-299v-338h299zM339 790l118 166h74l-140 -166h-52z" />
    <glyph glyph-name="racute" unicode="&#x155;" horiz-adv-x="406" 
d="M312 506q33 0 75 -16v-53q-35 22 -75 22q-195 0 -195 -256v-203h-47v495h35l12 -97h2q27 53 79.5 80.5t113.5 27.5zM184 585l118 166h74l-140 -166h-52z" />
    <glyph glyph-name="Rcaron" unicode="&#x158;" horiz-adv-x="761" 
d="M669 482q0 -75 -46 -130t-121 -74l166 -278h-50l-159 270q-10 -1 -31 -1h-299v-269h-49v699h348q109 0 175 -60t66 -157zM428 315q85 0 139.5 45t54.5 122t-53.5 124t-140.5 47h-299v-338h299zM374 749h-50l-160 161v8h58l127 -139l126 139h58v-8z" />
    <glyph glyph-name="rcaron" unicode="&#x159;" horiz-adv-x="406" 
d="M312 506q33 0 75 -16v-53q-35 22 -75 22q-195 0 -195 -256v-203h-47v495h35l12 -97h2q27 53 79.5 80.5t113.5 27.5zM249 544h-50l-160 161v8h58l127 -139l126 139h58v-8z" />
    <glyph glyph-name="Sacute" unicode="&#x15a;" horiz-adv-x="706" 
d="M408 384q248 -27 248 -185q0 -62 -27.5 -106.5t-74 -66.5t-94 -31t-101.5 -9q-195 0 -309 103l32 36q102 -93 277 -93q122 0 185.5 44.5t63.5 117.5q0 62 -51.5 97.5t-161.5 47.5l-100 12q-221 27 -221 180q0 94 68 139t217 45q68 0 134.5 -19t112.5 -53l-35 -33
q-39 26 -96.5 43t-115.5 17q-129 0 -182.5 -34t-53.5 -105q0 -57 43 -90t146 -45zM338 790l118 166h74l-140 -166h-52z" />
    <glyph glyph-name="sacute" unicode="&#x15b;" horiz-adv-x="526" 
d="M328 265q96 -22 127 -52.5t31 -85.5q0 -71 -59.5 -106.5t-157.5 -35.5q-72 0 -140.5 22t-88.5 51l29 38q23 -24 79.5 -43.5t120.5 -19.5q90 0 129.5 25t39.5 64t-22.5 59.5t-97.5 39.5l-102 24q-97 23 -128 50t-31 81q0 61 58 97.5t154 36.5q66 0 120 -19t80 -46l-31 -38
q-65 55 -169 55q-75 0 -118 -23t-43 -62q0 -36 26 -54t95 -34zM250 585l118 166h74l-140 -166h-52z" />
    <glyph glyph-name="Scaron" unicode="&#x160;" horiz-adv-x="706" 
d="M408 384q248 -27 248 -185q0 -62 -27.5 -106.5t-74 -66.5t-94 -31t-101.5 -9q-195 0 -309 103l32 36q102 -93 277 -93q122 0 185.5 44.5t63.5 117.5q0 62 -51.5 97.5t-161.5 47.5l-100 12q-221 27 -221 180q0 94 68 139t217 45q68 0 134.5 -19t112.5 -53l-35 -33
q-39 26 -96.5 43t-115.5 17q-129 0 -182.5 -34t-53.5 -105q0 -57 43 -90t146 -45zM381 761h-50l-160 161v8h58l127 -139l126 139h58v-8z" />
    <glyph glyph-name="scaron" unicode="&#x161;" horiz-adv-x="526" 
d="M328 265q96 -22 127 -52.5t31 -85.5q0 -71 -59.5 -106.5t-157.5 -35.5q-72 0 -140.5 22t-88.5 51l29 38q23 -24 79.5 -43.5t120.5 -19.5q90 0 129.5 25t39.5 64t-22.5 59.5t-97.5 39.5l-102 24q-97 23 -128 50t-31 81q0 61 58 97.5t154 36.5q66 0 120 -19t80 -46l-31 -38
q-65 55 -169 55q-75 0 -118 -23t-43 -62q0 -36 26 -54t95 -34zM291 554h-50l-160 161v8h58l127 -139l126 139h58v-8z" />
    <glyph glyph-name="Tcaron" unicode="&#x164;" horiz-adv-x="625" 
d="M20 699h585v-47h-269v-652h-48v652h-268v47zM338 749h-50l-160 161v8h58l127 -139l126 139h58v-8z" />
    <glyph glyph-name="Uring" unicode="&#x16e;" horiz-adv-x="799" 
d="M671 699h48v-366q0 -157 -84 -253.5t-235 -96.5q-153 0 -236.5 96.5t-83.5 253.5v366h48v-366q0 -142 72 -222t200 -80q127 0 199 80t72 222v366zM253 869q0 61 42 100.5t104 39.5t104 -39.5t42 -100.5t-42 -100.5t-104 -39.5t-104 39.5t-42 100.5zM496 869
q0 42 -27.5 69t-69.5 27t-69.5 -27t-27.5 -69t27.5 -69t69.5 -27t69.5 27t27.5 69z" />
    <glyph glyph-name="uring" unicode="&#x16f;" horiz-adv-x="667" 
d="M331 -15q-129 0 -195 69.5t-66 192.5v248h47l1 -248q0 -98 54 -156.5t159 -58.5q98 0 158 57.5t60 157.5v248h48v-495h-35l-13 97h-2q-81 -112 -216 -112zM187 702q0 61 42 100.5t104 39.5t104 -39.5t42 -100.5t-42 -100.5t-104 -39.5t-104 39.5t-42 100.5zM430 702
q0 42 -27.5 69t-69.5 27t-69.5 -27t-27.5 -69t27.5 -69t69.5 -27t69.5 27t27.5 69z" />
    <glyph glyph-name="Uhungarumlaut" unicode="&#x170;" horiz-adv-x="799" 
d="M671 699h48v-366q0 -157 -84 -253.5t-235 -96.5q-153 0 -236.5 96.5t-83.5 253.5v366h48v-366q0 -142 72 -222t200 -80q127 0 199 80t72 222v366zM282 790l118 166h74l-140 -166h-52zM480 790l118 166h74l-140 -166h-52z" />
    <glyph glyph-name="uhungarumlaut" unicode="&#x171;" horiz-adv-x="667" 
d="M331 -15q-129 0 -195 69.5t-66 192.5v248h47l1 -248q0 -98 54 -156.5t159 -58.5q98 0 158 57.5t60 157.5v248h48v-495h-35l-13 97h-2q-81 -112 -216 -112zM207 585l118 166h74l-140 -166h-52zM405 585l118 166h74l-140 -166h-52z" />
    <glyph glyph-name="Ydieresis" unicode="&#x178;" horiz-adv-x="627" 
d="M561 699h56l-278 -412v-287h-48v287l-281 412h56l247 -363h4zM240 857q0 -18 -13.5 -31.5t-32.5 -13.5q-18 0 -31.5 13.5t-13.5 31.5q0 19 13.5 32.5t31.5 13.5q19 0 32.5 -13.5t13.5 -32.5zM482 857q0 -18 -13.5 -31.5t-32.5 -13.5q-18 0 -31.5 13.5t-13.5 31.5
q0 19 13.5 32.5t31.5 13.5q19 0 32.5 -13.5t13.5 -32.5z" />
    <glyph glyph-name="Zacute" unicode="&#x179;" horiz-adv-x="647" 
d="M118 49h479v-49h-547v36l476 612v3h-476v48h542l-1 -40l-473 -608v-2zM292 790l118 166h74l-140 -166h-52z" />
    <glyph glyph-name="zacute" unicode="&#x17a;" horiz-adv-x="587" 
d="M129 48h408v-48h-487v31l404 413v3h-398v48h472v-37l-399 -408v-2zM266 585l118 166h74l-140 -166h-52z" />
    <glyph glyph-name="Zdotaccent" unicode="&#x17b;" horiz-adv-x="647" 
d="M118 49h479v-49h-547v36l476 612v3h-476v48h542l-1 -40l-473 -608v-2zM368 858q0 -18 -13.5 -31.5t-32.5 -13.5q-18 0 -31.5 13.5t-13.5 31.5q0 19 13.5 32.5t31.5 13.5q19 0 32.5 -13.5t13.5 -32.5z" />
    <glyph glyph-name="zdotaccent" unicode="&#x17c;" horiz-adv-x="587" 
d="M129 48h408v-48h-487v31l404 413v3h-398v48h472v-37l-399 -408v-2zM338 653q0 -18 -13.5 -31.5t-32.5 -13.5q-18 0 -31.5 13.5t-13.5 31.5q0 19 13.5 32.5t31.5 13.5q19 0 32.5 -13.5t13.5 -32.5z" />
    <glyph glyph-name="Zcaron" unicode="&#x17d;" horiz-adv-x="647" 
d="M118 49h479v-49h-547v36l476 612v3h-476v48h542l-1 -40l-473 -608v-2zM345 748h-50l-160 161v8h58l127 -139l126 139h58v-8z" />
    <glyph glyph-name="zcaron" unicode="&#x17e;" horiz-adv-x="587" 
d="M129 48h408v-48h-487v31l404 413v3h-398v48h472v-37l-399 -408v-2zM323 544h-50l-160 161v8h58l127 -139l126 139h58v-8z" />
    <glyph glyph-name="florin" unicode="&#x192;" horiz-adv-x="367" 
d="M312 514v-47h-144l-1 -509q0 -169 -151 -199v46q104 27 104 153v509h-86v47h86q0 104 44 154t148 50v-44q-76 0 -110 -39.5t-34 -120.5h144z" />
    <glyph glyph-name="circumflex" unicode="&#x2c6;" horiz-adv-x="429" 
d="M189 729h50l160 -161v-8h-58l-127 132l-126 -132h-59v8z" />
    <glyph glyph-name="caron" unicode="&#x2c7;" horiz-adv-x="426" 
d="M237 544h-50l-160 161v8h58l127 -139l126 139h58v-8z" />
    <glyph glyph-name="breve" unicode="&#x2d8;" horiz-adv-x="397" 
d="M327 723h48q0 -71 -52.5 -120.5t-126.5 -49.5q-73 0 -125 49.5t-52 120.5h47q0 -50 38.5 -86t91.5 -36q54 0 92.5 36t38.5 86z" />
    <glyph glyph-name="dotaccent" unicode="&#x2d9;" horiz-adv-x="151" 
d="M120 653q0 -18 -13.5 -31.5t-32.5 -13.5q-18 0 -31.5 13.5t-13.5 31.5q0 19 13.5 32.5t31.5 13.5q19 0 32.5 -13.5t13.5 -32.5z" />
    <glyph glyph-name="ring" unicode="&#x2da;" horiz-adv-x="363" 
d="M35 570q0 61 42 100.5t104 39.5t104 -39.5t42 -100.5t-42 -100.5t-104 -39.5t-104 39.5t-42 100.5zM278 570q0 42 -27.5 69t-69.5 27t-69.5 -27t-27.5 -69t27.5 -69t69.5 -27t69.5 27t27.5 69z" />
    <glyph glyph-name="ogonek" unicode="&#x2db;" horiz-adv-x="240" 
d="M203 11q-5 -2 -13 -6t-29 -18t-37 -30t-29 -41t-13 -52q0 -33 18 -50t48 -17q15 0 29.5 2.5t21.5 5.5l7 3v-46q-23 -9 -59 -9q-52 0 -84 27.5t-32 82.5q0 28 13 55t31.5 45t36.5 32t31 21l13 7z" />
    <glyph glyph-name="tilde" unicode="&#x2dc;" horiz-adv-x="447" 
d="M302 654q22 0 45.5 11t36.5 22l12 11v-45q-5 -5 -14 -12.5t-35.5 -20.5t-50.5 -13q-34 0 -82.5 17.5t-75.5 17.5q-22 0 -45.5 -10t-36.5 -20l-12 -9v45q45 41 100 41q34 0 82.5 -17.5t75.5 -17.5z" />
    <glyph glyph-name="hungarumlaut" unicode="&#x2dd;" horiz-adv-x="396" 
d="M-1 585l118 166h74l-140 -166h-52zM197 585l118 166h74l-140 -166h-52z" />
    <glyph glyph-name="endash" unicode="&#x2013;" horiz-adv-x="470" 
d="M419 265h-367v44h367v-44z" />
    <glyph glyph-name="emdash" unicode="&#x2014;" horiz-adv-x="620" 
d="M566 265h-514v44h514v-44z" />
    <glyph glyph-name="quoteleft" unicode="&#x2018;" horiz-adv-x="178" 
d="M27 496l108 203h38l-65 -203h-81z" />
    <glyph glyph-name="quoteright" unicode="&#x2019;" horiz-adv-x="163" 
d="M165 699l-108 -203h-38l65 203h81z" />
    <glyph glyph-name="quotesinglbase" unicode="&#x201a;" horiz-adv-x="139" 
d="M121 89l-108 -203h-38l65 203h81z" />
    <glyph glyph-name="quotedblleft" unicode="&#x201c;" horiz-adv-x="313" 
d="M25 496l108 203h38l-65 -203h-81zM160 496l108 203h38l-65 -203h-81z" />
    <glyph glyph-name="quotedblright" unicode="&#x201d;" horiz-adv-x="287" 
d="M286 699l-108 -203h-38l65 203h81zM151 699l-108 -203h-38l65 203h81z" />
    <glyph glyph-name="quotedblbase" unicode="&#x201e;" horiz-adv-x="272" 
d="M121 89l-108 -201h-38l65 201h81zM242 89l-108 -201h-38l65 201h81z" />
    <glyph glyph-name="dagger" unicode="&#x2020;" horiz-adv-x="431" 
d="M371 495v-42h-145v-573h-41v573h-145v42h145v193h41v-193h145z" />
    <glyph glyph-name="daggerdbl" unicode="&#x2021;" horiz-adv-x="435" 
d="M380 453h-144v-333h144v-41h-144v-199h-42v199h-144v41h144v333h-144v42h144v193h42v-193h144v-42z" />
    <glyph glyph-name="bullet" unicode="&#x2022;" horiz-adv-x="303" 
d="M222 302q0 -28 -21 -48.5t-50 -20.5q-28 0 -48.5 20.5t-20.5 48.5q0 30 20.5 50.5t48.5 20.5q29 0 50 -20.5t21 -50.5z" />
    <glyph glyph-name="ellipsis" unicode="&#x2026;" horiz-adv-x="609" 
d="M149 42q0 -18 -13.5 -31.5t-32.5 -13.5q-18 0 -31.5 13.5t-13.5 31.5q0 19 13.5 32.5t31.5 13.5q19 0 32.5 -13.5t13.5 -32.5zM352 42q0 -18 -13.5 -31.5t-32.5 -13.5q-18 0 -31.5 13.5t-13.5 31.5q0 19 13.5 32.5t31.5 13.5q19 0 32.5 -13.5t13.5 -32.5zM555 42
q0 -18 -13.5 -31.5t-32.5 -13.5q-18 0 -31.5 13.5t-13.5 31.5q0 19 13.5 32.5t31.5 13.5q19 0 32.5 -13.5t13.5 -32.5z" />
    <glyph glyph-name="perthousand" unicode="&#x2030;" horiz-adv-x="1332" 
d="M391 543q0 -71 -52.5 -121t-125.5 -50q-74 0 -126 50t-52 121t52 120.5t126 49.5t126 -50t52 -120zM82 543q0 -51 38.5 -87t92.5 -36q53 0 91.5 36t38.5 87q0 50 -38.5 86t-91.5 36q-54 0 -92.5 -36t-38.5 -86zM695 323q74 0 126 -50t52 -121t-52 -120.5t-126 -49.5
q-73 0 -125 49.5t-52 120.5t52 121t125 50zM695 30q54 0 92.5 36t38.5 86q0 51 -38.5 87t-92.5 36q-53 0 -91.5 -36t-38.5 -87q0 -50 38.5 -86t91.5 -36zM1102 323q74 0 126 -50t52 -121t-52 -120.5t-126 -49.5q-73 0 -125 49.5t-52 120.5t52 121t125 50zM1102 30
q54 0 92.5 36t38.5 86q0 51 -38.5 87t-92.5 36q-53 0 -91.5 -36t-38.5 -87q0 -50 38.5 -86t91.5 -36zM644 714l44 -27l-431 -705l-39 23z" />
    <glyph glyph-name="guilsinglleft" unicode="&#x2039;" horiz-adv-x="286" 
d="M98 266l153 -204h-58l-151 204l155 203h57z" />
    <glyph glyph-name="guilsinglright" unicode="&#x203a;" horiz-adv-x="271" 
d="M175 266l-156 203h57l155 -203l-151 -204h-58z" />
    <glyph glyph-name="fraction" unicode="&#x2044;" horiz-adv-x="299" 
d="M50 -88h-48l233 858h48z" />
    <glyph glyph-name="Euro" unicode="&#x20ac;" horiz-adv-x="735" 
d="M501 30q79 0 151 35l28 -41q-77 -39 -179 -39q-132 0 -235 74.5t-137 191.5h-68v48h57q-4 32 -4 49q0 18 4 50h-57v48h68q34 118 137 193.5t235 75.5q103 0 195 -51l-28 -38q-73 41 -167 41q-114 0 -203 -60t-121 -161h387l-21 -48h-377q-4 -32 -4 -49q0 -23 5 -50h397
l-21 -48h-366q32 -100 121.5 -160.5t202.5 -60.5z" />
    <glyph glyph-name="trademark" unicode="&#x2122;" horiz-adv-x="939" 
d="M44 663v36h362v-36h-163v-395h-36v395h-163zM840 699h29v-432h-36v357h-2l-164 -226l-163 226h-1v-357h-36v432h30l169 -237h2z" />
    <glyph glyph-name="minus" unicode="&#x2212;" horiz-adv-x="504" 
d="M458 265h-406v44h406v-44z" />
    <glyph glyph-name="fi" unicode="&#xfb01;" horiz-adv-x="469" 
d="M355 694h57v-70h-57v70zM172 559v-64h236v-495h-48v450h-188v-450h-49v450h-86v45h87l-1 68q0 72 36 107.5t99 35.5q8 0 14 -1v-46q-4 1 -9 1q-41 0 -66 -24.5t-25 -76.5z" />
    <glyph glyph-name="fl" unicode="&#xfb02;" horiz-adv-x="538" 
d="M291 662q-41 0 -68 -24.5t-27 -76.5v-66h134v-47h-134v-448h-49l1 448h-86v47h86l-1 70q0 72 36.5 107.5t99.5 35.5q42 0 85 -2t66 -4l22 -3v-699h-48v655q-49 7 -117 7z" />
    <glyph glyph-name="CR" horiz-adv-x="249" 
 />
    <glyph glyph-name="AV2" horiz-adv-x="780" 
d="M392 712q152 0 235 -96.5t83 -252.5v-363h-47v279h-542v-279h-48v363q0 156 84 252.5t235 96.5zM121 324h542v39q0 142 -72 221.5t-199 79.5q-128 0 -199.5 -79.5t-71.5 -221.5v-39z" />
    <glyph glyph-name="UV2" horiz-adv-x="790" 
d="M666 699h48v-699h-40l-9 105h-4q-37 -57 -109 -88.5t-162 -31.5q-153 0 -233.5 100.5t-80.5 260.5v353h48l-1 -353q0 -141 66.5 -228t200.5 -87q60 0 108.5 12t82 35.5t49 38t35.5 38.5z" />
    <glyph glyph-name="RV1" horiz-adv-x="744" 
d="M697 491q0 -165 -171 -197l141 -294h-57l-138 285l-357 -47v-238h-49v699h408q103 0 163 -56t60 -152zM115 654v-371l349 46q98 13 142 50t44 112q0 71 -46 116.5t-117 45.5z" />
    <glyph glyph-name="RV2" horiz-adv-x="750" 
d="M488 288q32 -117 80.5 -177.5t132.5 -82.5l-30 -35q-172 46 -232 288l-324 -38v-243h-49v699h408q103 0 163 -56t60 -152q0 -164 -171 -197zM115 653v-365l349 41q99 13 142.5 50t43.5 112q0 71 -46 116.5t-116 45.5h-373z" />
    <glyph glyph-name="RV3" horiz-adv-x="878" 
d="M820 369v-43q-8 -145 -119.5 -244t-265.5 -99q-159 0 -272 105.5t-113 256.5t113 258.5t272 107.5q160 0 272 -106l-38 -31q-95 89 -234 89q-140 0 -238.5 -93t-98.5 -225t98.5 -223.5t238.5 -91.5q135 0 232 85.5t105 210.5h-382v43h430z" />
    <glyph glyph-name="KV1" horiz-adv-x="638" 
d="M295 348l326 -348h-63l-311 327h-143v-327h-47v699h47v-327h143l293 327h56l-301 -348v-3z" />
    <glyph glyph-name="TT" horiz-adv-x="588" 
d="M29 495h529v-47h-240v-448h-49v448h-240v47z" />
    <glyph glyph-name="OO" horiz-adv-x="588" 
d="M298 243q-102 0 -173.5 69t-71.5 166q0 98 71.5 166.5t173.5 68.5q101 0 173 -69t72 -166t-72 -166t-173 -69zM298 665q-82 0 -140 -55t-58 -132t58 -132t140 -55t139.5 55t57.5 132t-57.5 132t-139.5 55zM74 110v48h448v-48h-448z" />
    <glyph glyph-name="&V1" horiz-adv-x="769" 
d="M736 370v-53l-95 -1q-15 -143 -94.5 -237t-200.5 -94q-141 0 -219.5 101.5t-78.5 259.5q0 163 80 265.5t220 102.5q117 0 195 -75l-36 -38q-67 65 -161 65q-115 0 -183 -89.5t-68 -224.5v-2zM348 33q98 0 165.5 81.5t79.5 201.5l-495 -7q11 -121 77.5 -198.5t172.5 -77.5
z" />
    <glyph glyph-name="&V3" horiz-adv-x="816" 
d="M791 528q0 -173 -206 -173v-2q54 -23 91.5 -65t37.5 -98q0 -100 -95 -152.5t-241 -52.5t-241 52t-95 151q0 41 20.5 74.5t50 53t59.5 32.5t50 18l21 5v4q-6 1 -16.5 3.5t-37 14t-46.5 26.5t-36.5 43.5t-16.5 62.5q0 79 72.5 133t217.5 54q117 0 189 -37l-21 -48
q-60 38 -171 38q-112 0 -175.5 -37.5t-63.5 -100.5q0 -51 47.5 -84t127.5 -42v-55q-91 -8 -157 -54.5t-66 -102.5q0 -70 75.5 -113t212.5 -43q138 0 213.5 43t75.5 113q0 56 -57.5 100t-132.5 55v49q163 0 213.5 25t50.5 110h50z" />
    <glyph glyph-name="&V4" horiz-adv-x="795" 
d="M750 351h-152v-2q118 -48 118 -157q0 -67 -46.5 -114.5t-121 -69t-168.5 -21.5q-146 0 -241 52t-95 151q0 41 20.5 74.5t50 53t59 32.5t50.5 18l20 5v4q-6 1 -16.5 3.5t-36.5 14t-46 26.5t-36.5 43.5t-16.5 62.5q0 79 72 133.5t217 54.5q113 0 190 -37l-21 -49
q-60 38 -171 38q-113 0 -176.5 -37.5t-63.5 -100.5q0 -51 48 -84t128 -42v-55q-91 -8 -157 -54.5t-66 -102.5q0 -70 75 -112.5t213 -42.5t213.5 42.5t75.5 112.5q0 59 -56.5 102.5t-132.5 54.5v49l270 6v-52z" />
    </font>
</defs>
</svg>
